<svg viewBox="0 0 558.0197 372.734" x="0" y="0" fill="none" xmlns="http://www.w3.org/2000/svg"><g id="Real estate agent consulting clients" xmlns="http://www.w3.org/2000/svg">
<path id="Vector_297" d="M492.1819,336.7201l55.22,34.01l10.56,-123.68c0.23,-3.43 -0.25,-6.86 -1.41,-10.09c-1.16,-3.22 -2.97,-6.18 -5.31,-8.68c-2.35,-2.5 -5.18,-4.5 -8.33,-5.86c-3.15,-1.36 -6.54,-2.06 -9.97,-2.05l-61.7,0.07z" fill="#FFE2E2"/>
<path id="Vector_298" d="M377.1219,316.7901l60.32,7.47l9.44,-109.94c0.22,-3.42 -0.26,-6.85 -1.42,-10.08c-1.15,-3.23 -2.96,-6.18 -5.31,-8.68c-2.34,-2.5 -5.18,-4.5 -8.33,-5.86c-3.14,-1.36 -6.54,-2.06 -9.97,-2.06l-61.7,0.08z" fill="#FFE2E2"/>
<path id="Vector_299" d="M70.7319,335.8201l-60.95,31.57l-9.08,-133.85c-0.23,-3.43 0.25,-6.86 1.39,-10.09c1.15,-3.23 2.95,-6.19 5.29,-8.7c2.34,-2.5 5.17,-4.5 8.31,-5.87c3.15,-1.37 6.54,-2.08 9.97,-2.09l61.7,-0.07z" fill="#FFE2E2"/>
<path id="Vector_300" d="M0.4419,372.2801l108.23,-57.45h343.37l103.6,57.45z" fill="white"/>
<path id="Vector_301" d="M555.6319,372.7201c-0.07,0 -0.15,-0.02 -0.21,-0.05l-103.5,-57.38h-343.26c-0.06,0 -0.12,-0.01 -0.18,-0.03c-0.05,-0.02 -0.11,-0.05 -0.15,-0.09c-0.05,-0.04 -0.08,-0.09 -0.11,-0.15c-0.02,-0.06 -0.03,-0.12 -0.03,-0.18c0,-0.06 0.01,-0.12 0.03,-0.18c0.03,-0.05 0.06,-0.1 0.11,-0.15c0.04,-0.04 0.1,-0.07 0.15,-0.09c0.06,-0.02 0.12,-0.03 0.18,-0.03h343.38c0.07,0 0.15,0.02 0.22,0.06l103.59,57.44c0.09,0.05 0.16,0.13 0.19,0.22c0.04,0.09 0.05,0.19 0.03,0.29c-0.03,0.09 -0.08,0.18 -0.16,0.24c-0.08,0.06 -0.18,0.09 -0.28,0.09z" fill="black"/>
<path id="Vector_302" d="M0.4419,372.7201c-0.1,0 -0.2,-0.03 -0.27,-0.09c-0.08,-0.07 -0.14,-0.15 -0.16,-0.25c-0.02,-0.1 -0.01,-0.2 0.03,-0.29c0.04,-0.09 0.11,-0.16 0.2,-0.21l26.61,-14.13c0.06,-0.03 0.11,-0.05 0.17,-0.06c0.06,-0.01 0.13,0 0.18,0.01c0.06,0.02 0.12,0.05 0.17,0.09c0.04,0.03 0.08,0.08 0.11,0.13c0.03,0.06 0.05,0.12 0.05,0.18c0.01,0.06 0,0.12 -0.02,0.18c-0.02,0.06 -0.05,0.11 -0.09,0.15c-0.04,0.05 -0.09,0.09 -0.15,0.11l-26.62,14.13c-0.06,0.04 -0.14,0.06 -0.21,0.05z" fill="black"/>
<path id="Vector_303" d="M360.7419,358.3601l8.74,11.47c0.09,0.15 0.16,0.36 0.46,0.35c6.75,-0.36 65.43,-7.19 92.72,-9.39c0.14,0 0.11,-0.1 0,-0.18l-6.45,-3.92z" fill="white"/>
<path id="Vector_304" d="M369.9119,370.6301c-0.17,-0.01 -0.34,-0.06 -0.48,-0.15c-0.14,-0.09 -0.25,-0.23 -0.32,-0.38l-0.01,-0.02l-8.72,-11.45c-0.05,-0.06 -0.08,-0.14 -0.09,-0.23c-0.01,-0.08 0.01,-0.16 0.04,-0.24c0.04,-0.07 0.1,-0.13 0.17,-0.18c0.06,-0.04 0.15,-0.07 0.23,-0.07l95.46,-1.67c0.08,0 0.17,0.03 0.24,0.07l6.45,3.92c0.11,0.06 0.2,0.15 0.25,0.26c0.06,0.11 0.08,0.24 0.05,0.36c-0.03,0.11 -0.09,0.21 -0.18,0.28c-0.09,0.07 -0.2,0.1 -0.31,0.11c-15.96,1.28 -42.27,4.11 -63.42,6.39c-14.81,1.59 -26.5,2.85 -29.31,2.99zM361.6319,358.7901l8.2,10.77c0.01,0.01 0.02,0.03 0.03,0.05l0.04,0.06c0,0.02 0.02,0.04 0.03,0.06c2.85,-0.16 14.51,-1.41 29.24,-2.99c20.66,-2.23 46.26,-4.98 62.33,-6.3l-5.42,-3.3z" fill="black"/>
<path id="Vector_305" d="M460.3719,358.0101c-1.89,-0.88 -23.09,-13.39 -40.36,-24.67c-1.77,0.3 -38.22,2.88 -75.36,5.36l19.75,27.5c0,0 43.79,-3.97 96.02,-7.97c0.17,-0.01 0.14,-0.13 -0.05,-0.22z" fill="white"/>
<path id="Vector_306" d="M364.3919,366.6501c-0.07,0 -0.14,-0.02 -0.2,-0.05c-0.07,-0.03 -0.12,-0.08 -0.16,-0.14l-19.74,-27.49c-0.05,-0.07 -0.08,-0.14 -0.09,-0.22c0,-0.08 0.01,-0.16 0.04,-0.24c0.04,-0.07 0.09,-0.13 0.16,-0.17c0.06,-0.05 0.14,-0.08 0.22,-0.08c37.7,-2.52 73.6,-5.07 75.32,-5.36c0.11,-0.01 0.22,0.01 0.32,0.07c17.26,11.28 38.54,23.83 40.3,24.65c0.46,0.21 0.43,0.54 0.42,0.64c-0.03,0.12 -0.09,0.23 -0.19,0.31c-0.09,0.08 -0.21,0.12 -0.34,0.12c-51.64,3.96 -95.58,7.93 -96.02,7.97zM345.4819,339.0901l19.13,26.64c3.65,-0.33 45.48,-4.08 94.55,-7.85c-4.73,-2.63 -23.29,-13.65 -39.25,-24.07c-3.22,0.38 -37.24,2.8 -74.43,5.28z" fill="black"/>
<path id="Vector_307" d="M225.8619,202.5201c-0.12,0 -0.23,-0.05 -0.32,-0.13c-0.08,-0.09 -0.13,-0.2 -0.13,-0.32v-69.08c0,-0.12 0.05,-0.24 0.13,-0.32c0.09,-0.08 0.2,-0.13 0.32,-0.13c0.12,0 0.23,0.05 0.32,0.13c0.08,0.08 0.13,0.2 0.13,0.32v69.08c0,0.12 -0.05,0.23 -0.13,0.32c-0.09,0.08 -0.2,0.13 -0.32,0.13z" fill="black"/>
<path id="Vector_308" d="M350.2319,245.8801l-2.3,-21.66l43.9,-0.51l50.1,100.54l-61.1,-1.98z" fill="white"/>
<path id="Vector_309" d="M388.3119,329.2101l-40.39,-104.99h-2.27c-7.33,0.01 -14.49,2.13 -20.64,6.12c-6.14,3.99 -11,9.67 -13.99,16.36l-36.93,82.65z" fill="#E26363"/>
<path id="Vector_310" d="M358.2119,304.3901c-0.04,0 -0.09,-0.01 -0.13,-0.02l-24.62,-7.94c-0.05,-0.02 -0.11,-0.05 -0.15,-0.09c-0.05,-0.04 -0.09,-0.09 -0.11,-0.15c-0.03,-0.05 -0.04,-0.11 -0.05,-0.17c0,-0.06 0.01,-0.13 0.04,-0.18l9.98,-25.32c0.04,-0.11 0.13,-0.19 0.23,-0.24c0.11,-0.04 0.23,-0.04 0.34,0c0.11,0.04 0.19,0.13 0.24,0.23c0.05,0.11 0.06,0.23 0.02,0.33l-9.81,24.88l24.16,7.8c0.1,0.04 0.19,0.1 0.24,0.2c0.06,0.09 0.08,0.19 0.06,0.3c-0.01,0.1 -0.07,0.2 -0.15,0.27c-0.08,0.07 -0.18,0.11 -0.29,0.11z" fill="black"/>
<path id="Vector_311" d="M463.2519,269.9001c-0.12,-0.26 -0.23,-0.53 -0.33,-0.81c-0.88,-2.35 -2.62,-6.58 -4.72,-11.54c-4.21,-9.94 -11.24,-18.44 -20.22,-24.45c-8.98,-6 -19.52,-9.24 -30.32,-9.33c-8.76,-0.07 -15.69,-0.11 -15.83,-0.07l41.6,105.99h8.67c2.84,0 5.65,-0.57 8.28,-1.66c2.62,-1.09 5,-2.68 7.01,-4.69c2,-2.02 3.59,-4.4 4.68,-7.03c1.08,-2.62 1.64,-5.44 1.63,-8.28z" fill="#E26363"/>
<path id="Vector_312" d="M431.3719,291.6701l-17.22,-42.01l46.98,14.77l13.95,35.44c5.54,14.1 -4.77,29.37 -19.92,29.5c-22.09,0.18 -49.56,0.38 -70.43,0.38c-2.24,-14.74 -9.04,-29.49 -13.01,-37.19c30.45,-0.48 59.65,-0.89 59.65,-0.89z" fill="#E26363"/>
<path id="Vector_313" d="M420.5119,292.1401c-0.11,0 -0.23,-0.05 -0.31,-0.14c-0.09,-0.08 -0.13,-0.19 -0.13,-0.31c0,-0.12 0.04,-0.24 0.13,-0.32c0.08,-0.08 0.2,-0.13 0.31,-0.13l10.19,-0.01l-16.96,-41.4c-0.04,-0.06 -0.06,-0.12 -0.07,-0.19c-0.01,-0.06 -0.01,-0.13 0.01,-0.19c0.02,-0.07 0.06,-0.12 0.1,-0.17c0.05,-0.05 0.1,-0.09 0.16,-0.11c0.06,-0.03 0.13,-0.04 0.2,-0.04c0.06,0.01 0.13,0.03 0.19,0.06c0.05,0.03 0.1,0.08 0.14,0.13c0.04,0.05 0.07,0.12 0.08,0.18l17.23,42.01c0.02,0.07 0.03,0.14 0.02,0.22c0,0.07 -0.03,0.14 -0.07,0.2c-0.04,0.06 -0.09,0.11 -0.16,0.14c-0.06,0.04 -0.13,0.05 -0.2,0.06l-10.85,0.01z" fill="black"/>
<path id="Vector_314" d="M349.0119,225.1701c-0.06,0 -0.11,-0.01 -0.17,-0.03c-0.05,-0.02 -0.1,-0.06 -0.14,-0.1c-0.05,-0.04 -0.08,-0.09 -0.1,-0.14c-0.03,-0.06 -0.04,-0.11 -0.04,-0.17c0,-0.06 0.01,-0.12 0.03,-0.17c0.02,-0.06 0.06,-0.11 0.1,-0.15c0.04,-0.04 0.09,-0.08 0.14,-0.1c0.06,-0.02 0.11,-0.04 0.17,-0.04l42.82,-0.95c0.06,0 0.12,0.01 0.18,0.03c0.05,0.02 0.1,0.05 0.14,0.09c0.05,0.04 0.08,0.09 0.1,0.14c0.03,0.06 0.04,0.12 0.04,0.17c0,0.06 -0.01,0.12 -0.03,0.18c-0.02,0.05 -0.05,0.1 -0.09,0.14c-0.04,0.05 -0.09,0.08 -0.14,0.1c-0.06,0.03 -0.12,0.04 -0.18,0.04l-42.82,0.96z" fill="black"/>
<path id="Vector_315" d="M371.7119,292.5601c3.98,7.7 10.77,22.45 13.01,37.19c-17.13,0 -53.36,-0.09 -54.97,-0.47c-5.16,-1.21 2.96,-36.67 41.96,-36.72z" fill="white"/>
<path id="Vector_316" d="M383.7119,330.2001c-15.41,0 -52.38,-0.09 -54.06,-0.48c-0.06,-0.01 -0.12,-0.03 -0.17,-0.07c-0.05,-0.03 -0.09,-0.07 -0.13,-0.13c-0.03,-0.05 -0.05,-0.1 -0.06,-0.16c-0.01,-0.06 -0.01,-0.12 0,-0.18c0.01,-0.06 0.04,-0.12 0.08,-0.17c0.03,-0.05 0.08,-0.09 0.13,-0.12c0.05,-0.03 0.11,-0.05 0.17,-0.06c0.06,0 0.12,0 0.18,0.02c1.38,0.32 32.92,0.44 54.86,0.45c0.12,0 0.24,0.05 0.32,0.14c0.08,0.08 0.13,0.19 0.13,0.31c0,0.12 -0.05,0.24 -0.13,0.32c-0.08,0.08 -0.2,0.13 -0.32,0.13z" fill="black"/>
<path id="Vector_317" d="M441.8919,292.8001h-0.02l-7.48,-0.28c-0.06,-0.01 -0.12,-0.02 -0.17,-0.04c-0.05,-0.03 -0.1,-0.06 -0.14,-0.11c-0.04,-0.04 -0.07,-0.09 -0.09,-0.14c-0.02,-0.06 -0.03,-0.12 -0.03,-0.18c0,-0.06 0.01,-0.11 0.04,-0.17c0.02,-0.05 0.06,-0.1 0.1,-0.14c0.04,-0.04 0.1,-0.07 0.15,-0.09c0.06,-0.02 0.11,-0.03 0.17,-0.03l7.48,0.28c0.12,0.01 0.24,0.06 0.32,0.14c0.08,0.09 0.13,0.2 0.12,0.32c0,0.12 -0.05,0.23 -0.13,0.32c-0.09,0.08 -0.2,0.12 -0.32,0.12z" fill="black"/>
<path id="Vector_318" d="M337.2719,328.5901h-0.08c-0.12,-0.02 -0.22,-0.08 -0.29,-0.18c-0.07,-0.1 -0.1,-0.22 -0.08,-0.34c1.09,-6.31 4.32,-12.05 9.16,-16.25c4.83,-4.19 10.97,-6.59 17.37,-6.78c0.12,0 0.24,0.04 0.32,0.12c0.09,0.08 0.14,0.19 0.14,0.31c0.01,0.12 -0.04,0.24 -0.12,0.32c-0.08,0.09 -0.19,0.14 -0.31,0.14c-6.19,0.19 -12.13,2.51 -16.81,6.57c-4.67,4.06 -7.8,9.62 -8.85,15.73c-0.02,0.1 -0.08,0.19 -0.16,0.26c-0.08,0.07 -0.19,0.1 -0.29,0.1z" fill="black"/>
<path id="Vector_319" d="M347.1519,327.7701c-0.07,0 -0.14,-0.02 -0.2,-0.05c-0.05,-0.03 -0.1,-0.07 -0.14,-0.11c-0.04,-0.05 -0.06,-0.1 -0.08,-0.16c-0.02,-0.05 -0.02,-0.11 -0.02,-0.17c0.01,-0.06 0.03,-0.12 0.05,-0.17c1.87,-3.48 4.54,-6.47 7.8,-8.7c3.26,-2.23 7.01,-3.64 10.93,-4.12c0.05,-0.01 0.11,0 0.17,0.01c0.06,0.02 0.11,0.05 0.16,0.08c0.04,0.04 0.08,0.09 0.11,0.14c0.03,0.05 0.04,0.11 0.05,0.16c0.01,0.12 -0.02,0.24 -0.09,0.33c-0.08,0.1 -0.18,0.16 -0.3,0.17c-3.78,0.46 -7.39,1.82 -10.53,3.97c-3.14,2.15 -5.71,5.02 -7.5,8.38c-0.04,0.07 -0.1,0.13 -0.17,0.18c-0.07,0.04 -0.15,0.06 -0.24,0.06z" fill="black"/>
<path id="Vector_320" d="M356.4119,225.3901l-5.53,-13.4c0,0 -2.74,-23.22 19.33,-12.39l12.14,25.46c-5.86,9.81 -18.44,11.16 -25.94,0.33z" fill="white"/>
<path id="Vector_321" d="M369.4219,233.4201c-5.08,0 -9.94,-2.81 -13.38,-7.78c-0.01,-0.02 -0.03,-0.05 -0.04,-0.08l-5.53,-13.4c-0.02,-0.04 -0.03,-0.08 -0.03,-0.12c-0.05,-0.4 -1.15,-10.28 4.41,-14.22c3.47,-2.44 8.7,-1.99 15.56,1.38c0.09,0.04 0.16,0.11 0.2,0.2l12.14,25.46c0.03,0.07 0.05,0.14 0.04,0.22c0,0.07 -0.02,0.14 -0.06,0.2c-2.93,4.92 -7.74,7.96 -12.85,8.13c-0.15,0 -0.31,0.01 -0.46,0.01zM356.8119,225.1701c3.41,4.91 8.05,7.52 13.04,7.35c4.81,-0.16 9.17,-2.89 11.99,-7.49l-11.97,-25.1c-6.47,-3.14 -11.35,-3.61 -14.5,-1.37c-4.92,3.48 -4.13,12.5 -4.05,13.32z" fill="black"/>
<path id="Vector_322" d="M378.2119,187.8201c1.79,-2.99 3.38,-6.28 3.28,-9.76c-0.11,-3.48 -2.46,-7.11 -5.91,-7.57c0.95,-4.01 -0.65,-8.51 -3.92,-11.01c-3.27,-2.51 -8.03,-2.89 -11.65,-0.93c-3.96,-4.55 -11.04,-5.8 -16.57,-3.38c-5.52,2.42 -9.3,8.11 -9.98,14.11c-0.28,2.57 -0.03,5.29 1.26,7.53c1.79,3.16 5.35,4.98 8.94,5.54c2.04,0.32 4.36,0.41 5.75,1.93c0.86,0.95 1.15,2.26 1.56,3.48c0.74,2.15 1.92,4.13 3.45,5.81c1.54,1.67 3.4,3.02 5.48,3.95c3.38,1.48 9.22,2.37 12.57,0.22c1.3,-0.83 1.54,-2.41 2.17,-3.74c1.02,-2.15 2.35,-4.14 3.57,-6.18z" fill="black"/>
<path id="Vector_323" d="M338.3719,190.1801c-1.64,5.68 -2.22,12.17 0.88,17.21c2.71,4.38 8.13,6.92 13.24,6.18c5.11,-0.74 9.58,-4.71 10.93,-9.68c4.84,-0.05 9.44,-3.49 10.86,-8.11c0.54,-1.73 0.51,-3.93 -0.95,-5.01c-1.67,-1.23 -3.99,-0.25 -5.91,0.55c-1.91,0.81 -3.35,2.24 -4.37,0.43c0.72,-4.58 4.24,-12.36 -2.49,-14.63c-2.5,-0.84 -16.49,-3.25 -16.49,-3.25c0,0 -4.81,13.25 -5.7,16.31z" fill="white"/>
<path id="Vector_324" d="M350.7319,214.1401c-4.69,0 -9.37,-2.51 -11.85,-6.51c-2.71,-4.41 -3.02,-10.32 -0.93,-17.57c0.89,-3.04 5.49,-15.8 5.69,-16.34c0.03,-0.1 0.1,-0.18 0.19,-0.23c0.09,-0.06 0.2,-0.08 0.3,-0.06c0.58,0.1 14.07,2.42 16.58,3.26c5.87,1.98 4.43,7.97 3.38,12.35c-0.22,0.94 -0.43,1.83 -0.57,2.62c0.51,0.79 1.06,0.61 2.48,-0.15c0.4,-0.2 0.8,-0.41 1.25,-0.61c1.99,-0.84 4.47,-1.88 6.35,-0.49c1.69,1.24 1.68,3.66 1.11,5.5c-1.45,4.72 -6.02,8.21 -10.94,8.41c-1.5,4.98 -6.06,8.94 -11.21,9.68c-0.6,0.09 -1.22,0.14 -1.83,0.14zM338.8219,190.3101c-2.04,7 -1.75,12.67 0.82,16.85c2.61,4.23 7.87,6.69 12.79,5.97c4.92,-0.71 9.26,-4.55 10.56,-9.35c0.03,-0.09 0.08,-0.18 0.16,-0.24c0.08,-0.06 0.17,-0.09 0.27,-0.09c4.67,-0.05 9.06,-3.32 10.44,-7.79c0.45,-1.48 0.52,-3.55 -0.8,-4.52c-1.46,-1.08 -3.58,-0.19 -5.46,0.61c-0.41,0.18 -0.81,0.38 -1.18,0.58c-1.29,0.68 -2.76,1.44 -3.76,-0.34c-0.04,-0.09 -0.06,-0.19 -0.05,-0.29c0.14,-0.87 0.37,-1.84 0.61,-2.86c1.08,-4.48 2.29,-9.57 -2.8,-11.28c-2.22,-0.75 -13.84,-2.78 -16.07,-3.17c-0.76,2.11 -4.75,13.18 -5.53,15.92z" fill="black"/>
<path id="Vector_325" d="M365.3219,198.1901c-0.08,0 -0.17,-0.03 -0.24,-0.07c-0.07,-0.05 -0.13,-0.12 -0.17,-0.19c-0.03,-0.08 -0.04,-0.17 -0.03,-0.26c0.01,-0.08 0.05,-0.16 0.1,-0.22c0.62,-0.71 1.4,-1.25 2.26,-1.6c0.87,-0.36 1.81,-0.5 2.74,-0.43c0.06,0.01 0.12,0.02 0.17,0.05c0.05,0.03 0.1,0.06 0.14,0.11c0.03,0.04 0.06,0.1 0.08,0.15c0.02,0.06 0.02,0.12 0.02,0.18c-0.01,0.06 -0.02,0.11 -0.05,0.16c-0.03,0.06 -0.06,0.1 -0.11,0.14c-0.04,0.04 -0.1,0.07 -0.15,0.09c-0.06,0.01 -0.12,0.02 -0.18,0.01c-0.79,-0.06 -1.58,0.07 -2.32,0.36c-0.74,0.3 -1.39,0.77 -1.92,1.36c-0.04,0.05 -0.09,0.09 -0.15,0.12c-0.06,0.02 -0.12,0.04 -0.19,0.04z" fill="black"/>
<path id="Vector_326" d="M343.8319,189.3201c-0.53,2.69 -2.81,4.51 -5.08,4.06c-2.28,-0.45 -3.69,-2.99 -3.16,-5.69c0.54,-2.69 2.81,-4.51 5.08,-4.06c2.28,0.45 3.69,3 3.16,5.69z" fill="white"/>
<path id="Vector_327" d="M339.4419,193.9001c-0.27,0 -0.53,-0.03 -0.78,-0.08c-0.63,-0.13 -1.21,-0.4 -1.72,-0.78c-0.51,-0.39 -0.92,-0.88 -1.22,-1.44c-0.63,-1.23 -0.84,-2.64 -0.57,-3.99c0.27,-1.36 0.99,-2.58 2.05,-3.47c0.48,-0.42 1.05,-0.72 1.67,-0.89c0.62,-0.16 1.26,-0.18 1.89,-0.06c0.62,0.13 1.21,0.39 1.72,0.78c0.51,0.38 0.92,0.88 1.21,1.45c0.66,1.22 0.86,2.63 0.57,3.99c-0.51,2.62 -2.59,4.49 -4.82,4.49zM339.9719,184.0101c-0.81,0.01 -1.59,0.3 -2.21,0.82c-0.89,0.76 -1.5,1.79 -1.73,2.94c-0.23,1.15 -0.06,2.34 0.48,3.38c0.23,0.45 0.56,0.85 0.96,1.16c0.4,0.3 0.87,0.52 1.36,0.62c2.04,0.41 4.08,-1.26 4.55,-3.7c0.25,-1.15 0.08,-2.35 -0.47,-3.39c-0.23,-0.45 -0.56,-0.84 -0.96,-1.15c-0.41,-0.3 -0.87,-0.52 -1.37,-0.63c-0.2,-0.03 -0.4,-0.05 -0.61,-0.05z" fill="black"/>
<path id="Vector_328" d="M352.3519,196.4301c-0.31,0 -0.62,-0.03 -0.92,-0.09c-2.72,-0.53 -4.46,-3.35 -3.88,-6.29c0.26,-1.38 1.03,-2.62 2.17,-3.46c0.54,-0.4 1.15,-0.69 1.81,-0.84c0.66,-0.16 1.34,-0.17 2,-0.04c0.66,0.13 1.29,0.4 1.84,0.79c0.55,0.39 1.01,0.89 1.35,1.47c0.72,1.22 0.97,2.65 0.69,4.03c-0.27,1.39 -1.04,2.62 -2.17,3.47c-0.83,0.62 -1.85,0.96 -2.89,0.96zM352.6119,186.5201c-0.85,0.01 -1.68,0.28 -2.36,0.79c-0.96,0.71 -1.61,1.75 -1.83,2.92c-0.48,2.44 0.95,4.79 3.18,5.23c0.54,0.11 1.1,0.1 1.64,-0.03c0.53,-0.12 1.04,-0.36 1.47,-0.69c0.95,-0.71 1.6,-1.75 1.82,-2.91c0.23,-1.16 0.03,-2.37 -0.57,-3.39c-0.28,-0.47 -0.66,-0.88 -1.11,-1.2c-0.45,-0.32 -0.96,-0.54 -1.49,-0.65c-0.25,-0.04 -0.5,-0.07 -0.75,-0.07z" fill="black"/>
<path id="Vector_329" d="M347.9819,190.5901c-0.07,0 -0.15,-0.02 -0.22,-0.06c-0.06,-0.04 -0.12,-0.09 -0.16,-0.16c-0.51,-0.83 -1.08,-1.3 -1.71,-1.38c-0.93,-0.12 -1.74,0.64 -1.75,0.65c-0.08,0.08 -0.2,0.12 -0.31,0.12c-0.12,0 -0.23,-0.05 -0.31,-0.13c-0.09,-0.09 -0.13,-0.2 -0.13,-0.32c0,-0.11 0.04,-0.23 0.13,-0.31c0.04,-0.04 1.12,-1.07 2.49,-0.9c0.91,0.12 1.7,0.73 2.36,1.81c0.04,0.07 0.06,0.15 0.06,0.22c0,0.08 -0.02,0.16 -0.05,0.23c-0.04,0.07 -0.1,0.13 -0.17,0.17c-0.07,0.04 -0.15,0.06 -0.23,0.06z" fill="black"/>
<path id="Vector_330" d="M356.9719,192.3601c-0.12,0 -0.22,-0.04 -0.3,-0.12c-0.09,-0.08 -0.13,-0.19 -0.14,-0.3c-0.01,-0.11 0.03,-0.22 0.1,-0.31c0.07,-0.09 0.18,-0.14 0.29,-0.16l8.35,-0.9c0.12,-0.02 0.24,0.02 0.33,0.09c0.09,0.08 0.15,0.19 0.16,0.3c0.02,0.12 -0.02,0.24 -0.09,0.33c-0.08,0.1 -0.19,0.15 -0.31,0.17l-8.35,0.9z" fill="black"/>
<path id="Vector_331" d="M267.9619,0.4701l-175.81,0.22l0.16,125.08l175.8,-0.22z" fill="white"/>
<path id="Vector_332" d="M92.3219,126.2001c-0.06,0 -0.12,-0.01 -0.17,-0.03c-0.06,-0.02 -0.1,-0.05 -0.15,-0.1c-0.04,-0.04 -0.07,-0.09 -0.09,-0.14c-0.03,-0.05 -0.04,-0.11 -0.04,-0.17l-0.16,-125.08c0,-0.12 0.05,-0.24 0.13,-0.32c0.08,-0.08 0.2,-0.13 0.32,-0.13l175.8,-0.23c0.06,0 0.12,0.01 0.17,0.03c0.06,0.03 0.11,0.06 0.15,0.1c0.04,0.04 0.07,0.09 0.1,0.15c0.02,0.05 0.03,0.11 0.03,0.17l0.16,125.08c0,0.06 -0.01,0.12 -0.03,0.17c-0.02,0.06 -0.06,0.1 -0.1,0.15c-0.08,0.08 -0.2,0.13 -0.31,0.13zM92.6119,1.1201l0.16,124.19l174.91,-0.23l-0.16,-124.18z" fill="black"/>
<path id="Vector_333" d="M251.8919,108.7501h-111.27v-83.98l111.27,41.99z" fill="white"/>
<path id="Vector_334" d="M251.9019,109.2001h-111.27c-0.12,0 -0.23,-0.05 -0.31,-0.13c-0.09,-0.09 -0.13,-0.2 -0.13,-0.32v-83.98c0,-0.07 0.01,-0.14 0.05,-0.21c0.03,-0.06 0.08,-0.12 0.14,-0.16c0.06,-0.04 0.13,-0.06 0.2,-0.07c0.07,-0.01 0.14,0 0.21,0.02l111.26,41.99c0.09,0.03 0.16,0.09 0.21,0.17c0.06,0.07 0.08,0.16 0.08,0.25v41.99c0,0.12 -0.04,0.23 -0.12,0.31c-0.09,0.09 -0.2,0.14 -0.32,0.14zM141.0819,108.3001h110.37v-41.23l-110.37,-41.65z" fill="black"/>
<path id="Vector_335" d="M132.6919,17.2401l127.13,47.97v-7.34l-127.13,-47.98z" fill="white"/>
<path id="Vector_336" d="M259.8219,65.6601c-0.05,0 -0.11,-0.01 -0.16,-0.03l-127.12,-47.97c-0.09,-0.03 -0.16,-0.09 -0.21,-0.17c-0.05,-0.07 -0.08,-0.16 -0.08,-0.25v-7.35c0,-0.07 0.02,-0.14 0.05,-0.21c0.03,-0.06 0.08,-0.12 0.14,-0.16c0.06,-0.04 0.13,-0.06 0.2,-0.07c0.08,-0.01 0.15,0 0.22,0.03l127.12,47.97c0.09,0.03 0.16,0.09 0.21,0.16c0.05,0.08 0.08,0.17 0.08,0.26v7.34c0,0.06 -0.01,0.12 -0.03,0.17c-0.03,0.06 -0.06,0.11 -0.1,0.15c-0.04,0.04 -0.09,0.07 -0.15,0.1c-0.05,0.02 -0.11,0.03 -0.17,0.03zM133.1419,16.9301l126.23,47.63v-6.38l-126.23,-47.64z" fill="black"/>
<path id="Vector_337" d="M140.6219,108.7501h-37.93v-36.39l37.93,-16.8z" fill="white"/>
<path id="Vector_338" d="M140.6319,109.2001h-37.93c-0.05,0 -0.11,-0.01 -0.17,-0.04c-0.05,-0.02 -0.1,-0.05 -0.14,-0.09c-0.05,-0.04 -0.08,-0.09 -0.1,-0.15c-0.02,-0.05 -0.03,-0.11 -0.03,-0.17v-36.39c0,-0.09 0.02,-0.17 0.07,-0.24c0.05,-0.08 0.11,-0.13 0.19,-0.17l37.92,-16.79c0.07,-0.04 0.15,-0.05 0.22,-0.04c0.08,0 0.15,0.03 0.21,0.07c0.06,0.04 0.11,0.09 0.15,0.16c0.03,0.06 0.05,0.14 0.05,0.21v53.19c0,0.06 -0.01,0.12 -0.03,0.17c-0.02,0.06 -0.05,0.11 -0.1,0.15c-0.04,0.04 -0.09,0.07 -0.14,0.09c-0.06,0.03 -0.11,0.04 -0.17,0.04zM103.1519,108.3001h37.03v-52.05l-37.03,16.4z" fill="black"/>
<path id="Vector_339" d="M192.4819,109.2001c-0.12,0 -0.24,-0.05 -0.32,-0.13c-0.08,-0.09 -0.13,-0.2 -0.13,-0.32v-64.41c0,-0.12 0.05,-0.24 0.13,-0.32c0.08,-0.08 0.2,-0.13 0.32,-0.13c0.12,0 0.23,0.05 0.31,0.13c0.09,0.08 0.14,0.2 0.14,0.32v64.41c0,0.12 -0.05,0.23 -0.14,0.32c-0.08,0.08 -0.19,0.13 -0.31,0.13z" fill="black"/>
<path id="Vector_340" d="M251.9019,82.6001h-33.81c-0.12,0 -0.24,-0.04 -0.32,-0.13c-0.08,-0.08 -0.13,-0.2 -0.13,-0.31c0,-0.12 0.05,-0.24 0.13,-0.32c0.08,-0.09 0.2,-0.13 0.32,-0.13h33.81c0.12,0 0.23,0.04 0.31,0.13c0.09,0.08 0.13,0.2 0.13,0.32c0,0.11 -0.04,0.23 -0.13,0.31c-0.08,0.09 -0.19,0.13 -0.31,0.13z" fill="black"/>
<path id="Vector_341" d="M213.6019,102.8401h-14.28c-0.06,0 -0.12,-0.01 -0.17,-0.04c-0.06,-0.02 -0.1,-0.05 -0.15,-0.09c-0.04,-0.05 -0.07,-0.09 -0.09,-0.15c-0.03,-0.05 -0.04,-0.11 -0.04,-0.17v-33.66c0,-0.06 0.01,-0.12 0.04,-0.17c0.02,-0.06 0.05,-0.11 0.09,-0.15c0.05,-0.04 0.09,-0.07 0.15,-0.1c0.05,-0.02 0.11,-0.03 0.17,-0.03h14.28c0.06,0 0.12,0.01 0.17,0.03c0.06,0.03 0.11,0.06 0.15,0.1c0.04,0.04 0.07,0.09 0.1,0.15c0.02,0.05 0.03,0.11 0.03,0.17v33.66c0,0.06 -0.01,0.12 -0.03,0.17c-0.03,0.06 -0.06,0.1 -0.1,0.15c-0.04,0.04 -0.09,0.07 -0.15,0.09c-0.05,0.03 -0.11,0.04 -0.17,0.04zM199.7719,101.9401h13.38v-32.76h-13.38z" fill="black"/>
<path id="Vector_342" d="M218.6819,102.8401h-26.2c-0.12,0 -0.24,-0.05 -0.32,-0.13c-0.08,-0.09 -0.13,-0.2 -0.13,-0.32c0,-0.12 0.05,-0.23 0.13,-0.32c0.08,-0.08 0.2,-0.13 0.32,-0.13h26.2c0.11,0 0.23,0.05 0.31,0.13c0.09,0.09 0.13,0.2 0.13,0.32c0,0.12 -0.04,0.23 -0.13,0.32c-0.08,0.08 -0.2,0.13 -0.31,0.13z" fill="black"/>
<path id="Vector_343" d="M244.8019,67.6001h-19.59v11.81h19.59z" fill="#FFE2E2"/>
<path id="Vector_344" d="M149.2019,34.5601l34.7,13.21v50.86h-34.7z" fill="#FFE2E2"/>
<path id="Vector_345" d="M166.5519,97.6501c-0.12,0 -0.24,-0.05 -0.32,-0.13c-0.08,-0.09 -0.13,-0.2 -0.13,-0.32v-53.9c0,-0.12 0.05,-0.24 0.13,-0.32c0.08,-0.08 0.2,-0.13 0.32,-0.13c0.12,0 0.23,0.05 0.31,0.13c0.09,0.08 0.14,0.2 0.14,0.32v53.9c0,0.06 -0.02,0.12 -0.04,0.17c-0.02,0.06 -0.05,0.11 -0.09,0.15c-0.05,0.04 -0.1,0.07 -0.15,0.1c-0.05,0.02 -0.11,0.03 -0.17,0.03z" fill="black"/>
<path id="Vector_346" d="M28.1619,256.1501l-0.51,102.51l36.21,-18.02z" fill="#E26363"/>
<path id="Vector_347" d="M259.3119,226.7401c-0.66,-1.85 -2.47,-3.1 -4.37,-3.61c-1.9,-0.51 -3.9,-0.39 -5.86,-0.26l-37.43,2.36c8.33,4.37 17.69,6.29 27.03,6.83c3.88,0.22 23.4,2.53 20.63,-5.32z" fill="white"/>
<path id="Vector_348" d="M247.9919,233.0001c-3.04,0 -5.97,-0.23 -7.9,-0.38c-0.59,-0.04 -1.08,-0.08 -1.44,-0.11c-10.5,-0.61 -19.65,-2.92 -27.21,-6.87c-0.09,-0.04 -0.16,-0.12 -0.2,-0.21c-0.04,-0.08 -0.05,-0.18 -0.03,-0.28c0.02,-0.09 0.07,-0.18 0.15,-0.24c0.07,-0.07 0.16,-0.11 0.26,-0.11l37.43,-2.37c1.88,-0.12 4.02,-0.25 6.01,0.28c2.28,0.61 4.03,2.06 4.67,3.89c0.5,1.41 0.37,2.61 -0.38,3.59c-1.74,2.25 -6.67,2.81 -11.36,2.81zM213.3219,225.5801c7.15,3.44 15.68,5.47 25.38,6.03c0.36,0.02 0.86,0.06 1.46,0.11c4.35,0.34 15.91,1.25 18.47,-2.09c0.56,-0.73 0.64,-1.63 0.25,-2.74c-0.55,-1.55 -2.07,-2.79 -4.06,-3.33c-1.85,-0.49 -3.81,-0.36 -5.72,-0.24z" fill="black"/>
<path id="Vector_349" d="M191.3019,226.4301c4.69,-10.78 20.03,-15.65 25.35,-17.19c5.33,-1.54 6.07,5.74 -2.37,10.03c-8.43,4.29 -5.68,6.14 -5.68,6.14c0,0 50.58,-0.16 52.98,5.2c0,0 3.18,7.79 -16.78,7.86c-2.76,0 -5.46,0.83 -7.76,2.36c-2.3,1.53 -4.09,3.7 -5.16,6.25c-0.61,1.47 -1.31,3.11 -2.04,4.84c-15.89,0.24 -31.55,-3.81 -45.33,-11.73c3.08,-5.99 5.6,-11.02 6.79,-13.76z" fill="white"/>
<path id="Vector_350" d="M230.3219,251.2201c-0.06,0 -0.12,-0.01 -0.18,-0.03c-0.05,-0.03 -0.1,-0.06 -0.14,-0.1c-0.04,-0.05 -0.07,-0.1 -0.1,-0.15c-0.02,-0.05 -0.03,-0.11 -0.03,-0.17c0,-0.06 0.02,-0.12 0.04,-0.17c0.02,-0.05 0.32,-0.76 0.74,-1.74l0.81,-1.95c1.1,-2.63 2.95,-4.88 5.33,-6.46c2.37,-1.58 5.15,-2.43 8,-2.43c10.78,-0.04 14.58,-2.32 15.88,-4.24c1.05,-1.55 0.51,-2.95 0.49,-3.01c-1.67,-3.72 -32.34,-4.99 -52.56,-4.91c-0.09,0 -0.18,-0.03 -0.25,-0.08c-0.21,-0.16 -0.38,-0.37 -0.49,-0.61c-0.11,-0.24 -0.16,-0.51 -0.14,-0.77c0.1,-1.58 2.24,-3.44 6.36,-5.53c5.27,-2.68 6.65,-6.38 5.95,-8.16c-0.44,-1.11 -1.66,-1.5 -3.26,-1.04c-9.23,2.65 -21.07,7.76 -25.07,16.94c-1.02,2.34 -3.89,8.08 -6.24,12.67c-0.05,0.11 -0.15,0.19 -0.26,0.22c-0.11,0.04 -0.23,0.03 -0.34,-0.02c-0.11,-0.06 -0.19,-0.15 -0.22,-0.26c-0.04,-0.12 -0.03,-0.24 0.02,-0.35c2.35,-4.57 5.21,-10.29 6.22,-12.62c4.13,-9.51 16.23,-14.73 25.64,-17.45c2.46,-0.71 3.85,0.35 4.33,1.57c0.96,2.44 -0.94,6.53 -6.37,9.29c-5.15,2.62 -5.82,4.2 -5.87,4.76c-0.01,0.1 0,0.19 0.03,0.29c0.02,0.09 0.07,0.17 0.13,0.25c1.57,0 13.44,0 25.43,0.58c26.17,1.28 27.39,4 27.8,4.88c0.03,0.09 0.74,1.89 -0.56,3.84c-2.04,3.06 -7.64,4.62 -16.63,4.66c-2.67,0 -5.29,0.79 -7.51,2.28c-2.23,1.48 -3.97,3.59 -5,6.05l-0.82,1.96c-0.4,0.98 -0.71,1.69 -0.73,1.74c-0.04,0.08 -0.1,0.15 -0.17,0.2c-0.08,0.05 -0.17,0.07 -0.26,0.07z" fill="black"/>
<path id="Vector_351" d="M118.2119,216.4501c0,0 10.9,3.95 18.82,14.96c13.93,19.36 31.63,40.53 31.63,40.53c0,0 6.76,-14.16 15.86,-31.75c13.78,7.92 29.44,11.97 45.33,11.73c-8.51,20.02 -20.4,47.49 -29.86,57.38c-13.37,13.95 -44.17,36.88 -64.76,-14.2c-20.59,-51.08 -17.02,-78.65 -17.02,-78.65z" fill="#E26363"/>
<path id="Vector_352" d="M184.5019,240.1901l-4.55,8.88c0,0 7.55,9.8 20.06,13.97c17.96,5.99 24.65,0.92 24.65,0.92l5.17,-12.04c0,0 -10.92,0.88 -24.58,-3.17c-13.66,-4.04 -20.75,-8.56 -20.75,-8.56z" fill="white"/>
<path id="Vector_353" d="M224.6719,264.4101c-0.06,0 -0.12,-0.02 -0.18,-0.04c-0.05,-0.02 -0.1,-0.06 -0.14,-0.1c-0.04,-0.04 -0.08,-0.09 -0.1,-0.15c-0.02,-0.05 -0.03,-0.11 -0.03,-0.17c0,-0.06 0.01,-0.12 0.03,-0.17l4.89,-11.37c-2.68,0.11 -12.42,0.2 -24.01,-3.23c-11.72,-3.46 -18.72,-7.35 -20.45,-8.36l-4.32,8.45c-0.03,0.06 -0.06,0.11 -0.11,0.15c-0.04,0.04 -0.1,0.08 -0.15,0.1c-0.06,0.02 -0.12,0.03 -0.18,0.02c-0.06,0 -0.12,-0.02 -0.18,-0.05c-0.05,-0.02 -0.1,-0.06 -0.14,-0.11c-0.04,-0.05 -0.07,-0.1 -0.08,-0.16c-0.02,-0.06 -0.03,-0.12 -0.02,-0.18c0.01,-0.06 0.03,-0.12 0.06,-0.17l4.55,-8.89c0.02,-0.05 0.06,-0.1 0.11,-0.14c0.05,-0.04 0.11,-0.07 0.17,-0.08c0.06,-0.02 0.12,-0.03 0.18,-0.02c0.06,0.01 0.12,0.04 0.18,0.07c0.07,0.04 7.21,4.54 20.64,8.51c13.43,3.98 24.3,3.16 24.41,3.15c0.08,0 0.16,0.01 0.23,0.05c0.07,0.03 0.14,0.08 0.18,0.14c0.05,0.06 0.08,0.14 0.08,0.21c0.01,0.08 0,0.16 -0.03,0.23l-5.17,12.03c-0.04,0.09 -0.09,0.16 -0.17,0.21c-0.08,0.04 -0.16,0.07 -0.25,0.07z" fill="black"/>
<path id="Vector_354" d="M158.9919,278.3001l-21.97,-46.89c-2.42,-5.17 -6.27,-9.53 -11.09,-12.57c-4.82,-3.04 -10.42,-4.62 -16.12,-4.57l-56.98,0.51c-20.43,0.18 -34.61,20.43 -27.79,39.69l21.02,63.07c4.19,11.98 15.45,24.66 27.78,27.66l47.86,10.45l37.29,-43z" fill="#E26363"/>
<path id="Vector_355" d="M63.8719,341.0801c-0.09,0.01 -0.18,-0.02 -0.25,-0.07c-7.94,-5.36 -14.84,-14.3 -18,-23.32l-15.85,-47.58c-0.02,-0.05 -0.03,-0.11 -0.03,-0.17c0,-0.07 0.02,-0.12 0.04,-0.18c0.03,-0.05 0.07,-0.1 0.11,-0.14c0.05,-0.04 0.1,-0.07 0.16,-0.09c0.05,-0.02 0.11,-0.03 0.18,-0.02c0.06,0 0.11,0.02 0.17,0.05c0.05,0.02 0.1,0.06 0.14,0.11c0.03,0.05 0.06,0.1 0.08,0.16l15.85,47.57c3.1,8.85 9.86,17.61 17.65,22.87c0.08,0.05 0.14,0.13 0.17,0.22c0.03,0.09 0.03,0.18 0,0.27c-0.03,0.09 -0.08,0.17 -0.16,0.23c-0.07,0.06 -0.17,0.09 -0.26,0.09z" fill="black"/>
<path id="Vector_356" d="M129.8319,309.6701c-0.04,0 -0.07,-0.01 -0.11,-0.02l-42.25,-10.05c-0.06,-0.01 -0.12,-0.03 -0.17,-0.06c-0.05,-0.04 -0.09,-0.08 -0.13,-0.13c-0.03,-0.05 -0.05,-0.11 -0.06,-0.17c-0.01,-0.06 -0.01,-0.12 0,-0.18c0.02,-0.06 0.04,-0.11 0.08,-0.16c0.03,-0.05 0.08,-0.09 0.13,-0.12c0.05,-0.03 0.11,-0.05 0.17,-0.06c0.06,-0.01 0.12,0 0.18,0.01l42.25,10.06c0.11,0.03 0.2,0.09 0.27,0.18c0.06,0.09 0.09,0.2 0.08,0.31c-0.02,0.11 -0.07,0.21 -0.15,0.28c-0.08,0.07 -0.19,0.11 -0.3,0.11z" fill="black"/>
<path id="Vector_357" d="M95.8619,301.6201c-0.09,0 -0.17,-0.03 -0.25,-0.08c-0.07,-0.05 -0.13,-0.12 -0.16,-0.2l-23.11,-55.07c-0.05,-0.11 -0.05,-0.23 0,-0.34c0.04,-0.11 0.13,-0.2 0.24,-0.25c0.11,-0.04 0.23,-0.04 0.34,0c0.11,0.05 0.2,0.13 0.24,0.24l23.12,55.08c0.02,0.05 0.03,0.11 0.03,0.17c0,0.06 -0.01,0.12 -0.03,0.17c-0.02,0.06 -0.06,0.11 -0.1,0.15c-0.04,0.04 -0.09,0.07 -0.14,0.09c-0.06,0.03 -0.12,0.04 -0.18,0.04z" fill="black"/>
<path id="Vector_358" d="M162.4619,282.5901c-0.08,0 -0.15,-0.02 -0.22,-0.05c-0.1,-0.06 -0.18,-0.16 -0.21,-0.27c-0.03,-0.12 -0.02,-0.24 0.04,-0.34l5.47,-9.66c0.03,-0.06 0.07,-0.1 0.12,-0.14c0.04,-0.03 0.1,-0.06 0.15,-0.08c0.06,-0.01 0.12,-0.02 0.18,-0.01c0.05,0.01 0.11,0.03 0.16,0.06c0.05,0.03 0.1,0.06 0.13,0.11c0.04,0.05 0.07,0.1 0.08,0.16c0.02,0.05 0.02,0.11 0.02,0.17c-0.01,0.06 -0.03,0.12 -0.06,0.17l-5.47,9.66c-0.04,0.07 -0.1,0.12 -0.16,0.16c-0.07,0.04 -0.15,0.06 -0.23,0.06z" fill="black"/>
<path id="Vector_359" d="M135.5619,310.5501c-0.1,0 -0.21,-0.04 -0.29,-0.11c-0.08,-0.07 -0.14,-0.17 -0.15,-0.28l-6.72,-51.01c-0.01,-0.11 0.02,-0.23 0.09,-0.32c0.07,-0.09 0.18,-0.15 0.3,-0.17c0.11,-0.01 0.23,0.02 0.32,0.09c0.1,0.07 0.16,0.17 0.18,0.29l6.72,51c0.01,0.12 -0.02,0.24 -0.09,0.33c-0.07,0.1 -0.18,0.16 -0.3,0.18z" fill="black"/>
<path id="Vector_360" d="M144.6119,311.9201l-13.58,-2.57c0,0 -8.39,7.93 -11.35,20.78c-4.25,18.45 1.93,25.35 1.93,25.35l13.77,2.71z" fill="white"/>
<path id="Vector_361" d="M135.4019,358.6301c-0.03,0 -0.06,0 -0.09,0l-13.77,-2.71c-0.12,-0.02 -0.22,-0.09 -0.29,-0.19c-0.06,-0.1 -0.09,-0.22 -0.06,-0.33c0.02,-0.12 0.09,-0.22 0.19,-0.29c0.1,-0.07 0.22,-0.09 0.33,-0.07l13.34,2.63l9.12,-45.83c0.03,-0.12 0.1,-0.22 0.19,-0.29c0.1,-0.06 0.22,-0.09 0.34,-0.06c0.12,0.02 0.22,0.09 0.29,0.19c0.06,0.1 0.09,0.22 0.06,0.33l-9.21,46.25c-0.02,0.11 -0.08,0.2 -0.16,0.27c-0.08,0.06 -0.18,0.1 -0.28,0.1z" fill="black"/>
<path id="Vector_362" d="M144.6119,311.9201c0,0 14.61,2.3 21.1,-0.69c6.5,-2.98 10.66,-3.53 12.33,0.27c1.68,3.81 -3.73,9.4 -8.21,11.59c-4.48,2.18 -1.83,4.58 0,6.46c1.84,1.87 14.63,8.76 21.8,11.73c7.17,2.97 2.88,8.94 -3.8,8.13c0,0 -1.54,5.93 -8.6,5.49c0,0 -2.12,4.73 -9.46,3.69c0,0 1.66,4.55 -9.33,4c-10.99,-0.55 -25.06,-4.41 -25.06,-4.41c0,0 -4.17,-6.65 -3.06,-21.42c1.11,-14.77 12.29,-24.84 12.29,-24.84z" fill="white"/>
<path id="Vector_363" d="M162.2219,363.0801c-0.57,0 -1.17,-0.01 -1.79,-0.04c-10.91,-0.55 -25.02,-4.38 -25.16,-4.42c-0.11,-0.03 -0.21,-0.11 -0.27,-0.21c-0.17,-0.27 -4.23,-6.94 -3.12,-21.69c1.11,-14.78 12.31,-25.04 12.42,-25.14c0.09,-0.08 0.2,-0.11 0.32,-0.1c0.12,0 0.22,0.06 0.3,0.14c0.08,0.09 0.12,0.2 0.12,0.32c-0.01,0.11 -0.06,0.22 -0.14,0.3c-0.11,0.1 -11.05,10.13 -12.13,24.55c-1,13.28 2.33,19.96 2.91,21c1.66,0.44 14.64,3.83 24.79,4.34c5.74,0.3 7.82,-0.81 8.56,-1.79c0.17,-0.23 0.29,-0.49 0.35,-0.77c0.06,-0.27 0.05,-0.56 -0.03,-0.83c-0.02,-0.08 -0.03,-0.15 -0.02,-0.23c0.02,-0.08 0.05,-0.15 0.1,-0.21c0.05,-0.06 0.11,-0.1 0.18,-0.13c0.07,-0.03 0.15,-0.04 0.23,-0.03c6.92,0.98 8.98,-3.39 9,-3.44c0.03,-0.08 0.1,-0.15 0.17,-0.19c0.08,-0.05 0.17,-0.07 0.26,-0.07c6.59,0.41 8.08,-4.92 8.14,-5.15c0.03,-0.11 0.09,-0.2 0.18,-0.26c0.09,-0.06 0.2,-0.09 0.31,-0.07c3.66,0.44 6.44,-1.27 6.92,-3.11c0.41,-1.59 -0.81,-3.11 -3.36,-4.17c-7.33,-3.02 -20.04,-9.88 -21.95,-11.83l-0.22,-0.22c-0.93,-0.94 -1.99,-2.01 -2.29,-3.18c-0.02,-0.05 -0.03,-0.12 -0.02,-0.18c0.01,-0.06 0.02,-0.11 0.05,-0.17c0.03,-0.05 0.07,-0.1 0.12,-0.13c0.05,-0.04 0.1,-0.07 0.16,-0.08c0.06,-0.02 0.12,-0.02 0.18,-0.01c0.06,0 0.12,0.03 0.17,0.06c0.05,0.03 0.1,0.07 0.13,0.12c0.04,0.05 0.06,0.11 0.07,0.16c0.25,0.94 1.21,1.92 2.06,2.78l0.23,0.23c1.81,1.85 14.56,8.69 21.65,11.62c2.97,1.22 4.42,3.18 3.89,5.23c-0.58,2.18 -3.53,4.16 -7.54,3.8c-0.49,1.33 -2.59,5.71 -8.65,5.47c-0.61,1.02 -3.09,4.39 -9.19,3.75c0.02,0.63 -0.17,1.25 -0.55,1.75c-1.09,1.49 -3.62,2.23 -7.54,2.23z" fill="black"/>
<path id="Vector_364" d="M187.8519,349.8601c-0.03,0 -0.05,0 -0.07,0c-0.1,-0.02 -9.46,-1.62 -25.22,-9.46c-0.06,-0.02 -0.1,-0.06 -0.14,-0.1c-0.04,-0.05 -0.07,-0.1 -0.09,-0.16c-0.02,-0.05 -0.02,-0.11 -0.02,-0.17c0.01,-0.06 0.02,-0.12 0.05,-0.17c0.03,-0.05 0.06,-0.1 0.11,-0.14c0.04,-0.04 0.09,-0.07 0.15,-0.08c0.06,-0.02 0.12,-0.03 0.18,-0.03c0.05,0.01 0.11,0.03 0.16,0.05c15.63,7.77 24.88,9.36 24.97,9.37c0.11,0.02 0.22,0.07 0.29,0.16c0.07,0.09 0.11,0.21 0.1,0.32c-0.01,0.11 -0.07,0.22 -0.15,0.3c-0.09,0.07 -0.2,0.11 -0.31,0.11z" fill="black"/>
<path id="Vector_365" d="M179.2519,355.3501h-0.04c-0.11,-0.01 -11.48,-1.11 -23.9,-6.32c-0.11,-0.04 -0.19,-0.13 -0.24,-0.24c-0.04,-0.11 -0.04,-0.23 0,-0.34c0.05,-0.11 0.14,-0.2 0.25,-0.25c0.11,-0.04 0.23,-0.04 0.34,0.01c12.29,5.15 23.52,6.23 23.62,6.24c0.12,0.01 0.23,0.07 0.3,0.15c0.08,0.09 0.11,0.2 0.11,0.32c-0.01,0.11 -0.05,0.22 -0.14,0.3c-0.08,0.08 -0.19,0.12 -0.31,0.12z" fill="black"/>
<path id="Vector_366" d="M169.7919,359.0401c-0.03,0 -0.05,0 -0.08,0c-0.12,-0.02 -12.74,-2.05 -19.11,-4.05c-0.06,-0.02 -0.11,-0.05 -0.15,-0.09c-0.05,-0.03 -0.08,-0.08 -0.11,-0.13c-0.03,-0.05 -0.05,-0.11 -0.05,-0.17c-0.01,-0.06 0,-0.12 0.02,-0.17c0.02,-0.06 0.04,-0.11 0.08,-0.16c0.04,-0.04 0.09,-0.08 0.14,-0.11c0.05,-0.02 0.11,-0.04 0.17,-0.05c0.05,0 0.11,0 0.17,0.02c6.31,1.99 18.86,4 18.98,4.03c0.11,0.01 0.21,0.07 0.28,0.16c0.07,0.09 0.11,0.2 0.1,0.31c-0.01,0.11 -0.06,0.22 -0.14,0.29c-0.09,0.08 -0.19,0.12 -0.3,0.13z" fill="black"/>
<path id="Vector_367" d="M75.6319,175.0801c0.07,1.31 0.2,2.6 0.41,3.89c0.2,1.42 0.48,2.82 0.83,4.21c0.63,2.47 1.73,4.79 3.24,6.85c1.44,1.92 3.24,3.54 5.31,4.75c2.07,1.22 4.36,2 6.74,2.31c5.04,0.62 10.12,-0.74 14.18,-3.78c3.48,-2.61 5.9,-6.4 6.8,-10.66c0.93,-0.5 1.78,-1.14 2.51,-1.9c1.71,-1.78 2.95,-4.07 3.88,-6.44c1.09,-2.68 1.65,-5.54 1.66,-8.43c-0.06,-5.1 -2.27,-10.19 -6.48,-12.48c-2.02,-1.09 -4.41,-1.48 -6.62,-0.86c-2.18,0.61 -4.41,2.54 -6.68,1.4c-0.58,-0.29 -1.13,-0.69 -1.71,-1.02c-0.59,-0.32 -1.2,-0.61 -1.82,-0.85c-1.11,-0.44 -2.29,-0.78 -3.49,-0.7c-0.55,0.05 -1.08,0.2 -1.57,0.45c-0.49,0.26 -0.93,0.61 -1.28,1.03c-0.66,0.78 -1.14,1.71 -1.66,2.61c-0.48,0.83 -1.01,1.69 -1.83,2.16c-1,0.58 -2.19,0.49 -3.28,0.51c-1.09,0.01 -2.22,0.13 -3.22,0.74c-0.96,0.59 -1.73,1.43 -2.22,2.44c-0.53,1.1 -0.76,2.31 -0.66,3.53c0.03,0.67 0.12,1.39 -0.04,2.06c-0.15,0.61 -0.54,1.02 -0.95,1.43c-1.68,1.81 -2.13,4.27 -2.05,6.75z" fill="black"/>
<path id="Vector_368" d="M71.2519,210.1001c1.73,-1.1 3.17,-2.61 4.18,-4.39l11.56,-20.44l17.83,6.11l-7.46,22.24l5.96,0.7l10.91,78.5l-50.35,-78.03z" fill="white"/>
<path id="Vector_369" d="M63.8919,215.2401c-0.1,0 -0.2,-0.03 -0.27,-0.09c-0.08,-0.05 -0.14,-0.14 -0.17,-0.23c-0.02,-0.09 -0.02,-0.19 0.01,-0.28c0.04,-0.09 0.1,-0.17 0.18,-0.22l7.38,-4.7c1.66,-1.06 3.04,-2.52 4.02,-4.24l11.56,-20.44c0.05,-0.09 0.13,-0.16 0.23,-0.2c0.1,-0.03 0.21,-0.04 0.31,0l17.83,6.11c0.11,0.04 0.2,0.12 0.25,0.22c0.06,0.11 0.06,0.23 0.03,0.34l-7.29,21.74l5.41,0.63c0.12,0.01 0.23,0.07 0.3,0.16c0.08,0.1 0.11,0.22 0.1,0.33c-0.01,0.06 -0.03,0.12 -0.06,0.17c-0.03,0.05 -0.06,0.1 -0.11,0.13c-0.05,0.04 -0.1,0.07 -0.16,0.08c-0.05,0.02 -0.11,0.02 -0.17,0.02l-5.96,-0.71c-0.07,-0.01 -0.13,-0.03 -0.19,-0.06c-0.06,-0.04 -0.1,-0.09 -0.14,-0.14c-0.04,-0.06 -0.06,-0.12 -0.07,-0.19c0,-0.07 0,-0.13 0.02,-0.2l7.33,-21.81l-17.06,-5.85l-11.38,20.12c-1.05,1.84 -2.53,3.41 -4.32,4.55l-7.37,4.7c-0.07,0.04 -0.16,0.06 -0.24,0.06z" fill="black"/>
<path id="Vector_370" d="M90.9619,216.0101c-0.66,0 -1.37,-0.03 -2.14,-0.11c-6.61,-0.65 -15.29,-6.8 -15.66,-7.06c-0.09,-0.07 -0.16,-0.17 -0.18,-0.29c-0.02,-0.12 0.01,-0.24 0.08,-0.34c0.07,-0.09 0.17,-0.16 0.29,-0.18c0.12,-0.02 0.24,0.01 0.33,0.08c0.09,0.06 8.85,6.27 15.22,6.9c6.25,0.61 8.1,-1.65 8.11,-1.67c0.08,-0.09 0.18,-0.15 0.3,-0.17c0.12,-0.01 0.24,0.02 0.33,0.09c0.1,0.08 0.16,0.18 0.17,0.3c0.02,0.12 -0.02,0.24 -0.09,0.33c-0.08,0.1 -1.71,2.12 -6.76,2.12z" fill="black"/>
<path id="Vector_371" d="M91.5619,217.4201l-3.42,6.64l3.84,4.21l0.96,31.53l21.39,33.17l-3.15,-22.34l-15.99,-42.53l2.12,-3.96z" fill="#FFE2E2"/>
<path id="Vector_372" d="M85.8919,228.7701c-0.07,0 -0.15,-0.02 -0.22,-0.06l-20.3,-11.45c-0.05,-0.02 -0.1,-0.06 -0.14,-0.11c-0.03,-0.05 -0.06,-0.1 -0.08,-0.16c-0.02,-0.05 -0.02,-0.12 -0.02,-0.17c0.01,-0.06 0.03,-0.12 0.06,-0.18c0.03,-0.05 0.07,-0.09 0.12,-0.13c0.04,-0.04 0.1,-0.06 0.16,-0.08c0.05,-0.01 0.12,-0.02 0.18,-0.01c0.05,0.01 0.11,0.03 0.16,0.06l19.9,11.22l5.48,-10.4c0.03,-0.07 0.08,-0.12 0.14,-0.16c0.06,-0.04 0.13,-0.07 0.21,-0.08c0.07,-0.01 0.14,0 0.21,0.03c0.07,0.03 0.13,0.07 0.18,0.12l7.11,8.28l4.1,-7.06c0.02,-0.05 0.06,-0.1 0.11,-0.14c0.05,-0.04 0.1,-0.07 0.16,-0.08c0.06,-0.02 0.12,-0.02 0.18,-0.02c0.06,0.01 0.12,0.03 0.17,0.06c0.05,0.03 0.1,0.07 0.13,0.12c0.04,0.05 0.06,0.1 0.08,0.16c0.01,0.06 0.02,0.12 0.01,0.18c-0.01,0.06 -0.04,0.12 -0.07,0.17l-4.41,7.61c-0.03,0.06 -0.08,0.11 -0.14,0.15c-0.06,0.04 -0.13,0.06 -0.2,0.07c-0.07,0 -0.15,-0.01 -0.21,-0.03c-0.07,-0.03 -0.13,-0.07 -0.17,-0.13l-7.1,-8.25l-5.39,10.22c-0.03,0.06 -0.07,0.1 -0.11,0.14c-0.05,0.04 -0.1,0.07 -0.16,0.08c-0.04,0.02 -0.08,0.03 -0.13,0.03z" fill="black"/>
<path id="Vector_373" d="M83.5819,179.4801c-1.88,0.1 -3.52,1.59 -4.06,3.38c-0.53,1.8 -0.05,3.81 1.02,5.35c1.07,1.54 2.7,2.65 4.43,3.35c0.9,0.37 1.9,0.69 2.48,1.47c0.81,1.09 0.5,2.61 0.56,3.96c0.13,3.01 2.33,5.64 4.99,7.03c2.67,1.4 5.75,1.78 8.76,1.93c1.93,0.1 3.87,0.12 5.77,-0.3c1.89,-0.42 3.71,-1.3 4.97,-2.76c2.27,-2.61 2.3,-6.42 2.21,-9.88l-0.58,-22.17c-5.6,2.06 -11.71,2.31 -17.46,0.71c-1.07,-0.3 -2.38,-0.61 -3.18,0.17c-0.53,0.53 -0.59,1.35 -0.63,2.09c-0.09,2.09 -0.18,4.18 -0.28,6.26c-0.05,1.06 -0.11,2.18 -0.69,3.06c-0.41,0.61 -1.27,1.18 -2.04,1.05c-0.98,-0.17 -1.09,-1.12 -1.59,-1.88c-1.05,-1.56 -2.71,-2.92 -4.68,-2.82z" fill="white"/>
<path id="Vector_374" d="M103.7719,206.4601c-0.69,0 -1.37,-0.03 -2.04,-0.06c-2.84,-0.15 -6.11,-0.5 -8.94,-1.98c-3.1,-1.63 -5.1,-4.47 -5.23,-7.41c-0.02,-0.35 0,-0.71 0,-1.06c0.02,-1.01 0.05,-1.95 -0.47,-2.65c-0.43,-0.58 -1.16,-0.87 -1.94,-1.18l-0.35,-0.14c-2,-0.82 -3.6,-2.04 -4.63,-3.51c-1.22,-1.75 -1.63,-3.89 -1.08,-5.73c0.61,-2.04 2.48,-3.6 4.46,-3.71c1.88,-0.09 3.73,1.01 5.07,3.03c0.14,0.23 0.27,0.46 0.39,0.71c0.28,0.58 0.44,0.89 0.9,0.97c0.58,0.1 1.27,-0.36 1.59,-0.85c0.53,-0.82 0.58,-1.89 0.62,-2.84l0.28,-6.26c0.04,-0.86 0.13,-1.76 0.76,-2.39c1.02,-1.02 2.65,-0.55 3.62,-0.28c5.65,1.57 11.66,1.33 17.18,-0.7c0.06,-0.03 0.13,-0.04 0.21,-0.03c0.07,0.01 0.14,0.04 0.2,0.08c0.06,0.04 0.11,0.09 0.14,0.15c0.03,0.07 0.05,0.14 0.06,0.21l0.58,22.17c0.1,3.69 0,7.53 -2.31,10.18c-1.55,1.79 -3.7,2.56 -5.22,2.9c-1.27,0.26 -2.56,0.39 -3.85,0.38zM83.6019,179.9301c-1.61,0.08 -3.15,1.37 -3.65,3.05c-0.47,1.58 -0.11,3.43 0.96,4.96c0.93,1.34 2.4,2.45 4.24,3.2l0.34,0.14c0.81,0.32 1.74,0.69 2.32,1.48c0.7,0.94 0.68,2.09 0.65,3.2c0,0.35 -0.02,0.68 0,1c0.12,2.59 1.98,5.2 4.76,6.66c2.66,1.4 5.82,1.73 8.56,1.87c1.83,0.09 3.78,0.12 5.65,-0.29c1.39,-0.31 3.35,-1.02 4.73,-2.61c2.11,-2.43 2.2,-5.91 2.1,-9.57l-0.57,-21.55c-5.53,1.9 -11.5,2.08 -17.14,0.51c-1.06,-0.3 -2.14,-0.54 -2.74,0.06c-0.41,0.4 -0.47,1.07 -0.5,1.79l-0.28,6.26c-0.05,1.02 -0.1,2.27 -0.77,3.29c-0.49,0.75 -1.5,1.42 -2.5,1.24c-0.93,-0.16 -1.26,-0.85 -1.56,-1.46c-0.09,-0.21 -0.2,-0.42 -0.32,-0.62c-0.55,-0.81 -2.07,-2.72 -4.28,-2.61z" fill="black"/>
<path id="Vector_375" d="M88.0719,189.1801c-0.07,0 -0.13,-0.01 -0.19,-0.04c-0.06,-0.03 -0.12,-0.08 -0.16,-0.13c-0.99,-1.23 -2.38,-2.08 -3.93,-2.41c-0.11,-0.03 -0.22,-0.1 -0.28,-0.2c-0.07,-0.1 -0.09,-0.22 -0.07,-0.33c0.03,-0.12 0.1,-0.22 0.2,-0.29c0.1,-0.06 0.22,-0.09 0.33,-0.06c1.76,0.37 3.34,1.33 4.46,2.73c0.05,0.07 0.08,0.15 0.09,0.23c0.01,0.08 0,0.17 -0.04,0.25c-0.04,0.07 -0.09,0.14 -0.16,0.18c-0.07,0.05 -0.16,0.07 -0.24,0.07z" fill="black"/>
<path id="Vector_376" d="M373.9019,68.7801c0.02,-14.71 -11.88,-26.65 -26.58,-26.67c-14.7,-0.02 -26.64,11.88 -26.66,26.58c-0.03,14.71 11.87,26.65 26.58,26.67c14.7,0.02 26.64,-11.88 26.66,-26.58z" fill="white"/>
<path id="Vector_377" d="M347.2519,95.8001c-14.93,0 -27.07,-12.14 -27.07,-27.07c0,-14.93 12.14,-27.07 27.07,-27.07c14.93,0 27.07,12.14 27.07,27.07c0,14.93 -12.14,27.07 -27.07,27.07zM347.2519,42.5501c-5.18,0 -10.24,1.54 -14.55,4.41c-4.3,2.88 -7.66,6.97 -9.64,11.75c-1.98,4.78 -2.5,10.05 -1.49,15.12c1.01,5.08 3.51,9.75 7.17,13.41c3.66,3.66 8.32,6.15 13.4,7.16c5.08,1.01 10.34,0.49 15.12,-1.49c4.79,-1.98 8.87,-5.33 11.75,-9.64c2.88,-4.3 4.41,-9.36 4.41,-14.54c-0.01,-6.94 -2.77,-13.59 -7.67,-18.5c-4.91,-4.91 -11.56,-7.67 -18.5,-7.68z" fill="#E26363"/>
<path id="Vector_378" d="M368.1719,68.7701c0.03,-11.56 -9.33,-20.95 -20.89,-20.97c-11.56,-0.03 -20.95,9.33 -20.97,20.89c-0.02,11.56 9.33,20.95 20.89,20.97c11.56,0.02 20.95,-9.33 20.97,-20.89z" fill="white"/>
<path id="Vector_379" d="M347.2419,90.1101c-4.23,0 -8.37,-1.26 -11.89,-3.61c-3.51,-2.35 -6.25,-5.69 -7.87,-9.59c-1.62,-3.91 -2.04,-8.21 -1.22,-12.36c0.83,-4.15 2.86,-7.96 5.85,-10.95c2.99,-2.99 6.8,-5.03 10.95,-5.85c4.15,-0.83 8.45,-0.4 12.36,1.21c3.91,1.62 7.25,4.36 9.6,7.88c2.35,3.52 3.6,7.65 3.6,11.88c0,5.67 -2.26,11.11 -6.27,15.12c-4.01,4.01 -9.44,6.26 -15.11,6.27zM347.2419,48.2401c-4.06,0 -8.02,1.2 -11.39,3.45c-3.37,2.25 -5.99,5.45 -7.54,9.2c-1.55,3.74 -1.96,7.86 -1.17,11.83c0.79,3.98 2.74,7.63 5.61,10.49c2.86,2.87 6.51,4.82 10.49,5.61c3.97,0.79 8.09,0.38 11.83,-1.17c3.75,-1.55 6.95,-4.17 9.2,-7.54c2.25,-3.37 3.45,-7.33 3.45,-11.38c-0.01,-5.43 -2.17,-10.64 -6.01,-14.48c-3.84,-3.84 -9.04,-6 -14.47,-6.01z" fill="#E26363"/>
<path id="Vector_380" d="M357.8519,68.7801c0.03,-14.7 -11.87,-26.64 -26.58,-26.67c-14.7,-0.02 -26.64,11.88 -26.66,26.59c-0.02,14.7 11.88,26.64 26.58,26.66c14.7,0.02 26.64,-11.88 26.66,-26.58z" fill="white"/>
<path id="Vector_381" d="M331.2019,95.8001c-14.92,0 -27.07,-12.14 -27.07,-27.07c0,-14.93 12.15,-27.07 27.07,-27.07c14.93,0 27.07,12.14 27.07,27.07c0,14.93 -12.14,27.07 -27.07,27.07zM331.2019,42.5501c-5.18,0 -10.24,1.54 -14.54,4.41c-4.31,2.88 -7.66,6.97 -9.64,11.75c-1.98,4.78 -2.5,10.05 -1.49,15.12c1.01,5.08 3.5,9.75 7.16,13.41c3.66,3.66 8.33,6.15 13.4,7.16c5.08,1.01 10.35,0.49 15.13,-1.49c4.78,-1.98 8.87,-5.33 11.75,-9.64c2.87,-4.3 4.41,-9.36 4.41,-14.54c-0.01,-6.94 -2.77,-13.6 -7.68,-18.5c-4.91,-4.91 -11.56,-7.67 -18.5,-7.68z" fill="#E26363"/>
<path id="Vector_382" d="M352.1419,68.7701c0.03,-11.56 -9.33,-20.95 -20.89,-20.97c-11.56,-0.03 -20.95,9.33 -20.97,20.89c-0.02,11.56 9.33,20.95 20.89,20.97c11.56,0.02 20.95,-9.33 20.97,-20.89z" fill="white"/>
<path id="Vector_383" d="M331.2019,90.1101c-4.23,0 -8.36,-1.26 -11.88,-3.61c-3.51,-2.35 -6.26,-5.69 -7.87,-9.59c-1.62,-3.91 -2.05,-8.21 -1.22,-12.36c0.82,-4.15 2.86,-7.96 5.85,-10.95c2.99,-2.99 6.8,-5.03 10.95,-5.85c4.15,-0.83 8.45,-0.4 12.36,1.21c3.91,1.62 7.25,4.36 9.6,7.88c2.35,3.52 3.6,7.65 3.6,11.88c0,5.67 -2.26,11.11 -6.27,15.12c-4.01,4.01 -9.45,6.26 -15.12,6.27zM331.2019,48.2401c-4.05,0 -8.01,1.2 -11.38,3.45c-3.37,2.25 -5.99,5.45 -7.54,9.2c-1.55,3.74 -1.96,7.86 -1.17,11.83c0.79,3.98 2.74,7.63 5.61,10.49c2.86,2.87 6.51,4.82 10.48,5.61c3.98,0.79 8.1,0.38 11.84,-1.17c3.74,-1.55 6.94,-4.17 9.2,-7.54c2.25,-3.37 3.45,-7.33 3.45,-11.38c-0.01,-5.43 -2.17,-10.64 -6.01,-14.48c-3.84,-3.84 -9.04,-6 -14.48,-6.01z" fill="#E26363"/>
<path id="Vector_384" d="M341.8219,68.7801c0.02,-14.71 -11.88,-26.65 -26.58,-26.67c-14.71,-0.02 -26.65,11.88 -26.67,26.58c-0.02,14.71 11.88,26.65 26.58,26.67c14.7,0.02 26.64,-11.88 26.67,-26.58z" fill="#E26363"/>
<path id="Vector_385" d="M315.1619,90.1101c-4.23,0 -8.37,-1.26 -11.88,-3.61c-3.52,-2.35 -6.26,-5.69 -7.88,-9.59c-1.62,-3.91 -2.04,-8.21 -1.22,-12.36c0.83,-4.15 2.86,-7.96 5.86,-10.95c2.99,-2.99 6.8,-5.03 10.95,-5.85c4.14,-0.83 8.44,-0.4 12.35,1.21c3.91,1.62 7.25,4.36 9.6,7.88c2.35,3.52 3.6,7.65 3.6,11.88c0,5.67 -2.26,11.11 -6.27,15.12c-4.01,4.01 -9.44,6.26 -15.11,6.27zM315.1619,48.2401c-4.05,0 -8.02,1.2 -11.38,3.45c-3.37,2.25 -6,5.45 -7.55,9.2c-1.55,3.74 -1.96,7.86 -1.17,11.83c0.79,3.98 2.74,7.63 5.61,10.49c2.86,2.87 6.51,4.82 10.49,5.61c3.97,0.79 8.09,0.38 11.83,-1.17c3.75,-1.55 6.95,-4.17 9.2,-7.54c2.25,-3.37 3.45,-7.33 3.45,-11.38c-0.01,-5.43 -2.16,-10.64 -6.01,-14.48c-3.84,-3.84 -9.04,-6 -14.47,-6.01z" fill="white"/>
<path id="Vector_386" d="M313.7919,85.2601v-4.07c-2.33,-0.04 -4.75,-0.77 -6.16,-1.77l0.97,-2.7c1.72,1.12 3.74,1.72 5.8,1.73c2.85,0 4.79,-1.65 4.79,-3.95c0,-2.21 -1.57,-3.58 -4.55,-4.79c-4.11,-1.61 -6.65,-3.46 -6.65,-6.97c0,-3.34 2.38,-5.88 6.09,-6.48v-4.08h2.5v3.91c2.42,0.08 4.07,0.73 5.24,1.41l-1.01,2.65c-1.53,-0.91 -3.29,-1.39 -5.07,-1.37c-3.11,0 -4.28,1.85 -4.28,3.46c0,2.1 1.49,3.14 4.99,4.59c4.15,1.7 6.24,3.79 6.24,7.38c0,3.18 -2.21,6.16 -6.36,6.84v4.19z" fill="white"/>
<path id="Vector_387" d="M480.4219,61.6401h-27.15v27.14h27.15v-19.85z" fill="white"/>
<path id="Vector_388" d="M480.4119,89.2001h-27.14c-0.12,0 -0.24,-0.05 -0.32,-0.13c-0.08,-0.09 -0.13,-0.2 -0.13,-0.32v-27.15c0,-0.12 0.05,-0.23 0.13,-0.31c0.08,-0.09 0.2,-0.14 0.32,-0.14h25.59c0.12,0 0.23,0.05 0.32,0.13c0.08,0.09 0.13,0.2 0.13,0.32c0,0.12 -0.05,0.23 -0.13,0.32c-0.09,0.08 -0.2,0.13 -0.32,0.13h-25.15v26.25h26.26v-19.41c0,-0.11 0.04,-0.23 0.13,-0.31c0.08,-0.09 0.2,-0.13 0.31,-0.13c0.12,0 0.24,0.04 0.32,0.13c0.09,0.08 0.13,0.2 0.13,0.31v19.86c0,0.12 -0.05,0.23 -0.13,0.32c-0.08,0.08 -0.2,0.13 -0.32,0.13z" fill="black"/>
<path id="Vector_389" d="M466.8419,84.5401c-0.07,0 -0.14,-0.02 -0.21,-0.05c-0.06,-0.04 -0.12,-0.08 -0.16,-0.14l-10.63,-14.9c-0.07,-0.09 -0.1,-0.21 -0.08,-0.33c0.02,-0.12 0.09,-0.22 0.18,-0.29c0.1,-0.07 0.22,-0.1 0.34,-0.08c0.11,0.02 0.22,0.08 0.29,0.18l10.27,14.38l18.18,-25.31c0.03,-0.05 0.07,-0.1 0.12,-0.13c0.05,-0.04 0.11,-0.06 0.17,-0.07c0.06,-0.01 0.12,-0.01 0.18,0c0.06,0.01 0.12,0.04 0.17,0.07c0.05,0.04 0.09,0.08 0.12,0.14c0.03,0.05 0.05,0.11 0.06,0.17c0.01,0.06 0,0.12 -0.01,0.18c-0.02,0.06 -0.05,0.11 -0.08,0.16l-18.54,25.83c-0.04,0.06 -0.1,0.11 -0.16,0.14c-0.07,0.03 -0.14,0.05 -0.21,0.05z" fill="black"/>
<path id="Vector_390" d="M480.4219,103.9501h-27.15v27.14h27.15v-19.85z" fill="white"/>
<path id="Vector_391" d="M480.4119,131.5401h-27.14c-0.12,0 -0.24,-0.05 -0.32,-0.13c-0.08,-0.09 -0.13,-0.2 -0.13,-0.32v-27.14c0,-0.12 0.05,-0.24 0.13,-0.32c0.08,-0.09 0.2,-0.13 0.32,-0.13h25.59c0.12,0 0.23,0.04 0.32,0.13c0.08,0.08 0.13,0.2 0.13,0.32c0,0.11 -0.05,0.23 -0.13,0.31c-0.09,0.09 -0.2,0.13 -0.32,0.13h-25.15v26.25h26.26v-19.4c0,-0.12 0.04,-0.23 0.13,-0.32c0.08,-0.08 0.2,-0.13 0.31,-0.13c0.12,0 0.24,0.05 0.32,0.13c0.09,0.09 0.13,0.2 0.13,0.32v19.85c0,0.06 -0.01,0.12 -0.03,0.17c-0.02,0.06 -0.06,0.11 -0.1,0.15c-0.04,0.04 -0.09,0.07 -0.14,0.09c-0.06,0.03 -0.12,0.04 -0.18,0.04z" fill="black"/>
<path id="Vector_392" d="M466.8519,126.8901c-0.07,0 -0.14,-0.02 -0.2,-0.06c-0.07,-0.04 -0.12,-0.08 -0.16,-0.14l-10.63,-14.9c-0.06,-0.09 -0.09,-0.21 -0.06,-0.32c0.02,-0.12 0.08,-0.22 0.18,-0.28c0.09,-0.07 0.21,-0.1 0.32,-0.08c0.11,0.01 0.22,0.07 0.29,0.17l10.26,14.39l18.18,-25.33c0.07,-0.09 0.17,-0.16 0.29,-0.17c0.11,-0.02 0.23,0.01 0.33,0.08c0.09,0.06 0.16,0.17 0.18,0.28c0.02,0.12 -0.01,0.24 -0.08,0.33l-18.53,25.83c-0.04,0.06 -0.1,0.11 -0.16,0.15c-0.07,0.03 -0.14,0.05 -0.21,0.05z" fill="black"/>
<path id="Vector_393" d="M480.4219,19.3301h-27.15v27.14h27.15v-19.85z" fill="white"/>
<path id="Vector_394" d="M480.4119,46.8501h-27.14c-0.12,0 -0.24,-0.04 -0.32,-0.13c-0.08,-0.08 -0.13,-0.19 -0.13,-0.31v-27.15c0,-0.12 0.05,-0.23 0.13,-0.32c0.08,-0.08 0.2,-0.13 0.32,-0.13h25.59c0.12,0 0.23,0.05 0.32,0.13c0.08,0.09 0.13,0.2 0.13,0.32c0,0.12 -0.05,0.23 -0.13,0.32c-0.09,0.08 -0.2,0.13 -0.32,0.13h-25.15v26.25h26.26v-19.41c0,-0.12 0.04,-0.23 0.13,-0.31c0.08,-0.09 0.2,-0.14 0.31,-0.14c0.12,0 0.24,0.05 0.32,0.14c0.09,0.08 0.13,0.19 0.13,0.31v19.86c0,0.12 -0.05,0.23 -0.13,0.31c-0.08,0.09 -0.2,0.13 -0.32,0.13z" fill="black"/>
<path id="Vector_395" d="M466.8419,42.1901c-0.07,0 -0.14,-0.01 -0.21,-0.05c-0.06,-0.03 -0.11,-0.07 -0.16,-0.13l-10.63,-14.89c-0.03,-0.05 -0.06,-0.11 -0.07,-0.16c-0.02,-0.06 -0.02,-0.12 -0.01,-0.18c0.01,-0.06 0.03,-0.11 0.06,-0.16c0.03,-0.05 0.08,-0.09 0.12,-0.13c0.05,-0.03 0.11,-0.06 0.16,-0.07c0.06,-0.01 0.12,-0.02 0.18,-0.01c0.06,0.01 0.11,0.03 0.16,0.07c0.05,0.03 0.09,0.07 0.13,0.12l10.27,14.38l18.18,-25.32c0.03,-0.06 0.07,-0.1 0.12,-0.13c0.05,-0.04 0.11,-0.06 0.17,-0.07c0.06,-0.02 0.12,-0.01 0.18,0c0.06,0.01 0.12,0.04 0.17,0.07c0.05,0.04 0.09,0.08 0.12,0.14c0.03,0.05 0.05,0.11 0.06,0.17c0.01,0.06 0,0.12 -0.01,0.18c-0.02,0.06 -0.05,0.11 -0.08,0.16l-18.54,25.83c-0.04,0.06 -0.1,0.1 -0.16,0.14c-0.07,0.03 -0.14,0.05 -0.21,0.04z" fill="black"/>
<path id="Vector_396" d="M438.5119,112.5801c-0.06,0 -0.12,-0.01 -0.17,-0.04c-0.05,-0.02 -0.1,-0.05 -0.15,-0.09c-0.04,-0.05 -0.07,-0.1 -0.09,-0.15c-0.03,-0.05 -0.04,-0.11 -0.04,-0.17v-27.59h-48.29c-0.11,0 -0.23,-0.05 -0.31,-0.13c-0.09,-0.09 -0.13,-0.2 -0.13,-0.32c0,-0.12 0.04,-0.23 0.13,-0.32c0.08,-0.08 0.2,-0.13 0.31,-0.13h48.74c0.12,0 0.23,0.05 0.32,0.13c0.08,0.09 0.13,0.2 0.13,0.32v28.04c0,0.12 -0.05,0.23 -0.13,0.32c-0.09,0.08 -0.2,0.13 -0.32,0.13z" fill="black"/>
<path id="Vector_397" d="M440.0119,65.6901h-50.23c-0.12,0 -0.23,-0.04 -0.31,-0.13c-0.09,-0.08 -0.14,-0.19 -0.14,-0.31c0,-0.12 0.05,-0.24 0.14,-0.32c0.08,-0.08 0.19,-0.13 0.31,-0.13h50.23c0.12,0 0.23,0.05 0.32,0.13c0.08,0.08 0.13,0.2 0.13,0.32c0,0.12 -0.05,0.23 -0.13,0.31c-0.09,0.09 -0.2,0.13 -0.32,0.13z" fill="black"/>
<path id="Vector_398" d="M441.9219,46.8601h-62.81c-0.12,0 -0.23,-0.05 -0.32,-0.14c-0.08,-0.08 -0.13,-0.19 -0.13,-0.31c0,-0.12 0.05,-0.24 0.13,-0.32c0.09,-0.08 0.2,-0.13 0.32,-0.13h62.81c0.12,0 0.24,0.05 0.32,0.13c0.08,0.08 0.13,0.2 0.13,0.32c0,0.12 -0.05,0.23 -0.13,0.31c-0.08,0.09 -0.2,0.14 -0.32,0.14z" fill="black"/>
<path id="Vector_399" d="M58.9419,173.2301v-14.14c2.09,0 4.09,-0.83 5.57,-2.31c1.47,-1.47 2.3,-3.48 2.3,-5.56v-28.27c0,-1.04 -0.2,-2.06 -0.6,-3.02c-0.39,-0.95 -0.97,-1.82 -1.7,-2.55c-0.74,-0.73 -1.6,-1.31 -2.56,-1.71c-0.96,-0.39 -1.98,-0.59 -3.01,-0.59h-29.88c-2.09,0 -4.09,0.83 -5.57,2.3c-1.47,1.48 -2.3,3.48 -2.3,5.57v28.27c0,2.09 0.83,4.09 2.3,5.57c1.48,1.47 3.48,2.3 5.57,2.3h19.96z" fill="white"/>
<path id="Vector_400" d="M58.9319,173.6701c-0.07,0 -0.14,-0.01 -0.21,-0.05c-0.06,-0.03 -0.11,-0.08 -0.16,-0.14l-9.79,-13.94h-19.71c-2.21,0 -4.33,-0.88 -5.89,-2.44c-1.56,-1.56 -2.43,-3.68 -2.44,-5.88v-28.27c0.01,-2.21 0.88,-4.32 2.44,-5.88c1.56,-1.56 3.68,-2.44 5.89,-2.44h29.87c2.21,0 4.32,0.88 5.88,2.44c1.57,1.56 2.44,3.67 2.45,5.88v28.27c-0.01,2.13 -0.82,4.17 -2.29,5.72c-1.46,1.54 -3.46,2.47 -5.59,2.59v13.7c0,0.12 -0.05,0.23 -0.13,0.31c-0.09,0.09 -0.2,0.13 -0.32,0.13zM29.0619,115.5201c-1.97,0 -3.86,0.79 -5.25,2.18c-1.4,1.39 -2.18,3.28 -2.18,5.25v28.27c0,1.97 0.78,3.85 2.18,5.25c1.39,1.39 3.28,2.17 5.25,2.17h19.96c0.07,0 0.14,0.02 0.2,0.05c0.07,0.04 0.12,0.08 0.16,0.14l9.12,12.98v-12.72c0,-0.06 0.01,-0.12 0.03,-0.17c0.02,-0.05 0.06,-0.1 0.1,-0.15c0.04,-0.04 0.09,-0.07 0.14,-0.09c0.06,-0.02 0.11,-0.04 0.17,-0.04c1.97,0 3.86,-0.78 5.25,-2.17c1.4,-1.4 2.18,-3.28 2.18,-5.25v-28.27c0,-1.97 -0.79,-3.86 -2.18,-5.26c-1.4,-1.39 -3.29,-2.17 -5.26,-2.17z" fill="black"/>
<path id="Vector_401" d="M34.9619,146.5701c-0.09,0 -0.17,-0.02 -0.25,-0.07c-0.07,-0.05 -0.13,-0.12 -0.16,-0.2c-0.04,-0.08 -0.04,-0.17 -0.03,-0.26c0.02,-0.09 0.06,-0.17 0.12,-0.23l18.1,-18.09c0.04,-0.04 0.09,-0.08 0.14,-0.1c0.06,-0.03 0.12,-0.04 0.18,-0.04c0.06,0 0.11,0.01 0.17,0.03c0.06,0.03 0.11,0.06 0.15,0.1c0.04,0.04 0.07,0.09 0.1,0.15c0.02,0.05 0.03,0.11 0.03,0.17c0,0.06 -0.01,0.12 -0.04,0.18c-0.02,0.05 -0.06,0.1 -0.1,0.14l-18.09,18.09c-0.04,0.04 -0.09,0.08 -0.15,0.1c-0.05,0.02 -0.11,0.03 -0.17,0.03z" fill="black"/>
<path id="Vector_402" d="M37.0819,134.6801c-0.81,0 -1.59,-0.32 -2.16,-0.89c-0.58,-0.58 -0.9,-1.35 -0.9,-2.16c0,-0.61 0.18,-1.2 0.51,-1.71c0.34,-0.51 0.82,-0.9 1.38,-1.13c0.56,-0.23 1.18,-0.29 1.77,-0.17c0.6,0.12 1.14,0.41 1.57,0.84c0.28,0.29 0.51,0.62 0.66,1c0.16,0.37 0.23,0.77 0.23,1.17c0,0.81 -0.33,1.58 -0.9,2.16c-0.58,0.57 -1.35,0.89 -2.16,0.89zM37.0819,129.4501c-0.43,0 -0.85,0.13 -1.21,0.37c-0.35,0.24 -0.63,0.57 -0.79,0.97c-0.17,0.4 -0.21,0.83 -0.13,1.25c0.09,0.42 0.29,0.81 0.59,1.11c0.2,0.2 0.44,0.36 0.7,0.47c0.27,0.11 0.55,0.17 0.83,0.17c0.57,-0.01 1.13,-0.24 1.53,-0.64c0.41,-0.41 0.64,-0.96 0.64,-1.53c0,-0.29 -0.06,-0.57 -0.17,-0.83c-0.1,-0.26 -0.26,-0.5 -0.46,-0.7c-0.2,-0.21 -0.44,-0.37 -0.7,-0.47c-0.27,-0.11 -0.55,-0.17 -0.83,-0.17z" fill="black"/>
<path id="Vector_403" d="M50.9219,146.5801c-0.61,0 -1.2,-0.18 -1.71,-0.51c-0.51,-0.34 -0.9,-0.82 -1.13,-1.38c-0.24,-0.56 -0.3,-1.18 -0.18,-1.77c0.12,-0.6 0.41,-1.15 0.84,-1.57c0.43,-0.43 0.98,-0.73 1.57,-0.84c0.6,-0.12 1.21,-0.06 1.77,0.17c0.57,0.24 1.04,0.63 1.38,1.14c0.34,0.5 0.51,1.1 0.51,1.7c0,0.81 -0.32,1.59 -0.89,2.16c-0.58,0.58 -1.35,0.9 -2.16,0.9zM50.9219,141.3501c-0.43,-0.01 -0.85,0.12 -1.21,0.36c-0.36,0.24 -0.64,0.57 -0.8,0.97c-0.17,0.4 -0.21,0.83 -0.13,1.25c0.08,0.43 0.29,0.81 0.59,1.12c0.31,0.3 0.69,0.51 1.11,0.59c0.43,0.09 0.86,0.04 1.26,-0.12c0.4,-0.16 0.73,-0.44 0.97,-0.8c0.24,-0.36 0.37,-0.78 0.37,-1.21c0,-0.57 -0.23,-1.12 -0.63,-1.52c-0.41,-0.41 -0.95,-0.64 -1.53,-0.64z" fill="black"/>
<path id="Vector_404" d="M273.9819,371.4101l-70.27,-0.1l25.73,-70.5c0.35,-0.97 1,-1.81 1.85,-2.4c0.85,-0.59 1.86,-0.91 2.89,-0.91l70.07,0.09c0.81,0 1.61,0.2 2.32,0.57c0.72,0.38 1.34,0.92 1.8,1.59c0.47,0.66 0.77,1.43 0.87,2.23c0.11,0.8 0.02,1.62 -0.26,2.38l-20.86,57.16c-1.06,2.9 -2.98,5.41 -5.51,7.17c-2.53,1.77 -5.55,2.72 -8.63,2.72z" fill="black"/>
<path id="Vector_405" d="M176.3119,362.4601l111.27,0.14l-0.28,0.76c-1.94,5.23 -6.49,8.7 -12.07,8.69l-113.31,-0.15c1.21,-2.8 3.22,-5.2 5.78,-6.87c2.56,-1.68 5.55,-2.58 8.61,-2.57z" fill="black"/>
<path id="Vector_406" d="M459.6019,196.1601c1.17,6.35 2.14,12.72 3.49,19.03c1.45,6.8 0.4,18.62 1.74,25.44c0.65,3.27 4.21,1.43 4.92,4.68c0.31,1.43 0.68,2.86 1,4.3c-0.06,3.98 0.44,8.05 2.3,11.56c2.03,3.82 5.8,6.12 9.73,7.63c4.35,1.66 9.02,2.47 13.64,2.83c2.18,0.17 4.35,0.16 6.53,0.16c3.26,0 6.53,0.11 9.8,0.13c6.49,0.03 13.01,-0.43 19.15,-2.72c4.4,-1.65 8.51,-4.18 11.74,-7.63c3.16,-3.35 5.22,-7.59 5.89,-12.14c0.77,-5.46 -0.64,-11.07 -2.39,-16.21c-3.94,-11.59 -11.09,-21.94 -18.89,-31.26c-7.13,-8.53 -12.22,-18.31 -20.64,-25.65c-9.3,-8.12 -16.68,-11.12 -24.79,-11.11c-9.05,0.01 -13.89,3.77 -17.82,5.87c-1.78,0.94 -3.4,2.21 -4.59,3.85c-1.34,1.87 -2,4.11 -2.27,6.37c-0.6,4.98 0.57,10 1.46,14.87z" fill="black"/>
<path id="Vector_407" d="M492.9119,207.0501l9.93,33.42c0,0 -18.89,23.33 -33.14,22.43c-14.26,-0.9 -11.62,-17.04 -1.01,-22.06l7.61,-1.18l-3.1,-26.07z" fill="white"/>
<path id="Vector_408" d="M476.3019,240.1101c-0.11,0 -0.21,-0.04 -0.29,-0.11c-0.08,-0.07 -0.14,-0.17 -0.15,-0.28l-3.1,-26.07c-0.01,-0.1 0.01,-0.2 0.07,-0.29c0.05,-0.09 0.13,-0.15 0.23,-0.18l19.7,-6.55c0.06,-0.02 0.12,-0.03 0.18,-0.02c0.06,0 0.12,0.02 0.17,0.04c0.05,0.03 0.1,0.07 0.14,0.11c0.04,0.05 0.06,0.1 0.08,0.16l8.74,27.94c0.03,0.11 0.02,0.23 -0.04,0.33c-0.05,0.11 -0.15,0.19 -0.26,0.22c-0.11,0.04 -0.23,0.03 -0.34,-0.03c-0.1,-0.05 -0.18,-0.14 -0.22,-0.26l-8.6,-27.49l-18.93,6.28l3.06,25.71c0.01,0.11 -0.02,0.23 -0.09,0.33c-0.08,0.09 -0.19,0.15 -0.3,0.17z" fill="black"/>
<path id="Vector_409" d="M470.0819,241.0701c-0.12,0 -0.23,-0.04 -0.31,-0.11c-0.09,-0.08 -0.14,-0.19 -0.15,-0.3c0,-0.12 0.03,-0.23 0.1,-0.32c0.07,-0.09 0.18,-0.14 0.29,-0.16l5.66,-0.87c0.11,-0.02 0.23,0.01 0.33,0.08c0.1,0.07 0.16,0.17 0.18,0.29c0.02,0.12 -0.01,0.24 -0.08,0.33c-0.07,0.1 -0.18,0.16 -0.3,0.18l-5.65,0.88c-0.03,0 -0.05,0 -0.07,0z" fill="black"/>
<path id="Vector_410" d="M463.2219,196.3801c-0.71,3.92 -0.73,8.04 0.61,11.79c1.34,3.76 4.12,7.1 7.84,8.51c3.22,1.22 6.91,0.93 10.09,-0.41c3.19,-1.33 5.89,-3.63 8.1,-6.28c3.41,1.2 7.54,-0.21 9.5,-3.25c1.13,-1.75 1.52,-4.07 0.6,-5.94c-0.93,-1.87 -3.36,-2.98 -5.24,-2.09c-1.07,0.51 -1.83,1.55 -2.92,2.01c-1.23,0.52 -2.68,0.2 -3.77,-0.52c-1.1,-0.73 -1.89,-1.85 -2.53,-3.02c-1.99,-3.7 -2.57,-8.01 -1.64,-12.11c-0.09,0.38 -2.12,0.96 -2.49,1.09c-0.91,0.31 -1.85,0.54 -2.8,0.69c-1.88,0.29 -3.8,0.27 -5.68,-0.05c-0.95,-0.16 -1.89,-0.41 -2.8,-0.73c-0.72,-0.25 -1.66,-0.93 -2.43,-0.94c-1.61,-0.02 -2.08,2.91 -2.47,4.05c-0.83,2.35 -1.49,4.75 -1.97,7.2z" fill="white"/>
<path id="Vector_411" d="M476.0219,217.9001c-1.55,0.01 -3.08,-0.26 -4.53,-0.8c-3.61,-1.38 -6.64,-4.66 -8.1,-8.78c-1.22,-3.48 -1.44,-7.52 -0.61,-12.02c0.48,-2.46 1.14,-4.89 1.98,-7.26c0.06,-0.19 0.13,-0.44 0.2,-0.71c0.41,-1.45 1.02,-3.65 2.67,-3.65h0.02c0.61,0 1.24,0.33 1.81,0.61c0.25,0.14 0.5,0.26 0.77,0.36c0.88,0.31 1.79,0.55 2.72,0.71c1.83,0.31 3.7,0.33 5.53,0.04c0.93,-0.14 1.85,-0.37 2.73,-0.67l0.25,-0.08c1.39,-0.43 1.84,-0.65 1.98,-0.77c0.05,-0.1 0.13,-0.18 0.23,-0.22c0.1,-0.05 0.22,-0.05 0.32,-0.01c0.11,0.03 0.19,0.1 0.25,0.2c0.05,0.1 0.07,0.21 0.04,0.32c-0.9,4 -0.33,8.19 1.6,11.8c0.74,1.36 1.49,2.26 2.38,2.85c1.07,0.72 2.35,0.9 3.35,0.48c0.51,-0.25 0.99,-0.57 1.41,-0.96c0.45,-0.41 0.95,-0.75 1.49,-1.03c2.03,-0.97 4.75,0.11 5.83,2.29c0.94,1.88 0.7,4.33 -0.61,6.38c-1.99,3.1 -6.21,4.6 -9.72,3.52c-2.45,2.89 -5.17,4.96 -8.08,6.18c-1.87,0.8 -3.88,1.21 -5.91,1.22zM467.6319,185.5801c-0.97,0 -1.5,1.87 -1.81,2.99c-0.08,0.29 -0.15,0.55 -0.22,0.76c-0.82,2.32 -1.47,4.7 -1.94,7.12c-0.8,4.35 -0.6,8.24 0.58,11.56c1.37,3.87 4.2,6.96 7.57,8.25c2.93,1.11 6.49,0.97 9.76,-0.41c2.86,-1.2 5.52,-3.26 7.93,-6.16c0.06,-0.07 0.14,-0.12 0.23,-0.15c0.09,-0.02 0.18,-0.02 0.27,0.01c3.19,1.13 7.12,-0.21 8.96,-3.05c1.13,-1.76 1.36,-3.92 0.57,-5.5c-0.86,-1.73 -3.07,-2.63 -4.64,-1.88c-0.47,0.25 -0.91,0.56 -1.31,0.91c-0.49,0.45 -1.04,0.82 -1.63,1.1c-1.27,0.54 -2.88,0.32 -4.2,-0.56c-1.01,-0.68 -1.85,-1.69 -2.66,-3.18c-1.87,-3.49 -2.53,-7.49 -1.89,-11.4c-0.37,0.15 -0.85,0.31 -1.47,0.51l-0.23,0.07c-0.94,0.32 -1.9,0.56 -2.88,0.71c-1.93,0.3 -3.9,0.29 -5.83,-0.05c-0.97,-0.16 -1.94,-0.41 -2.87,-0.74c-0.3,-0.12 -0.59,-0.26 -0.87,-0.41c-0.48,-0.24 -1.02,-0.52 -1.41,-0.52z" fill="black"/>
<path id="Vector_412" d="M495.5819,203.6401c-0.95,-0.03 -1.89,0.21 -2.71,0.71c-0.81,0.49 -1.47,1.2 -1.89,2.06z" fill="white"/>
<path id="Vector_413" d="M490.9919,206.8601c-0.07,0 -0.13,-0.02 -0.19,-0.04c-0.06,-0.03 -0.11,-0.06 -0.15,-0.11c-0.04,-0.04 -0.07,-0.09 -0.09,-0.15c-0.02,-0.05 -0.03,-0.11 -0.02,-0.17c0,-0.06 0.01,-0.12 0.04,-0.17c0.46,-0.94 1.17,-1.72 2.07,-2.26c0.89,-0.53 1.92,-0.8 2.96,-0.77c0.12,0.01 0.23,0.06 0.31,0.15c0.08,0.09 0.12,0.2 0.11,0.32c0,0.12 -0.06,0.23 -0.14,0.31c-0.09,0.08 -0.21,0.12 -0.33,0.12c-0.86,-0.03 -1.72,0.19 -2.46,0.63c-0.74,0.45 -1.33,1.1 -1.71,1.88c-0.04,0.08 -0.09,0.14 -0.16,0.19c-0.08,0.04 -0.16,0.07 -0.24,0.07z" fill="black"/>
<path id="Vector_414" d="M535.4219,240.5401c-7.13,-5.7 -18.5,-6.58 -33.77,-5.55c-0.92,1.28 -21.35,10.06 -21.35,10.06c0,0 -3.31,-4.75 -4.48,-5.89c-2.47,0.41 -10.86,0.72 -13.33,1.12c-12.65,2.05 -27.8,8.59 -38.38,26.86c-31.41,54.29 -20.44,67.33 -7.47,71.24c14.8,4.45 23.32,-6.58 23.32,-6.58l36.03,-0.84c52.77,27.51 57.72,1.03 62.38,-18.12c4.67,-19.14 14.48,-58.34 -2.95,-72.3z" fill="white"/>
<path id="Vector_415" d="M512.5819,343.2601c-9.37,0 -21.49,-3.93 -36.7,-11.85l-35.72,0.84c-1.18,1.39 -9.77,10.74 -23.66,6.55c-5.61,-1.69 -9.34,-4.64 -11.4,-9.01c-0.06,-0.11 -0.06,-0.23 -0.02,-0.35c0.04,-0.11 0.12,-0.2 0.23,-0.25c0.11,-0.05 0.23,-0.06 0.35,-0.02c0.11,0.04 0.2,0.13 0.25,0.24c1.94,4.13 5.5,6.92 10.85,8.54c14.33,4.32 22.75,-6.32 22.84,-6.42c0.04,-0.05 0.09,-0.1 0.15,-0.13c0.06,-0.03 0.12,-0.04 0.19,-0.04l36.03,-0.85c0.08,0 0.15,0.02 0.22,0.05c21.29,11.1 36.41,14.33 46.23,9.87c9.91,-4.5 12.71,-16.09 15.18,-26.33l0.52,-2.12c4.54,-18.66 14,-57.49 -2.99,-71.09c-6.21,-4.97 -16.17,-6.61 -33.29,-5.46c-2.05,1.69 -18.06,8.61 -21.36,10.03c-0.1,0.04 -0.2,0.05 -0.3,0.02c-0.1,-0.03 -0.19,-0.09 -0.25,-0.17c-0.03,-0.05 -3.03,-4.35 -4.27,-5.67c-1.33,0.19 -3.82,0.35 -6.44,0.52c-2.68,0.18 -5.44,0.36 -6.66,0.56c-4.57,0.72 -9.02,2.02 -13.26,3.85c-0.05,0.03 -0.11,0.05 -0.18,0.05c-0.06,0.01 -0.12,0.01 -0.18,-0.01c-0.06,-0.02 -0.12,-0.06 -0.17,-0.1c-0.04,-0.04 -0.08,-0.09 -0.11,-0.15c-0.02,-0.06 -0.03,-0.12 -0.03,-0.18c0,-0.07 0.01,-0.13 0.04,-0.19c0.02,-0.05 0.06,-0.11 0.11,-0.15c0.05,-0.04 0.1,-0.07 0.16,-0.09c4.31,-1.86 8.84,-3.17 13.47,-3.91c1.26,-0.2 4.05,-0.39 6.75,-0.57c2.64,-0.17 5.38,-0.35 6.58,-0.54c0.07,-0.02 0.14,-0.01 0.21,0.01c0.07,0.02 0.13,0.06 0.18,0.11c1.02,1 3.57,4.58 4.32,5.65c7.81,-3.36 20.09,-8.87 20.83,-9.78c0.09,-0.1 0.2,-0.16 0.33,-0.18c17.7,-1.19 27.58,0.44 34.08,5.65c7.54,6.04 10.9,17.49 9.96,34.04c-0.77,13.78 -4.32,28.34 -6.67,37.97l-0.51,2.11c-2.52,10.43 -5.38,22.26 -15.68,26.94c-2.95,1.33 -6.35,2 -10.21,2.01z" fill="black"/>
<path id="Vector_416" d="M411.3219,292.4101c-0.06,0 -0.12,-0.01 -0.18,-0.04c-0.05,-0.02 -0.1,-0.05 -0.14,-0.1c-0.04,-0.04 -0.07,-0.09 -0.1,-0.14c-0.02,-0.06 -0.03,-0.12 -0.03,-0.18c0,-0.05 0.02,-0.11 0.04,-0.17c1.24,-2.83 2.65,-5.83 4.18,-8.91c0.05,-0.11 0.15,-0.19 0.26,-0.23c0.12,-0.03 0.24,-0.02 0.35,0.03c0.1,0.06 0.18,0.15 0.22,0.26c0.04,0.12 0.03,0.24 -0.03,0.35c-1.53,3.07 -2.93,6.06 -4.16,8.87c-0.03,0.08 -0.09,0.14 -0.17,0.19c-0.07,0.05 -0.15,0.07 -0.24,0.07z" fill="black"/>
<path id="Vector_417" d="M462.8519,290.9001c-0.09,0 -0.17,-0.03 -0.25,-0.08c-0.1,-0.06 -0.16,-0.17 -0.19,-0.28c-0.02,-0.12 0,-0.24 0.07,-0.34l22.47,-33.45c0.03,-0.05 0.08,-0.09 0.13,-0.12c0.04,-0.03 0.1,-0.05 0.16,-0.07c0.06,-0.01 0.11,-0.01 0.17,0c0.06,0.02 0.12,0.04 0.16,0.07c0.05,0.04 0.09,0.08 0.13,0.13c0.03,0.05 0.05,0.1 0.06,0.16c0.01,0.06 0.01,0.12 0,0.17c-0.01,0.06 -0.03,0.12 -0.06,0.16l-22.47,33.45c-0.04,0.06 -0.1,0.11 -0.16,0.15c-0.07,0.03 -0.14,0.05 -0.22,0.05z" fill="black"/>
<path id="Vector_418" d="M487.4619,261.5201h-0.05c-0.07,-0.01 -0.14,-0.04 -0.2,-0.08c-0.06,-0.04 -0.11,-0.1 -0.15,-0.16l-7.21,-13.68l-13.57,10.36c-0.07,0.05 -0.15,0.08 -0.23,0.09c-0.08,0 -0.17,-0.01 -0.24,-0.05c-0.08,-0.04 -0.14,-0.09 -0.19,-0.16c-0.04,-0.07 -0.06,-0.15 -0.06,-0.24l-0.02,-14.15c0,-0.12 0.05,-0.23 0.13,-0.32c0.09,-0.08 0.2,-0.13 0.32,-0.13c0.05,0 0.11,0.01 0.17,0.03c0.05,0.02 0.1,0.06 0.14,0.1c0.04,0.04 0.08,0.09 0.1,0.14c0.02,0.06 0.03,0.11 0.03,0.17l0.02,13.26l13.28,-10.13c0.05,-0.04 0.11,-0.06 0.17,-0.08c0.07,-0.01 0.13,-0.01 0.2,0c0.06,0.02 0.12,0.04 0.17,0.08c0.05,0.04 0.1,0.09 0.13,0.15l7.15,13.55l18.94,-22.86c0.08,-0.08 0.19,-0.13 0.3,-0.14c0.12,-0.01 0.23,0.03 0.32,0.1c0.09,0.07 0.15,0.18 0.16,0.29c0.01,0.12 -0.02,0.23 -0.09,0.32l-19.38,23.38c-0.04,0.05 -0.09,0.09 -0.15,0.12c-0.06,0.02 -0.13,0.04 -0.19,0.04z" fill="black"/>
<path id="Vector_419" d="M472.9319,238.1201c0,0 1.28,-5.14 -3.12,-3.68c0,0 -0.38,-6.01 -4.84,-2.56l6.85,-8.37c0.7,-0.91 1.05,-2.63 0.09,-3.72c-1.14,-1.31 -3.4,-0.71 -4.35,0.25c-6.69,6.79 -30.75,33.35 -48.7,71.84c9.62,4.52 20.58,7.48 32.87,8.9c0,0 23.08,-56.85 23.9,-59.96c1.04,-3.97 -2.7,-2.7 -2.7,-2.7z" fill="white"/>
<path id="Vector_420" d="M451.7419,301.2301h-0.05c-12.33,-1.43 -23.44,-4.44 -33.01,-8.94c-0.11,-0.05 -0.19,-0.14 -0.23,-0.25c-0.04,-0.11 -0.04,-0.23 0.01,-0.34c18.88,-40.5 43.96,-67.05 48.79,-71.96c0.81,-0.75 1.87,-1.16 2.97,-1.14c0.38,0 0.76,0.08 1.11,0.24c0.36,0.15 0.67,0.38 0.93,0.67c1.07,1.22 0.8,3.13 -0.08,4.27l-5.45,6.68c0.52,-0.15 1.07,-0.11 1.57,0.1c1.31,0.59 1.75,2.39 1.9,3.31c1.11,-0.27 1.96,-0.13 2.55,0.41c0.89,0.81 0.86,2.35 0.74,3.24c0.64,-0.1 1.56,-0.11 2.18,0.47c0.62,0.58 0.76,1.57 0.39,2.93c-0.81,3.11 -22.96,57.7 -23.91,60.02c-0.03,0.09 -0.08,0.16 -0.16,0.21c-0.07,0.05 -0.16,0.08 -0.25,0.08zM419.4619,291.6601c9.31,4.31 20.07,7.21 32,8.63c1.85,-4.57 22.98,-56.67 23.75,-59.59c0.18,-0.7 0.31,-1.63 -0.14,-2.05c-0.5,-0.47 -1.61,-0.24 -1.99,-0.11c-0.08,0.03 -0.16,0.03 -0.24,0.02c-0.07,-0.02 -0.15,-0.06 -0.21,-0.11c-0.05,-0.06 -0.1,-0.13 -0.12,-0.2c-0.02,-0.08 -0.03,-0.16 -0.01,-0.24c0.16,-0.61 0.39,-2.39 -0.35,-3.07c-0.42,-0.39 -1.16,-0.41 -2.19,-0.08c-0.06,0.02 -0.13,0.03 -0.2,0.02c-0.06,-0.01 -0.13,-0.03 -0.19,-0.07c-0.05,-0.04 -0.1,-0.09 -0.13,-0.15c-0.04,-0.06 -0.06,-0.12 -0.06,-0.19c-0.05,-0.71 -0.4,-2.63 -1.44,-3.1c-0.66,-0.3 -1.56,0 -2.68,0.86c-0.09,0.06 -0.2,0.09 -0.3,0.08c-0.11,-0.02 -0.2,-0.06 -0.28,-0.14c-0.07,-0.08 -0.11,-0.18 -0.12,-0.28c-0.01,-0.11 0.02,-0.21 0.09,-0.3l6.85,-8.37c0.55,-0.72 0.9,-2.22 0.1,-3.14c-0.18,-0.19 -0.39,-0.34 -0.63,-0.45c-0.24,-0.1 -0.5,-0.16 -0.77,-0.16c-0.85,-0.01 -1.67,0.3 -2.3,0.87c-4.81,4.89 -29.64,31.18 -48.44,71.32z" fill="black"/>
<path id="Vector_421" d="M481.1219,294.0301l-24.69,-4.84l-4.69,11.59l-5.13,17.68l29.38,12.5c0,0 6.9,-21.85 5.13,-36.93z" fill="white"/>
<path id="Vector_422" d="M475.9819,331.4001c-0.06,0 -0.12,-0.01 -0.17,-0.03l-29.39,-12.49c-0.1,-0.05 -0.18,-0.13 -0.23,-0.22c-0.05,-0.1 -0.06,-0.22 -0.03,-0.32l5.14,-17.68c0,-0.02 0.01,-0.03 0.02,-0.05l4.68,-11.58c0.04,-0.1 0.11,-0.18 0.2,-0.23c0.09,-0.05 0.2,-0.07 0.3,-0.04l24.69,4.83c0.1,0.01 0.18,0.06 0.25,0.13c0.06,0.07 0.1,0.16 0.11,0.25c1.76,15.01 -5.09,36.9 -5.15,37.12c-0.02,0.06 -0.05,0.12 -0.09,0.16c-0.04,0.05 -0.09,0.09 -0.15,0.11c-0.06,0.03 -0.12,0.04 -0.18,0.04zM447.1319,318.2101l28.57,12.15c0.97,-3.23 6.48,-22.36 5.01,-35.95l-24.01,-4.71l-4.54,11.23z" fill="black"/>
<path id="Vector_423" d="M411.4619,306.5001c-0.05,0 -0.11,-0.01 -0.16,-0.03c-0.11,-0.05 -0.2,-0.13 -0.25,-0.24c-0.05,-0.11 -0.05,-0.23 -0.01,-0.34c1.84,-4.87 4.17,-9.53 6.96,-13.92c0.03,-0.05 0.07,-0.1 0.12,-0.14c0.04,-0.03 0.1,-0.06 0.16,-0.07c0.06,-0.02 0.12,-0.02 0.18,-0.01c0.06,0.01 0.11,0.03 0.16,0.07c0.05,0.03 0.1,0.07 0.13,0.12c0.04,0.05 0.06,0.11 0.07,0.16c0.01,0.06 0.01,0.12 0,0.18c-0.01,0.06 -0.03,0.12 -0.07,0.17c-2.75,4.34 -5.05,8.95 -6.87,13.76c-0.03,0.08 -0.09,0.15 -0.16,0.21c-0.08,0.05 -0.17,0.08 -0.26,0.08z" fill="black"/>
<path id="Vector_424" d="M509.3519,301.4401c-0.05,0 -0.1,-0.01 -0.15,-0.03c-8.71,-3.18 -17.72,-5.48 -26.89,-6.85c-0.11,-0.02 -0.21,-0.09 -0.28,-0.18c-0.07,-0.1 -0.1,-0.22 -0.08,-0.33c0.02,-0.12 0.08,-0.22 0.17,-0.29c0.09,-0.07 0.21,-0.1 0.33,-0.09c9.22,1.38 18.29,3.69 27.05,6.9c0.1,0.03 0.18,0.1 0.24,0.2c0.05,0.09 0.07,0.19 0.05,0.3c-0.02,0.1 -0.07,0.2 -0.16,0.26c-0.08,0.07 -0.18,0.11 -0.29,0.11z" fill="black"/>
<path id="Vector_425" d="M504.7519,299.5301c-0.05,0 -0.09,-0.01 -0.14,-0.02c-0.11,-0.04 -0.2,-0.12 -0.26,-0.22c-0.05,-0.11 -0.06,-0.23 -0.03,-0.35c2.8,-8.83 4.8,-17.89 5.98,-27.08c0.02,-0.12 0.08,-0.23 0.17,-0.3c0.1,-0.07 0.22,-0.11 0.33,-0.09c0.12,0.01 0.23,0.07 0.3,0.17c0.07,0.09 0.11,0.21 0.09,0.33c-1.19,9.24 -3.2,18.36 -6.01,27.24c-0.03,0.1 -0.09,0.18 -0.16,0.23c-0.08,0.06 -0.17,0.09 -0.27,0.09z" fill="black"/>
<path id="Vector_426" d="M440.3519,331.4501c-0.1,0 -0.21,-0.04 -0.29,-0.11c-0.04,-0.04 -0.08,-0.08 -0.11,-0.14c-0.02,-0.05 -0.04,-0.11 -0.04,-0.16c-0.01,-0.06 0,-0.12 0.02,-0.18c0.02,-0.05 0.04,-0.11 0.08,-0.15c2.79,-3.24 4.68,-7.02 5.76,-11.56c0.01,-0.06 0.04,-0.12 0.07,-0.17c0.03,-0.05 0.08,-0.09 0.13,-0.13c0.05,-0.03 0.11,-0.05 0.17,-0.06c0.05,-0.01 0.12,-0.01 0.18,0c0.05,0.02 0.11,0.04 0.16,0.08c0.05,0.03 0.09,0.08 0.12,0.13c0.03,0.05 0.05,0.11 0.06,0.17c0.01,0.06 0,0.12 -0.02,0.18c-1.12,4.69 -3.06,8.59 -5.95,11.94c-0.04,0.05 -0.09,0.09 -0.15,0.12c-0.06,0.03 -0.12,0.04 -0.19,0.04z" fill="black"/>
</g></svg>