<svg viewBox="0 0 445.5884 349.7917" x="0" y="0" fill="none" xmlns="http://www.w3.org/2000/svg"><g id="Group 924" xmlns="http://www.w3.org/2000/svg">
<path id="Vector_635" d="M40.192,336.41c0,0 -59.925,-148.12 -33.432,-200.58c36.503,-72.29 246.082,-157.13 332.215,-130.99c55.835,16.95 104.198,131.53 106.536,182.62c2.047,44.71 -37.38,148.95 -37.38,148.95h-367.939z" fill="#FFCACA"/>
<path id="Vector_636" d="M63.679,336.59l-19.648,-183.56l105.69,-68.77l-17.188,251.91z" fill="#E3C0C0"/>
<path id="Vector_637" d="M224.63,115.86h-63.528v220.31h63.528z" fill="#E3C0C0"/>
<path id="Vector_638" d="M297.84,88.71h-62.988v247.46h62.988z" fill="#E3C0C0"/>
<path id="Vector_639" d="M310.078,125.5l-1.195,210.67h62.136l34.608,-161.14z" fill="#E3C0C0"/>
<path id="Vector_640" d="M327.188,146.52l32.931,-62.26l29.839,101.03z" fill="#E3C0C0"/>
<path id="Vector_641" d="M213.713,104.47h-18.158v21.03h18.158z" fill="#E3C0C0"/>
<path id="Vector_642" d="M302.463,135.03h-146.611v5.56h146.611z" fill="#E3C0C0"/>
<g id="Group_2">
<path id="Vector_643" d="M343.803,21.89c0,4.05 -3.401,7.34 -7.597,7.34c-4.196,0 -7.597,-3.29 -7.597,-7.34c0,-4.06 3.401,-7.35 7.597,-7.35c4.196,0 7.597,3.29 7.597,7.35z" fill="white"/>
<path id="Vector_644" d="M353.373,25.09c0,4.06 -3.401,7.35 -7.597,7.35c-4.195,0 -7.596,-3.29 -7.596,-7.35c0,-4.06 3.401,-7.34 7.596,-7.34c4.196,0 7.597,3.28 7.597,7.34z" fill="white"/>
<path id="Vector_645" d="M332.904,21.89c0,4.05 -3.401,7.34 -7.596,7.34c-4.196,0 -7.597,-3.29 -7.597,-7.34c0,-4.06 3.401,-7.35 7.597,-7.35c4.195,0 7.596,3.29 7.596,7.35z" fill="white"/>
<path id="Vector_646" d="M315.435,31.93c0,4.06 -3.401,7.35 -7.596,7.35c-4.196,0 -7.597,-3.29 -7.597,-7.35c0,-4.06 3.401,-7.35 7.597,-7.35c4.195,0 7.596,3.29 7.596,7.35z" fill="white"/>
<path id="Vector_647" d="M343.803,29.23c0,4.06 -3.401,7.35 -7.597,7.35c-4.196,0 -7.597,-3.29 -7.597,-7.35c0,-4.06 3.401,-7.35 7.597,-7.35c4.196,0 7.597,3.29 7.597,7.35z" fill="white"/>
<path id="Vector_648" d="M336.209,29.23c0,4.06 -3.401,7.35 -7.597,7.35c-4.196,0 -7.596,-3.29 -7.596,-7.35c0,-4.06 3.4,-7.35 7.596,-7.35c4.196,0 7.597,3.29 7.597,7.35z" fill="white"/>
<path id="Vector_649" d="M318.223,41.98c5.736,0 10.387,-4.5 10.387,-10.05c0,-5.55 -4.651,-10.05 -10.387,-10.05c-5.737,0 -10.387,4.5 -10.387,10.05c0,5.55 4.65,10.05 10.387,10.05z" fill="white"/>
<path id="Vector_650" d="M331.403,46.62c5.736,0 10.386,-4.49 10.386,-10.04c0,-5.55 -4.65,-10.05 -10.386,-10.05c-5.737,0 -10.387,4.5 -10.387,10.05c0,5.55 4.65,10.04 10.387,10.04z" fill="white"/>
<path id="Vector_651" d="M344.574,46.62c5.737,0 10.387,-4.49 10.387,-10.04c0,-5.55 -4.65,-10.05 -10.387,-10.05c-5.736,0 -10.386,4.5 -10.386,10.05c0,5.55 4.65,10.04 10.386,10.04z" fill="white"/>
<path id="Vector_652" d="M355.035,44.05c5.737,0 10.387,-4.5 10.387,-10.05c0,-5.55 -4.65,-10.05 -10.387,-10.05c-5.736,0 -10.387,4.5 -10.387,10.05c0,5.55 4.651,10.05 10.387,10.05z" fill="white"/>
</g>
<path id="Vector_653" d="M422.049,349.79h-395.908c-3.283,0 -5.946,-2.96 -5.946,-6.6c0,-3.65 2.663,-6.6 5.946,-6.6h395.908c3.284,0 5.946,2.95 5.946,6.6c0,3.65 -2.662,6.6 -5.946,6.6z" fill="#666561"/>
<g id="Group_3">
<path id="Vector_654" d="M161.406,59.59c7.296,0 13.211,-3.27 13.211,-7.3c0,-4.03 -5.915,-7.3 -13.211,-7.3c-7.296,0 -13.211,3.27 -13.211,7.3c0,4.03 5.915,7.3 13.211,7.3z" fill="white"/>
<path id="Vector_655" d="M184.948,55.13c0,3.52 -3.554,6.37 -7.939,6.37c-4.385,0 -7.939,-2.85 -7.939,-6.37c0,-3.52 3.554,-6.37 7.939,-6.37c4.385,0 7.939,2.85 7.939,6.37z" fill="white"/>
<path id="Vector_656" d="M148.195,72.73c7.296,0 13.211,-4.57 13.211,-10.22c0,-5.65 -5.915,-10.22 -13.211,-10.22c-7.296,0 -13.211,4.57 -13.211,10.22c0,5.65 5.915,10.22 13.211,10.22z" fill="white"/>
<path id="Vector_657" d="M164.711,72.73c7.296,0 13.211,-4.57 13.211,-10.22c0,-5.65 -5.915,-10.22 -13.211,-10.22c-7.296,0 -13.211,4.57 -13.211,10.22c0,5.65 5.915,10.22 13.211,10.22z" fill="white"/>
<path id="Vector_658" d="M191.602,64.27c0,4.67 -4.894,8.46 -10.934,8.46c-6.039,0 -10.934,-3.79 -10.934,-8.46c0,-4.67 4.895,-8.46 10.934,-8.46c6.04,0 10.934,3.79 10.934,8.46z" fill="white"/>
<path id="Vector_659" d="M145.915,64.27c0,4.67 -4.895,8.46 -10.934,8.46c-6.038,0 -10.934,-3.79 -10.934,-8.46c0,-4.67 4.895,-8.46 10.934,-8.46c6.039,0 10.934,3.79 10.934,8.46z" fill="white"/>
</g>
<g id="Group_4">
<path id="Vector_660" d="M218.143,200.61h-156.616c-6.91,0 -12.511,5.6 -12.511,12.51h181.638c0,-6.91 -5.601,-12.51 -12.511,-12.51z" fill="#FF4F4F"/>
<g id="Group_5">
<path id="Vector_661" d="M402.155,238.91h-171.499v93.29h171.499z" fill="#539ECC"/>
</g>
<g id="Group_6">
<path id="Vector_662" d="M402.155,238.91h-171.499v3.44h171.499z" fill="#5DB9E3"/>
<path id="Vector_663" d="M402.155,243.63h-171.499v3.45h171.499z" fill="#5DB9E3"/>
<path id="Vector_664" d="M402.155,248.36h-171.499v3.45h171.499z" fill="#5DB9E3"/>
<path id="Vector_665" d="M402.155,253.09h-171.499v3.45h171.499z" fill="#5DB9E3"/>
<path id="Vector_666" d="M402.155,257.82h-171.499v3.45h171.499z" fill="#5DB9E3"/>
<path id="Vector_667" d="M402.155,262.55h-171.499v3.44h171.499z" fill="#5DB9E3"/>
<path id="Vector_668" d="M402.155,267.28h-171.499v3.44h171.499z" fill="#5DB9E3"/>
<path id="Vector_669" d="M402.155,272.01h-171.499v3.44h171.499z" fill="#5DB9E3"/>
<path id="Vector_670" d="M402.155,276.73h-171.499v3.45h171.499z" fill="#5DB9E3"/>
<path id="Vector_671" d="M402.155,281.46h-171.499v3.45h171.499z" fill="#5DB9E3"/>
<path id="Vector_672" d="M402.155,286.19h-171.499v3.45h171.499z" fill="#5DB9E3"/>
<path id="Vector_673" d="M402.155,290.92h-171.499v3.45h171.499z" fill="#5DB9E3"/>
<path id="Vector_674" d="M402.155,295.65h-171.499v3.44h171.499z" fill="#5DB9E3"/>
<path id="Vector_675" d="M402.155,300.38h-171.499v3.44h171.499z" fill="#5DB9E3"/>
<path id="Vector_676" d="M402.155,305.11h-171.499v3.44h171.499z" fill="#5DB9E3"/>
<path id="Vector_677" d="M402.155,309.83h-171.499v3.45h171.499z" fill="#5DB9E3"/>
<path id="Vector_678" d="M402.155,314.56h-171.499v3.45h171.499z" fill="#5DB9E3"/>
<path id="Vector_679" d="M402.155,319.29h-171.499v3.45h171.499z" fill="#5DB9E3"/>
<path id="Vector_680" d="M402.155,324.02h-171.499v3.45h171.499z" fill="#5DB9E3"/>
<path id="Vector_681" d="M402.155,328.75h-171.499v3.45h171.499z" fill="#5DB9E3"/>
</g>
<g id="Group_7">
<g id="Group_8">
<path id="Vector_682" d="M234.109,257.18v9.33v65.68h117.545v-65.68h3.2v-9.33z" fill="#BDC3C7"/>
</g>
</g>
<g id="Group_9">
<path id="Vector_683" d="M348.201,263.05h-117.545v69.15h117.545z" fill="#ECF0F1"/>
</g>
<g id="Group_10">
<path id="Vector_684" d="M230.654,226.28h-181.638v105.91h181.638z" fill="#FF8282"/>
</g>
<g id="Group_11">
<path id="Vector_685" d="M230.654,226.28h-181.638v7.08h181.638z" fill="#FF4F4F"/>
<path id="Vector_686" d="M230.654,234.52h-181.638v7.08h181.638z" fill="#FF4F4F"/>
<path id="Vector_687" d="M230.654,242.76h-181.638v7.08h181.638z" fill="#FF4F4F"/>
<path id="Vector_688" d="M230.654,250.99h-181.638v7.08h181.638z" fill="#FF4F4F"/>
<path id="Vector_689" d="M230.654,259.23h-181.638v7.08h181.638z" fill="#FF4F4F"/>
<path id="Vector_690" d="M230.654,267.47h-181.638v7.07h181.638z" fill="#FF4F4F"/>
<path id="Vector_691" d="M230.654,275.7h-181.638v7.08h181.638z" fill="#FF4F4F"/>
<path id="Vector_692" d="M230.654,283.94h-181.638v7.08h181.638z" fill="#FF4F4F"/>
<path id="Vector_693" d="M230.654,292.17h-181.638v7.08h181.638z" fill="#FF4F4F"/>
<path id="Vector_694" d="M230.654,300.41h-181.638v7.08h181.638z" fill="#FF4F4F"/>
<path id="Vector_695" d="M230.654,308.64h-181.638v7.08h181.638z" fill="#FF4F4F"/>
<path id="Vector_696" d="M230.654,316.88h-181.638v7.08h181.638z" fill="#FF4F4F"/>
<path id="Vector_697" d="M230.654,325.12h-181.638v7.08h181.638z" fill="#FF4F4F"/>
</g>
<g id="Group_12">
<path id="Vector_698" d="M234.911,219.92h-190.145v6.36h190.145z" fill="#757575"/>
</g>
<g id="Group_13">
<g id="Group_14">
<path id="Vector_699" d="M71.324,253.52l3.884,-24.58l-4.335,-9.59l-2.521,1.14l3.994,8.84l-3.754,23.76z" fill="#BDC3C7"/>
</g>
</g>
<g id="Group_15">
<g id="Group_16">
<path id="Vector_700" d="M64.885,253.52l3.885,-24.58l-4.336,-9.59l-2.52,1.14l3.995,8.84l-3.756,23.76z" fill="#BDC3C7"/>
</g>
</g>
<g id="Group_17">
<path id="Vector_701" d="M234.911,219.39h-190.145v3.18h190.145z" fill="#616161"/>
</g>
<g id="Group_18">
<path id="Vector_702" d="M402.156,332.19h-357.39v4.39h357.39z" fill="#424242"/>
</g>
<g id="Group_19">
<path id="Vector_703" d="M230.656,305.92h-184.164v26.27h184.164z" fill="#616161"/>
</g>
<g id="Group_20">
<path id="Vector_704" d="M75.204,305.92h-28.712v26.27h28.712z" fill="#757575"/>
<path id="Vector_705" d="M106.29,305.92h-28.712v26.27h28.712z" fill="#757575"/>
<path id="Vector_706" d="M137.383,305.92h-28.711v26.27h28.711z" fill="#757575"/>
<path id="Vector_707" d="M168.469,305.92h-28.711v26.27h28.711z" fill="#757575"/>
<path id="Vector_708" d="M199.571,305.92h-28.712v26.27h28.712z" fill="#757575"/>
<path id="Vector_709" d="M230.657,305.92h-28.712v26.27h28.712z" fill="#757575"/>
</g>
<g id="Group_21">
<path id="Vector_710" d="M230.656,305.92h-184.164v4.65h184.164z" fill="#424242"/>
</g>
<g id="Group_22">
<path id="Vector_711" d="M230.658,305.57h-185.892v4.08h185.892z" fill="#757575"/>
</g>
<g id="Group_23">
<g id="Group_24">
<path id="Vector_712" d="M214.932,253.52l3.885,-24.58l-4.336,-9.59l-2.52,1.14l3.995,8.84l-3.756,23.76z" fill="#BDC3C7"/>
</g>
</g>
<g id="Group_25">
<g id="Group_26">
<path id="Vector_713" d="M208.495,253.52l3.883,-24.58l-4.335,-9.59l-2.52,1.14l3.994,8.84l-3.754,23.76z" fill="#BDC3C7"/>
</g>
</g>
<g id="Group_27">
<path id="Vector_714" d="M64.926,219.92h-3.293v34.08h3.293z" fill="#515151"/>
</g>
<g id="Group_28">
<path id="Vector_715" d="M64.926,229.43h-3.293v24.57h3.293z" fill="#424242"/>
</g>
<g id="Group_29">
<path id="Vector_716" d="M71.347,219.92h-3.292v34.08h3.292z" fill="#515151"/>
</g>
<g id="Group_30">
<path id="Vector_717" d="M71.347,229.43h-3.292v24.57h3.292z" fill="#424242"/>
</g>
<g id="Group_31">
<path id="Vector_718" d="M208.706,219.92h-3.292v34.08h3.292z" fill="#515151"/>
</g>
<g id="Group_32">
<path id="Vector_719" d="M215.121,219.92h-3.293v34.08h3.293z" fill="#515151"/>
</g>
<g id="Group_33">
<path id="Vector_720" d="M208.706,229.43h-3.292v24.57h3.292z" fill="#424242"/>
</g>
<g id="Group_34">
<path id="Vector_721" d="M215.121,229.43h-3.293v24.57h3.293z" fill="#424242"/>
</g>
<g id="Group_35">
<path id="Vector_722" d="M236.633,211.69h-193.602v8.23h193.602z" fill="#424242"/>
</g>
<g id="Group_36">
<g id="Group_37">
<path id="Vector_723" d="M184.774,241.09h-89.196v48.64h89.196z" fill="#424242"/>
</g>
<g id="Group_38">
<path id="Vector_724" d="M182.703,243.16h-85.047v44.49h85.047z" fill="#ECF0F1"/>
</g>
<g id="Group_39">
<g id="Group_40">
<path id="Vector_725" d="M103.823,236.3h-13.721v13.72h13.721z" fill="#424242"/>
</g>
<g id="Group_41">
<path id="Vector_726" d="M101.749,238.38h-9.569v9.57h9.569z" fill="#ECF0F1"/>
</g>
</g>
<g id="Group_42">
<g id="Group_43">
<path id="Vector_727" d="M189.566,280.8h-13.722v13.72h13.722z" fill="#424242"/>
</g>
<g id="Group_44">
<path id="Vector_728" d="M187.483,282.87h-9.569v9.58h9.569z" fill="#ECF0F1"/>
</g>
</g>
</g>
<g id="Group_45">
<g id="Group_46">
<path id="Vector_729" d="M132.705,243.16l-35.049,35.05v-17.22l17.826,-17.83z" fill="white"/>
</g>
<g id="Group_47">
<path id="Vector_730" d="M163.836,243.16l-44.494,44.5h-11.389l44.495,-44.5z" fill="white"/>
</g>
<g id="Group_48">
<path id="Vector_731" d="M182.708,250.28v5.69l-31.689,31.69h-5.691z" fill="white"/>
</g>
<g id="Group_49">
<path id="Vector_732" d="M182.703,259.26v5.7l-22.7,22.7h-5.691z" fill="white"/>
</g>
<g id="Group_50">
<path id="Vector_733" d="M101.749,238.38v0.65l-8.919,8.92h-0.65v-5.04l4.529,-4.53z" fill="white"/>
</g>
<g id="Group_51">
<path id="Vector_734" d="M187.489,283.22v5.69l-3.533,3.54h-5.69z" fill="white"/>
</g>
</g>
<g id="Group_52">
<g id="Group_53">
<g id="Group_54">
<path id="Vector_735" d="M110.254,260.79c1.876,0 3.907,1.03 4.256,3.45c-0.789,0 -1.488,0 -2.277,0c-0.323,-0.92 -1.008,-1.34 -1.979,-1.34c-1.359,0 -2.25,1.03 -2.25,2.53c0,1.33 0.879,2.49 2.25,2.51c0.983,0 1.772,-0.5 2.018,-1.46c0.776,0 1.488,0 2.277,0c-0.336,2.56 -2.368,3.57 -4.295,3.57c-2.303,0.01 -4.631,-1.54 -4.645,-4.62c0.014,-3.08 2.342,-4.64 4.645,-4.64z" fill="#424242"/>
</g>
<g id="Group_55">
<path id="Vector_736" d="M120.156,267.92c0,0.76 0,1.24 0,2.03c-1.54,0 -3.053,0 -4.594,0c0,-0.79 0,-1.27 0,-2.03h1.152v-5.01h-1.061c0,-0.77 0,-1.25 0,-2.01c1.475,0 2.938,0 4.412,0c0,0.76 0,1.24 0,2.01h-1.061v5.01z" fill="#424242"/>
</g>
<g id="Group_56">
<path id="Vector_737" d="M120.984,262.97c0,-0.7 0,-1.39 0,-2.07h6.728c0,0.68 0,1.37 0,2.07h-2.212v6.98c-0.763,0 -1.527,0 -2.29,0v-6.98z" fill="#424242"/>
</g>
<g id="Group_57">
<path id="Vector_738" d="M133.745,269.95h-2.29v-3.8l-3.041,-4.9v-0.35h2.497l1.642,3.01h0.091l1.644,-3.01h2.509v0.35l-3.052,4.9z" fill="#424242"/>
</g>
<g id="Group_58">
<path id="Vector_739" d="M149.608,260.87h0.828v9.08c-0.789,0 -1.578,0 -2.367,0v-4.04l-1.928,2.02h-0.259l-1.914,-2.02v4.04c-0.789,0 -1.578,0 -2.366,0v-9.08h0.853l3.545,3.93z" fill="#424242"/>
</g>
<g id="Group_59">
<path id="Vector_740" d="M157.966,268.81h-3.57l-0.531,1.14h-2.263v-0.33l4.074,-8.84h0.996l4.088,8.84v0.33h-2.263zM156.168,264.44l-1.009,2.38h2.045z" fill="#424242"/>
</g>
<g id="Group_60">
<path id="Vector_741" d="M164.274,267.87h3.286c0,0.78 0,1.31 0,2.08c-1.863,0 -3.778,0 -5.615,0v-9.05c0.776,0 1.54,0 2.329,0c0,4.68 0,3.11 0,6.97z" fill="#424242"/>
</g>
<g id="Group_61">
<path id="Vector_742" d="M171.461,267.87h3.286c0,0.78 0,1.31 0,2.08c-1.863,0 -3.778,0 -5.614,0v-9.05c0.776,0 1.539,0 2.328,0c0,4.68 0,3.11 0,6.97z" fill="#424242"/>
</g>
</g>
<g id="Group_62">
<g id="Group_63">
<path id="Vector_743" d="M132.015,276.2h-26.406v2.45h26.406z" fill="#424242"/>
</g>
</g>
<g id="Group_64">
<g id="Group_65">
<path id="Vector_744" d="M174.75,252.17h-26.406v2.45h26.406z" fill="#424242"/>
</g>
</g>
</g>
<g id="Group_66">
<path id="Vector_745" d="M351.4,253.72h-120.744v9.33h120.744z" fill="#424242"/>
</g>
<g id="Group_67">
<path id="Vector_746" d="M402.155,234.75h-171.499v4.16h171.499z" fill="#424242"/>
</g>
<g id="Group_68">
<g id="Group_69">
<path id="Vector_747" d="M348.201,293.74h-117.545v1.64h117.545z" fill="#CFCFCF"/>
</g>
<g id="Group_70">
<g id="Group_71">
<path id="Vector_748" d="M246.552,311.1h-12.286v21.02h12.286z" fill="#CFCFCF"/>
<path id="Vector_749" d="M245.748,311.68h-10.678v5.85h10.678z" fill="#ECF0F1"/>
<path id="Vector_750" d="M245.748,318.11h-10.678v5.85h10.678z" fill="#ECF0F1"/>
<path id="Vector_751" d="M245.748,324.42h-10.678v5.86h10.678z" fill="#ECF0F1"/>
<path id="Vector_752" d="M245.044,314.54h-6.38v3.05h6.38z" fill="#CFCFCF"/>
<path id="Vector_753" d="M245.041,326.04h-4.916v4.43h4.916z" fill="#CFCFCF"/>
</g>
<path id="Vector_754" d="M313.648,330.67l-1.554,1.21h5.741l-1.554,-1.21c-0.315,-0.27 -0.688,-0.42 -1.072,-0.46v-7.72h0.645c1.318,0 2.174,-1.39 1.58,-2.57l-0.603,-1.19c-0.565,-1.51 -0.467,-2.63 0.27,-4.06l0.18,-0.35c0.449,-0.87 0.525,-1.96 -0.435,-2.16c-0.106,-0.02 -0.774,-0.04 -0.887,-0.04c-0.215,0 -0.321,-0.18 -0.379,-0.41c-0.057,-0.21 -0.071,-0.46 -0.101,-0.61h-1.077c-0.064,0.31 -0.024,1.02 -0.48,1.02c-0.037,0 -0.631,0 -0.668,0.01c-1.079,0.07 -1.135,1.28 -0.618,2.22l0.12,0.23c0.796,1.46 0.914,2.64 0.323,4.19l-0.582,1.14c-0.6,1.18 0.256,2.58 1.577,2.58h0.645v7.71c-0.382,0.05 -0.757,0.2 -1.071,0.47z" fill="#CFCFCF"/>
<path id="Vector_755" d="M317.237,289.6v-4.13h-8.002h-0.342v4.13h-0.69v4.1h0.342h10.962v-4.03v-0.07z" fill="#CFCFCF"/>
<g id="Group_72">
<path id="Vector_756" d="M260.59,315.34v-0.44h-0.519v0.44h-0.757v-0.44h-0.519v0.44h-0.373v0.75v1.02v0.2c0,0.7 0.568,1.27 1.27,1.27c0.023,0 0.045,0 0.068,-0.01h0.001c0.67,-0.03 1.202,-0.59 1.202,-1.26v-0.2v-1.02v-0.76h-0.373z" fill="#CFCFCF"/>
<path id="Vector_757" d="M254.394,315.34v-0.44h-0.518v0.44h-0.758v-0.44h-0.518v0.44h-0.373v0.75v1.02v0.2c0,0.7 0.568,1.27 1.27,1.27c0.022,0 0.045,0 0.068,-0.01c0.67,-0.03 1.202,-0.59 1.202,-1.26v-0.2v-1.02v-0.76h-0.373z" fill="#CFCFCF"/>
<path id="Vector_758" d="M257.488,315.34v-0.44h-0.518v0.44h-0.758v-0.44h-0.518v0.44h-0.374v0.75v1.02v0.2c0,0.7 0.569,1.27 1.27,1.27c0.023,0 0.046,0 0.069,-0.01c0.67,-0.03 1.201,-0.59 1.201,-1.26v-0.2v-1.02v-0.76h-0.372z" fill="#CFCFCF"/>
</g>
<path id="Vector_759" d="M248.36,283.94h-13.11v0.49h0.242v9.95h0.485v-7.69h11.657v7.69h0.484v-9.95h0.242z" fill="#CFCFCF"/>
<path id="Vector_760" d="M268.193,283.62c-0.581,0 -1.069,0.7 -1.183,1.64h-0.322v0.48h0.295v0.25v0.05v1.74v3.35v2.81h2.421v-2.81v-3.35v-1.74v-0.05v-0.31c0,-1.14 -0.544,-2.06 -1.211,-2.06z" fill="#CFCFCF"/>
<path id="Vector_761" d="M339.999,270.42h-9.108v23.51h9.108z" fill="#CFCFCF"/>
<g id="Group_73">
<g id="Group_74">
<path id="Vector_762" d="M345.237,318.16h-16.846v14.04h16.846z" fill="#CFCFCF"/>
<path id="Vector_763" d="M344.693,318.54h-15.771v3.91h15.771z" fill="#ECF0F1"/>
<path id="Vector_764" d="M344.693,322.84h-15.771v3.91h15.771z" fill="#ECF0F1"/>
<path id="Vector_765" d="M344.693,327.06h-15.771v3.91h15.771z" fill="#ECF0F1"/>
</g>
<path id="Vector_766" d="M343.857,320.12h-6.138v2.33h6.138z" fill="#CFCFCF"/>
<path id="Vector_767" d="M336.631,324.5h-6.139v2.34h6.139z" fill="#CFCFCF"/>
<path id="Vector_768" d="M343.852,325.18h-4.368v1.66h4.368z" fill="#CFCFCF"/>
<path id="Vector_769" d="M340.86,329.31h-4.368v1.66h4.368z" fill="#CFCFCF"/>
<path id="Vector_770" d="M343.786,323.6h-3.45v1.32h3.45z" fill="#CFCFCF"/>
<path id="Vector_771" d="M333.556,321.19c0,0.7 -0.569,1.27 -1.27,1.27c-0.702,0 -1.27,-0.57 -1.27,-1.27c0,-0.7 0.568,-1.27 1.27,-1.27c0.701,0 1.27,0.57 1.27,1.27z" fill="#CFCFCF"/>
</g>
</g>
</g>
<g id="Group_75" opacity="0.3">
<g id="Group_76">
<path id="Vector_772" d="M287.361,263.05l-56.705,56.71v-5.69l51.014,-51.02z" fill="white"/>
</g>
<g id="Group_77">
<path id="Vector_773" d="M348.195,306.69v4.91l-20.591,20.6h-4.916z" fill="white"/>
</g>
<g id="Group_78">
<path id="Vector_774" d="M294.67,263.05l-64.014,64.02v-3.03l60.986,-60.99z" fill="white"/>
</g>
<g id="Group_79">
<path id="Vector_775" d="M348.196,263.52v18.44l-50.232,50.24h-18.448z" fill="white"/>
</g>
<g id="Group_80">
<path id="Vector_776" d="M326.378,263.05l-69.143,69.15h-10.282l69.144,-69.15z" fill="white"/>
</g>
<g id="Group_81">
<path id="Vector_777" d="M256.385,263.05l-25.729,25.73v-10.28l15.447,-15.45z" fill="white"/>
</g>
</g>
<g id="Group_82">
<path id="Vector_778" d="M307.265,263.05h-2.765v69.14h2.765z" fill="#424242"/>
</g>
<g id="Group_83">
<path id="Vector_779" d="M289.778,263.05h-0.692v69.14h0.692z" fill="#424242"/>
</g>
<g id="Group_84">
<g id="Group_85">
<path id="Vector_780" d="M348.201,290.31h-117.545v0.69h117.545z" fill="#424242"/>
</g>
<g id="Group_86">
<path id="Vector_781" d="M348.201,276.79h-117.545v0.69h117.545z" fill="#424242"/>
</g>
</g>
<g id="Group_87">
<path id="Vector_782" d="M348.201,319.5h-117.545v0.69h117.545z" fill="#424242"/>
</g>
<g id="Group_88">
<path id="Vector_783" d="M274.351,263.05h-2.765v69.14h2.765z" fill="#424242"/>
</g>
<g id="Group_89">
<path id="Vector_784" d="M348.201,303.16h-117.545v2.76h117.545z" fill="#424242"/>
</g>
<g id="Group_90">
<g id="Group_91">
<g id="Group_92">
<path id="Vector_785" d="M244.614,263.05h-0.692v69.14h0.692z" fill="#424242"/>
</g>
<g id="Group_93">
<path id="Vector_786" d="M258.739,263.05h-0.692v69.14h0.692z" fill="#424242"/>
</g>
</g>
<g id="Group_94">
<g id="Group_95">
<path id="Vector_787" d="M320.809,263.05h-0.692v69.14h0.692z" fill="#424242"/>
</g>
<g id="Group_96">
<path id="Vector_788" d="M334.926,263.05h-0.692v69.14h0.692z" fill="#424242"/>
</g>
</g>
</g>
<g id="Group_97">
<g id="Group_98">
<path id="Vector_789" d="M287.172,316.74h-1.383v6.91h1.383z" fill="#424242"/>
</g>
<g id="Group_99">
<path id="Vector_790" d="M293.047,316.74h-1.383v6.91h1.383z" fill="#424242"/>
</g>
</g>
<g id="Group_100">
<g id="Group_101">
<path id="Vector_791" d="M232.053,238.91h-1.397v97.68h1.397z" fill="#BDC3C7"/>
</g>
</g>
</g>
</g></svg>