<svg viewBox="0 0 428.8728 363.0001" x="0" y="0" fill="none" xmlns="http://www.w3.org/2000/svg"><g id="Group 923" xmlns="http://www.w3.org/2000/svg">
<path id="Vector_427" fill-rule="evenodd" clip-rule="evenodd" d="M209.61,330.9c-107.07,0 -193.87,3.53 -193.87,7.9c0,4.36 86.8,7.9 193.87,7.9c107.07,0 193.86,-3.54 193.86,-7.9c0,-4.37 -86.79,-7.9 -193.86,-7.9z" fill="#F0F3F8"/>
<path id="Vector_428" d="M217.28,0.5c12.39,0 21.33,5.46 28.35,14.12c7.05,8.68 12.16,20.56 16.85,33.35c4.69,12.76 8.96,26.44 14.32,38.6c5.37,12.16 11.86,22.88 21.04,29.73c12.08,9.01 26.33,14.64 40.86,18.98c7.27,2.17 14.61,4.03 21.8,5.82c7.2,1.79 14.23,3.52 20.89,5.45c13.32,3.86 25.07,8.5 33.48,15.97c8.39,7.44 13.5,17.72 13.5,32.97c0,53.78 -26.69,90.39 -67.97,113.59c-41.31,23.22 -97.24,32.99 -155.63,32.99c-58.36,0 -112.38,-14.95 -147.45,-43.29c-17.53,-14.16 -30.31,-31.66 -36.56,-52.3c-6.25,-20.65 -5.97,-44.48 2.71,-71.32c17.39,-53.82 36.72,-97.48 66.25,-127.69c29.5,-30.18 69.23,-46.97 127.56,-46.97z" fill="#FFCACA" stroke="#B8B8B8"/>
<path id="Vector_429" fill-rule="evenodd" clip-rule="evenodd" d="M253.62,347.2c-90.13,0 -163.19,3.54 -163.19,7.9c0,4.36 73.06,7.9 163.19,7.9c90.13,0 163.19,-3.54 163.19,-7.9c0,-4.36 -73.06,-7.9 -163.19,-7.9z" fill="#F0F3F8"/>
<path id="Vector_430" fill-rule="evenodd" clip-rule="evenodd" d="M264.7,52.66l-264.7,96.9l0.16,12.23l270.93,-91.01c-3.19,-8.41 -3.46,-9.79 -6.39,-18.12z" fill="#F0DCDC"/>
<path id="Vector_431" fill-rule="evenodd" clip-rule="evenodd" d="M370.86,143.19l-36.49,5.23l-98.09,-27.99l-134.75,38.28l94.96,12.08l-39.34,7.54l-156.99,-16.54l270.93,-91.01c10.03,26.41 7.58,27.79 27.05,45.12c19.48,17.33 48.37,21.04 72.72,27.29z" fill="#E9CCCC"/>
<path id="Vector_432" fill-rule="evenodd" clip-rule="evenodd" d="M197.19,157.04v13.61l-95.68,-11.94l39.92,-11.34z" fill="#DBABAB"/>
<path id="Vector_433" fill-rule="evenodd" clip-rule="evenodd" d="M197.52,157.09l-9.17,-1.58l-46.91,-8.14l94.83,-26.94l51.18,14.6z" fill="#E5C1C1"/>
<path id="Vector_434" fill-rule="evenodd" clip-rule="evenodd" d="M367.23,143.7l3.63,-0.51c24.63,6.31 46.08,13.44 54.37,32.69v52.27c-8.05,34.07 -28.97,59.41 -58,77.46z" fill="#FFCACA"/>
<path id="Vector_435" fill-rule="evenodd" clip-rule="evenodd" d="M311.18,141.79l23.21,6.63l34.78,-4.99v160.97c-3.97,2.55 -8.1,4.96 -12.38,7.24l-45.61,-5.89v-163.96z" fill="#FFCACA"/>
<path id="Vector_436" fill-rule="evenodd" clip-rule="evenodd" d="M255.06,142.98l32.39,-7.95l25.63,7.31v76.48v87.18l-58.02,-7.5v-79.68z" fill="#F4E5E5"/>
<path id="Vector_437" fill-rule="evenodd" clip-rule="evenodd" d="M199,156.74l57.99,-14.24v76.32v79.93l-57.99,-7.49v-72.44z" fill="#FFCACA"/>
<path id="Vector_438" fill-rule="evenodd" clip-rule="evenodd" d="M197.04,170.56l0.49,-13.47l3.39,-0.83v62.56v72.68l-44.56,-5.75l0.8,-107.43l39.88,-7.64l0.33,-0.08z" fill="#FFCACA"/>
<path id="Vector_439" fill-rule="evenodd" clip-rule="evenodd" d="M425.65,188.88l0.96,-0.07c0.37,5.64 -0.13,24.78 -0.44,35.03c-0.44,2.22 -0.95,4.39 -1.5,6.54l-137.22,-7.73l0.42,-24.14c51.49,-4.31 79.47,-5.99 137.78,-9.63z" fill="#E9CCCC"/>
<path id="Vector_440" fill-rule="evenodd" clip-rule="evenodd" d="M425.7,189.58l0.25,-0.01c0.32,7.31 -0.34,30.01 -0.6,38.02c0.64,-2.74 1.2,-5.54 1.66,-8.39c0.3,-10.6 0.63,-25.54 0.31,-30.43l-0.04,-0.71l-0.7,0.05l-0.97,0.06l-9.76,0.61c-51.89,3.24 -79.56,4.96 -128.04,9.02l-0.64,0.06l-0.01,0.64l-0.41,24.14l-0.02,0.68l0.68,0.03l137.08,7.73l0.36,-1.39l-136.68,-7.7l0.39,-22.83c48.18,-4.02 75.8,-5.75 127.37,-8.96l9.76,-0.62z" fill="#E9CCCC"/>
<path id="Vector_441" fill-rule="evenodd" clip-rule="evenodd" d="M289.52,221.92c-0.05,-1.74 -0.09,-3.49 -0.12,-5.23c-0.02,-1.74 -0.05,-3.46 -0.04,-5.2c0.01,-1.73 0,-3.46 0.04,-5.18c0.04,-1.72 0.12,-3.46 0.22,-5.2c1.99,-0.22 3.99,-0.44 6,-0.68c-0.14,1.46 -0.21,2.9 -0.25,4.33c-0.03,1.42 -0.05,2.85 -0.05,4.28c3.87,-0.16 7.76,-0.32 11.63,-0.46c0.03,-1.57 0.02,-3.13 0.05,-4.71c0.04,-1.57 0.1,-3.14 0.21,-4.72c1.98,-0.21 3.96,-0.43 5.94,-0.64c-0.06,2.08 -0.11,4.17 -0.16,6.25c-0.04,2.08 -0.06,4.16 -0.06,6.24c0,2.08 -0.07,4.19 -0.06,6.27c0.01,2.08 0.04,4.18 0.03,6.27c-1.97,-0.13 -3.95,-0.26 -5.93,-0.4c-0.02,-1.76 -0.05,-3.52 -0.05,-5.27c0,-1.75 0.02,-3.49 0,-5.23c-3.86,0.03 -7.73,0.06 -11.59,0.1c0,1.6 0.04,3.2 0.04,4.79c0.01,1.6 0.05,3.21 0.08,4.81c-1.95,-0.14 -3.94,-0.28 -5.93,-0.43zM317.88,211.06c0.02,-2.61 0.48,-4.85 1.41,-6.71c0.72,-1.41 1.67,-2.7 2.81,-3.8c1.13,-1.13 2.44,-2.06 3.87,-2.76c2.01,-0.93 4.17,-1.51 6.38,-1.7c4.34,-0.4 7.82,0.63 10.37,3.15c1.28,1.27 2.24,2.88 2.87,4.75c0.62,1.87 0.93,4.09 0.9,6.55c0,2.22 -0.37,4.43 -1.08,6.54c-0.61,1.8 -1.63,3.45 -2.97,4.8c-2.61,2.59 -6.06,3.7 -10.36,3.43c-4.34,-0.28 -7.82,-1.76 -10.41,-4.33c-1.27,-1.22 -2.25,-2.7 -2.88,-4.35c-0.64,-1.78 -0.95,-3.67 -0.91,-5.56zM323.99,210.79c-0.03,3.05 0.74,5.36 2.26,7c1.53,1.64 3.47,2.54 5.84,2.63c2.37,0.08 4.32,-0.68 5.88,-2.32c0.78,-0.82 1.33,-1.88 1.74,-3.15c0.4,-1.27 0.61,-2.78 0.64,-4.48c0.06,-3.36 -0.67,-5.85 -2.15,-7.43c-1.45,-1.55 -3.42,-2.24 -5.85,-2.08c-2.47,0.17 -4.49,1.11 -6.02,2.76c-1.51,1.62 -2.31,3.98 -2.34,7.07zM357.46,226.28c0.07,-2.2 0.1,-4.4 0.15,-6.6c0.05,-2.2 0.09,-4.39 0.12,-6.59c0.04,-2.2 0.05,-4.39 0.1,-6.58c0.05,-2.19 0.04,-4.4 0.07,-6.59c-2.92,0.13 -5.84,0.27 -8.73,0.43c0.03,-1.72 0.05,-3.44 0.07,-5.15c7.78,-0.56 15.56,-1.05 23.36,-1.45c0.02,1.87 0.02,3.75 0,5.61c-2.91,0.09 -5.8,0.2 -8.72,0.31c-0.03,2.24 -0.03,4.48 -0.07,6.74c-0.05,2.25 -0.09,4.48 -0.14,6.72c-0.04,2.24 -0.06,4.49 -0.12,6.73c-0.06,2.24 -0.09,4.48 -0.15,6.72c-1.97,-0.1 -3.98,-0.2 -5.93,-0.31zM375.89,227.19c0.09,-2.8 0.15,-5.61 0.23,-8.4c0.08,-2.8 0.12,-5.6 0.19,-8.42c0.06,-2.81 0.1,-5.6 0.14,-8.4c0.05,-2.8 0.04,-5.59 0.02,-8.39c7.25,-0.27 14.53,-0.49 21.82,-0.64c0.02,1.98 0.03,3.95 0.02,5.93c-5.3,0.04 -10.61,0.12 -15.87,0.23c-0.03,2.52 -0.07,5.04 -0.12,7.57c4.9,-0.01 9.81,-0.01 14.74,0c-0.03,1.97 -0.08,3.95 -0.12,5.93c-4.93,-0.06 -9.83,-0.11 -14.73,-0.16c-0.04,1.55 -0.07,3.11 -0.11,4.63c-0.03,1.52 -0.06,3.09 -0.11,4.61l16.36,0.47c-0.03,1.98 -0.13,3.95 -0.2,5.94c-7.43,-0.28 -14.84,-0.57 -22.25,-0.89zM403.4,228.26c0.05,-2.93 0.17,-5.86 0.27,-8.77c0.1,-2.92 0.16,-5.86 0.23,-8.78c0.07,-2.93 0.14,-5.85 0.18,-8.77c0.04,-2.93 0.05,-5.86 0.03,-8.77c1.95,-0.01 3.94,-0.01 5.93,-0.02c0.02,2.43 0.02,4.87 0.01,7.3c-0.01,2.44 -0.08,4.89 -0.14,7.33c-0.05,2.43 -0.09,4.89 -0.16,7.33c-0.07,2.45 -0.13,4.88 -0.22,7.31c4.92,0.11 9.84,0.21 14.79,0.29c-0.07,2.01 -0.16,4.03 -0.23,6.03c-6.93,-0.11 -13.84,-0.29 -20.69,-0.48z" fill="white"/>
<path id="Vector_442" fill-rule="evenodd" clip-rule="evenodd" d="M280.08,206.36c2.32,-3.4 -2.71,-4.28 -2.65,-8c0.03,-2.56 -1.58,-5.24 -1.1,-7.8c0.99,-5.25 -1.06,-6.84 -1.07,-7.24c-0.12,-3.97 -2.5,-4.07 -4.86,-5.41c-4.2,-2.38 -7.85,0.53 -9.04,0.61c-6.07,0.39 -2.71,3 -5.43,5.35c-2.24,1.94 -1.18,3.41 -0.95,4.57c0.11,0.52 0.59,2.68 -0.96,3.77c-2.27,1.61 0.06,5.88 -1.28,6.28c-5.15,1.57 -3.08,2.21 -2.94,5.81c0.05,1.16 1.16,2.03 1.88,2.88c8.88,-2.79 14.99,8.26 28.4,-0.82z" fill="#404040"/>
<path id="Vector_443" fill-rule="evenodd" clip-rule="evenodd" d="M272.18,201.58c-0.26,-0.61 -0.96,-0.99 -1.2,-1.18c-2.57,1.39 -5.3,2.24 -8.15,2.27c0.13,1.74 0.35,3.47 0.67,5.18c4.72,-3.68 7.61,-5.77 8.68,-6.27z" fill="white"/>
<path id="Vector_444" fill-rule="evenodd" clip-rule="evenodd" d="M260.8,201.37c-0.64,1.31 -1.11,2.69 -1.41,4.11c0.75,-1.34 1.59,-2.17 3.44,-2.81c-0.59,-0.62 -0.54,-1.43 -0.78,-2.08c-0.67,0.4 -1.08,0.67 -1.25,0.78z" fill="white"/>
<path id="Vector_445" fill-rule="evenodd" clip-rule="evenodd" d="M258.78,201.38c-7.13,18.14 -1.12,16.73 14.33,0.4c0.85,0.2 1.69,0.46 2.49,0.8c-2.01,1.86 -2.76,4.96 -2.25,9.31c0.3,3.36 0.64,6.64 1,9.82c-0.87,1.95 -1.34,4.06 -1.4,6.2c-0.07,1.92 0.15,3.95 0.61,6.19c0.73,3.5 2.07,7.49 3.86,12.26c-10.82,3.68 -20.08,3.72 -27.78,0.12c4.47,-9.82 3.87,-12.86 3.36,-19.43c-0.5,-10.67 -7,-7.32 3.8,-25.26c0.65,-0.2 1.31,-0.34 1.98,-0.41z" fill="#3B3B3B"/>
<path id="Vector_446" fill-rule="evenodd" clip-rule="evenodd" d="M262.84,202.67c0.12,1.74 0.35,3.47 0.67,5.18c4.72,-3.67 7.61,-5.76 8.68,-6.27c0.32,0.06 0.63,0.13 0.93,0.2c-15.45,16.32 -21.47,17.74 -14.33,-0.4c0.67,-0.05 1.34,-0.05 2.02,-0.01c-0.64,1.31 -1.12,2.69 -1.42,4.11c0.75,-1.35 1.59,-2.17 3.45,-2.81z" fill="#EC6767"/>
<path id="Vector_447" fill-rule="evenodd" clip-rule="evenodd" d="M266.88,228.08c2.93,0.01 5.67,-0.1 8.22,-0.34c-0.66,-5.03 -1.24,-10.32 -1.74,-15.86c-0.51,-4.35 0.24,-7.45 2.25,-9.31c2.66,1.13 4.36,2.89 5.09,5.29c1.58,5.09 1.39,24.07 -0.33,25.79c-2.17,0.95 -6.75,0.75 -13.75,-0.59c0.49,-1.42 0.57,-3.09 0.26,-4.98z" fill="#EE6969"/>
<path id="Vector_448" fill-rule="evenodd" clip-rule="evenodd" d="M265.1,228.79c0.4,0.04 1.02,0.08 1.88,0.12c0.15,1.14 0.09,2.3 -0.16,3.42c-0.74,-0.14 -1.69,-0.34 -2.85,-0.6c-2.04,0.53 -4.51,0.5 -7.39,-0.08c-2,-0.77 -2.61,-2.18 -1.83,-4.23c3.14,0.36 5.01,0.24 5.63,-0.36c-1.09,-0.55 -1.48,-1.2 -1.16,-1.93c3.08,1.13 5.04,2.35 5.88,3.66z" fill="#FFB27D"/>
<path id="Vector_449" fill-rule="evenodd" clip-rule="evenodd" d="M254.46,223.12l-21.92,-3.32l4.73,9.46l21.98,3.45l-0.35,-0.7c-0.74,-0.08 -1.51,-0.2 -2.31,-0.36c-2.01,-0.77 -2.62,-2.18 -1.83,-4.23c0.71,0.08 1.35,0.14 1.94,0.17z" fill="#FEAEA1"/>
<path id="Vector_450" fill-rule="evenodd" clip-rule="evenodd" d="M254.76,225.6l0.96,1.92c-0.31,-0.03 -0.64,-0.07 -0.96,-0.11c-0.68,1.79 -0.31,3.09 1.11,3.9l-18.03,-2.82l-1.84,-3.68c8.59,2.98 10.2,2.84 18.76,0.79z" fill="#FF957B"/>
<path id="Vector_451" fill-rule="evenodd" clip-rule="evenodd" d="M261.68,232.08l-2.43,0.63l-0.35,-0.7c0.92,0.1 1.85,0.12 2.78,0.07z" fill="#FF957B"/>
<path id="Vector_452" fill-rule="evenodd" clip-rule="evenodd" d="M259.24,232.71l2.44,-0.63c0.77,-0.04 1.54,-0.16 2.3,-0.35c0.77,0.18 1.45,0.32 2.04,0.44l-6.07,2l-5.99,-1.02l-16.73,-2.85l0.04,-1.04l16.05,2.52z" fill="#FF8C72"/>
<path id="Vector_453" fill-rule="evenodd" clip-rule="evenodd" d="M249.12,222.31c0.86,-0.82 1.59,-1.77 2.16,-2.82c0.34,0.96 0.76,2 1.1,3.31z" fill="#699DEE"/>
<path id="Vector_454" fill-rule="evenodd" clip-rule="evenodd" d="M256.81,201.79c-2.54,4.21 -4.12,7.25 -5.05,9.57c-0.92,-7.2 0.39,-8.82 5.05,-9.57z" fill="#EE6969"/>
<path id="Vector_455" fill-rule="evenodd" clip-rule="evenodd" d="M275.72,246.91c2.55,5.27 3.27,16.72 2.15,34.36c-14.02,1.9 -24.13,1.7 -30.32,-0.58c0.51,-16.11 1.64,-27.33 3.41,-33.64c7.02,2.84 15.27,2.79 24.76,-0.14z" fill="#2C2C2C"/>
<path id="Vector_456" fill-rule="evenodd" clip-rule="evenodd" d="M270.98,200.4c-2.57,1.39 -5.3,2.24 -8.15,2.27c-0.53,-0.55 -0.55,-1.24 -0.71,-1.85l-0.03,-0.1c0.44,-0.59 0.73,-1.04 0.47,-2.08c0,-0.01 -0.01,-0.03 -0.01,-0.04c-3.1,-1.04 -5.02,-6.25 -3.76,-9.3c-0.07,-1.03 -0.16,-2.09 -0.3,-3.19c4.59,1.33 7.47,1.26 10.82,-1.1c0.59,1.53 0.88,2.4 0.53,4.01c-0.08,0.56 -0.36,1.75 0.39,1.86c0.34,-1.94 1.04,-3.01 2.35,-2.55c1.16,1.87 0.47,4.21 -2.33,4.7c-0.82,1.69 -1.17,2.85 -1.06,3.48c-0.09,1.05 0.84,2.48 1.53,3.52c0.09,0.12 0.18,0.25 0.26,0.37z" fill="#FFB27D"/>
<path id="Vector_457" fill-rule="evenodd" clip-rule="evenodd" d="M262.54,198.53c1.87,0.21 2.72,0.2 4.45,-0.49c-1.01,1.09 -2.59,1.74 -4.41,1.85c0.1,-0.45 0.08,-0.92 -0.04,-1.36z" fill="#F08261"/>
<path id="Vector_458" fill-rule="evenodd" clip-rule="evenodd" d="M249.67,296.98c-0.36,-4.97 -0.58,-10.24 -0.64,-15.81c3.08,0.9 6.98,1.36 11.69,1.39c-1.13,4.77 -2.85,9.99 -3.74,15.14c4.75,12.88 -1.79,23.53 -0.86,31.95c-1.3,2.06 -3.44,6.73 -6.69,8.44c-1.08,-0.28 -0.27,-1.26 -0.63,-1.82c1.67,-1.74 2.72,-4.46 3.14,-8.16c0.39,-8.82 -0.37,-19.19 -2.27,-31.13z" fill="#FFB27D"/>
<path id="Vector_459" fill-rule="evenodd" clip-rule="evenodd" d="M267.32,295.14c-0.98,-4.08 -2.76,-8.18 -4.05,-12.61c3.46,-0.08 7.31,-0.38 11.55,-0.88c-0.07,4.18 -0.13,8.55 -0.16,13.09c6.65,11.76 2.19,25.5 3.97,31.41c-1.3,3.07 -1.64,6.92 -4.52,9.19c-1.06,-0.08 -0.51,-1.12 -0.92,-1.6c0.91,-2.04 1.41,-4.62 1.49,-7.73c-1.02,-8.87 -3.47,-19.16 -7.36,-30.87z" fill="#FFB27D"/>
<path id="Vector_460" fill-rule="evenodd" clip-rule="evenodd" d="M247.74,335.88c2.28,0.12 0.2,1.83 1.68,2.21c3.25,-1.71 5.04,-6.38 6.34,-8.44c0.68,-1.09 1.17,0.29 1.5,1.84c0.54,2.46 -0.13,1.6 -0.44,3.57c-0.07,0.48 0.56,3.12 0.66,4.59c0.02,0.16 0,0.33 -0.06,0.49c-0.06,0.15 -0.15,0.29 -0.27,0.41c-0.59,-1 -1.1,-4.07 -1.64,-5.95c-3.18,2.74 -2.49,5.75 -4.38,6.78c-4.52,0.48 -6.97,0.6 -10.4,0.68c-0.76,-2.83 5.22,-1.87 7.01,-6.18z" fill="#0C326D"/>
<path id="Vector_461" fill-rule="evenodd" clip-rule="evenodd" d="M272.1,333.51c2.2,-0.28 0.53,1.71 2.01,1.83c2.79,-2.19 3.65,-6.96 4.51,-9.15c0.45,-1.15 1.17,0.08 1.78,1.5c0.96,2.26 0.16,1.56 0.23,3.48c0.01,0.48 1.1,2.89 1.47,4.28c0.04,0.15 0.05,0.32 0.02,0.48c-0.03,0.15 -0.09,0.3 -0.18,0.44c-0.75,-0.86 -1.8,-3.7 -2.66,-5.41c-2.54,3.16 -1.32,5.93 -2.94,7.22c-4.23,1.24 -6.55,1.76 -9.82,2.43c-1.23,-2.56 4.65,-2.68 5.58,-7.1z" fill="#0C326D"/>
<path id="Vector_462" fill-rule="evenodd" clip-rule="evenodd" d="M265.17,190.82c0.42,0.06 0.95,-1.58 -0.08,-1.71c-0.55,-0.06 -0.61,1.62 0.08,1.71z" fill="#404040"/>
<path id="Vector_463" fill-rule="evenodd" clip-rule="evenodd" d="M259.8,190.27c-0.42,-0.06 -0.56,-1.77 0.47,-1.64c0.55,0.06 0.23,1.72 -0.47,1.64z" fill="#404040"/>
<path id="Vector_464" fill-rule="evenodd" clip-rule="evenodd" d="M264.91,187.59c-0.69,-0.06 -0.74,0.51 -0.26,0.72c0.15,0.06 2.86,0.95 2.76,0.76c-0.2,-0.38 -1.2,-1.37 -2.5,-1.48z" fill="#404040"/>
<path id="Vector_465" fill-rule="evenodd" clip-rule="evenodd" d="M261.11,187.05c0.68,0.08 0.63,0.65 0.11,0.76c-0.24,0.05 -3,0.39 -2.81,0.17c0.32,-0.35 1.44,-1.07 2.7,-0.93z" fill="#404040"/>
<path id="Vector_466" fill-rule="evenodd" clip-rule="evenodd" d="M261.06,193.2c1.53,0.43 1.35,-0.27 0.92,-0.19c-1.44,0.28 -0.06,-0.55 -0.3,-3.03c-0.03,-0.27 -0.32,-0.23 -0.32,-0.01c0,0.14 0.04,0.69 0.03,0.86c-0.2,1.98 -0.82,2.22 -0.33,2.37z" fill="#F08261"/>
<path id="Vector_467" fill-rule="evenodd" clip-rule="evenodd" d="M260.68,194.32c2,3.82 4.15,0.39 3.56,0.29c-3.02,-0.51 -3.8,-0.76 -3.56,-0.29z" fill="#F08261"/>
<path id="Vector_468" fill-rule="evenodd" clip-rule="evenodd" d="M336.82,338.49l0.26,-89.59v-3.38l-3.38,0.18l-50.01,2.56l-193.14,-9.96l-3.36,-0.17l-0.11,2.81l0.04,55.12l6.52,2.33l-0.04,-53.51l189.92,9.79h0.33l46.8,-2.39l-0.09,88.36z" fill="#E9CCCC"/>
<path id="Vector_469" fill-rule="evenodd" clip-rule="evenodd" d="M326.81,340.74l0.33,-88.12l-44.23,2.57l-2.56,105.15z" fill="#E9CCCC"/>
<path id="Vector_470" fill-rule="evenodd" clip-rule="evenodd" d="M95.24,242.97l187.67,12.22l-2.56,105.15l-184.72,-61.6z" fill="#F0DCDC"/>
<path id="Vector_471" fill-rule="evenodd" clip-rule="evenodd" d="M118.49,244.49l16.1,1.05l-23.99,58.19l-14.53,-4.84zM138.63,245.8l-24.38,59.15l9.4,3.14l25.39,-61.62l-10.4,-0.68zM153.09,246.74l-25.79,62.57l5.48,1.82l26.37,-63.99z" fill="#F4E5E5"/>
<path id="Vector_472" fill-rule="evenodd" clip-rule="evenodd" d="M236.26,252.16l19.93,1.29l-35.81,86.89l-18,-6zM261.2,253.78l-36.29,88.07l11.63,3.88l37.56,-91.11zM279.11,254.95l-38.04,92.29l6.79,2.27l35.07,-85.08l-0.02,-9.23z" fill="#F4E5E5"/>
<path id="Vector_473" fill-rule="evenodd" clip-rule="evenodd" d="M326.81,340.57l0.12,-32.79l0.2,-55.16l-44.22,2.57l-40.46,-2.63h0.01l41.06,2.11h0.33l46.79,-2.39l-0.05,55.98l-0.03,32.38z" fill="#D7A0A0"/>
<path id="Vector_474" fill-rule="evenodd" clip-rule="evenodd" d="M95.26,242.97l0.37,55.77l4.99,1.67c0,0 -3.31,-0.96 -6.99,-2.08l-0.04,-55.45z" fill="#DBABAB"/>
<path id="Vector_475" fill-rule="evenodd" clip-rule="evenodd" d="M282.91,257.15v-1.96l44.22,-2.57v1.96z" fill="#DBABAB"/>
<path id="Vector_476" fill-rule="evenodd" clip-rule="evenodd" d="M282.91,255.19v1.96l-126.28,-8.22l-59.07,-3.85l-2.32,-0.15v-1.96l61.4,4l85.7,5.58l0.11,0.01z" fill="#DBABAB"/>
<path id="Vector_477" fill-rule="evenodd" clip-rule="evenodd" d="M330.64,252.28l-46.8,2.39h-0.32l-0.61,-0.02v-6.43l0.77,0.04l50.01,-2.56l3.38,-0.18v3.38l-0.18,60.17l-0.08,29.42l-6.25,2.15l0.03,-32.38z" fill="#E9CCCC"/>
<path id="Vector_478" fill-rule="evenodd" clip-rule="evenodd" d="M68.03,333.31l-0.29,3.56c-0.09,0.55 -0.44,1.94 -0.44,2.45c0,1.9 6.08,-1.1 4.18,-1.95c0.15,-2.24 0.54,-2.45 0.48,-3.1c-0.08,-1 1.16,-0.91 1.16,-0.91z" fill="#FFB27D"/>
<path id="Vector_479" fill-rule="evenodd" clip-rule="evenodd" d="M69.62,341.36c2.96,0 7.93,-0.05 8.95,-0.41c1.48,-0.51 2.62,-1.08 2.46,-1.65c0.02,0.06 0.02,0.12 0.01,0.18c-0.02,0.06 -0.04,0.12 -0.07,0.17c-1.08,0.33 -2.63,0.43 -3.76,0.76c-0.18,0.05 -0.36,0.07 -0.55,0.07c-1.78,0 -4.04,-2.07 -4.56,-2.59c-0.57,-0.57 -1.86,-0.34 -2.36,-0.84c-0.07,-0.1 -0.12,-0.21 -0.15,-0.33c-0.35,0.02 -0.73,0.03 -1.07,0.03c-0.62,0 -1.12,-0.03 -1.12,-0.03c0,0 -0.36,2.39 -0.36,3.31c0,0.91 0.36,1.31 0.36,1.31c0,0 0.92,0.01 2.24,0.01z" fill="#2C2C2C"/>
<path id="Vector_480" fill-rule="evenodd" clip-rule="evenodd" d="M76.66,340.49c0.19,0 0.37,-0.03 0.55,-0.08c1.13,-0.33 2.68,-0.42 3.76,-0.76c0.03,-0.05 0.06,-0.11 0.07,-0.17c0.01,-0.06 0.01,-0.12 0,-0.18c-0.25,-0.83 -3.35,-0.32 -4.35,-0.67c-0.04,-0.01 -0.07,-0.03 -0.11,-0.05c-0.83,-0.43 -4.61,-2.91 -4.84,-3.05c-0.01,0 -0.01,0 -0.01,0c0,0 -0.11,0.66 -0.47,0.98c-0.06,0.06 -0.14,0.1 -0.22,0.14c-0.21,0.07 -1.05,0.06 -1.44,0.09c0.04,0.12 0.08,0.23 0.15,0.34c0.49,0.49 1.79,0.26 2.36,0.83c0.52,0.52 2.78,2.59 4.56,2.59z" fill="#3D3D3D"/>
<path id="Vector_481" fill-rule="evenodd" clip-rule="evenodd" d="M54.68,332.8l-1.15,3.38c-0.23,0.52 -0.91,1.77 -1.04,2.27c-0.46,1.84 6.16,0.42 4.54,-0.87c0.69,-2.14 1.12,-2.24 1.22,-2.88c0.16,-0.99 1.35,-0.6 1.35,-0.6z" fill="#FFB27D"/>
<path id="Vector_482" fill-rule="evenodd" clip-rule="evenodd" d="M54.25,340.99c2.87,0.73 7.69,1.89 8.78,1.8c1.56,-0.13 2.8,-0.41 2.79,-1c-0.01,0.06 -0.02,0.12 -0.05,0.18c-0.03,0.05 -0.07,0.1 -0.11,0.14c-1.13,0.06 -2.65,-0.23 -3.83,-0.19c-0.19,0.01 -0.37,-0.01 -0.55,-0.06c-1.73,-0.43 -3.41,-2.99 -3.79,-3.62c-0.41,-0.7 -1.72,-0.79 -2.08,-1.39c-0.04,-0.12 -0.06,-0.24 -0.06,-0.37c-0.34,-0.06 -0.71,-0.15 -1.05,-0.23c-0.6,-0.15 -1.08,-0.3 -1.08,-0.3c0,0 -0.94,2.23 -1.16,3.11c-0.22,0.89 0.03,1.37 0.03,1.37c0,0 0.89,0.23 2.16,0.55z" fill="#2C2C2C"/>
<path id="Vector_483" fill-rule="evenodd" clip-rule="evenodd" d="M61.28,341.87c0.18,0.05 0.36,0.07 0.55,0.06c1.18,-0.04 2.7,0.25 3.83,0.19c0.05,-0.04 0.09,-0.09 0.11,-0.15c0.03,-0.05 0.05,-0.11 0.05,-0.17c-0.04,-0.86 -3.16,-1.12 -4.05,-1.71c-0.03,-0.03 -0.07,-0.05 -0.1,-0.08c-0.7,-0.62 -3.75,-3.95 -3.95,-4.14c0,-0.01 0,-0.01 0,-0.01c0,0 -0.26,0.61 -0.69,0.83c-0.07,0.04 -0.16,0.07 -0.24,0.08c-0.23,0.02 -1.04,-0.19 -1.43,-0.26c0,0.12 0.02,0.24 0.06,0.36c0.36,0.6 1.67,0.69 2.08,1.39c0.37,0.63 2.06,3.19 3.79,3.62z" fill="#3D3D3D"/>
<path id="Vector_484" fill-rule="evenodd" clip-rule="evenodd" d="M78.9,267.92l3.05,7.95c0,0 1.99,18.99 0.83,30.36c-0.48,4.76 -10.97,30.21 -10.97,30.21l-5.22,-0.75l5.41,-29.81l-1,-11.86l-3.63,-22.78z" fill="#2F2F2F"/>
<path id="Vector_485" fill-rule="evenodd" clip-rule="evenodd" d="M75.25,268.85l1.87,8.32c0,0 -0.78,19.08 -3.56,30.16c-1.17,4.64 -15.24,28.31 -15.24,28.31l-5.05,-1.49l9.67,-28.73l-0.9,-28.29l1.33,-6.65z" fill="#2C2C2C"/>
<path id="Vector_486" fill-rule="evenodd" clip-rule="evenodd" d="M92.79,274.16c-1.9,-0.73 -1.95,-0.38 -2.19,-0.48c-0.29,-0.11 -2.6,-3.58 -2.6,-3.58c0,0 -6.91,-10.16 -7.26,-10.72l-2.25,-12.61l-6.47,-0.58c0,0 2.81,13.64 3.08,14.32c0.27,0.69 11.18,13.3 12.1,14.45c0,0 0.61,1.77 1.03,2.88c0.41,1.1 1.29,1.96 1.46,2.25c0.47,0.72 1.03,1.37 1.67,1.94c0.91,0.83 0.42,-0.37 0.42,-0.37c0,0 -1.4,-1.84 -1.24,-1.92c0.13,-0.08 0.84,0.97 1.83,1.89c0.25,0.24 0.5,0.47 0.74,0.68c0.61,0.56 1.12,0.34 0.57,-0.36c-0.24,-0.31 -0.51,-0.6 -0.8,-0.88c-0.29,-0.26 -0.48,-0.61 -0.7,-0.87c-0.43,-0.53 -0.75,-0.9 -0.72,-0.91c0.04,0 0.03,-0.17 0.31,0.07c0.33,0.29 0.91,1.08 1.44,1.47c0.3,0.22 0.89,0.72 0.89,0.72c0,0 1.05,0.7 1.1,0.65c0.3,-0.27 -0.32,-0.99 -0.75,-1.24c-0.21,-0.31 -0.85,-0.82 -0.85,-0.82c0,0 -1.06,-1.33 -0.87,-1.49c0.14,-0.12 3.3,2.55 3.57,2.25c0.23,-0.25 -0.68,-1.09 -0.68,-1.09c0,0 -0.59,-0.47 -0.78,-0.64c-0.21,-0.19 -0.82,-0.85 -0.82,-0.85c0,0 -2,-2.37 -1.81,-2.5c0.2,-0.14 0.8,-0.29 0.97,-0.19c0.17,0.11 0.39,0.46 0.57,0.57c0.1,0.06 0.22,0.08 0.34,0.06c0.12,-0.03 0.22,-0.09 0.3,-0.18c0.14,-0.22 -0.51,-1.04 -0.51,-1.04c0,0 -0.54,-0.66 -1.09,-0.88z" fill="#FFB27D"/>
<path id="Vector_487" fill-rule="evenodd" clip-rule="evenodd" d="M81.27,249.84l-7.84,2.77c0,0 -3.36,-6.21 -4.03,-9.09c-0.8,-3.51 0.72,-7.49 1.16,-7.49c1.23,0.01 3.1,-0.44 4.33,0.66c4.27,3.79 6.38,13.15 6.38,13.15z" fill="#E73B3B"/>
<path id="Vector_488" fill-rule="evenodd" clip-rule="evenodd" d="M89.86,275.19c0.7,0.59 1.46,0.82 2.34,0.63c-0.82,0.63 -1.97,0.17 -2.34,-0.63z" fill="#F37960"/>
<path id="Vector_489" fill-rule="evenodd" clip-rule="evenodd" d="M65.48,235.83c0,0 -3.93,0.56 -4.96,1.32c-1.17,0.86 -4.78,4.88 -4.78,4.88c0,0 7.52,21.68 7.22,25.54c-0.29,3.85 -1.12,9.57 -1.12,9.57c0,0 14.6,0.93 20.12,-1.27c0,0 -1.74,-8.74 -1.74,-11.03c0,-2.29 -1.28,-19.64 -1.82,-21.4c-0.41,-1.33 -1.96,-6.92 -4.63,-7.51c-2.67,-0.58 -8.29,-0.1 -8.29,-0.1z" fill="#E73B3B"/>
<path id="Vector_490" fill-rule="evenodd" clip-rule="evenodd" d="M79.53,254.03c-0.28,-3.43 -0.59,-6.83 -0.84,-8.86l-5.15,-9.28c-1.14,-0.22 -2.74,-0.26 -4.2,-0.24z" fill="#EC6767"/>
<path id="Vector_491" fill-rule="evenodd" clip-rule="evenodd" d="M65.16,235.88c-0.7,0.11 -2.42,0.41 -3.62,0.8l19.75,35.64c-0.49,-2.69 -1.07,-6.16 -1.07,-7.48c0,-0.34 -0.03,-1.03 -0.08,-1.94z" fill="#EC6767"/>
<path id="Vector_492" fill-rule="evenodd" clip-rule="evenodd" d="M58.53,239.03c-1.02,1.05 -2.08,2.22 -2.56,2.74l19.58,35.31c1.27,-0.09 2.54,-0.26 3.8,-0.49z" fill="#EC6767"/>
<path id="Vector_493" fill-rule="evenodd" clip-rule="evenodd" d="M61.06,258.7c1.15,4 2,7.52 1.89,8.87c-0.03,0.52 -0.08,1.07 -0.14,1.64l4.5,8.11c1.26,0.02 2.64,0.02 4.06,-0.02z" fill="#EC6767"/>
<path id="Vector_494" fill-rule="evenodd" clip-rule="evenodd" d="M66.55,229.64l-0.96,6.19c0,0 2.8,4.74 4.92,4.07c1.78,-0.56 1.43,-4.18 1.43,-4.18c0,0 -0.97,-3.63 -0.68,-5.44c0.29,-1.81 -4.71,-0.64 -4.71,-0.64z" fill="#FFB27D"/>
<path id="Vector_495" fill-rule="evenodd" clip-rule="evenodd" d="M71.26,230.28c0.3,-1.82 -4.71,-0.64 -4.71,-0.64l-0.07,0.54c0.12,0.33 0.3,0.63 0.54,0.89c1.12,1.2 2.86,1.92 4.37,1.98c-0.15,-0.98 -0.25,-2.03 -0.13,-2.77z" fill="#F08261"/>
<path id="Vector_496" fill-rule="evenodd" clip-rule="evenodd" d="M68.92,220.38c-0.12,-0.1 -3.23,6.65 -2.03,9.14c1.2,2.49 4.52,4.2 6.24,3.05c1.91,-1.25 4.16,-8.84 1.98,-11.68c-2.18,-2.84 -6.19,-0.51 -6.19,-0.51z" fill="#FFB27D"/>
<path id="Vector_497" fill-rule="evenodd" clip-rule="evenodd" d="M75.2,216.79c-1.67,-0.15 -3.35,0.23 -4.8,1.08c-1.02,-0.19 -2.51,-0.06 -4.59,1.81c-2.56,2.27 -2.26,5.77 -0.76,7.9c1.5,2.13 0.92,3.9 0.92,3.9l0.6,-0.83c0.45,-0.62 0.76,-1.32 0.91,-2.07c0.1,-0.46 0.13,-0.92 0.08,-1.39c-0.16,-1.17 1.54,-1.38 2.22,-2.1c0.52,-0.55 0.99,-2.04 1.83,-2.97l0.86,-0.64c0,0 1.74,-0.66 3.01,0.07c1.28,0.73 2.66,-4.48 -0.28,-4.76z" fill="#0F0F0F"/>
<path id="Vector_498" fill-rule="evenodd" clip-rule="evenodd" d="M67.86,226.13c0.01,0.9 -0.4,1.63 -0.92,1.64c-0.51,0.01 -0.95,-0.71 -0.96,-1.61c-0.01,-0.9 0.4,-1.64 0.92,-1.65c0.51,-0.01 0.94,0.71 0.96,1.62z" fill="#FFB27D"/>
<path id="Vector_499" fill-rule="evenodd" clip-rule="evenodd" d="M50.86,249.81l6.58,5.16c0,0 2.91,-2.8 4.37,-5.9c1.47,-3.15 0.18,-12.31 -1.39,-11.89c-3.53,0.95 -9.56,12.63 -9.56,12.63z" fill="#E73B3B"/>
<path id="Vector_500" fill-rule="evenodd" clip-rule="evenodd" d="M36.65,258.06c7.25,3.04 9.58,-3.61 9.4,-3.43c0.14,-0.15 1.23,-0.64 1.92,-0.99c2.9,-1.45 4.66,-4.83 4.59,-8.22c4.16,-2.6 5.25,-8.08 2.4,-11.11c0.88,-3.37 -1.44,-7.07 -4.39,-8.78c-2.23,-3.97 -7.86,-2.27 -10.89,0.84c-1.54,1.58 -2.43,3.9 -2.41,6.2c-3.57,1.52 -5.44,5.54 -4.62,9.59c-4.82,4.05 -3.39,12.79 4,15.9z" fill="#0F0F0F"/>
<path id="Vector_501" fill-rule="evenodd" clip-rule="evenodd" d="M28.22,280.17l-1.24,-0.32c0.03,-0.09 2.38,-9.62 4.88,-19.11c1.47,-5.57 2.71,-10.04 3.68,-13.28c1.91,-6.4 2.33,-6.56 2.7,-6.72l0.48,1.21c0.06,-0.02 0.1,-0.06 0.14,-0.1c-0.31,0.36 -1.49,2.99 -5.92,19.81c-2.44,9.27 -4.69,18.42 -4.72,18.51z" fill="#E73B3B"/>
<path id="Vector_502" fill-rule="evenodd" clip-rule="evenodd" d="M70.02,279.89c0,0 -0.55,-0.44 -0.73,-0.61c-0.18,-0.16 -0.77,-0.8 -0.77,-0.8c0,0 -1.87,-2.24 -1.69,-2.36c0.17,-0.13 0.71,0.08 0.87,0.17c0.16,0.09 0.37,0.2 0.53,0.3c0.04,0.02 0.09,0.04 0.14,0.05c0.05,0 0.1,0 0.14,-0.01c0.05,-0.02 0.09,-0.04 0.13,-0.07c0.04,-0.03 0.07,-0.07 0.09,-0.11c0.14,-0.19 -0.43,-0.73 -0.66,-0.87c-0.72,-0.45 -2.91,-1.26 -3.13,-1.36c-0.27,-0.11 -2.81,-4.59 -3.79,-6.06c-1.55,-2.45 -3.02,-5.05 -3.18,-5.3l-3.33,-11.97l-4.85,-0.48c0,0 3.52,13.34 3.76,13.97c0.12,0.32 4.15,5.71 4.15,5.71c2.15,2.53 4.05,4.76 4.4,5.2c0,0 0.71,1.6 1.1,2.64c0.39,1.04 1.16,1.84 1.31,2.12c0.39,0.71 0.89,1.36 1.49,1.92c0.85,0.77 0.4,-0.37 0.4,-0.37c0,0 -1.32,-1.72 -1.17,-1.81c0.13,-0.06 0.79,0.93 1.72,1.8l0.69,0.64c0.58,0.52 1.07,0.32 0.55,-0.34c-0.23,-0.29 -0.48,-0.57 -0.75,-0.83c-0.28,-0.26 -0.46,-0.58 -0.66,-0.83c-0.4,-0.5 -0.71,-0.85 -0.68,-0.86c0.03,-0.01 0.03,-0.16 0.29,0.07c0.32,0.28 0.86,1.01 1.35,1.38c0.28,0.21 0.84,0.68 0.84,0.68c0,0 0.99,0.68 1.04,0.62c0.27,-0.25 -0.3,-0.93 -0.71,-1.17c-0.19,-0.29 -0.79,-0.77 -0.79,-0.77c0,0 -1,-1.25 -0.83,-1.39c0.15,-0.13 3.11,2.4 3.37,2.12c0.22,-0.21 -0.64,-1.02 -0.64,-1.02z" fill="#FFB27D"/>
<path id="Vector_503" fill-rule="evenodd" clip-rule="evenodd" d="M64.69,276.33c0,0 1.49,0.57 2.11,-0.2c-0.06,0.17 -0.17,0.32 -0.3,0.44c-0.14,0.12 -0.31,0.2 -0.49,0.24c-0.59,0.1 -1.32,-0.48 -1.32,-0.48z" fill="#F37960"/>
<path id="Vector_504" fill-rule="evenodd" clip-rule="evenodd" d="M43.93,283.28l2.74,25.38c0,0 -1.34,5.37 -1.17,6.89c0.16,1.53 2.98,21.52 2.98,21.52l-0.13,1.1l-0.07,3.26l10.55,0.08c0,0 -2.22,-1.03 -5.33,-3.07c-0.23,-0.15 -0.76,-0.63 -0.89,-1.59c-0.83,-6.16 0.81,-26.73 0.81,-26.73l1.3,-26.76z" fill="#FFB27D"/>
<path id="Vector_505" fill-rule="evenodd" clip-rule="evenodd" d="M37.92,288.08c-0.59,0.16 -1.5,21.95 -1.99,22.91c-3.11,6.11 -3.85,24.72 -3.85,24.72l-1.28,2.61l0.3,2.51c0,0 2.32,1.38 3.94,0.45l-0.25,-2.52l-0.19,-3.36l7.84,-23.18l4.29,-23.65z" fill="#FFB27D"/>
<path id="Vector_506" fill-rule="evenodd" clip-rule="evenodd" d="M58,299.89l0.38,-15.03c0.06,-4.25 -1.31,-8.32 -2.99,-12.19l-3.55,-6.19c-1.15,0.37 -1.78,-3.13 -2.98,-2.99c-0.91,0.1 -1.53,0.32 -2.37,0.38c-1.59,0.09 -2.56,3.31 -4.26,3.1c-0.01,0.1 -1.06,0.51 -1.09,0.58c-0.81,2.27 -2.89,4.7 -4,11.45c-1.25,7.66 -1.25,20.81 -1.09,21.71c12.03,0.55 14.9,0.98 21.95,-0.82z" fill="#2F2F2F"/>
<path id="Vector_507" fill-rule="evenodd" clip-rule="evenodd" d="M48.23,342.27h10.88c0.41,-0.04 0.5,-0.38 0.37,-0.6c-0.29,-0.43 -1.56,-0.74 -2.99,-1.44c-2.5,0.27 -7.74,-1.63 -8.14,-2.24c-0.22,1.22 -0.35,4.22 -0.12,4.28z" fill="#3D3D3D"/>
<path id="Vector_508" fill-rule="evenodd" clip-rule="evenodd" d="M30.81,338.31c0,0 0.97,2.85 2.02,2.76c1.04,-0.08 1.96,-2.31 1.96,-2.31c0,0 0.39,1.88 0.21,2.91c-0.19,1.04 -1.68,2.11 -2.7,1.65c-1.02,-0.46 -2.4,-2.87 -1.49,-5.01z" fill="#3D3D3D"/>
<path id="Vector_509" fill-rule="evenodd" clip-rule="evenodd" d="M51.06,256.75c1.01,-0.15 2,-0.39 2.96,-0.72c0.88,-0.32 2.33,-1 2.33,-1c0,0 -0.82,-7.08 -2.87,-11.36c-0.85,-1.78 -1.7,-2.64 -2.9,-2.84z" fill="#E94A4A"/>
<path id="Vector_510" fill-rule="evenodd" clip-rule="evenodd" d="M53.69,248.74c-0.3,-1.14 -0.99,-2.66 -1.38,-3.69c-0.67,-1.78 -0.87,-3.43 -1.45,-4.13c-0.32,-0.38 -4.38,-0.32 -4.88,-0.38c-0.21,-0.02 -1.02,0.04 -1.8,0.08c-0.46,0.06 -5.04,0.43 -5.7,0.72c-3.31,3.3 -4.9,7.76 -7.38,12.62c0,0 1.86,1.09 3.34,1.78c0.64,0.3 1.88,0.78 1.88,0.78l2.85,-4.93c0.03,-0.03 0.18,-0.18 0.23,-0.08c0.06,0.16 2.15,15.5 2.15,15.5c0,0 8.46,0.72 10.44,-0.26c0,0 0.37,-10.25 1.1,-13.25c0.27,-1.11 1.1,-2.91 0.6,-4.76z" fill="#EC6767"/>
<path id="Vector_511" fill-rule="evenodd" clip-rule="evenodd" d="M43.92,235.49c0,0 -0.43,3.6 -0.96,4.92c-0.53,1.32 -1.26,5.82 1.35,6.64c2.62,0.81 2.21,-4.26 2.37,-5.66c0.15,-1.4 1.3,-6.62 1.3,-6.62z" fill="#FFB27D"/>
<path id="Vector_512" fill-rule="evenodd" clip-rule="evenodd" d="M47.55,236.77c0.3,-1.14 0.43,-2 0.43,-2l-4.06,0.72c0,0 -0.09,0.74 -0.23,1.66c1.44,0.8 2.87,0.45 3.86,-0.38z" fill="#F08261"/>
<path id="Vector_513" fill-rule="evenodd" clip-rule="evenodd" d="M50.01,227.62c-1.16,0.18 -2.26,0.6 -3.24,1.22c-2.55,0.36 -4.99,3.04 -3.04,6.36c1.95,3.33 5.3,2.04 6.7,-0.69c0.93,-1.52 1.04,-2.02 0.89,-3.78c-0.13,-1.47 0.15,-2.42 -1.31,-3.11z" fill="#FFB27D"/>
<path id="Vector_514" fill-rule="evenodd" clip-rule="evenodd" d="M44.17,230.65c-0.14,0.8 -0.68,1.42 -1.21,1.37c-0.53,-0.05 -0.84,-0.75 -0.7,-1.56c0.14,-0.81 0.68,-1.43 1.21,-1.38c0.53,0.05 0.84,0.76 0.7,1.57z" fill="#FFB27D"/>
<path id="Vector_515" fill-rule="evenodd" clip-rule="evenodd" d="M40.42,280.11v4.87c0,2.53 -1.79,4.6 -3.99,4.6h-4.09v-11.37h6.43c0.21,0 0.43,0.05 0.62,0.14c0.2,0.09 0.37,0.23 0.51,0.39c0.34,0.38 0.53,0.87 0.52,1.37z" fill="#E73B3B"/>
<path id="Vector_516" fill-rule="evenodd" clip-rule="evenodd" d="M39.91,278.74h-0.03c-0.84,0 -1.53,0.78 -1.53,1.76v3.58c0,3.03 -2.13,5.5 -4.77,5.5h-2.49c-2.64,0 -4.77,-2.47 -4.77,-5.5v-3.56c0,-1.27 0.9,-2.31 2,-2.31h10.45c0.22,0.01 0.43,0.05 0.63,0.14c0.2,0.09 0.37,0.22 0.51,0.39z" fill="#E94A4A"/>
<path id="Vector_517" fill-rule="evenodd" clip-rule="evenodd" d="M40.44,280.01l-1.28,-0.01c0,-0.08 0.05,-9.12 -0.08,-18.35c-0.07,-5.41 -0.18,-9.83 -0.33,-13.12c-0.25,-5.62 -0.57,-6.63 -0.66,-6.79c0.02,-0.34 0.07,-0.68 0.14,-1.01c0.12,-0.05 0.24,-0.06 0.36,-0.05c0.12,0.01 0.23,0.05 0.33,0.12c0.33,0.23 0.54,0.67 0.74,2.4c0.12,1.08 0.24,2.62 0.33,4.56c0.16,3.26 0.28,7.71 0.36,13.27c0.13,9.45 0.09,18.89 0.09,18.98z" fill="#E73B3B"/>
<path id="Vector_518" fill-rule="evenodd" clip-rule="evenodd" d="M46.84,271.36c0.16,0.02 1.28,0.09 1.28,0.09c0,0 1.65,-0.99 1.88,-0.52c0.07,0.14 -1.7,1.15 -1.7,1.15c0,0 -1.72,0.06 -2.13,0.04c-0.77,-0.02 -2.38,-0.23 -4.77,-2.01c-2.07,-1.06 -12.48,-7.13 -12.63,-8.28c-0.09,-0.69 1.49,-4.25 3.02,-7.48c0.68,0.38 1.73,0.95 2.64,1.39c0.43,0.19 1.12,0.47 1.54,0.64c-1,1.92 -1.94,3.9 -1.82,4.31c0.11,0.35 9,7.13 9,7.13l1.77,-0.24c0,0 3.13,0.38 3.2,0.75c0.07,0.37 -1.31,0.27 -1.5,0.33c-0.17,0.05 -0.33,0.12 -0.48,0.22c0.51,0.24 1.33,0.64 1.79,0.66c1.05,0.03 2.26,-0.12 2.4,0.02c0.16,0.18 -1.44,0.67 -2.57,0.73c-0.46,0.03 -0.74,-0.1 -0.94,-0.07c-0.28,0.06 0.2,0.28 0.97,0.23c0.44,-0.03 1.21,-0.26 1.69,-0.34c0.8,-0.11 1.24,-0.05 1.31,0.02c0.1,0.11 -2.26,0.87 -2.26,0.87c0,0 -1.53,0.2 -1.89,0.18c0,0 -0.21,0.09 0.2,0.18z" fill="#FFB27D"/>
<path id="Vector_519" fill-rule="evenodd" clip-rule="evenodd" d="M72.09,226.43c-0.3,-0.03 -0.41,-1.23 0.32,-1.15c0.38,0.04 0.16,1.2 -0.32,1.15z" fill="#282828"/>
<path id="Vector_520" fill-rule="evenodd" clip-rule="evenodd" d="M75.36,226.72c0.3,0.03 0.66,-1.12 -0.06,-1.19c-0.38,-0.04 -0.42,1.14 0.06,1.19z" fill="#282828"/>
<path id="Vector_521" fill-rule="evenodd" clip-rule="evenodd" d="M72.78,224.27c0.48,0.07 0.42,0.46 0.06,0.53c-0.11,0.02 -2.1,0.2 -2,0.09c0.19,-0.23 1.03,-0.75 1.94,-0.62z" fill="#282828"/>
<path id="Vector_522" fill-rule="evenodd" clip-rule="evenodd" d="M74.99,224.33c-0.48,-0.06 -0.53,0.34 -0.2,0.5c0.16,0.07 1.99,0.73 1.89,0.55c-0.19,-0.28 -0.44,-0.52 -0.73,-0.7c-0.29,-0.19 -0.62,-0.3 -0.96,-0.35z" fill="#282828"/>
<path id="Vector_523" fill-rule="evenodd" clip-rule="evenodd" d="M74.78,229c-0.98,0.54 -0.96,0.03 -0.66,0.02c1.02,-0.04 -0.05,-0.38 -0.28,-2.11c-0.02,-0.18 0.18,-0.21 0.22,-0.06c0.02,0.1 0.08,0.48 0.12,0.59c0.44,1.32 0.91,1.38 0.6,1.56z" fill="#F08261"/>
<path id="Vector_524" fill-rule="evenodd" clip-rule="evenodd" d="M74.24,230.21c-1.01,1 -1.71,-0.09 -2.47,-0.36c2.13,0.12 2.7,0.08 2.47,0.36z" fill="#F08261"/>
<path id="Vector_525" fill-rule="evenodd" clip-rule="evenodd" d="M46.72,231.75c-0.29,-0.08 -0.16,-1.28 0.53,-1.07c0.38,0.11 -0.05,1.21 -0.53,1.07z" fill="#282828"/>
<path id="Vector_526" fill-rule="evenodd" clip-rule="evenodd" d="M49.91,232.65c0.28,0.08 0.85,-0.98 0.16,-1.18c-0.37,-0.12 -0.63,1.03 -0.16,1.18z" fill="#282828"/>
<path id="Vector_527" fill-rule="evenodd" clip-rule="evenodd" d="M47.8,229.75c0.46,0.16 0.32,0.53 -0.04,0.54c-0.1,0 -2.09,-0.19 -1.97,-0.28c0.23,-0.2 1.15,-0.55 2.01,-0.26z" fill="#282828"/>
<path id="Vector_528" fill-rule="evenodd" clip-rule="evenodd" d="M49.98,230.23c-0.46,-0.15 -0.58,0.23 -0.29,0.45c0.14,0.1 1.82,1.09 1.76,0.9c-0.14,-0.32 -0.34,-0.6 -0.59,-0.83c-0.26,-0.24 -0.56,-0.41 -0.88,-0.52z" fill="#282828"/>
<path id="Vector_529" fill-rule="evenodd" clip-rule="evenodd" d="M48.89,234.78c-1.05,0.35 -0.95,-0.15 -0.64,-0.1c1.01,0.16 0.02,-0.39 0.11,-2.13c0.01,-0.18 0.22,-0.17 0.23,-0.02c0.01,0.11 -0.01,0.49 0.01,0.6c0.19,1.38 0.63,1.53 0.29,1.65z" fill="#F08261"/>
<path id="Vector_530" fill-rule="evenodd" clip-rule="evenodd" d="M48.15,235.86c-1.18,0.8 -1.67,-0.4 -2.36,-0.81c2.07,0.52 2.64,0.58 2.36,0.81z" fill="#F08261"/>
<path id="Vector_531" fill-rule="evenodd" clip-rule="evenodd" d="M199.01,239.42c0,0 -0.25,12.1 0.34,15.62c0.59,3.53 -0.78,19.94 -0.78,19.94l-2.83,-0.36c0,0 -7.08,-26.8 -6.36,-30.24c0.73,-3.45 9.63,-4.96 9.63,-4.96z" fill="#FFB27D"/>
<path id="Vector_532" fill-rule="evenodd" clip-rule="evenodd" d="M198.58,274.98c0,0 1.09,3.67 0.83,4.37c-0.26,0.7 -1.65,2.16 -2.8,3.06c-1.15,0.89 -0.14,-2.35 0.08,-3.4c0.22,-1.05 -1.47,-1.12 -1.21,-2.76l0.27,-1.63z" fill="#FFB27D"/>
<path id="Vector_533" fill-rule="evenodd" clip-rule="evenodd" d="M195.48,276.25c0,0 0,3.04 -0.03,3.64c-0.02,0.6 0.6,0.05 0.69,-0.48c0.08,-0.53 0.63,-1.41 0.9,-1.49c0.27,-0.07 -1.56,-1.67 -1.56,-1.67z" fill="#FFB27D"/>
<path id="Vector_534" fill-rule="evenodd" clip-rule="evenodd" d="M178.13,321.59c1.02,10.24 4.69,25.99 4.69,25.99l2.86,-2.06c0,0 5.04,-35.33 5.86,-38.21c5.71,-19.97 6.36,-39.58 6.36,-39.58l-16.7,-4.94c-1.71,2.87 -3.03,7.58 -2.63,12.91c1.76,23.25 -1.66,33.61 -0.44,45.89z" fill="#2F2F2F"/>
<path id="Vector_535" fill-rule="evenodd" clip-rule="evenodd" d="M161.24,275.48c-0.08,0.83 -0.41,1.61 -0.92,2.25c-0.2,0.26 -0.77,0.92 -0.99,0.68c-0.21,-0.23 0.61,-2.02 0.12,-3.11c-0.17,-0.39 1.79,0.18 1.79,0.18z" fill="#FFB27D"/>
<path id="Vector_536" fill-rule="evenodd" clip-rule="evenodd" d="M195.06,348.61c-0.06,-0.17 -0.16,-0.31 -0.29,-0.43c-0.14,-0.12 -0.29,-0.21 -0.46,-0.26c-0.86,-0.25 -2.54,-0.47 -4.08,-1.86c-0.87,-0.79 -4.19,-2.88 -4.19,-2.88h-0.02c-0.07,0 -0.42,0.11 -1.93,1.38c-0.78,0.66 -2.11,-0.93 -2.11,-0.93c-0.18,0.17 -0.33,0.37 -0.44,0.6c-0.19,0.38 -0.25,0.81 -0.17,1.23c0.12,0.73 -0.27,2.08 -0.58,2.99c-0.19,0.55 -0.34,0.94 -0.34,0.94c0,0 -0.09,0.46 1.54,0.66h1.89c0.64,-0.1 1.1,-0.28 1.76,-0.37c0.99,-0.13 1.44,0.28 1.53,0.37l0.02,0.02h8.05c0.21,-0.31 0.01,-0.97 -0.18,-1.46z" fill="#601616"/>
<path id="Vector_537" fill-rule="evenodd" clip-rule="evenodd" d="M168.76,320.82c1.02,10.24 4.48,26.33 4.48,26.33l2.53,0.82c0,0 5.58,-38.55 6.4,-41.42c5.71,-19.97 6.59,-43.68 6.59,-43.68l-16.93,-0.84c-1.71,2.87 -3.03,7.57 -2.62,12.9c1.75,23.25 -1.67,33.62 -0.45,45.89z" fill="#2C2C2C"/>
<path id="Vector_538" fill-rule="evenodd" clip-rule="evenodd" d="M185.51,348.61c-0.06,-0.17 -0.16,-0.31 -0.29,-0.43c-0.13,-0.12 -0.29,-0.21 -0.46,-0.26c-0.85,-0.25 -2.54,-0.47 -4.08,-1.86c-0.86,-0.79 -4.19,-2.88 -4.19,-2.88h-0.01c-0.08,0 -0.43,0.11 -1.94,1.38c-0.78,0.66 -2.04,-0.97 -2.04,-0.97c-0.21,0.18 -0.38,0.4 -0.5,0.64c-0.19,0.38 -0.25,0.82 -0.18,1.24c0.12,0.72 -0.26,2.08 -0.58,2.98c-0.18,0.55 -0.34,0.95 -0.34,0.95c0,0 -0.09,0.45 1.54,0.66h1.9c0.64,-0.1 1.1,-0.29 1.76,-0.37c0.98,-0.13 1.44,0.27 1.53,0.37l0.02,0.01h8.05c0.2,-0.31 0.01,-0.97 -0.19,-1.46z" fill="#601616"/>
<path id="Vector_539" fill-rule="evenodd" clip-rule="evenodd" d="M198.14,271.15c-1.48,1.72 -14.35,1.39 -17.25,0.75c-2,-0.45 -3.53,-2.54 -4.63,-6.29c-0.36,2.62 -1.18,5.69 -3.01,5.87c-2.99,0.32 -4.23,-0.2 -4.59,-1.34c-0.06,-0.18 0.55,-8.09 1.08,-16.03c0.36,-5.48 0.69,-10.98 0.73,-13.99c0,-0.38 0,-0.71 0,-1.01c-4.74,-0.27 -6.6,-0.05 -6.6,-0.05c0,0 2.25,-7.32 7.44,-13.25c4.8,-5.48 16.23,-3.85 20.86,-2.48c2.93,0.86 5.68,4 4.26,10.64c-0.84,3.91 0.35,10.18 0.83,19.43c0.46,8.88 1.2,17.37 0.88,17.75z" fill="#E73B3B"/>
<path id="Vector_540" fill-rule="evenodd" clip-rule="evenodd" d="M194.58,224.63c0,0 3.58,2.92 5.64,16.11c0,0 -1.16,1.6 -4.58,1.17c-3.43,-0.43 -1.06,-17.28 -1.06,-17.28z" fill="#E73B3B"/>
<path id="Vector_541" fill-rule="evenodd" clip-rule="evenodd" d="M190.6,201.66c0,0 -8.31,-9.43 -12.39,-3.13c0,0 -3.14,1.41 -4.13,6.84c-1.02,5.55 2.76,9.63 4.63,8.54c1.2,-0.69 2.18,1.41 2.18,1.41z" fill="#404040"/>
<path id="Vector_542" fill-rule="evenodd" clip-rule="evenodd" d="M179.06,197.53c0,0 -1.2,-4.29 -7.51,-2.76c0,0 3.03,-0.47 3.89,0.68c0,0 -2.44,-1.04 -3.92,-0.07c-1.48,0.96 -1.64,4.07 -1.39,5.01c0.25,0.94 2,3.71 3.1,3.69c1.1,-0.03 2.38,-1.04 2.38,-1.04z" fill="#404040"/>
<path id="Vector_543" fill-rule="evenodd" clip-rule="evenodd" d="M180.29,221.88c-0.17,-0.94 0.76,-2.58 0.6,-7.81l0.41,0.07l6.83,1.16c0,0 0.16,5.55 0.21,7.57c0.05,1.68 -8.18,0.51 -8.05,-0.99z" fill="#FFB27D"/>
<path id="Vector_544" fill-rule="evenodd" clip-rule="evenodd" d="M188.12,215.3c0,0 0.07,2.01 0.12,4.03c-3.81,0 -6.08,-3.29 -6.95,-5.19z" fill="#F08261"/>
<path id="Vector_545" fill-rule="evenodd" clip-rule="evenodd" d="M180.56,213.42c0,0 -2.08,-3.1 -2.63,-5.78c-0.4,-1.92 0.38,-9.07 7.57,-8.24c1.45,0.16 2.85,0.64 4.08,1.41c1.59,1.01 3.9,3.22 1.56,9.51l-0.59,2.12z" fill="#404040"/>
<path id="Vector_546" fill-rule="evenodd" clip-rule="evenodd" d="M189.45,217.17c0,0 -8.99,0.4 -9.16,-5.21c-0.16,-5.61 -1.43,-9.33 4.31,-9.82c5.73,-0.49 6.92,1.61 7.42,3.47c0.51,1.86 -0.23,11.31 -2.57,11.56z" fill="#FFB27D"/>
<path id="Vector_547" fill-rule="evenodd" clip-rule="evenodd" d="M188.69,201.89c0,0 -2.28,6.64 -6.03,7.72c-3.75,1.08 -5.43,0.11 -5.43,0.11c0,0 2.84,-2.39 3.33,-6.42c0,-0.01 6.2,-4.49 8.13,-1.41z" fill="#404040"/>
<path id="Vector_548" fill-rule="evenodd" clip-rule="evenodd" d="M188.09,202.44c0,0 1.89,1.41 2.38,2.83c0.48,1.41 0.77,4.35 1.62,4.23c0,0 1.73,-4.53 -0.42,-7c-2.29,-2.62 -3.58,-0.06 -3.58,-0.06z" fill="#404040"/>
<path id="Vector_549" fill-rule="evenodd" clip-rule="evenodd" d="M188.45,202.65c0,0 -1.56,6.94 -6.28,9.29c0,0 4.66,-4.37 4.94,-8.93c0.27,-4.56 1.34,-0.36 1.34,-0.36z" fill="#404040"/>
<path id="Vector_550" fill-rule="evenodd" clip-rule="evenodd" d="M166.76,234.77c0,0 -6.08,11.86 -6.42,16.82c-0.33,4.96 -1.18,19.15 -1.18,19.15l2.51,1.26c0,0 5.21,-18.7 5.53,-21.53c0.35,-3.15 10.66,-13.61 10.66,-13.61z" fill="#FFB27D"/>
<path id="Vector_551" fill-rule="evenodd" clip-rule="evenodd" d="M177.58,230.22h-9.07l-4.64,8.83c0,0 7.39,6.12 14.76,3.63c7.36,-2.48 -1.05,-12.46 -1.05,-12.46z" fill="#E73B3B"/>
<path id="Vector_552" fill-rule="evenodd" clip-rule="evenodd" d="M152.29,299.17l-16.98,0.27c-2.5,0.04 -4.35,2.05 -4.54,4.54c-1.06,13.89 -1.14,25.56 0,37.8c0.23,2.48 2.05,4.92 4.54,5.14c5.69,0.49 11.36,0.82 16.98,0.6c2.5,-0.09 4.37,-2.05 4.54,-4.54c0.87,-13.07 0.87,-26.19 0,-39.27c-0.15,-2.49 -2.04,-4.58 -4.54,-4.54z" fill="#E9CCCC"/>
<path id="Vector_553" fill-rule="evenodd" clip-rule="evenodd" d="M164.54,298.36l-23.09,-0.2c-2.08,-0.02 -6.88,0.43 -8.55,2.01c0.71,-0.47 1.54,-0.72 2.39,-0.73l16.98,-0.27c2.5,-0.04 4.38,2.05 4.54,4.54c0.87,13.08 0.87,26.2 0,39.27c-0.17,2.49 -2.04,4.45 -4.54,4.54c-1.65,0.07 -3.31,0.08 -4.98,0.06c5.69,0.49 13.62,-0.55 17.17,-1.44c2.43,-0.61 4.3,-2.36 4.47,-4.85c0.88,-12.97 1,-25.18 0.15,-38.39c-0.16,-2.49 -2.04,-4.52 -4.54,-4.54z" fill="#D7A0A0"/>
<path id="Vector_554" fill-rule="evenodd" clip-rule="evenodd" d="M151.97,303.93c-0.34,0.01 -0.67,0.15 -0.9,0.4c-0.24,0.25 -0.37,0.57 -0.36,0.92c0.04,6.08 0.06,12.16 0.06,18.24c-0.01,6.08 -0.05,12.16 -0.1,18.24c0,0.35 0.13,0.68 0.37,0.92c0.24,0.25 0.57,0.39 0.91,0.39c0.35,0.01 0.67,-0.13 0.92,-0.37c0.24,-0.24 0.38,-0.56 0.39,-0.91c0.09,-6.09 0.16,-12.18 0.16,-18.28c0,-6.09 -0.07,-12.18 -0.16,-18.27c-0.01,-0.34 -0.14,-0.67 -0.39,-0.91c-0.24,-0.24 -0.56,-0.37 -0.9,-0.37zM135.91,304.28c-0.35,0.01 -0.67,0.14 -0.92,0.38c-0.25,0.24 -0.4,0.56 -0.43,0.9c-0.29,5.92 -0.54,11.84 -0.58,17.76c-0.05,5.92 0.11,11.84 0.34,17.77c0.02,0.34 0.17,0.66 0.42,0.9c0.25,0.24 0.58,0.37 0.93,0.38c0.16,0 0.32,-0.03 0.48,-0.09c0.15,-0.06 0.29,-0.15 0.41,-0.26c0.11,-0.12 0.2,-0.26 0.26,-0.41c0.07,-0.15 0.09,-0.32 0.09,-0.48c-0.19,-5.93 -0.32,-11.86 -0.27,-17.79c0.04,-5.93 0.24,-11.86 0.48,-17.79c0.01,-0.16 -0.02,-0.33 -0.08,-0.48c-0.05,-0.15 -0.14,-0.29 -0.26,-0.41c-0.11,-0.12 -0.25,-0.21 -0.4,-0.28c-0.15,-0.06 -0.31,-0.09 -0.47,-0.09zM141.26,304.18c-0.34,0.02 -0.67,0.16 -0.91,0.41c-0.24,0.24 -0.39,0.56 -0.41,0.9c-0.18,5.96 -0.33,11.92 -0.36,17.88c-0.04,5.96 0.05,11.91 0.19,17.87c0.02,0.35 0.16,0.67 0.41,0.92c0.24,0.24 0.57,0.39 0.91,0.41c0.17,0.01 0.33,-0.01 0.49,-0.07c0.15,-0.05 0.29,-0.14 0.41,-0.25c0.12,-0.12 0.22,-0.25 0.28,-0.41c0.06,-0.15 0.09,-0.31 0.09,-0.48c-0.09,-5.99 -0.16,-11.97 -0.13,-17.96c0.04,-5.99 0.14,-11.98 0.27,-17.97c0.01,-0.16 -0.02,-0.33 -0.08,-0.48c-0.06,-0.15 -0.15,-0.29 -0.27,-0.41c-0.12,-0.12 -0.26,-0.21 -0.41,-0.27c-0.15,-0.06 -0.32,-0.09 -0.48,-0.09zM146.61,304.04c-0.34,0.01 -0.66,0.16 -0.9,0.41c-0.24,0.24 -0.37,0.57 -0.38,0.91c-0.07,6.03 -0.13,12.05 -0.16,18.08c-0.02,6.02 0,12.05 0.05,18.08c0.01,0.35 0.15,0.68 0.39,0.93c0.24,0.24 0.56,0.39 0.91,0.42c0.17,0.01 0.33,-0.02 0.49,-0.08c0.16,-0.05 0.3,-0.14 0.42,-0.26c0.12,-0.11 0.22,-0.25 0.28,-0.4c0.07,-0.16 0.1,-0.32 0.1,-0.49c0,-6.06 0.01,-12.11 0.02,-18.17c0.01,-6.06 0.03,-12.11 0.05,-18.16c0,-0.17 -0.03,-0.34 -0.09,-0.49c-0.06,-0.16 -0.15,-0.3 -0.27,-0.42c-0.12,-0.12 -0.26,-0.21 -0.42,-0.27c-0.15,-0.07 -0.32,-0.1 -0.49,-0.09z" fill="#DBABAB"/>
<path id="Vector_555" fill-rule="evenodd" clip-rule="evenodd" d="M161.96,341.98c0.88,-13.13 1,-25.5 0.15,-38.87c-0.16,-2.52 -2.05,-4.57 -4.54,-4.59l-19.1,-0.16c0.99,-0.13 1.99,-0.19 2.99,-0.19l20.28,0.17c1.86,0.57 3.16,2.34 3.3,4.43c0.85,13.45 0.72,25.87 -0.15,39.07c-0.16,2.54 -2.05,4.32 -4.47,4.94c-0.48,0.12 -1.06,0.25 -1.7,0.38c-1.52,0.19 -3.15,0.35 -4.8,0.45c1.41,-0.23 2.64,-0.47 3.56,-0.71c2.43,-0.62 4.3,-2.4 4.48,-4.92z" fill="#E5C1C1"/>
<path id="Vector_556" fill-rule="evenodd" clip-rule="evenodd" d="M158.88,280.73v17.58l1.71,0.01v-17.59zM147.88,280.73v17.48l1.71,0.02v-17.5z" fill="#E9CCCC"/>
<path id="Vector_557" fill-rule="evenodd" clip-rule="evenodd" d="M159.86,276.1l-11.2,0.27c-0.34,0 -0.67,0.14 -0.91,0.38c-0.24,0.24 -0.38,0.57 -0.38,0.91v3.07h2.78v-0.59c0,-0.4 0.16,-0.78 0.44,-1.06c0.28,-0.28 0.66,-0.44 1.06,-0.44h4.93c0.4,0 0.78,0.15 1.06,0.44c0.28,0.28 0.44,0.66 0.44,1.06v0.59h3.08v-3.34c0,-0.17 -0.03,-0.34 -0.1,-0.49c-0.06,-0.16 -0.16,-0.3 -0.28,-0.42c-0.12,-0.13 -0.26,-0.22 -0.42,-0.28c-0.16,-0.07 -0.33,-0.1 -0.5,-0.1z" fill="#DBABAB"/>
<path id="Vector_558" fill-rule="evenodd" clip-rule="evenodd" d="M148.8,298.22v-17.49h0.8v17.5h-0.8zM159.85,298.32h0.75v-17.59h-0.75z" fill="#DBABAB"/>
<path id="Vector_559" fill-rule="evenodd" clip-rule="evenodd" d="M155.76,347.77c-0.95,0 -2.5,0 -2.54,2.76c-0.05,2.76 1.59,2.56 2.54,2.56c0.95,0 1.72,-1.19 1.72,-2.66c0,-1.47 -0.77,-2.66 -1.72,-2.66z" fill="#D7A0A0"/>
<path id="Vector_560" fill-rule="evenodd" clip-rule="evenodd" d="M162.09,346.85c-0.73,0 -1.89,0 -1.93,2.09c-0.03,2.1 1.21,1.94 1.93,1.94c0.71,0 1.3,-0.9 1.3,-2.01c0,-1.12 -0.58,-2.02 -1.3,-2.02z" fill="#D7A0A0"/>
<path id="Vector_561" fill-rule="evenodd" clip-rule="evenodd" d="M142.95,347.45c-0.16,0.37 -0.23,0.77 -0.22,1.17c-0.03,1.89 1.08,1.74 1.73,1.74c0.65,0 1.18,-0.81 1.18,-1.81c0,-0.35 -0.06,-0.69 -0.19,-1.01c-0.83,-0.02 -1.66,-0.05 -2.5,-0.09z" fill="#D7A0A0"/>
<path id="Vector_562" fill-rule="evenodd" clip-rule="evenodd" d="M138.72,347.14c-0.9,0 -2.36,0 -2.4,2.62c-0.03,2.62 1.5,2.42 2.4,2.42c0.9,0 1.64,-1.13 1.64,-2.52c0,-1.39 -0.73,-2.52 -1.64,-2.52z" fill="#D7A0A0"/>
<path id="Vector_563" fill-rule="evenodd" clip-rule="evenodd" d="M155.77,348.97c-0.53,0 -0.95,0.65 -0.95,1.45c0,0.81 0.42,1.46 0.95,1.46c0.52,0 0.94,-0.65 0.94,-1.46c0,-0.8 -0.42,-1.45 -0.94,-1.45z" fill="#E9CCCC"/>
<path id="Vector_564" fill-rule="evenodd" clip-rule="evenodd" d="M162.08,347.76c-0.39,0 -0.71,0.5 -0.71,1.11c0,0.61 0.32,1.1 0.71,1.1c0.4,0 0.72,-0.5 0.72,-1.1c0,-0.61 -0.32,-1.11 -0.72,-1.11z" fill="#E9CCCC"/>
<path id="Vector_565" fill-rule="evenodd" clip-rule="evenodd" d="M144.46,347.55c-0.35,0 -0.64,0.45 -0.64,1c0,0.55 0.29,0.99 0.64,0.99c0.35,0 0.64,-0.44 0.64,-0.99c0,-0.55 -0.28,-1 -0.64,-1z" fill="#E9CCCC"/>
<path id="Vector_566" fill-rule="evenodd" clip-rule="evenodd" d="M138.72,348.28c-0.5,0 -0.9,0.62 -0.9,1.38c0,0.76 0.4,1.38 0.9,1.38c0.49,0 0.9,-0.62 0.9,-1.38c0,-0.76 -0.4,-1.38 -0.9,-1.38z" fill="#E9CCCC"/>
<path id="Vector_567" fill-rule="evenodd" clip-rule="evenodd" d="M160.6,280.73h-2.52v-0.59c0,-0.4 -0.16,-0.78 -0.44,-1.06c-0.28,-0.29 -0.66,-0.44 -1.06,-0.44h-4.93c-0.39,0 -0.76,0.15 -1.04,0.42c-0.28,0.27 -0.44,0.64 -0.46,1.02v-0.34c0,-0.4 0.17,-0.78 0.45,-1.06c0.28,-0.28 0.67,-0.44 1.07,-0.44h4.96c0.4,0 0.78,0.16 1.07,0.44c0.28,0.28 0.44,0.66 0.44,1.06v0.59h3.02v0.4zM150.15,280.33v0.4h-2.78v-0.4z" fill="#D7A0A0"/>
<path id="Vector_568" fill-rule="evenodd" clip-rule="evenodd" d="M159.16,270.74c0,0 -2.25,2.62 -2.49,3.98c-0.25,1.36 -0.12,5 0.57,5.13c0.74,0.14 1.18,-2.39 1.42,-2.89c0.8,-1.67 2.38,-0.89 2.59,-1.49c0.21,-0.6 0.42,-3.47 0.42,-3.47z" fill="#FFB27D"/>
<path id="Vector_569" fill-rule="evenodd" clip-rule="evenodd" d="M186.87,213.56c1.29,0.02 2.01,-0.11 3.27,-0.4c0.5,-0.13 -0.53,3.75 -3.34,0.6c-0.07,-0.06 -0.03,-0.2 0.07,-0.2z" fill="#EC7D63"/>
<path id="Vector_570" fill-rule="evenodd" clip-rule="evenodd" d="M188.2,207.54c0.61,0.16 0.48,0.65 0,0.67c-5.1,0.22 -1.49,-1.11 0,-0.67z" fill="#404040"/>
<path id="Vector_571" fill-rule="evenodd" clip-rule="evenodd" d="M190.09,207c-0.58,0.22 -0.4,0.69 0.08,0.67c5.1,-0.25 1.39,-1.24 -0.08,-0.67z" fill="#404040"/>
<path id="Vector_572" fill-rule="evenodd" clip-rule="evenodd" d="M190.41,212.32l0.03,-0.01c0.5,-0.25 0.76,-0.39 0.82,-0.62c0.05,-0.22 -0.1,-0.39 -0.36,-0.72c-0.47,-0.6 -0.89,-1.24 -1.23,-1.91c-0.02,-0.04 -0.05,-0.06 -0.08,-0.07c-0.04,-0.02 -0.08,-0.01 -0.11,0c-0.02,0.01 -0.04,0.03 -0.05,0.04c-0.01,0.01 -0.02,0.03 -0.03,0.05c0,0.02 0,0.04 0,0.06c0,0.01 0.01,0.03 0.02,0.05c0.34,0.69 0.76,1.35 1.25,1.96c0.17,0.22 0.32,0.41 0.3,0.48c-0.02,0.1 -0.38,0.27 -0.66,0.42c-0.03,0.01 -0.06,0.04 -0.07,0.07c-0.01,0.04 -0.01,0.07 0,0.11c0.01,0.03 0.04,0.06 0.07,0.07c0.03,0.02 0.06,0.02 0.1,0.02z" fill="#EC7D63"/>
<path id="Vector_573" fill-rule="evenodd" clip-rule="evenodd" d="M190.76,209.87c0.36,-0.03 0.49,-1.42 -0.38,-1.33c-0.45,0.05 -0.2,1.4 0.38,1.33z" fill="#404040"/>
<path id="Vector_574" fill-rule="evenodd" clip-rule="evenodd" d="M188.02,210.39c0.36,-0.04 0.49,-1.43 -0.37,-1.34c-0.47,0.05 -0.22,1.4 0.37,1.34z" fill="#404040"/>
<path id="Vector_575" fill-rule="evenodd" clip-rule="evenodd" d="M186.94,213.63c-0.44,0.48 2.52,0.51 3.04,0.04c0.06,-0.05 0.24,-0.32 0.18,-0.41c-0.06,-0.08 -0.41,0.07 -0.5,0.09c-0.89,0.23 -1.8,0.32 -2.72,0.28z" fill="#FEFEFE"/>
<path id="Vector_576" fill-rule="evenodd" clip-rule="evenodd" d="M387.34,21.36l3.84,0.39c0.66,0.07 1.27,0.4 1.69,0.92c0.43,0.52 0.63,1.18 0.56,1.85l-0.25,2.44c1.55,0.72 2.95,1.73 4.12,2.97l2.24,-1c0.61,-0.28 1.31,-0.29 1.93,-0.06c0.63,0.24 1.13,0.72 1.41,1.33l1.58,3.52c0.27,0.61 0.29,1.3 0.05,1.93c-0.24,0.62 -0.71,1.13 -1.32,1.4l-2.24,1.01c0.07,0.85 0.07,1.7 -0.02,2.55c-0.09,0.85 -0.25,1.68 -0.5,2.5l1.99,1.44c0.54,0.39 0.9,0.99 1.01,1.64c0.1,0.66 -0.05,1.34 -0.44,1.88l-2.26,3.11c-0.39,0.54 -0.98,0.91 -1.64,1.02c-0.66,0.1 -1.34,-0.06 -1.88,-0.45l-1.99,-1.44c-1.4,0.98 -2.98,1.69 -4.64,2.09l-0.25,2.43c-0.07,0.67 -0.4,1.28 -0.92,1.7c-0.52,0.42 -1.18,0.62 -1.84,0.55l-3.83,-0.38c-0.67,-0.07 -1.28,-0.4 -1.7,-0.92c-0.42,-0.52 -0.62,-1.18 -0.56,-1.85l0.25,-2.43c-1.55,-0.73 -2.95,-1.74 -4.12,-2.98l-2.24,1c-0.61,0.28 -1.31,0.29 -1.93,0.06c-0.63,-0.24 -1.13,-0.71 -1.41,-1.32l-1.57,-3.52c-0.28,-0.61 -0.3,-1.31 -0.06,-1.93c0.24,-0.63 0.71,-1.13 1.32,-1.41l2.24,-1c-0.07,-0.86 -0.06,-1.71 0.03,-2.56c0.08,-0.85 0.25,-1.69 0.49,-2.51l-1.99,-1.44c-0.54,-0.39 -0.9,-0.98 -1.01,-1.64c-0.1,-0.66 0.06,-1.34 0.44,-1.88l2.26,-3.13c0.39,-0.53 0.98,-0.9 1.64,-1c0.66,-0.11 1.34,0.05 1.88,0.44l1.99,1.44c1.4,-0.98 2.97,-1.69 4.64,-2.08l0.25,-2.44c0.07,-0.66 0.39,-1.27 0.91,-1.7c0.52,-0.42 1.19,-0.62 1.85,-0.55zM378.1,23.38l-6.09,-7.57l-6.09,-7.58l-2.27,4.3c-0.89,-0.43 -1.8,-0.84 -2.73,-1.23c-11,-4.55 -23.24,-5.16 -34.63,-1.7c-11.4,3.46 -21.24,10.76 -27.85,20.66c-6.61,9.91 -9.59,21.79 -8.42,33.64c1.18,11.85 6.42,22.93 14.85,31.34l0.44,0.44l4.12,-3.14c-0.32,-0.3 -0.64,-0.61 -0.94,-0.92c-7.57,-7.58 -12.28,-17.56 -13.32,-28.22c-1.04,-10.66 1.64,-21.36 7.59,-30.26c5.95,-8.91 14.8,-15.49 25.05,-18.6c10.25,-3.12 21.26,-2.6 31.17,1.49c0.77,0.32 1.54,0.66 2.29,1.02l-2.56,4.85l9.69,0.74l9.69,0.74zM310.64,97.04l9.68,0.74l9.69,0.73l-2.43,4.64c7.75,2.4 16,2.72 23.91,0.92c7.91,-1.79 15.22,-5.64 21.17,-11.15l3.2,4.02c-6.74,6.12 -14.98,10.35 -23.89,12.24c-8.91,1.9 -18.16,1.4 -26.81,-1.44l-2.34,4.44l-6.08,-7.57l-6.09,-7.57zM352.08,48.04c2.5,2.51 4.06,5.8 4.4,9.32c0.35,3.52 -0.54,7.06 -2.5,10c-1.97,2.94 -4.89,5.11 -8.28,6.14c-3.39,1.03 -7.03,0.85 -10.3,-0.51c-3.27,-1.35 -5.96,-3.8 -7.63,-6.92c-1.67,-3.12 -2.21,-6.72 -1.52,-10.19c0.69,-3.47 2.57,-6.6 5.3,-8.84c2.74,-2.25 6.17,-3.48 9.71,-3.48c2.01,0 4,0.39 5.85,1.16c1.86,0.77 3.55,1.9 4.97,3.32zM325.51,34.36l-3.1,-3.09c-0.47,-0.48 -1.12,-0.75 -1.79,-0.75c-0.68,0 -1.32,0.27 -1.8,0.75l-1.28,1.28l-2.61,2.61l-1.28,1.28c-0.47,0.48 -0.74,1.12 -0.74,1.79c0,0.68 0.27,1.32 0.74,1.8l3.1,3.1c-1.88,2.92 -3.22,6.15 -3.96,9.55h-4.38c-0.67,0 -1.32,0.27 -1.79,0.74c-0.48,0.48 -0.75,1.13 -0.75,1.8v7.3c0,0.67 0.27,1.32 0.74,1.79c0.48,0.48 1.13,0.75 1.8,0.75h4.38c0.74,3.4 2.08,6.63 3.96,9.55l-3.1,3.1c-0.47,0.48 -0.74,1.12 -0.74,1.8c0,0.67 0.27,1.31 0.74,1.79l1.28,1.28l2.61,2.62l1.28,1.28c0.48,0.47 1.12,0.74 1.8,0.74c0.67,0 1.32,-0.27 1.79,-0.74l3.1,-3.12c2.92,1.88 6.16,3.22 9.55,3.95v4.38c0,0.68 0.27,1.32 0.75,1.8c0.47,0.47 1.12,0.74 1.79,0.74h7.3c0.67,0 1.32,-0.27 1.8,-0.74c0.47,-0.48 0.74,-1.12 0.74,-1.8v-4.38c3.4,-0.73 6.63,-2.07 9.55,-3.95l3.1,3.09c0.48,0.48 1.12,0.75 1.8,0.75c0.67,0 1.32,-0.27 1.79,-0.75l1.28,-1.28l2.62,-2.61l1.28,-1.28c0.47,-0.48 0.74,-1.12 0.74,-1.8c0,-0.67 -0.27,-1.32 -0.74,-1.79l-3.1,-3.1c1.88,-2.92 3.22,-6.16 3.96,-9.55h4.38c0.67,0 1.32,-0.27 1.79,-0.75c0.48,-0.47 0.75,-1.12 0.75,-1.79v-7.29c0,-0.67 -0.27,-1.32 -0.75,-1.8c-0.47,-0.47 -1.12,-0.74 -1.79,-0.74h-4.39c-0.73,-3.4 -2.07,-6.63 -3.95,-9.55l3.1,-3.1c0.47,-0.48 0.74,-1.12 0.74,-1.8c0,-0.67 -0.27,-1.31 -0.74,-1.79l-1.28,-1.28l-2.61,-2.61l-1.28,-1.28c-0.48,-0.48 -1.13,-0.75 -1.8,-0.75c-0.67,0 -1.32,0.27 -1.8,0.75l-3.09,3.09c-2.93,-1.88 -6.17,-3.21 -9.56,-3.94v-4.39c-0.01,-0.67 -0.28,-1.31 -0.75,-1.79c-0.48,-0.48 -1.12,-0.74 -1.79,-0.75h-7.3c-0.68,0.01 -1.32,0.27 -1.8,0.75c-0.48,0.48 -0.74,1.12 -0.75,1.8v4.38c-3.39,0.73 -6.62,2.07 -9.54,3.95zM341.25,37.81c4.87,0 9.59,1.69 13.35,4.78c3.76,3.09 6.34,7.39 7.29,12.17c0.95,4.77 0.21,9.73 -2.08,14.02c-2.3,4.3 -6.01,7.66 -10.51,9.52c-4.5,1.87 -9.5,2.11 -14.16,0.7c-4.66,-1.42 -8.69,-4.4 -11.39,-8.45c-2.71,-4.05 -3.92,-8.91 -3.45,-13.76c0.48,-4.84 2.62,-9.37 6.07,-12.81c1.95,-1.96 4.27,-3.51 6.82,-4.57c2.56,-1.06 5.3,-1.6 8.06,-1.6zM390.15,58.34l4.6,-0.62c0.8,-0.1 1.61,0.11 2.25,0.6c0.64,0.49 1.06,1.21 1.17,2.01l0.39,2.92c2.02,0.41 3.94,1.2 5.66,2.33l2.34,-1.8c0.63,-0.49 1.44,-0.71 2.24,-0.61c0.8,0.1 1.52,0.52 2.02,1.15l2.83,3.68c0.49,0.63 0.71,1.44 0.61,2.24c-0.11,0.8 -0.52,1.52 -1.16,2.02l-2.33,1.8c0.32,0.97 0.55,1.98 0.69,2.99c0.14,1.02 0.18,2.05 0.12,3.07l2.73,1.13c0.75,0.3 1.34,0.89 1.65,1.63c0.31,0.75 0.31,1.58 0.01,2.33l-1.76,4.29c-0.31,0.75 -0.9,1.34 -1.64,1.65c-0.75,0.31 -1.58,0.31 -2.33,0l-2.73,-1.12c-1.36,1.55 -3.01,2.82 -4.84,3.74l0.39,2.93c0.11,0.8 -0.11,1.6 -0.6,2.24c-0.49,0.64 -1.21,1.06 -2.01,1.17l-4.59,0.62c-0.8,0.11 -1.61,-0.11 -2.25,-0.59c-0.64,-0.49 -1.06,-1.22 -1.17,-2.01l-0.39,-2.92c-2.02,-0.42 -3.94,-1.21 -5.66,-2.34l-2.33,1.81c-0.64,0.49 -1.45,0.71 -2.25,0.61c-0.8,-0.11 -1.52,-0.52 -2.02,-1.16l-2.83,-3.68c-0.49,-0.64 -0.71,-1.45 -0.61,-2.24c0.1,-0.8 0.52,-1.53 1.16,-2.02l2.33,-1.8c-0.32,-0.98 -0.55,-1.98 -0.69,-3c-0.14,-1.01 -0.18,-2.04 -0.12,-3.07l-2.73,-1.12c-0.74,-0.3 -1.33,-0.89 -1.64,-1.63c-0.32,-0.74 -0.32,-1.58 -0.02,-2.33l1.76,-4.29c0.31,-0.74 0.9,-1.33 1.64,-1.64c0.75,-0.31 1.58,-0.32 2.33,-0.01l2.73,1.12c1.36,-1.54 3,-2.81 4.84,-3.74l-0.39,-2.92c-0.11,-0.8 0.1,-1.61 0.59,-2.25c0.49,-0.64 1.21,-1.06 2.01,-1.17zM395.3,71.74c-1.48,0 -2.92,0.44 -4.15,1.26c-1.23,0.83 -2.19,1.99 -2.76,3.36c-0.56,1.37 -0.71,2.87 -0.42,4.32c0.29,1.45 1,2.79 2.04,3.83c1.05,1.05 2.38,1.76 3.84,2.05c1.45,0.29 2.95,0.14 4.32,-0.43c1.36,-0.56 2.53,-1.52 3.35,-2.75c0.83,-1.23 1.26,-2.68 1.26,-4.16c0,-0.98 -0.19,-1.96 -0.57,-2.86c-0.37,-0.91 -0.92,-1.73 -1.62,-2.43c-0.69,-0.69 -1.52,-1.24 -2.42,-1.62c-0.91,-0.37 -1.88,-0.57 -2.87,-0.57zM387.46,33.01c-1.23,0 -2.43,0.37 -3.45,1.05c-1.02,0.68 -1.82,1.65 -2.29,2.79c-0.47,1.13 -0.59,2.38 -0.35,3.59c0.24,1.2 0.83,2.31 1.7,3.18c0.87,0.87 1.97,1.46 3.18,1.7c1.21,0.24 2.45,0.12 3.59,-0.36c1.13,-0.47 2.11,-1.26 2.79,-2.28c0.68,-1.03 1.04,-2.23 1.04,-3.46c0,-0.81 -0.16,-1.62 -0.47,-2.38c-0.31,-0.75 -0.77,-1.43 -1.35,-2.01c-0.58,-0.58 -1.26,-1.04 -2.02,-1.35c-0.75,-0.31 -1.56,-0.47 -2.38,-0.47z" fill="#FFCACA"/>
<path id="Vector_577" fill-rule="evenodd" clip-rule="evenodd" d="M363.3,330.02l4.84,-4.83l4.83,4.83l-4.83,4.84z" fill="#BC5D59"/>
<path id="Vector_578" fill-rule="evenodd" clip-rule="evenodd" d="M368.14,332.1l-2.08,-2.08l2.08,-2.07l2.07,2.07z" fill="#E7A084"/>
<path id="Vector_579" fill-rule="evenodd" clip-rule="evenodd" d="M362.25,268.09c0,0 1.6,-19.93 -11.47,-24.27c0,0 1.88,10.4 11.47,24.27z" fill="#F0DCDC"/>
<path id="Vector_580" fill-rule="evenodd" clip-rule="evenodd" d="M371.84,265.91c0,0 11.85,-8.11 24.55,1.27c0,0 -1.36,-8.72 -11.34,-9.98c-9.98,-1.26 -13.21,8.71 -13.21,8.71z" fill="#E5C1C1"/>
<path id="Vector_581" fill-rule="evenodd" clip-rule="evenodd" d="M360.49,297.98c0,0 0.37,-7.34 -4.76,-10.93c-7.06,-4.94 -12.24,0.5 -12.24,0.5c0,0 12.48,2.33 17,10.43z" fill="#E5C1C1"/>
<path id="Vector_582" fill-rule="evenodd" clip-rule="evenodd" d="M370.69,295.54c0,0 4.11,-10.72 13.5,-7c0,0 -4.62,2.92 -13.5,7z" fill="#E5C1C1"/>
<path id="Vector_583" fill-rule="evenodd" clip-rule="evenodd" d="M370.52,313.69c0,0 4.8,-5.68 10.22,-3.13c0,0 -0.3,2.81 -10.22,3.13z" fill="#F0DCDC"/>
<path id="Vector_584" fill-rule="evenodd" clip-rule="evenodd" d="M358.82,312.57c0,0 -4.25,-5.99 -9.16,-3.07c0,0 -0.33,0.83 3.19,1.26c2.08,0.25 4.1,0.86 5.97,1.81z" fill="#E5C1C1"/>
<path id="Vector_585" fill-rule="evenodd" clip-rule="evenodd" d="M378.14,275.67c0,0 6.82,-6.53 14.38,-0.2c0,0 -7.46,0.76 -14.38,0.2z" fill="#E5C1C1"/>
<path id="Vector_586" fill-rule="evenodd" clip-rule="evenodd" d="M371.19,277.5c0,0 -0.33,-6.17 5.04,-7.4c0.01,0 -0.99,5.21 -5.04,7.4z" fill="#F0DCDC"/>
<path id="Vector_587" fill-rule="evenodd" clip-rule="evenodd" d="M374.02,280.34c0,0 4.9,-3.11 10.5,1.17c0,0 -4.3,1.76 -10.5,-1.17z" fill="#E5C1C1"/>
<path id="Vector_588" fill-rule="evenodd" clip-rule="evenodd" d="M353.97,271.89c0,0 -4.27,-8.85 -14.65,-5.24c0,0 4.08,4.92 14.65,5.24z" fill="#F0DCDC"/>
<path id="Vector_589" fill-rule="evenodd" clip-rule="evenodd" d="M359.94,275.63c0,0 2.49,-4.21 -1.19,-8.78c0,0 -2.24,4.73 1.19,8.78z" fill="#E5C1C1"/>
<path id="Vector_590" fill-rule="evenodd" clip-rule="evenodd" d="M356.13,278.59c0,0 -7.26,-4.67 -14.33,0.47c0,0 6.34,4.24 14.33,-0.47z" fill="#E5C1C1"/>
<path id="Vector_591" fill-rule="evenodd" clip-rule="evenodd" d="M366.59,273.71c0,0 -3.95,-7.02 2.05,-12.32c0,0 1.88,5.66 -2.05,12.32z" fill="#E5C1C1"/>
<path id="Vector_592" fill-rule="evenodd" clip-rule="evenodd" d="M364.99,261.81c0,0 -0.92,-13.89 10.55,-17.31c0,0 -2.22,9.95 -10.55,17.31z" fill="#E5C1C1"/>
<path id="Vector_593" fill-rule="evenodd" clip-rule="evenodd" d="M355.97,270.52c0,0 2.75,-6.72 -0.27,-11.83c0,0 -4.19,5.58 0.27,11.83z" fill="#E5C1C1"/>
<path id="Vector_594" fill-rule="evenodd" clip-rule="evenodd" d="M369.06,302.66c0,0 2.8,-6.59 12.18,-3.84c0,0 -2.34,3.63 -12.18,3.84z" fill="#E5C1C1"/>
<path id="Vector_595" fill-rule="evenodd" clip-rule="evenodd" d="M367.67,297.12c0,0 -2.67,-7.22 2.93,-10.97c0,0 1.53,5.04 -2.93,10.97z" fill="#F0DCDC"/>
<path id="Vector_596" fill-rule="evenodd" clip-rule="evenodd" d="M356.36,304.25c0,0 -3.62,-7.15 -12.07,-3.84c0,0 3.57,4.68 12.07,3.84z" fill="#F0DCDC"/>
<path id="Vector_597" fill-rule="evenodd" clip-rule="evenodd" d="M359.52,304.5c0,0 -1.63,-2.99 -5.57,-6.47c0,0 5.3,-1.84 5.57,6.47z" fill="#F0DCDC"/>
<path id="Vector_598" fill-rule="evenodd" clip-rule="evenodd" d="M367.28,312.52c0,0 0.07,-6.73 7.2,-7.33c0,0 -0.77,4.45 -7.2,7.33z" fill="#E5C1C1"/>
<path id="Vector_599" fill-rule="evenodd" clip-rule="evenodd" d="M360.45,322.33c0,0 -1.9,-5.73 -9.26,-3.87c0,0 1.68,4.02 9.26,3.87z" fill="#E5C1C1"/>
<path id="Vector_600" fill-rule="evenodd" clip-rule="evenodd" d="M367.91,323.13c0,0 1.56,-5.47 8.06,-4.77c0,0 -0.43,4.54 -8.06,4.77z" fill="#E5C1C1"/>
<path id="Vector_601" fill-rule="evenodd" clip-rule="evenodd" d="M365.74,289.05l-0.07,-0.02l0.07,0.01zM391.88,262.44c-1.26,-0.82 -2.62,-1.48 -4.04,-1.97c-1.35,-0.47 -2.76,-0.78 -4.19,-0.9c-1.63,-0.13 -3.28,0.05 -4.85,0.55c-4.54,1.46 -8.06,5.63 -10.45,12.38c-0.5,1.42 -0.92,2.86 -1.26,4.32c-0.1,-0.68 -0.22,-1.78 -0.29,-3.11c-0.11,-2.1 -0.07,-5.21 0.68,-8.15c0,-0.02 0,-0.04 0,-0.07c0,-0.02 -0.01,-0.04 -0.02,-0.06c-0.01,-0.02 -0.03,-0.03 -0.05,-0.04c-0.01,-0.02 -0.03,-0.03 -0.05,-0.03c-0.02,-0.01 -0.05,-0.01 -0.07,-0.01c-0.02,0.01 -0.04,0.01 -0.06,0.03c-0.02,0.01 -0.03,0.02 -0.05,0.04c-0.01,0.02 -0.02,0.04 -0.02,0.06c-0.76,2.98 -0.79,6.13 -0.69,8.24c0.06,1.32 0.2,2.62 0.42,3.92l0.01,0.04c-0.87,3.93 -1.44,8.57 -1.72,13.86c-0.28,5.34 -0.26,11.35 0.07,17.91c-0.04,0.19 -0.07,0.38 -0.1,0.58c-0.57,3.85 -0.82,7.75 -0.75,11.65c0.06,3.07 0.28,5.11 0.28,5.13c0,0.04 0.02,0.07 0.05,0.1c0.03,0.03 0.07,0.04 0.11,0.04h0.02c0.02,0 0.04,0 0.06,-0.01c0.02,-0.01 0.04,-0.03 0.05,-0.04c0.02,-0.02 0.03,-0.04 0.03,-0.06c0.01,-0.02 0.01,-0.05 0.01,-0.07c0,-0.02 -0.22,-2.04 -0.28,-5.1c-0.07,-3.54 0.13,-7.09 0.6,-10.6c0.03,0.61 0.07,1.23 0.11,1.85c0.18,2.82 0.4,5.53 0.64,8.05c-0.19,1.06 -0.29,2.13 -0.3,3.2c-0.03,1.5 0.11,2.99 0.4,4.45c0.01,0.04 0.03,0.07 0.06,0.09c0.03,0.03 0.06,0.04 0.1,0.04h0.04c0.02,0 0.04,-0.01 0.06,-0.03c0.02,-0.01 0.03,-0.02 0.04,-0.04c0.01,-0.02 0.02,-0.04 0.03,-0.06c0,-0.03 0,-0.05 -0.01,-0.07c-0.28,-1.44 -0.42,-2.9 -0.39,-4.37c0,-0.55 0.04,-1.16 0.1,-1.8c0.1,0.96 0.2,1.88 0.29,2.77c-0.15,0.32 -0.23,0.53 -0.23,0.55c-0.01,0.02 -0.01,0.04 -0.01,0.06c0,0.02 0,0.04 0.01,0.06c0.01,0.02 0.02,0.04 0.04,0.06c0.02,0.01 0.03,0.02 0.06,0.03c0.01,0.01 0.03,0.01 0.05,0.01c0.03,0 0.07,-0.01 0.1,-0.03c0.02,-0.01 0.05,-0.04 0.06,-0.07c0.77,6.99 1.53,11.7 1.54,11.77c0.01,0.03 0.03,0.07 0.06,0.1c0.03,0.02 0.06,0.04 0.1,0.04h0.03c0.04,-0.01 0.08,-0.04 0.11,-0.07c0.02,-0.04 0.03,-0.08 0.03,-0.13c-0.02,-0.07 -0.82,-5.02 -1.6,-12.32c0.35,-0.72 0.79,-1.4 1.29,-2.03c1,-1.25 2.76,-2.83 5.41,-3.3c0.05,-0.01 0.08,-0.04 0.11,-0.07c0.02,-0.04 0.03,-0.08 0.02,-0.12c0,-0.05 -0.03,-0.08 -0.06,-0.11c-0.04,-0.02 -0.08,-0.03 -0.12,-0.02c-1.21,0.21 -2.37,0.67 -3.39,1.36c-0.84,0.57 -1.59,1.26 -2.23,2.06c-0.41,0.52 -0.78,1.06 -1.1,1.64c-0.12,-1.15 -0.24,-2.35 -0.36,-3.61c0.32,-1.66 0.92,-3.43 2.03,-4.97c1.85,-2.56 4.76,-4.05 8.66,-4.43c0.04,0 0.08,-0.03 0.11,-0.06c0.03,-0.03 0.04,-0.08 0.04,-0.12c-0.01,-0.05 -0.03,-0.09 -0.07,-0.11c-0.03,-0.03 -0.07,-0.04 -0.12,-0.04c-3.99,0.39 -6.98,1.92 -8.89,4.57c-0.87,1.23 -1.5,2.61 -1.86,4.07c-0.04,-0.51 -0.09,-1.02 -0.13,-1.54c0.02,-0.03 0.03,-0.06 0.03,-0.1c0.08,-1.39 0.31,-2.78 0.68,-4.13c0.58,-2.03 1.74,-4.75 4.06,-6.16c0.04,-0.02 0.06,-0.06 0.07,-0.1c0.01,-0.05 0.01,-0.09 -0.02,-0.13c-0.01,-0.02 -0.02,-0.04 -0.04,-0.05c-0.02,-0.01 -0.04,-0.02 -0.06,-0.03c-0.02,0 -0.04,0 -0.06,0c-0.03,0 -0.05,0.01 -0.07,0.02c-1.13,0.72 -2.07,1.7 -2.73,2.86c-0.64,1.1 -1.14,2.28 -1.46,3.5c-0.24,0.86 -0.42,1.72 -0.54,2.6c-0.1,-1.23 -0.19,-2.48 -0.27,-3.75c-0.07,-1.11 -0.14,-2.26 -0.19,-3.44c0.19,-1.15 0.43,-2.33 0.73,-3.53c0.57,-0.92 1.26,-1.75 2.06,-2.49c1.78,-1.71 4.03,-2.84 6.47,-3.27c0.04,0 0.08,-0.03 0.1,-0.06c0.03,-0.04 0.04,-0.08 0.03,-0.13c-0.01,-0.04 -0.03,-0.08 -0.07,-0.1c-0.03,-0.02 -0.08,-0.03 -0.12,-0.03c-1.37,0.23 -2.69,0.69 -3.91,1.36c-0.99,0.55 -1.91,1.22 -2.73,2c-0.57,0.54 -1.1,1.13 -1.57,1.76c1.83,-6.58 5.49,-13.19 12.8,-15.19c0.05,-0.01 0.08,-0.04 0.1,-0.07c0.03,-0.04 0.03,-0.09 0.02,-0.13c-0.01,-0.04 -0.04,-0.08 -0.08,-0.1c-0.04,-0.02 -0.08,-0.03 -0.12,-0.02c-4.16,1.14 -7.53,3.82 -9.99,7.97c-0.49,0.83 -0.93,1.68 -1.33,2.56c-0.16,-1.35 -0.49,-5.44 0.82,-8.73c0.01,-0.02 0.01,-0.04 0.01,-0.07c0,-0.02 0,-0.04 -0.01,-0.06c-0.01,-0.02 -0.02,-0.04 -0.04,-0.05c-0.02,-0.02 -0.03,-0.03 -0.05,-0.04c-0.02,-0.01 -0.05,-0.01 -0.07,-0.01c-0.02,0 -0.04,0 -0.06,0.01c-0.02,0.01 -0.04,0.02 -0.06,0.04c-0.01,0.01 -0.02,0.03 -0.03,0.05c-0.85,2.14 -1.01,4.57 -1,6.25c0,1.05 0.08,2.1 0.23,3.14c0,0.01 0.01,0.03 0.02,0.05c-1,2.39 -1.74,4.89 -2.23,7.44c-0.25,-5.96 -0.3,-12.56 0.16,-18.85c0.03,-0.03 0.06,-0.06 0.07,-0.1c0,-0.01 0.02,-0.03 0.03,-0.06c1.19,-2.8 2.82,-5.38 4.85,-7.65l0.02,-0.01c0.98,-0.4 2.01,-0.67 3.06,-0.83c2.47,-0.38 5.01,-0.2 7.4,0.54c0.02,0 0.04,0.01 0.07,0c0.02,0 0.04,0 0.06,-0.01c0.02,-0.01 0.03,-0.03 0.05,-0.04c0.01,-0.02 0.02,-0.04 0.03,-0.06c0.01,-0.02 0.01,-0.04 0.01,-0.07c-0.01,-0.02 -0.01,-0.04 -0.02,-0.06c-0.01,-0.02 -0.03,-0.04 -0.04,-0.05c-0.02,-0.01 -0.04,-0.02 -0.06,-0.03c-2.45,-0.76 -5.04,-0.94 -7.57,-0.54c-0.85,0.13 -1.69,0.33 -2.5,0.61c3.21,-3.36 7.96,-6.41 14.63,-6.41h0.1c0.04,0 0.09,-0.02 0.12,-0.05c0.03,-0.03 0.05,-0.07 0.05,-0.12c0,-0.04 -0.02,-0.09 -0.05,-0.12c-0.03,-0.03 -0.08,-0.05 -0.12,-0.05c-3.18,-0.03 -6.32,0.7 -9.15,2.13c-2.22,1.15 -4.23,2.67 -5.93,4.5c0.08,-0.75 0.22,-1.5 0.4,-2.24c0.37,-1.46 1.12,-3.6 2.61,-5.51c0.02,-0.04 0.03,-0.08 0.03,-0.13c-0.01,-0.04 -0.03,-0.08 -0.06,-0.11c-0.02,-0.01 -0.04,-0.02 -0.06,-0.03c-0.02,0 -0.04,-0.01 -0.07,0c-0.02,0 -0.04,0.01 -0.06,0.02c-0.02,0.01 -0.03,0.03 -0.05,0.04c-1.52,1.96 -2.29,4.15 -2.66,5.65c-0.23,0.89 -0.38,1.79 -0.45,2.7c-1.91,2.13 -3.49,4.54 -4.67,7.15c0.47,-5.76 1.37,-11.2 2.93,-15.61c2.35,-6.64 5.8,-10.74 10.24,-12.17c3.34,-1.08 6.64,-0.41 8.82,0.35c1.4,0.47 2.73,1.12 3.98,1.92c0.02,0.01 0.04,0.02 0.06,0.02c0.02,0.01 0.04,0.01 0.06,0c0.02,0 0.04,-0.01 0.06,-0.02c0.02,-0.01 0.04,-0.03 0.05,-0.05c0.01,-0.02 0.02,-0.04 0.03,-0.06c0,-0.02 0,-0.04 -0.01,-0.07c0,-0.02 -0.01,-0.04 -0.02,-0.06c-0.02,-0.02 -0.04,-0.03 -0.06,-0.04z" fill="#DBABAB"/>
<path id="Vector_602" fill-rule="evenodd" clip-rule="evenodd" d="M364.19,293.92c0,-1.27 -0.01,-2.51 -0.04,-3.74c0,-0.02 0.01,-0.04 0.01,-0.06c0,-0.01 0,-0.05 -0.02,-0.12c-0.11,-5.5 -0.41,-10.56 -0.9,-15.13c-0.04,-2.45 0.17,-4.89 0.6,-7.29c0.67,-3.93 2.24,-9.7 5.89,-14.86c0.03,-0.04 0.04,-0.08 0.03,-0.13c-0.01,-0.04 -0.03,-0.08 -0.07,-0.1c-0.04,-0.03 -0.08,-0.04 -0.12,-0.03c-0.05,0.01 -0.09,0.03 -0.11,0.07c-1.68,2.4 -3.03,5.01 -4.03,7.76c-0.86,2.35 -1.51,4.77 -1.92,7.23c-0.29,1.63 -0.47,3.27 -0.56,4.92c-0.22,-1.62 -0.45,-3.16 -0.7,-4.64c-0.75,-4.25 -1.72,-7.96 -2.88,-11.04c-1.28,-3.39 -2.85,-6.08 -4.63,-8c-0.02,-0.02 -0.04,-0.03 -0.06,-0.04c-0.02,-0.01 -0.04,-0.02 -0.06,-0.02c-0.02,0 -0.04,0.01 -0.06,0.01c-0.02,0.01 -0.04,0.02 -0.06,0.04c-0.01,0.01 -0.03,0.03 -0.04,0.05c-0.01,0.02 -0.01,0.04 -0.01,0.06c0,0.03 0,0.05 0.01,0.07c0.01,0.02 0.02,0.04 0.03,0.05c3.36,3.63 5.87,9.98 7.43,18.88c0.38,2.19 0.71,4.54 0.98,7.04c0,0.03 0,0.05 0,0.05c0,0.01 0,0.02 0,0.04c0.42,3.89 0.7,8.14 0.84,12.72c-0.03,-0.13 -0.06,-0.26 -0.09,-0.4c-0.53,-2.27 -1.33,-4.47 -2.36,-6.56c-0.06,-0.11 -0.11,-0.23 -0.16,-0.33c-0.28,-1.14 -1.34,-5.7 -1.59,-9.49c0,-0.03 -0.01,-0.05 -0.02,-0.07c-0.01,-0.02 -0.02,-0.04 -0.04,-0.05c-0.01,-0.02 -0.03,-0.03 -0.05,-0.04c-0.02,0 -0.05,-0.01 -0.07,0c-0.02,0 -0.04,0 -0.06,0.01c-0.02,0.01 -0.04,0.02 -0.06,0.04c-0.01,0.01 -0.02,0.03 -0.03,0.06c-0.01,0.02 -0.01,0.04 -0.01,0.06c0.2,3 0.9,6.47 1.33,8.37c-0.91,-1.59 -1.98,-3.09 -3.2,-4.46c-0.13,-0.38 -1.72,-5.2 -1.9,-9.63c0,-0.02 -0.01,-0.04 -0.02,-0.06c-0.01,-0.03 -0.02,-0.04 -0.04,-0.06c-0.01,-0.01 -0.03,-0.03 -0.05,-0.03c-0.02,-0.01 -0.05,-0.01 -0.07,-0.01c-0.02,0 -0.04,0 -0.06,0.01c-0.02,0.01 -0.04,0.02 -0.06,0.04c-0.01,0.02 -0.02,0.04 -0.03,0.06c-0.01,0.02 -0.01,0.04 -0.01,0.06c0.16,3.63 1.23,7.49 1.71,9.05c-0.35,-0.36 -0.71,-0.72 -1.08,-1.06c-2.8,-2.6 -6.2,-4.51 -10.1,-5.67c-0.02,0 -0.04,0 -0.06,0c-0.03,0 -0.05,0.01 -0.07,0.02c-0.02,0.01 -0.03,0.02 -0.05,0.04c-0.01,0.02 -0.02,0.04 -0.03,0.06c0,0.02 -0.01,0.04 0,0.06c0,0.02 0.01,0.04 0.02,0.06c0.01,0.02 0.02,0.04 0.04,0.05c0.02,0.02 0.04,0.03 0.06,0.03c8.33,2.48 12.81,8 15.15,12.41c-0.92,-0.56 -1.91,-1.01 -2.94,-1.35c-1.32,-0.44 -2.68,-0.73 -4.07,-0.87c-1.84,-0.18 -3.7,-0.14 -5.54,0.14c-0.02,0 -0.04,0.01 -0.06,0.02c-0.02,0.01 -0.03,0.02 -0.05,0.04c-0.01,0.02 -0.02,0.04 -0.02,0.06c-0.01,0.02 -0.01,0.04 0,0.06c0,0.02 0.01,0.05 0.02,0.06c0.01,0.02 0.02,0.04 0.04,0.05c0.02,0.02 0.04,0.03 0.06,0.03c0.02,0.01 0.04,0.01 0.06,0c4.23,-0.61 7.47,0.06 9.44,0.72c2.14,0.72 3.3,1.6 3.31,1.6l0.08,0.06c1.43,2.86 2.37,5.95 2.8,9.12c0.02,1.27 0.04,2.57 0.04,3.89c0.02,6.41 -0.21,12.59 -0.51,17.83c-0.1,-1.3 -0.24,-2.63 -0.43,-3.97c-0.76,-5.69 -2.14,-10.33 -4.09,-13.82c-2.45,-4.38 -5.81,-6.92 -9.99,-7.55c-0.02,-0.01 -0.04,0 -0.06,0c-0.02,0.01 -0.04,0.01 -0.06,0.03c-0.01,0.01 -0.03,0.03 -0.04,0.04c-0.01,0.02 -0.02,0.04 -0.02,0.06c0,0.02 0,0.05 0,0.07c0.01,0.02 0.02,0.04 0.03,0.05c0.01,0.02 0.03,0.03 0.04,0.05c0.02,0.01 0.04,0.01 0.06,0.02c4.07,0.62 7.35,3.1 9.75,7.39c1.93,3.44 3.29,8.05 4.06,13.69c0.16,1.2 0.29,2.4 0.39,3.57c-0.65,-1.29 -1.44,-2.5 -2.37,-3.6c-0.11,-0.13 -0.22,-0.26 -0.32,-0.38c0,-0.02 0,-0.04 0,-0.05c-0.07,-0.88 -0.22,-1.76 -0.46,-2.61c-0.36,-1.34 -1.08,-3.23 -2.46,-4.61c-0.02,-0.02 -0.04,-0.03 -0.06,-0.04c-0.02,-0.01 -0.04,-0.01 -0.06,-0.01c-0.02,0 -0.04,0 -0.06,0.01c-0.02,0.01 -0.04,0.02 -0.06,0.04c-0.01,0.01 -0.02,0.03 -0.03,0.05c-0.01,0.02 -0.02,0.04 -0.02,0.07c0,0.02 0.01,0.04 0.02,0.06c0.01,0.02 0.02,0.04 0.03,0.05c1.33,1.33 2.03,3.16 2.38,4.46c0.19,0.72 0.33,1.45 0.42,2.19c-0.97,-1.03 -2.06,-1.94 -3.24,-2.72c-1.85,-1.19 -3.91,-2.04 -6.07,-2.48c-0.02,-0.01 -0.04,-0.01 -0.07,-0.01c-0.02,0.01 -0.04,0.02 -0.06,0.03c-0.02,0.01 -0.03,0.03 -0.04,0.04c-0.02,0.02 -0.02,0.04 -0.03,0.07c0,0.02 0,0.04 0,0.06c0,0.02 0.01,0.04 0.02,0.06c0.02,0.02 0.03,0.04 0.05,0.05c0.02,0.01 0.04,0.02 0.06,0.02c3.83,0.79 7.28,2.85 9.8,5.85c1.92,2.28 2.68,4.34 2.69,4.36l0.02,0.03c0.05,0.69 0.09,1.36 0.12,2.02c-0.32,4.96 -0.69,8.84 -0.89,10.9c0.01,-0.14 0.01,-0.27 0.02,-0.41c0,-0.02 0,-0.04 0,-0.06c0.02,-0.38 0.04,-0.78 0.04,-1.19c0.03,-1.69 -0.12,-3.38 -0.45,-5.03c-0.4,-1.92 -1.07,-3.57 -1.99,-4.91c-1.63,-2.39 -4.07,-3.84 -7.23,-4.31c-0.02,0 -0.04,0 -0.07,0.01c-0.02,0 -0.04,0.01 -0.05,0.02c-0.02,0.02 -0.04,0.03 -0.05,0.05c-0.01,0.02 -0.02,0.04 -0.02,0.06c0,0.02 0,0.05 0,0.07c0.01,0.02 0.02,0.04 0.03,0.06c0.01,0.01 0.03,0.03 0.05,0.04c0.02,0.01 0.04,0.02 0.06,0.02c3.07,0.46 5.42,1.86 7,4.16c2.04,2.97 2.42,6.94 2.39,9.75c0,0.18 0,0.37 -0.01,0.55c-0.35,-0.64 -0.78,-1.24 -1.27,-1.78c-0.61,-0.7 -1.34,-1.28 -2.14,-1.74c-0.99,-0.56 -2.09,-0.9 -3.23,-1c-0.02,-0.01 -0.04,0 -0.06,0c-0.02,0.01 -0.04,0.02 -0.06,0.03c-0.02,0.02 -0.03,0.03 -0.04,0.05c-0.01,0.02 -0.02,0.04 -0.02,0.06c0,0.03 0,0.05 0.01,0.07c0,0.02 0.01,0.04 0.03,0.06c0.01,0.01 0.03,0.03 0.05,0.04c0.02,0.01 0.04,0.01 0.06,0.02c1.99,0.18 3.83,1.12 5.15,2.62c0.61,0.67 1.11,1.43 1.49,2.26c-0.07,1.42 -0.25,2.83 -0.53,4.22c-0.01,0.02 -0.01,0.04 -0.01,0.06c0.01,0.02 0.02,0.04 0.03,0.06c0.01,0.02 0.02,0.04 0.04,0.05c0.02,0.01 0.04,0.02 0.06,0.02h0.04c0.04,0 0.07,-0.01 0.1,-0.03c0.03,-0.03 0.05,-0.06 0.06,-0.1c0,-0.01 0.19,-0.83 0.34,-2.13c0.02,0.03 0.03,0.05 0.06,0.07c0.02,0.02 0.05,0.03 0.08,0.04h0.02c0.04,0 0.08,-0.02 0.11,-0.04c0.03,-0.03 0.05,-0.07 0.05,-0.11c0.01,-0.07 0.42,-3.68 0.84,-9.32c0.02,1.25 0.02,2.39 0,3.37c-0.07,3.52 -0.3,5.89 -0.3,5.92c0,0.02 0,0.04 0.01,0.06c0,0.02 0.01,0.04 0.03,0.06c0.01,0.02 0.03,0.03 0.05,0.04c0.02,0.01 0.04,0.02 0.06,0.02h0.02c0.04,0 0.08,-0.02 0.11,-0.04c0.03,-0.03 0.04,-0.07 0.05,-0.11c0,-0.02 0.23,-2.4 0.3,-5.94c0.04,-1.79 0.03,-4.09 -0.09,-6.64c0.38,-5.73 0.7,-12.93 0.68,-20.46z" fill="#DBABAB"/>
<path id="Vector_603" fill-rule="evenodd" clip-rule="evenodd" d="M375.56,328.44c0,0.71 -0.01,1.4 -0.03,2.09c-0.02,0.69 -0.04,1.34 -0.07,1.99c-0.04,0.8 -0.1,1.58 -0.16,2.36c-0.19,2.3 -0.47,4.51 -0.84,6.59c-0.62,3.47 -1.47,6.58 -2.51,9.16c-0.35,0.85 -0.7,1.63 -1.08,2.36c-0.04,0.08 -0.09,0.16 -0.13,0.24c-0.31,0.59 -0.66,1.16 -1.03,1.71h-10.54c-0.43,-0.63 -0.81,-1.28 -1.16,-1.95c-0.4,-0.77 -0.76,-1.56 -1.08,-2.36c-1.66,-4.12 -2.85,-9.58 -3.35,-15.75c-0.06,-0.78 -0.11,-1.56 -0.16,-2.36c-0.03,-0.65 -0.06,-1.32 -0.07,-1.99c-0.02,-0.69 -0.03,-1.38 -0.03,-2.09v-0.26c0,-1.02 0.02,-2.03 0.06,-3.02h22.09c0.04,0.99 0.06,2 0.07,3.02z" fill="#F0DCDC"/>
<path id="Vector_604" fill-rule="evenodd" clip-rule="evenodd" d="M375.55,328.44c0,0.71 -0.01,1.4 -0.02,2.09h-22.18c-0.01,-0.69 -0.02,-1.38 -0.02,-2.09v-0.26h22.22z" fill="#E9CCCC"/>
<path id="Vector_605" fill-rule="evenodd" clip-rule="evenodd" d="M375.46,332.52c-0.04,0.79 -0.09,1.58 -0.16,2.35h-21.71c-0.06,-0.77 -0.12,-1.56 -0.16,-2.35z" fill="#E9CCCC"/>
<path id="Vector_606" fill-rule="evenodd" clip-rule="evenodd" d="M371.95,350.63c-0.34,0.84 -0.7,1.63 -1.08,2.35h-12.86c-0.39,-0.76 -0.75,-1.55 -1.07,-2.35z" fill="white"/>
<path id="Vector_607" fill-rule="evenodd" clip-rule="evenodd" d="M372.33,341.63c-5.1,0 -8.32,-3.14 -10.35,-6.76h13.32c-0.1,1.3 -0.24,2.57 -0.4,3.8c-0.13,0.96 -0.27,1.89 -0.43,2.79c-0.71,0.11 -1.42,0.17 -2.14,0.17z" fill="#DFB6B6"/>
<path id="Vector_608" fill-rule="evenodd" clip-rule="evenodd" d="M375.45,332.52h-14.6c-0.28,-0.67 -0.53,-1.34 -0.74,-1.99h15.42c0,-0.18 0.01,-0.36 0.01,-0.54c0,0.18 -0.01,0.36 -0.01,0.54c-0.02,0.67 -0.04,1.33 -0.08,1.99zM375.55,328.18h-16.12c-0.3,-1.25 -0.49,-2.3 -0.59,-3.03h16.64c0.04,1 0.06,2.01 0.07,3.03z" fill="#DFB6B6"/>
<path id="Vector_609" fill-rule="evenodd" clip-rule="evenodd" d="M375.53,330.52h-15.41c-0.27,-0.82 -0.5,-1.62 -0.67,-2.35h16.11v0.27c0,0.53 0,1.04 -0.01,1.56c-0.01,0.17 -0.01,0.35 -0.02,0.52z" fill="white"/>
<path id="Vector_610" fill-rule="evenodd" clip-rule="evenodd" d="M375.3,334.87h-13.31c-0.43,-0.76 -0.81,-1.54 -1.14,-2.35h14.61c-0.02,0.28 -0.03,0.56 -0.05,0.83c-0.03,0.51 -0.07,1.02 -0.11,1.52z" fill="white"/>
<path id="Vector_611" fill-rule="evenodd" clip-rule="evenodd" d="M369.72,354.94h-10.54c-0.43,-0.63 -0.82,-1.28 -1.16,-1.96h12.09c0.21,0.08 0.42,0.16 0.64,0.24c-0.31,0.59 -0.66,1.17 -1.04,1.72zM357.18,351.21c-0.08,-0.19 -0.16,-0.39 -0.24,-0.58c-1.66,-4.12 -2.85,-9.58 -3.35,-15.76c-0.04,-0.47 -0.07,-0.94 -0.1,-1.41c0.03,0.48 0.06,0.94 0.1,1.41h3.8c1.37,5.57 3.93,11.9 8.73,15.76h-9.18c0.08,0.19 0.16,0.39 0.24,0.58zM356.86,332.52h-3.43c-0.03,-0.66 -0.06,-1.32 -0.07,-1.99h3.14c0.11,0.64 0.23,1.3 0.36,1.99zM356.18,328.18h-2.84c0,-1.02 0.02,-2.03 0.06,-3.02h2.49c0.05,0.77 0.14,1.8 0.29,3.02z" fill="#DFB6B6"/>
<path id="Vector_612" fill-rule="evenodd" clip-rule="evenodd" d="M356.5,330.52h-3.15c-0.01,-0.68 -0.02,-1.38 -0.02,-2.09v-0.26h2.84c0.09,0.73 0.2,1.52 0.33,2.35z" fill="#E9CCCC"/>
<path id="Vector_613" fill-rule="evenodd" clip-rule="evenodd" d="M357.39,334.87h-3.8c-0.04,-0.47 -0.07,-0.94 -0.1,-1.41c-0.02,-0.31 -0.04,-0.63 -0.05,-0.94h3.43c0.15,0.76 0.33,1.55 0.52,2.35z" fill="#E9CCCC"/>
<path id="Vector_614" fill-rule="evenodd" clip-rule="evenodd" d="M370.11,352.98h-12.1c-0.29,-0.55 -0.57,-1.15 -0.83,-1.78c-0.08,-0.18 -0.16,-0.38 -0.24,-0.57h9.18c1.2,0.97 2.55,1.77 3.99,2.35z" fill="#E9CCCC"/>
<path id="Vector_615" fill-rule="evenodd" clip-rule="evenodd" d="M214.32,172.83h-11.2c-5.59,0 -10.32,4.63 -10.32,10.22v0.68c0,5.59 4.73,10.12 10.32,10.12h3.63l-2.28,6.02l8.67,-6.02h1.18c2.69,0 5.27,-1.06 7.18,-2.96c1.9,-1.9 2.98,-4.47 2.98,-7.16v-0.68c0,-5.59 -4.57,-10.22 -10.16,-10.22z" fill="#F0DCDC"/>
<path id="Vector_616" fill-rule="evenodd" clip-rule="evenodd" d="M214.2,183.91c0,0.39 0.12,0.78 0.34,1.11c0.22,0.32 0.53,0.58 0.9,0.73c0.36,0.15 0.77,0.19 1.15,0.11c0.39,-0.07 0.75,-0.26 1.03,-0.54c0.28,-0.28 0.47,-0.64 0.54,-1.03c0.08,-0.39 0.04,-0.79 -0.11,-1.15c-0.15,-0.37 -0.41,-0.68 -0.74,-0.9c-0.33,-0.22 -0.71,-0.34 -1.11,-0.34c-0.26,0 -0.52,0.06 -0.76,0.16c-0.25,0.1 -0.47,0.24 -0.65,0.43c-0.19,0.19 -0.34,0.41 -0.44,0.65c-0.1,0.24 -0.15,0.5 -0.15,0.77z" fill="white"/>
<path id="Vector_617" fill-rule="evenodd" clip-rule="evenodd" d="M206.71,183.91c0,0.39 0.12,0.78 0.34,1.11c0.22,0.32 0.53,0.58 0.9,0.73c0.36,0.15 0.76,0.19 1.15,0.11c0.39,-0.07 0.74,-0.26 1.02,-0.54c0.28,-0.28 0.47,-0.64 0.55,-1.03c0.08,-0.38 0.04,-0.79 -0.11,-1.15c-0.15,-0.37 -0.41,-0.68 -0.74,-0.9c-0.33,-0.22 -0.71,-0.34 -1.11,-0.34c-0.26,0 -0.52,0.06 -0.77,0.16c-0.24,0.1 -0.46,0.24 -0.64,0.43c-0.19,0.19 -0.34,0.41 -0.44,0.65c-0.1,0.24 -0.15,0.5 -0.15,0.77z" fill="white"/>
<path id="Vector_618" fill-rule="evenodd" clip-rule="evenodd" d="M199.2,183.91c0,0.39 0.12,0.78 0.34,1.11c0.22,0.33 0.53,0.58 0.9,0.73c0.36,0.15 0.77,0.19 1.15,0.12c0.39,-0.08 0.75,-0.27 1.03,-0.55c0.28,-0.28 0.47,-0.64 0.55,-1.02c0.07,-0.39 0.03,-0.79 -0.12,-1.16c-0.15,-0.36 -0.41,-0.68 -0.73,-0.9c-0.33,-0.22 -0.72,-0.33 -1.11,-0.34c-0.27,0 -0.53,0.06 -0.77,0.16c-0.24,0.1 -0.46,0.24 -0.65,0.43c-0.19,0.19 -0.33,0.41 -0.43,0.65c-0.11,0.24 -0.16,0.5 -0.16,0.77z" fill="white"/>
<path id="Vector_619" fill-rule="evenodd" clip-rule="evenodd" d="M192.88,183.93c0.09,5.4 4.71,9.92 10.24,9.92h3.63l-2.28,6.02l8.67,-6.02h1.18c5.53,0 10.13,-4.52 10.22,-9.92z" fill="#E5C1C1"/>
<path id="Vector_620" fill-rule="evenodd" clip-rule="evenodd" d="M214.2,183.93c0,0.53 0.21,1.04 0.59,1.41c0.37,0.38 0.88,0.59 1.41,0.59c0.53,0 1.04,-0.21 1.42,-0.59c0.37,-0.37 0.58,-0.88 0.58,-1.41z" fill="white"/>
<path id="Vector_621" fill-rule="evenodd" clip-rule="evenodd" d="M206.71,183.93c0,0.53 0.21,1.04 0.59,1.41c0.37,0.38 0.88,0.59 1.41,0.59c0.53,0 1.04,-0.21 1.42,-0.59c0.37,-0.37 0.58,-0.88 0.58,-1.41z" fill="white"/>
<path id="Vector_622" fill-rule="evenodd" clip-rule="evenodd" d="M199.2,183.93c0,0.53 0.21,1.04 0.59,1.41c0.37,0.38 0.88,0.59 1.41,0.59c0.53,0 1.04,-0.21 1.42,-0.59c0.37,-0.37 0.58,-0.88 0.58,-1.41z" fill="white"/>
<path id="Vector_623" fill-rule="evenodd" clip-rule="evenodd" d="M222.94,158.67h12.04c6,0 11.08,4.97 11.08,10.98v0.73c0,6.01 -5.08,10.88 -11.08,10.88h-3.9l2.45,6.47l-9.31,-6.47h-1.28c-6.01,0 -10.92,-4.87 -10.92,-10.88v-0.73c0,-6.01 4.92,-10.98 10.92,-10.98z" fill="#F0DCDC"/>
<path id="Vector_624" fill-rule="evenodd" clip-rule="evenodd" d="M223.06,170.57c0,0.42 -0.12,0.84 -0.36,1.19c-0.23,0.36 -0.57,0.63 -0.96,0.79c-0.4,0.17 -0.83,0.21 -1.24,0.13c-0.42,-0.09 -0.8,-0.29 -1.1,-0.59c-0.31,-0.3 -0.51,-0.69 -0.59,-1.1c-0.09,-0.42 -0.04,-0.85 0.12,-1.24c0.16,-0.4 0.44,-0.73 0.79,-0.97c0.35,-0.24 0.77,-0.36 1.19,-0.36c0.57,0 1.12,0.22 1.52,0.63c0.41,0.4 0.63,0.95 0.63,1.52z" fill="white"/>
<path id="Vector_625" fill-rule="evenodd" clip-rule="evenodd" d="M231.13,170.57c0,0.42 -0.13,0.84 -0.37,1.19c-0.23,0.36 -0.57,0.63 -0.96,0.79c-0.39,0.17 -0.82,0.21 -1.24,0.13c-0.42,-0.09 -0.8,-0.29 -1.1,-0.59c-0.3,-0.3 -0.51,-0.69 -0.59,-1.1c-0.08,-0.42 -0.04,-0.85 0.12,-1.24c0.16,-0.4 0.44,-0.73 0.79,-0.97c0.36,-0.24 0.77,-0.36 1.2,-0.36c0.57,0 1.11,0.23 1.52,0.63c0.4,0.4 0.63,0.95 0.63,1.52z" fill="white"/>
<path id="Vector_626" fill-rule="evenodd" clip-rule="evenodd" d="M239.19,170.57c0,0.42 -0.13,0.84 -0.36,1.19c-0.24,0.36 -0.57,0.63 -0.97,0.79c-0.39,0.17 -0.82,0.21 -1.24,0.13c-0.42,-0.09 -0.8,-0.29 -1.1,-0.59c-0.3,-0.3 -0.51,-0.69 -0.59,-1.1c-0.08,-0.42 -0.04,-0.85 0.12,-1.24c0.17,-0.4 0.44,-0.73 0.8,-0.97c0.35,-0.24 0.76,-0.36 1.19,-0.36c0.57,0 1.12,0.22 1.52,0.63c0.4,0.4 0.63,0.95 0.63,1.52z" fill="white"/>
<path id="Vector_627" fill-rule="evenodd" clip-rule="evenodd" d="M245.99,170.59c-0.1,5.8 -5.07,10.67 -11.01,10.67h-3.89l2.44,6.46l-9.31,-6.46h-1.28c-5.94,0 -10.89,-4.87 -10.99,-10.67z" fill="#E5C1C1"/>
<path id="Vector_628" fill-rule="evenodd" clip-rule="evenodd" d="M223.06,170.59c0.01,0.29 -0.04,0.57 -0.14,0.84c-0.11,0.27 -0.26,0.51 -0.46,0.72c-0.2,0.2 -0.44,0.37 -0.71,0.48c-0.26,0.11 -0.55,0.17 -0.84,0.17c-0.28,0 -0.57,-0.06 -0.83,-0.17c-0.27,-0.11 -0.51,-0.28 -0.71,-0.48c-0.2,-0.21 -0.35,-0.45 -0.46,-0.72c-0.1,-0.27 -0.15,-0.55 -0.14,-0.84z" fill="white"/>
<path id="Vector_629" fill-rule="evenodd" clip-rule="evenodd" d="M231.12,170.59c0,0.28 -0.05,0.56 -0.16,0.82c-0.11,0.26 -0.27,0.5 -0.47,0.7c-0.19,0.2 -0.43,0.36 -0.69,0.46c-0.26,0.11 -0.54,0.17 -0.82,0.17c-0.29,0 -0.57,-0.06 -0.83,-0.17c-0.26,-0.1 -0.49,-0.26 -0.69,-0.46c-0.2,-0.2 -0.36,-0.44 -0.47,-0.7c-0.11,-0.26 -0.16,-0.54 -0.16,-0.82z" fill="white"/>
<path id="Vector_630" fill-rule="evenodd" clip-rule="evenodd" d="M239.19,170.59c0,0.28 -0.06,0.56 -0.16,0.82c-0.11,0.26 -0.27,0.5 -0.47,0.7c-0.2,0.2 -0.44,0.36 -0.7,0.47c-0.26,0.1 -0.54,0.16 -0.82,0.16c-0.28,0 -0.56,-0.06 -0.82,-0.16c-0.26,-0.11 -0.5,-0.27 -0.7,-0.47c-0.2,-0.2 -0.36,-0.44 -0.47,-0.7c-0.1,-0.26 -0.16,-0.54 -0.16,-0.82z" fill="white"/>
<path id="Vector_631" fill-rule="evenodd" clip-rule="evenodd" d="M70.3,68.48c4.79,-0.01 9.4,-1.86 12.87,-5.16c3.46,-3.31 5.53,-7.83 5.76,-12.61c0.02,-0.32 0.03,-0.64 0.03,-0.96c0,-0.32 -0.02,-0.64 -0.03,-0.96c-0.26,-4.79 -2.34,-9.29 -5.83,-12.58c-3.48,-3.29 -8.09,-5.12 -12.88,-5.11c-4.79,0.01 -9.39,1.86 -12.86,5.16c-3.47,3.31 -5.53,7.82 -5.77,12.61c-0.02,0.32 -0.02,0.64 -0.02,0.96c0,0.32 0.01,0.64 0.03,0.95c0.25,4.79 2.33,9.29 5.81,12.59c3.48,3.29 8.1,5.12 12.89,5.11zM37.24,47.22c2.33,-13.45 12.94,-24.1 26.29,-27.11c1.49,-0.33 1.53,-0.44 3.76,-0.64c1.71,-0.17 3.43,-0.19 5.14,-0.07c1.58,0.1 1.95,0.23 2.92,0.4c11.38,2.03 19.82,8.12 24.94,18.48c3.73,7.55 4.62,15.41 1.53,23.51c-2.27,5.95 -5.31,11.47 -8.69,16.82c-5.71,9.02 -12.2,17.46 -19.03,25.65c-1.21,1.44 -2.44,2.86 -3.73,4.36c-0.34,-0.39 -0.62,-0.67 -0.88,-0.98c-5.92,-6.74 -11.5,-13.77 -16.72,-21.07c-4.82,-6.78 -9.32,-13.74 -12.75,-21.34c-2.59,-5.75 -3.89,-11.63 -2.78,-18.01z" fill="#EAC5C5"/>
<path id="Vector_632" fill-rule="evenodd" clip-rule="evenodd" d="M70.23,32.89c4.19,0 8.22,1.54 11.33,4.34c3.11,2.8 5.06,6.66 5.49,10.82c0.42,4.16 -0.71,8.33 -3.19,11.71c-2.48,3.37 -6.12,5.7 -10.21,6.54c-4.1,0.83 -8.37,0.12 -11.97,-2.01c-3.6,-2.12 -6.28,-5.51 -7.53,-9.51c-1.24,-3.99 -0.96,-8.31 0.8,-12.1c1.76,-3.8 4.86,-6.81 8.71,-8.44c2.08,-0.89 4.32,-1.35 6.57,-1.35zM70.23,35.9c-2.74,0.01 -5.43,0.83 -7.71,2.36c-2.28,1.53 -4.05,3.71 -5.1,6.25c-1.04,2.54 -1.31,5.33 -0.77,8.02c0.54,2.7 1.87,5.17 3.82,7.11c1.94,1.94 4.42,3.25 7.12,3.78c2.69,0.53 5.48,0.25 8.02,-0.8c2.54,-1.06 4.7,-2.85 6.22,-5.13c1.52,-2.29 2.33,-4.98 2.33,-7.73c-0.01,-3.68 -1.48,-7.21 -4.09,-9.81c-2.61,-2.6 -6.14,-4.06 -9.83,-4.05z" fill="#DFB6B6"/>
<path id="Vector_633" fill-rule="evenodd" clip-rule="evenodd" d="M70.22,31.11c4.62,-0.01 9.09,1.7 12.53,4.8c3.43,3.09 5.6,7.36 6.07,11.96c0.47,4.6 -0.79,9.22 -3.52,12.95c-2.74,3.73 -6.77,6.31 -11.3,7.24c-4.54,0.92 -9.25,0.14 -13.24,-2.22c-3.98,-2.35 -6.95,-6.1 -8.33,-10.52c-1.38,-4.42 -1.06,-9.19 0.88,-13.39c1.94,-4.2 5.38,-7.53 9.64,-9.34c2.3,-0.98 4.77,-1.48 7.27,-1.48zM70.22,34.43c-3.04,0.01 -6.01,0.91 -8.54,2.61c-2.52,1.69 -4.48,4.09 -5.64,6.9c-1.16,2.81 -1.46,5.9 -0.86,8.88c0.6,2.98 2.07,5.72 4.22,7.86c2.15,2.15 4.9,3.6 7.88,4.19c2.98,0.59 6.07,0.28 8.87,-0.89c2.81,-1.17 5.2,-3.15 6.89,-5.68c1.68,-2.53 2.57,-5.5 2.57,-8.54c-0.01,-4.07 -1.64,-7.97 -4.52,-10.85c-2.89,-2.87 -6.79,-4.48 -10.87,-4.48z" fill="#F6F8FB"/>
<path id="Vector_634" d="M70.64,19.78c0.59,0.01 1.16,0.03 1.77,0.07v0c1.54,0.09 1.88,0.22 2.86,0.4v0c10.9,1.94 19.05,7.63 24.14,17.28l0.48,0.95c3.69,7.45 4.55,15.18 1.52,23.15v0c-2.12,5.54 -4.91,10.71 -8.03,15.74l-0.63,1c-5.33,8.44 -11.36,16.37 -17.72,24.07l-1.27,1.53l-2.93,3.43l-0.07,-38.48c4.75,-0.11 9.28,-1.99 12.73,-5.27c3.55,-3.39 5.66,-8.01 5.9,-12.92v0c0.01,-0.32 0.02,-0.65 0.02,-0.98c0,-0.33 -0.01,-0.65 -0.02,-0.97v-0.01c-0.27,-4.9 -2.4,-9.51 -5.97,-12.88c-3.45,-3.27 -8,-5.13 -12.74,-5.23z" fill="#FFCACA" stroke="#CCCCCC" stroke-width="0.902985"/>
</g></svg>