<svg viewBox="0 0 373.9145 373.979" x="0" y="0" fill="none" xmlns="http://www.w3.org/2000/svg"><g id="Leasing service" xmlns="http://www.w3.org/2000/svg">
<path id="Vector_199" d="M370.9114,286.07c-8.148,25.86 -34.485,48.94 -69.578,64.96c-67.924,31.01 -168.646,35.54 -233.727,-17.58c-19.02,-15.53 -38.377,-38.79 -51.485,-67.87c-0.023,-0.06 -0.049,-0.11 -0.072,-0.16c-2.235,-4.98 -4.279,-10.13 -6.13,-15.44c-0.186,-0.54 -0.366,-1.07 -0.542,-1.61c-4.067,-12.07 -6.839,-24.55 -8.271,-37.21c-4.814,-42.71 7.153,-77.06 15.254,-94.99c29.612,-65.64 87.435,-93 111.261,-101.92c62.038,-23.22 152.199,-20.78 183.434,27.65c14.401,22.33 -0.781,27.98 14.618,78.2c16.917,55.17 42.078,70.62 46.852,122.59c0.221,2.39 0.43,4.71 0.627,6.98c1.118,13.25 1.466,24.65 -2.241,36.4z" fill="#FFCACA"/>
<path id="Vector_200" d="M162.3664,64.53c-0.219,1.11 -0.346,2.24 -0.378,3.38l-4.942,1.94l0.738,4.82l5.301,0.37c0.367,1.07 0.823,2.11 1.361,3.1l-3.314,4.17l3.041,3.8l4.771,-2.33c0.853,0.74 1.768,1.42 2.735,2.01l-0.793,5.26l4.533,1.77l2.971,-4.41c1.111,0.22 2.238,0.34 3.37,0.38l1.937,4.94l4.809,-0.73l0.372,-5.32c1.069,-0.36 2.106,-0.82 3.1,-1.36l4.155,3.32l3.797,-3.05l-2.326,-4.78c0.742,-0.85 1.412,-1.77 2.003,-2.74l5.254,0.79l1.766,-4.54l-4.404,-2.98c0.22,-1.11 0.347,-2.24 0.378,-3.38l4.941,-1.94l-0.735,-4.82l-5.303,-0.37c-0.367,-1.07 -0.822,-2.11 -1.362,-3.1l3.317,-4.17l-3.043,-3.8l-4.77,2.33c-0.854,-0.74 -1.77,-1.41 -2.736,-2l0.795,-5.27l-4.535,-1.77l-2.971,4.41c-1.11,-0.21 -2.237,-0.34 -3.368,-0.37l-1.937,-4.95l-4.811,0.73l-0.372,5.32c-1.069,0.37 -2.106,0.82 -3.1,1.36l-4.155,-3.32l-3.797,3.05l2.326,4.78c-0.744,0.85 -1.413,1.77 -2.001,2.74l-5.254,-0.79l-1.768,4.55zM170.6264,63.88c0.905,-2.3 2.472,-4.29 4.505,-5.7c2.032,-1.42 4.438,-2.2 6.914,-2.25c2.475,-0.05 4.91,0.64 6.995,1.98c2.086,1.33 3.729,3.25 4.723,5.52c0.993,2.27 1.292,4.78 0.859,7.22c-0.433,2.44 -1.579,4.69 -3.293,6.48c-1.714,1.79 -3.919,3.03 -6.337,3.56c-2.418,0.53 -4.94,0.34 -7.248,-0.56c-1.536,-0.59 -2.94,-1.49 -4.13,-2.63c-1.19,-1.14 -2.144,-2.5 -2.805,-4.01c-0.661,-1.51 -1.018,-3.14 -1.049,-4.79c-0.032,-1.65 0.263,-3.28 0.866,-4.82z" fill="white"/>
<path id="Vector_201" d="M222.4184,46.15c-0.321,1.63 -0.506,3.28 -0.551,4.94l-7.227,2.84l1.077,7.04l7.754,0.55c0.536,1.56 1.201,3.08 1.99,4.54l-4.849,6.09l4.449,5.56l6.977,-3.41c1.248,1.09 2.586,2.07 3.999,2.93l-1.161,7.7l6.63,2.59l4.347,-6.45c1.623,0.32 3.27,0.5 4.925,0.55l2.832,7.24l7.034,-1.08l0.544,-7.77c1.564,-0.53 3.08,-1.2 4.533,-1.99l6.075,4.86l5.553,-4.46l-3.401,-6.99c1.089,-1.25 2.07,-2.6 2.933,-4.01l7.684,1.16l2.583,-6.64l-6.441,-4.36c0.323,-1.62 0.508,-3.28 0.553,-4.93l7.225,-2.84l-1.075,-7.05l-7.754,-0.54c-0.537,-1.57 -1.203,-3.09 -1.99,-4.55l4.847,-6.08l-4.447,-5.57l-6.981,3.4c-1.249,-1.08 -2.587,-2.06 -3.999,-2.93l1.159,-7.7l-6.628,-2.59l-4.355,6.47c-1.624,-0.33 -3.272,-0.51 -4.927,-0.56l-2.833,-7.23l-7.032,1.07l-0.543,7.77c-1.564,0.54 -3.081,1.21 -4.535,1.99l-6.076,-4.85l-5.552,4.46l3.4,6.99c-1.086,1.25 -2.065,2.59 -2.926,4.01l-7.684,-1.17l-2.573,6.65zM234.4964,45.2c1.321,-3.37 3.612,-6.27 6.583,-8.34c2.971,-2.07 6.488,-3.22 10.108,-3.29c3.62,-0.07 7.181,0.93 10.231,2.88c3.051,1.95 5.455,4.76 6.91,8.08c1.454,3.32 1.894,6.99 1.262,10.55c-0.631,3.57 -2.305,6.87 -4.81,9.48c-2.505,2.62 -5.728,4.43 -9.263,5.21c-3.535,0.79 -7.223,0.51 -10.598,-0.81c-2.248,-0.87 -4.302,-2.17 -6.043,-3.84c-1.742,-1.67 -3.137,-3.66 -4.105,-5.87c-0.968,-2.21 -1.491,-4.59 -1.538,-7c-0.048,-2.41 0.382,-4.8 1.263,-7.05z" fill="white"/>
<path id="Vector_202" d="M370.9044,286.07c-8.147,25.86 -34.484,48.94 -69.577,64.96c-9.844,-1.84 -19.167,-3.04 -24.781,0.23c-78.761,45.87 -174.811,12.36 -227.384,-40.33c-4.328,-4.34 -8.404,-8.84 -12.229,-13.51c-5.209,-6.34 -10.006,-13.01 -14.36,-19.97c-2.392,-3.82 -4.549,-7.79 -6.458,-11.88c-0.023,-0.05 -0.049,-0.1 -0.072,-0.16c-2.325,-5.03 -4.372,-10.18 -6.131,-15.44c-0.186,-0.53 -0.365,-1.06 -0.545,-1.6l363.775,1.29c1.122,13.26 1.47,24.66 -2.238,36.41z" fill="#FF9999"/>
<path id="Vector_203" d="M348.7204,287.44v0.2c-7.426,12.3 -16.182,23.74 -26.112,34.13c-33.924,4.11 -78.667,-21.64 -129.218,-30.22c-49.66,-8.44 -118.451,1.2 -147.936,6.18c-5.209,-6.35 -10.006,-13.02 -14.361,-19.98c0,0 97.434,-19.8 162.297,-8.79c64.862,11.01 120.159,50.29 155.33,18.48z" fill="#FFCACA"/>
<path id="Vector_204" d="M116.1544,278.62c-0.17,0 -0.335,-0.06 -0.46,-0.18c-0.125,-0.11 -0.202,-0.27 -0.216,-0.44c-0.013,-0.17 0.038,-0.34 0.144,-0.47c0.105,-0.14 0.257,-0.22 0.426,-0.25c1.453,-0.23 3.27,-0.46 5.422,-0.67c0.088,-0.01 0.177,0 0.262,0.02c0.085,0.03 0.165,0.07 0.233,0.13c0.069,0.05 0.126,0.12 0.168,0.2c0.042,0.08 0.068,0.16 0.077,0.25c0.009,0.09 0.001,0.18 -0.025,0.27c-0.026,0.08 -0.068,0.16 -0.124,0.23c-0.056,0.07 -0.126,0.12 -0.204,0.17c-0.078,0.04 -0.164,0.06 -0.253,0.07c-2.119,0.22 -3.917,0.44 -5.344,0.67c-0.035,0 -0.07,0 -0.106,0zM126.9404,277.49c-0.174,0 -0.342,-0.07 -0.468,-0.19c-0.126,-0.12 -0.2,-0.29 -0.206,-0.46c-0.007,-0.18 0.054,-0.35 0.171,-0.48c0.116,-0.13 0.278,-0.21 0.452,-0.22c1.686,-0.13 3.509,-0.26 5.42,-0.38c0.089,0 0.177,0.01 0.261,0.04c0.084,0.03 0.162,0.07 0.228,0.13c0.067,0.06 0.121,0.13 0.16,0.21c0.039,0.08 0.062,0.17 0.067,0.26c0.006,0.09 -0.007,0.18 -0.036,0.26c-0.029,0.08 -0.074,0.16 -0.133,0.23c-0.059,0.07 -0.13,0.12 -0.21,0.16c-0.08,0.04 -0.167,0.06 -0.255,0.07c-1.903,0.11 -3.72,0.24 -5.4,0.37zM137.7724,276.81c-0.174,0 -0.34,-0.07 -0.463,-0.2c-0.123,-0.12 -0.194,-0.28 -0.198,-0.46c-0.005,-0.17 0.058,-0.34 0.174,-0.47c0.117,-0.13 0.279,-0.21 0.452,-0.22c3.2,-0.16 5.417,-0.25 5.44,-0.25c0.179,0 0.352,0.06 0.483,0.18c0.131,0.13 0.209,0.29 0.218,0.47c0.006,0.18 -0.058,0.36 -0.18,0.49c-0.122,0.13 -0.291,0.21 -0.47,0.21c-0.022,0 -2.232,0.09 -5.422,0.25z" fill="white"/>
<path id="Vector_205" d="M218.4994,286.78c-0.077,0 -0.153,-0.01 -0.225,-0.04c-1.382,-0.48 -2.82,-0.95 -4.271,-1.4c-0.085,-0.03 -0.164,-0.07 -0.232,-0.13c-0.068,-0.06 -0.124,-0.13 -0.165,-0.2c-0.041,-0.08 -0.066,-0.17 -0.074,-0.26c-0.007,-0.09 0.002,-0.18 0.029,-0.26c0.027,-0.09 0.07,-0.16 0.128,-0.23c0.057,-0.07 0.127,-0.13 0.206,-0.17c0.079,-0.04 0.165,-0.06 0.254,-0.07c0.088,-0.01 0.178,0 0.262,0.03c1.468,0.45 2.921,0.93 4.319,1.43c0.151,0.05 0.279,0.15 0.361,0.29c0.082,0.14 0.112,0.3 0.085,0.46c-0.026,0.16 -0.108,0.3 -0.231,0.4c-0.123,0.11 -0.278,0.16 -0.438,0.16zM209.0004,283.87c-0.059,0 -0.119,-0.01 -0.176,-0.03c-1.7,-0.45 -3.46,-0.89 -5.232,-1.3c-0.173,-0.04 -0.324,-0.15 -0.418,-0.3c-0.094,-0.15 -0.124,-0.34 -0.084,-0.51c0.04,-0.18 0.147,-0.33 0.299,-0.42c0.151,-0.1 0.334,-0.13 0.508,-0.09c1.786,0.41 3.562,0.86 5.279,1.32c0.159,0.04 0.297,0.14 0.389,0.27c0.091,0.14 0.13,0.31 0.108,0.47c-0.021,0.16 -0.102,0.31 -0.225,0.42c-0.124,0.11 -0.284,0.17 -0.448,0.17zM198.4494,281.41c-0.044,0 -0.088,0 -0.131,-0.01c-1.752,-0.34 -3.538,-0.67 -5.314,-0.96c-0.089,-0.02 -0.174,-0.05 -0.251,-0.09c-0.077,-0.05 -0.144,-0.11 -0.197,-0.18c-0.054,-0.08 -0.092,-0.16 -0.112,-0.25c-0.021,-0.08 -0.024,-0.17 -0.01,-0.26c0.015,-0.09 0.047,-0.18 0.095,-0.25c0.048,-0.08 0.111,-0.15 0.184,-0.2c0.074,-0.05 0.157,-0.09 0.245,-0.1c0.088,-0.02 0.179,-0.02 0.267,-0.01c1.786,0.3 3.587,0.61 5.35,0.97c0.166,0.04 0.313,0.13 0.414,0.26c0.101,0.14 0.148,0.31 0.131,0.47c-0.016,0.17 -0.094,0.33 -0.219,0.44c-0.125,0.11 -0.288,0.18 -0.456,0.17zM187.7634,279.64h-0.092c-3.307,-0.44 -5.332,-0.61 -5.353,-0.61c-0.088,-0.01 -0.175,-0.03 -0.254,-0.07c-0.079,-0.04 -0.149,-0.1 -0.207,-0.17c-0.058,-0.06 -0.102,-0.14 -0.129,-0.23c-0.027,-0.08 -0.038,-0.17 -0.031,-0.26c0.007,-0.09 0.031,-0.17 0.072,-0.25c0.04,-0.08 0.096,-0.15 0.163,-0.21c0.068,-0.06 0.146,-0.1 0.23,-0.13c0.085,-0.03 0.174,-0.04 0.263,-0.03c0.02,0 2.078,0.17 5.425,0.61c0.17,0.03 0.325,0.11 0.433,0.25c0.109,0.13 0.163,0.3 0.152,0.47c-0.012,0.17 -0.087,0.33 -0.212,0.45c-0.125,0.11 -0.289,0.18 -0.46,0.18z" fill="white"/>
<path id="Vector_206" d="M284.4264,306.92c-0.055,0 -0.11,-0.01 -0.164,-0.02c-1.122,-0.28 -2.471,-0.64 -4.005,-1.07c-0.173,-0.05 -0.32,-0.16 -0.408,-0.32c-0.087,-0.16 -0.109,-0.34 -0.06,-0.51c0.048,-0.18 0.164,-0.32 0.321,-0.41c0.156,-0.09 0.341,-0.11 0.514,-0.06c1.521,0.43 2.861,0.78 3.963,1.06c0.16,0.04 0.299,0.13 0.393,0.27c0.093,0.14 0.133,0.3 0.114,0.46c-0.02,0.17 -0.099,0.32 -0.222,0.43c-0.123,0.11 -0.282,0.17 -0.446,0.17zM275.2294,304.33c-0.069,0 -0.138,-0.01 -0.204,-0.03c-1.684,-0.51 -3.431,-1.05 -5.189,-1.6c-0.085,-0.02 -0.163,-0.07 -0.231,-0.13c-0.069,-0.05 -0.125,-0.12 -0.166,-0.2c-0.041,-0.08 -0.066,-0.17 -0.073,-0.26c-0.008,-0.08 0.002,-0.17 0.029,-0.26c0.026,-0.08 0.07,-0.16 0.127,-0.23c0.057,-0.07 0.127,-0.12 0.206,-0.17c0.079,-0.04 0.165,-0.06 0.254,-0.07c0.089,-0.01 0.178,0 0.263,0.03c1.753,0.55 3.496,1.09 5.174,1.6c0.155,0.04 0.288,0.15 0.374,0.28c0.086,0.14 0.12,0.31 0.095,0.47c-0.025,0.16 -0.106,0.3 -0.23,0.41c-0.123,0.11 -0.281,0.16 -0.443,0.16zM264.8784,301.09c-0.069,0 -0.138,-0.01 -0.204,-0.03c-1.792,-0.58 -3.534,-1.15 -5.162,-1.68c-0.086,-0.03 -0.166,-0.07 -0.235,-0.13c-0.069,-0.05 -0.126,-0.12 -0.168,-0.2c-0.041,-0.08 -0.066,-0.17 -0.074,-0.26c-0.007,-0.09 0.004,-0.18 0.032,-0.27c0.028,-0.08 0.073,-0.16 0.131,-0.23c0.059,-0.07 0.131,-0.12 0.212,-0.16c0.08,-0.04 0.168,-0.07 0.258,-0.07c0.09,-0.01 0.18,0.01 0.265,0.04c1.635,0.53 3.366,1.09 5.154,1.67c0.153,0.05 0.283,0.15 0.368,0.29c0.084,0.13 0.117,0.3 0.092,0.46c-0.024,0.16 -0.105,0.3 -0.227,0.41c-0.121,0.1 -0.277,0.16 -0.438,0.16zM254.5704,297.71c-0.069,0 -0.138,-0.01 -0.204,-0.03c-3.133,-1.04 -5.158,-1.73 -5.158,-1.73c-0.088,-0.03 -0.17,-0.07 -0.241,-0.13c-0.071,-0.06 -0.129,-0.13 -0.172,-0.21c-0.042,-0.08 -0.068,-0.17 -0.075,-0.26c-0.007,-0.09 0.005,-0.19 0.034,-0.27c0.03,-0.09 0.077,-0.17 0.138,-0.24c0.061,-0.06 0.136,-0.12 0.219,-0.16c0.083,-0.04 0.173,-0.06 0.264,-0.06c0.092,0 0.183,0.01 0.268,0.05c0,0 2.023,0.68 5.15,1.73c0.152,0.05 0.282,0.15 0.365,0.29c0.083,0.13 0.114,0.3 0.089,0.46c-0.026,0.15 -0.108,0.3 -0.23,0.4c-0.122,0.11 -0.278,0.16 -0.439,0.16z" fill="white"/>
<path id="Vector_207" d="M235.2214,117.93h-113.76v130.16h113.76z" fill="white"/>
<path id="Vector_208" d="M235.2184,248.77h-113.761c-0.179,0 -0.351,-0.07 -0.478,-0.2c-0.127,-0.13 -0.198,-0.3 -0.198,-0.48v-130.16c0,-0.18 0.071,-0.35 0.198,-0.48c0.127,-0.12 0.299,-0.2 0.478,-0.2h113.761c0.179,0 0.351,0.08 0.478,0.2c0.127,0.13 0.198,0.3 0.198,0.48v130.16c0,0.18 -0.071,0.35 -0.198,0.48c-0.127,0.13 -0.299,0.2 -0.478,0.2zM122.1344,247.42h112.399v-128.81h-112.399z" fill="#FF9999"/>
<path id="Vector_209" d="M231.5324,91.38h-164.565l-17.085,30.03h198.737z" fill="#FF9999"/>
<path id="Vector_210" d="M155.9144,248.09h-92.133v-125.33l46.065,-42.69l46.068,42.69z" fill="white"/>
<path id="Vector_211" d="M155.9184,248.77h-92.133c-0.178,0 -0.348,-0.08 -0.473,-0.2c-0.125,-0.13 -0.195,-0.3 -0.195,-0.48v-125.33c-0.001,-0.09 0.018,-0.19 0.056,-0.27c0.037,-0.09 0.092,-0.16 0.16,-0.23l46.058,-42.69c0.125,-0.11 0.29,-0.18 0.46,-0.18c0.171,0 0.336,0.07 0.461,0.18l46.066,42.69c0.068,0.07 0.123,0.14 0.16,0.23c0.038,0.08 0.057,0.18 0.056,0.27v125.33c0,0.18 -0.071,0.35 -0.198,0.48c-0.127,0.13 -0.299,0.2 -0.478,0.2zM64.4624,247.42h90.779v-124.37l-45.389,-42.06l-45.39,42.06z" fill="#FF9999"/>
<path id="Vector_212" d="M107.4844,192.08h-20.031v44.98h20.031z" fill="#FF9999"/>
<path id="Vector_213" d="M132.2504,192.08h-20.032v44.98h20.032z" fill="#FF9999"/>
<path id="Vector_214" d="M116.6294,219.99c-0.179,0 -0.351,-0.07 -0.478,-0.19c-0.127,-0.13 -0.198,-0.3 -0.198,-0.48v-5.05c0,-0.18 0.071,-0.35 0.198,-0.47c0.127,-0.13 0.299,-0.2 0.478,-0.2c0.18,0 0.352,0.07 0.479,0.2c0.126,0.12 0.198,0.29 0.198,0.47v5.05c0,0.18 -0.072,0.35 -0.198,0.48c-0.127,0.12 -0.299,0.19 -0.479,0.19z" fill="white"/>
<path id="Vector_215" d="M102.8484,219.99c-0.179,0 -0.352,-0.07 -0.478,-0.19c-0.127,-0.13 -0.198,-0.3 -0.198,-0.48v-5.05c0,-0.18 0.071,-0.35 0.198,-0.47c0.126,-0.13 0.299,-0.2 0.478,-0.2c0.179,0 0.351,0.07 0.478,0.2c0.127,0.12 0.198,0.29 0.198,0.47v5.05c0,0.18 -0.071,0.35 -0.198,0.48c-0.127,0.12 -0.299,0.19 -0.478,0.19z" fill="white"/>
<path id="Vector_216" d="M150.6444,184.12h-8.074v52.94h8.074z" fill="white"/>
<path id="Vector_217" d="M150.6334,237.74h-8.074c-0.18,0 -0.352,-0.07 -0.478,-0.2c-0.127,-0.12 -0.199,-0.3 -0.199,-0.48v-52.93c0,-0.18 0.072,-0.36 0.199,-0.48c0.126,-0.13 0.298,-0.2 0.478,-0.2h8.074c0.18,0 0.352,0.07 0.479,0.2c0.126,0.12 0.198,0.3 0.198,0.48v52.93c0.001,0.09 -0.016,0.17 -0.049,0.26c-0.034,0.08 -0.084,0.16 -0.147,0.22c-0.062,0.06 -0.137,0.11 -0.22,0.15c-0.083,0.03 -0.171,0.05 -0.261,0.05zM143.2354,236.39h6.732v-51.59h-6.721z" fill="#FF9999"/>
<path id="Vector_218" d="M161.5424,237.06h-103.378v14.51h103.378z" fill="white"/>
<path id="Vector_219" d="M161.5414,252.25h-103.379c-0.179,0 -0.351,-0.07 -0.479,-0.2c-0.127,-0.12 -0.198,-0.29 -0.199,-0.47v-14.51c0.001,-0.18 0.072,-0.36 0.199,-0.48c0.128,-0.13 0.3,-0.2 0.479,-0.2h103.379c0.18,0 0.352,0.07 0.479,0.2c0.126,0.13 0.198,0.3 0.198,0.48v14.51c-0.001,0.18 -0.072,0.35 -0.199,0.47c-0.127,0.13 -0.298,0.2 -0.478,0.2zM58.8394,250.9h102.024v-13.16h-102.024z" fill="#FF9999"/>
<path id="Vector_220" d="M150.6424,242.49h-81.571c-0.174,-0.01 -0.337,-0.09 -0.456,-0.21c-0.119,-0.13 -0.186,-0.3 -0.186,-0.47c0,-0.17 0.067,-0.34 0.186,-0.47c0.119,-0.12 0.282,-0.2 0.456,-0.21h81.571c0.173,0.01 0.336,0.09 0.455,0.21c0.12,0.13 0.186,0.3 0.186,0.47c0,0.17 -0.066,0.34 -0.186,0.47c-0.119,0.12 -0.282,0.2 -0.455,0.21z" fill="#FF9999"/>
<path id="Vector_221" d="M150.6424,247.46h-81.571c-0.174,-0.01 -0.337,-0.08 -0.456,-0.21c-0.119,-0.12 -0.186,-0.29 -0.186,-0.46c0,-0.18 0.067,-0.35 0.186,-0.47c0.119,-0.13 0.282,-0.2 0.456,-0.21h81.571c0.173,0.01 0.336,0.08 0.455,0.21c0.12,0.12 0.186,0.29 0.186,0.47c0,0.17 -0.066,0.34 -0.186,0.46c-0.119,0.13 -0.282,0.2 -0.455,0.21z" fill="#FF9999"/>
<path id="Vector_222" d="M160.5724,167.12h-101.447l-11.071,19.46h123.589z" fill="#FF9999"/>
<path id="Vector_223" d="M109.8534,82.49l45.616,42.26h6.076l-51.692,-47.89l-51.689,47.89h6.075z" fill="#FF9999"/>
<path id="Vector_224" d="M58.1624,125.43c-0.138,0 -0.273,-0.04 -0.387,-0.12c-0.114,-0.07 -0.202,-0.18 -0.252,-0.31c-0.05,-0.13 -0.06,-0.27 -0.029,-0.4c0.032,-0.14 0.104,-0.26 0.206,-0.35l51.69,-47.88c0.125,-0.12 0.289,-0.18 0.459,-0.18c0.171,0 0.335,0.06 0.46,0.18l51.585,47.79c0.066,0.06 0.118,0.13 0.155,0.21c0.037,0.08 0.058,0.17 0.062,0.26c0.003,0.09 -0.011,0.17 -0.042,0.26c-0.031,0.08 -0.078,0.16 -0.138,0.22c-0.06,0.07 -0.133,0.12 -0.214,0.16c-0.08,0.04 -0.168,0.06 -0.256,0.06c-0.089,0 -0.178,-0.01 -0.261,-0.04c-0.084,-0.03 -0.16,-0.08 -0.225,-0.14l-51.126,-47.36l-51.229,47.46c-0.124,0.11 -0.288,0.18 -0.458,0.18z" fill="#FFCACA"/>
<path id="Vector_225" d="M216.3694,131.72h-41.369v34.09h41.369z" fill="#FF9999"/>
<path id="Vector_226" d="M195.6844,161.55c-0.18,0 -0.352,-0.07 -0.478,-0.2c-0.127,-0.13 -0.199,-0.3 -0.199,-0.48v-25.09c0,-0.09 0.018,-0.18 0.052,-0.26c0.034,-0.08 0.084,-0.16 0.147,-0.22c0.062,-0.06 0.137,-0.11 0.219,-0.14c0.082,-0.04 0.17,-0.06 0.259,-0.06c0.089,0 0.177,0.02 0.259,0.06c0.082,0.03 0.156,0.08 0.219,0.14c0.063,0.06 0.113,0.14 0.147,0.22c0.034,0.08 0.051,0.17 0.051,0.26v25.09c0,0.18 -0.071,0.35 -0.198,0.48c-0.127,0.13 -0.299,0.2 -0.478,0.2z" fill="white"/>
<path id="Vector_227" d="M216.3694,192.08h-41.369v34.09h41.369z" fill="#FF9999"/>
<path id="Vector_228" d="M195.6844,221.91c-0.18,0 -0.352,-0.07 -0.478,-0.2c-0.127,-0.12 -0.199,-0.29 -0.199,-0.47v-25.1c0,-0.08 0.018,-0.17 0.052,-0.25c0.034,-0.09 0.084,-0.16 0.147,-0.22c0.062,-0.07 0.137,-0.12 0.219,-0.15c0.082,-0.03 0.17,-0.05 0.259,-0.05c0.089,0 0.177,0.02 0.259,0.05c0.082,0.03 0.156,0.08 0.219,0.15c0.063,0.06 0.113,0.13 0.147,0.22c0.034,0.08 0.051,0.17 0.051,0.25v25.1c0,0.18 -0.071,0.35 -0.198,0.47c-0.127,0.13 -0.299,0.2 -0.478,0.2z" fill="white"/>
<path id="Vector_229" d="M132.9474,130.65c0,-12.26 -9.877,-22.2 -22.059,-22.2h-2.087c-12.182,0 -22.058,9.94 -22.058,22.2l-0.017,25.72h46.186z" fill="#FF9999"/>
<path id="Vector_230" d="M109.8404,152.14c-0.179,0 -0.351,-0.07 -0.478,-0.19c-0.127,-0.13 -0.198,-0.3 -0.198,-0.48v-35.36c0.009,-0.17 0.085,-0.33 0.211,-0.45c0.126,-0.12 0.293,-0.19 0.466,-0.19c0.174,0 0.341,0.07 0.467,0.19c0.126,0.12 0.201,0.28 0.211,0.45v35.36c-0.001,0.18 -0.073,0.35 -0.2,0.48c-0.127,0.12 -0.299,0.19 -0.479,0.19z" fill="white"/>
<path id="Vector_231" d="M43.9394,225.52c1.215,-1.08 2.298,-2.29 3.226,-3.62c3.867,-5.68 6.146,-18.06 -0.065,-22.95c-2.452,-1.93 -5.757,-2.6 -8.839,-2.13c-2.066,0.31 -4.22,1.08 -6.175,0.35c-1.108,-0.41 -1.983,-1.27 -2.962,-1.93c-11.444,-7.78 -18.27,9.23 -15.909,18.06c1.927,7.21 8.671,13.27 15.157,16.51c4.915,2.46 11.265,-0.43 15.567,-4.29z" fill="#FF9999"/>
<path id="Vector_232" d="M32.5674,249.69c-0.18,0 -0.352,-0.07 -0.479,-0.2c-0.126,-0.12 -0.198,-0.3 -0.198,-0.48v-36.1c0,-0.18 0.072,-0.35 0.198,-0.48c0.127,-0.13 0.299,-0.2 0.479,-0.2c0.179,0 0.351,0.07 0.478,0.2c0.127,0.13 0.198,0.3 0.198,0.48v36.1c0,0.18 -0.071,0.36 -0.198,0.48c-0.127,0.13 -0.299,0.2 -0.478,0.2z" fill="#F75454"/>
<path id="Vector_233" d="M32.7464,223c-0.132,0 -0.261,-0.04 -0.37,-0.11c-0.075,-0.05 -0.139,-0.11 -0.189,-0.19c-0.05,-0.07 -0.085,-0.15 -0.103,-0.24c-0.018,-0.09 -0.019,-0.18 -0.002,-0.26c0.017,-0.09 0.051,-0.18 0.1,-0.25l5.094,-7.75c0.047,-0.08 0.109,-0.15 0.183,-0.2c0.074,-0.05 0.158,-0.09 0.247,-0.11c0.088,-0.02 0.18,-0.02 0.27,-0.01c0.089,0.02 0.175,0.05 0.251,0.1c0.076,0.05 0.141,0.12 0.192,0.19c0.05,0.08 0.085,0.16 0.102,0.25c0.016,0.09 0.015,0.18 -0.005,0.27c-0.019,0.09 -0.057,0.18 -0.11,0.25l-5.094,7.75c-0.062,0.1 -0.146,0.18 -0.245,0.23c-0.099,0.05 -0.209,0.08 -0.321,0.08z" fill="#F75454"/>
<path id="Vector_234" d="M26.9894,209.6c-0.12,0 -0.238,-0.03 -0.341,-0.09c-0.104,-0.06 -0.189,-0.15 -0.248,-0.26l-3.766,-6.64c-0.046,-0.08 -0.076,-0.16 -0.089,-0.25c-0.012,-0.09 -0.007,-0.18 0.016,-0.27c0.024,-0.09 0.064,-0.17 0.119,-0.24c0.055,-0.07 0.124,-0.13 0.202,-0.18c0.078,-0.04 0.165,-0.07 0.254,-0.08c0.09,-0.01 0.18,0 0.267,0.02c0.086,0.03 0.167,0.07 0.237,0.13c0.07,0.05 0.128,0.12 0.171,0.2l3.766,6.65c0.058,0.1 0.089,0.22 0.088,0.34c-0.001,0.11 -0.033,0.23 -0.092,0.33c-0.06,0.1 -0.145,0.19 -0.248,0.25c-0.102,0.06 -0.218,0.09 -0.336,0.09z" fill="#F75454"/>
<path id="Vector_235" d="M24.9924,220.17c-0.147,0.01 -0.29,-0.04 -0.408,-0.13l-3.883,-2.88c-0.144,-0.11 -0.24,-0.27 -0.265,-0.45c-0.025,-0.18 0.021,-0.36 0.13,-0.5c0.108,-0.14 0.269,-0.24 0.448,-0.27c0.179,-0.02 0.36,0.03 0.504,0.13l3.883,2.88c0.118,0.09 0.205,0.21 0.25,0.35c0.044,0.13 0.044,0.28 -0.002,0.42c-0.046,0.13 -0.134,0.25 -0.252,0.34c-0.119,0.08 -0.26,0.12 -0.405,0.12z" fill="#F75454"/>
<path id="Vector_236" d="M340.2054,251.61c0,0 16.84,1.05 23.651,10.22c4.519,6.09 4.1,18.57 1.703,36.79c-1.58,12.01 -4.496,18 -7.296,25.38c-7.061,18.58 -11.759,24.99 -23.093,26.03c-14.144,1.3 -70.229,-0.74 -82.05,-0.93c-0.667,-0.01 -1.319,-0.21 -1.884,-0.56c-0.565,-0.36 -1.022,-0.86 -1.322,-1.46l-0.762,-1.51c-0.805,-1.59 -1.022,-6.54 -0.675,-9.18c0.098,-0.81 0.386,-1.59 0.843,-2.28c0.456,-0.68 1.067,-1.25 1.783,-1.65c0.297,-0.17 0.626,-0.28 0.967,-0.33l23.657,-2.7c0,0 22.917,-29.43 12.509,-43.63c-3.746,-5.11 -21.062,5.78 -36.184,3.6c-12.808,-1.84 -26.647,-24.26 -30.585,-31.08c-0.797,-1.38 -1.066,-3 -0.756,-4.56c0.482,-2.41 1.622,-5.85 4.291,-7.32c2.232,-1.23 6.403,-3.32 10.335,0.82c0,0 9.868,14.91 21.75,15.28c11.882,0.36 24.959,-15.81 63.352,-13.03z" fill="#E26363"/>
<path id="Vector_237" d="M276.3614,330.13c-0.18,0.01 -0.354,-0.06 -0.484,-0.18c-0.131,-0.13 -0.208,-0.3 -0.213,-0.47c-0.005,-0.18 0.061,-0.36 0.184,-0.49c0.123,-0.13 0.293,-0.21 0.472,-0.21c14.804,-0.92 35.461,-3.16 44.586,-5.5c8.636,-2.22 13.692,-11.06 18.051,-31.54c0.019,-0.09 0.054,-0.17 0.104,-0.24c0.051,-0.07 0.115,-0.14 0.19,-0.19c0.074,-0.04 0.158,-0.08 0.245,-0.09c0.088,-0.02 0.177,-0.02 0.264,0c0.087,0.02 0.17,0.05 0.243,0.1c0.073,0.06 0.136,0.12 0.184,0.19c0.049,0.08 0.082,0.16 0.098,0.25c0.016,0.09 0.015,0.18 -0.004,0.26c-3.735,17.58 -8.403,29.84 -19.038,32.57c-9.196,2.37 -29.974,4.62 -44.839,5.54z" fill="#FFCACA"/>
<path id="Vector_238" d="M228.4124,260.05c-3.626,0 -5.953,-3.84 -6.051,-4.01c-0.046,-0.07 -0.076,-0.16 -0.089,-0.25c-0.012,-0.09 -0.008,-0.17 0.014,-0.26c0.022,-0.09 0.06,-0.17 0.113,-0.24c0.054,-0.07 0.12,-0.13 0.197,-0.18c0.076,-0.04 0.161,-0.07 0.248,-0.08c0.088,-0.02 0.178,-0.01 0.264,0.01c0.086,0.02 0.167,0.06 0.239,0.11c0.071,0.06 0.131,0.12 0.176,0.2c0.021,0.03 2.044,3.34 4.889,3.34h0.061c2.23,-0.03 4.467,-2.04 6.65,-5.98c0.043,-0.07 0.101,-0.14 0.171,-0.2c0.07,-0.05 0.149,-0.09 0.235,-0.12c0.085,-0.02 0.175,-0.03 0.263,-0.02c0.089,0.01 0.174,0.04 0.252,0.08c0.077,0.05 0.146,0.1 0.201,0.17c0.055,0.07 0.096,0.15 0.121,0.24c0.024,0.08 0.031,0.17 0.021,0.26c-0.01,0.09 -0.037,0.17 -0.081,0.25c-2.436,4.39 -5.068,6.63 -7.819,6.68z" fill="black"/>
<path id="Vector_239" d="M260.5624,342.95c-0.078,0 -0.156,-0.01 -0.229,-0.04c-0.169,-0.06 -0.307,-0.19 -0.384,-0.35c-0.076,-0.16 -0.085,-0.35 -0.025,-0.52c0.503,-1.39 0.46,-2.63 -0.127,-3.68c-1.346,-2.41 -5.058,-3.22 -5.097,-3.23c-0.175,-0.04 -0.329,-0.14 -0.427,-0.29c-0.098,-0.15 -0.132,-0.34 -0.095,-0.51c0.037,-0.18 0.143,-0.33 0.293,-0.43c0.151,-0.1 0.334,-0.13 0.509,-0.09c0.178,0.03 4.355,0.95 5.998,3.89c0.787,1.42 0.861,3.04 0.219,4.81c-0.048,0.13 -0.135,0.24 -0.249,0.32c-0.114,0.08 -0.248,0.12 -0.386,0.12z" fill="black"/>
<path id="Vector_240" d="M254.1154,339.04c-0.604,-0.8 -1.492,-1.34 -2.483,-1.52c-0.713,-0.12 -1.416,-0.3 -2.105,-0.52l-9.484,-3c-0.855,-0.24 -1.75,-0.32 -2.634,-0.22c-0.884,0.1 -1.74,0.37 -2.518,0.8c-4.758,2.63 -14.524,8.54 -12.977,12.08c1.668,3.83 10.337,0.25 13.39,-1.16c0.702,-0.32 1.502,-0.35 2.227,-0.09c1.866,0.66 5.534,1.9 7.65,2.2c1.747,0.25 3.318,-0.59 4.596,-1.6c0.598,-0.46 1.299,-0.77 2.043,-0.9c0.59,-0.11 1.147,-0.35 1.633,-0.7c0.486,-0.35 0.886,-0.8 1.173,-1.33l0.015,-0.03c0.309,-0.58 0.444,-1.24 0.391,-1.89c-0.054,-0.66 -0.295,-1.29 -0.694,-1.81z" fill="white"/>
<path id="Vector_241" d="M225.3834,349.05c-0.738,0.02 -1.474,-0.1 -2.17,-0.35c-0.424,-0.14 -0.812,-0.38 -1.141,-0.68c-0.329,-0.31 -0.591,-0.68 -0.77,-1.09c-1.635,-3.74 6.315,-9.1 13.271,-12.94c1.728,-0.95 3.764,-1.18 5.661,-0.64l9.505,3c0.657,0.22 1.329,0.38 2.011,0.5c1.162,0.2 2.204,0.84 2.912,1.78l0.231,0.3c0.478,0.63 0.766,1.38 0.83,2.17c0.064,0.78 -0.098,1.57 -0.468,2.27c-0.334,0.62 -0.803,1.16 -1.372,1.57c-0.569,0.42 -1.224,0.7 -1.917,0.83c-0.64,0.11 -1.244,0.37 -1.759,0.76c-1.776,1.41 -3.45,1.98 -5.109,1.74c-2.152,-0.3 -5.798,-1.52 -7.778,-2.22c-0.277,-0.11 -0.572,-0.15 -0.867,-0.14c-0.295,0.01 -0.586,0.08 -0.854,0.2c-2.612,1.2 -6.946,2.94 -10.216,2.94zM238.1744,334.41c-1.031,0 -2.045,0.27 -2.947,0.76c-8.741,4.82 -13.6,9.12 -12.685,11.22c0.108,0.25 0.267,0.47 0.466,0.65c0.198,0.18 0.432,0.31 0.687,0.4c2.937,1.12 9.417,-1.67 11.334,-2.56c0.863,-0.39 1.846,-0.43 2.738,-0.11c1.934,0.68 5.481,1.88 7.517,2.17c1.281,0.18 2.614,-0.3 4.087,-1.47c0.686,-0.53 1.491,-0.88 2.344,-1.03c0.49,-0.09 0.955,-0.29 1.36,-0.58c0.404,-0.29 0.738,-0.66 0.978,-1.1c0.254,-0.47 0.368,-1 0.327,-1.54c-0.041,-0.53 -0.234,-1.04 -0.556,-1.47l-0.231,-0.3c-0.495,-0.66 -1.226,-1.12 -2.044,-1.26c-0.746,-0.13 -1.481,-0.31 -2.201,-0.55l-9.484,-2.99c-0.551,-0.16 -1.12,-0.24 -1.692,-0.23z" fill="black"/>
<path id="Vector_242" d="M186.4294,278.92l-0.581,-0.32c-0.605,-0.34 -1.138,-0.79 -1.567,-1.34c-0.43,-0.54 -0.748,-1.17 -0.936,-1.84c-0.188,-0.66 -0.242,-1.36 -0.16,-2.05c0.083,-0.69 0.3,-1.36 0.64,-1.96l13.78,-24.51l5.193,2.91z" fill="black"/>
<path id="Vector_243" d="M206.1094,238c-1.842,-1.03 -3.948,-1.5 -6.053,-1.33c-2.105,0.16 -4.114,0.95 -5.773,2.25c-1.659,1.31 -2.894,3.08 -3.548,5.08c-0.654,2.01 -0.697,4.17 -0.125,6.2c0.571,2.03 1.733,3.85 3.338,5.22c1.605,1.37 3.581,2.24 5.677,2.49c2.097,0.25 4.22,-0.13 6.102,-1.09c1.881,-0.96 3.437,-2.45 4.469,-4.29c1.377,-2.47 1.719,-5.39 0.954,-8.11c-0.766,-2.72 -2.579,-5.03 -5.041,-6.42zM202.3184,245.05c-0.447,-0.25 -0.809,-0.63 -1.041,-1.08c-0.231,-0.46 -0.322,-0.98 -0.261,-1.48c0.062,-0.51 0.272,-0.99 0.606,-1.38c0.334,-0.39 0.775,-0.67 1.269,-0.81c0.494,-0.14 1.017,-0.13 1.505,0.03c0.487,0.16 0.916,0.46 1.233,0.86c0.317,0.4 0.508,0.89 0.547,1.4c0.04,0.51 -0.072,1.03 -0.323,1.47c-0.167,0.3 -0.39,0.56 -0.659,0.77c-0.268,0.21 -0.575,0.37 -0.903,0.46c-0.328,0.09 -0.672,0.12 -1.01,0.08c-0.339,-0.04 -0.666,-0.15 -0.963,-0.32z" fill="black"/>
<path id="Vector_244" d="M185.6924,278.43l-1.431,-0.81c-0.493,-0.27 -0.927,-0.64 -1.277,-1.08c-0.349,-0.45 -0.608,-0.96 -0.761,-1.5c-0.153,-0.54 -0.198,-1.11 -0.13,-1.67c0.067,-0.56 0.244,-1.11 0.521,-1.6l14.263,-25.36l5.193,2.91z" fill="#F75454"/>
<path id="Vector_245" d="M185.6934,279.11c-0.115,0 -0.229,-0.03 -0.329,-0.09l-1.431,-0.81c-0.57,-0.32 -1.071,-0.74 -1.476,-1.26c-0.404,-0.51 -0.704,-1.1 -0.881,-1.73c-0.177,-0.63 -0.228,-1.28 -0.151,-1.93c0.077,-0.65 0.282,-1.28 0.602,-1.85l14.262,-25.36c0.088,-0.16 0.235,-0.27 0.407,-0.32c0.173,-0.05 0.358,-0.03 0.515,0.06l5.191,2.91c0.157,0.09 0.272,0.23 0.321,0.41c0.048,0.17 0.026,0.36 -0.062,0.51l-16.369,29.11c-0.06,0.11 -0.147,0.19 -0.252,0.26c-0.105,0.06 -0.225,0.09 -0.347,0.09zM197.1374,247.33l-13.931,24.77c-0.233,0.42 -0.382,0.87 -0.438,1.35c-0.056,0.47 -0.019,0.95 0.11,1.41c0.129,0.45 0.347,0.88 0.641,1.26c0.294,0.37 0.66,0.68 1.075,0.91l0.85,0.48l15.705,-27.93z" fill="black"/>
<path id="Vector_246" d="M205.2874,237.5c-1.841,-1.04 -3.947,-1.5 -6.052,-1.34c-2.105,0.17 -4.114,0.95 -5.773,2.26c-1.659,1.3 -2.893,3.07 -3.547,5.08c-0.654,2.01 -0.698,4.16 -0.126,6.2c0.572,2.03 1.734,3.85 3.338,5.22c1.605,1.37 3.58,2.24 5.677,2.49c2.096,0.24 4.22,-0.13 6.101,-1.09c1.882,-0.96 3.437,-2.45 4.47,-4.29c1.378,-2.47 1.721,-5.39 0.955,-8.11c-0.766,-2.72 -2.579,-5.03 -5.043,-6.42zM201.4964,244.55c-0.446,-0.25 -0.807,-0.63 -1.039,-1.09c-0.231,-0.45 -0.322,-0.97 -0.261,-1.48c0.062,-0.51 0.272,-0.98 0.606,-1.37c0.333,-0.39 0.774,-0.67 1.267,-0.81c0.493,-0.14 1.016,-0.13 1.503,0.03c0.487,0.16 0.916,0.46 1.233,0.86c0.317,0.4 0.507,0.89 0.547,1.4c0.04,0.51 -0.072,1.02 -0.322,1.47c-0.166,0.3 -0.39,0.56 -0.658,0.77c-0.267,0.21 -0.574,0.37 -0.903,0.46c-0.328,0.09 -0.671,0.12 -1.01,0.08c-0.339,-0.04 -0.666,-0.15 -0.963,-0.32z" fill="#F75454"/>
<path id="Vector_247" d="M200.0434,258.15c-2.491,-0.01 -4.909,-0.84 -6.883,-2.36c-1.973,-1.52 -3.392,-3.64 -4.038,-6.05c-0.646,-2.4 -0.482,-4.95 0.465,-7.26c0.948,-2.3 2.627,-4.23 4.778,-5.48c2.152,-1.26 4.656,-1.77 7.127,-1.46c2.471,0.31 4.771,1.43 6.546,3.17c1.775,1.75 2.927,4.03 3.276,6.5c0.35,2.46 -0.122,4.98 -1.341,7.15c-0.986,1.76 -2.427,3.23 -4.174,4.25c-1.747,1.02 -3.734,1.55 -5.756,1.54zM200.0804,236.81c-1.781,0 -3.53,0.47 -5.068,1.37c-1.537,0.9 -2.808,2.19 -3.681,3.74c-0.644,1.14 -1.055,2.4 -1.21,3.71c-0.156,1.3 -0.053,2.62 0.303,3.89c0.355,1.26 0.957,2.44 1.77,3.47c0.812,1.03 1.821,1.89 2.966,2.53c2.317,1.3 5.051,1.62 7.606,0.91c2.555,-0.72 4.722,-2.42 6.028,-4.73c0.852,-1.52 1.291,-3.24 1.275,-4.98c-0.017,-1.74 -0.489,-3.45 -1.37,-4.96c-0.881,-1.5 -2.14,-2.75 -3.652,-3.62c-1.512,-0.86 -3.224,-1.32 -4.967,-1.32zM202.7694,245.56c-0.718,0 -1.415,-0.24 -1.984,-0.68c-0.568,-0.44 -0.977,-1.05 -1.163,-1.74c-0.186,-0.7 -0.139,-1.43 0.134,-2.1c0.273,-0.66 0.757,-1.22 1.377,-1.58c0.62,-0.36 1.342,-0.51 2.054,-0.42c0.712,0.09 1.375,0.41 1.887,0.92c0.511,0.5 0.843,1.16 0.943,1.87c0.101,0.71 -0.035,1.43 -0.387,2.06c-0.285,0.51 -0.7,0.93 -1.203,1.22c-0.503,0.3 -1.074,0.45 -1.656,0.45zM201.8354,243.96c0.386,0.21 0.834,0.29 1.269,0.21c0.435,-0.08 0.829,-0.3 1.116,-0.64c0.286,-0.34 0.447,-0.76 0.456,-1.2c0.008,-0.45 -0.137,-0.88 -0.411,-1.22c-0.273,-0.35 -0.659,-0.59 -1.09,-0.69c-0.432,-0.09 -0.883,-0.03 -1.277,0.17c-0.393,0.2 -0.705,0.53 -0.883,0.93c-0.177,0.41 -0.209,0.86 -0.089,1.29c0.139,0.49 0.466,0.9 0.911,1.15z" fill="black"/>
<path id="Vector_248" d="M199.9514,256.58c-2.215,-0.01 -4.367,-0.75 -6.122,-2.1c-1.756,-1.35 -3.019,-3.24 -3.593,-5.38c-0.575,-2.14 -0.43,-4.4 0.413,-6.45c0.843,-2.05 2.336,-3.77 4.249,-4.88c1.914,-1.12 4.141,-1.57 6.339,-1.3c2.198,0.28 4.244,1.27 5.823,2.82c1.579,1.56 2.603,3.59 2.913,5.78c0.311,2.19 -0.109,4.43 -1.194,6.36c-0.877,1.57 -2.158,2.87 -3.711,3.78c-1.553,0.9 -3.32,1.38 -5.117,1.37zM199.9844,237.76c-1.556,-0.01 -3.085,0.4 -4.429,1.19c-1.344,0.78 -2.455,1.91 -3.219,3.26c-0.562,1 -0.921,2.11 -1.058,3.25c-0.136,1.14 -0.046,2.29 0.265,3.4c0.311,1.1 0.837,2.13 1.547,3.03c0.711,0.91 1.592,1.66 2.594,2.22c2.024,1.13 4.415,1.41 6.648,0.79c2.233,-0.63 4.128,-2.11 5.268,-4.13c0.745,-1.33 1.13,-2.83 1.116,-4.36c-0.014,-1.52 -0.427,-3.02 -1.197,-4.33c-0.77,-1.32 -1.87,-2.41 -3.192,-3.17c-1.322,-0.75 -2.819,-1.15 -4.343,-1.15z" fill="#FF9999"/>
<path id="Vector_249" d="M202.8744,243.57c-0.162,0 -0.318,-0.05 -0.442,-0.16c-0.123,-0.1 -0.204,-0.25 -0.229,-0.41c-0.025,-0.16 0.009,-0.32 0.094,-0.46c0.086,-0.14 0.218,-0.24 0.373,-0.29c4.496,-1.41 6.558,-4.3 7.382,-5.9c0.995,-1.92 1.154,-3.68 0.87,-4.55c-0.176,-0.54 -0.429,-0.61 -0.68,-0.61c-1.515,0 -4.425,2.95 -5.109,5.15c-0.055,0.17 -0.175,0.31 -0.334,0.4c-0.16,0.08 -0.346,0.1 -0.518,0.04c-0.171,-0.05 -0.314,-0.17 -0.397,-0.33c-0.083,-0.16 -0.099,-0.35 -0.045,-0.52c0.801,-2.59 4.106,-6.09 6.39,-6.1c0.567,-0.03 1.543,0.2 1.985,1.56c0.441,1.35 0.077,3.59 -0.955,5.58c-0.921,1.79 -3.21,5.01 -8.174,6.57c-0.068,0.02 -0.139,0.03 -0.211,0.03z" fill="black"/>
<path id="Vector_250" d="M223.5404,251.77c-1.022,-2.35 -1.798,-4.22 -2.383,-5.38l-0.333,-0.49c0,0 -7.745,-4.71 -10.422,-13.55c-0.188,-0.12 0.022,-0.75 -0.748,-0.41c-3.474,1.58 -5.498,0.27 -5.023,-1.57c0.952,-3.69 6.302,-6.44 10.013,-5.58l0.231,0.06c2.329,0.54 4.491,1.64 6.3,3.2c1.809,1.56 3.209,3.54 4.08,5.77l1.808,6.84l0.133,0.22c0.824,1.39 1.727,2.73 2.706,4.01c1.114,1.49 3.192,2.05 3.501,4.37c0.239,1.79 -1.449,3.45 -3.697,4.66c-0.541,0.28 -1.136,0.46 -1.747,0.5c-0.611,0.05 -1.226,-0.03 -1.805,-0.23c-0.579,-0.2 -1.11,-0.52 -1.559,-0.94c-0.45,-0.41 -0.809,-0.92 -1.055,-1.48z" fill="white"/>
<path id="Vector_251" d="M227.6144,255.12c-0.999,0 -1.977,-0.29 -2.813,-0.84c-0.835,-0.55 -1.492,-1.33 -1.888,-2.25c-0.261,-0.6 -0.508,-1.17 -0.739,-1.71c-0.661,-1.53 -1.186,-2.75 -1.609,-3.6l-0.229,-0.33c-1.066,-0.68 -7.958,-5.34 -10.549,-13.72c-0.008,-0.01 -0.016,-0.02 -0.022,-0.03c-2.105,0.91 -3.994,0.92 -5.077,0.01c-0.345,-0.3 -0.598,-0.68 -0.726,-1.12c-0.129,-0.43 -0.127,-0.89 0.005,-1.32c1.022,-3.94 6.58,-7.06 10.831,-6.07l0.229,0.05c2.436,0.56 4.698,1.71 6.59,3.35c1.892,1.64 3.356,3.71 4.268,6.04l0.024,0.07l1.784,6.74l0.082,0.14c0.813,1.37 1.705,2.69 2.669,3.96c0.375,0.45 0.805,0.86 1.279,1.2c0.992,0.8 2.114,1.7 2.353,3.48c0.253,1.91 -1.186,3.81 -4.051,5.34c-0.741,0.4 -1.57,0.61 -2.411,0.61zM210.9324,231.89l0.04,0.03l0.072,0.23c2.571,8.49 10.051,13.12 10.126,13.16l0.127,0.08l0.46,0.69c0.443,0.88 0.981,2.13 1.663,3.71c0.229,0.53 0.474,1.1 0.736,1.7c0.207,0.48 0.511,0.91 0.892,1.27c0.381,0.35 0.831,0.62 1.322,0.79c0.492,0.18 1.013,0.24 1.532,0.2c0.519,-0.04 1.024,-0.18 1.484,-0.43c2.299,-1.22 3.517,-2.67 3.345,-3.97c-0.166,-1.24 -0.95,-1.87 -1.858,-2.6c-0.564,-0.41 -1.073,-0.9 -1.514,-1.45c-0.996,-1.3 -1.915,-2.67 -2.753,-4.08l-0.173,-0.29l-1.823,-6.9c-0.835,-2.11 -2.171,-3.99 -3.894,-5.48c-1.722,-1.48 -3.78,-2.53 -5.996,-3.04l-0.228,-0.06c-3.475,-0.81 -8.379,1.91 -9.213,5.09c-0.063,0.19 -0.07,0.39 -0.02,0.58c0.05,0.19 0.155,0.36 0.302,0.49c0.542,0.46 1.827,0.61 3.809,-0.28c0.156,-0.07 0.628,-0.28 1.063,-0.07c0.124,0.06 0.233,0.15 0.319,0.26c0.087,0.11 0.148,0.23 0.18,0.37z" fill="black"/>
<path id="Vector_252" d="M221.2154,237.55c-0.095,0 -0.189,-0.02 -0.276,-0.06c-0.087,-0.04 -0.165,-0.09 -0.228,-0.17l-1.292,-1.44c-1.133,-1.28 -2.558,-2.25 -4.152,-2.85c-1.594,-0.6 -3.31,-0.8 -4.999,-0.59c-0.179,0.02 -0.358,-0.03 -0.5,-0.14c-0.142,-0.11 -0.234,-0.28 -0.255,-0.45c-0.022,-0.18 0.027,-0.36 0.138,-0.5c0.11,-0.15 0.273,-0.24 0.451,-0.26c1.907,-0.23 3.843,0 5.641,0.67c1.798,0.68 3.406,1.78 4.686,3.21l1.291,1.45c0.087,0.1 0.143,0.22 0.163,0.35c0.019,0.13 0.002,0.26 -0.052,0.38c-0.053,0.12 -0.139,0.22 -0.249,0.29c-0.109,0.07 -0.236,0.11 -0.367,0.11z" fill="black"/>
<path id="Vector_253" d="M337.6714,250.75l2.483,-19.88l-17.28,5.35l-1.748,11.64c-0.408,3.13 1.901,5.32 1.901,5.32c2.83,2.97 7.453,3.33 11.16,1.59l0.858,-0.4c0.707,-0.34 1.319,-0.84 1.778,-1.48c0.459,-0.63 0.751,-1.37 0.848,-2.14z" fill="white"/>
<path id="Vector_254" d="M329.5314,256.52c-2.675,0 -5.203,-0.99 -6.995,-2.86c-0.08,-0.08 -2.541,-2.46 -2.081,-5.88l1.748,-11.65c0.019,-0.13 0.073,-0.24 0.156,-0.34c0.083,-0.1 0.192,-0.17 0.314,-0.21l17.281,-5.34c0.107,-0.03 0.222,-0.04 0.333,-0.02c0.11,0.02 0.214,0.07 0.3,0.15c0.087,0.07 0.154,0.16 0.195,0.27c0.042,0.1 0.056,0.22 0.042,0.33l-2.481,19.88c-0.107,0.89 -0.44,1.74 -0.967,2.46c-0.526,0.73 -1.23,1.31 -2.043,1.69l-0.858,0.41c-1.548,0.73 -3.235,1.11 -4.944,1.11zM323.4744,236.74l-1.682,11.22c-0.366,2.72 1.676,4.72 1.696,4.73c2.473,2.6 6.744,3.2 10.408,1.48l0.859,-0.41c0.607,-0.28 1.132,-0.72 1.525,-1.26c0.394,-0.54 0.642,-1.17 0.722,-1.84l2.353,-18.84z" fill="black"/>
<path id="Vector_255" d="M322.0074,201.8c4.292,0.5 -1.801,3.94 14.667,2.09c6.558,-0.73 2.142,6.02 3.842,5.84c6.284,-0.69 6.07,-0.68 8.859,0.61c1.839,0.85 2.489,4.64 1.666,7.25c-1.088,3.45 -4.147,3.85 -8.001,10.85c-2.708,4.92 -2.812,8.18 -5.036,8.57c-2.223,0.4 -3.32,-2.72 -5.808,-2.46c-3.22,0.33 -3.533,5.76 -6.905,7.45c-2.125,1.07 -6.623,0.95 -13.063,-3.71c-0.507,-0.37 -0.87,-0.91 -1.026,-1.51c-0.156,-0.61 -0.096,-1.25 0.17,-1.82c0.703,-1.5 1.602,-3.39 2.61,-5.13c4.81,-8.26 8.293,-9.71 7.549,-12.2c-1.139,-3.81 -8.103,-2.96 -8.704,-6.04c-0.621,-3.19 3.319,-10.47 9.18,-9.79z" fill="black"/>
<path id="Vector_256" d="M334.1804,219.61l-1.605,2.06c-0.756,0.97 -1.443,1.99 -2.058,3.06c-1.154,1.99 -3.167,5.41 -4.438,7.24c-1.868,2.69 -10.558,-2.51 -10.558,-2.51l-0.249,-1.91l-1.005,-0.63c-0.199,-0.12 -0.363,-0.29 -0.475,-0.49c-0.127,-0.24 -0.177,-0.51 -0.14,-0.78c0.037,-0.26 0.157,-0.51 0.345,-0.71c2.029,-2.11 6.335,-6.9 8.379,-11.51c-0.009,0 7.205,-0.58 11.804,6.18z" fill="white"/>
<path id="Vector_257" d="M334.8624,219.63c-0.335,0.52 -0.688,1.05 -1.062,1.57c-0.186,0.25 -0.376,0.51 -0.568,0.76l-0.497,0.66c-0.629,0.87 -1.206,1.77 -1.727,2.7c-1.095,1.9 -2.213,3.79 -3.394,5.66c-0.299,0.46 -0.601,0.93 -0.92,1.39c-0.228,0.33 -0.533,0.59 -0.887,0.76c-0.165,0.09 -0.337,0.16 -0.515,0.21c-0.166,0.04 -0.335,0.07 -0.505,0.09c-0.619,0.06 -1.243,0.03 -1.853,-0.09c-0.569,-0.11 -1.13,-0.26 -1.68,-0.44c-2.118,-0.75 -4.154,-1.7 -6.078,-2.86c-0.088,-0.05 -0.164,-0.12 -0.22,-0.21c-0.057,-0.09 -0.093,-0.18 -0.107,-0.28c-0.079,-0.64 -0.165,-1.28 -0.237,-1.91l0.309,0.48c-0.31,-0.21 -0.608,-0.43 -0.893,-0.67c-0.202,-0.14 -0.378,-0.32 -0.521,-0.52c-0.148,-0.22 -0.248,-0.46 -0.297,-0.72c-0.052,-0.25 -0.051,-0.5 0.003,-0.75c0.054,-0.25 0.16,-0.49 0.312,-0.69c0.038,-0.05 0.078,-0.1 0.123,-0.15l0.096,-0.1l0.19,-0.21l0.374,-0.41c0.998,-1.08 1.952,-2.2 2.861,-3.36c0.903,-1.15 1.753,-2.35 2.532,-3.58c0.786,-1.22 1.476,-2.49 2.064,-3.81c0.047,-0.11 0.125,-0.21 0.223,-0.28c0.099,-0.07 0.215,-0.11 0.335,-0.12c0.622,-0.03 1.246,-0.01 1.866,0.06c0.604,0.07 1.204,0.17 1.796,0.31c2.386,0.55 4.59,1.7 6.397,3.36c0.449,0.41 0.871,0.84 1.265,1.31c0.242,0.27 0.459,0.56 0.649,0.86c0.217,0.33 0.397,0.67 0.566,0.98zM333.5104,219.59c-0.167,-0.13 -0.326,-0.26 -0.477,-0.41c-0.151,-0.14 -0.204,-0.27 -0.433,-0.49c-0.362,-0.42 -0.75,-0.81 -1.163,-1.17c-0.81,-0.75 -1.716,-1.38 -2.693,-1.89c-0.974,-0.52 -2.011,-0.91 -3.084,-1.16c-0.538,-0.13 -1.084,-0.23 -1.635,-0.3c-0.533,-0.06 -1.07,-0.08 -1.606,-0.07l0.562,-0.41c-1.294,2.79 -3.09,5.22 -4.997,7.52c-0.967,1.15 -1.96,2.26 -2.977,3.35l-0.387,0.41l-0.204,0.2l-0.094,0.1c-0.021,0.02 -0.04,0.05 -0.057,0.07c-0.073,0.09 -0.123,0.2 -0.147,0.31c-0.024,0.12 -0.02,0.23 0.01,0.35c0.082,0.24 0.204,0.34 0.501,0.46c0.338,0.16 0.668,0.33 0.989,0.52c0.081,0.05 0.15,0.12 0.203,0.2c0.052,0.08 0.087,0.17 0.101,0.26v0.02c0.094,0.64 0.174,1.27 0.26,1.9l-0.327,-0.49c1.843,1.08 3.791,1.97 5.814,2.67c0.987,0.31 2.043,0.55 2.912,0.45c0.172,-0.01 0.342,-0.05 0.496,-0.13c0.154,-0.08 0.29,-0.19 0.399,-0.32c0.305,-0.44 0.599,-0.89 0.891,-1.35c1.165,-1.83 2.273,-3.71 3.376,-5.59c0.557,-0.98 1.171,-1.91 1.839,-2.81c0.162,-0.21 0.358,-0.47 0.499,-0.65c0.141,-0.17 0.29,-0.35 0.442,-0.52c0.331,-0.34 0.649,-0.68 0.987,-1.03z" fill="black"/>
<path id="Vector_258" d="M331.1014,227.25c0,0 3.85,-4.96 5.722,-2.71c1.872,2.24 -2.521,7.58 -5.722,2.71z" fill="white"/>
<path id="Vector_259" d="M307.0934,349.44h-82.992c-0.727,0 -1.425,-0.29 -1.939,-0.81c-0.514,-0.51 -0.803,-1.21 -0.803,-1.94v-2.01h88.477v2.01c0,0.73 -0.289,1.43 -0.804,1.94c-0.514,0.52 -1.212,0.81 -1.939,0.81z" fill="#FFCACA"/>
<path id="Vector_260" d="M307.0984,350.11h-82.992c-0.906,0 -1.775,-0.36 -2.416,-1c-0.641,-0.64 -1.001,-1.51 -1.003,-2.42v-2.01c0.001,-0.18 0.072,-0.35 0.2,-0.48c0.127,-0.13 0.299,-0.2 0.479,-0.2h88.474c0.18,0 0.352,0.07 0.479,0.2c0.126,0.13 0.198,0.3 0.198,0.48v2.01c-0.002,0.91 -0.363,1.78 -1.003,2.42c-0.641,0.64 -1.51,1 -2.416,1zM222.0424,345.36v1.33c0.001,0.55 0.218,1.08 0.605,1.46c0.387,0.39 0.912,0.61 1.459,0.61h82.992c0.547,0 1.072,-0.22 1.459,-0.61c0.388,-0.38 0.606,-0.91 0.607,-1.46v-1.33z" fill="black"/>
<path id="Vector_261" d="M221.3674,344.77h50.624l-16.085,-47.42c-0.483,-0.73 -1.143,-1.34 -1.918,-1.75c-0.776,-0.42 -1.643,-0.63 -2.523,-0.63h-42.796c-1.941,0 -3.192,1.89 -2.558,3.55c0.251,0.66 0.523,1.32 0.744,1.99z" fill="#FFCACA"/>
<path id="Vector_262" d="M271.9924,345.44h-50.625c-0.143,0 -0.282,-0.04 -0.397,-0.13c-0.116,-0.08 -0.202,-0.2 -0.247,-0.33l-14.51,-44.25c-0.151,-0.47 -0.329,-0.92 -0.515,-1.4c-0.073,-0.19 -0.147,-0.37 -0.218,-0.56c-0.185,-0.5 -0.247,-1.03 -0.181,-1.55c0.065,-0.53 0.257,-1.03 0.559,-1.46c0.313,-0.46 0.733,-0.83 1.224,-1.08c0.491,-0.26 1.037,-0.39 1.59,-0.38h42.795c0.994,-0.01 1.974,0.24 2.849,0.71c0.875,0.47 1.618,1.15 2.16,1.98c0.031,0.05 0.056,0.1 0.074,0.15l16.085,47.41c0.035,0.11 0.044,0.21 0.029,0.32c-0.016,0.11 -0.057,0.21 -0.12,0.29c-0.063,0.09 -0.145,0.16 -0.241,0.21c-0.096,0.05 -0.202,0.08 -0.309,0.08zM221.8574,344.09h49.19l-15.752,-46.43c-0.424,-0.62 -0.996,-1.13 -1.664,-1.48c-0.668,-0.35 -1.411,-0.53 -2.166,-0.53h-42.795c-0.334,0 -0.663,0.08 -0.96,0.23c-0.296,0.15 -0.551,0.37 -0.74,0.65c-0.178,0.25 -0.291,0.54 -0.33,0.85c-0.04,0.31 -0.005,0.62 0.103,0.91c0.069,0.18 0.143,0.37 0.204,0.55c0.186,0.47 0.378,0.97 0.544,1.47z" fill="black"/>
<path id="Vector_263" d="M240.1514,319.23c0.613,2.01 -0.319,4.06 -2.06,4.58c-1.741,0.53 -3.64,-0.67 -4.243,-2.67c-0.603,-2.01 0.319,-4.06 2.06,-4.59c1.742,-0.52 3.64,0.68 4.243,2.68z" fill="white"/>
<path id="Vector_264" d="M262.1694,345.44h-27.891c-0.18,0 -0.352,-0.07 -0.479,-0.2c-0.127,-0.12 -0.198,-0.29 -0.198,-0.47c0,-0.18 0.071,-0.36 0.198,-0.48c0.127,-0.13 0.299,-0.2 0.479,-0.2h27.891c0.179,0 0.351,0.07 0.478,0.2c0.127,0.12 0.198,0.3 0.198,0.48c0,0.18 -0.071,0.35 -0.198,0.47c-0.127,0.13 -0.299,0.2 -0.478,0.2z" fill="white"/>
<path id="Vector_265" d="M225.0164,345.44h-4.949c-0.18,0 -0.352,-0.07 -0.479,-0.2c-0.126,-0.12 -0.198,-0.29 -0.198,-0.47c0,-0.18 0.072,-0.36 0.198,-0.48c0.127,-0.13 0.299,-0.2 0.479,-0.2h4.943c0.18,0 0.352,0.07 0.479,0.2c0.126,0.12 0.198,0.3 0.198,0.48c0,0.18 -0.072,0.35 -0.198,0.47c-0.127,0.13 -0.299,0.2 -0.479,0.2z" fill="white"/>
<path id="Vector_266" d="M81.2384,293.49c-1.612,1.71 -8.626,7.97 -14.134,9.31c-6.819,1.64 -14.007,-3.3 -20.702,-9.22c-9.464,-8.38 -18.153,-0.22 -28.443,-5.09c-4.904,-2.33 -8.943,-7.19 -9.64,-12.43c-0.958,-7.22 4.582,-14.03 9.879,-16.92c3.227,-1.77 4.398,-1.01 6.397,-2.91c4.279,-4.07 0.527,-9.1 4.022,-14.48c3.321,-5.11 10.831,-6.93 15.552,-7.02c5.54,-0.1 6.958,2.18 10.768,0.95c1.352,-0.44 3.617,-1.52 8.613,-9.58c6.336,-10.22 4.979,-12.17 8.394,-14.03c4.798,-2.62 8.229,0.81 15.073,-2.68c2.044,-1.04 3.313,-2.15 5.271,-1.84c2.751,0.44 5.467,3.46 5.36,6.12c-0.145,3.61 -1.524,4.91 -5.197,8.37c-5.315,5 -8.082,11.95 -7.706,24.42c0.691,23.15 4.911,38.13 -3.507,47.03z" fill="black"/>
<path id="Vector_267" d="M110.4604,340.48c0.321,4.38 4.951,20.7 4.951,20.7l-68.927,-2.31l2.602,-15.7z" fill="black"/>
<path id="Vector_268" d="M126.2654,279.17c0,0 14.557,17.93 19.345,18.17c12.448,0.61 29.908,-6.19 29.908,-6.19c0,0 2.722,-4.41 6.319,-4.75c3.597,-0.34 8.908,-5.75 10.813,-4.52l-5.052,6.72c0,0 7.09,-0.71 11.146,-0.62c4.057,0.1 5.518,1.48 5.475,2.39c-0.098,2.53 -17.808,7.71 -21.963,7.39c-3.1,-0.24 -8.836,2.71 -12.341,4.56c-6.671,3.5 -18.466,6.82 -23.872,7.74c-10.028,1.69 -16.962,-6.34 -29.254,-15.36z" fill="white"/>
<path id="Vector_269" d="M143.3424,310.96c-6.861,0 -12.45,-4.41 -19.854,-10.25c-2.226,-1.76 -4.529,-3.58 -7.104,-5.47c-0.136,-0.1 -0.23,-0.25 -0.262,-0.41c-0.033,-0.17 -0.002,-0.34 0.086,-0.49l9.475,-15.53c0.056,-0.09 0.133,-0.17 0.226,-0.22c0.092,-0.06 0.197,-0.09 0.305,-0.1c0.109,-0.01 0.217,0.01 0.317,0.05c0.1,0.05 0.188,0.11 0.255,0.2c5.776,7.11 15.562,17.75 18.853,17.91c11.444,0.56 27.448,-5.31 29.428,-6.06c0.613,-0.91 3.229,-4.55 6.703,-4.87c1.531,-0.15 3.572,-1.41 5.375,-2.53c2.413,-1.49 4.496,-2.77 5.869,-1.89c0.078,0.05 0.144,0.11 0.196,0.19c0.051,0.08 0.086,0.17 0.102,0.26c0.016,0.09 0.014,0.18 -0.008,0.27c-0.021,0.09 -0.061,0.18 -0.116,0.25l-4.135,5.5c2.32,-0.2 6.757,-0.54 9.704,-0.47c2.607,0.06 4.577,0.66 5.544,1.69c0.188,0.18 0.338,0.39 0.44,0.63c0.101,0.24 0.153,0.5 0.151,0.76c-0.017,0.45 -0.27,0.88 -0.771,1.33c-3.08,2.74 -17.972,7.02 -21.92,6.71c-3.014,-0.23 -9.065,2.96 -11.975,4.49c-6.744,3.54 -18.52,6.86 -24.074,7.8c-0.929,0.17 -1.868,0.25 -2.81,0.25zM117.6784,294.52c2.393,1.77 4.549,3.47 6.642,5.12c8.113,6.41 13.972,11.04 21.599,9.75c5.585,-0.95 17.291,-4.32 23.669,-7.67c4.835,-2.55 9.717,-4.87 12.709,-4.64c4.318,0.34 20.788,-4.9 21.236,-6.76c-0.027,-0.15 -0.107,-0.3 -0.227,-0.41c-0.26,-0.27 -1.361,-1.18 -4.59,-1.26c-3.963,-0.1 -10.993,0.61 -11.062,0.61c-0.132,0.01 -0.264,-0.01 -0.381,-0.07c-0.118,-0.06 -0.215,-0.15 -0.28,-0.27c-0.065,-0.11 -0.095,-0.24 -0.087,-0.38c0.009,-0.13 0.055,-0.25 0.134,-0.36l4.292,-5.72c-0.946,0.3 -2.319,1.15 -3.493,1.88c-2.023,1.24 -4.113,2.54 -5.959,2.71c-3.222,0.31 -5.781,4.4 -5.806,4.44c-0.078,0.12 -0.194,0.22 -0.331,0.27c-0.719,0.28 -17.738,6.84 -30.186,6.24c-4.539,-0.23 -16.175,-13.97 -19.233,-17.68z" fill="black"/>
<path id="Vector_270" d="M140.1594,291.98l-13.155,13.39c0,0 -9.881,-6.62 -12.421,-8.71c-3.329,-2.74 0.247,17.74 1.064,25.22c0.818,7.48 5.467,20.56 -6.786,23.59c-9.458,2.33 -43.902,-4.85 -52.93,-0.87c-9.029,3.98 -12.229,-0.34 -11.481,-7.35c0.748,-7.01 2.043,-43.65 2.043,-43.65l-6.319,21.15l-17.221,-1.88c0,0 3.809,-46.27 26.689,-55.12c22.881,-8.84 34.198,-7.98 50.983,-4.43c10.447,2.21 32.536,33.62 39.534,38.66z" fill="#E26363"/>
<path id="Vector_271" d="M57.9544,336.13h47.171l-20.837,-51.36h-47.171z" fill="white"/>
<path id="Vector_272" d="M105.1284,336.81h-47.169c-0.135,0 -0.267,-0.04 -0.379,-0.12c-0.111,-0.07 -0.198,-0.18 -0.249,-0.3l-20.845,-51.37c-0.041,-0.1 -0.057,-0.21 -0.045,-0.32c0.011,-0.11 0.05,-0.22 0.112,-0.31c0.062,-0.09 0.145,-0.17 0.243,-0.22c0.098,-0.05 0.207,-0.08 0.318,-0.08h47.177c0.134,0 0.266,0.04 0.377,0.11c0.112,0.08 0.198,0.19 0.248,0.31l20.845,51.37c0.042,0.1 0.057,0.21 0.046,0.32c-0.012,0.11 -0.05,0.22 -0.112,0.31c-0.062,0.09 -0.146,0.17 -0.244,0.22c-0.097,0.05 -0.206,0.08 -0.317,0.08zM58.4174,335.45h45.707l-20.289,-50.01h-45.71z" fill="black"/>
<path id="Vector_273" d="M75.7684,319.96c0,0 8.219,-4.82 11.953,-5.85c3.734,-1.02 0.905,2.13 -1.782,3.42c-2.687,1.29 -2.773,2.99 -2.773,2.99c0,0 14.7,-0.48 16.349,-0.56c1.649,-0.09 -0.818,2.2 -5.22,2.94c0,0 -1.226,3.72 -4.41,5.5c-3.184,1.78 -13.539,0 -13.539,0c0,0 -12.198,5.11 -32.403,4.29c-13.368,-0.53 -19.926,-11.3 -19.063,-18.96l12.874,1.19c0,0 5.349,12.1 38.014,5.04z" fill="white"/>
<path id="Vector_274" d="M48.1924,333.45c-1.386,0 -2.816,-0.02 -4.292,-0.08c-6.214,-0.25 -11.675,-2.76 -15.376,-7.07c-3.186,-3.71 -4.806,-8.44 -4.334,-12.65c0.019,-0.17 0.107,-0.33 0.245,-0.45c0.138,-0.11 0.314,-0.16 0.49,-0.15l12.875,1.2c0.121,0.01 0.237,0.05 0.334,0.12c0.098,0.08 0.175,0.17 0.222,0.28c0.051,0.11 5.655,11.46 37.155,4.68c0.971,-0.57 8.418,-4.88 12.021,-5.86c0.599,-0.17 2.189,-0.6 2.589,0.47c0.517,1.39 -2.332,3.46 -3.899,4.21c-1.177,0.57 -1.776,1.19 -2.081,1.66c3.348,-0.1 13.958,-0.45 15.328,-0.52c1.07,-0.05 1.203,0.66 1.226,0.81c0.141,1.31 -2.929,2.83 -5.908,3.41c-0.409,1.05 -1.791,3.94 -4.578,5.49c-3.143,1.76 -12.315,0.36 -13.795,0.11c-1.5,0.57 -11.893,4.34 -28.222,4.34zM25.4914,314.46c-0.204,3.68 1.292,7.72 4.069,10.96c3.454,4.02 8.569,6.36 14.404,6.6c19.823,0.79 31.995,-4.2 32.115,-4.25c0.119,-0.04 0.248,-0.06 0.374,-0.04c2.816,0.48 10.66,1.43 13.096,0.08c2.904,-1.63 4.087,-5.09 4.087,-5.13c0.039,-0.11 0.109,-0.22 0.203,-0.3c0.093,-0.08 0.207,-0.13 0.328,-0.15c1.567,-0.24 3.075,-0.76 4.445,-1.56c-3.582,0.14 -14.904,0.51 -15.439,0.52c-0.094,0 -0.187,-0.01 -0.274,-0.05c-0.087,-0.03 -0.165,-0.09 -0.231,-0.15c-0.066,-0.07 -0.117,-0.15 -0.15,-0.24c-0.033,-0.08 -0.047,-0.18 -0.042,-0.27c0,-0.09 0.137,-2.11 3.153,-3.56c1.396,-0.67 2.585,-1.72 3.023,-2.32c-0.259,0.03 -0.515,0.09 -0.767,0.16c-3.607,0.99 -11.708,5.72 -11.789,5.78c-0.064,0.03 -0.133,0.06 -0.205,0.08c-30.016,6.49 -37.376,-3 -38.591,-5.06z" fill="black"/>
<path id="Vector_275" d="M80.1514,222.8c0.5,0.24 1.075,0.78 2.043,1.27c0.421,0.2 4.977,2.71 8.081,-5.38c0.366,-0.96 2.657,-0.63 4.024,2.42c1.185,2.65 0.468,4.41 3.856,7.67c0.325,0.32 0.129,0.89 -0.204,1.19l-1.752,1.78c-0.372,0.34 -0.613,1.39 -0.613,1.9c0,1.56 0.135,4.87 -0.364,5.35c-0.97,0.93 -6.259,1.13 -6.259,1.13l-2.54,12.74c-0.16,2.83 5.472,5.27 3.94,6.01c-4.923,2.38 -10.218,0.61 -11.806,0.1c-4.75,-1.52 -9.863,-4.33 -11.036,-6.22c-0.366,-0.59 0,-1.35 1.004,-1.62c2.427,-0.65 4.318,-2.51 5.186,-3.92c2.657,-4.3 3.348,-6.24 4.331,-15.4c0.165,-1.55 -1.615,-1.2 -2.064,-4.07c-0.458,-2.98 2.46,-5.74 4.173,-4.95z" fill="white"/>
<path id="Vector_276" d="M84.8034,260.77c-2.861,0 -5.275,-0.77 -6.35,-1.12l-0.085,-0.03c-4.521,-1.45 -10.014,-4.28 -11.408,-6.5c-0.131,-0.21 -0.212,-0.44 -0.235,-0.69c-0.023,-0.24 0.012,-0.49 0.102,-0.72c0.229,-0.58 0.789,-1.02 1.535,-1.22c2.117,-0.57 3.93,-2.23 4.786,-3.62c2.604,-4.22 3.254,-5.99 4.234,-15.12c0.039,-0.36 -0.057,-0.47 -0.472,-0.87c-0.551,-0.52 -1.308,-1.24 -1.587,-3.03c-0.338,-2.15 0.831,-4.11 2.139,-5.09c1.022,-0.77 2.103,-0.98 2.978,-0.58c0.29,0.15 0.567,0.32 0.827,0.51c0.396,0.29 0.812,0.54 1.245,0.77c0.468,0.25 0.984,0.4 1.514,0.44c0.531,0.03 1.063,-0.04 1.562,-0.23c1.604,-0.61 2.975,-2.38 4.071,-5.23c0.204,-0.55 0.737,-0.89 1.41,-0.91c1.079,-0.03 2.756,0.82 3.862,3.3c0.33,0.77 0.589,1.57 0.773,2.39c0.396,1.58 0.737,2.95 2.936,5.07c0.123,0.12 0.219,0.26 0.283,0.42c0.064,0.16 0.095,0.33 0.089,0.5c-0.01,0.24 -0.067,0.47 -0.168,0.69c-0.101,0.21 -0.244,0.41 -0.42,0.57l-1.723,1.75c-0.182,0.18 -0.423,0.95 -0.421,1.43c0,0.24 0,0.52 0,0.82c0.037,3.11 -0.035,4.5 -0.58,5.01c-0.955,0.92 -4.484,1.21 -6.168,1.29l-2.426,12.18c-0.031,1.19 1.469,2.5 2.567,3.47c1.042,0.91 1.731,1.51 1.635,2.25c-0.028,0.18 -0.1,0.35 -0.212,0.49c-0.112,0.14 -0.258,0.25 -0.426,0.33c-1.833,0.86 -3.839,1.3 -5.867,1.28zM79.4894,223.34c-0.451,0.04 -0.88,0.21 -1.226,0.5c-0.952,0.72 -1.863,2.22 -1.616,3.81c0.204,1.33 0.705,1.8 1.185,2.26c0.444,0.42 0.995,0.95 0.883,1.99c-1.003,9.34 -1.735,11.31 -4.427,15.68c-0.923,1.5 -2.942,3.5 -5.587,4.21c-0.382,0.11 -0.574,0.28 -0.627,0.41c-0.013,0.03 -0.018,0.07 -0.014,0.1c0.004,0.04 0.017,0.07 0.036,0.1c1.057,1.69 5.945,4.41 10.672,5.92l0.088,0.03c1.606,0.52 6.431,2.07 10.95,0.03c-0.325,-0.34 -0.666,-0.65 -1.022,-0.95c-1.322,-1.16 -3.133,-2.75 -3.027,-4.61c0.002,-0.03 0.006,-0.07 0.013,-0.1l2.538,-12.74c0.03,-0.15 0.109,-0.29 0.225,-0.38c0.116,-0.1 0.262,-0.16 0.414,-0.16c2.379,-0.09 5.226,-0.48 5.784,-0.91c0.237,-0.53 0.204,-2.99 0.204,-4.05c0,-0.31 0,-0.6 0,-0.84c0,-0.57 0.241,-1.86 0.834,-2.4l1.723,-1.76c0.082,-0.07 0.142,-0.16 0.173,-0.27c-2.438,-2.36 -2.861,-4.04 -3.269,-5.67c-0.165,-0.74 -0.399,-1.47 -0.697,-2.17c-0.732,-1.64 -1.745,-2.36 -2.391,-2.48c-0.127,-0.04 -0.264,-0.03 -0.384,0.03c-1.227,3.22 -2.862,5.25 -4.846,6.01c-0.669,0.25 -1.385,0.36 -2.099,0.31c-0.714,-0.04 -1.41,-0.24 -2.043,-0.57c-0.498,-0.25 -0.976,-0.55 -1.431,-0.87c-0.199,-0.15 -0.409,-0.28 -0.627,-0.4c-0.12,-0.04 -0.249,-0.07 -0.378,-0.06z" fill="black"/>
<path id="Vector_277" d="M84.9844,239.15c1.022,0.56 2.15,0.83 3.999,0.98z" fill="white"/>
<path id="Vector_278" d="M88.9794,240.8h-0.055c-1.972,-0.15 -3.169,-0.45 -4.269,-1.06c-0.079,-0.04 -0.149,-0.1 -0.206,-0.17c-0.056,-0.07 -0.099,-0.15 -0.124,-0.23c-0.026,-0.09 -0.034,-0.18 -0.025,-0.27c0.01,-0.09 0.037,-0.17 0.08,-0.25c0.043,-0.08 0.102,-0.15 0.172,-0.2c0.07,-0.06 0.151,-0.1 0.237,-0.13c0.086,-0.02 0.176,-0.03 0.265,-0.02c0.089,0.01 0.175,0.04 0.253,0.09c0.918,0.5 1.962,0.75 3.726,0.89c0.174,0.02 0.336,0.1 0.453,0.23c0.116,0.13 0.177,0.3 0.17,0.47c-0.007,0.18 -0.081,0.34 -0.207,0.47c-0.126,0.12 -0.295,0.18 -0.47,0.18z" fill="black"/>
<path id="Vector_279" d="M373.1024,350.04h-372.087v22.58h372.087z" fill="white"/>
<path id="Vector_280" d="M373.7674,373.29h-373.439v-23.92h373.439zM1.6834,371.94h370.732v-21.22h-370.732z" fill="black"/>
<path id="Vector_281" d="M322.2164,138.59l-64.704,21.66c-1.498,0.5 -2.736,1.58 -3.441,2.99c-0.705,1.42 -0.82,3.05 -0.319,4.55l8.953,26.82c0.248,0.74 0.639,1.43 1.151,2.02c0.513,0.59 1.137,1.07 1.837,1.42c0.7,0.35 1.462,0.56 2.243,0.62c0.78,0.05 1.564,-0.05 2.306,-0.3l48.446,-16.21l17.749,6.13l-3.627,-10.86l2.133,-0.72c1.499,-0.5 2.736,-1.58 3.441,-2.99c0.706,-1.41 0.82,-3.05 0.32,-4.55l-8.954,-26.82c-0.246,-0.74 -0.637,-1.42 -1.15,-2.02c-0.512,-0.59 -1.136,-1.07 -1.836,-1.42c-0.7,-0.35 -1.461,-0.56 -2.242,-0.62c-0.78,-0.05 -1.564,0.05 -2.306,0.3z" fill="white"/>
<path id="Vector_282" d="M271.3294,194.14c-1.547,0 -3.044,-0.55 -4.232,-1.54c-1.188,-0.99 -1.993,-2.37 -2.274,-3.89l-5.15,-27.79c-0.32,-1.73 0.06,-3.52 1.056,-4.97c0.996,-1.45 2.527,-2.45 4.257,-2.77l67.076,-12.47c1.73,-0.32 3.516,0.06 4.966,1.06c1.45,0.99 2.444,2.53 2.765,4.26l5.152,27.79c0.319,1.73 -0.061,3.52 -1.057,4.97c-0.996,1.45 -2.527,2.44 -4.257,2.77l-1.544,0.28l1.961,10.6c0.024,0.12 0.012,0.25 -0.033,0.37c-0.046,0.12 -0.124,0.22 -0.226,0.3c-0.101,0.07 -0.222,0.12 -0.348,0.13c-0.126,0.01 -0.253,-0.02 -0.365,-0.08l-16.525,-8.42l-20.122,3.74c-0.176,0.03 -0.358,-0.01 -0.506,-0.11c-0.148,-0.1 -0.25,-0.26 -0.283,-0.43c-0.032,-0.18 0.006,-0.36 0.108,-0.51c0.101,-0.15 0.258,-0.25 0.434,-0.28l20.348,-3.78c0.147,-0.03 0.299,-0.01 0.432,0.06l15.505,7.91l-1.84,-9.91c-0.031,-0.17 0.008,-0.35 0.109,-0.5c0.101,-0.15 0.257,-0.25 0.433,-0.28l2.211,-0.41c1.377,-0.26 2.595,-1.06 3.387,-2.21c0.793,-1.16 1.095,-2.58 0.841,-3.96l-5.152,-27.79c-0.254,-1.38 -1.046,-2.6 -2.2,-3.39c-1.153,-0.79 -2.575,-1.1 -3.953,-0.84l-67.076,12.46c-1.376,0.26 -2.594,1.05 -3.386,2.21c-0.793,1.15 -1.095,2.58 -0.84,3.95l5.15,27.8c0.126,0.68 0.385,1.33 0.762,1.91c0.378,0.58 0.866,1.09 1.438,1.48c0.571,0.39 1.214,0.67 1.893,0.81c0.678,0.15 1.378,0.16 2.06,0.03l8.073,-1.5c0.176,-0.03 0.358,0.01 0.506,0.11c0.148,0.1 0.25,0.25 0.282,0.43c0.033,0.18 -0.005,0.36 -0.107,0.51c-0.102,0.15 -0.258,0.25 -0.434,0.28l-8.072,1.5c-0.404,0.07 -0.813,0.11 -1.223,0.11z" fill="#F75454"/>
<path id="Vector_283" d="M289.9244,190.79c-0.17,0 -0.334,-0.06 -0.46,-0.17c-0.126,-0.12 -0.204,-0.28 -0.219,-0.44c-0.016,-0.17 0.033,-0.34 0.136,-0.48c0.103,-0.13 0.253,-0.22 0.42,-0.25l3.54,-0.66c0.176,-0.03 0.358,0.01 0.506,0.11c0.148,0.1 0.25,0.25 0.283,0.43c0.032,0.18 -0.006,0.36 -0.108,0.51c-0.101,0.15 -0.257,0.25 -0.434,0.28l-3.539,0.66c-0.042,0.01 -0.083,0.01 -0.125,0.01z" fill="#F75454"/>
<path id="Vector_284" d="M321.1934,151.43l-53.531,17.86c-0.175,0.07 -0.361,0.09 -0.546,0.07c-0.185,-0.01 -0.364,-0.07 -0.524,-0.17c-0.16,-0.09 -0.297,-0.22 -0.4,-0.38c-0.104,-0.15 -0.172,-0.33 -0.2,-0.51c-0.067,-0.4 0.008,-0.81 0.212,-1.16c0.204,-0.35 0.525,-0.62 0.906,-0.76l53.531,-17.87c0.175,-0.06 0.361,-0.09 0.547,-0.07c0.185,0.02 0.364,0.08 0.524,0.17c0.16,0.1 0.296,0.23 0.4,0.38c0.104,0.16 0.171,0.33 0.199,0.52c0.068,0.4 -0.006,0.81 -0.211,1.16c-0.204,0.35 -0.525,0.62 -0.907,0.76z" fill="#FF9999"/>
<path id="Vector_285" d="M309.1084,163.4l-39.647,13.23c-0.568,0.19 -1.177,-0.3 -1.356,-1.09c-0.18,-0.8 0.138,-1.6 0.709,-1.79l39.646,-13.23c0.57,-0.19 1.179,0.3 1.357,1.1c0.178,0.79 -0.139,1.59 -0.709,1.78z" fill="#FFCACA"/>
<path id="Vector_286" d="M333.8914,170.12l-29.633,9.89c-0.427,0.15 -0.933,-0.38 -1.132,-1.17c-0.198,-0.79 -0.014,-1.54 0.409,-1.68l29.633,-9.9c0.425,-0.14 0.931,0.39 1.132,1.18c0.2,0.78 0.01,1.54 -0.409,1.68z" fill="#FFCACA"/>
<path id="Vector_287" d="M181.1724,200.39c1.11,-0.08 2.145,-0.59 2.879,-1.42c0.733,-0.84 1.104,-1.93 1.031,-3.04l-1.87,-28.82c-0.035,-0.55 -0.179,-1.09 -0.422,-1.58c-0.243,-0.49 -0.58,-0.93 -0.994,-1.3c-0.413,-0.36 -0.894,-0.64 -1.416,-0.82c-0.521,-0.17 -1.072,-0.25 -1.621,-0.21l-79.323,5.16c-1.11,0.07 -2.146,0.58 -2.879,1.42c-0.734,0.83 -1.105,1.93 -1.033,3.04l1.872,28.81c0.035,0.55 0.178,1.09 0.421,1.58c0.243,0.5 0.581,0.94 0.994,1.3c0.414,0.37 0.895,0.64 1.416,0.82c0.521,0.18 1.073,0.25 1.622,0.22l15.648,-1.02l1.004,10.05l9.541,-10.74z" fill="white"/>
<path id="Vector_288" d="M106.6744,188.15c-0.179,0 -0.353,-0.06 -0.484,-0.19c-0.131,-0.12 -0.208,-0.29 -0.213,-0.47c-0.006,-0.18 0.06,-0.35 0.182,-0.48c0.123,-0.13 0.293,-0.21 0.473,-0.22l63.043,-4.09c0.089,-0.01 0.178,0 0.262,0.03c0.084,0.03 0.162,0.07 0.229,0.13c0.067,0.06 0.121,0.13 0.16,0.21c0.04,0.08 0.063,0.17 0.069,0.26c0.005,0.09 -0.006,0.17 -0.035,0.26c-0.029,0.08 -0.073,0.16 -0.132,0.23c-0.059,0.06 -0.13,0.12 -0.21,0.16c-0.079,0.04 -0.166,0.06 -0.255,0.07l-63.044,4.1z" fill="#FFCACA"/>
<path id="Vector_289" d="M155.9794,176.47c-0.089,0 -0.177,-0.01 -0.26,-0.05c-0.084,-0.03 -0.16,-0.08 -0.224,-0.14c-0.065,-0.06 -0.117,-0.13 -0.154,-0.21c-0.037,-0.08 -0.057,-0.17 -0.06,-0.26c-0.003,-0.09 0.012,-0.18 0.043,-0.26c0.032,-0.08 0.079,-0.16 0.14,-0.22c0.061,-0.07 0.134,-0.12 0.215,-0.16c0.081,-0.03 0.168,-0.05 0.257,-0.06l13.182,-0.85c0.088,-0.01 0.177,0 0.261,0.03c0.085,0.03 0.162,0.07 0.229,0.13c0.067,0.06 0.121,0.13 0.161,0.21c0.039,0.08 0.062,0.17 0.068,0.26c0.006,0.09 -0.006,0.17 -0.035,0.26c-0.028,0.08 -0.073,0.16 -0.132,0.23c-0.058,0.06 -0.13,0.12 -0.209,0.16c-0.08,0.04 -0.167,0.06 -0.256,0.07l-13.181,0.85z" fill="#FFCACA"/>
<path id="Vector_290" d="M106.1204,179.71c-0.174,0 -0.34,-0.07 -0.465,-0.19c-0.124,-0.13 -0.196,-0.29 -0.202,-0.46c-0.005,-0.18 0.056,-0.35 0.173,-0.48c0.116,-0.13 0.278,-0.21 0.451,-0.22l41.437,-2.7c0.179,-0.01 0.354,0.05 0.488,0.17c0.135,0.12 0.218,0.28 0.231,0.46c0.006,0.09 -0.006,0.18 -0.034,0.26c-0.029,0.09 -0.074,0.17 -0.132,0.23c-0.059,0.07 -0.13,0.13 -0.21,0.16c-0.08,0.04 -0.166,0.07 -0.255,0.07l-41.437,2.7z" fill="#FFCACA"/>
<path id="Vector_291" d="M312.9644,84.2c0.237,-6.14 -4.388,-11.3 -10.331,-11.53c-5.942,-0.23 -10.952,4.56 -11.189,10.7c-0.237,6.15 4.389,11.31 10.331,11.54c5.943,0.23 10.952,-4.56 11.189,-10.71z" fill="white"/>
<path id="Vector_292" d="M302.9674,90.41l-0.362,-1.49c-1.038,0.24 -2.103,0.24 -2.769,0.05l0.012,-1.95c0.891,0.22 1.824,0.22 2.712,-0.02c0.873,-0.24 1.386,-0.75 1.226,-1.38c-0.145,-0.59 -0.727,-0.83 -1.958,-0.91c-1.775,-0.1 -3.085,-0.58 -3.455,-2.09c-0.338,-1.38 0.349,-2.72 1.908,-3.5l-0.363,-1.48l1.502,-0.41l0.335,1.37c0.766,-0.2 1.567,-0.23 2.348,-0.1l-0.012,1.89c-0.775,-0.15 -1.574,-0.13 -2.336,0.08c-0.995,0.28 -1.21,0.8 -1.104,1.24c0.127,0.52 0.742,0.7 2.167,0.84c1.984,0.15 2.928,0.8 3.269,2.21c0.342,1.41 -0.335,2.84 -2.021,3.65l0.391,1.59z" fill="#F75454"/>
<path id="Vector_293" d="M334.5604,125.21c6.125,-5.6 6.693,-14.95 1.269,-20.88c-5.425,-5.93 -14.787,-6.21 -20.911,-0.61c-6.125,5.6 -6.693,14.95 -1.269,20.88c5.424,5.94 14.786,6.21 20.911,0.61z" fill="white"/>
<path id="Vector_294" d="M321.3914,122.77l0.52,-2c-1.388,-0.39 -2.657,-1.07 -3.325,-1.72l1.267,-2.32c0.916,0.84 2.028,1.43 3.235,1.72c1.193,0.27 2.129,0 2.348,-0.84c0.204,-0.8 -0.331,-1.46 -1.745,-2.34c-2.044,-1.27 -3.299,-2.67 -2.768,-4.71c0.481,-1.85 2.154,-3.01 4.509,-2.94l0.519,-1.99l2.043,0.46l-0.48,1.86c1.386,0.38 2.248,0.89 2.861,1.38l-1.226,2.25c-0.818,-0.68 -1.781,-1.16 -2.816,-1.41c-1.361,-0.31 -1.954,0.18 -2.107,0.76c-0.18,0.7 0.437,1.31 2.044,2.39c2.26,1.45 2.965,2.84 2.474,4.73c-0.49,1.89 -2.221,3.17 -4.737,3.04l-0.556,2.14z" fill="#F75454"/>
<path id="Vector_295" d="M294.7884,119.42c3.79,-3.41 4.22,-9.11 0.962,-12.74c-3.259,-3.62 -8.973,-3.8 -12.763,-0.39c-3.79,3.4 -4.221,9.11 -0.962,12.73c3.259,3.63 8.973,3.8 12.763,0.4z" fill="white"/>
<path id="Vector_296" d="M289.9534,118.1l-0.408,-1.17c-0.741,0.26 -1.53,0.36 -2.312,0.29l-0.122,-1.58c0.764,0.1 1.541,0.01 2.264,-0.25c0.713,-0.28 1.108,-0.73 0.938,-1.23c-0.17,-0.5 -0.664,-0.61 -1.698,-0.56c-1.492,0.07 -2.618,-0.19 -3.031,-1.38c-0.374,-1.08 0.108,-2.22 1.357,-2.99l-0.409,-1.16l1.226,-0.47l0.374,1.08c0.626,-0.23 1.291,-0.33 1.956,-0.29l0.119,1.52c-0.662,-0.05 -1.327,0.04 -1.948,0.27c-0.817,0.31 -0.956,0.76 -0.838,1.1c0.141,0.41 0.669,0.49 1.868,0.48c1.668,-0.05 2.504,0.39 2.886,1.49c0.382,1.11 -0.086,2.33 -1.431,3.12l0.435,1.25z" fill="#F75454"/>
</g></svg>