<svg viewBox="0 0 556.0947 439.3495" x="0" y="0" fill="none" xmlns="http://www.w3.org/2000/svg"><g id="10" xmlns="http://www.w3.org/2000/svg">
<path id="Vector_2" d="M539.3156,333.1408c-4.74,3.063 -10.63,5.15 -13.21,10.164c-2.13,4.098 -1.47,9.161 -3.38,13.347c-3.43,7.493 -13.67,9.65 -17.75,16.769c-0.06,0.099 -0.11,0.198 -0.17,0.297c-2.46,4.579 -2.05,10.671 -5.72,14.358c-3.71,3.726 -10.68,3.965 -12.92,8.596h-18.53c0.74,-4.876 1.73,-10.351 3.08,-16.068c0.5,-2.071 1.1,-4.561 1.79,-7.183c1.47,-5.601 3.36,-11.801 5.52,-15.792c2.92,-5.38 7.08,-9.985 11.18,-14.531c4.11,-4.545 8.28,-9.152 13.21,-12.848c8.04,-6.049 17.74,-9.377 27.27,-12.652c5.21,-1.788 12.17,-3.057 15.29,1.501c3.17,4.653 -0.93,10.976 -5.66,14.042z" fill="#EFACAC"/>
<path id="Vector_3" d="M473.2556,398.1898l-1.83,-0.688c5.25,-14.002 11.79,-26.655 19.41,-37.614c9.42,-13.538 20.57,-24.555 33.15,-32.748l1.06,1.638c-22.6,14.729 -40.03,38.083 -51.79,69.412z" fill="#E36A6A"/>
<path id="Vector_4" d="M547.6356,216.5198c-4.22,12.753 -8.96,25.304 -14.23,37.653c-4.07,9.554 -8.48,19.009 -13.57,28.055c-3.74,6.645 -7.83,13.071 -11.65,19.661c-3.61,6.171 -6.91,12.519 -9.89,19.021c-5.76,12.638 -10,25.861 -14.26,39.084c-1.43,4.482 -2.87,8.958 -4.32,13.427c-0.54,1.684 -1.08,3.369 -1.62,5.053c-1.46,4.559 -2.93,9.12 -5.05,13.411c-0.48,0.982 -1.37,2.947 -2.48,4.787h-7.5c-0.04,-0.391 -0.08,-0.806 -0.1,-1.238c-0.27,-4.917 0.76,-12.047 0.9,-14.488c0.15,-2.513 0.35,-5.021 0.62,-7.525c1.09,-10.629 3.07,-21.172 5.06,-31.669c2.95,-15.63 5.9,-31.278 9.44,-46.784c2.08,-9.134 4.37,-18.223 6.98,-27.214c2.68,-9.227 5.82,-18.591 11.83,-26.088c2.71,-3.375 5.92,-6.3 8.49,-9.787c3.59,-4.878 5.73,-10.716 9.6,-15.392c4.58,-5.522 11.15,-8.93 17.54,-12.194c4.14,-2.123 9.47,-4.147 13.09,-1.213c3.71,3.021 2.63,8.878 1.12,13.44z" fill="#E98B8B"/>
<path id="Vector_5" d="M467.2056,398.8568c-0.05,0.001 -0.1,-0.004 -0.15,-0.014c-0.12,-0.021 -0.24,-0.065 -0.34,-0.129c-0.1,-0.065 -0.19,-0.149 -0.26,-0.248c-0.06,-0.098 -0.11,-0.21 -0.14,-0.327c-0.02,-0.118 -0.03,-0.239 0,-0.357c5.29,-29.945 12.44,-58.624 21.24,-85.244c12.19,-36.871 27.22,-68.504 44.66,-94.027c0.14,-0.195 0.35,-0.328 0.59,-0.37c0.23,-0.042 0.47,0.01 0.67,0.145c0.2,0.135 0.33,0.342 0.38,0.577c0.05,0.234 0,0.477 -0.13,0.677c-39.96,58.473 -58.26,136.972 -65.62,178.56c-0.03,0.212 -0.14,0.404 -0.31,0.542c-0.16,0.139 -0.37,0.215 -0.59,0.215z" fill="#E36A6A"/>
<path id="Vector_6" d="M478.6756,281.1888c-1.54,4.452 -0.81,9.087 0.3,13.774c1.43,6.028 3.48,12.138 2.09,18.046c-1.46,6.224 -6.58,11.146 -7.96,17.4c-1.89,8.512 3.48,17.693 0.5,25.904c-1.68,4.6 -7.39,7.883 -7.16,12.768c0.07,1.505 0.11,2.952 0.12,4.342c0.03,10.038 -1.64,17.14 -3.61,22.013c-0.17,0.431 -0.35,0.844 -0.53,1.238h-12.05c-0.74,-1.284 -1.28,-2.672 -1.6,-4.117c-1.34,-6.589 2.26,-12.687 2.87,-19.134c0.02,-0.186 0.03,-0.37 0.04,-0.556c0.55,-8.128 -4.06,-15.746 -4.82,-23.835c-0.93,-9.674 3.66,-19.152 3.44,-28.874c-0.28,-11.735 -7.53,-22.789 -6.3,-34.466c0.75,-6.98 4.48,-13.331 5.66,-20.268c2.71,-15.945 -8.32,-32.86 -2.3,-47.856c0.83,-2.03 2.04,-4.016 3.98,-5.011c3.55,-1.803 7.89,0.496 10.53,3.487c7.5,8.459 7.34,21.091 11.87,31.449c3.77,8.605 11.05,17.191 8.29,26.165c-0.83,2.632 -2.45,4.932 -3.36,7.531z" fill="#E36A6A"/>
<path id="Vector_7" d="M458.6456,397.4718l-1.95,-0.216c4.83,-43.586 11.29,-123.821 0.21,-171.479l1.91,-0.444c4.85,20.867 6.87,49.778 5.99,85.93c-0.62,25.971 -2.7,54.975 -6.16,86.209z" fill="#EFACAC"/>
<path id="Vector_8" d="M80.3256,374.1628c-1.09,-6.067 -2.92,-15.975 -5.54,-21.536c-2.41,-5.104 -5.99,-9.553 -9.54,-13.959c-3.55,-4.405 -7.15,-8.856 -11.5,-12.515c-7.09,-5.987 -15.85,-9.554 -24.45,-13.064c-4.71,-1.918 -11.05,-3.448 -14.16,0.587c-3.16,4.119 0.29,10.157 4.49,13.223c4.2,3.066 9.51,5.296 11.63,10.046c1.75,3.892 0.88,8.512 2.42,12.464c2.81,7.175 12.34,9.662 15.61,16.643c2.03,4.344 1.33,9.933 4.53,13.517c3.3,3.716 9.98,4.234 11.57,8.953c1.73,5.077 -2.02,9.467 3.33,13.186c2.53,1.746 14.41,5.69 14.41,5.69c0,0 0.39,-15.26 -2.8,-33.235z" fill="#E98B8B"/>
<path id="Vector_9" d="M81.8656,408.6788c-5.5,-26.461 -18.44,-62.695 -48.87,-85.053l1.07,-1.454c14,10.293 25.63,24.483 34.56,42.173c6.61,13.103 11.66,27.896 15,43.966z" fill="#EFACAC"/>
<path id="Vector_10" d="M91.2156,338.8818c-3.03,-23.106 -6.05,-46.267 -11.28,-68.986c-1.98,-8.635 -4.39,-17.42 -9.53,-24.635c-2.32,-3.248 -5.13,-6.107 -7.31,-9.451c-3.05,-4.678 -4.72,-10.166 -8.04,-14.668c-3.93,-5.324 -9.8,-8.802 -15.52,-12.139c-3.71,-2.167 -8.5,-4.31 -11.99,-1.798c-3.58,2.594 -2.89,8.043 -1.74,12.321c3.23,11.961 6.95,23.765 11.16,35.41c3.25,9.01 6.82,17.941 11.04,26.538c3.09,6.313 6.53,12.44 9.7,18.706c3.01,5.87 5.72,11.887 8.12,18.029c4.65,11.933 7.87,24.33 11.1,36.727c1.5,5.78 3,11.554 4.51,17.323c1.12,4.274 2.23,8.549 3.96,12.611c1.02,2.416 4.23,11.146 7.75,7.898c2.44,-2.249 1.27,-14.287 1.27,-17.495c-0.04,-12.184 -1.62,-24.321 -3.2,-36.391z" fill="#EFACAC"/>
<path id="Vector_11" d="M90.8056,402.2758c-4.11,-41.333 -16.38,-119.576 -52.39,-179.213l1.54,-0.932c36.19,59.94 48.52,138.483 52.64,179.966z" fill="#E98B8B"/>
<path id="Vector_12" d="M106.0556,368.4668c-0.08,-7.51 4.56,-14.281 5.68,-21.694c1.35,-8.86 -2.38,-17.825 -1.67,-26.765c0.87,-10.792 8.11,-20.594 7.59,-31.409c-0.33,-6.465 -3.43,-12.507 -4.16,-18.956c-1.66,-14.821 9.38,-29.824 4.6,-43.946c-0.65,-1.91 -1.66,-3.802 -3.4,-4.819c-3.18,-1.844 -7.29,0.048 -9.87,2.664c-7.34,7.399 -7.86,19.041 -12.56,28.342c-3.91,7.728 -11.07,15.254 -8.99,23.663c0.62,2.477 1.98,4.666 2.69,7.107c2.72,9.554 -5.58,19.386 -3.85,29.173c1.02,5.807 5.47,10.6 6.42,16.436c1.29,7.935 -4.13,16.116 -1.8,23.823c1.31,4.329 6.39,7.643 5.93,12.13c-2.7,25.386 7,33.327 7,33.327c0,0 6.64,-5.365 8.06,-10.792c1.62,-6.177 -1.6,-12.137 -1.67,-18.284z" fill="#E36A6A"/>
<path id="Vector_13" d="M100.1956,406.9908c-0.24,0 -0.46,-0.088 -0.63,-0.246c-0.17,-0.158 -0.27,-0.375 -0.28,-0.605c-1.4,-20.578 -2.95,-51.871 -2.41,-84.087c0.64,-38.549 4.09,-68.766 10.24,-89.806c0.03,-0.118 0.09,-0.228 0.16,-0.325c0.08,-0.097 0.17,-0.177 0.28,-0.237c0.1,-0.06 0.22,-0.098 0.34,-0.112c0.12,-0.014 0.24,-0.004 0.36,0.03c0.12,0.035 0.23,0.092 0.32,0.169c0.1,0.077 0.18,0.173 0.23,0.281c0.06,0.108 0.09,0.226 0.1,0.347c0.02,0.122 0,0.244 -0.04,0.36c-13.77,47.085 -10.78,128.762 -7.76,173.256c0.01,0.12 -0.01,0.24 -0.05,0.354c-0.04,0.113 -0.1,0.218 -0.18,0.309c-0.07,0.09 -0.17,0.164 -0.28,0.217c-0.11,0.054 -0.22,0.085 -0.34,0.093z" fill="#EFACAC"/>
<path id="Vector_14" d="M273.8756,426.5138c134.29,0 243.14,-10 243.14,-22.336c0,-12.337 -108.85,-22.337 -243.14,-22.337c-134.28,0 -243.13,10 -243.13,22.337c0,12.336 108.85,22.336 243.13,22.336z" fill="#EC9B9B"/>
<path id="Vector_15" d="M270.4656,439.3448c107.12,0 193.96,-9.063 193.96,-20.248c0,-11.185 -86.84,-20.252 -193.96,-20.252c-107.13,0 -193.97,9.067 -193.97,20.252c0,11.185 86.84,20.248 193.97,20.248z" fill="#EC9B9B"/>
<path id="Vector_16" d="M141.6956,379.4808c0,0 3.88,-1.332 8.2,3.593c4.32,4.926 9.52,12.084 10.65,13.023c3.24,2.706 9.39,9.496 6.43,12.245c-3.87,3.606 -21.45,0.257 -23.1,-3.572c-2.44,-5.651 -6.51,-14.761 -8.58,-19.412c-2.08,-4.651 4.47,-5.745 6.4,-5.877z" fill="#E05858"/>
<path id="Vector_17" d="M144.8956,379.6028c0,0 1.83,0.794 4.91,5.175c2.07,2.937 10.74,14.06 10.74,14.06c0,0 -9.36,2.797 -12.8,-0.327c-3.45,-3.125 -9.5,-11.033 -11.39,-14.835c-1.81,-3.657 5.95,-5.655 8.54,-4.073z" fill="#F5CCCC"/>
<path id="Vector_18" d="M162.2956,199.0948c-5.49,-1.318 -21.75,13.735 -23.11,18.223c-6.31,20.853 3.43,59.914 2.86,65.004c-0.57,5.09 2.24,12.784 8.22,13.338c8.14,0.754 10.2,-1.308 12.48,-5.957c2.28,-4.65 6.73,-44.282 11.72,-57.267c1.99,-5.19 0.31,-14.106 -1.62,-20.439c-0.4,-1.287 -5.64,-11.723 -10.55,-12.902z" fill="#F1B3B3"/>
<path id="Vector_19" d="M145.3656,384.7228c0,0 11.41,-45.975 17.77,-63.797c6.35,-17.821 0.65,-42.058 -8,-42.859c-8.16,-0.758 -12.3,-0.377 -13.06,6.429c-0.76,6.806 -0.68,25.735 -2.02,37.775c-1.34,12.04 -3.3,59.89 -3.3,59.89z" fill="#F5CCCC"/>
<path id="Vector_20" d="M121.2356,195.6238c5.6,-0.707 20.18,16.438 21.04,21.054c4,21.418 -9.95,59.177 -9.94,64.297c0,5.121 -3.63,12.463 -9.63,12.357c-8.17,-0.144 -10,-2.421 -11.76,-7.293c-1.76,-4.872 -5.47,-44.51 -5.39,-58.208c0.04,-7.131 2.9,-15.125 3.78,-20.539c0.22,-1.304 6.89,-11.034 11.9,-11.668z" fill="#F1B3B3"/>
<path id="Vector_21" d="M118.7356,382.2318c0,0 -7.21,-46.791 -11.57,-65.203c-4.37,-18.412 3.94,-41.876 12.62,-41.724c8.21,0.145 12.27,0.977 12.29,7.825c0.01,6.849 -2.14,25.654 -2.13,37.77c0.01,12.116 -3.44,61.47 -3.44,61.47z" fill="#F5CCCC"/>
<path id="Vector_22" d="M124.7756,374.9528c0,0 4.24,0.205 5.52,6.132c1.27,5.927 4.45,18.69 4.6,19.993c0.14,1.302 -3.6,7.924 -7.77,9.308c-5.46,1.813 -14.51,-8.178 -13.95,-12.173c0.82,-5.897 2.01,-15.452 2.62,-20.33c0.62,-4.878 7.15,-3.51 8.98,-2.93z" fill="#E05858"/>
<path id="Vector_23" d="M126.9156,373.9858c0,0 0.67,5.183 1.34,8.506c0.66,3.323 2.71,15.15 2.71,15.15c0,0 -8.6,1.714 -13.93,-1.005c0,0 -0.06,-18.106 0.27,-22.161c0.32,-3.9 8.26,-2.136 9.61,-0.49z" fill="#F5CCCC"/>
<path id="Vector_24" d="M109.0056,184.5698l59.91,2.323c0,0 -44.48,4.609 -59.91,-2.323z" fill="#ED9D9D"/>
<path id="Vector_25" d="M211.8056,97.5028l-20.04,31.273c-4.44,-7.716 -10.31,-25.49 -15.07,-36.73c-4.76,-11.24 -12.18,-14.845 -15.97,-15.257c-2.9,-0.317 -6.86,-1.25 -10,-1.973c-1.55,-0.354 -2.73,-1.725 -2.93,-3.409l-2.41,-19.816l-16.43,-1.452l-0.86,19.638c-0.08,1.898 -1.53,3.415 -3.31,3.439c-0.69,0.011 -1.32,0.05 -1.97,0.075c6.06,18.113 -2.9,34.44 -11.24,48.979c2.5,8.098 5.61,18.986 7.76,25.53c1.45,4.41 1.43,9.17 -0.05,13.567l-3.01,8.867l50.57,3.063l-1.25,-12.587l4.97,-28.888c0,0 11.5,26.217 22.33,23.936c10.82,-2.28 28.82,-51.661 28.82,-51.661z" fill="#F5CCCC"/>
<path id="Vector_26" d="M142.0056,83.7978c-0.04,0 -0.08,-0.011 -0.12,-0.033c-0.04,-0.022 -0.07,-0.053 -0.09,-0.091c-0.56,-1.01 -3.41,-1.074 -6.43,-1.143c-2.45,-0.054 -5.23,-0.118 -7.52,-0.668c-3.56,-0.859 -12.89,-4.944 -13.29,-5.119c-0.05,-0.026 -0.1,-0.075 -0.12,-0.136c-0.03,-0.06 -0.03,-0.128 0,-0.188c0.01,-0.029 0.03,-0.056 0.05,-0.078c0.03,-0.023 0.05,-0.04 0.09,-0.052c0.03,-0.011 0.06,-0.017 0.09,-0.016c0.03,0.002 0.06,0.009 0.09,0.023c0.1,0.042 9.69,4.246 13.2,5.09c2.24,0.53 4.99,0.601 7.42,0.656c3.44,0.078 6.15,0.14 6.85,1.391c0.03,0.057 0.04,0.124 0.02,0.186c-0.02,0.063 -0.06,0.116 -0.12,0.148c-0.03,0.02 -0.07,0.031 -0.12,0.03z" fill="#F1B3B3"/>
<path id="Vector_27" d="M147.0756,84.3038c-0.04,0 -0.08,-0.01 -0.11,-0.03c-0.06,-0.032 -0.1,-0.085 -0.12,-0.147c-0.02,-0.062 -0.01,-0.129 0.02,-0.186c0.02,-0.047 0.65,-1.148 1.84,-1.178c1.04,-0.023 13.78,-0.831 13.91,-0.84h0.02c0.06,-0.002 0.13,0.021 0.17,0.066c0.05,0.045 0.08,0.106 0.08,0.172c0,0.065 -0.02,0.128 -0.07,0.176c-0.04,0.047 -0.1,0.075 -0.17,0.078c-0.53,0.031 -12.88,0.815 -13.93,0.838c-0.91,0.021 -1.42,0.915 -1.42,0.924c-0.02,0.038 -0.05,0.07 -0.09,0.092c-0.04,0.023 -0.08,0.035 -0.13,0.035z" fill="#F1B3B3"/>
<path id="Vector_28" d="M174.1456,105.7678c-6.8,-8.011 -10,-21.407 -11.29,-28.484c-0.69,-0.234 -1.4,-0.397 -2.12,-0.487c-1.36,-0.148 -3.45,-0.601 -5.57,-1.122c3.41,8.578 7.55,24.453 -6.29,28.662c-13.09,3.979 -22.73,-12.738 -27.57,-23.839c-1.53,1.699 -3.65,2.918 -6.36,3.309c0.82,1.909 1.72,4.085 2.7,6.652c5.11,13.319 -3.24,27.492 -6.8,32.653c2.73,7.344 6.25,17.859 8.49,24.688c1.45,4.409 1.43,9.169 -0.06,13.566l-2.72,8.036l1,0.91l29.45,1.771c1.34,-0.289 2.23,-0.475 2.39,-0.478c0.95,-0.023 13.45,-4.027 13.45,-4.027l3.07,-3.586l-0.32,-3.294l4.97,-28.888l0.03,0.07v-0.366c3.55,-3.851 5.5,-7.825 6.54,-11.323c0.74,-2.464 0.84,-5.072 0.32,-7.588c-0.52,-2.517 -1.66,-4.865 -3.31,-6.835z" fill="white"/>
<path id="Vector_29" d="M178.6256,214.3428c-1.32,-17.804 -4.76,-28.83 -5.97,-32.229c-0.67,-2.418 -1.24,-4.326 -1.53,-5.284c-1.82,-6.016 -5.29,-14.83 -5.29,-14.83c-12.7,3.671 -47.2,-0.398 -47.2,-0.398c-1.44,4.096 -4.98,8.575 -8.89,13.771l-2.05,-0.176c-1,3.281 -2.56,6.21 -4.05,8.878c-2.38,3.768 -7.09,16.763 -6.34,31.863l2.95,53.573c0,0 16.19,5.13 39.04,5.778l32.39,-2.029c0,0 8.06,-43.766 6.94,-58.917z" fill="#E26363"/>
<path id="Vector_30" d="M149.0956,119.9678c0,0 -8.58,9.966 -28.31,2.369c0.01,0 19.34,17.701 28.31,-2.369z" fill="#EFACAC"/>
<path id="Vector_31" d="M184.1356,142.0748c-0.06,-0.001 -0.12,-0.026 -0.17,-0.07c-0.05,-0.044 -0.07,-0.104 -0.07,-0.167c-0.09,-3.417 7.37,-12.817 7.69,-13.215c0.04,-0.051 0.1,-0.084 0.17,-0.091c0.06,-0.008 0.13,0.011 0.18,0.052c0.05,0.041 0.09,0.1 0.09,0.165c0.01,0.064 -0.01,0.129 -0.05,0.18c-0.08,0.094 -7.67,9.659 -7.59,12.894c0.01,0.065 -0.02,0.128 -0.06,0.175c-0.05,0.047 -0.11,0.075 -0.17,0.077z" fill="#E88787"/>
<path id="Vector_32" d="M189.5256,153.2998c-0.06,0 -0.13,-0.025 -0.17,-0.072c-0.05,-0.046 -0.07,-0.108 -0.07,-0.173c0,-0.066 0.02,-0.128 0.07,-0.174c0.04,-0.046 0.11,-0.072 0.17,-0.072c1.37,-0.03 4.38,-0.85 4.41,-0.857c0.03,-0.009 0.06,-0.012 0.1,-0.008c0.03,0.004 0.06,0.015 0.09,0.032c0.03,0.016 0.05,0.038 0.07,0.065c0.02,0.026 0.03,0.056 0.04,0.088c0.01,0.032 0.01,0.064 0.01,0.096c-0.01,0.032 -0.02,0.063 -0.04,0.091c-0.01,0.028 -0.03,0.052 -0.06,0.072c-0.03,0.019 -0.06,0.033 -0.09,0.04c-0.12,0.036 -3.09,0.842 -4.52,0.876z" fill="#E88787"/>
<path id="Vector_33" d="M129.4856,53.9548c3.98,7.33 9.96,11.441 17.36,10.084l-1.45,-12.441l-16.43,-1.453z" fill="#EA8D8D"/>
<path id="Vector_34" d="M146.6656,169.6598c-8.44,0 -18.65,-0.953 -29.1,-4.175c-0.04,-0.011 -0.07,-0.03 -0.11,-0.056c-0.03,-0.025 -0.05,-0.056 -0.07,-0.091c-0.02,-0.035 -0.03,-0.073 -0.03,-0.113c-0.01,-0.039 0,-0.079 0.01,-0.117c0.01,-0.038 0.03,-0.074 0.06,-0.105c0.02,-0.031 0.05,-0.056 0.09,-0.075c0.03,-0.018 0.07,-0.03 0.11,-0.033c0.04,-0.003 0.08,0.002 0.12,0.015c25.42,7.836 49.43,2.183 49.67,2.123c0.04,-0.01 0.08,-0.012 0.12,-0.006c0.03,0.006 0.07,0.02 0.1,0.04c0.04,0.021 0.07,0.048 0.09,0.08c0.02,0.033 0.04,0.069 0.04,0.107c0.02,0.077 0.01,0.156 -0.03,0.223c-0.05,0.066 -0.11,0.113 -0.19,0.131c-0.13,0.051 -8.65,2.052 -20.88,2.052z" fill="white"/>
<path id="Vector_35" d="M103.4956,201.7578h-0.04c-0.04,-0.005 -0.08,-0.018 -0.11,-0.038c-0.03,-0.02 -0.06,-0.047 -0.09,-0.078c-0.02,-0.032 -0.04,-0.068 -0.05,-0.106c-0.01,-0.039 -0.01,-0.079 -0.01,-0.118c1.16,-8.883 12.37,-26.153 12.85,-26.892c0.04,-0.064 0.11,-0.107 0.19,-0.122c0.07,-0.014 0.15,0.002 0.22,0.044c0.06,0.043 0.11,0.11 0.13,0.186c0.01,0.076 0,0.156 -0.04,0.223c-0.12,0.177 -11.61,17.885 -12.75,26.634c-0.01,0.073 -0.04,0.141 -0.1,0.19c-0.05,0.05 -0.12,0.077 -0.2,0.077z" fill="white"/>
<path id="Vector_36" d="M151.1956,202.5328c-0.01,0.002 -0.02,0.002 -0.04,0c-0.04,-0.005 -0.07,-0.018 -0.11,-0.038c-0.03,-0.02 -0.06,-0.047 -0.09,-0.078c-0.02,-0.032 -0.04,-0.068 -0.05,-0.106c-0.01,-0.038 -0.01,-0.078 0,-0.118c1.14,-8.787 0.2,-31.901 0.19,-32.134c0,-0.04 0,-0.08 0.01,-0.117c0.02,-0.037 0.04,-0.072 0.07,-0.101c0.02,-0.029 0.06,-0.053 0.09,-0.069c0.04,-0.017 0.08,-0.027 0.12,-0.028h0.01c0.08,0 0.15,0.031 0.21,0.085c0.05,0.054 0.09,0.127 0.09,0.205c0,0.232 0.96,23.396 -0.2,32.241c-0.01,0.072 -0.04,0.137 -0.1,0.185c-0.05,0.047 -0.12,0.073 -0.2,0.073z" fill="white"/>
<path id="Vector_37" d="M156.6856,202.7118c-0.12,0 -0.32,-0.06 -0.37,-0.444c0,-0.069 0.01,-0.14 0.05,-0.198c0.04,-0.059 0.09,-0.103 0.16,-0.124c0.07,-0.45 0.2,-1.538 0.37,-4.193c0.39,-5.924 -0.95,-28.241 -0.97,-28.466c0,-0.039 0.01,-0.079 0.02,-0.117c0.01,-0.037 0.03,-0.072 0.06,-0.102c0.03,-0.029 0.06,-0.054 0.09,-0.071c0.04,-0.017 0.08,-0.028 0.12,-0.03h0.02c0.07,0 0.15,0.029 0.2,0.081c0.06,0.053 0.09,0.125 0.1,0.202c0.01,0.227 1.35,22.579 0.97,28.542c-0.32,4.906 -0.47,4.911 -0.81,4.92z" fill="white"/>
<path id="Vector_38" d="M173.3056,185.4698c-0.04,0.001 -0.09,-0.008 -0.12,-0.025c-0.04,-0.017 -0.08,-0.042 -0.11,-0.074c-0.05,-0.063 -5.7,-6.369 -9.17,-17.174c-0.03,-0.076 -0.02,-0.159 0.02,-0.23c0.04,-0.071 0.1,-0.125 0.17,-0.15c0.08,-0.02 0.16,-0.011 0.23,0.025c0.07,0.037 0.12,0.098 0.15,0.171c3.42,10.664 8.99,16.891 9.05,16.953c0.04,0.043 0.06,0.097 0.07,0.155c0.01,0.058 0,0.117 -0.02,0.171c-0.02,0.054 -0.06,0.099 -0.11,0.131c-0.05,0.031 -0.11,0.048 -0.17,0.047z" fill="white"/>
<path id="Vector_39" d="M107.7556,190.1288c-0.07,0.001 -0.14,-0.025 -0.2,-0.074c-0.06,-0.049 -0.09,-0.117 -0.1,-0.191c-0.01,-0.075 0.01,-0.149 0.05,-0.21c0.05,-0.061 0.11,-0.104 0.18,-0.12c22.87,-5.525 30.36,-20.328 30.43,-20.477c0.04,-0.072 0.1,-0.127 0.18,-0.153c0.07,-0.026 0.16,-0.021 0.23,0.013c0.03,0.017 0.07,0.041 0.09,0.071c0.03,0.03 0.05,0.064 0.06,0.102c0.02,0.037 0.02,0.077 0.02,0.117c0,0.039 -0.01,0.078 -0.03,0.114c-0.08,0.154 -7.7,15.215 -30.84,20.797c-0.02,0.007 -0.04,0.01 -0.07,0.011z" fill="white"/>
<path id="Vector_40" d="M125.8656,72.6998c0,0 6.98,28.697 7.56,47.893c0.58,19.196 -9.89,71.355 -9.89,71.355c0,0 -10.08,4.265 -23.07,-4.07c0,0 14.54,-27.147 14.54,-32.377c0,-5.229 -7.56,-40.816 -7.56,-40.816l-11.34,-29.666c0,0 6.69,-5.235 13.09,-8.139c5.39,-2.459 16.67,-4.18 16.67,-4.18z" fill="#F2B8B8"/>
<path id="Vector_41" d="M149.6056,73.9588c0,0 18.05,32.867 18.05,37.81c0,4.944 -3.13,45.408 -1.71,52.226c1.42,6.819 5.48,20.488 5.48,20.488c0,0 4.95,-1.164 6.11,-1.164c1.17,0 -4.07,-43.336 -4.07,-43.336c0,0 10.47,18.032 15.42,18.032c4.95,0 11.38,-1.744 14.29,-4.069c2.91,-2.325 17.44,-41.31 17.44,-41.31l-15.45,-9.023l-13.67,22.977c0,0 -9.6,-24.431 -10.76,-28.792c-1.17,-4.361 -6.11,-14.543 -7.27,-16.58c-1.17,-2.036 -15.13,-6.089 -23.86,-7.259z" fill="#EFACAC"/>
<path id="Vector_42" d="M133.4256,120.5978c-0.58,-19.196 -7.56,-47.893 -7.56,-47.893c0,0 -3.97,0.607 -8.32,1.61c0.14,0.617 3.89,17.482 10.46,30.043l-2.34,6.686c0,0 5.68,25.284 5.96,32.825c1.18,-9.163 1.97,-17.641 1.8,-23.271z" fill="#E98989"/>
<path id="Vector_43" d="M167.6556,111.7698c0,1.893 -0.46,8.998 -0.95,17.421l2.01,4.103l2.77,-27.34l-6.55,-6.546c0,-5.182 -3.45,-19.122 -4.49,-23.237c-3.72,-0.966 -7.63,-1.785 -10.83,-2.213c-0.01,0.001 18.04,32.868 18.04,37.812z" fill="#E98989"/>
<path id="Vector_44" d="M139.2456,148.0068c6.91,-3.873 8.75,-5.435 11.85,-6.267c3.1,-0.831 7.85,-1.273 7.85,-1.273c0,0 1.69,0.971 -0.93,2.268c-2.62,1.296 -7.54,3.328 -9.02,4.911c-1.47,1.583 -3.75,6.824 -3.75,6.824z" fill="#F5CCCC"/>
<path id="Vector_45" d="M147.5256,145.6678l10.95,1.592c0,0 9.34,-2.349 9.68,-0.932c0.34,1.417 -8.78,3.816 -8.78,3.816l-3.92,0.344l3.94,0.552c0,0 9.22,-3.222 9.63,-1.522c0.41,1.7 -9.26,4.731 -9.26,4.731l-4.43,0.269l3.69,0.409c0,0 8.16,-3.067 8.69,-1.296c0.53,1.771 -8.98,4.926 -8.98,4.926l-3.42,0.124l2.76,0.575c0,0 6.85,-2.252 7.53,-1.117c0.53,0.905 -4.58,2.92 -6.7,3.707c-0.58,0.215 -1.2,0.276 -1.81,0.177l-9.36,-2.343z" fill="#F5CCCC"/>
<path id="Vector_46" d="M147.7356,159.6678c-7.91,-2.702 -18.98,-3.538 -18.98,-3.538l1.84,-9.802c0,0 11.07,0.34 13.34,0.354c2.26,0.014 6.53,1.813 6.53,1.813z" fill="#F5CCCC"/>
<path id="Vector_47" d="M96.1056,85.0118c-5.92,-0.74 -14.88,51.957 -15.13,57.298c-0.58,12.507 5.24,18.322 12.8,19.486c7.56,1.165 47.42,-1.454 47.42,-1.454l-0.3,-15.997l-34.9,-7.852l4.07,-25.3c0,0 -6.98,-25.307 -13.96,-26.181z" fill="#EFACAC"/>
<path id="Vector_48" d="M192.9956,320.6678c0.62,-18.4 13.94,-32.839 32.89,-32.2c18.77,0.626 30.92,15.729 30.3,34.314c-0.61,18.223 -13.93,32.839 -32.89,32.2c-18.77,-0.626 -30.92,-15.73 -30.3,-34.314zM306.5756,292.6398c7.3,0.244 11.24,8.68 6.74,14.439l-85.67,109.497c-0.87,1.108 -1.99,1.996 -3.26,2.591c-1.28,0.595 -2.67,0.881 -4.08,0.835c-7.31,-0.245 -11.25,-8.68 -6.74,-14.439l85.67,-109.498c0.87,-1.108 1.99,-1.996 3.26,-2.591c1.27,-0.595 2.67,-0.881 4.08,-0.834zM236.6756,322.1238c0.29,-8.734 -4.29,-16.516 -11.72,-16.763c-7.81,-0.26 -12.15,7.036 -12.44,15.956c-0.3,8.737 4.28,16.516 11.72,16.764c7.8,0.262 12.15,-7.222 12.44,-15.957zM270.6956,389.8748c0.61,-18.4 13.93,-32.839 32.89,-32.2c18.77,0.626 30.92,15.73 30.3,34.323c-0.61,18.213 -13.94,32.839 -32.89,32.2c-18.77,-0.644 -30.92,-15.746 -30.3,-34.323zM314.3656,391.3328c0.29,-8.737 -4.28,-16.516 -11.72,-16.765c-7.8,-0.26 -12.14,7.038 -12.44,15.958c-0.29,8.735 4.29,16.516 11.72,16.764c7.81,0.251 12.15,-7.233 12.44,-15.966z" fill="#E36C6C"/>
<path id="Vector_49" d="M202.2456,320.6658c0.61,-18.4 13.93,-32.837 32.89,-32.2c18.77,0.627 30.92,15.729 30.29,34.315c-0.6,18.212 -13.93,32.838 -32.88,32.2c-18.78,-0.625 -30.93,-15.729 -30.3,-34.315zM315.8156,292.6398c7.31,0.244 11.25,8.68 6.74,14.439l-85.67,109.497c-0.87,1.108 -1.98,1.996 -3.26,2.591c-1.27,0.595 -2.67,0.881 -4.08,0.835c-7.3,-0.245 -11.24,-8.682 -6.74,-14.439l85.67,-109.498c0.87,-1.108 1.99,-1.996 3.26,-2.591c1.28,-0.595 2.68,-0.881 4.08,-0.834zM245.9156,322.1238c0.29,-8.735 -4.29,-16.516 -11.72,-16.763c-7.81,-0.262 -12.14,7.036 -12.44,15.956c-0.29,8.737 4.29,16.516 11.72,16.764c7.81,0.262 12.15,-7.222 12.44,-15.957zM279.9356,389.8748c0.62,-18.4 13.93,-32.839 32.89,-32.2c18.77,0.626 30.92,15.73 30.3,34.323c-0.61,18.213 -13.93,32.839 -32.89,32.2c-18.77,-0.644 -30.92,-15.746 -30.3,-34.323zM323.6156,391.3328c0.29,-8.737 -4.29,-16.516 -11.72,-16.765c-7.81,-0.26 -12.15,7.038 -12.44,15.958c-0.3,8.735 4.28,16.516 11.72,16.764c7.8,0.251 12.15,-7.233 12.44,-15.966z" fill="#EDA1A1"/>
<path id="Vector_50" d="M451.0156,410.4348h-6.03l-1.12,-4.794l6.9,-0.457z" fill="#E26363"/>
<path id="Vector_51" d="M451.0056,410.4348h3.36l0.9,-5.022l-4.51,-0.229z" fill="#EC9898"/>
<path id="Vector_52" d="M444.0056,407.9208h-17.65l-0.22,2.511h15.81c3.44,0 6.69,-1.936 8.8,-5.251l-0.54,0.442c-1.83,1.502 -3.99,2.298 -6.2,2.298z" fill="#E26363"/>
<path id="Vector_53" d="M453.4956,390.9528h-16.16l-4,7.889c-0.71,1.395 -1.79,2.446 -3.06,2.977c-2.14,0.885 -3.66,3.224 -3.89,5.975l-0.01,0.131h17.65c2.21,0 4.37,-0.8 6.19,-2.3l0.54,-0.443l4.51,0.229c2.98,-5.706 -1.77,-14.458 -1.77,-14.458z" fill="#E05858"/>
<path id="Vector_54" d="M437.3356,390.9528h16.16l-5.84,2.073c-3.63,1.3 -7.62,1.132 -11.13,-0.469z" fill="white"/>
<path id="Vector_55" d="M382.5756,408.4658h-19.28c-0.18,0.694 -0.27,1.407 -0.27,2.123h17.88c2.81,0 5.56,-0.964 7.95,-2.783l2.99,-2.28l-4.17,1.84c-1.6,0.718 -3.34,1.093 -5.1,1.1z" fill="#E26363"/>
<path id="Vector_56" d="M391.8556,410.5958h10.65l0.91,-5.065h-11.56z" fill="#E26363"/>
<path id="Vector_57" d="M402.5056,390.9528h-18.8l-8.87,9.269c-0.57,0.6 -1.26,1.068 -2.02,1.371l-5.72,2.213c-1.85,0.708 -3.23,2.477 -3.79,4.66h19.28c1.76,-0.004 3.5,-0.376 5.11,-1.093l4.17,-1.84h11.56c1.99,-4.298 -0.92,-14.58 -0.92,-14.58z" fill="#E05858"/>
<path id="Vector_58" d="M383.7056,390.9528h18.8l-6.93,2.284c-4.4,1.462 -9.19,1.227 -13.43,-0.658z" fill="white"/>
<path id="Vector_59" d="M456.8556,391.2368l-23.86,-0.263c-0.16,-0.002 -0.31,-0.057 -0.43,-0.156c-0.12,-0.099 -0.21,-0.236 -0.24,-0.389c-3.1,-13.956 -16.69,-131.076 -19.21,-150.534c-0.03,-0.157 -0.1,-0.303 -0.21,-0.413c-0.12,-0.11 -0.27,-0.177 -0.42,-0.191c-0.16,-0.014 -0.32,0.027 -0.45,0.115c-0.13,0.089 -0.23,0.219 -0.28,0.371l-12.84,40.568c-0.02,0.091 -0.03,0.187 -0.02,0.282l9.89,109.524c0,0.096 -0.01,0.194 -0.04,0.285c-0.03,0.092 -0.08,0.177 -0.14,0.249c-0.07,0.072 -0.15,0.13 -0.24,0.17c-0.08,0.04 -0.18,0.062 -0.28,0.064l-26.31,0.099c-0.16,0.001 -0.32,-0.057 -0.45,-0.164c-0.12,-0.106 -0.21,-0.254 -0.23,-0.417c-1.26,-7.476 -14.1,-97.47 -14.1,-114.164c0,-13.296 10.44,-63.408 16.18,-83.416c0.07,-0.23 1.66,-0.051 1.89,-0.119c0.06,-0.015 0.12,-0.024 0.18,-0.026l20.48,-0.395c0.05,0 0.1,0.004 0.15,0.014c6.66,1.347 14.81,-0.941 20.59,0.057c0.06,0.007 0.12,0.007 0.18,0l25.06,-2.176l0.05,0.026c2.37,35.118 5.55,189.259 5.8,200.277c0.01,0.095 -0.01,0.188 -0.04,0.276c-0.04,0.088 -0.09,0.168 -0.15,0.236c-0.07,0.067 -0.15,0.121 -0.24,0.157c-0.08,0.036 -0.18,0.054 -0.27,0.053z" fill="#E26363"/>
<g id="Vector_60" style="mix-blend-mode:multiply" opacity="0.19">
<path d="M457.5656,391.2428c0,0 -4.6,-78.885 -4.67,-132.395c0,-0.045 0,-0.089 0,-0.133c0,-1.17 0,-2.334 0,-3.493c0,-0.484 0,-0.964 0,-1.447c0,-0.707 0,-1.415 0,-2.123c-0.08,-23.212 -0.4,-50.501 -1.14,-61.403l-10.8,2.764l5.1,197.957l11.32,0.255z" fill="#DD4A4A"/>
</g>
<path id="Vector_61" opacity="0.53" d="M402.1156,391.0798l6.76,-0.165l-9.99,-110.433l13.83,-43.707l-25.84,42.558z" fill="#E05858"/>
<path id="Vector_62" d="M334.8456,112.7128l28.78,23.504c3.37,-12.634 17.46,-61.599 32.84,-60.543c12.27,0.842 0.88,48.095 0.88,48.095l-16.96,26.143l0.76,0.618c0,0 -9.09,14.193 -18.52,12.462c-11.48,-2.107 -40.59,-37.819 -40.59,-37.819z" fill="#F7D7D7"/>
<path id="Vector_63" d="M436.1956,63.8798l30.6,15.601c0,0 -1.09,47.683 -12.52,67.939l-2.49,36.952l-67.61,-0.354c0,0 -3.21,-92.29 6.57,-106.961c0.36,-0.518 20.08,-12.807 20.08,-12.807z" fill="#EFA8A8"/>
<path id="Vector_64" d="M410.3956,74.0358c0,0 19.87,-5.17 22.4,-11.005l-0.11,-18.632l-0.02,-3.007c-0.56,0.081 -21.38,17.412 -21.38,17.412c0.17,1.49 0.22,2.989 0.17,4.487c-0.13,5.101 -1.06,10.745 -1.06,10.745z" fill="#F5C9C9"/>
<path id="Vector_65" d="M411.4556,63.2868c2.23,0.05 4.7,-0.244 6.9,-1.061c7.83,-2.907 13.71,-9.989 14.33,-17.82c0.09,-1.001 0.09,-2.008 -0.01,-3.007c0,0 -6.72,15.809 -21.38,17.412c0.17,1.486 0.22,2.982 0.16,4.476z" fill="#F1B3B3"/>
<path id="Vector_66" d="M418.4956,77.4678l-5.43,7.659c0,0 -2.59,-1.239 -5.35,-0.885c0,0 -1.06,-5.255 -0.18,-8.193l4.21,-2.845z" fill="#F5C9C9"/>
<path id="Vector_67" d="M438.1956,100.7048c0,0 -9.76,0.4 -17.77,-0.802c0,0 -3.34,22.843 6.68,25.781c0,0 7.88,1.202 10.02,-6.546c2.61,-9.488 1.07,-18.433 1.07,-18.433z" fill="#F7D7D7"/>
<path id="Vector_68" d="M413.3256,85.0208c0,0 1.33,50.494 1.33,51.562c0,1.069 -7.3,9.885 -9.44,10.331c-2.13,0.446 -4.54,-9.708 -4.9,-11.311c-0.35,-1.603 5.7,-46.396 7.31,-51.384c0,0 4.89,-0.178 5.7,0.802z" fill="#F5C9C9"/>
<path id="Vector_69" d="M432.6456,58.6938c-2.42,3.925 -20.54,14.843 -20.54,14.843c0,0 4.56,2.33 11.22,7.636c4.11,3.271 12.91,-17.493 12.91,-17.493c0,0 -3.58,-5.005 -3.59,-4.986z" fill="#F7D7D7"/>
<path id="Vector_70" d="M412.1856,73.5598c0,0 -9.23,6.054 -9.83,5.024c-0.46,-0.808 2.17,-9.393 5.91,-13.126c0.08,-0.085 3.23,-2.717 3.23,-2.717c0,0 -0.81,8.129 0.69,10.819z" fill="#F7D7D7"/>
<path id="Vector_71" d="M385.3556,116.2648l-2.4,62.387l44.13,3.811l3.81,-63.388z" fill="#EC9B9B"/>
<path id="Vector_72" d="M413.3356,121.4528l12.46,0.778l-3.64,57.118l-36.34,-3.765l2.46,-55.688z" fill="#E4EBFA"/>
<path id="Vector_73" d="M407.8856,149.7518l43.28,3.715l-4.33,-56.323c0,0 5.02,-18.692 20.17,-17.654c0,0 4.75,0 6.14,18.692c0,0 11.5,65.002 -4.88,76.758c-9.88,7.091 -64.35,-5.967 -64.35,-5.967z" fill="#F7D7D7"/>
<path id="Vector_74" d="M416.7656,118.0128c0,0 -0.58,4.349 -1.3,4.933c-0.71,0.584 -19.73,-0.91 -20.31,-1.104c-0.38,-0.128 -0.6,-2.686 -0.71,-4.423c-0.01,-0.203 0.02,-0.407 0.09,-0.597c0.07,-0.191 0.18,-0.364 0.33,-0.509c0.14,-0.146 0.31,-0.259 0.5,-0.334c0.19,-0.074 0.39,-0.108 0.6,-0.1c5.09,0.215 20.76,0.885 21.58,1.103c0.97,0.26 0.97,1.362 0.97,1.362z" fill="#F2B8B8"/>
<path id="Vector_75" d="M413.2056,116.6488c-0.2,-1.294 -0.9,-2.458 -1.94,-3.245c-1.76,-1.298 -9.8,-1.622 -11.23,-0.707c-1.43,0.914 -1.56,3.439 -1.56,3.439h1.3c0,0 0.79,-2.077 1.76,-2.206c0.97,-0.129 6.55,-0.326 8.37,0.778c1.82,1.104 1.56,2.077 1.56,2.077z" fill="#E98B8B"/>
<path id="Vector_76" d="M379.8456,150.2698c-1.3,-1.686 -1.3,-4.673 0.52,-5.451c1.82,-0.778 8.83,1.299 8.83,1.299c0,0 0.45,-0.144 1.15,-0.354c-0.93,-0.65 -2.01,-1.038 -3.14,-1.125c-3.03,-0.261 -3.89,-2.596 -3.55,-3.203c0.34,-0.607 0.6,-0.692 6.4,0.434c5.8,1.125 6.96,1.578 8.35,2.616c3.41,2.532 5.1,6.069 5.1,6.069l3.91,1.592l-2.27,17.075l-4.01,-0.653c0,0 -17.65,-1.298 -18.95,-2.208c-1.3,-0.909 -1.56,-3.763 -1.56,-3.763c-2.21,-4.025 -0.78,-5.971 -0.78,-5.971c-0.56,-0.965 -0.86,-2.062 -0.86,-3.179c0,-1.116 0.3,-2.213 0.86,-3.178z" fill="#F5CCCC"/>
<path id="Vector_77" d="M295.2756,107.1008c1.43,-0.906 5.92,1.21 7.94,2.239c-0.56,-0.412 -1.85,-1.387 -2.39,-1.912c-0.7,-0.678 -8.54,-3.567 -4.41,-4.179c3.7,-0.548 8.84,3.22 9.87,4.007c-1.29,-1.038 -5.06,-3.685 -5.95,-4.041c-0.94,-0.375 -4.91,-3.089 0.17,-2.639c1.45,0.152 2.85,0.566 4.14,1.22l-0.37,-0.274c0,0 -2.84,-1.879 0.64,-1.592c3.47,0.287 8.67,4.655 8.67,4.655l-0.14,0.037l7.93,1.042c0,0 1.13,-2.585 0.08,-5.152c-1.05,-2.567 0.15,-5.255 1.34,-4.563c1.18,0.692 3.59,6.132 5.04,7.962c1.45,1.829 2.71,7.406 2.71,7.406l2.9,2.795l-10.19,9.936c0,0 -3.24,-4.039 -8.49,-5.095c-3.01,-0.605 -9.3,-4.547 -11.29,-5.8v0.03c-0.04,-0.04 -0.09,-0.081 -0.13,-0.122c-0.87,-0.554 -1.56,-1.053 -2,-1.391c-3.17,-1.877 -7.55,-3.633 -6.07,-4.569z" fill="#F5CCCC"/>
<path id="Vector_78" d="M451.6656,184.3658l0.26,8.64h-69.11l1.06,-8.992z" fill="#E05858"/>
<path id="Vector_79" d="M447.3156,184.0528l0.33,9.043h-4.99l-0.35,-8.906z" fill="#E98B8B"/>
<path id="Vector_80" d="M411.1656,184.0528l-0.07,9.066l-14.89,-0.136l0.2,-8.862z" fill="white"/>
<path id="Vector_81" d="M428.1756,184.1208l0.46,9.067l-5.54,-0.069l-0.53,-8.929z" fill="#E98B8B"/>
<path id="Vector_82" d="M390.0556,184.2588l-0.53,8.929l-4.14,-0.069l0.6,-9.135z" fill="#E98B8B"/>
<path id="Vector_83" d="M451.5756,155.0148c0,0 3,5.998 9,9.407z" fill="#EFA8A8"/>
<path id="Vector_84" d="M453.3556,154.6058c0,0 4.49,3.271 8.45,4.225z" fill="#EFA8A8"/>
<path id="Vector_85" d="M363.9256,138.0198c0,0 0.91,7.087 -0.72,11.632z" fill="#EFA8A8"/>
<path id="Vector_86" d="M365.1956,137.4728c0,0 2.73,2.909 3.09,9.998z" fill="#EFA8A8"/>
<path id="Vector_87" d="M471.1656,96.5748c0,0 -9.09,-0.909 -16.18,2.545z" fill="#EFA8A8"/>
<path id="Vector_88" d="M310.1156,105.9448c-0.04,0 -0.08,-0.009 -0.11,-0.026c-0.04,-0.018 -0.08,-0.043 -0.1,-0.075c-1.64,-1.963 -4.07,-2.979 -4.47,-3.103c-0.07,0.001 -0.14,-0.024 -0.19,-0.071c-0.04,-0.035 -0.07,-0.08 -0.08,-0.13c-0.02,-0.05 -0.02,-0.103 -0.01,-0.154c0.01,-0.051 0.04,-0.097 0.08,-0.134c0.04,-0.036 0.08,-0.062 0.13,-0.073c0.3,-0.064 3.19,1.169 4.97,3.304c0.03,0.042 0.06,0.092 0.06,0.145c0.01,0.053 0,0.107 -0.02,0.155c-0.02,0.049 -0.06,0.09 -0.1,0.118c-0.05,0.029 -0.1,0.044 -0.16,0.044z" fill="#F1B3B3"/>
<path id="Vector_89" d="M303.5356,109.8308c-0.04,0 -0.08,-0.008 -0.12,-0.024c-0.03,-0.015 -0.06,-0.038 -0.09,-0.067c-0.02,-0.026 -0.04,-0.058 -0.06,-0.092c-0.01,-0.035 -0.02,-0.071 -0.02,-0.108c0.01,-0.037 0.01,-0.073 0.03,-0.107c0.01,-0.033 0.04,-0.064 0.06,-0.089c4.04,-3.763 9.2,-4.671 9.42,-4.706c0.04,-0.009 0.08,-0.009 0.11,-0.003c0.04,0.007 0.08,0.022 0.11,0.043c0.03,0.021 0.06,0.049 0.08,0.081c0.02,0.032 0.03,0.068 0.04,0.106c0.01,0.038 0,0.077 0,0.114c-0.01,0.037 -0.03,0.072 -0.05,0.103c-0.03,0.03 -0.06,0.056 -0.09,0.075c-0.03,0.019 -0.07,0.031 -0.11,0.035c-0.05,0.009 -5.21,0.918 -9.12,4.563c-0.05,0.048 -0.12,0.076 -0.19,0.076z" fill="#F1B3B3"/>
<path id="Vector_90" d="M323.4356,112.7598c-0.05,0.001 -0.09,-0.009 -0.13,-0.029c-0.04,-0.02 -0.07,-0.05 -0.1,-0.086c-1.68,-2.3 -1.49,-5.826 -1.48,-5.974c0,-0.037 0.01,-0.074 0.02,-0.107c0.02,-0.034 0.04,-0.064 0.07,-0.088c0.03,-0.025 0.06,-0.044 0.09,-0.056c0.04,-0.012 0.08,-0.017 0.11,-0.015c0.08,0.005 0.15,0.039 0.2,0.094c0.05,0.056 0.07,0.129 0.07,0.204c0,0.035 -0.18,3.473 1.37,5.612c0.05,0.06 0.07,0.135 0.05,0.209c-0.01,0.073 -0.05,0.139 -0.11,0.183c-0.05,0.035 -0.1,0.054 -0.16,0.053z" fill="#F1B3B3"/>
<path id="Vector_91" d="M315.8756,113.0348c-0.04,0 -0.07,-0.006 -0.1,-0.018c-0.06,-0.019 -5.73,-2.042 -8,-2.442c-0.07,-0.012 -0.14,-0.054 -0.18,-0.115c-0.04,-0.061 -0.06,-0.136 -0.04,-0.209c0.01,-0.073 0.05,-0.138 0.11,-0.181c0.06,-0.043 0.14,-0.059 0.21,-0.047c2.32,0.407 7.86,2.382 8.09,2.465c0.06,0.022 0.11,0.066 0.15,0.123c0.03,0.057 0.04,0.124 0.03,0.19c-0.01,0.065 -0.04,0.125 -0.09,0.168c-0.05,0.042 -0.12,0.066 -0.18,0.066z" fill="#F1B3B3"/>
<path id="Vector_92" d="M412.9156,85.2218c-0.04,0 -0.08,-0.007 -0.11,-0.021c-0.03,-0.012 -2.61,-1.102 -5.03,-0.688c-0.04,0.008 -0.08,0.009 -0.12,0.002c-0.03,-0.006 -0.07,-0.021 -0.1,-0.042c-0.03,-0.022 -0.06,-0.049 -0.08,-0.081c-0.02,-0.032 -0.04,-0.069 -0.04,-0.106c-0.01,-0.038 -0.01,-0.077 0,-0.114c0.01,-0.037 0.03,-0.072 0.05,-0.103c0.02,-0.03 0.05,-0.056 0.09,-0.075c0.03,-0.019 0.07,-0.031 0.1,-0.035c2.59,-0.442 5.24,0.678 5.35,0.725c0.06,0.028 0.1,0.073 0.13,0.128c0.03,0.056 0.03,0.12 0.02,0.181c-0.01,0.06 -0.04,0.115 -0.09,0.156c-0.05,0.04 -0.11,0.064 -0.17,0.066z" fill="#EFA8A8"/>
<path id="Vector_93" d="M411.8156,102.5818c-0.04,0 -0.07,-0.008 -0.11,-0.022c-0.03,-0.015 -0.06,-0.035 -0.09,-0.062c-0.02,-0.026 -0.04,-0.057 -0.06,-0.091c-0.01,-0.035 -0.02,-0.071 -0.02,-0.108l0.09,-16.995c0,-0.075 0.03,-0.146 0.09,-0.198c0.05,-0.052 0.12,-0.082 0.2,-0.082c0.07,0.001 0.14,0.031 0.19,0.084c0.05,0.053 0.08,0.125 0.08,0.199l-0.09,16.995c0,0.037 0,0.074 -0.02,0.108c-0.01,0.034 -0.03,0.065 -0.06,0.091c-0.03,0.026 -0.06,0.046 -0.09,0.06c-0.04,0.014 -0.07,0.021 -0.11,0.021z" fill="#EFA8A8"/>
<path id="Vector_94" d="M411.7156,107.1248c-0.07,0 -0.14,-0.029 -0.2,-0.081c-0.05,-0.053 -0.08,-0.124 -0.08,-0.198v-2.546c0,-0.075 0.03,-0.146 0.08,-0.199c0.06,-0.053 0.13,-0.082 0.2,-0.082c0.08,0 0.15,0.029 0.2,0.082c0.05,0.053 0.08,0.124 0.08,0.199v2.546c0,0.074 -0.03,0.145 -0.08,0.198c-0.05,0.052 -0.12,0.081 -0.2,0.081z" fill="#EFA8A8"/>
<path id="Vector_95" d="M410.8156,154.8788c0,0.296 0.09,0.586 0.26,0.833c0.16,0.247 0.4,0.439 0.67,0.553c0.28,0.113 0.58,0.143 0.87,0.085c0.29,-0.058 0.56,-0.201 0.77,-0.41c0.21,-0.21 0.35,-0.478 0.41,-0.769c0.05,-0.291 0.02,-0.592 -0.09,-0.866c-0.11,-0.275 -0.3,-0.509 -0.55,-0.674c-0.25,-0.165 -0.54,-0.253 -0.84,-0.253c-0.39,0 -0.77,0.158 -1.06,0.44c-0.28,0.281 -0.44,0.663 -0.44,1.061z" fill="#EFA8A8"/>
<path id="Vector_96" d="M103.5056,266.1168c0,0 -12.77,101.795 -16.26,144.318c-0.46,5.715 9.4,7.221 10.33,1.593c5.99,-36.404 25.2,-145.904 25.2,-145.904z" fill="#E57373"/>
<path id="Vector_97" d="M442.3156,266.1168c0,0 12.78,101.795 16.26,144.318c0.47,5.715 -9.4,7.221 -10.32,1.593c-5.99,-36.404 -25.2,-145.904 -25.2,-145.904z" fill="#E57373"/>
<path id="Vector_98" d="M92.2256,253.0388h363.31v4.862c0,3.882 -1.54,7.605 -4.29,10.35c-2.74,2.745 -6.47,4.287 -10.35,4.287h-334.03c-3.88,0 -7.6,-1.542 -10.35,-4.287c-2.74,-2.745 -4.29,-6.468 -4.29,-10.35v-4.862z" fill="#E67B7B"/>
<path id="Vector_99" d="M481.2656,250.8558h-414.55v8.195h414.55z" fill="#F6CECE"/>
<path id="Vector_100" d="M92.7256,236.2228l-26.12,14.792h414.56l-24.08,-14.792z" fill="#EA9292"/>
<path id="Vector_101" d="M397.8856,13.1758c0,0 -3.15,-2.686 -3.16,-5.908c2.27,0.819 5.1,0.745 7.88,0.241c-1.71,-2.771 1.55,-7.509 1.55,-7.509c1.63,5.143 7.59,4.503 7.59,4.503c4.02,-1.474 9.48,-2.396 13.13,-1.223c4.14,1.333 4.87,7.024 4.87,7.024c0,0 1.55,0.651 5.06,2.888c3.52,2.236 5.1,8.563 2.1,13.547c-3,4.984 -6.56,11.485 -6.56,11.485l-28.08,-8.685c0,0 -3.78,-2.089 -4.84,-4.876c-1.06,-2.786 1.04,-6.949 1.04,-6.949c0,0 -2.96,0 -5,1.79c-0.05,-4.908 4.42,-6.328 4.42,-6.328z" fill="black"/>
<path id="Vector_102" d="M413.2656,39.5158l-0.51,19.939c0,0 2.13,4.59 8.75,5.269c5.56,0.572 9.89,-5.403 9.89,-5.403l-0.33,-21.74z" fill="#F5CCCC"/>
<path id="Vector_103" d="M412.7556,59.5538l12.86,-10.658l-13.29,5.184z" fill="#F1B3B3"/>
<path id="Vector_104" d="M401.2056,19.4118l-0.67,26.114c-0.01,0.566 0.11,1.127 0.36,1.636c0.24,0.51 0.61,0.953 1.06,1.292l6.97,5.168c0.48,0.359 1.04,0.589 1.63,0.669c0.59,0.08 1.2,0.008 1.76,-0.211l13.33,-5.169c0.65,-0.254 1.22,-0.695 1.62,-1.267c0.4,-0.573 0.63,-1.252 0.64,-1.952l0.66,-25.586z" fill="#F5CCCC"/>
<path id="Vector_105" d="M400.8756,32.5668l-0.26,10.284c1.37,0.035 2.69,-0.474 3.68,-1.414c0.98,-0.94 1.56,-2.234 1.59,-3.598c0.04,-1.364 -0.47,-2.686 -1.41,-3.674c-0.94,-0.989 -2.23,-1.564 -3.6,-1.598z" fill="#F1B3B3"/>
<path id="Vector_106" d="M411.2156,38.3698h-0.01l-3.96,-0.101c-0.06,-0.002 -0.11,-0.015 -0.16,-0.039c-0.05,-0.024 -0.1,-0.058 -0.13,-0.099c-0.04,-0.042 -0.06,-0.091 -0.08,-0.145c-0.02,-0.053 -0.02,-0.108 -0.01,-0.163l1.43,-11.132c0.01,-0.104 0.07,-0.198 0.15,-0.262c0.08,-0.065 0.19,-0.093 0.29,-0.08c0.11,0.014 0.2,0.068 0.27,0.151c0.06,0.083 0.09,0.188 0.07,0.292l-1.37,10.698l3.52,0.089c0.1,0.006 0.19,0.051 0.26,0.124c0.07,0.074 0.11,0.171 0.11,0.271c0,0.101 -0.04,0.197 -0.11,0.271c-0.07,0.073 -0.16,0.118 -0.26,0.125z" fill="#F1B3B3"/>
<path id="Vector_107" d="M429.0056,35.3878c-5.94,-5.873 -2.75,-15.026 -2.75,-15.026c-7.82,1.248 -13.76,1.405 -18.25,0.912c-2.14,-0.21 -4.25,-0.672 -6.29,-1.375c-6.11,-2.205 -1.97,-6.369 3.98,-8.97c10.67,-4.671 17.84,-9.28 25.74,2.291c1.95,0.46 3.63,1.664 4.7,3.353c1.07,1.688 1.43,3.728 1.01,5.681l-2.02,9.393z" fill="black"/>
<path id="Vector_108" d="M437.1756,42.4038c2.68,-2.393 2.92,-6.509 0.53,-9.192c-2.4,-2.684 -6.51,-2.92 -9.2,-0.527c-2.68,2.393 -2.92,6.508 -0.52,9.192c2.39,2.684 6.5,2.92 9.19,0.527z" fill="#F5CCCC"/>
<path id="Vector_109" d="M416.8756,24.0248c-0.01,1.498 4.92,2.602 5.2,1.238c0.22,-1.049 -1.18,-1.433 -2.43,-1.81c-1.43,-0.432 -2.76,-0.693 -2.77,0.572z" fill="#464646"/>
<path id="Vector_110" d="M399.4856,24.4088c0.65,1.213 5.12,-0.085 4.75,-1.31c-0.31,-1.01 -1.87,-0.939 -3.1,-0.605c-1.24,0.335 -2.18,0.949 -1.65,1.915z" fill="#464646"/>
<path id="Vector_111" d="M422.2356,42.8728c2.74,-0.737 4.37,-3.559 3.63,-6.303c-0.74,-2.745 -3.56,-4.372 -6.3,-3.635c-2.75,0.737 -4.37,3.559 -3.64,6.303c0.74,2.744 3.56,4.372 6.31,3.635z" fill="#F1B3B3"/>
<path id="Vector_112" d="M414.6156,30.4468c0,1.038 0.49,1.882 1.09,1.882c0.61,0 1.1,-0.838 1.1,-1.877c0,-1.038 -0.48,-1.88 -1.09,-1.882c-0.6,-0.002 -1.09,0.84 -1.1,1.877z" fill="#4D4D4D"/>
<path id="Vector_113" d="M403.5056,30.1658c0,1.038 0.49,1.88 1.09,1.882c0.61,0.002 1.1,-0.838 1.1,-1.877c0,-1.039 -0.48,-1.881 -1.09,-1.882c-0.6,-0.002 -1.09,0.84 -1.1,1.877z" fill="#4D4D4D"/>
<path id="Vector_114" d="M431.3556,41.3768c-0.06,0 -0.12,-0.014 -0.18,-0.042c-0.05,-0.028 -0.1,-0.068 -0.14,-0.117c-0.53,-0.708 -0.86,-1.642 -0.98,-2.757c-0.35,-3.292 2.76,-4.518 4.46,-4.707c0.1,-0.012 0.21,0.018 0.29,0.084c0.08,0.065 0.13,0.161 0.15,0.265c0.01,0.104 -0.02,0.209 -0.09,0.29c-0.06,0.082 -0.16,0.135 -0.26,0.146c-0.18,0.02 -4.12,0.508 -3.76,3.839c0.1,0.972 0.38,1.77 0.83,2.369c0.03,0.042 0.05,0.089 0.06,0.139c0.02,0.051 0.02,0.103 0.01,0.154c-0.01,0.052 -0.02,0.101 -0.05,0.145c-0.03,0.045 -0.06,0.084 -0.1,0.114c-0.07,0.051 -0.15,0.079 -0.24,0.078z" fill="#F1B3B3"/>
<path id="Vector_115" d="M430.4556,38.8148c-0.07,0 -0.14,-0.02 -0.2,-0.058c-0.06,-0.037 -0.11,-0.091 -0.15,-0.155c-0.03,-0.064 -0.05,-0.135 -0.04,-0.207c0,-0.072 0.03,-0.141 0.07,-0.201c1.39,-2.017 3.33,-1.468 4.16,-0.897c0.08,0.06 0.14,0.151 0.16,0.254c0.02,0.103 0,0.209 -0.06,0.296c-0.06,0.086 -0.15,0.145 -0.25,0.164c-0.11,0.019 -0.21,-0.003 -0.3,-0.063c-0.18,-0.122 -1.8,-1.137 -3.06,0.696c-0.04,0.053 -0.09,0.096 -0.15,0.126c-0.05,0.03 -0.12,0.045 -0.18,0.045z" fill="#F1B3B3"/>
<path id="Vector_116" d="M410.4256,47.6258c-3.12,0.218 -6.16,-4.754 -3.9,-4.888l8.56,0.508c0.09,0.002 0.17,0.022 0.25,0.061c0.08,0.038 0.15,0.092 0.2,0.159c0.06,0.068 0.1,0.146 0.12,0.23c0.02,0.084 0.02,0.172 0.01,0.257c-0.52,2.224 -2.73,3.824 -5.24,3.673z" fill="#F1B3B3"/>
<path id="Vector_117" d="M415.2856,43.2918c-1.88,1.751 -6.52,1.29 -8.76,-0.554c0.2,0.042 8.59,0.449 8.76,0.554z" fill="white"/>
<path id="Vector_118" d="M121.2656,58.7418c5.74,0 10.39,-4.869 10.39,-10.875c0,-6.006 -4.65,-10.876 -10.39,-10.876c-5.74,0 -10.4,4.87 -10.4,10.876c0,6.006 4.66,10.875 10.4,10.875z" fill="black"/>
<path id="Vector_119" d="M114.2256,40.0218c-0.01,2.482 0.34,4.952 1.03,7.335c0,0.003 0,0.006 0,0.009c0.14,0.457 1.77,2.09 2.19,2.654c19.87,15.827 41.86,-0.779 41.86,-0.779c12.84,-14.493 1.72,-33.261 -12.62,-28.946c0,0 -9.8,-10.87 -23.98,0.382c-5.69,4.515 -8.48,12.118 -8.48,19.345z" fill="black"/>
<path id="Vector_120" d="M146.4956,28.5398c10.4,-4.763 19.01,2.974 15.69,14.943c-3.64,13.145 -16.36,9.173 -16.36,9.173z" fill="black"/>
<path id="Vector_121" d="M129.3456,50.0168l-1,21.522c0,0 4.53,5.145 11.06,5.145c7.87,0 10.41,-1.633 10.41,-1.633l-1.11,-15.137l-0.28,-7.785z" fill="#F5CCCC"/>
<path id="Vector_122" d="M134.7456,61.7018l15.07,13.349l-1.06,-15.141z" fill="#F1B3B3"/>
<path id="Vector_123" d="M130.1756,27.3598l2.9,31.669c0.06,0.69 0.33,1.346 0.76,1.886c0.44,0.54 1.02,0.94 1.69,1.15l13.54,4.246c0.57,0.176 1.17,0.206 1.75,0.088c0.58,-0.118 1.13,-0.381 1.58,-0.764l6.55,-5.576c0.43,-0.364 0.77,-0.826 0.98,-1.347c0.22,-0.521 0.3,-1.087 0.25,-1.649l-0.1,-1.086l-1.16,-12.661l-0.66,-7.351c-0.28,-2.938 -1.7,-5.647 -3.97,-7.535c-2.27,-1.887 -5.19,-2.798 -8.13,-2.534z" fill="#F5CCCC"/>
<path id="Vector_124" d="M154.9756,49.4498c0,1.501 0.5,2.959 1.43,4.142c0.92,1.183 2.21,2.024 3.67,2.388l-1.16,-12.66c-1.18,0.535 -2.18,1.398 -2.87,2.486c-0.7,1.087 -1.07,2.352 -1.07,3.644z" fill="#F1B3B3"/>
<path id="Vector_125" d="M150.6156,52.7638c-0.11,0 -0.21,-0.036 -0.3,-0.102c-0.08,-0.067 -0.14,-0.16 -0.16,-0.264c-0.02,-0.104 0,-0.212 0.04,-0.307c0.05,-0.094 0.13,-0.169 0.23,-0.212l4.25,-1.873l-3.87,-10.888c-0.03,-0.114 -0.02,-0.236 0.04,-0.341c0.05,-0.105 0.14,-0.186 0.25,-0.226c0.11,-0.039 0.24,-0.035 0.35,0.013c0.1,0.048 0.19,0.135 0.24,0.244l4,11.293c0.04,0.11 0.03,0.23 -0.01,0.338c-0.05,0.107 -0.13,0.192 -0.24,0.239l-4.63,2.047c-0.06,0.027 -0.13,0.04 -0.19,0.039z" fill="#F1B3B3"/>
<path id="Vector_126" d="M147.7556,23.0988c0,0 6.83,18.046 -16.57,22.31z" stroke="#010101" stroke-width="4.81" stroke-miterlimit="10"/>
<path id="Vector_127" d="M128.4156,45.8528c0,0 19.87,-4.2 20.58,-19.992l-1.4,-4.097l-22.34,2.873z" fill="black"/>
<path id="Vector_128" d="M136.1656,50.4938c0.12,1.273 -0.14,2.552 -0.75,3.675c-0.61,1.124 -1.54,2.042 -2.67,2.637c-1.13,0.596 -2.41,0.843 -3.68,0.71c-1.28,-0.133 -2.48,-0.64 -3.46,-1.458c-0.98,-0.817 -1.7,-1.907 -2.07,-3.132c-0.36,-1.226 -0.35,-2.531 0.03,-3.752c0.38,-1.221 1.11,-2.302 2.1,-3.106c1,-0.804 2.21,-1.296 3.48,-1.413c1.7,-0.155 3.4,0.372 4.72,1.466c1.32,1.095 2.14,2.668 2.3,4.373z" fill="#F5CCCC"/>
<path id="Vector_129" d="M130.0856,55.8808c-0.09,0.001 -0.17,-0.021 -0.24,-0.065c-0.07,-0.043 -0.12,-0.106 -0.16,-0.18c-0.04,-0.074 -0.05,-0.157 -0.04,-0.239c0.01,-0.082 0.04,-0.16 0.09,-0.223c0.51,-0.646 0.84,-1.511 0.98,-2.575c0.48,-3.641 -3.83,-4.285 -4.01,-4.311c-0.12,-0.02 -0.21,-0.082 -0.28,-0.172c-0.06,-0.091 -0.09,-0.203 -0.08,-0.314c0.02,-0.111 0.08,-0.212 0.16,-0.281c0.09,-0.07 0.2,-0.102 0.31,-0.091c1.86,0.254 5.24,1.686 4.76,5.284c-0.17,1.218 -0.55,2.226 -1.15,2.994c-0.04,0.053 -0.09,0.096 -0.15,0.126c-0.06,0.03 -0.13,0.046 -0.19,0.047z" fill="#F1B3B3"/>
<path id="Vector_130" d="M131.1556,53.0968c-0.07,-0.002 -0.14,-0.021 -0.2,-0.054c-0.07,-0.034 -0.12,-0.083 -0.16,-0.141c-1.34,-2.047 -3.14,-0.977 -3.34,-0.848c-0.09,0.063 -0.21,0.085 -0.32,0.061c-0.12,-0.024 -0.21,-0.091 -0.28,-0.188c-0.06,-0.096 -0.08,-0.214 -0.06,-0.326c0.03,-0.113 0.09,-0.211 0.19,-0.274c0.93,-0.603 3.07,-1.15 4.54,1.099c0.04,0.065 0.07,0.141 0.07,0.219c0,0.078 -0.02,0.156 -0.05,0.224c-0.04,0.069 -0.09,0.126 -0.16,0.166c-0.07,0.04 -0.15,0.062 -0.22,0.062z" fill="#F1B3B3"/>
<path id="Vector_131" d="M158.9956,35.5918c-0.43,1.304 -5.02,0.845 -4.88,-0.418c0.24,-2.098 5.54,-1.645 4.88,0.418z" fill="black"/>
<path id="Vector_132" opacity="0.33" d="M138.7656,37.5518c0.72,1.163 5.07,-0.391 4.62,-1.582c-0.73,-1.978 -5.77,-0.26 -4.62,1.582z" fill="#E05858"/>
<path id="Vector_133" d="M133.6256,51.0808c0,1.334 0.39,2.637 1.13,3.746c0.75,1.109 1.8,1.973 3.03,2.483c1.23,0.511 2.59,0.645 3.89,0.385c1.31,-0.26 2.51,-0.902 3.46,-1.845c0.94,-0.942 1.58,-2.143 1.84,-3.451c0.26,-1.308 0.13,-2.663 -0.38,-3.895c-0.51,-1.232 -1.38,-2.285 -2.48,-3.025c-1.11,-0.741 -2.42,-1.137 -3.75,-1.137c-1.79,0 -3.5,0.71 -4.77,1.974c-1.26,1.264 -1.97,2.978 -1.97,4.765z" fill="#F1B3B3"/>
<path id="Vector_134" d="M143.4356,45.2778c0.11,1.211 0.77,2.139 1.48,2.076c0.71,-0.064 1.18,-1.099 1.07,-2.3c-0.1,-1.202 -0.77,-2.139 -1.47,-2.074c-0.71,0.066 -1.19,1.088 -1.08,2.298z" fill="black"/>
<path id="Vector_135" d="M155.2956,44.1938c0.11,1.21 0.77,2.139 1.48,2.075c0.7,-0.063 1.18,-1.098 1.07,-2.3c-0.11,-1.201 -0.77,-2.139 -1.47,-2.073c-0.71,0.065 -1.19,1.088 -1.08,2.298z" fill="black"/>
<path id="Vector_136" d="M146.2956,58.7158c0.15,0.176 0.32,0.339 0.5,0.486c1.19,0.982 3,1.393 4.62,0.984c0.7,-0.177 1.35,-0.503 1.9,-0.955c0.87,-0.708 1.46,-1.69 1.56,-2.709c0.06,-0.587 -0.13,-1.295 -0.76,-1.486c-0.15,-0.036 -0.31,-0.049 -0.46,-0.039c-0.28,0.044 -0.56,0.112 -0.83,0.203c-1.49,0.453 -3.05,0.613 -4.6,0.473c-0.51,-0.071 -1.02,-0.053 -1.51,0.051c-0.44,0.11 -0.78,0.322 -0.94,0.708c-0.34,0.764 -0.02,1.629 0.52,2.284z" fill="black"/>
<path id="Vector_137" d="M146.7156,55.7238c0.02,0.382 0.19,0.741 0.46,1.01c0.31,0.276 0.74,0.354 1.15,0.388c1.49,0.149 2.99,-0.032 4.4,-0.531c0.33,-0.12 0.68,-0.278 0.87,-0.579c0.18,-0.3 0.15,-0.667 0.06,-1.015c-0.28,0.044 -0.56,0.112 -0.83,0.203c-1.49,0.453 -3.05,0.613 -4.6,0.473c-0.5,-0.071 -1.02,-0.054 -1.51,0.051z" fill="white"/>
<path id="Vector_138" d="M146.7856,59.2058c1.2,0.982 3.01,1.392 4.63,0.984c0.69,-0.178 1.34,-0.504 1.9,-0.956c-0.65,-0.676 -1.67,-0.996 -2.64,-1.061c-1.37,-0.113 -2.75,0.252 -3.89,1.033z" fill="#F1B3B3"/>
<path id="Vector_139" opacity="0.33" d="M143.5356,22.9258c0,0 -3.98,15.021 -16.17,14.739c0,0 2.27,-5.647 5.54,-8.793c0,0 -8.82,3.691 -11.65,12.228c0,0 0.32,-13.103 16.2,-18.002l-1.73,7.103c0,0 4.92,-2.399 7.81,-7.275z" fill="#E05858"/>
<path id="Vector_140" d="M287.3756,165.0978v83.538l-37.69,-3.893l-24.26,-2.507l-27.21,-2.809v-74.329l42.31,-48.652z" fill="#F7D2D2"/>
<path id="Vector_141" d="M348.8956,169.2628h-61.53v79.373l61.53,-7.718z" fill="#F2B8B8"/>
<path id="Vector_142" d="M249.6756,203.8598v40.883l-24.26,-2.507v-39.675c0,-1.115 0.44,-2.184 1.23,-2.972c0.79,-0.789 1.86,-1.233 2.97,-1.235c0.12,0 0.23,0 0.36,0.016l15.84,1.299c1.06,0.086 2.04,0.565 2.75,1.342c0.72,0.776 1.12,1.793 1.12,2.849z" fill="#E78282"/>
<path id="Vector_143" d="M227.0356,242.4038l21.03,2.173v-40.717c0,-0.65 -0.24,-1.276 -0.68,-1.754c-0.44,-0.478 -1.05,-0.772 -1.7,-0.826l-15.85,-1.3c-0.35,-0.029 -0.71,0.016 -1.05,0.133c-0.34,0.116 -0.65,0.301 -0.91,0.544c-0.26,0.242 -0.47,0.537 -0.62,0.865c-0.14,0.327 -0.22,0.681 -0.22,1.039z" fill="#E36C6C"/>
<path id="Vector_144" opacity="0.43" d="M198.2056,173.1548l42.31,-44.841l46.85,52.415v-11.466l-46.85,-52.817l-44.88,47.571z" fill="#ED9F9F"/>
<path id="Vector_145" d="M240.5256,109.8088h63.73l47.93,55.289h-66.35z" fill="#E36C6C"/>
<path id="Vector_146" d="M235.8156,114.9148l4.71,-5.106l46.85,52.867h67.31v10.021h-67.31l-46.94,-52.61l-42.22,47.314v5.754h-5.13v-10.023z" fill="#DD4848"/>
<path id="Vector_147" d="M270.5656,109.8108h11.74v-11.87h-11.74z" fill="#EDA1A1"/>
<path id="Vector_148" d="M265.4556,109.8108h5.11v-11.87h-5.11z" fill="#E67B7B"/>
<path id="Vector_149" d="M275.9456,221.1078l-13.56,-0.966c-1.92,-0.136 -3.46,-1.875 -3.45,-3.892l0.12,-14.895c0.01,-2.008 1.58,-3.526 3.49,-3.39l13.56,0.966c1.92,0.136 3.46,1.875 3.45,3.892l-0.11,14.895c-0.02,2.008 -1.59,3.526 -3.5,3.39z" fill="#EDA1A1"/>
<path id="Vector_150" d="M274.8456,219.5188l-11.48,-0.817c-1.65,-0.117 -2.98,-1.617 -2.97,-3.347l0.1,-13.079c0.01,-1.732 1.37,-3.041 3.01,-2.922l11.47,0.817c1.66,0.117 2.99,1.617 2.97,3.347l-0.1,13.079c0,1.732 -1.35,3.041 -3,2.922z" fill="white"/>
<path id="Vector_151" d="M279.2556,209.5158l-9.28,-0.66l0.08,-9.801l-1.5,-0.107l-0.08,9.802l-8.95,-0.639l-0.01,1.571l8.95,0.637l-0.07,9.292l1.5,0.108l0.07,-9.294l9.28,0.662z" fill="#EDA1A1"/>
<path id="Vector_152" d="M217.3256,216.0978l-13.56,-0.965c-1.92,-0.138 -3.46,-1.877 -3.45,-3.892l0.12,-14.895c0.01,-2.01 1.58,-3.526 3.5,-3.39l13.56,0.964c1.91,0.138 3.46,1.877 3.44,3.893l-0.11,14.895c-0.02,2.013 -1.58,3.528 -3.5,3.39z" fill="#EDA1A1"/>
<path id="Vector_153" d="M216.2256,214.5108l-11.48,-0.818c-1.65,-0.116 -2.98,-1.617 -2.96,-3.349l0.09,-13.078c0.02,-1.73 1.37,-3.039 3.01,-2.921l11.48,0.816c1.65,0.118 2.98,1.617 2.96,3.349l-0.09,13.078c-0.01,1.732 -1.36,3.041 -3.01,2.923z" fill="white"/>
<path id="Vector_154" d="M220.6356,204.5068l-9.27,-0.66l0.07,-9.801l-1.5,-0.108l-0.07,9.801l-8.95,-0.636l-0.02,1.569l8.96,0.639l-0.07,9.292l1.49,0.107l0.07,-9.293l9.28,0.661z" fill="#EDA1A1"/>
<path id="Vector_155" d="M238.5856,179.9788c6.13,0 11.11,-5.841 11.11,-13.045c0,-7.204 -4.98,-13.044 -11.11,-13.044c-6.13,0 -11.1,5.84 -11.1,13.044c0,7.204 4.97,13.045 11.1,13.045z" fill="#EDA1A1"/>
<path id="Vector_156" d="M238.5756,178.3618c5.38,0 9.73,-5.117 9.73,-11.428c0,-6.311 -4.35,-11.427 -9.73,-11.427c-5.37,0 -9.72,5.116 -9.72,11.427c0,6.311 4.35,11.428 9.72,11.428z" fill="white"/>
<path id="Vector_157" d="M248.4656,166.1428h-9.33v-11.059h-1.51v11.059h-9.01v1.771h9.01v10.487h1.51v-10.487h9.33z" fill="#EDA1A1"/>
<path id="Vector_158" d="M332.7656,225.1978l-18.87,1.731c-0.24,0.022 -0.48,-0.007 -0.71,-0.084c-0.23,-0.077 -0.44,-0.2 -0.62,-0.363c-0.18,-0.163 -0.33,-0.362 -0.43,-0.583c-0.1,-0.222 -0.15,-0.462 -0.15,-0.704l-0.17,-27.184c0,-0.439 0.16,-0.863 0.46,-1.188c0.29,-0.325 0.7,-0.527 1.14,-0.567l18.87,-1.007c0.24,-0.022 0.48,0.006 0.71,0.083c0.23,0.076 0.45,0.2 0.63,0.363c0.18,0.163 0.32,0.362 0.42,0.584c0.1,0.221 0.15,0.461 0.15,0.704l0.17,26.464c0,0.438 -0.16,0.861 -0.46,1.185c-0.29,0.325 -0.7,0.527 -1.14,0.566z" fill="white"/>
<path id="Vector_159" d="M332.3956,195.2368l-19.07,1.024c-0.42,0.038 -0.8,0.228 -1.08,0.535c-0.28,0.306 -0.43,0.706 -0.43,1.119l0.18,27.386c0,0.227 0.05,0.452 0.15,0.659c0.09,0.207 0.22,0.393 0.39,0.546c0.17,0.152 0.37,0.269 0.58,0.342c0.22,0.072 0.45,0.1 0.67,0.081l19.08,-1.746c0.41,-0.038 0.79,-0.228 1.07,-0.535c0.28,-0.306 0.43,-0.706 0.43,-1.12l-0.17,-26.666c0,-0.228 -0.05,-0.453 -0.15,-0.66c-0.09,-0.208 -0.23,-0.394 -0.4,-0.547c-0.16,-0.153 -0.36,-0.269 -0.58,-0.341c-0.22,-0.072 -0.45,-0.098 -0.67,-0.077zM313.4056,223.8108l-0.15,-24.659c0,-0.414 0.15,-0.813 0.43,-1.12c0.28,-0.306 0.66,-0.498 1.07,-0.536l16.23,-0.763c0.23,-0.021 0.45,0.006 0.67,0.079c0.22,0.072 0.42,0.189 0.59,0.343c0.17,0.153 0.3,0.341 0.4,0.55c0.09,0.208 0.14,0.434 0.14,0.663l0.15,23.948c0,0.414 -0.15,0.814 -0.43,1.12c-0.28,0.307 -0.66,0.497 -1.07,0.535l-16.23,1.484c-0.22,0.021 -0.46,-0.005 -0.67,-0.078c-0.22,-0.073 -0.42,-0.19 -0.59,-0.345c-0.17,-0.155 -0.31,-0.343 -0.4,-0.553c-0.09,-0.21 -0.14,-0.438 -0.14,-0.668z" fill="#EDA1A1"/>
<path id="Vector_160" d="M322.8756,225.8088l1.43,0.136l-0.1,-29.979l-1.42,0.26z" fill="#EDA1A1"/>
<path id="Vector_161" d="M311.9156,212.9198l21.43,-1.523l-0.02,-1.741l-21.43,1.362z" fill="#EDA1A1"/>
<path id="Vector_162" d="M228.0656,103.8448c0,0 -1,-0.72 -0.6,-1.84c-0.57,1.133 -1.31,2.17 -2.19,3.075c-1.16,1.132 -2.7,2.015 -4.51,1.438c0,0 -3.16,-2.013 -4.65,-3.393c-2.27,-2.102 -4.46,-5.256 -4.46,-5.256c0,0 1.63,-3.401 2.43,-4.423c1.89,-2.417 6.03,-6.453 7.76,-7.682c2.46,-1.748 14.07,-4.386 14.83,-3.935c0.77,0.451 0.91,1.96 -0.05,2.422c-0.96,0.462 -8.92,3.883 -8.92,3.883c0,0 3.37,0.904 3.62,2.136c0.24,1.231 -1.21,1.866 -1.21,1.866c0,0 2.13,2.161 0.7,4.577c0,0 0.98,2.123 0.63,3.574c-0.34,1.451 -2.2,4.765 -3.38,3.558z" fill="#F5CCCC"/>
<path id="Vector_163" d="M236.6256,84.2548c-0.96,0.463 -8.92,3.883 -8.92,3.883c-3.74,0.301 -8.75,3.56 -8.75,3.56c0,0 1.34,-2.543 6.04,-4.383c4.7,-1.84 11.49,-2.728 11.69,-5.484c0.76,0.451 0.9,1.967 -0.06,2.424z" fill="#F1B3B3"/>
<path id="Vector_164" d="M230.8156,96.7128c-1.48,2.819 -2.39,3.02 -3.31,3.144c-0.93,0.124 -1.25,-2.194 0.02,-3.321c1.27,-1.127 2.6,-4.401 2.6,-4.401c0,0 -3.09,-0.108 -5.11,3.575c-2.03,3.684 -6.16,3.539 -6.16,3.539c0,0 3.11,1.206 5.83,0.141c1.25,-0.49 0.9,2.941 2.5,2.235c2.79,-1.218 3.63,-4.912 3.63,-4.912z" fill="#F1B3B3"/>
<path id="Vector_165" d="M358.3856,27.8738h-72.79c-5,0 -9.06,4.061 -9.06,9.07v28.518c0,5.008 4.06,9.069 9.06,9.069h72.79c5.01,0 9.07,-4.061 9.07,-9.069v-28.518c0,-5.009 -4.06,-9.07 -9.07,-9.07z" fill="#EDA1A1"/>
<path id="Vector_166" d="M326.3956,71.3198l9.15,18.223c0.2,0.401 0.51,0.738 0.89,0.972c0.39,0.233 0.83,0.354 1.28,0.349c0.45,-0.006 0.89,-0.137 1.27,-0.38c0.37,-0.243 0.68,-0.588 0.87,-0.994l8.52,-18.068z" fill="#EDA1A1"/>
<path id="Vector_167" d="M126.9056,240.5978v-3.549l51.92,-0.322l-0.08,3.871z" fill="#EFACAC"/>
<path id="Vector_168" d="M128.9456,236.9498c4.72,-3.931 15.5,-7.388 34.04,-5.026c12.07,1.537 18.38,6.208 14.9,10.273c-4.25,4.942 -16.57,6.699 -34.73,5.062c-12.5,-1.125 -20.12,-5.396 -14.21,-10.309z" fill="#F1B3B3"/>
<path id="Vector_169" d="M128.9456,233.5318c4.72,-3.932 15.5,-7.389 34.04,-5.027c12.07,1.538 18.38,6.209 14.9,10.274c-4.25,4.943 -16.57,6.699 -34.73,5.064c-12.5,-1.127 -20.12,-5.396 -14.21,-10.311z" fill="#F7D7D7"/>
<path id="Vector_170" d="M154.9356,243.6018c-3.13,0 -6.56,-0.163 -10.28,-0.497c-7.83,-0.708 -13.22,-2.831 -14.06,-5.54c-0.28,-0.898 -0.2,-2.31 1.75,-3.936c2.54,-2.107 10.47,-6.757 29.26,-4.367c7.31,0.931 12.54,3.268 13.63,6.095c0.43,1.124 0.19,2.267 -0.71,3.304c-2.78,3.253 -9.6,4.941 -19.59,4.941zM151.9456,229.4478c-6.53,0 -14.44,0.927 -19.08,4.793c-1.3,1.076 -1.8,2.113 -1.5,3.082c0.73,2.353 5.98,4.308 13.37,4.973c15.33,1.384 25.7,-0.102 29.19,-4.166c0.69,-0.81 0.88,-1.649 0.56,-2.489c-0.97,-2.515 -6.06,-4.708 -12.97,-5.586c-3.18,-0.395 -6.37,-0.595 -9.57,-0.6z" fill="#EFA8A8"/>
<path id="Vector_171" d="M127.5256,233.9538v-3.547l51.92,-0.322l-0.08,3.869z" fill="#EFACAC"/>
<path id="Vector_172" d="M129.5556,230.3058c4.73,-3.929 15.5,-7.386 34.05,-5.026c12.07,1.539 18.38,6.21 14.89,10.276c-4.24,4.941 -16.56,6.696 -34.72,5.061c-12.5,-1.127 -20.12,-5.396 -14.22,-10.311z" fill="#F1B3B3"/>
<path id="Vector_173" d="M129.5556,226.8898c4.73,-3.931 15.5,-7.388 34.05,-5.027c12.07,1.538 18.38,6.209 14.89,10.274c-4.24,4.942 -16.56,6.699 -34.72,5.062c-12.5,-1.125 -20.12,-5.396 -14.22,-10.309z" fill="#F7D7D7"/>
<path id="Vector_174" d="M155.5556,236.9618c-3.13,0 -6.56,-0.164 -10.28,-0.499c-7.83,-0.707 -13.22,-2.83 -14.06,-5.537c-0.28,-0.899 -0.21,-2.311 1.75,-3.942c2.54,-2.123 10.45,-6.76 29.26,-4.367c7.31,0.936 12.53,3.272 13.62,6.099c0.44,1.122 0.19,2.264 -0.71,3.305c-2.77,3.253 -9.6,4.941 -19.58,4.941zM152.5556,222.8078c-6.53,0 -14.43,0.929 -19.08,4.793c-1.29,1.081 -1.8,2.123 -1.49,3.086c0.73,2.355 5.98,4.308 13.36,4.975c15.34,1.382 25.71,-0.099 29.2,-4.167c0.69,-0.812 0.88,-1.652 0.56,-2.493c-0.97,-2.51 -6.07,-4.704 -12.98,-5.585c-3.17,-0.398 -6.37,-0.601 -9.57,-0.607z" fill="#EFA8A8"/>
<path id="Vector_175" d="M148.8156,234.0288l0.35,-0.519c0.13,-0.187 -0.2,-0.375 -0.76,-0.438c-1.17,-0.121 -2.32,-0.327 -3.46,-0.616c-0.44,-0.12 -0.53,-0.327 -0.23,-0.485l0.2,-0.109c0.37,-0.192 1.16,-0.236 1.71,-0.094c1.27,0.318 2.57,0.524 3.89,0.614c2.57,0.187 4.14,-0.29 4.61,-0.984c0.47,-0.667 -0.14,-1.077 -2.58,-1.638c-3.36,-0.756 -6.64,-1.593 -5.91,-2.64c0.63,-0.922 3.02,-1.727 7.32,-1.458c0.52,0.032 0.97,-0.125 1.08,-0.292l0.4,-0.564c0.14,-0.202 0.76,-0.329 1.38,-0.283c0.62,0.044 1.01,0.246 0.88,0.447l-0.33,0.475c-0.13,0.176 0.18,0.371 0.74,0.435c0.88,0.094 1.76,0.243 2.63,0.447c0.48,0.117 0.6,0.338 0.27,0.503l-0.21,0.104c-0.35,0.177 -1.11,0.223 -1.65,0.096c-1.1,-0.254 -2.21,-0.417 -3.34,-0.489c-2.79,-0.203 -4.23,0.278 -4.57,0.765c-0.43,0.631 1.48,0.835 4.34,1.504c3.39,0.783 5.25,1.675 4.82,2.774c-0.47,1.173 -3.09,1.824 -7.79,1.719c-0.53,-0.012 -0.97,0.126 -1.08,0.292l-0.42,0.604c-0.14,0.203 -0.76,0.331 -1.38,0.285h-0.03c-0.62,-0.052 -1.02,-0.253 -0.88,-0.455z" fill="#F5CCCC"/>
<path id="Vector_176" d="M128.0856,227.8048v-3.548l51.92,-0.322l-0.08,3.87z" fill="#EFACAC"/>
<path id="Vector_177" d="M130.1156,224.1558c4.73,-3.929 15.5,-7.386 34.05,-5.026c12.07,1.539 18.38,6.21 14.9,10.276c-4.25,4.941 -16.57,6.696 -34.73,5.062c-12.5,-1.126 -20.12,-5.397 -14.22,-10.312z" fill="#F1B3B3"/>
<path id="Vector_178" d="M130.1156,220.7368c4.73,-3.932 15.5,-7.389 34.05,-5.027c12.07,1.538 18.38,6.208 14.9,10.274c-4.25,4.942 -16.57,6.698 -34.73,5.062c-12.5,-1.122 -20.12,-5.393 -14.22,-10.309z" fill="#F7D7D7"/>
<path id="Vector_179" d="M156.1156,230.8208c-3.12,0 -6.54,-0.164 -10.26,-0.499c-7.83,-0.708 -13.22,-2.831 -14.06,-5.538c-0.28,-0.898 -0.21,-2.31 1.75,-3.94c2.53,-2.11 10.46,-6.762 29.26,-4.366c7.31,0.934 12.53,3.269 13.62,6.098c0.44,1.12 0.19,2.263 -0.71,3.3c-2.78,3.245 -9.61,4.945 -19.6,4.945zM134.0456,221.4528c-1.29,1.081 -1.8,2.123 -1.49,3.086c0.73,2.354 5.98,4.308 13.36,4.975c15.34,1.388 25.71,-0.103 29.2,-4.17c0.69,-0.813 0.88,-1.649 0.56,-2.49c-0.97,-2.51 -6.06,-4.704 -12.98,-5.585c-4.8,-0.612 -21.07,-2.123 -28.64,4.184z" fill="#EFA8A8"/>
<path id="Vector_180" opacity="0.81" d="M149.3856,227.8788l0.35,-0.519c0.13,-0.187 -0.2,-0.375 -0.76,-0.438c-1.17,-0.121 -2.32,-0.327 -3.46,-0.616c-0.44,-0.12 -0.53,-0.327 -0.23,-0.485l0.21,-0.109c0.36,-0.192 1.15,-0.236 1.7,-0.094c1.27,0.318 2.57,0.524 3.89,0.614c2.57,0.187 4.14,-0.29 4.61,-0.984c0.47,-0.667 -0.14,-1.077 -2.58,-1.638c-3.36,-0.756 -6.64,-1.593 -5.91,-2.642c0.63,-0.92 3.02,-1.725 7.32,-1.456c0.52,0.032 0.97,-0.125 1.09,-0.292l0.39,-0.568c0.14,-0.201 0.75,-0.329 1.37,-0.283c0.63,0.044 1.02,0.246 0.88,0.448l-0.33,0.474c-0.13,0.177 0.19,0.372 0.74,0.435c0.88,0.094 1.76,0.244 2.63,0.448c0.48,0.117 0.6,0.338 0.27,0.502l-0.2,0.105c-0.36,0.177 -1.12,0.223 -1.66,0.095c-1.09,-0.254 -2.21,-0.417 -3.34,-0.488c-2.79,-0.204 -4.23,0.278 -4.56,0.764c-0.44,0.632 1.48,0.835 4.33,1.504c3.39,0.784 5.25,1.676 4.82,2.774c-0.47,1.173 -3.09,1.824 -7.79,1.72c-0.53,-0.012 -0.97,0.126 -1.08,0.292l-0.42,0.603c-0.14,0.204 -0.75,0.331 -1.37,0.285h-0.04c-0.62,-0.048 -1,-0.249 -0.87,-0.451z" fill="#F2BABA"/>
<path id="Vector_181" d="M140.1356,220.0798v-3.547l51.92,-0.322l-0.08,3.869z" fill="#EFACAC"/>
<path id="Vector_182" d="M142.1656,216.4318c4.73,-3.929 15.5,-7.386 34.05,-5.026c12.07,1.539 18.38,6.21 14.89,10.275c-4.24,4.942 -16.56,6.697 -34.72,5.062c-12.5,-1.125 -20.12,-5.396 -14.22,-10.311z" fill="#F1B3B3"/>
<path id="Vector_183" d="M142.1656,213.0158c4.73,-3.931 15.5,-7.389 34.05,-5.027c12.07,1.538 18.38,6.209 14.89,10.274c-4.24,4.942 -16.56,6.699 -34.72,5.062c-12.5,-1.125 -20.12,-5.396 -14.22,-10.309z" fill="#F7D7D7"/>
<path id="Vector_184" d="M168.1456,223.0878c-3.13,0 -6.56,-0.165 -10.28,-0.499c-7.83,-0.708 -13.22,-2.831 -14.06,-5.538c-0.28,-0.899 -0.2,-2.31 1.75,-3.942c2.54,-2.107 10.46,-6.749 29.26,-4.366c7.32,0.936 12.54,3.271 13.63,6.098c0.43,1.122 0.19,2.263 -0.71,3.305c-2.78,3.252 -9.6,4.942 -19.59,4.942zM146.0656,213.7288c-1.29,1.081 -1.8,2.123 -1.49,3.085c0.73,2.355 5.98,4.308 13.36,4.973c15.33,1.38 25.7,-0.097 29.19,-4.166c0.7,-0.81 0.89,-1.647 0.57,-2.491c-0.97,-2.511 -6.07,-4.706 -12.98,-5.586c-4.8,-0.615 -21.07,-2.123 -28.64,4.185z" fill="#EFA8A8"/>
<path id="Vector_185" d="M132.0556,214.9848v-3.548l51.92,-0.322l-0.08,3.87z" fill="#EFACAC"/>
<path id="Vector_186" d="M134.0856,211.3368c4.73,-3.93 15.51,-7.387 34.05,-5.027c12.07,1.539 18.38,6.21 14.89,10.276c-4.24,4.941 -16.56,6.698 -34.72,5.062c-12.5,-1.125 -20.12,-5.396 -14.22,-10.311z" fill="#F1B3B3"/>
<path id="Vector_187" d="M134.0856,207.9198c4.73,-3.931 15.51,-7.388 34.05,-5.026c12.07,1.537 18.38,6.208 14.89,10.274c-4.24,4.941 -16.56,6.698 -34.72,5.062c-12.5,-1.126 -20.12,-5.396 -14.22,-10.31z" fill="#F7D7D7"/>
<path id="Vector_188" d="M160.0656,217.9928c-3.12,0 -6.54,-0.163 -10.26,-0.498c-7.83,-0.707 -13.22,-2.83 -14.06,-5.539c-0.28,-0.899 -0.2,-2.314 1.75,-3.94c2.54,-2.111 10.44,-6.757 29.26,-4.367c7.32,0.935 12.54,3.272 13.62,6.099c0.44,1.12 0.19,2.263 -0.7,3.3c-2.8,3.253 -9.62,4.945 -19.61,4.945zM157.0856,203.8388c-6.53,0 -14.44,0.927 -19.08,4.791c-1.3,1.077 -1.8,2.123 -1.5,3.082c0.73,2.358 5.98,4.313 13.37,4.978c15.33,1.375 25.7,-0.102 29.19,-4.17c0.7,-0.812 0.88,-1.649 0.56,-2.489c-0.97,-2.51 -6.06,-4.704 -12.97,-5.585c-3.18,-0.396 -6.37,-0.598 -9.57,-0.604z" fill="#EFA8A8"/>
<path id="Vector_189" opacity="0.81" d="M153.3656,215.0588l0.35,-0.518c0.13,-0.188 -0.2,-0.375 -0.76,-0.439c-1.17,-0.12 -2.33,-0.326 -3.46,-0.616c-0.44,-0.12 -0.53,-0.327 -0.24,-0.484l0.21,-0.11c0.37,-0.191 1.16,-0.235 1.7,-0.094c1.28,0.318 2.58,0.524 3.89,0.614c2.58,0.188 4.14,-0.29 4.62,-0.984c0.46,-0.667 -0.15,-1.077 -2.58,-1.638c-3.36,-0.755 -6.64,-1.592 -5.91,-2.64c0.63,-0.921 3.02,-1.725 7.32,-1.457c0.51,0.033 0.97,-0.126 1.08,-0.292l0.39,-0.568c0.14,-0.202 0.76,-0.329 1.38,-0.283c0.62,0.044 1.01,0.246 0.87,0.447l-0.32,0.474c-0.13,0.177 0.17,0.372 0.73,0.436c0.89,0.093 1.77,0.243 2.64,0.447c0.48,0.117 0.6,0.338 0.27,0.503l-0.21,0.104c-0.35,0.177 -1.11,0.223 -1.65,0.096c-1.1,-0.253 -2.22,-0.417 -3.34,-0.489c-2.8,-0.203 -4.23,0.278 -4.57,0.765c-0.43,0.631 1.48,0.835 4.34,1.503c3.38,0.784 5.25,1.676 4.81,2.775c-0.46,1.173 -3.09,1.824 -7.78,1.719c-0.53,-0.012 -0.97,0.126 -1.08,0.292l-0.42,0.604c-0.14,0.203 -0.76,0.33 -1.38,0.284h-0.03c-0.62,-0.047 -1.01,-0.249 -0.87,-0.451z" fill="#F2BABA"/>
<path id="Vector_190" d="M535.9656,171.6758c11.12,-11.117 11.12,-29.141 0,-40.258c-11.12,-11.117 -29.14,-11.117 -40.26,0c-11.12,11.117 -11.12,29.141 0,40.258c11.12,11.117 29.14,11.117 40.26,0z" fill="#E36C6C"/>
<path id="Vector_191" d="M516.9456,136.0328l3.85,7.806c0.09,0.179 0.22,0.334 0.38,0.451c0.16,0.118 0.35,0.194 0.55,0.223l8.62,1.252c0.22,0.035 0.44,0.132 0.61,0.281c0.17,0.149 0.3,0.343 0.38,0.561c0.07,0.218 0.07,0.451 0.02,0.674c-0.05,0.223 -0.17,0.426 -0.33,0.588l-6.24,6.075c-0.14,0.14 -0.25,0.313 -0.31,0.503c-0.06,0.19 -0.07,0.392 -0.04,0.589l1.47,8.581c0.04,0.226 0.01,0.458 -0.07,0.67c-0.09,0.212 -0.24,0.396 -0.42,0.53c-0.19,0.135 -0.41,0.216 -0.63,0.234c-0.23,0.017 -0.46,-0.029 -0.67,-0.134l-7.7,-4.051c-0.18,-0.094 -0.38,-0.142 -0.58,-0.142c-0.2,0 -0.39,0.048 -0.57,0.142l-7.71,4.051c-0.2,0.105 -0.43,0.151 -0.66,0.134c-0.23,-0.018 -0.45,-0.099 -0.63,-0.234c-0.19,-0.134 -0.33,-0.318 -0.42,-0.53c-0.09,-0.212 -0.11,-0.444 -0.08,-0.67l1.48,-8.581c0.03,-0.197 0.02,-0.399 -0.05,-0.589c-0.06,-0.19 -0.16,-0.363 -0.31,-0.503l-6.23,-6.075c-0.16,-0.162 -0.28,-0.365 -0.33,-0.588c-0.06,-0.223 -0.05,-0.456 0.02,-0.674c0.07,-0.218 0.2,-0.412 0.38,-0.561c0.17,-0.149 0.39,-0.246 0.61,-0.281l8.62,-1.252c0.2,-0.029 0.38,-0.106 0.54,-0.223c0.17,-0.118 0.3,-0.272 0.39,-0.451l3.85,-7.806c0.1,-0.205 0.26,-0.376 0.46,-0.496c0.19,-0.12 0.42,-0.183 0.64,-0.183c0.23,0 0.46,0.063 0.65,0.183c0.2,0.12 0.36,0.291 0.46,0.496z" fill="white"/>
<path id="Vector_192" d="M58.1256,120.5358h-50.82c-4.03,0 -7.31,3.273 -7.31,7.311v45.023c0,4.038 3.28,7.311 7.31,7.311h50.82c4.04,0 7.31,-3.273 7.31,-7.311v-45.023c0,-4.038 -3.27,-7.311 -7.31,-7.311z" fill="#F7D7D7"/>
<path id="Vector_193" d="M11.8956,177.4648l6.91,13.757c0.16,0.303 0.39,0.557 0.68,0.734c0.29,0.176 0.62,0.267 0.96,0.263c0.34,-0.004 0.67,-0.103 0.96,-0.286c0.28,-0.183 0.51,-0.443 0.66,-0.75l6.43,-13.639z" fill="#F7D7D7"/>
<path id="Vector_194" d="M13.8656,138.9978c8.67,-10.111 19.65,2.889 19.65,2.889c0,0 11,-13 19.67,-2.889c5.65,6.591 -19.66,30.415 -19.66,30.415c0,0 -25.31,-23.826 -19.66,-30.415z" fill="white"/>
<path id="Vector_195" d="M281.1456,125.0018l17.09,19.461l19.14,0.237l-17.32,-19.631z" fill="#EFF3FC"/>
<path id="Vector_196" d="M300.0556,125.0688l-18.91,-0.067l2.77,3.149l14.12,0.103l15.1,16.393l4.24,0.053z" fill="#F7D7D7"/>
<path id="Vector_197" d="M286.9856,117.8188l-0.87,0.675l22.76,29.208l0.87,-0.675z" fill="#EDA1A1"/>
<path id="Vector_198" d="M312.7956,133.1968h-27.94v1.098h27.94z" fill="#EDA1A1"/>
</g></svg>