<svg preserveAspectRatio="none" width="100%" height="100%" overflow="visible" style="display: block;" viewBox="0 0 25 25" fill="none" xmlns="http://www.w3.org/2000/svg">
<path id="Vector" d="M23.9671 19.032L5.96808 1.03328C4.9484 0.0157067 3.48919 -0.278006 2.15809 0.27609C0.82699 0.827061 0 2.06336 0 3.50484V20.1777C0 22.8367 2.1633 25 4.82237 25H21.4955C22.936 25 24.1744 24.173 24.7253 22.843C25.2763 21.5119 24.9857 20.0506 23.9671 19.032ZM23.7629 22.443C23.4588 23.1752 22.7047 23.9574 21.4955 23.9574H4.82237C2.73823 23.9574 1.04155 22.2618 1.04155 20.1767V3.50484C1.04155 2.29562 1.82375 1.54051 2.557 1.23742C2.83718 1.12181 3.16943 1.04578 3.52044 1.04578C4.08704 1.04578 4.70364 1.24159 5.23274 1.76861L7.94181 4.47763L5.69207 6.72735C5.48896 6.93044 5.48896 7.26061 5.69207 7.46371C5.79414 7.56578 5.92746 7.61577 6.06077 7.61577C6.19409 7.61577 6.32741 7.56474 6.42948 7.46371L8.67923 5.214L10.9425 7.47725L8.69277 9.72696C8.48967 9.93006 8.48967 10.2602 8.69277 10.4633C8.79484 10.5654 8.92816 10.6154 9.06148 10.6154C9.1948 10.6154 9.32811 10.5644 9.43019 10.4633L11.6799 8.21361L13.8901 10.4237L11.6404 12.6735C11.4373 12.8766 11.4373 13.2067 11.6404 13.4098C11.7424 13.5119 11.8757 13.5619 12.0091 13.5619C12.1424 13.5619 12.2757 13.5108 12.3778 13.4098L14.6275 11.1601L16.8366 13.3692L14.5869 15.6189C14.3838 15.822 14.3838 16.1522 14.5869 16.3553C14.689 16.4573 14.8223 16.5073 14.9556 16.5073C15.0889 16.5073 15.2222 16.4563 15.3243 16.3553L17.5741 14.1056L19.7832 16.3147L17.5334 18.5644C17.3303 18.7675 17.3303 19.0976 17.5334 19.3007C17.6355 19.4028 17.7688 19.4528 17.9021 19.4528C18.0355 19.4528 18.1688 19.4018 18.2709 19.3007L20.5206 17.051L23.237 19.7673C24.0921 20.6224 24.0723 21.7098 23.7692 22.442L23.7629 22.443ZM7.13878 12.6464C6.98984 12.4974 6.76694 12.4547 6.57113 12.5339C6.37636 12.6141 6.24929 12.8047 6.24929 13.0151V18.2227C6.24929 18.5102 6.4826 18.7435 6.77007 18.7435H11.9778C12.1882 18.7435 12.3788 18.6164 12.459 18.4217C12.5403 18.2269 12.4955 18.003 12.3465 17.854L7.13878 12.6464ZM7.29084 17.702V14.2722L10.7207 17.702H7.29084Z" fill="var(--fill-0, #797979)"/>
</svg>
