<svg preserveAspectRatio="none" width="100%" height="100%" overflow="visible" style="display: block;" viewBox="0 0 25 22" fill="none" xmlns="http://www.w3.org/2000/svg">
<g id="Group">
<path id="Vector" d="M18.407 10.2141H6.59297C3.20933 10.2141 0.413379 12.7765 0.0422852 16.0626H24.9577C24.5866 12.7765 21.7907 10.2141 18.407 10.2141Z" fill="var(--fill-0, #797979)"/>
<path id="Vector_2" d="M0 17.5275V21.2516C0 21.6561 0.32793 21.984 0.732422 21.984C1.13691 21.984 1.46484 21.6561 1.46484 21.2516V20.47H23.5352V21.2516C23.5352 21.6561 23.8631 21.984 24.2676 21.984C24.6721 21.984 25 21.6561 25 21.2516V17.5275H0Z" fill="var(--fill-0, #797979)"/>
<path id="Vector_3" d="M6.15103 7.28348C6.01631 7.28348 5.90669 7.3931 5.90669 7.52782V8.7786C6.50718 8.72767 6.60786 8.75824 10.3024 8.74926V7.52777C10.3024 7.39305 10.1928 7.28344 10.0581 7.28344H6.15103V7.28348Z" fill="var(--fill-0, #797979)"/>
<path id="Vector_4" d="M14.937 7.28348C14.8023 7.28348 14.6927 7.3931 14.6927 7.52782V8.7493C18.4021 8.75814 18.4938 8.72811 19.0884 8.77816V7.52782C19.0884 7.3931 18.9788 7.28348 18.844 7.28348H14.937Z" fill="var(--fill-0, #797979)"/>
<path id="Vector_5" d="M4.44185 7.52782C4.44185 6.58539 5.20859 5.81864 6.15103 5.81864H10.0581C11.0006 5.81864 11.7673 6.58539 11.7673 7.52782V8.7493H13.2279V7.52782C13.2279 6.58539 13.9946 5.81864 14.9371 5.81864H18.8441C19.7866 5.81864 20.5533 6.58539 20.5533 7.52782V9.04003C21.6407 9.341 22.6367 9.86444 23.4885 10.5585V2.1702C23.4885 1.84291 23.2714 1.55536 22.9565 1.46576C16.0893 -0.488586 8.82949 -0.488586 1.96211 1.46576C1.64731 1.55536 1.43013 1.84291 1.43013 2.1702V10.6257C2.29844 9.89926 3.32148 9.35204 4.44185 9.0412V7.52782Z" fill="var(--fill-0, #797979)"/>
</g>
</svg>
