<svg preserveAspectRatio="none" width="100%" height="100%" overflow="visible" style="display: block;" viewBox="0 0 25 25" fill="none" xmlns="http://www.w3.org/2000/svg">
<g id="Group 369">
<path id="Vector" d="M8.5555 7.48754C8.59025 7.48737 8.62499 7.48719 8.66079 7.487C8.77667 7.48647 8.89255 7.48628 9.00843 7.4861C9.09176 7.48579 9.17509 7.48547 9.25842 7.48513C9.53171 7.48411 9.80501 7.4836 10.0783 7.48312C10.1727 7.48292 10.2671 7.48272 10.3615 7.48252C10.8052 7.4816 11.2489 7.4809 11.6927 7.4805C12.2033 7.48003 12.7139 7.47875 13.2246 7.47679C13.6202 7.47532 14.0159 7.4746 14.4115 7.47444C14.6473 7.47433 14.8832 7.4739 15.119 7.47267C15.3413 7.47153 15.5636 7.47134 15.7859 7.47183C15.8668 7.47186 15.9478 7.47156 16.0288 7.47088C17.0447 7.46292 17.939 7.7154 18.709 8.41723C18.7461 8.45009 18.7832 8.48295 18.8215 8.5168C19.6602 9.30401 19.9313 10.5263 20.2957 11.5831C20.3752 11.8137 20.455 12.0442 20.5348 12.2748C20.577 12.3968 20.6192 12.5189 20.6613 12.641C20.7791 12.9821 20.8993 13.3221 21.0229 13.6611C21.622 13.7154 22.1461 13.6026 22.724 13.4421C23.451 13.2416 23.451 13.2416 23.8285 13.455C23.9749 13.557 24.0366 13.6418 24.1081 13.8068C24.1447 14.0644 24.1409 14.2709 24.0298 14.5078C23.7938 14.7643 23.5514 14.8625 23.2223 14.9357C23.1868 14.9441 23.1513 14.9524 23.1148 14.9611C23.0282 14.9815 22.9415 15.0011 22.8547 15.0206C22.8547 15.1969 22.9019 15.3233 22.9572 15.491C22.9911 15.6 23.0244 15.7092 23.0575 15.8185C23.0822 15.8991 23.1076 15.9795 23.1336 16.0597C23.4253 16.9722 23.4265 17.8589 23.4161 18.8061C23.4148 18.9678 23.4153 19.1294 23.4158 19.291C23.4161 19.4484 23.4155 19.6057 23.4146 19.763C23.4142 19.8373 23.4141 19.9117 23.4142 19.986C23.4144 20.563 23.3386 20.9654 22.9412 21.3948C22.6365 21.6896 22.3527 21.7756 21.9388 21.7697C21.9398 21.8216 21.9408 21.8735 21.9419 21.9269C21.9454 22.1215 21.9476 22.316 21.9494 22.5106C21.9504 22.5944 21.9517 22.6783 21.9534 22.7621C21.9639 23.2992 21.9508 23.7157 21.6647 24.1853C21.3319 24.5114 20.9838 24.6974 20.5178 24.6979C20.4824 24.6983 20.4469 24.6987 20.4104 24.6991C20.2935 24.7003 20.1766 24.7007 20.0597 24.701C19.978 24.7015 19.8963 24.7019 19.8146 24.7023C19.6433 24.7031 19.472 24.7035 19.3007 24.7037C19.0823 24.7039 18.8639 24.7058 18.6454 24.708C18.4766 24.7094 18.3077 24.7098 18.1389 24.7098C18.0584 24.71 17.9779 24.7106 17.8975 24.7116C17.3415 24.7181 16.926 24.6669 16.4976 24.2794C15.8541 23.5809 16.1059 22.7184 16.1059 21.7697C13.7197 21.7697 11.3335 21.7697 8.87504 21.7697C8.87504 22.3626 8.87504 22.9554 8.87504 23.5662C8.65827 24.0575 8.44721 24.3983 7.95913 24.6344C7.77917 24.6938 7.60404 24.6905 7.41575 24.6924C7.38077 24.6928 7.34578 24.6932 7.30973 24.6936C7.19416 24.6948 7.07858 24.6956 6.963 24.6963C6.92336 24.6965 6.88372 24.6968 6.84288 24.6971C6.63291 24.6984 6.42294 24.6993 6.21296 24.7C6.03987 24.7006 5.8668 24.702 5.69371 24.704C5.48407 24.7064 5.27445 24.7076 5.06479 24.7079C4.98527 24.7082 4.90574 24.709 4.82623 24.7102C4.30001 24.7174 3.89475 24.6803 3.48201 24.3188C3.44821 24.2788 3.4144 24.2387 3.37957 24.1975C3.32887 24.1419 3.32887 24.1419 3.27714 24.0852C3.06646 23.781 3.0208 23.4957 3.02801 23.1353C3.02821 23.096 3.02842 23.0567 3.02863 23.0162C3.02943 22.892 3.03125 22.7679 3.03309 22.6437C3.03382 22.5589 3.03448 22.4741 3.03507 22.3894C3.03666 22.1828 3.03915 21.9763 3.04213 21.7697C2.98881 21.7704 2.93549 21.771 2.88056 21.7716C2.50944 21.7676 2.23304 21.5714 1.96823 21.3227C1.68652 21.0273 1.58585 20.7252 1.57813 20.3215C1.57742 20.2896 1.57671 20.2577 1.57597 20.2249C1.57383 20.1196 1.57246 20.0142 1.57129 19.9089C1.57084 19.8722 1.57038 19.8355 1.56992 19.7977C1.56762 19.6018 1.566 19.4059 1.56485 19.21C1.5638 19.0516 1.56149 18.8934 1.55793 18.7351C1.52995 17.463 1.65564 16.2459 2.17443 15.0692C2.1122 15.0479 2.04992 15.0266 1.98763 15.0055C1.94817 14.992 1.90871 14.9786 1.86806 14.9647C1.78423 14.9376 1.6997 14.9126 1.6146 14.89C1.31731 14.8104 1.08467 14.7223 0.914673 14.4465C0.833286 14.2408 0.847263 14.0238 0.872869 13.8068C0.982408 13.5861 1.1134 13.4252 1.34589 13.3364C1.78733 13.2729 2.1815 13.4182 2.6032 13.5403C3.06353 13.6647 3.48584 13.6794 3.95804 13.6611C3.96976 13.6272 3.98148 13.5933 3.99356 13.5584C4.10608 13.2328 4.21874 12.9074 4.33154 12.582C4.38947 12.4148 4.44736 12.2476 4.50513 12.0804C4.73499 11.4152 4.96606 10.7506 5.21008 10.0905C5.2273 10.0436 5.24452 9.99669 5.26226 9.94838C5.61561 9.002 6.27556 8.22928 7.18784 7.78602C7.6362 7.60317 8.06972 7.48917 8.5555 7.48754ZM7.07636 9.74034C6.65284 10.3032 6.4699 11.0205 6.24782 11.6795C6.19436 11.8368 6.14079 11.9941 6.08722 12.1514C6.05417 12.2485 6.02121 12.3457 5.98837 12.4429C5.84514 12.8664 5.69671 13.2877 5.54884 13.7097C10.1303 13.7097 14.7118 13.7097 19.4321 13.7097C19.0014 12.4355 19.0014 12.4355 18.5608 11.1646C18.5364 11.0952 18.5123 11.0257 18.4884 10.9561C18.2352 10.2188 17.9262 9.57745 17.2086 9.20017C16.9064 9.05358 16.6201 8.9878 16.2847 8.9869C16.251 8.98668 16.2172 8.98646 16.1825 8.98623C16.0703 8.98562 15.9581 8.98569 15.8459 8.98577C15.7651 8.98548 15.6843 8.98515 15.6035 8.98479C15.3846 8.98393 15.1657 8.9837 14.9467 8.98364C14.8097 8.98357 14.6727 8.98336 14.5357 8.9831C14.0572 8.98221 13.5786 8.98181 13.1 8.98189C12.655 8.98194 12.2099 8.98092 11.7649 8.97939C11.382 8.97811 10.9991 8.9776 10.6161 8.97766C10.3878 8.97768 10.1595 8.97741 9.93116 8.97638C9.71618 8.97543 9.50123 8.97543 9.28625 8.97614C9.20775 8.97624 9.12924 8.97601 9.05074 8.97542C8.2627 8.96988 7.63324 9.14446 7.07636 9.74034ZM3.60366 15.6299C2.78396 16.8837 3.06614 18.8965 3.09034 20.2645C4.60159 20.2645 6.11285 20.2645 7.66989 20.2645C7.97206 19.5783 7.97206 19.5783 8.27408 18.892C8.37458 18.6637 8.47572 18.4357 8.57713 18.2078C8.62929 18.0902 8.68083 17.9724 8.73228 17.8545C8.76119 17.7895 8.79013 17.7245 8.81911 17.6595C8.8431 17.605 8.86708 17.5504 8.89179 17.4943C9.0032 17.2943 9.12006 17.1516 9.3292 17.054C9.57891 16.9923 9.82093 16.9975 10.0772 16.998C10.1349 16.9978 10.1926 16.9975 10.2521 16.9973C10.4098 16.9967 10.5676 16.9966 10.7254 16.9967C10.8574 16.9968 10.9894 16.9966 11.1214 16.9963C11.433 16.9958 11.7446 16.9958 12.0562 16.9961C12.377 16.9963 12.6977 16.9957 13.0185 16.9947C13.2945 16.9939 13.5705 16.9936 13.8466 16.9937C14.0111 16.9938 14.1757 16.9937 14.3403 16.993C14.524 16.9924 14.7076 16.9927 14.8913 16.9933C14.9724 16.9927 14.9724 16.9927 15.0551 16.9922C15.3983 16.9945 15.712 17.0107 15.9732 17.2608C16.0842 17.4434 16.1694 17.6315 16.2528 17.8283C16.2709 17.87 16.2889 17.9118 16.3076 17.9549C16.3652 18.0883 16.4224 18.222 16.4795 18.3557C16.5361 18.4871 16.5927 18.6185 16.6494 18.7499C16.6845 18.8313 16.7195 18.9127 16.7544 18.9942C16.9366 19.4193 17.1244 19.8414 17.3111 20.2645C18.8223 20.2645 20.3336 20.2645 21.8906 20.2645C22.0828 17.8325 22.0828 17.8325 21.3054 15.5455C20.9487 15.1959 20.5259 15.1799 20.0531 15.184C19.985 15.1838 19.9169 15.1834 19.8488 15.1829C19.6629 15.1819 19.4769 15.1824 19.291 15.1831C19.09 15.1837 18.889 15.1828 18.6881 15.1822C18.2948 15.1811 17.9015 15.1813 17.5082 15.182C17.1885 15.1826 16.8688 15.1826 16.5491 15.1824C16.4808 15.1823 16.4808 15.1823 16.4111 15.1823C16.3186 15.1822 16.226 15.1821 16.1335 15.182C15.2663 15.1813 14.3991 15.1821 13.5318 15.1834C12.7882 15.1845 12.0446 15.1843 11.3009 15.1832C10.4367 15.1819 9.57258 15.1814 8.70842 15.1821C8.61622 15.1822 8.52402 15.1823 8.43182 15.1824C8.36378 15.1824 8.36378 15.1824 8.29436 15.1825C7.97515 15.1827 7.65594 15.1823 7.33673 15.1818C6.94756 15.1811 6.5584 15.1813 6.16924 15.1826C5.97078 15.1832 5.77235 15.1835 5.5739 15.1827C5.39203 15.1819 5.21019 15.1823 5.02832 15.1836C4.9318 15.184 4.83528 15.1832 4.73876 15.1824C4.28548 15.1873 3.90898 15.2717 3.60366 15.6299ZM10.0802 18.468C9.55882 19.3363 9.55882 19.3363 9.30889 20.2645C11.4087 20.2645 13.5086 20.2645 15.6721 20.2645C15.6 20.0469 15.524 19.8482 15.4308 19.6402C15.4172 19.6095 15.4035 19.5789 15.3895 19.5474C15.3462 19.4505 15.3028 19.3538 15.2593 19.257C15.2299 19.1913 15.2006 19.1257 15.1713 19.06C15.04 18.7621 15.04 18.7621 14.9008 18.468C13.31 18.468 11.7192 18.468 10.0802 18.468ZM4.53651 21.7697C4.53651 22.2344 4.53651 22.6991 4.53651 23.1778C5.47508 23.1778 6.41365 23.1778 7.38066 23.1778C7.38066 22.7131 7.38066 22.2485 7.38066 21.7697C6.44209 21.7697 5.50352 21.7697 4.53651 21.7697ZM17.6003 21.7697C17.6003 22.2344 17.6003 22.6991 17.6003 23.1778C18.5389 23.1778 19.4774 23.1778 20.4444 23.1778C20.4444 22.7131 20.4444 22.2485 20.4444 21.7697C19.5059 21.7697 18.5673 21.7697 17.6003 21.7697Z" fill="var(--fill-0, #797979)"/>
<path id="Vector_2" d="M13.7543 0.370046C13.8476 0.412622 13.9409 0.455075 14.0343 0.49741C14.2254 0.584167 14.4164 0.671376 14.6072 0.75889C14.9779 0.928322 15.3515 1.09078 15.7255 1.25268C15.9209 1.33728 16.116 1.42234 16.3112 1.50738C16.3694 1.53275 16.3694 1.53275 16.4288 1.55862C16.8815 1.75588 17.3335 1.95471 17.7855 2.1535C18.4351 2.43914 19.0851 2.72375 19.7356 3.00712C20.2183 3.21738 20.7009 3.42792 21.183 3.63971C21.2244 3.65792 21.2659 3.67614 21.3086 3.6949C21.517 3.78651 21.7254 3.87821 21.9337 3.97005C22.3628 4.15905 22.7925 4.34626 23.2235 4.53087C23.3544 4.58715 23.4852 4.64346 23.6161 4.69979C23.6994 4.73553 23.7828 4.77108 23.8663 4.80645C23.9818 4.8554 24.097 4.90495 24.2123 4.95463C24.246 4.96872 24.2797 4.98281 24.3145 4.99732C24.5644 5.10608 24.7876 5.2392 24.9449 5.46928C25.0318 5.74079 25.0173 6.0228 24.8912 6.27526C24.7003 6.48748 24.5595 6.58039 24.2707 6.60928C23.9877 6.60471 23.7501 6.48385 23.4956 6.36977C23.4407 6.34581 23.3857 6.32186 23.3291 6.29718C23.1781 6.23119 23.0275 6.16456 22.8769 6.0976C22.7185 6.02731 22.5598 5.95775 22.4012 5.88808C22.1256 5.7669 21.8502 5.64519 21.5749 5.5232C21.0973 5.31158 20.6192 5.10124 20.1409 4.89118C20.099 4.87276 20.057 4.85435 20.0138 4.83537C19.3623 4.5492 18.7102 4.26435 18.0578 3.98016C17.4465 3.71387 16.8358 3.44624 16.2255 3.17784C15.4734 2.84715 14.7208 2.51791 13.9676 2.1898C13.9123 2.16567 13.9123 2.16567 13.8559 2.14105C13.7838 2.10967 13.7115 2.07847 13.6392 2.04747C13.4612 1.97087 13.2859 1.89132 13.1124 1.80488C12.7303 1.59764 12.7303 1.59764 12.315 1.60284C12.2443 1.63802 12.1746 1.67545 12.1059 1.7145C12.011 1.75629 11.9159 1.79752 11.8206 1.83835C11.7105 1.88835 11.6004 1.93854 11.4904 1.98887C11.3637 2.04639 11.2368 2.10369 11.1099 2.16093C11.0765 2.17603 11.043 2.19113 11.0086 2.20669C10.6 2.39075 10.189 2.56931 9.77799 2.74798C9.61522 2.81879 9.45246 2.88961 9.2897 2.96044C9.24874 2.97826 9.20777 2.99609 9.16556 3.01446C8.70699 3.21412 8.24916 3.41547 7.79134 3.61685C7.1026 3.91973 6.41332 4.22131 5.72351 4.52174C5.15218 4.7706 4.58142 5.02074 4.01101 5.27172C3.2995 5.58476 2.58734 5.89621 1.87404 6.20514C1.81531 6.23061 1.81531 6.23061 1.7554 6.25659C1.6458 6.3041 1.53616 6.35153 1.42651 6.39892C1.37798 6.41996 1.37798 6.41996 1.32848 6.44143C1.00405 6.58135 0.733369 6.65876 0.393189 6.53439C0.219252 6.41969 0.108368 6.29065 0.0153595 6.10454C-0.0100468 5.8495 -0.0159753 5.6343 0.0945818 5.4003C0.315063 5.16229 0.583875 5.03529 0.877093 4.91061C0.913416 4.89488 0.94974 4.87915 0.987163 4.86295C1.10697 4.81113 1.22694 4.7597 1.3469 4.70826C1.47564 4.65266 1.60434 4.59696 1.73303 4.54127C1.82222 4.50268 1.91143 4.46412 2.00065 4.4256C2.42774 4.24116 2.85367 4.05413 3.27943 3.86665C4.00947 3.54522 4.74026 3.22556 5.47156 2.90701C6.08282 2.64073 6.69348 2.37311 7.30381 2.10472C7.79617 1.88821 8.28859 1.67186 8.78162 1.45689C8.8403 1.43129 8.8403 1.43129 8.90018 1.40517C9.09561 1.31996 9.29113 1.23494 9.48677 1.15022C9.86253 0.987274 10.2372 0.822433 10.6098 0.652234C10.7911 0.569454 10.9728 0.487457 11.1545 0.405487C11.2412 0.366134 11.3276 0.326393 11.4139 0.286232C12.35 -0.149369 12.8327 -0.0607129 13.7543 0.370046Z" fill="var(--fill-0, #797979)"/>
<path id="Vector_3" d="M20.4809 16.5482C20.7345 16.7499 20.9281 16.9377 20.9762 17.2431C20.9868 17.569 20.922 17.8176 20.6791 18.0682C20.4224 18.2944 20.2134 18.385 19.8494 18.3885C19.4966 18.383 19.2656 18.3408 19.0078 18.1269C18.7153 17.8459 18.6724 17.5954 18.6791 17.2193C18.7142 16.9389 18.8635 16.7954 19.0817 16.5998C19.5194 16.3415 20.0224 16.2864 20.4809 16.5482Z" fill="var(--fill-0, #797979)"/>
<path id="Vector_4" d="M5.87789 16.5783C6.11041 16.7501 6.2954 16.9416 6.32823 17.2111C6.33274 17.5705 6.32163 17.8334 6.03059 18.1009C5.70881 18.3562 5.42195 18.3938 4.9912 18.3879C4.67002 18.3573 4.50576 18.2268 4.2817 18.0363C4.06502 17.7564 3.99207 17.5083 4.04817 17.173C4.12286 16.8802 4.31616 16.7196 4.56457 16.5252C4.97666 16.3039 5.48758 16.3376 5.87789 16.5783Z" fill="var(--fill-0, #797979)"/>
</g>
</svg>
