<svg preserveAspectRatio="none" width="100%" height="100%" overflow="visible" style="display: block;" viewBox="0 0 25 25" fill="none" xmlns="http://www.w3.org/2000/svg">
<g id="Group">
<path id="Vector" d="M13.9996 18.1865C13.9715 17.7815 13.6204 17.4759 13.2154 17.5041C12.8104 17.5322 12.5049 17.8833 12.533 18.2884L12.5822 18.9966C12.6102 19.4011 12.9607 19.707 13.3664 19.679C13.7714 19.6509 14.0769 19.2998 14.0488 18.8947L13.9996 18.1865Z" fill="var(--fill-0, #797979)"/>
<path id="Vector_2" d="M17.4835 16.3768C17.3196 16.0054 16.8856 15.8372 16.5143 16.001C16.1428 16.1649 15.9746 16.5988 16.1384 16.9703L16.408 17.5813C16.5718 17.9526 17.0057 18.121 17.3772 17.9571C17.7486 17.7932 17.9169 17.3593 17.753 16.9878L17.4835 16.3768Z" fill="var(--fill-0, #797979)"/>
<path id="Vector_3" d="M20.8875 14.6024C20.6074 14.3086 20.1421 14.2975 19.8482 14.5777C19.5545 14.8579 19.5434 15.3232 19.8236 15.617L20.3136 16.1307C20.5936 16.4244 21.059 16.4356 21.3528 16.1553C21.6466 15.8752 21.6576 15.4099 21.3775 15.1161L20.8875 14.6024Z" fill="var(--fill-0, #797979)"/>
<path id="Vector_4" d="M13.1217 21.9847C12.7162 22.0045 12.4035 22.3493 12.4233 22.7548L12.4592 23.4877C12.479 23.8933 12.8238 24.2059 13.2292 24.1861C13.6347 24.1663 13.9474 23.8215 13.9276 23.416L13.8917 22.6831C13.8719 22.2775 13.5269 21.9652 13.1217 21.9847Z" fill="var(--fill-0, #797979)"/>
<path id="Vector_5" d="M17.3924 20.9525C17.277 20.5633 16.8679 20.3412 16.4787 20.4567C16.0894 20.5721 15.8674 20.9812 15.9828 21.3704L16.1791 22.0325C16.2946 22.4222 16.7041 22.6437 17.0928 22.5284C17.4821 22.413 17.7041 22.0039 17.5887 21.6147L17.3924 20.9525Z" fill="var(--fill-0, #797979)"/>
<path id="Vector_6" d="M20.8471 19.2243C20.6374 18.8767 20.1856 18.7648 19.838 18.9746C19.4903 19.1843 19.3785 19.6361 19.5882 19.9837L19.9449 20.575C20.1546 20.9226 20.6064 21.0345 20.9541 20.8248C21.3017 20.6151 21.4135 20.1633 21.2038 19.8157L20.8471 19.2243Z" fill="var(--fill-0, #797979)"/>
<path id="Vector_7" d="M24.7864 18.049L24.2692 17.5285C23.9831 17.2405 23.5177 17.239 23.2296 17.5251C22.9416 17.8113 22.9402 18.2767 23.2263 18.5647L23.7435 19.0852C24.0293 19.3729 24.4948 19.375 24.7831 19.0886C25.071 18.8024 25.0725 18.337 24.7864 18.049Z" fill="var(--fill-0, #797979)"/>
<path id="Vector_8" d="M21.092 9.76488L20.8694 9.26503C20.5016 8.43865 19.6286 7.99196 18.7746 8.1257L18.6374 7.81726C17.8378 6.0214 15.9534 5.03247 14.071 5.33356L13.5881 4.23638C12.4553 1.6629 9.90641 0 7.09452 0C3.18256 0 0 3.18261 0 7.09452V24.2577C0 24.6637 0.329121 24.9928 0.735082 24.9928H3.67541C4.08137 24.9928 4.41049 24.6637 4.41049 24.2577V7.09452C4.41049 5.61456 5.61456 4.41049 7.09452 4.41049C8.15839 4.41049 9.12271 5.03953 9.55127 6.01322L10.0699 7.19111C8.72195 8.41336 8.2835 10.3791 9.04391 12.0879L9.18133 12.3963C8.52308 12.9302 8.25282 13.8718 8.62791 14.7143L8.85044 15.2142C9.33687 16.307 10.6176 16.8062 11.7195 16.3157L19.9905 12.6339C21.0852 12.1467 21.5793 10.8596 21.092 9.76488ZM17.2943 8.41522L17.4041 8.66182L10.4969 11.7366L10.387 11.4899C9.76047 10.0819 10.3775 8.4287 11.8076 7.79099L13.5936 6.99543C15.0443 6.35371 16.6731 7.02008 17.2943 8.41522ZM7.09452 2.94033C4.80391 2.94033 2.94033 4.80391 2.94033 7.09452V23.5226H1.47016V7.09452C1.47016 3.99326 3.99326 1.47016 7.09452 1.47016C9.32378 1.47016 11.3445 2.78846 12.2426 4.82866L12.6691 5.79779L11.3261 6.39605L10.8968 5.42094C10.2336 3.91402 8.74111 2.94033 7.09452 2.94033ZM19.3925 11.2909L11.1216 14.9727C10.7666 15.1306 10.3515 14.9714 10.1935 14.6164L9.971 14.1165C9.86079 13.869 9.97193 13.5795 10.2195 13.4693C10.8527 13.1874 18.6921 9.6977 18.8792 9.61439C19.1261 9.50452 19.4165 9.61595 19.5264 9.86289L19.749 10.3627C19.9065 10.7169 19.7467 11.1333 19.3925 11.2909Z" fill="var(--fill-0, #797979)"/>
</g>
</svg>
