<svg viewBox="0 0 690 54" x="0" y="0" fill="none" xmlns="http://www.w3.org/2000/svg"><g id="Frame 1000004508" xmlns="http://www.w3.org/2000/svg">
<path id="Home" d="M13.508,19.666v15.334h-2.002v-6.952h-7.81v6.952h-2.002v-15.334h2.002v6.732h7.81v-6.732zM22.18,35.198c-1.125,0 -2.152,-0.257 -3.076,-0.77c-0.909,-0.513 -1.628,-1.239 -2.156,-2.178c-0.513,-0.953 -0.77,-2.053 -0.77,-3.3c0,-1.232 0.264,-2.317 0.792,-3.256c0.543,-0.953 1.276,-1.679 2.2,-2.178c0.924,-0.513 1.958,-0.77 3.1,-0.77c1.15,0 2.18,0.257 3.1,0.77c0.93,0.499 1.65,1.217 2.18,2.156c0.55,0.939 0.82,2.031 0.82,3.278c0,1.247 -0.28,2.347 -0.84,3.3c-0.54,0.939 -1.28,1.665 -2.22,2.178c-0.94,0.513 -1.98,0.77 -3.13,0.77zM22.18,33.438c0.72,0 1.4,-0.169 2.03,-0.506c0.63,-0.337 1.14,-0.843 1.52,-1.518c0.39,-0.675 0.59,-1.496 0.59,-2.464c0,-0.968 -0.19,-1.789 -0.57,-2.464c-0.38,-0.675 -0.88,-1.173 -1.5,-1.496c-0.61,-0.337 -1.28,-0.506 -2,-0.506c-0.733,0 -1.408,0.169 -2.024,0.506c-0.601,0.323 -1.085,0.821 -1.452,1.496c-0.366,0.675 -0.55,1.496 -0.55,2.464c0,0.983 0.176,1.811 0.528,2.486c0.367,0.675 0.851,1.181 1.452,1.518c0.602,0.323 1.262,0.484 1.976,0.484zM45.5,22.724c0.94,0 1.77,0.198 2.5,0.594c0.74,0.381 1.32,0.961 1.74,1.738c0.43,0.777 0.64,1.723 0.64,2.838v7.106h-1.98v-6.82c0,-1.203 -0.3,-2.119 -0.9,-2.75c-0.59,-0.645 -1.39,-0.968 -2.4,-0.968c-1.04,0 -1.87,0.337 -2.49,1.012c-0.61,0.66 -0.92,1.621 -0.92,2.882v6.644h-1.98v-6.82c0,-1.203 -0.3,-2.119 -0.9,-2.75c-0.59,-0.645 -1.39,-0.968 -2.4,-0.968c-1.04,0 -1.87,0.337 -2.49,1.012c-0.61,0.66 -0.92,1.621 -0.92,2.882v6.644h-2v-12.056h2v1.738c0.4,-0.631 0.92,-1.115 1.58,-1.452c0.68,-0.337 1.42,-0.506 2.23,-0.506c1.01,0 1.9,0.227 2.68,0.682c0.78,0.455 1.36,1.122 1.74,2.002c0.34,-0.851 0.89,-1.511 1.67,-1.98c0.78,-0.469 1.64,-0.704 2.6,-0.704zM64.66,28.51c0,0.381 -0.02,0.785 -0.06,1.21h-9.64c0.08,1.188 0.48,2.119 1.21,2.794c0.75,0.66 1.65,0.99 2.71,0.99c0.86,0 1.58,-0.198 2.15,-0.594c0.59,-0.411 1,-0.953 1.24,-1.628h2.15c-0.32,1.159 -0.97,2.105 -1.93,2.838c-0.97,0.719 -2.17,1.078 -3.61,1.078c-1.15,0 -2.17,-0.257 -3.08,-0.77c-0.9,-0.513 -1.6,-1.239 -2.11,-2.178c-0.52,-0.953 -0.77,-2.053 -0.77,-3.3c0,-1.247 0.25,-2.339 0.74,-3.278c0.5,-0.939 1.2,-1.657 2.09,-2.156c0.91,-0.513 1.96,-0.77 3.13,-0.77c1.14,0 2.15,0.249 3.03,0.748c0.88,0.499 1.56,1.188 2.03,2.068c0.48,0.865 0.72,1.848 0.72,2.948zM62.6,28.092c0,-0.763 -0.17,-1.415 -0.51,-1.958c-0.34,-0.557 -0.8,-0.975 -1.39,-1.254c-0.57,-0.293 -1.21,-0.44 -1.91,-0.44c-1.01,0 -1.88,0.323 -2.6,0.968c-0.7,0.645 -1.1,1.54 -1.21,2.684z" fill="currentColor"/>
<g id="Group 574">
<path id="Properties" d="M114.95,24.154c0,1.276 -0.44,2.339 -1.32,3.19c-0.87,0.836 -2.2,1.254 -3.99,1.254h-2.94v6.402h-2.01v-15.334h4.95c1.73,0 3.05,0.418 3.94,1.254c0.91,0.836 1.37,1.914 1.37,3.234zM109.64,26.948c1.12,0 1.94,-0.242 2.47,-0.726c0.53,-0.484 0.79,-1.173 0.79,-2.068c0,-1.892 -1.09,-2.838 -3.26,-2.838h-2.94v5.632zM119.44,24.902c0.35,-0.689 0.85,-1.225 1.49,-1.606c0.66,-0.381 1.46,-0.572 2.4,-0.572v2.068h-0.53c-2.24,0 -3.36,1.217 -3.36,3.652v6.556h-2.01v-12.056h2.01zM130.9,35.198c-1.13,0 -2.16,-0.257 -3.08,-0.77c-0.91,-0.513 -1.63,-1.239 -2.16,-2.178c-0.51,-0.953 -0.77,-2.053 -0.77,-3.3c0,-1.232 0.27,-2.317 0.8,-3.256c0.54,-0.953 1.27,-1.679 2.2,-2.178c0.92,-0.513 1.95,-0.77 3.1,-0.77c1.14,0 2.18,0.257 3.1,0.77c0.92,0.499 1.65,1.217 2.18,2.156c0.54,0.939 0.81,2.031 0.81,3.278c0,1.247 -0.28,2.347 -0.83,3.3c-0.55,0.939 -1.29,1.665 -2.23,2.178c-0.94,0.513 -1.98,0.77 -3.12,0.77zM130.9,33.438c0.72,0 1.39,-0.169 2.02,-0.506c0.63,-0.337 1.14,-0.843 1.52,-1.518c0.4,-0.675 0.6,-1.496 0.6,-2.464c0,-0.968 -0.2,-1.789 -0.58,-2.464c-0.38,-0.675 -0.88,-1.173 -1.49,-1.496c-0.62,-0.337 -1.29,-0.506 -2,-0.506c-0.74,0 -1.41,0.169 -2.03,0.506c-0.6,0.323 -1.08,0.821 -1.45,1.496c-0.37,0.675 -0.55,1.496 -0.55,2.464c0,0.983 0.18,1.811 0.53,2.486c0.36,0.675 0.85,1.181 1.45,1.518c0.6,0.323 1.26,0.484 1.98,0.484zM141.72,25.166c0.39,-0.689 0.98,-1.261 1.76,-1.716c0.79,-0.469 1.7,-0.704 2.75,-0.704c1.07,0 2.03,0.257 2.9,0.77c0.88,0.513 1.57,1.239 2.07,2.178c0.5,0.924 0.75,2.002 0.75,3.234c0,1.217 -0.25,2.303 -0.75,3.256c-0.5,0.953 -1.19,1.694 -2.07,2.222c-0.87,0.528 -1.83,0.792 -2.9,0.792c-1.03,0 -1.94,-0.227 -2.73,-0.682c-0.78,-0.469 -1.37,-1.049 -1.78,-1.738v7.942h-2.01v-17.776h2.01zM149.9,28.928c0,-0.909 -0.18,-1.701 -0.55,-2.376c-0.37,-0.675 -0.87,-1.188 -1.5,-1.54c-0.61,-0.352 -1.29,-0.528 -2.04,-0.528c-0.74,0 -1.42,0.183 -2.05,0.55c-0.61,0.352 -1.11,0.873 -1.49,1.562c-0.37,0.675 -0.55,1.459 -0.55,2.354c0,0.909 0.18,1.709 0.55,2.398c0.38,0.675 0.88,1.195 1.49,1.562c0.63,0.352 1.31,0.528 2.05,0.528c0.75,0 1.43,-0.176 2.04,-0.528c0.63,-0.367 1.13,-0.887 1.5,-1.562c0.37,-0.689 0.55,-1.496 0.55,-2.42zM165.58,28.51c0,0.381 -0.02,0.785 -0.07,1.21h-9.63c0.07,1.188 0.48,2.119 1.21,2.794c0.75,0.66 1.65,0.99 2.7,0.99c0.87,0 1.59,-0.198 2.16,-0.594c0.59,-0.411 1,-0.953 1.23,-1.628h2.16c-0.32,1.159 -0.97,2.105 -1.94,2.838c-0.97,0.719 -2.17,1.078 -3.61,1.078c-1.14,0 -2.17,-0.257 -3.08,-0.77c-0.89,-0.513 -1.59,-1.239 -2.11,-2.178c-0.51,-0.953 -0.77,-2.053 -0.77,-3.3c0,-1.247 0.25,-2.339 0.75,-3.278c0.5,-0.939 1.2,-1.657 2.09,-2.156c0.91,-0.513 1.95,-0.77 3.12,-0.77c1.15,0 2.16,0.249 3.04,0.748c0.88,0.499 1.56,1.188 2.02,2.068c0.49,0.865 0.73,1.848 0.73,2.948zM163.51,28.092c0,-0.763 -0.17,-1.415 -0.5,-1.958c-0.34,-0.557 -0.8,-0.975 -1.39,-1.254c-0.57,-0.293 -1.21,-0.44 -1.91,-0.44c-1.02,0 -1.88,0.323 -2.6,0.968c-0.7,0.645 -1.11,1.54 -1.21,2.684zM170.23,24.902c0.35,-0.689 0.85,-1.225 1.49,-1.606c0.66,-0.381 1.46,-0.572 2.4,-0.572v2.068h-0.53c-2.24,0 -3.36,1.217 -3.36,3.652v6.556h-2.01v-12.056h2.01zM178.87,24.594v7.106c0,0.587 0.13,1.005 0.38,1.254c0.25,0.235 0.68,0.352 1.29,0.352h1.48v1.694h-1.81c-1.11,0 -1.95,-0.257 -2.5,-0.77c-0.56,-0.513 -0.84,-1.357 -0.84,-2.53v-7.106h-1.56v-1.65h1.56v-3.036h2v3.036h3.15v1.65zM185.48,20.986c-0.38,0 -0.71,-0.132 -0.97,-0.396c-0.26,-0.264 -0.4,-0.587 -0.4,-0.968c0,-0.381 0.14,-0.704 0.4,-0.968c0.26,-0.264 0.59,-0.396 0.97,-0.396c0.36,0 0.67,0.132 0.92,0.396c0.27,0.264 0.4,0.587 0.4,0.968c0,0.381 -0.13,0.704 -0.4,0.968c-0.25,0.264 -0.56,0.396 -0.92,0.396zM186.45,22.944v12.056h-2.01v-12.056zM200.86,28.51c0,0.381 -0.02,0.785 -0.07,1.21h-9.63c0.07,1.188 0.47,2.119 1.21,2.794c0.74,0.66 1.65,0.99 2.7,0.99c0.87,0 1.59,-0.198 2.16,-0.594c0.58,-0.411 1,-0.953 1.23,-1.628h2.16c-0.33,1.159 -0.97,2.105 -1.94,2.838c-0.97,0.719 -2.17,1.078 -3.61,1.078c-1.14,0 -2.17,-0.257 -3.08,-0.77c-0.89,-0.513 -1.6,-1.239 -2.11,-2.178c-0.51,-0.953 -0.77,-2.053 -0.77,-3.3c0,-1.247 0.25,-2.339 0.75,-3.278c0.5,-0.939 1.19,-1.657 2.09,-2.156c0.91,-0.513 1.95,-0.77 3.12,-0.77c1.15,0 2.16,0.249 3.04,0.748c0.88,0.499 1.55,1.188 2.02,2.068c0.49,0.865 0.73,1.848 0.73,2.948zM198.79,28.092c0,-0.763 -0.17,-1.415 -0.51,-1.958c-0.33,-0.557 -0.8,-0.975 -1.38,-1.254c-0.57,-0.293 -1.21,-0.44 -1.92,-0.44c-1.01,0 -1.87,0.323 -2.59,0.968c-0.71,0.645 -1.11,1.54 -1.21,2.684zM207.77,35.198c-0.93,0 -1.75,-0.154 -2.49,-0.462c-0.73,-0.323 -1.31,-0.763 -1.74,-1.32c-0.42,-0.572 -0.66,-1.225 -0.7,-1.958h2.07c0.06,0.601 0.34,1.093 0.83,1.474c0.52,0.381 1.19,0.572 2.01,0.572c0.76,0 1.36,-0.169 1.8,-0.506c0.44,-0.337 0.66,-0.763 0.66,-1.276c0,-0.528 -0.23,-0.917 -0.7,-1.166c-0.47,-0.264 -1.2,-0.521 -2.18,-0.77c-0.9,-0.235 -1.63,-0.469 -2.2,-0.704c-0.56,-0.249 -1.04,-0.609 -1.45,-1.078c-0.4,-0.484 -0.6,-1.115 -0.6,-1.892c0,-0.616 0.19,-1.181 0.55,-1.694c0.37,-0.513 0.89,-0.917 1.56,-1.21c0.68,-0.308 1.45,-0.462 2.31,-0.462c1.34,0 2.42,0.337 3.24,1.012c0.82,0.675 1.26,1.599 1.32,2.772h-2c-0.05,-0.631 -0.3,-1.137 -0.77,-1.518c-0.46,-0.381 -1.07,-0.572 -1.85,-0.572c-0.72,0 -1.29,0.154 -1.72,0.462c-0.42,0.308 -0.64,0.711 -0.64,1.21c0,0.396 0.13,0.726 0.38,0.99c0.26,0.249 0.59,0.455 0.97,0.616c0.39,0.147 0.94,0.315 1.62,0.506c0.87,0.235 1.57,0.469 2.12,0.704c0.54,0.22 1,0.557 1.38,1.012c0.4,0.455 0.6,1.049 0.62,1.782c0,0.66 -0.18,1.254 -0.55,1.782c-0.37,0.528 -0.89,0.946 -1.56,1.254c-0.66,0.293 -1.43,0.44 -2.29,0.44z" fill="currentColor"/>
<path id="arrow_back_ios_3" d="M244,23.507l-10,8.493l-10,-8.493l1.78,-1.507l8.22,6.985l8.23,-6.985z" fill="currentColor"/>
</g>
<path id="Our Hotels" d="M289.65,35.154c-1.43,0 -2.72,-0.33 -3.9,-0.99c-1.17,-0.675 -2.1,-1.606 -2.79,-2.794c-0.68,-1.203 -1.01,-2.552 -1.01,-4.048c0,-1.496 0.33,-2.838 1.01,-4.026c0.69,-1.203 1.62,-2.134 2.79,-2.794c1.18,-0.675 2.47,-1.012 3.9,-1.012c1.43,0 2.74,0.337 3.91,1.012c1.18,0.66 2.1,1.584 2.77,2.772c0.68,1.188 1.02,2.537 1.02,4.048c0,1.511 -0.34,2.86 -1.02,4.048c-0.67,1.188 -1.59,2.119 -2.77,2.794c-1.17,0.66 -2.48,0.99 -3.91,0.99zM289.65,33.416c1.07,0 2.03,-0.249 2.88,-0.748c0.86,-0.499 1.54,-1.21 2.02,-2.134c0.5,-0.924 0.75,-1.995 0.75,-3.212c0,-1.232 -0.25,-2.303 -0.75,-3.212c-0.48,-0.924 -1.15,-1.635 -2,-2.134c-0.85,-0.499 -1.82,-0.748 -2.9,-0.748c-1.09,0 -2.06,0.249 -2.91,0.748c-0.85,0.499 -1.52,1.21 -2.02,2.134c-0.49,0.909 -0.73,1.98 -0.73,3.212c0,1.217 0.24,2.288 0.73,3.212c0.5,0.924 1.17,1.635 2.02,2.134c0.87,0.499 1.84,0.748 2.91,0.748zM310.68,22.944v12.056h-2v-1.782c-0.38,0.616 -0.92,1.1 -1.61,1.452c-0.67,0.337 -1.42,0.506 -2.24,0.506c-0.94,0 -1.78,-0.191 -2.53,-0.572c-0.75,-0.396 -1.34,-0.983 -1.78,-1.76c-0.43,-0.777 -0.64,-1.723 -0.64,-2.838v-7.062h1.98v6.798c0,1.188 0.3,2.105 0.9,2.75c0.6,0.631 1.42,0.946 2.46,0.946c1.08,0 1.92,-0.33 2.53,-0.99c0.62,-0.66 0.93,-1.621 0.93,-2.882v-6.622zM316.06,24.902c0.36,-0.689 0.85,-1.225 1.5,-1.606c0.66,-0.381 1.46,-0.572 2.4,-0.572v2.068h-0.53c-2.24,0 -3.37,1.217 -3.37,3.652v6.556h-2v-12.056h2zM339.95,19.666v15.334h-2v-6.952h-7.81v6.952h-2.01v-15.334h2.01v6.732h7.81v-6.732zM348.62,35.198c-1.13,0 -2.15,-0.257 -3.08,-0.77c-0.91,-0.513 -1.62,-1.239 -2.15,-2.178c-0.52,-0.953 -0.77,-2.053 -0.77,-3.3c0,-1.232 0.26,-2.317 0.79,-3.256c0.54,-0.953 1.28,-1.679 2.2,-2.178c0.92,-0.513 1.96,-0.77 3.1,-0.77c1.15,0 2.18,0.257 3.1,0.77c0.93,0.499 1.65,1.217 2.18,2.156c0.54,0.939 0.82,2.031 0.82,3.278c0,1.247 -0.28,2.347 -0.84,3.3c-0.54,0.939 -1.28,1.665 -2.22,2.178c-0.94,0.513 -1.98,0.77 -3.13,0.77zM348.62,33.438c0.72,0 1.4,-0.169 2.03,-0.506c0.63,-0.337 1.13,-0.843 1.52,-1.518c0.39,-0.675 0.59,-1.496 0.59,-2.464c0,-0.968 -0.19,-1.789 -0.57,-2.464c-0.38,-0.675 -0.88,-1.173 -1.5,-1.496c-0.61,-0.337 -1.28,-0.506 -2,-0.506c-0.73,0 -1.41,0.169 -2.02,0.506c-0.61,0.323 -1.09,0.821 -1.46,1.496c-0.36,0.675 -0.55,1.496 -0.55,2.464c0,0.983 0.18,1.811 0.53,2.486c0.37,0.675 0.85,1.181 1.45,1.518c0.61,0.323 1.27,0.484 1.98,0.484zM359.88,24.594v7.106c0,0.587 0.12,1.005 0.37,1.254c0.25,0.235 0.69,0.352 1.3,0.352h1.48v1.694h-1.81c-1.11,0 -1.95,-0.257 -2.51,-0.77c-0.55,-0.513 -0.83,-1.357 -0.83,-2.53v-7.106h-1.56v-1.65h1.56v-3.036h2v3.036h3.15v1.65zM376.45,28.51c0,0.381 -0.02,0.785 -0.06,1.21h-9.64c0.07,1.188 0.48,2.119 1.21,2.794c0.75,0.66 1.65,0.99 2.71,0.99c0.86,0 1.58,-0.198 2.15,-0.594c0.59,-0.411 1,-0.953 1.23,-1.628h2.16c-0.32,1.159 -0.97,2.105 -1.94,2.838c-0.96,0.719 -2.17,1.078 -3.6,1.078c-1.15,0 -2.17,-0.257 -3.08,-0.77c-0.9,-0.513 -1.6,-1.239 -2.12,-2.178c-0.51,-0.953 -0.77,-2.053 -0.77,-3.3c0,-1.247 0.25,-2.339 0.75,-3.278c0.5,-0.939 1.2,-1.657 2.09,-2.156c0.91,-0.513 1.95,-0.77 3.13,-0.77c1.14,0 2.15,0.249 3.03,0.748c0.88,0.499 1.56,1.188 2.03,2.068c0.48,0.865 0.72,1.848 0.72,2.948zM374.38,28.092c0,-0.763 -0.16,-1.415 -0.5,-1.958c-0.34,-0.557 -0.8,-0.975 -1.39,-1.254c-0.57,-0.293 -1.21,-0.44 -1.91,-0.44c-1.01,0 -1.88,0.323 -2.6,0.968c-0.7,0.645 -1.11,1.54 -1.21,2.684zM381.1,18.72v16.28h-2.01v-16.28zM388.78,35.198c-0.93,0 -1.76,-0.154 -2.49,-0.462c-0.73,-0.323 -1.31,-0.763 -1.74,-1.32c-0.42,-0.572 -0.66,-1.225 -0.7,-1.958h2.07c0.06,0.601 0.33,1.093 0.83,1.474c0.52,0.381 1.18,0.572 2,0.572c0.77,0 1.37,-0.169 1.81,-0.506c0.44,-0.337 0.66,-0.763 0.66,-1.276c0,-0.528 -0.24,-0.917 -0.71,-1.166c-0.46,-0.264 -1.19,-0.521 -2.17,-0.77c-0.9,-0.235 -1.63,-0.469 -2.2,-0.704c-0.56,-0.249 -1.04,-0.609 -1.46,-1.078c-0.39,-0.484 -0.59,-1.115 -0.59,-1.892c0,-0.616 0.18,-1.181 0.55,-1.694c0.37,-0.513 0.89,-0.917 1.56,-1.21c0.68,-0.308 1.45,-0.462 2.31,-0.462c1.34,0 2.42,0.337 3.24,1.012c0.82,0.675 1.26,1.599 1.32,2.772h-2.01c-0.04,-0.631 -0.3,-1.137 -0.77,-1.518c-0.45,-0.381 -1.07,-0.572 -1.84,-0.572c-0.72,0 -1.29,0.154 -1.72,0.462c-0.42,0.308 -0.64,0.711 -0.64,1.21c0,0.396 0.13,0.726 0.38,0.99c0.26,0.249 0.58,0.455 0.96,0.616c0.4,0.147 0.94,0.315 1.63,0.506c0.87,0.235 1.57,0.469 2.11,0.704c0.55,0.22 1.01,0.557 1.39,1.012c0.4,0.455 0.6,1.049 0.62,1.782c0,0.66 -0.19,1.254 -0.55,1.782c-0.37,0.528 -0.89,0.946 -1.57,1.254c-0.66,0.293 -1.42,0.44 -2.28,0.44z" fill="currentColor"/>
<path id="About Us" d="M442.76,31.59h-6.69l-1.23,3.41h-2.11l5.54,-15.246h2.31l5.52,15.246h-2.11zM442.19,29.962l-2.78,-7.744l-2.77,7.744zM450.52,25.188c0.41,-0.719 1.01,-1.305 1.8,-1.76c0.8,-0.455 1.7,-0.682 2.71,-0.682c1.09,0 2.06,0.257 2.93,0.77c0.86,0.513 1.54,1.239 2.04,2.178c0.5,0.924 0.75,2.002 0.75,3.234c0,1.217 -0.25,2.303 -0.75,3.256c-0.5,0.953 -1.19,1.694 -2.07,2.222c-0.86,0.528 -1.83,0.792 -2.9,0.792c-1.04,0 -1.96,-0.227 -2.75,-0.682c-0.78,-0.455 -1.36,-1.034 -1.76,-1.738v2.222h-2v-16.28h2zM458.7,28.928c0,-0.909 -0.18,-1.701 -0.55,-2.376c-0.36,-0.675 -0.86,-1.188 -1.49,-1.54c-0.62,-0.352 -1.3,-0.528 -2.05,-0.528c-0.73,0 -1.41,0.183 -2.04,0.55c-0.62,0.352 -1.12,0.873 -1.5,1.562c-0.37,0.675 -0.55,1.459 -0.55,2.354c0,0.909 0.18,1.709 0.55,2.398c0.38,0.675 0.88,1.195 1.5,1.562c0.63,0.352 1.31,0.528 2.04,0.528c0.75,0 1.43,-0.176 2.05,-0.528c0.63,-0.367 1.13,-0.887 1.49,-1.562c0.37,-0.689 0.55,-1.496 0.55,-2.42zM468.64,35.198c-1.13,0 -2.15,-0.257 -3.08,-0.77c-0.91,-0.513 -1.62,-1.239 -2.15,-2.178c-0.52,-0.953 -0.77,-2.053 -0.77,-3.3c0,-1.232 0.26,-2.317 0.79,-3.256c0.54,-0.953 1.28,-1.679 2.2,-2.178c0.92,-0.513 1.96,-0.77 3.1,-0.77c1.15,0 2.18,0.257 3.1,0.77c0.93,0.499 1.65,1.217 2.18,2.156c0.54,0.939 0.82,2.031 0.82,3.278c0,1.247 -0.28,2.347 -0.84,3.3c-0.54,0.939 -1.28,1.665 -2.22,2.178c-0.94,0.513 -1.98,0.77 -3.13,0.77zM468.64,33.438c0.72,0 1.4,-0.169 2.03,-0.506c0.63,-0.337 1.13,-0.843 1.52,-1.518c0.39,-0.675 0.59,-1.496 0.59,-2.464c0,-0.968 -0.19,-1.789 -0.57,-2.464c-0.38,-0.675 -0.88,-1.173 -1.5,-1.496c-0.61,-0.337 -1.28,-0.506 -2,-0.506c-0.73,0 -1.41,0.169 -2.02,0.506c-0.61,0.323 -1.09,0.821 -1.46,1.496c-0.36,0.675 -0.55,1.496 -0.55,2.464c0,0.983 0.18,1.811 0.53,2.486c0.37,0.675 0.85,1.181 1.45,1.518c0.6,0.323 1.26,0.484 1.98,0.484zM488.15,22.944v12.056h-2v-1.782c-0.38,0.616 -0.92,1.1 -1.61,1.452c-0.67,0.337 -1.42,0.506 -2.24,0.506c-0.94,0 -1.78,-0.191 -2.53,-0.572c-0.75,-0.396 -1.34,-0.983 -1.78,-1.76c-0.43,-0.777 -0.64,-1.723 -0.64,-2.838v-7.062h1.98v6.798c0,1.188 0.3,2.105 0.9,2.75c0.6,0.631 1.42,0.946 2.46,0.946c1.07,0 1.92,-0.33 2.53,-0.99c0.62,-0.66 0.93,-1.621 0.93,-2.882v-6.622zM493.97,24.594v7.106c0,0.587 0.13,1.005 0.38,1.254c0.25,0.235 0.68,0.352 1.29,0.352h1.48v1.694h-1.81c-1.11,0 -1.95,-0.257 -2.5,-0.77c-0.56,-0.513 -0.84,-1.357 -0.84,-2.53v-7.106h-1.56v-1.65h1.56v-3.036h2v3.036h3.15v1.65zM507.37,19.666v9.702c0,1.364 0.33,2.376 0.99,3.036c0.67,0.66 1.6,0.99 2.79,0.99c1.17,0 2.09,-0.33 2.75,-0.99c0.68,-0.66 1.01,-1.672 1.01,-3.036v-9.702h2v9.68c0,1.276 -0.25,2.354 -0.77,3.234c-0.51,0.865 -1.21,1.511 -2.09,1.936c-0.86,0.425 -1.84,0.638 -2.92,0.638c-1.09,0 -2.07,-0.213 -2.95,-0.638c-0.86,-0.425 -1.55,-1.071 -2.07,-1.936c-0.5,-0.88 -0.75,-1.958 -0.75,-3.234v-9.68zM524.52,35.198c-0.92,0 -1.75,-0.154 -2.48,-0.462c-0.74,-0.323 -1.32,-0.763 -1.74,-1.32c-0.43,-0.572 -0.66,-1.225 -0.71,-1.958h2.07c0.06,0.601 0.34,1.093 0.84,1.474c0.51,0.381 1.18,0.572 2,0.572c0.76,0 1.36,-0.169 1.8,-0.506c0.44,-0.337 0.66,-0.763 0.66,-1.276c0,-0.528 -0.23,-0.917 -0.7,-1.166c-0.47,-0.264 -1.19,-0.521 -2.18,-0.77c-0.89,-0.235 -1.63,-0.469 -2.2,-0.704c-0.55,-0.249 -1.04,-0.609 -1.45,-1.078c-0.4,-0.484 -0.59,-1.115 -0.59,-1.892c0,-0.616 0.18,-1.181 0.55,-1.694c0.36,-0.513 0.88,-0.917 1.56,-1.21c0.67,-0.308 1.44,-0.462 2.31,-0.462c1.33,0 2.41,0.337 3.23,1.012c0.82,0.675 1.26,1.599 1.32,2.772h-2c-0.04,-0.631 -0.3,-1.137 -0.77,-1.518c-0.45,-0.381 -1.07,-0.572 -1.85,-0.572c-0.72,0 -1.29,0.154 -1.71,0.462c-0.43,0.308 -0.64,0.711 -0.64,1.21c0,0.396 0.12,0.726 0.37,0.99c0.27,0.249 0.59,0.455 0.97,0.616c0.4,0.147 0.94,0.315 1.63,0.506c0.86,0.235 1.57,0.469 2.11,0.704c0.54,0.22 1.01,0.557 1.39,1.012c0.39,0.455 0.6,1.049 0.61,1.782c0,0.66 -0.18,1.254 -0.55,1.782c-0.36,0.528 -0.88,0.946 -1.56,1.254c-0.66,0.293 -1.42,0.44 -2.29,0.44z" fill="currentColor"/>
<path id="Contact Us" d="M568.95,27.322c0,-1.496 0.33,-2.838 1.01,-4.026c0.67,-1.203 1.59,-2.141 2.75,-2.816c1.17,-0.675 2.47,-1.012 3.89,-1.012c1.67,0 3.13,0.403 4.38,1.21c1.25,0.807 2.16,1.951 2.73,3.432h-2.4c-0.43,-0.924 -1.04,-1.635 -1.85,-2.134c-0.79,-0.499 -1.74,-0.748 -2.86,-0.748c-1.07,0 -2.03,0.249 -2.88,0.748c-0.85,0.499 -1.52,1.21 -2,2.134c-0.49,0.909 -0.73,1.98 -0.73,3.212c0,1.217 0.24,2.288 0.73,3.212c0.48,0.909 1.15,1.613 2,2.112c0.85,0.499 1.81,0.748 2.88,0.748c1.12,0 2.07,-0.242 2.86,-0.726c0.81,-0.499 1.42,-1.21 1.85,-2.134h2.4c-0.57,1.467 -1.48,2.603 -2.73,3.41c-1.25,0.792 -2.71,1.188 -4.38,1.188c-1.42,0 -2.72,-0.33 -3.89,-0.99c-1.16,-0.675 -2.08,-1.606 -2.75,-2.794c-0.68,-1.188 -1.01,-2.53 -1.01,-4.026zM591.95,35.198c-1.13,0 -2.16,-0.257 -3.08,-0.77c-0.91,-0.513 -1.63,-1.239 -2.16,-2.178c-0.51,-0.953 -0.77,-2.053 -0.77,-3.3c0,-1.232 0.26,-2.317 0.79,-3.256c0.54,-0.953 1.28,-1.679 2.2,-2.178c0.93,-0.513 1.96,-0.77 3.1,-0.77c1.15,0 2.18,0.257 3.11,0.77c0.92,0.499 1.65,1.217 2.17,2.156c0.55,0.939 0.82,2.031 0.82,3.278c0,1.247 -0.28,2.347 -0.84,3.3c-0.54,0.939 -1.28,1.665 -2.22,2.178c-0.94,0.513 -1.98,0.77 -3.12,0.77zM591.95,33.438c0.71,0 1.39,-0.169 2.02,-0.506c0.63,-0.337 1.14,-0.843 1.52,-1.518c0.39,-0.675 0.59,-1.496 0.59,-2.464c0,-0.968 -0.19,-1.789 -0.57,-2.464c-0.38,-0.675 -0.88,-1.173 -1.5,-1.496c-0.61,-0.337 -1.28,-0.506 -2,-0.506c-0.73,0 -1.41,0.169 -2.02,0.506c-0.6,0.323 -1.09,0.821 -1.45,1.496c-0.37,0.675 -0.55,1.496 -0.55,2.464c0,0.983 0.17,1.811 0.52,2.486c0.37,0.675 0.85,1.181 1.46,1.518c0.6,0.323 1.26,0.484 1.98,0.484zM606.63,22.724c1.47,0 2.66,0.447 3.57,1.342c0.91,0.88 1.36,2.156 1.36,3.828v7.106h-1.98v-6.82c0,-1.203 -0.3,-2.119 -0.9,-2.75c-0.6,-0.645 -1.42,-0.968 -2.46,-0.968c-1.06,0 -1.9,0.33 -2.53,0.99c-0.62,0.66 -0.93,1.621 -0.93,2.882v6.666h-2v-12.056h2v1.716c0.4,-0.616 0.93,-1.093 1.61,-1.43c0.69,-0.337 1.44,-0.506 2.26,-0.506zM617.27,24.594v7.106c0,0.587 0.13,1.005 0.38,1.254c0.25,0.235 0.68,0.352 1.3,0.352h1.47v1.694h-1.8c-1.12,0 -1.95,-0.257 -2.51,-0.77c-0.56,-0.513 -0.84,-1.357 -0.84,-2.53v-7.106h-1.56v-1.65h1.56v-3.036h2v3.036h3.15v1.65zM622.1,28.928c0,-1.232 0.25,-2.31 0.75,-3.234c0.5,-0.939 1.18,-1.665 2.04,-2.178c0.88,-0.513 1.86,-0.77 2.93,-0.77c1.05,0 1.97,0.227 2.75,0.682c0.78,0.455 1.36,1.027 1.74,1.716v-2.2h2.02v12.056h-2.02v-2.244c-0.4,0.704 -0.99,1.291 -1.79,1.76c-0.77,0.455 -1.68,0.682 -2.72,0.682c-1.07,0 -2.04,-0.264 -2.91,-0.792c-0.86,-0.528 -1.54,-1.269 -2.04,-2.222c-0.5,-0.953 -0.75,-2.039 -0.75,-3.256zM632.31,28.95c0,-0.909 -0.19,-1.701 -0.55,-2.376c-0.37,-0.675 -0.87,-1.188 -1.5,-1.54c-0.62,-0.367 -1.3,-0.55 -2.05,-0.55c-0.74,0 -1.43,0.176 -2.04,0.528c-0.62,0.352 -1.11,0.865 -1.48,1.54c-0.36,0.675 -0.55,1.467 -0.55,2.376c0,0.924 0.19,1.731 0.55,2.42c0.37,0.675 0.86,1.195 1.48,1.562c0.61,0.352 1.3,0.528 2.04,0.528c0.75,0 1.43,-0.176 2.05,-0.528c0.63,-0.367 1.13,-0.887 1.5,-1.562c0.36,-0.689 0.55,-1.489 0.55,-2.398zM636.97,28.95c0,-1.247 0.24,-2.332 0.74,-3.256c0.5,-0.939 1.19,-1.665 2.07,-2.178c0.9,-0.513 1.92,-0.77 3.06,-0.77c1.48,0 2.7,0.359 3.65,1.078c0.97,0.719 1.61,1.716 1.92,2.992h-2.16c-0.21,-0.733 -0.61,-1.313 -1.21,-1.738c-0.59,-0.425 -1.32,-0.638 -2.2,-0.638c-1.14,0 -2.07,0.396 -2.77,1.188c-0.71,0.777 -1.06,1.885 -1.06,3.322c0,1.452 0.35,2.574 1.06,3.366c0.7,0.792 1.63,1.188 2.77,1.188c0.88,0 1.61,-0.205 2.2,-0.616c0.59,-0.411 0.99,-0.997 1.21,-1.76h2.16c-0.33,1.232 -0.97,2.222 -1.94,2.97c-0.97,0.733 -2.18,1.1 -3.63,1.1c-1.14,0 -2.16,-0.257 -3.06,-0.77c-0.88,-0.513 -1.57,-1.239 -2.07,-2.178c-0.5,-0.939 -0.74,-2.039 -0.74,-3.3zM653.52,24.594v7.106c0,0.587 0.12,1.005 0.37,1.254c0.25,0.235 0.68,0.352 1.3,0.352h1.47v1.694h-1.8c-1.11,0 -1.95,-0.257 -2.51,-0.77c-0.55,-0.513 -0.83,-1.357 -0.83,-2.53v-7.106h-1.57v-1.65h1.57v-3.036h2v3.036h3.14v1.65zM666.91,19.666v9.702c0,1.364 0.33,2.376 0.99,3.036c0.68,0.66 1.61,0.99 2.8,0.99c1.17,0 2.09,-0.33 2.75,-0.99c0.67,-0.66 1.01,-1.672 1.01,-3.036v-9.702h2v9.68c0,1.276 -0.25,2.354 -0.77,3.234c-0.51,0.865 -1.21,1.511 -2.09,1.936c-0.86,0.425 -1.84,0.638 -2.92,0.638c-1.09,0 -2.07,-0.213 -2.95,-0.638c-0.87,-0.425 -1.56,-1.071 -2.07,-1.936c-0.5,-0.88 -0.75,-1.958 -0.75,-3.234v-9.68zM684.07,35.198c-0.92,0 -1.75,-0.154 -2.49,-0.462c-0.73,-0.323 -1.31,-0.763 -1.73,-1.32c-0.43,-0.572 -0.66,-1.225 -0.71,-1.958h2.07c0.06,0.601 0.34,1.093 0.84,1.474c0.51,0.381 1.18,0.572 2,0.572c0.76,0 1.36,-0.169 1.8,-0.506c0.44,-0.337 0.66,-0.763 0.66,-1.276c0,-0.528 -0.23,-0.917 -0.7,-1.166c-0.47,-0.264 -1.2,-0.521 -2.18,-0.77c-0.9,-0.235 -1.63,-0.469 -2.2,-0.704c-0.56,-0.249 -1.04,-0.609 -1.45,-1.078c-0.4,-0.484 -0.6,-1.115 -0.6,-1.892c0,-0.616 0.19,-1.181 0.55,-1.694c0.37,-0.513 0.89,-0.917 1.57,-1.21c0.67,-0.308 1.44,-0.462 2.31,-0.462c1.33,0 2.41,0.337 3.23,1.012c0.82,0.675 1.26,1.599 1.32,2.772h-2c-0.05,-0.631 -0.3,-1.137 -0.77,-1.518c-0.46,-0.381 -1.07,-0.572 -1.85,-0.572c-0.72,0 -1.29,0.154 -1.72,0.462c-0.42,0.308 -0.63,0.711 -0.63,1.21c0,0.396 0.12,0.726 0.37,0.99c0.26,0.249 0.59,0.455 0.97,0.616c0.39,0.147 0.94,0.315 1.63,0.506c0.86,0.235 1.56,0.469 2.11,0.704c0.54,0.22 1,0.557 1.38,1.012c0.4,0.455 0.6,1.049 0.62,1.782c0,0.66 -0.18,1.254 -0.55,1.782c-0.37,0.528 -0.89,0.946 -1.56,1.254c-0.66,0.293 -1.43,0.44 -2.29,0.44z" fill="currentColor"/>
</g></svg>