<svg viewBox="0 0 25 25" x="0" y="0" fill="none" xmlns="http://www.w3.org/2000/svg"><path id="Vector_77" d="M23.97,19.03l-18,-18c-1.02,-1.01 -2.48,-1.31 -3.81,-0.75c-1.33,0.55 -2.16,1.78 -2.16,3.22v16.68c0,2.66 2.16,4.82 4.82,4.82h16.68c1.44,0 2.67,-0.83 3.23,-2.16c0.55,-1.33 0.26,-2.79 -0.76,-3.81zM23.76,22.44c-0.3,0.74 -1.06,1.52 -2.26,1.52h-16.68c-2.08,0 -3.78,-1.7 -3.78,-3.78v-16.68c0,-1.2 0.78,-1.96 1.52,-2.26c0.28,-0.12 0.61,-0.19 0.96,-0.19c0.57,0 1.18,0.19 1.71,0.72l2.71,2.71l-2.25,2.25c-0.2,0.2 -0.2,0.53 0,0.73c0.1,0.11 0.24,0.16 0.37,0.16c0.13,0 0.27,-0.06 0.37,-0.16l2.25,-2.25l2.26,2.27l-2.25,2.25c-0.2,0.2 -0.2,0.53 0,0.73c0.1,0.11 0.24,0.16 0.37,0.16c0.13,0 0.27,-0.06 0.37,-0.16l2.25,-2.25l2.21,2.21l-2.25,2.25c-0.2,0.21 -0.2,0.54 0,0.74c0.1,0.1 0.24,0.15 0.37,0.15c0.13,0 0.27,-0.05 0.37,-0.15l2.25,-2.25l2.21,2.21l-2.25,2.25c-0.21,0.2 -0.21,0.53 0,0.74c0.1,0.1 0.23,0.15 0.37,0.15c0.13,0 0.26,-0.05 0.36,-0.15l2.25,-2.25l2.21,2.2l-2.25,2.25c-0.2,0.21 -0.2,0.54 0,0.74c0.11,0.1 0.24,0.15 0.37,0.15c0.14,0 0.27,-0.05 0.37,-0.15l2.25,-2.25l2.72,2.72c0.85,0.85 0.83,1.94 0.53,2.67zM7.14,12.65c-0.15,-0.15 -0.37,-0.2 -0.57,-0.12c-0.19,0.08 -0.32,0.27 -0.32,0.49v5.2c0,0.29 0.23,0.52 0.52,0.52h5.21c0.21,0 0.4,-0.12 0.48,-0.32c0.08,-0.19 0.04,-0.42 -0.11,-0.57zM7.29,17.7v-3.43l3.43,3.43z" fill="currentColor" xmlns="http://www.w3.org/2000/svg"/></svg>