<svg viewBox="0 0 25 24.9928" x="0" y="0" fill="none" xmlns="http://www.w3.org/2000/svg"><g id="Group_4" xmlns="http://www.w3.org/2000/svg">
<path id="Vector_69" d="M14,18.1864c-0.03,-0.4 -0.38,-0.71 -0.78,-0.68c-0.41,0.03 -0.72,0.38 -0.69,0.78l0.05,0.71c0.03,0.4 0.38,0.71 0.79,0.68c0.4,-0.03 0.71,-0.38 0.68,-0.78z" fill="currentColor"/>
<path id="Vector_70" d="M17.49,16.3764c-0.17,-0.37 -0.6,-0.54 -0.97,-0.38c-0.37,0.17 -0.54,0.6 -0.38,0.97l0.27,0.61c0.16,0.38 0.6,0.54 0.97,0.38c0.37,-0.16 0.54,-0.6 0.38,-0.97z" fill="currentColor"/>
<path id="Vector_71" d="M20.88,14.6064c-0.28,-0.3 -0.74,-0.31 -1.04,-0.03c-0.29,0.28 -0.3,0.75 -0.02,1.04l0.49,0.51c0.28,0.3 0.75,0.31 1.04,0.03c0.29,-0.28 0.3,-0.75 0.02,-1.04z" fill="currentColor"/>
<path id="Vector_72" d="M13.12,21.9864c-0.4,0.02 -0.72,0.36 -0.7,0.77l0.04,0.73c0.02,0.41 0.36,0.72 0.77,0.7c0.4,-0.02 0.72,-0.36 0.7,-0.77l-0.04,-0.73c-0.02,-0.41 -0.36,-0.72 -0.77,-0.7z" fill="currentColor"/>
<path id="Vector_73" d="M17.39,20.9564c-0.11,-0.39 -0.52,-0.62 -0.91,-0.5c-0.39,0.12 -0.61,0.52 -0.5,0.91l0.2,0.67c0.12,0.39 0.52,0.61 0.91,0.49c0.39,-0.11 0.61,-0.52 0.5,-0.91z" fill="currentColor"/>
<path id="Vector_74" d="M20.85,19.2264c-0.21,-0.35 -0.66,-0.46 -1.01,-0.25c-0.35,0.21 -0.46,0.66 -0.25,1.01l0.36,0.59c0.21,0.35 0.66,0.46 1.01,0.25c0.34,-0.21 0.46,-0.66 0.25,-1.01z" fill="currentColor"/>
<path id="Vector_75" d="M24.79,18.0464l-0.52,-0.52c-0.28,-0.29 -0.75,-0.29 -1.04,0c-0.29,0.28 -0.29,0.75 0,1.04l0.52,0.52c0.28,0.29 0.75,0.29 1.04,0c0.28,-0.28 0.29,-0.75 0,-1.04z" fill="currentColor"/>
<path id="Vector_76" d="M21.09,9.7664l-0.22,-0.5c-0.37,-0.83 -1.24,-1.27 -2.1,-1.14l-0.13,-0.31c-0.8,-1.79 -2.69,-2.78 -4.57,-2.48l-0.48,-1.1c-1.13,-2.57 -3.68,-4.24 -6.5,-4.24c-3.91,0 -7.09,3.19 -7.09,7.1v17.16c0,0.41 0.33,0.74 0.74,0.74h2.94c0.4,0 0.73,-0.33 0.73,-0.74v-17.16c0,-1.48 1.2,-2.69 2.68,-2.69c1.07,0 2.03,0.63 2.46,1.61l0.52,1.17c-1.35,1.23 -1.79,3.19 -1.03,4.9l0.14,0.31c-0.66,0.53 -0.93,1.48 -0.55,2.32l0.22,0.5c0.49,1.09 1.77,1.59 2.87,1.1l8.27,-3.68c1.1,-0.49 1.59,-1.78 1.1,-2.87zM17.29,8.4164l0.11,0.25l-6.9,3.07l-0.11,-0.25c-0.63,-1.4 -0.01,-3.06 1.42,-3.7l1.78,-0.79c1.45,-0.64 3.08,0.02 3.7,1.42zM7.09,2.9364c-2.29,0 -4.15,1.87 -4.15,4.16v16.43h-1.47v-16.43c0,-3.1 2.52,-5.63 5.62,-5.63c2.23,0 4.25,1.32 5.15,3.36l0.43,0.97l-1.34,0.6l-0.43,-0.98c-0.67,-1.5 -2.16,-2.48 -3.81,-2.48zM19.39,11.2864l-8.27,3.69c-0.35,0.15 -0.77,-0.01 -0.93,-0.36l-0.22,-0.5c-0.11,-0.25 0,-0.54 0.25,-0.65c0.63,-0.28 8.47,-3.77 8.66,-3.85c0.25,-0.11 0.54,0 0.65,0.25l0.22,0.5c0.16,0.35 0,0.77 -0.36,0.92z" fill="currentColor"/>
</g></svg>