<svg viewBox="0 0 25 21.984" x="0" y="0" fill="none" xmlns="http://www.w3.org/2000/svg"><g id="Group_3" xmlns="http://www.w3.org/2000/svg">
<path id="Vector_64" d="M18.4,10.212h-11.81c-3.38,0 -6.18,2.56 -6.55,5.85h24.91c-0.37,-3.29 -3.16,-5.85 -6.55,-5.85z" fill="currentColor"/>
<path id="Vector_65" d="M0,17.532v3.72c0,0.4 0.33,0.73 0.73,0.73c0.41,0 0.73,-0.33 0.73,-0.73v-0.78h22.08v0.78c0,0.4 0.32,0.73 0.73,0.73c0.4,0 0.73,-0.33 0.73,-0.73v-3.72z" fill="currentColor"/>
<path id="Vector_66" d="M6.15,7.282c-0.13,0 -0.24,0.11 -0.24,0.25v1.25c0.6,-0.05 0.7,-0.02 4.39,-0.03v-1.22c0,-0.14 -0.11,-0.25 -0.24,-0.25h-3.91z" fill="currentColor"/>
<path id="Vector_67" d="M14.94,7.282c-0.14,0 -0.24,0.11 -0.24,0.25v1.22c3.7,0.01 3.8,-0.02 4.39,0.03v-1.25c0,-0.14 -0.11,-0.25 -0.24,-0.25z" fill="currentColor"/>
<path id="Vector_68" d="M4.44,7.532c0,-0.95 0.77,-1.71 1.71,-1.71h3.91c0.94,0 1.71,0.76 1.71,1.71v1.22h1.46v-1.22c0,-0.95 0.76,-1.71 1.71,-1.71h3.9c0.95,0 1.71,0.76 1.71,1.71v1.51c1.09,0.3 2.09,0.82 2.94,1.52v-8.39c0,-0.33 -0.22,-0.62 -0.53,-0.71c-6.87,-1.95 -14.13,-1.95 -21,0c-0.31,0.09 -0.53,0.38 -0.53,0.71v8.45c0.87,-0.72 1.89,-1.27 3.01,-1.58z" fill="currentColor"/>
</g></svg>