<svg viewBox="0 0 30 30" x="0" y="0" fill="none" xmlns="http://www.w3.org/2000/svg"><g id="Group 365" xmlns="http://www.w3.org/2000/svg">
<path id="Vector_39" d="M3.75,0c0.83,0 1.66,0 2.52,0c0,0.81 0,1.62 0,2.46c0.21,0 0.42,0 0.64,0c0.18,0.18 0.3,0.32 0.44,0.53c0.73,0.97 1.52,1.92 2.77,2.12c1.16,0.16 2.34,0.11 3.5,0.08c0.57,-0.02 1.14,-0.02 1.71,-0.02c1.01,0 2.03,-0.02 3.04,-0.04c0.99,-0.02 1.97,-0.03 2.95,-0.04c0.06,0 0.13,0 0.19,0c0.3,0 0.61,-0.01 0.92,-0.01c2.52,-0.02 5.05,-0.05 7.57,-0.1c0,0.83 0,1.66 0,2.52c-3.22,0.03 -3.22,0.03 -6.5,0.06c0.21,0.25 0.42,0.5 0.64,0.76c0.11,0.13 0.21,0.27 0.32,0.41c0.25,0.32 0.51,0.63 0.78,0.94c0.21,0.24 0.41,0.49 0.6,0.73c0.21,0.27 0.43,0.53 0.64,0.79c0.09,0.11 0.18,0.22 0.27,0.33c0.04,0.04 0.08,0.09 0.12,0.14c0.14,0.18 0.14,0.18 0.22,0.32c0.11,0.2 0.2,0.31 0.39,0.44c0.42,0.11 0.86,0.08 1.29,0.07c0.41,0 0.81,-0.01 1.23,-0.01c0,0.83 0,1.66 0,2.52c-5.78,0 -11.56,0 -17.52,0c0,-0.83 0,-1.66 0,-2.52c1.22,0.02 1.22,0.02 1.6,0.04c0.62,0.01 0.62,0.01 1.15,-0.27c0.15,-0.17 0.28,-0.35 0.4,-0.54c0.12,-0.18 0.26,-0.35 0.4,-0.52c0.05,-0.07 0.1,-0.13 0.15,-0.2c0.2,-0.25 0.41,-0.5 0.62,-0.74c0.21,-0.24 0.41,-0.48 0.61,-0.73c0.25,-0.32 0.51,-0.64 0.77,-0.96c0.05,-0.05 0.09,-0.1 0.14,-0.16c0.04,-0.05 0.08,-0.09 0.12,-0.14c0.18,-0.23 0.36,-0.47 0.54,-0.7c-2.95,-0.02 -5.91,-0.04 -8.96,-0.06c0,0.83 0,1.66 0,2.52c-1.24,0 -2.48,0 -3.75,0c0,5.76 0,11.52 0,17.46c1.24,0 2.47,0 3.75,0c0,0.83 0,1.66 0,2.52c-3.31,0 -6.61,0 -10.02,0c0,-0.83 0,-1.66 0,-2.52c1.24,0 2.47,0 3.75,0c0,-5.76 0,-11.52 0,-17.46c-0.43,0 -0.85,0 -1.29,0c0,-0.83 0,-1.66 0,-2.52c-0.81,0 -1.62,0 -2.46,0c0,-0.83 0,-1.66 0,-2.52c0.81,0 1.62,0 2.46,0c0,-0.83 0,-1.66 0,-2.52c0.43,0 0.85,0 1.29,0c0,-0.81 0,-1.62 0,-2.46zM21.21,8.91c-0.05,0.05 -0.05,0.05 -0.1,0.11c-0.58,0.72 -1.16,1.43 -1.74,2.14c-0.05,0.05 -0.09,0.11 -0.14,0.16c-0.09,0.11 -0.18,0.22 -0.27,0.34c-0.05,0.05 -0.09,0.11 -0.14,0.16c-0.04,0.05 -0.08,0.1 -0.13,0.16c-0.12,0.16 -0.24,0.33 -0.35,0.5c1.91,0 3.83,0 5.8,0c-0.2,-0.3 -0.2,-0.3 -0.42,-0.58c-0.03,-0.04 -0.06,-0.08 -0.1,-0.12c-0.03,-0.05 -0.07,-0.09 -0.11,-0.13c-0.07,-0.09 -0.14,-0.18 -0.22,-0.27c-0.03,-0.04 -0.07,-0.08 -0.1,-0.13c-0.13,-0.15 -0.26,-0.31 -0.39,-0.46c-0.04,-0.05 -0.08,-0.1 -0.12,-0.15c-0.06,-0.08 -0.06,-0.08 -0.12,-0.15c-0.13,-0.16 -0.26,-0.32 -0.4,-0.48c-0.09,-0.12 -0.18,-0.23 -0.27,-0.34c-0.04,-0.06 -0.09,-0.11 -0.14,-0.17c-0.04,-0.05 -0.08,-0.1 -0.12,-0.15c-0.13,-0.16 -0.27,-0.3 -0.42,-0.44z" fill="currentColor"/>
<path id="Vector_40" d="M12,18c5.94,0 11.88,0 18,0c0,3.96 0,7.92 0,12c-5.94,0 -11.88,0 -18,0c0,-3.96 0,-7.92 0,-12zM15.91,22.82c0,1.19 0,2.37 0,3.59c1.25,0 2.51,0 3.8,0c0,-1.18 0,-2.37 0,-3.59c-1.26,0 -2.51,0 -3.8,0zM22.29,22.82c0,1.19 0,2.37 0,3.59c1.28,0 2.55,0 3.86,0c0,-1.18 0,-2.37 0,-3.59c-1.27,0 -2.55,0 -3.86,0z" fill="currentColor"/>
</g></svg>