<svg viewBox="0 0 24.4434 25" x="0" y="0" fill="none" xmlns="http://www.w3.org/2000/svg"><g id="Group 609" xmlns="http://www.w3.org/2000/svg">
<path id="Vector_23" d="M12.207,0.0001c0.046,0 0.092,0 0.14,0c0.683,0 1.348,0.03 2.02,0.16c0.065,0.01 0.065,0.01 0.13,0.03c2.267,0.41 4.318,1.51 6.011,3.09c0.084,0.08 0.169,0.15 0.258,0.23c0.139,0.12 0.255,0.25 0.374,0.39c0.103,0.12 0.21,0.24 0.317,0.36c1.438,1.62 2.366,3.69 2.795,5.82c0.008,0.03 0.015,0.07 0.022,0.1c0.142,0.77 0.172,1.53 0.169,2.3c0,0.08 0,0.08 0,0.15c-0.002,0.7 -0.026,1.38 -0.158,2.06c-0.007,0.05 -0.015,0.09 -0.023,0.14c-0.41,2.32 -1.482,4.41 -3.029,6.15c-0.075,0.08 -0.147,0.17 -0.217,0.26c-0.121,0.14 -0.249,0.26 -0.389,0.38c-0.119,0.11 -0.233,0.22 -0.347,0.33c-1.584,1.47 -3.609,2.41 -5.692,2.85c-0.034,0.01 -0.068,0.02 -0.103,0.03c-0.746,0.14 -1.491,0.17 -2.248,0.17c-0.047,0 -0.093,0 -0.14,0c-0.684,0 -1.349,-0.03 -2.021,-0.16c-0.043,-0.01 -0.086,-0.02 -0.13,-0.03c-2.267,-0.42 -4.317,-1.51 -6.011,-3.09c-0.084,-0.08 -0.169,-0.15 -0.257,-0.23c-0.14,-0.12 -0.255,-0.25 -0.375,-0.39c-0.102,-0.13 -0.209,-0.24 -0.317,-0.36c-1.438,-1.62 -2.365,-3.69 -2.795,-5.82c-0.007,-0.03 -0.014,-0.07 -0.021,-0.11c-0.143,-0.76 -0.173,-1.52 -0.17,-2.29c0,-0.05 0,-0.1 0,-0.15c0.003,-0.7 0.027,-1.38 0.158,-2.06c0.012,-0.07 0.012,-0.07 0.023,-0.14c0.411,-2.32 1.483,-4.41 3.029,-6.15c0.076,-0.08 0.147,-0.17 0.217,-0.26c0.121,-0.14 0.249,-0.26 0.39,-0.38c0.118,-0.11 0.232,-0.22 0.346,-0.33c1.584,-1.47 3.609,-2.42 5.692,-2.85c0.034,-0.01 0.068,-0.02 0.103,-0.03c0.746,-0.14 1.492,-0.17 2.249,-0.17zM6.214,3.9701c-0.074,0.05 -0.074,0.05 -0.149,0.11c-2.248,1.7 -3.639,4.24 -4.053,7.05c-0.055,0.45 -0.061,0.89 -0.06,1.34c0,0.04 0,0.08 0,0.13c0.007,2.17 0.657,4.29 1.925,6.04c0.054,0.08 0.054,0.08 0.108,0.16c1.669,2.3 4.149,3.72 6.901,4.14c0.434,0.06 0.866,0.06 1.303,0.06c0.042,0 0.083,0 0.127,0c2.13,0 4.193,-0.67 5.914,-1.97c0.049,-0.03 0.098,-0.07 0.149,-0.11c2.247,-1.7 3.638,-4.24 4.052,-7.05c0.055,-0.45 0.061,-0.89 0.06,-1.34c0,-0.04 0,-0.08 0,-0.13c-0.007,-2.17 -0.657,-4.29 -1.925,-6.04c-0.035,-0.06 -0.071,-0.11 -0.108,-0.16c-1.669,-2.3 -4.149,-3.72 -6.901,-4.14c-0.434,-0.06 -0.866,-0.06 -1.303,-0.06c-0.041,0 -0.083,0 -0.126,0c-2.13,0 -4.194,0.67 -5.914,1.97z" fill="currentColor"/>
<path id="Vector_24" d="M17.652,8.3901c0.191,0.21 0.299,0.49 0.31,0.78c-0.046,0.66 -0.617,1.1 -1.04,1.54c-0.061,0.06 -0.122,0.12 -0.184,0.19c-0.165,0.17 -0.331,0.34 -0.497,0.51c-0.174,0.18 -0.348,0.36 -0.522,0.55c-0.292,0.3 -0.584,0.6 -0.876,0.9c-0.337,0.35 -0.674,0.7 -1.011,1.05c-0.29,0.31 -0.58,0.61 -0.87,0.91c-0.173,0.18 -0.346,0.36 -0.519,0.54c-0.162,0.17 -0.325,0.33 -0.487,0.5c-0.06,0.06 -0.12,0.13 -0.179,0.19c-0.081,0.08 -0.163,0.17 -0.245,0.25c-0.023,0.03 -0.046,0.05 -0.07,0.08c-0.29,0.29 -0.559,0.46 -0.966,0.49c-0.419,-0.04 -0.702,-0.32 -0.985,-0.61c-0.03,-0.04 -0.06,-0.07 -0.091,-0.1c-0.099,-0.1 -0.197,-0.2 -0.295,-0.3c-0.069,-0.08 -0.138,-0.15 -0.207,-0.22c-0.144,-0.15 -0.288,-0.3 -0.432,-0.45c-0.184,-0.19 -0.368,-0.38 -0.553,-0.57c-0.142,-0.15 -0.284,-0.29 -0.426,-0.44c-0.068,-0.07 -0.136,-0.14 -0.204,-0.21c-0.095,-0.1 -0.19,-0.2 -0.284,-0.3c-0.028,-0.03 -0.056,-0.05 -0.085,-0.08c-0.259,-0.28 -0.444,-0.55 -0.457,-0.95c0.024,-0.37 0.168,-0.59 0.43,-0.84c0.215,-0.16 0.414,-0.17 0.671,-0.17c0.474,0.08 0.766,0.44 1.086,0.78c0.054,0.06 0.107,0.11 0.16,0.17c0.139,0.14 0.277,0.29 0.415,0.43c0.142,0.15 0.284,0.3 0.426,0.45c0.277,0.29 0.555,0.58 0.831,0.87c0.309,-0.26 0.588,-0.55 0.869,-0.85c0.053,-0.05 0.106,-0.11 0.16,-0.16c0.114,-0.12 0.228,-0.24 0.342,-0.36c0.18,-0.19 0.361,-0.38 0.542,-0.56c0.514,-0.54 1.027,-1.07 1.54,-1.61c0.284,-0.3 0.568,-0.59 0.852,-0.89c0.18,-0.18 0.359,-0.37 0.538,-0.56c0.112,-0.12 0.224,-0.23 0.336,-0.35c0.052,-0.05 0.103,-0.11 0.155,-0.16c0.514,-0.54 1.133,-1.01 1.822,-0.44z" fill="currentColor"/>
</g></svg>