<svg width="128" height="150" viewBox="0 0 128 150" fill="none" xmlns="http://www.w3.org/2000/svg">
<path d="M97.0859 1.12129C101.12 3.52548 103.668 8.99223 104.911 13.3581C106.142 18.6064 106.142 18.6064 105.074 20.475C103.979 21.0774 103.269 21.0127 102.024 20.8744C100.876 19.992 100.84 18.7349 100.572 17.3886C99.7117 13.2814 98.5084 9.80627 95.6335 6.64055C95.1746 6.87196 95.1746 6.87196 94.7064 7.10805C86.5859 11.1176 78.9412 10.719 70.1817 9.38542C69.4419 9.27342 68.7019 9.16309 67.9617 9.05437C67.2478 8.94931 66.5343 8.84045 65.8217 8.72701C62.0213 8.16775 58.357 8.19483 55.056 10.3443C54.3876 10.9411 54.3876 10.9411 54.0405 11.5573C53.4158 12.4833 52.878 13.1712 51.7661 13.4888C50.8162 13.6667 49.8638 13.7859 48.9045 13.9007C46.2908 14.2217 44.1871 15.0047 42.4743 17.0981C42.3317 17.2696 42.189 17.4411 42.042 17.6178C38.8928 21.7907 39.2315 27.5644 39.1156 32.5302C39.103 33.0348 39.0903 33.5394 39.0776 34.0439C39.0467 35.2701 39.0172 36.4964 38.9885 37.7227C44.0188 36.1804 46.2317 33.5067 48.7606 29.0171C49.1555 28.4271 49.1555 28.4271 50.027 27.8461C51.7245 27.6528 52.5298 28.0219 53.8941 29.0081C63.5199 35.5937 76.4843 36.6766 87.7903 37.4322C88.0074 37.4493 88.2245 37.4663 88.4482 37.4839C90.5949 37.6458 92.1534 37.6088 93.8837 36.2419C96.4679 33.8123 98.0887 31.3327 99.3485 28.0311C99.6884 27.2909 99.9192 26.8723 100.572 26.3937C102.545 26.1744 102.545 26.1744 103.622 26.8476C104.217 27.8154 104.277 28.5036 104.058 29.589C102.986 33.0577 100.884 36.1506 98.5383 38.8846C98.6859 38.9801 98.8334 39.0756 98.9854 39.174C101.07 40.6148 102.622 42.4347 103.116 44.9769C103.551 48.6209 102.569 51.3269 100.535 54.3167C98.6969 56.4063 95.9451 57.7253 93.2006 57.9478C92.9468 57.9695 92.6929 57.9913 92.4313 58.0136C92.2418 58.0279 92.0523 58.0421 91.8571 58.0568C91.7498 58.4235 91.7498 58.4235 91.6404 58.7977C90.1301 62.9523 87.0309 66.4003 83.9777 69.4947C83.811 69.6642 83.6443 69.8336 83.4725 70.0082C82.6311 70.8431 81.9081 71.4579 80.8561 72.0058C80.0813 72.5385 79.9606 72.8086 79.7599 73.7465C79.6813 74.8455 79.6655 75.9274 79.6748 77.0292C79.6701 77.4106 79.6655 77.792 79.6606 78.1849C79.6504 79.1254 79.6511 80.0648 79.6567 81.0052C79.9553 81.0507 79.9553 81.0507 80.26 81.0971C82.7542 81.4931 85.2111 82.0226 87.6712 82.5882C87.8812 82.6364 88.0912 82.6846 88.3076 82.7343C89.4179 82.9895 90.5278 83.2462 91.6375 83.5041C92.5453 83.7147 93.4537 83.9222 94.3628 84.1268C95.4736 84.3768 96.583 84.6323 97.6917 84.8916C98.1089 84.9883 98.5266 85.0832 98.9447 85.176C105.289 86.5897 109.322 89.8712 112.799 95.3208C114.494 98.1619 116.081 101.3 116.839 104.535C117.078 104.542 117.317 104.55 117.563 104.557C120.953 104.73 123.509 105.462 125.844 108.021C127.613 110.307 127.965 112.492 127.957 115.314C127.96 115.746 127.96 115.746 127.962 116.186C127.966 117.134 127.966 118.082 127.965 119.03C127.966 119.691 127.967 120.353 127.969 121.014C127.971 122.4 127.971 123.785 127.969 125.171C127.968 126.942 127.972 128.714 127.979 130.485C127.983 131.852 127.984 133.218 127.983 134.584C127.983 135.237 127.985 135.89 127.987 136.543C127.991 137.457 127.989 138.372 127.986 139.287C127.988 139.554 127.99 139.821 127.992 140.097C127.968 143.09 127.072 145.375 124.973 147.527C123.019 149.117 121.195 149.922 118.649 149.925C118.457 149.926 118.266 149.927 118.069 149.928C117.428 149.931 116.787 149.93 116.146 149.928C115.682 149.929 115.218 149.931 114.753 149.932C113.478 149.936 112.202 149.936 110.927 149.935C109.551 149.935 108.175 149.938 106.799 149.941C104.104 149.946 101.409 149.947 98.7131 149.948C96.522 149.948 94.331 149.949 92.1399 149.951C85.9279 149.956 79.7159 149.959 73.5038 149.958C73.1689 149.958 72.834 149.958 72.489 149.958C71.986 149.958 71.986 149.958 71.4728 149.958C66.0387 149.958 60.6046 149.964 55.1704 149.972C49.5907 149.98 44.011 149.984 38.4312 149.984C35.2986 149.983 32.166 149.985 29.0335 149.991C26.3662 149.997 23.699 149.998 21.0317 149.994C19.6712 149.992 18.3107 149.992 16.9501 149.997C15.7036 150.002 14.4573 150.001 13.2108 149.996C12.7608 149.995 12.3108 149.996 11.8608 149.999C8.45114 150.022 5.73558 149.623 3.18707 147.214C1.03661 144.857 0.556077 142.463 0.564393 139.362C0.562909 139.074 0.561428 138.786 0.559899 138.49C0.555875 137.542 0.556135 136.594 0.556805 135.646C0.555675 134.985 0.554411 134.323 0.553028 133.661C0.550863 132.276 0.550948 130.89 0.552479 129.505C0.554161 127.733 0.549248 125.962 0.542506 124.191C0.538217 122.824 0.537966 121.458 0.538871 120.092C0.538722 119.439 0.537209 118.786 0.534279 118.133C0.530677 117.218 0.532668 116.304 0.536025 115.389C0.533805 115.122 0.531585 114.855 0.529297 114.579C0.553458 111.586 1.45017 109.301 3.54905 107.149C5.51378 105.55 7.36247 104.799 9.90345 104.644C10.4056 104.611 10.4056 104.611 10.9179 104.578C11.1703 104.564 11.4227 104.549 11.6827 104.535C11.7815 104.229 11.8804 103.923 11.9823 103.608C13.4003 99.3396 15.2519 95.5734 18.0734 92.0438C18.2584 91.8108 18.4434 91.5779 18.634 91.338C21.0689 88.4336 24.2359 86.4502 27.9293 85.6221C28.1464 85.5709 28.3635 85.5198 28.5872 85.4671C29.2959 85.3008 30.0055 85.1387 30.7153 84.9767C31.2114 84.8614 31.7075 84.7458 32.2035 84.63C33.2386 84.389 34.2741 84.1499 35.3099 83.9124C36.6384 83.6077 37.966 83.2996 39.2933 82.9903C40.561 82.695 41.8291 82.4016 43.0973 82.1082C43.3391 82.052 43.5809 81.9959 43.8301 81.9381C44.5126 81.78 45.1954 81.6232 45.8783 81.4668C46.0806 81.4197 46.283 81.3727 46.4915 81.3242C47.305 81.1391 48.0273 81.0052 48.865 81.0052C48.9008 79.6976 48.9039 78.3918 48.9013 77.0837C48.9118 76.7152 48.9223 76.3467 48.9331 75.9671C48.9373 73.9055 48.9373 73.9055 47.9768 72.1562C47.2329 71.5686 46.4681 71.0578 45.6697 70.5477C41.8853 67.3396 38.7182 63.161 36.6646 58.6377C36.6646 58.446 36.6646 58.2543 36.6646 58.0568C36.3062 58.0191 36.3062 58.0191 35.9406 57.9807C32.851 57.5919 30.0689 56.6739 27.95 54.2804C26.0577 51.5622 25.0453 48.9045 25.3356 45.5658C25.8287 42.8703 27.0046 40.9266 29.2572 39.3567C30.9941 38.2878 32.3019 37.9892 34.3407 38.0132C34.3376 37.684 34.3346 37.3548 34.3315 37.0157C34.3208 35.7732 34.3142 34.5307 34.3088 33.2881C34.3059 32.7543 34.3019 32.2205 34.2969 31.6868C34.2342 24.9376 34.6386 17.9213 39.5139 12.7408C41.8997 10.5633 44.9367 9.40549 48.1025 8.9826C49.6074 8.76015 50.2062 8.42259 51.1889 7.22152C54.5979 4.20892 58.5837 3.28217 63.0376 3.49058C65.9471 3.69346 68.8205 4.14062 71.6998 4.58835C79.2161 5.7546 86.5878 6.5745 93.2369 2.04722C94.6607 1.11779 95.4022 0.734865 97.0859 1.12129ZM51.4794 33.6558C51.0567 34.1579 51.0567 34.1579 50.6806 34.8178C48.5354 38.1722 45.7808 40.6502 41.8933 41.7895C40.9278 41.998 39.9593 42.188 38.9885 42.3705C38.9627 43.5989 38.9475 44.8273 38.934 46.056C38.9267 46.3985 38.9194 46.7409 38.9119 47.0937C38.8499 54.6313 42.5994 60.7857 47.7394 66.0452C52.1167 70.3996 57.9393 73.9165 64.2609 74.1788C70.6918 73.9037 76.2943 70.1857 80.8186 65.8999C81.047 65.6868 81.2755 65.4738 81.5108 65.2543C83.0637 63.7619 84.3183 62.2012 85.4664 60.3807C85.6615 60.0721 85.8566 59.7636 86.0576 59.4457C88.1387 56.0405 89.5809 52.3722 89.5616 48.3277C89.5607 47.9795 89.5597 47.6312 89.5588 47.2724C89.5563 46.9129 89.5539 46.5535 89.5514 46.1831C89.5494 45.6338 89.5494 45.6338 89.5474 45.0733C89.544 44.1724 89.5392 43.2714 89.5332 42.3705C88.9635 42.3159 88.9635 42.3159 88.3823 42.2602C63.1795 39.8262 63.1795 39.8262 53.1089 34.0394C52.3629 33.5903 52.3629 33.5903 51.4794 33.6558ZM31.1453 43.8229C30.2113 44.9745 29.8875 46.107 29.9471 47.5811C30.2065 49.2182 30.8495 50.4872 32.0168 51.666C32.9474 52.2596 33.8955 52.7149 34.9217 53.1185C34.8771 52.7714 34.8325 52.4242 34.7866 52.0666C34.578 50.1888 34.529 48.3064 34.4678 46.4191C34.4552 46.0568 34.4427 45.6945 34.4298 45.3213C34.3992 44.4345 34.3695 43.5478 34.3407 42.6609C32.9945 42.6609 32.1691 42.9839 31.1453 43.8229ZM94.181 42.6609C94.1738 42.8848 94.1665 43.1087 94.159 43.3394C94.125 44.366 94.0895 45.3926 94.0539 46.4191C94.0425 46.7713 94.0311 47.1235 94.0193 47.4863C93.9527 49.3784 93.8411 51.2404 93.6001 53.1185C95.5253 52.3613 96.8788 51.5832 97.9381 49.7665C98.5571 48.338 98.766 47.0056 98.3636 45.4875C97.7071 43.9491 96.8628 43.3123 95.343 42.6609C94.9595 42.6609 94.5761 42.6609 94.181 42.6609ZM53.5128 75.7765C53.1778 77.7954 52.9253 79.8867 53.5128 81.8767C54.6174 83.4185 56.3684 84.2822 57.9872 85.1993C58.7685 85.6692 59.4795 86.1854 60.202 86.7412C60.4351 86.9204 60.6683 87.0996 60.9085 87.2842C61.3565 87.6311 61.8031 87.9798 62.2483 88.3304C62.453 88.483 62.6577 88.6356 62.8686 88.7928C63.0467 88.93 63.2249 89.0672 63.4085 89.2086C63.9891 89.5015 63.9891 89.5015 64.6901 89.2314C65.3901 88.8655 65.9985 88.4788 66.629 88.0042C66.8528 87.8377 67.0766 87.6712 67.3072 87.4997C67.79 87.1338 68.2719 86.7667 68.753 86.3986C69.8738 85.5474 70.9621 84.7396 72.2084 84.0815C73.3735 83.4433 74.1776 82.9387 75.0089 81.8767C75.4774 79.8775 75.2624 77.7949 75.0089 75.7765C74.7832 75.8643 74.7832 75.8643 74.5529 75.9539C67.3455 78.739 61.6824 79.0638 54.3843 76.067C54.0967 75.9711 53.8091 75.8752 53.5128 75.7765ZM76.1527 86.579C75.7915 86.8426 75.4302 87.1062 75.069 87.3699C74.8745 87.513 74.6801 87.656 74.4797 87.8035C73.5546 88.4818 72.6234 89.1517 71.6927 89.8223C70.667 90.5615 69.6426 91.3026 68.6182 92.0438C69.9007 93.0443 71.2981 93.7873 72.7213 94.5674C72.9883 94.7158 73.2553 94.8643 73.5303 95.0173C73.7853 95.1575 74.0404 95.2977 74.3031 95.4422C74.536 95.5705 74.769 95.6989 75.009 95.8311C75.5697 96.1526 75.5697 96.1526 76.1708 96.1106C76.6247 95.5758 77.0441 95.04 77.4599 94.4766C77.7202 94.1303 77.9808 93.7842 78.2417 93.4383C78.3777 93.2573 78.5136 93.0763 78.6537 92.8898C79.478 91.8045 80.3299 90.7406 81.18 89.6755C81.9868 88.6563 82.7256 87.6153 83.433 86.5245C82.6768 86.3296 81.9203 86.1361 81.1636 85.9435C80.9492 85.8881 80.7348 85.8327 80.5139 85.7756C78.5052 85.2666 77.777 85.3693 76.1527 86.579ZM48.89 85.6167C48.6691 85.6692 48.4481 85.7216 48.2205 85.7756C47.9899 85.831 47.7592 85.8864 47.5215 85.9435C47.1722 86.0267 47.1722 86.0267 46.8157 86.1115C46.2399 86.2486 45.6643 86.3865 45.0887 86.5245C46.1238 87.9137 47.1713 89.2924 48.2296 90.6639C49.6204 92.4669 50.9894 94.2854 52.3509 96.1106C53.3639 95.7219 54.3202 95.2801 55.2796 94.7739C55.5501 94.6316 55.8207 94.4893 56.0994 94.3427C56.3782 94.1952 56.657 94.0476 56.9442 93.8956C57.3708 93.6709 57.3708 93.6709 57.806 93.4417C58.5055 93.0732 59.2047 92.704 59.9035 92.3342C58.97 91.3771 57.984 90.5921 56.8897 89.8288C56.5288 89.5747 56.168 89.3205 55.8072 89.0663C55.6218 88.936 55.4363 88.8056 55.2453 88.6714C54.6682 88.2628 54.0957 87.8485 53.5242 87.4323C53.3397 87.2984 53.1552 87.1646 52.9652 87.0268C52.609 86.7682 52.2536 86.5086 51.8988 86.2481C50.7119 85.3906 50.2733 85.2864 48.89 85.6167ZM34.785 88.8478C34.2154 88.9802 33.6455 89.1112 33.0753 89.2407C26.6936 90.6912 23.2049 92.5289 19.5599 98.1099C18.606 99.6585 17.8834 101.184 17.287 102.904C17.0979 103.446 17.0979 103.446 16.9049 103.999C16.8112 104.271 16.7175 104.544 16.621 104.825C16.848 104.826 17.075 104.827 17.3089 104.827C22.8266 104.844 28.3442 104.866 33.8618 104.894C36.53 104.907 39.1983 104.918 41.8665 104.926C44.1915 104.932 46.5165 104.942 48.8415 104.956C50.0731 104.962 51.3048 104.968 52.5364 104.97C53.6947 104.971 54.853 104.977 56.0112 104.986C56.4373 104.989 56.8633 104.99 57.2893 104.989C57.8692 104.989 58.449 104.994 59.0289 105C59.354 105.001 59.679 105.003 60.014 105.004C60.2651 105.041 60.5163 105.078 60.775 105.116C61.4906 106.189 61.4692 106.752 61.356 108.021C61.0393 108.513 61.0393 108.513 60.4845 108.892C59.5998 109.001 59.5998 109.001 58.4895 109.002C58.2854 109.003 58.0812 109.005 57.8709 109.006C57.1852 109.009 56.4996 109.007 55.8139 109.004C55.3229 109.005 54.8319 109.007 54.3409 109.008C53.2824 109.012 52.2239 109.013 51.1654 109.011C49.4904 109.009 47.8155 109.014 46.1406 109.02C42.5825 109.031 39.0244 109.034 35.4663 109.037C31.6311 109.04 27.796 109.045 23.9608 109.058C22.2972 109.063 20.6337 109.064 18.9701 109.062C17.9324 109.062 16.8948 109.065 15.8571 109.069C15.3776 109.07 14.8981 109.07 14.4186 109.068C11.6536 109.058 9.20652 109.051 6.78072 110.58C5.25608 112.15 5.16318 113.687 5.16999 115.76C5.16753 116.037 5.16507 116.314 5.16253 116.599C5.15575 117.512 5.15545 118.425 5.15581 119.338C5.15374 119.975 5.15151 120.612 5.1491 121.248C5.1452 122.582 5.14474 123.916 5.14644 125.249C5.14816 126.956 5.13927 128.662 5.12753 130.368C5.12 131.682 5.11918 132.997 5.12024 134.312C5.11975 134.941 5.11694 135.57 5.11176 136.199C5.10531 137.08 5.10815 137.96 5.11325 138.841C5.1094 139.099 5.10555 139.357 5.10158 139.622C5.12561 141.413 5.56423 142.672 6.74441 144.041C8.38155 145.334 10.0651 145.529 12.0893 145.532C12.467 145.533 12.8447 145.534 13.2338 145.535C13.6525 145.535 14.0711 145.534 14.4897 145.534C14.9349 145.535 15.38 145.536 15.8251 145.537C17.0488 145.539 18.2726 145.54 19.4963 145.54C20.8159 145.54 22.1355 145.543 23.4551 145.545C26.3408 145.548 29.2265 145.55 32.1121 145.552C33.9139 145.552 35.7156 145.554 37.5173 145.555C42.5057 145.558 47.494 145.561 52.4824 145.562C52.8016 145.562 53.1209 145.563 53.4498 145.563C53.9298 145.563 53.9298 145.563 54.4195 145.563C55.068 145.563 55.7165 145.563 56.3649 145.563C56.8474 145.563 56.8474 145.563 57.3397 145.563C62.5524 145.564 67.7651 145.57 72.9778 145.576C78.3293 145.583 83.6809 145.587 89.0325 145.587C92.0373 145.587 95.0421 145.589 98.0469 145.594C100.605 145.599 103.164 145.6 105.722 145.598C107.028 145.597 108.333 145.597 109.638 145.601C110.834 145.605 112.029 145.605 113.225 145.601C113.656 145.6 114.088 145.601 114.52 145.604C117.186 145.618 119.43 145.52 121.741 144.114C123.273 142.492 123.359 140.741 123.352 138.619C123.354 138.345 123.357 138.071 123.359 137.788C123.366 136.886 123.366 135.984 123.366 135.082C123.368 134.453 123.37 133.823 123.373 133.193C123.377 131.875 123.377 130.556 123.375 129.238C123.374 127.552 123.382 125.866 123.394 124.18C123.402 122.879 123.403 121.579 123.401 120.279C123.402 119.658 123.405 119.036 123.41 118.414C123.416 117.544 123.414 116.674 123.408 115.804C123.412 115.549 123.416 115.294 123.42 115.032C123.396 113.25 122.949 111.997 121.777 110.635C120.072 109.287 118.33 109.146 116.226 109.144C116.021 109.144 115.817 109.143 115.606 109.142C114.922 109.141 114.238 109.141 113.554 109.141C113.063 109.14 112.572 109.139 112.081 109.138C111.024 109.136 109.968 109.134 108.911 109.133C107.242 109.132 105.572 109.127 103.903 109.121C103.331 109.12 102.759 109.118 102.188 109.116C101.901 109.115 101.615 109.114 101.32 109.113C97.4337 109.101 93.5471 109.091 89.6605 109.088C87.0378 109.085 84.4152 109.079 81.7925 109.068C80.4045 109.062 79.0165 109.058 77.6285 109.06C76.3243 109.061 75.0201 109.057 73.7159 109.049C73.2366 109.047 72.7573 109.047 72.278 109.049C71.625 109.052 70.9725 109.047 70.3195 109.041C69.9538 109.04 69.588 109.039 69.2112 109.039C68.3277 108.892 68.3277 108.892 67.764 108.368C67.3005 107.408 67.5028 106.71 67.7467 105.697C68.5343 104.909 68.9491 105.04 70.0517 105.035C70.6029 105.03 70.6029 105.03 71.1652 105.025C71.5746 105.024 71.9841 105.024 72.3935 105.023C72.8229 105.02 73.2522 105.017 73.6816 105.014C74.8495 105.006 76.0174 105.002 77.1853 104.998C78.4049 104.994 79.6246 104.986 80.8443 104.978C83.1549 104.965 85.4655 104.954 87.7762 104.944C90.4064 104.933 93.0365 104.919 95.6667 104.904C101.078 104.874 106.489 104.848 111.901 104.825C111.673 104.173 111.443 103.521 111.213 102.869C111.117 102.594 111.117 102.594 111.019 102.313C110.539 100.957 109.983 99.7365 109.214 98.5252C109.046 98.2559 109.046 98.2559 108.876 97.9811C105.18 92.1597 101.04 90.5335 94.5924 89.0821C94.1345 88.98 93.6767 88.8779 93.2188 88.7758C92.7461 88.6692 92.2735 88.5626 91.801 88.4558C90.6581 88.1978 89.5148 87.9416 88.3713 87.6864C88.1799 87.9357 87.9885 88.1849 87.7914 88.4417C86.3681 90.2942 84.9404 92.1424 83.4936 93.9767C82.7958 94.8618 82.1003 95.7485 81.4098 96.6394C81.2682 96.8214 81.1267 97.0034 80.9808 97.1909C80.7121 97.5365 80.4441 97.8827 80.177 98.2296C79.8173 98.6911 79.4467 99.144 79.0757 99.5964C78.8533 99.8746 78.6308 100.153 78.4017 100.44C77.5587 101.099 77.028 101.271 75.9565 101.199C74.5905 100.887 73.4299 100.153 72.2311 99.4512C71.9514 99.2939 71.6717 99.1365 71.3835 98.9744C70.3231 98.378 69.2683 97.7722 68.2166 97.1605C67.6266 96.8182 67.0334 96.4823 66.4395 96.1469C66.113 95.9559 65.7865 95.7649 65.45 95.5682C64.2914 95.1439 63.9421 95.366 62.8084 95.8201C62.0649 96.1734 61.3398 96.5567 60.615 96.9469C60.4118 97.055 60.2087 97.1631 59.9993 97.2744C59.573 97.5016 59.147 97.7294 58.7214 97.9578C58.0676 98.3086 57.4127 98.6574 56.7575 99.0058C56.3428 99.2271 55.928 99.4486 55.5133 99.6702C55.317 99.7749 55.1206 99.8796 54.9183 99.9874C54.0136 100.437 54.0136 100.437 53.2223 101.049C51.5868 101.212 51.5868 101.212 50.8984 101.049C49.6642 99.9828 48.668 98.6858 47.6486 97.4178C47.4834 97.2132 47.3182 97.0087 47.1479 96.7979C45.394 94.619 43.6817 92.4098 42.0148 90.1635C41.8937 90.0007 41.7727 89.8379 41.648 89.6702C41.3138 89.2197 40.9811 88.768 40.6486 88.3162C40.4842 88.1084 40.3198 87.9006 40.1504 87.6864C38.4362 87.6864 36.4562 88.4573 34.785 88.8478Z" fill="#505050"/>
<path d="M96.505 117.026C97.3 117.821 97.1645 118.269 97.175 119.383C97.1796 119.756 97.1843 120.129 97.1891 120.514C97.1909 120.924 97.1925 121.333 97.1938 121.743C97.1964 122.162 97.199 122.581 97.2017 123C97.2065 123.879 97.2087 124.758 97.2096 125.638C97.2111 126.763 97.2221 127.888 97.2354 129.013C97.244 129.879 97.2461 130.745 97.2464 131.611C97.2476 132.026 97.2512 132.441 97.2573 132.856C97.2651 133.437 97.2628 134.018 97.2601 134.599C97.2616 134.93 97.263 135.26 97.2645 135.601C97.0296 136.768 96.5485 137.203 95.6335 137.941C94.7802 138.122 94.7802 138.122 93.8906 137.941C92.4855 136.92 91.586 135.807 90.6408 134.364C90.3655 133.954 90.0902 133.543 89.8147 133.133C89.6041 132.816 89.6041 132.816 89.3892 132.493C88.6554 131.397 87.9044 130.312 87.1549 129.226C86.8844 128.833 86.614 128.439 86.3436 128.046C86.0532 127.624 86.0532 127.624 85.757 127.193C85.7527 127.458 85.7485 127.723 85.7441 127.996C85.7264 128.984 85.7048 129.972 85.6807 130.96C85.6711 131.387 85.663 131.814 85.6563 132.241C85.6466 132.856 85.6314 133.471 85.6151 134.086C85.6075 134.456 85.5999 134.825 85.5921 135.206C85.4588 136.259 85.239 136.816 84.595 137.65C83.6227 138.136 83.1142 138.297 82.0533 138.031C81.3997 137.65 81.3997 137.65 80.8187 136.779C80.743 135.965 80.743 135.965 80.7389 134.965C80.7361 134.591 80.7334 134.217 80.7305 133.831C80.7306 133.422 80.7309 133.013 80.7313 132.604C80.7302 132.185 80.7289 131.766 80.7276 131.346C80.7254 130.467 80.7255 129.589 80.727 128.71C80.7287 127.584 80.7238 126.459 80.717 125.333C80.7127 124.467 80.7125 123.601 80.7134 122.735C80.7132 122.32 80.7117 121.905 80.7088 121.49C80.7052 120.91 80.7077 120.329 80.7105 119.748C80.7104 119.418 80.7102 119.088 80.71 118.748C80.8303 117.806 81.035 117.41 81.6902 116.735C82.6176 116.388 83.3615 116.465 84.3045 116.735C84.8703 117.281 84.8703 117.281 85.4132 117.999C85.613 118.263 85.8129 118.526 86.0189 118.797C86.9981 120.151 87.9482 121.521 88.8797 122.908C89.0673 123.185 89.2549 123.462 89.4482 123.748C90.3535 125.086 91.252 126.429 92.1477 127.774C92.1519 127.5 92.1562 127.226 92.1605 126.943C92.1783 125.923 92.1999 124.902 92.2239 123.882C92.2336 123.441 92.2417 123 92.2483 122.559C92.2581 121.924 92.2733 121.289 92.2895 120.653C92.2971 120.271 92.3047 119.89 92.3126 119.496C92.4441 118.43 92.665 117.874 93.3096 117.026C94.5154 116.276 95.2397 116.463 96.505 117.026Z" fill="#505050"/>
<path d="M27.2421 118.496C27.9502 119.059 27.9502 119.059 28.2407 119.64C28.3169 120.669 28.36 121.422 27.9139 122.363C27.1155 123.055 26.6915 123.126 25.6263 123.126C25.1484 122.954 24.6765 122.764 24.2102 122.563C22.6414 121.889 21.458 121.601 19.778 122.176C18.0827 122.942 17.069 124.026 16.3307 125.74C16.084 127.427 16.2279 128.973 17.0921 130.457C18.0403 131.669 19.1008 132.317 20.6268 132.54C22.5054 132.6 23.5991 132.329 25.009 131.06C25.9305 130.491 26.6005 130.546 27.6597 130.679C28.3678 131.132 28.3678 131.132 28.8217 131.841C29.0124 132.852 29.0349 133.514 28.5005 134.416C27.2987 135.918 25.805 137.005 23.8834 137.36C20.2922 137.602 17.4386 137.296 14.5345 134.967C13.5807 134.042 12.9047 132.998 12.2639 131.841C12.1647 131.665 12.0654 131.49 11.9632 131.31C10.8667 128.964 11.0607 125.891 11.81 123.471C13.0338 120.605 15.0916 118.906 17.8705 117.624C20.8987 116.436 24.4827 116.746 27.2421 118.496Z" fill="#505050"/>
<path d="M65.7223 117.152C65.9178 117.15 66.1133 117.148 66.3147 117.146C66.7268 117.144 67.139 117.145 67.5511 117.149C68.1807 117.153 68.809 117.143 69.4385 117.132C69.8398 117.131 70.2411 117.132 70.6425 117.133C71.1881 117.133 71.1881 117.133 71.7448 117.133C72.6849 117.316 72.6849 117.316 73.3947 117.988C73.8469 118.769 73.8469 118.769 73.8287 119.822C73.5578 120.797 73.4606 121.084 72.6849 121.673C72.0794 121.772 72.0794 121.772 71.3925 121.759C71.1463 121.756 70.9001 121.753 70.6464 121.75C70.3905 121.743 70.1345 121.735 69.8708 121.728C69.6115 121.724 69.3522 121.72 69.0851 121.716C68.4452 121.706 67.8054 121.69 67.1657 121.673C67.1657 122.824 67.1657 123.974 67.1657 125.159C67.5087 125.146 67.8517 125.132 68.2051 125.118C68.6575 125.108 69.1098 125.097 69.5622 125.087C69.788 125.077 70.0138 125.067 70.2464 125.057C71.9209 125.029 71.9209 125.029 72.8347 125.681C73.4662 126.618 73.4236 127.251 73.2659 128.355C72.8347 128.995 72.8347 128.995 72.104 129.517C71.2518 129.657 70.4229 129.626 69.5622 129.589C69.3319 129.584 69.1016 129.579 68.8644 129.573C68.298 129.56 67.7318 129.539 67.1657 129.517C67.1657 130.667 67.1657 131.817 67.1657 133.002C67.7431 132.977 67.7431 132.977 68.3322 132.951C68.839 132.938 69.3458 132.925 69.8527 132.912C70.1062 132.899 70.3597 132.887 70.6209 132.875C72.4986 132.839 72.4986 132.839 73.4441 133.668C73.9919 134.738 73.8739 135.345 73.5564 136.488C73.2295 136.977 73.2295 136.977 72.6849 137.36C71.7778 137.477 71.7778 137.477 70.6708 137.486C70.4749 137.487 70.279 137.489 70.0772 137.49C69.6634 137.492 69.2495 137.492 68.8356 137.489C68.2036 137.487 67.5724 137.495 66.9404 137.504C66.5378 137.505 66.1352 137.505 65.7325 137.504C65.1841 137.505 65.1841 137.505 64.6246 137.505C63.486 137.33 63.2175 137.094 62.5179 136.198C62.3703 135.393 62.3703 135.393 62.3675 134.458C62.3639 134.107 62.3602 133.756 62.3564 133.394C62.3588 133.016 62.3611 132.638 62.3636 132.249C62.3628 131.856 62.3617 131.463 62.3602 131.07C62.3585 130.248 62.361 129.426 62.3664 128.603C62.373 127.55 62.3692 126.497 62.3623 125.444C62.3581 124.633 62.3594 123.823 62.3624 123.012C62.3636 122.435 62.36 121.858 62.3564 121.282C62.3601 120.931 62.3638 120.58 62.3675 120.218C62.3685 119.909 62.3694 119.601 62.3703 119.283C62.7209 117.371 63.9851 117.167 65.7223 117.152Z" fill="#505050"/>
<path d="M107.598 116.843C107.938 116.842 107.938 116.842 108.284 116.841C108.762 116.841 109.24 116.845 109.717 116.852C110.446 116.862 111.174 116.858 111.903 116.853C112.368 116.855 112.833 116.857 113.299 116.861C113.515 116.86 113.732 116.858 113.955 116.857C115.38 116.889 116.134 117.163 117.129 118.188C117.397 118.993 117.331 119.691 117.129 120.512C116.585 121.238 116.585 121.238 115.677 121.673C114.953 121.716 114.953 121.716 114.168 121.701C113.776 121.695 113.776 121.695 113.376 121.689C113.077 121.681 113.077 121.681 112.772 121.673C112.775 121.853 112.777 122.032 112.78 122.217C112.806 124.083 112.823 125.949 112.836 127.815C112.842 128.512 112.85 129.208 112.86 129.905C112.874 130.906 112.88 131.906 112.885 132.907C112.891 133.219 112.897 133.531 112.904 133.852C112.904 134.142 112.904 134.433 112.904 134.733C112.907 134.988 112.909 135.244 112.912 135.507C112.726 136.426 112.324 136.774 111.61 137.36C111.029 137.524 111.029 137.524 110.448 137.523C110.161 137.533 110.161 137.533 109.867 137.542C108.901 137.239 108.645 136.774 108.124 135.907C107.962 134.821 107.989 133.748 108.011 132.652C108.012 132.338 108.014 132.024 108.016 131.701C108.022 130.7 108.037 129.7 108.052 128.7C108.057 128.021 108.063 127.341 108.067 126.662C108.08 124.999 108.1 123.336 108.124 121.673C107.825 121.684 107.825 121.684 107.521 121.695C107.129 121.704 107.129 121.704 106.729 121.712C106.469 121.719 106.21 121.726 105.943 121.734C105.219 121.673 105.219 121.673 104.312 121.056C103.663 120.062 103.525 119.64 103.767 118.478C104.884 117.018 105.84 116.812 107.598 116.843Z" fill="#505050"/>
<path d="M38.407 117.026C39.2343 117.674 39.5254 118.057 39.8594 119.059C39.8847 119.518 39.8936 119.978 39.8924 120.438C39.8924 120.717 39.8924 120.996 39.8924 121.284C39.8909 121.584 39.8894 121.885 39.8878 122.194C39.8874 122.503 39.887 122.811 39.8866 123.128C39.8849 124.114 39.8813 125.1 39.8776 126.085C39.8761 126.753 39.8748 127.421 39.8736 128.089C39.8704 129.727 39.8656 131.364 39.8594 133.002C40.1161 132.932 40.1161 132.932 40.378 132.861C41.8291 132.525 43.1961 132.565 44.5072 133.293C45.0519 133.783 45.0519 133.783 45.3787 134.455C45.3446 135.427 45.3125 136.166 44.7466 136.979C43.5529 137.837 41.7257 137.495 40.3133 137.487C39.9529 137.493 39.5925 137.498 39.2212 137.504C38.7019 137.504 38.7019 137.504 38.1721 137.504C37.8552 137.504 37.5382 137.505 37.2117 137.505C36.1542 137.322 35.871 137.034 35.2116 136.198C35.0621 135.382 35.0621 135.382 35.0567 134.431C35.0498 133.896 35.0498 133.896 35.0428 133.35C35.0439 132.962 35.0453 132.574 35.0471 132.185C35.0456 131.786 35.0438 131.387 35.0417 130.987C35.0386 130.151 35.04 129.315 35.0442 128.479C35.0492 127.408 35.0424 126.338 35.0322 125.268C35.0258 124.443 35.0262 123.619 35.0286 122.794C35.0288 122.4 35.0268 122.005 35.0226 121.61C35.0175 121.058 35.0227 120.506 35.0283 119.954C35.0286 119.64 35.0289 119.327 35.0292 119.003C35.2116 118.188 35.2116 118.188 35.8937 117.505C36.8357 116.919 37.3163 116.84 38.407 117.026Z" fill="#505050"/>
<path d="M54.9653 117.316C55.5443 117.775 55.7977 118.109 56.1273 118.769C56.1567 119.308 56.1675 119.849 56.1695 120.389C56.1713 120.729 56.1732 121.068 56.1751 121.418C56.1754 121.786 56.1757 122.154 56.1761 122.534C56.177 122.91 56.178 123.287 56.179 123.675C56.1807 124.474 56.1813 125.273 56.1811 126.071C56.1811 127.093 56.185 128.116 56.19 129.138C56.1941 130.114 56.1939 131.089 56.1942 132.065C56.1963 132.432 56.1984 132.799 56.2006 133.178C56.1997 133.519 56.1988 133.86 56.1978 134.211C56.1983 134.511 56.1987 134.812 56.1991 135.121C56.1257 135.924 55.9757 136.393 55.5463 137.069C54.7689 137.674 54.3502 137.649 53.3495 137.614C52.3509 137.36 52.3509 137.36 51.8599 136.872C51.377 136.016 51.3689 135.438 51.3667 134.458C51.364 134.107 51.3612 133.756 51.3584 133.394C51.3602 133.016 51.3619 132.638 51.3637 132.249C51.3632 131.856 51.3623 131.463 51.3612 131.07C51.3599 130.248 51.3618 129.426 51.3659 128.603C51.3708 127.55 51.368 126.497 51.3628 125.444C51.3596 124.633 51.3606 123.823 51.3629 123.012C51.3637 122.435 51.3611 121.858 51.3584 121.282C51.3611 120.931 51.3639 120.58 51.3667 120.218C51.3674 119.909 51.3681 119.601 51.3688 119.283C51.4949 118.366 51.7055 117.971 52.3509 117.316C53.3821 116.972 53.9195 117.055 54.9653 117.316Z" fill="#505050"/>
<path d="M61.9371 60.6712C62.2247 60.773 62.5123 60.8749 62.8086 60.9798C64.0867 61.3792 65.3653 61.281 66.5849 60.6712C68.6594 60.4704 68.6594 60.4704 69.6532 61.2703C70.2025 62.3927 70.1267 62.9662 69.7803 64.157C68.8325 65.4558 67.6974 65.764 66.1549 66.0191C63.6596 66.3253 61.1913 66.1414 59.0323 64.738C58.3922 63.9587 58.4519 63.5649 58.5058 62.5412C58.7418 61.5426 58.7418 61.5426 59.0504 60.9798C59.9717 60.4746 60.923 60.5509 61.9371 60.6712Z" fill="#505050"/>
<path d="M76.7517 45.2753C77.7744 46.0709 78.1647 46.4868 78.3766 47.7819C78.3632 48.3475 78.3632 48.3475 78.3494 48.9246C78.3464 49.3024 78.3434 49.6802 78.3403 50.0695C78.2015 51.105 78.0842 51.5373 77.3327 52.247C76.3366 52.5005 75.621 52.6331 74.6275 52.3378C74.0117 51.8588 73.8423 51.5241 73.5564 50.7946C73.3527 48.9956 73.1901 47.3094 74.1736 45.7474C75.1699 45.1843 75.6283 45.0413 76.7517 45.2753Z" fill="#505050"/>
<path d="M52.6409 45.0938C53.5124 45.2754 53.5124 45.2754 54.3475 45.7474C55.331 47.3094 55.1685 48.9957 54.9648 50.7946C54.6788 51.5241 54.5095 51.8588 53.8936 52.3378C52.9002 52.6332 52.1845 52.5006 51.1885 52.2471C50.4369 51.5374 50.3197 51.1051 50.1808 50.0695C50.1778 49.6917 50.1749 49.3139 50.1718 48.9246C50.1628 48.5475 50.1538 48.1705 50.1445 47.782C50.3948 46.2523 51.1068 45.4134 52.6409 45.0938Z" fill="#505050"/>
</svg>
