<svg viewBox="0 0 29 29" x="0" y="0" fill="none" xmlns="http://www.w3.org/2000/svg"><g id="Group 363" xmlns="http://www.w3.org/2000/svg">
<path id="Vector_41" d="M1.8,3.02c0.11,0 0.11,0 0.22,0c0.08,0 0.16,0 0.24,0c0.08,0 0.16,0 0.24,0c0.21,0 0.42,0 0.63,0c0.22,0 0.44,0 0.66,0c0.42,0 0.84,0 1.27,0.01c0,0.04 0,0.08 0,0.12c0,0.39 0.01,0.78 0.01,1.16c0.01,0.2 0.01,0.4 0.01,0.6c0,0.23 0,0.46 0.01,0.69c0,0.07 0,0.15 0,0.22c0.01,0.69 0.16,1.21 0.61,1.74c0.56,0.48 1.17,0.62 1.9,0.58c0.56,-0.06 1.06,-0.27 1.44,-0.68c0.93,-1.22 0.46,-3.13 0.49,-4.43c3.35,0 6.71,0 10.17,0c0.02,1.16 0.04,2.33 0.06,3.53c0.27,0.69 0.27,0.69 0.77,1.16c0.05,0.03 0.09,0.07 0.14,0.1c0.41,0.23 0.81,0.29 1.28,0.29c0.08,-0.01 0.08,-0.01 0.17,-0.01c0.6,-0.01 1.15,-0.14 1.59,-0.58c0.3,-0.37 0.41,-0.75 0.42,-1.22c0,-0.08 0,-0.15 0,-0.22c0,-0.08 0,-0.16 0,-0.24c0,-0.08 0.01,-0.16 0.01,-0.24c0,-0.22 0,-0.43 0,-0.64c0.01,-0.22 0.01,-0.44 0.01,-0.66c0.01,-0.42 0.01,-0.85 0.02,-1.27c0.43,-0.01 0.86,-0.01 1.29,-0.02c0.2,0 0.41,0 0.61,0c0.23,0 0.46,-0.01 0.69,-0.01c0.07,0 0.14,0 0.22,0c0.63,0 1.08,0.14 1.54,0.57c0.34,0.38 0.46,0.75 0.46,1.25c0,0.04 0,0.08 0,0.12c0,0.13 0,0.26 0,0.39c0,0.1 0,0.19 0,0.29c0,0.26 0,0.52 0,0.78c0,0.29 0,0.57 0,0.85c0,0.69 0,1.37 0,2.05c0,0.32 0,0.65 0,0.97c0.01,1.07 0.01,2.13 0.01,3.2c0,0.28 0,0.56 0,0.84c0,0.06 0,0.13 0,0.2c0,1.12 0,2.24 0,3.36c0,1.14 0,2.29 0,3.44c0,0.64 0.01,1.28 0.01,1.93c0,0.55 0,1.1 0,1.64c0,0.28 0,0.56 0,0.84c0,0.26 0,0.52 0,0.77c0,0.09 0,0.19 0,0.28c0,0.47 0,0.89 -0.26,1.31c-0.02,0.03 -0.04,0.07 -0.06,0.11c-0.25,0.4 -0.66,0.62 -1.11,0.75c-0.4,0.08 -0.82,0.06 -1.22,0.06c-0.11,0 -0.22,0 -0.32,0c-0.3,0 -0.59,0 -0.88,0c-0.31,0 -0.63,0 -0.94,0c-0.62,0 -1.24,0 -1.85,0c-0.5,0 -1,0 -1.5,0c-0.08,0 -0.15,0 -0.22,0c-0.14,0 -0.29,0 -0.43,0c-1.32,0 -2.64,0 -3.96,0c-1.21,0 -2.41,0 -3.61,0c-1.36,0 -2.71,0 -4.06,0c-0.15,0 -0.29,0 -0.44,0c-0.07,0 -0.14,0 -0.21,0c-0.5,0 -1,0 -1.5,0c-0.61,0 -1.22,0 -1.83,0c-0.31,0 -0.62,0 -0.93,0c-0.29,0 -0.57,0 -0.86,0c-0.1,0 -0.2,0 -0.31,0c-0.75,0 -1.36,-0.03 -1.94,-0.55c-0.36,-0.4 -0.54,-0.73 -0.55,-1.28c0,-0.04 0,-0.08 0,-0.12c0,-0.13 0,-0.26 0,-0.39c0,-0.1 0,-0.19 0,-0.29c0,-0.26 0,-0.52 0,-0.79c0,-0.28 0,-0.56 0,-0.84c0,-0.56 0,-1.11 0,-1.66c0,-0.45 0,-0.9 0,-1.35c0,-1.28 0,-2.56 0,-3.83c0,-0.07 0,-0.14 0,-0.21c0,-0.07 0,-0.14 0,-0.21c0,-1.12 0,-2.23 0,-3.35c-0.01,-1.14 -0.01,-2.29 -0.01,-3.44c0,-0.64 0,-1.28 0,-1.93c0,-0.54 0,-1.09 0,-1.64c0,-0.28 0,-0.56 0,-0.84c0,-0.25 0,-0.51 0,-0.77c0,-0.09 0,-0.18 0,-0.27c0,-0.71 0.08,-1.24 0.58,-1.77c0.37,-0.32 0.73,-0.45 1.22,-0.45zM1.89,10.33c0,5.52 0,11.04 0,16.74c8.32,0 16.64,0 25.22,0c0,-5.53 0,-11.05 0,-16.74c-8.32,0 -16.64,0 -25.22,0z" fill="currentColor"/>
<path id="Vector_42" d="M22.53,0.14c0.24,0.23 0.37,0.49 0.44,0.9c0.02,0.2 0.03,0.4 0.03,0.6c0,0.05 0,0.09 0,0.14c0,0.15 0,0.29 0,0.44c0,0.1 0,0.21 0,0.31c0,0.22 0,0.43 0,0.65c0,0.28 0,0.55 0,0.83c0,0.21 0,0.42 0,0.64c0,0.1 0,0.2 0,0.3c0,1.11 0,1.11 -0.22,1.64c-0.26,0.35 -0.56,0.43 -0.91,0.41c-0.32,-0.05 -0.5,-0.17 -0.71,-0.54c-0.13,-0.3 -0.15,-0.56 -0.15,-0.91c0,-0.05 0,-0.09 0,-0.14c0,-0.16 0,-0.32 0,-0.48c0,-0.11 0,-0.23 0,-0.34c0,-0.23 0,-0.46 0,-0.7c0,-0.3 0,-0.59 0,-0.89c-0.01,-0.23 -0.01,-0.46 -0.01,-0.69c0,-0.11 0,-0.22 0,-0.33c-0.01,-1.16 -0.01,-1.16 0.23,-1.58c0.33,-0.4 0.9,-0.53 1.3,-0.26z" fill="currentColor"/>
<path id="Vector_43" d="M7.01,0.01c0.03,-0.01 0.07,-0.01 0.1,-0.01c0.26,0 0.43,0.08 0.63,0.33c0.21,0.33 0.25,0.64 0.25,1.09c0,0.05 0,0.1 0,0.15c0,0.16 0,0.33 0,0.49c0,0.12 0,0.23 0,0.34c0,0.24 0,0.48 0,0.72c0,0.31 0.01,0.61 0.01,0.92c0,0.24 0,0.47 0,0.71c0,0.11 0,0.22 0,0.34c0,0.15 0,0.31 0,0.47c0,0.05 0,0.09 0,0.14c0,0.36 -0.07,0.68 -0.24,0.95c-0.23,0.3 -0.44,0.34 -0.73,0.35c-0.04,0 -0.07,0 -0.1,0c-0.27,0 -0.46,-0.11 -0.67,-0.36c-0.02,-0.03 -0.04,-0.06 -0.06,-0.09c-0.02,-0.03 -0.04,-0.06 -0.05,-0.09c-0.19,-0.51 -0.15,-1.15 -0.14,-1.71c0,-0.1 0,-0.2 0,-0.3c0,-0.21 0,-0.42 0,-0.63c0,-0.26 0,-0.53 0,-0.8c0,-0.21 0,-0.41 0,-0.62c0,-0.1 0,-0.2 0,-0.3c-0.01,-1.33 -0.01,-1.33 0.25,-1.77c0.25,-0.29 0.44,-0.32 0.75,-0.32z" fill="currentColor"/>
<path id="Vector_44" d="M10.13,22.02c0.16,-0.02 0.16,-0.02 0.36,-0.02c0.11,0 0.11,0 0.22,0c0.08,0 0.17,0 0.25,0c0.08,0 0.16,0 0.25,0c0.17,0 0.35,0 0.52,0c0.23,0 0.45,0 0.67,0c0.18,0 0.35,0 0.52,0c0.08,0 0.17,0 0.25,0c0.11,0 0.23,0.01 0.35,0.01c0.09,0 0.09,0 0.19,0c0.16,0.01 0.16,0.01 0.28,0.11c0.01,0.12 0.01,0.12 0.01,0.27c0,0.05 0,0.11 0,0.17c0,0.06 0,0.12 0,0.18c0,0.07 0,0.13 0,0.19c0,0.17 0,0.34 -0.01,0.5c0,0.17 0,0.34 0,0.51c0,0.33 0,0.67 0,1c-0.16,0.07 -0.29,0.05 -0.47,0.05c-0.08,0.01 -0.15,0.01 -0.23,0.01c-0.08,0 -0.16,0 -0.25,0c-0.08,0 -0.16,0 -0.24,0c-0.18,0 -0.35,0 -0.53,0c-0.22,0 -0.45,0 -0.67,0c-0.17,0 -0.35,0 -0.52,0c-0.08,0 -0.16,0 -0.25,0c-0.11,0 -0.23,0 -0.34,0c-0.07,0 -0.13,0 -0.2,0c-0.16,-0.01 -0.16,-0.01 -0.27,-0.11c-0.02,-0.12 -0.02,-0.12 -0.02,-0.26c0,-0.05 0,-0.11 0,-0.16c0,-0.06 0,-0.12 0,-0.18c0,-0.06 0,-0.12 0,-0.18c0,-0.13 0,-0.26 0,-0.38c0,-0.2 0,-0.39 0,-0.59c0,-0.12 0,-0.24 0,-0.37c0,-0.05 0,-0.11 0,-0.17c0,-0.06 0,-0.11 0,-0.17c0,-0.04 0,-0.09 0,-0.14c0.02,-0.12 0.02,-0.12 0.13,-0.27z" fill="currentColor"/>
<path id="Vector_45" d="M4.13,22.02c0.16,-0.02 0.16,-0.02 0.36,-0.02c0.11,0 0.11,0 0.22,0c0.08,0 0.17,0 0.25,0c0.08,0 0.16,0 0.25,0c0.17,0 0.35,0 0.52,0c0.23,0 0.45,0 0.67,0c0.18,0 0.35,0 0.52,0c0.08,0 0.17,0 0.25,0c0.11,0 0.23,0.01 0.35,0.01c0.09,0 0.09,0 0.19,0c0.16,0.01 0.16,0.01 0.28,0.11c0.01,0.12 0.01,0.12 0.01,0.27c0,0.05 0,0.11 0,0.17c0,0.06 0,0.12 0,0.18c0,0.07 0,0.13 0,0.19c0,0.17 0,0.34 -0.01,0.5c0,0.17 0,0.34 0,0.51c0,0.33 0,0.67 0,1c-0.16,0.07 -0.29,0.05 -0.47,0.05c-0.08,0.01 -0.15,0.01 -0.23,0.01c-0.08,0 -0.16,0 -0.25,0c-0.08,0 -0.16,0 -0.24,0c-0.18,0 -0.35,0 -0.53,0c-0.22,0 -0.45,0 -0.67,0c-0.17,0 -0.35,0 -0.52,0c-0.08,0 -0.16,0 -0.25,0c-0.11,0 -0.23,0 -0.34,0c-0.07,0 -0.13,0 -0.2,0c-0.16,-0.01 -0.16,-0.01 -0.27,-0.11c-0.02,-0.12 -0.02,-0.12 -0.02,-0.26c0,-0.05 0,-0.11 0,-0.16c0,-0.06 0,-0.12 0,-0.18c0,-0.06 0,-0.12 0,-0.18c0,-0.13 0,-0.26 0,-0.38c0,-0.2 0,-0.39 0,-0.59c0,-0.12 0,-0.24 0,-0.37c0,-0.05 0,-0.11 0,-0.17c0,-0.06 0,-0.11 0,-0.17c0,-0.04 0,-0.09 0,-0.14c0.02,-0.12 0.02,-0.12 0.13,-0.27z" fill="currentColor"/>
<path id="Vector_46" d="M21.3,17c0.06,0 0.13,0 0.2,0c0.07,0 0.15,0 0.23,0c0.08,0 0.16,0 0.25,0c0.08,0 0.17,0 0.25,0c0.18,0 0.36,0 0.53,0c0.23,0 0.46,0 0.69,0c0.17,0 0.35,0 0.52,0.01c0.08,0 0.17,0 0.25,0c0.12,0 0.24,0 0.35,0c0.1,0 0.1,0 0.21,0c0.15,0.01 0.15,0.01 0.21,0.07c0,0.12 0,0.24 0,0.35c0,0.08 0,0.15 0,0.23c0,0.08 0.01,0.16 0.01,0.25c0,0.12 0,0.12 0,0.25c0,0.17 0,0.35 0,0.53c0,0.22 0,0.45 0,0.67c0,0.22 0,0.43 0,0.65c0,0.08 0,0.16 0,0.25c0,0.07 0,0.15 0,0.22c0,0.07 0,0.14 0,0.2c-0.01,0.16 -0.01,0.16 -0.13,0.29c-0.15,0.02 -0.15,0.02 -0.35,0.02c-0.07,0 -0.14,0 -0.22,0c-0.08,0 -0.16,0 -0.24,0c-0.08,0 -0.16,0.01 -0.24,0.01c-0.18,0 -0.35,0 -0.52,0c-0.22,0 -0.44,0 -0.66,0c-0.17,0 -0.34,0 -0.5,0c-0.09,0 -0.17,0 -0.25,0c-0.11,0 -0.22,0 -0.34,0c-0.06,0 -0.13,0 -0.19,0c-0.16,-0.03 -0.16,-0.03 -0.27,-0.1c-0.09,-0.17 -0.09,-0.28 -0.09,-0.48c0,-0.07 0,-0.14 0,-0.22c0,-0.07 0,-0.15 0,-0.23c0,-0.08 0,-0.16 0,-0.24c0,-0.17 0,-0.34 0,-0.51c0,-0.26 0,-0.52 0,-0.78c0,-0.16 0,-0.33 0.01,-0.49c0,-0.08 0,-0.16 0,-0.24c0,-0.07 0,-0.14 0,-0.22c0,-0.06 0,-0.12 0,-0.19c0.02,-0.23 0.08,-0.28 0.29,-0.3z" fill="currentColor"/>
<path id="Vector_47" d="M15.3,17c0.06,0 0.13,0 0.2,0c0.07,0 0.15,0 0.23,0c0.08,0 0.16,0 0.25,0c0.08,0 0.17,0 0.25,0c0.18,0 0.36,0 0.53,0c0.23,0 0.46,0 0.69,0c0.17,0 0.35,0 0.52,0.01c0.08,0 0.17,0 0.25,0c0.12,0 0.24,0 0.35,0c0.1,0 0.1,0 0.21,0c0.15,0.01 0.15,0.01 0.21,0.07c0,0.12 0,0.24 0,0.35c0,0.08 0,0.15 0,0.23c0,0.08 0.01,0.16 0.01,0.25c0,0.12 0,0.12 0,0.25c0,0.17 0,0.35 0,0.53c0,0.22 0,0.45 0,0.67c0,0.22 0,0.43 0,0.65c0,0.08 0,0.16 0,0.25c0,0.07 0,0.15 0,0.22c0,0.07 0,0.14 0,0.2c-0.01,0.16 -0.01,0.16 -0.13,0.29c-0.15,0.02 -0.15,0.02 -0.35,0.02c-0.07,0 -0.14,0 -0.22,0c-0.08,0 -0.16,0 -0.24,0c-0.08,0 -0.16,0.01 -0.24,0.01c-0.18,0 -0.35,0 -0.52,0c-0.22,0 -0.44,0 -0.66,0c-0.17,0 -0.34,0 -0.5,0c-0.09,0 -0.17,0 -0.25,0c-0.11,0 -0.22,0 -0.34,0c-0.06,0 -0.13,0 -0.19,0c-0.16,-0.03 -0.16,-0.03 -0.27,-0.1c-0.09,-0.17 -0.09,-0.28 -0.09,-0.48c0,-0.07 0,-0.14 0,-0.22c0,-0.07 0,-0.15 0,-0.23c0,-0.08 0,-0.16 0,-0.24c0,-0.17 0,-0.34 0,-0.51c0,-0.26 0,-0.52 0,-0.78c0,-0.16 0,-0.33 0.01,-0.49c0,-0.08 0,-0.16 0,-0.24c0,-0.07 0,-0.14 0,-0.22c0,-0.06 0,-0.12 0,-0.19c0.02,-0.23 0.08,-0.28 0.29,-0.3z" fill="currentColor"/>
<path id="Vector_48" d="M10.3,17c0.06,0 0.13,0 0.2,0c0.07,0 0.15,0 0.23,0c0.08,0 0.16,0 0.25,0c0.08,0 0.17,0 0.25,0c0.18,0 0.36,0 0.53,0c0.23,0 0.46,0 0.69,0c0.17,0 0.35,0 0.52,0.01c0.08,0 0.17,0 0.25,0c0.12,0 0.24,0 0.35,0c0.1,0 0.1,0 0.21,0c0.15,0.01 0.15,0.01 0.21,0.07c0,0.12 0,0.24 0,0.35c0,0.08 0,0.15 0,0.23c0,0.08 0.01,0.16 0.01,0.25c0,0.12 0,0.12 0,0.25c0,0.17 0,0.35 0,0.53c0,0.22 0,0.45 0,0.67c0,0.22 0,0.43 0,0.65c0,0.08 0,0.16 0,0.25c0,0.07 0,0.15 0,0.22c0,0.07 0,0.14 0,0.2c-0.01,0.16 -0.01,0.16 -0.13,0.29c-0.15,0.02 -0.15,0.02 -0.35,0.02c-0.07,0 -0.14,0 -0.22,0c-0.08,0 -0.16,0 -0.24,0c-0.08,0 -0.16,0.01 -0.24,0.01c-0.18,0 -0.35,0 -0.52,0c-0.22,0 -0.44,0 -0.66,0c-0.17,0 -0.34,0 -0.5,0c-0.09,0 -0.17,0 -0.25,0c-0.11,0 -0.22,0 -0.34,0c-0.06,0 -0.13,0 -0.19,0c-0.16,-0.03 -0.16,-0.03 -0.27,-0.1c-0.09,-0.17 -0.09,-0.28 -0.09,-0.48c0,-0.07 0,-0.14 0,-0.22c0,-0.07 0,-0.15 0,-0.23c0,-0.08 0,-0.16 0,-0.24c0,-0.17 0,-0.34 0,-0.51c0,-0.26 0,-0.52 0,-0.78c0,-0.16 0,-0.33 0.01,-0.49c0,-0.08 0,-0.16 0,-0.24c0,-0.07 0,-0.14 0,-0.22c0,-0.06 0,-0.12 0,-0.19c0.02,-0.23 0.08,-0.28 0.29,-0.3z" fill="currentColor"/>
<path id="Vector_49" d="M4.3,17c0.06,0 0.13,0 0.2,0c0.07,0 0.15,0 0.23,0c0.08,0 0.16,0 0.25,0c0.08,0 0.17,0 0.25,0c0.18,0 0.36,0 0.53,0c0.23,0 0.46,0 0.69,0c0.17,0 0.35,0 0.52,0.01c0.08,0 0.17,0 0.25,0c0.12,0 0.24,0 0.35,0c0.1,0 0.1,0 0.21,0c0.15,0.01 0.15,0.01 0.21,0.07c0,0.12 0,0.24 0,0.35c0,0.08 0,0.15 0,0.23c0,0.08 0.01,0.16 0.01,0.25c0,0.12 0,0.12 0,0.25c0,0.17 0,0.35 0,0.53c0,0.22 0,0.45 0,0.67c0,0.22 0,0.43 0,0.65c0,0.08 0,0.16 0,0.25c0,0.07 0,0.15 0,0.22c0,0.07 0,0.14 0,0.2c-0.01,0.16 -0.01,0.16 -0.13,0.29c-0.15,0.02 -0.15,0.02 -0.35,0.02c-0.07,0 -0.14,0 -0.22,0c-0.08,0 -0.16,0 -0.24,0c-0.08,0 -0.16,0.01 -0.24,0.01c-0.18,0 -0.35,0 -0.52,0c-0.22,0 -0.44,0 -0.66,0c-0.17,0 -0.34,0 -0.5,0c-0.09,0 -0.17,0 -0.25,0c-0.11,0 -0.22,0 -0.34,0c-0.06,0 -0.13,0 -0.19,0c-0.16,-0.03 -0.16,-0.03 -0.27,-0.1c-0.09,-0.17 -0.09,-0.28 -0.09,-0.48c0,-0.07 0,-0.14 0,-0.22c0,-0.07 0,-0.15 0,-0.23c0,-0.08 0,-0.16 0,-0.24c0,-0.17 0,-0.34 0,-0.51c0,-0.26 0,-0.52 0,-0.78c0,-0.16 0,-0.33 0.01,-0.49c0,-0.08 0,-0.16 0,-0.24c0,-0.07 0,-0.14 0,-0.22c0,-0.06 0,-0.12 0,-0.19c0.02,-0.23 0.08,-0.28 0.29,-0.3z" fill="currentColor"/>
<path id="Vector_50" d="M21.55,12c0.08,0 0.15,0 0.22,0c0.08,0 0.16,0 0.24,0c0.09,0 0.17,0 0.25,0c0.17,0 0.34,0 0.51,0c0.22,0 0.44,0 0.66,0c0.17,0 0.34,0 0.51,0c0.08,0 0.16,0 0.24,0c0.12,0 0.23,0.01 0.34,0.01c0.1,0 0.1,0 0.2,0c0.15,0.01 0.15,0.01 0.27,0.11c0.01,0.12 0.01,0.12 0.01,0.27c0,0.08 0,0.08 0,0.17c0,0.09 0,0.09 0,0.18c0,0.07 0,0.13 0,0.19c0,0.13 0,0.27 0,0.4c0,0.17 0,0.34 0,0.51c0,0.16 0,0.32 0,0.48c0,0.06 -0.01,0.12 -0.01,0.19c0,0.05 0,0.11 0,0.17c0,0.05 0,0.09 0,0.15c0,0.11 0,0.11 -0.06,0.16c-0.12,0 -0.24,0 -0.36,0c-0.07,0.01 -0.15,0.01 -0.22,0.01c-0.09,0 -0.17,0 -0.25,0c-0.09,0 -0.17,0 -0.26,0c-0.17,0 -0.35,0 -0.53,0c-0.23,0 -0.45,0 -0.68,0c-0.18,0 -0.35,0 -0.53,0c-0.08,0 -0.16,0 -0.25,0c-0.12,0 -0.23,0 -0.35,0c-0.1,0 -0.1,0 -0.2,0c-0.16,-0.01 -0.16,-0.01 -0.28,-0.11c-0.01,-0.12 -0.01,-0.12 -0.01,-0.26c0,-0.05 0,-0.11 0,-0.16c0,-0.06 0,-0.12 0,-0.18c0,-0.06 -0.01,-0.12 -0.01,-0.18c0,-0.13 0,-0.26 0,-0.38c0,-0.2 0,-0.39 0,-0.59c0,-0.12 0,-0.24 0,-0.37c0,-0.05 0,-0.11 0,-0.17c0,-0.06 0,-0.11 0,-0.17c0,-0.04 0,-0.09 0,-0.14c0.02,-0.12 0.02,-0.12 0.09,-0.21c0.16,-0.09 0.28,-0.08 0.46,-0.08z" fill="currentColor"/>
<path id="Vector_51" d="M15.55,12c0.08,0 0.15,0 0.22,0c0.08,0 0.16,0 0.24,0c0.09,0 0.17,0 0.25,0c0.17,0 0.34,0 0.51,0c0.22,0 0.44,0 0.66,0c0.17,0 0.34,0 0.51,0c0.08,0 0.16,0 0.24,0c0.12,0 0.23,0.01 0.34,0.01c0.1,0 0.1,0 0.2,0c0.15,0.01 0.15,0.01 0.27,0.11c0.01,0.12 0.01,0.12 0.01,0.27c0,0.08 0,0.08 0,0.17c0,0.09 0,0.09 0,0.18c0,0.07 0,0.13 0,0.19c0,0.13 0,0.27 0,0.4c0,0.17 0,0.34 0,0.51c0,0.16 0,0.32 0,0.48c0,0.06 -0.01,0.12 -0.01,0.19c0,0.05 0,0.11 0,0.17c0,0.05 0,0.09 0,0.15c0,0.11 0,0.11 -0.06,0.16c-0.12,0 -0.24,0 -0.36,0c-0.07,0.01 -0.15,0.01 -0.22,0.01c-0.09,0 -0.17,0 -0.25,0c-0.09,0 -0.17,0 -0.26,0c-0.17,0 -0.35,0 -0.53,0c-0.23,0 -0.45,0 -0.68,0c-0.18,0 -0.35,0 -0.53,0c-0.08,0 -0.16,0 -0.25,0c-0.12,0 -0.23,0 -0.35,0c-0.1,0 -0.1,0 -0.2,0c-0.16,-0.01 -0.16,-0.01 -0.28,-0.11c-0.01,-0.12 -0.01,-0.12 -0.01,-0.26c0,-0.05 0,-0.11 0,-0.16c0,-0.06 0,-0.12 0,-0.18c0,-0.06 -0.01,-0.12 -0.01,-0.18c0,-0.13 0,-0.26 0,-0.38c0,-0.2 0,-0.39 0,-0.59c0,-0.12 0,-0.24 0,-0.37c0,-0.05 0,-0.11 0,-0.17c0,-0.06 0,-0.11 0,-0.17c0,-0.04 0,-0.09 0,-0.14c0.02,-0.12 0.02,-0.12 0.09,-0.21c0.16,-0.09 0.28,-0.08 0.46,-0.08z" fill="currentColor"/>
<path id="Vector_52" d="M21.55,22c0.08,0 0.15,0 0.22,0c0.08,0 0.16,0 0.24,0c0.09,0 0.17,0 0.25,0c0.17,0 0.34,0 0.51,0c0.22,0 0.44,0 0.66,0c0.17,0 0.34,0 0.51,0c0.08,0 0.16,0 0.24,0c0.12,0 0.23,0.01 0.34,0.01c0.1,0 0.1,0 0.2,0c0.15,0.01 0.15,0.01 0.27,0.11c0.01,0.12 0.01,0.12 0.01,0.27c0,0.05 0,0.11 0,0.17c0,0.06 0,0.12 0,0.18c0,0.07 0,0.13 0,0.19c0,0.17 0,0.33 -0.01,0.5c0,0.17 0,0.34 0,0.51c0,0.33 0,0.66 0,0.99c-0.16,0.07 -0.29,0.06 -0.47,0.06c-0.08,0 -0.15,0 -0.23,0c-0.08,0 -0.16,0 -0.24,0c-0.09,0 -0.17,0 -0.25,0c-0.18,0 -0.35,0 -0.53,0c-0.22,0 -0.44,0.01 -0.67,0.01c-0.17,0 -0.34,0 -0.51,0c-0.09,0 -0.17,0 -0.25,0c-0.12,0 -0.23,0 -0.35,0c-0.06,0 -0.13,0 -0.2,0c-0.05,-0.01 -0.1,-0.01 -0.15,-0.02c-0.13,-0.16 -0.13,-0.21 -0.13,-0.41c0,-0.05 0,-0.1 0,-0.16c0,-0.05 0,-0.11 0,-0.17c0,-0.06 -0.01,-0.12 -0.01,-0.18c0,-0.12 0,-0.24 0,-0.37c0,-0.19 0,-0.38 0,-0.57c0,-0.12 0,-0.24 0,-0.36c0,-0.06 0,-0.11 0,-0.17c0,-0.06 0,-0.11 0,-0.16c0,-0.05 0,-0.1 0,-0.14c0.02,-0.12 0.02,-0.12 0.09,-0.21c0.16,-0.09 0.28,-0.08 0.46,-0.08z" fill="currentColor"/>
<path id="Vector_53" d="M15.55,22c0.08,0 0.15,0 0.22,0c0.08,0 0.16,0 0.24,0c0.09,0 0.17,0 0.25,0c0.17,0 0.34,0 0.51,0c0.22,0 0.44,0 0.66,0c0.17,0 0.34,0 0.51,0c0.08,0 0.16,0 0.24,0c0.12,0 0.23,0.01 0.34,0.01c0.1,0 0.1,0 0.2,0c0.15,0.01 0.15,0.01 0.27,0.11c0.01,0.12 0.01,0.12 0.01,0.27c0,0.05 0,0.11 0,0.17c0,0.06 0,0.12 0,0.18c0,0.07 0,0.13 0,0.19c0,0.17 0,0.33 -0.01,0.5c0,0.17 0,0.34 0,0.51c0,0.33 0,0.66 0,0.99c-0.16,0.07 -0.29,0.06 -0.47,0.06c-0.08,0 -0.15,0 -0.23,0c-0.08,0 -0.16,0 -0.24,0c-0.09,0 -0.17,0 -0.25,0c-0.18,0 -0.35,0 -0.53,0c-0.22,0 -0.44,0.01 -0.67,0.01c-0.17,0 -0.34,0 -0.51,0c-0.09,0 -0.17,0 -0.25,0c-0.12,0 -0.23,0 -0.35,0c-0.06,0 -0.13,0 -0.2,0c-0.05,-0.01 -0.1,-0.01 -0.15,-0.02c-0.13,-0.16 -0.13,-0.21 -0.13,-0.41c0,-0.05 0,-0.1 0,-0.16c0,-0.05 0,-0.11 0,-0.17c0,-0.06 -0.01,-0.12 -0.01,-0.18c0,-0.12 0,-0.24 0,-0.37c0,-0.19 0,-0.38 0,-0.57c0,-0.12 0,-0.24 0,-0.36c0,-0.06 0,-0.11 0,-0.17c0,-0.06 0,-0.11 0,-0.16c0,-0.05 0,-0.1 0,-0.14c0.02,-0.12 0.02,-0.12 0.09,-0.21c0.16,-0.09 0.28,-0.08 0.46,-0.08z" fill="currentColor"/>
</g></svg>