<svg viewBox="0 0 123 108" x="0" y="0" fill="none" xmlns="http://www.w3.org/2000/svg"><g id="Vector" xmlns="http://www.w3.org/2000/svg">
<path d="M23.3879,30.1367c2.7083,0 5.4165,0 8.2068,0c0.0933,14.9073 0.1867,29.8153 0.2829,45.1743c0.5604,-0.656 1.1207,-1.312 1.698,-1.989c1.2071,-0.753 2.5798,-0.72 3.9619,-0.568c1.8545,0.621 2.9195,1.918 3.7975,3.619c2.262,5.136 1.904,10.894 1.88,16.394c-0.001,0.569 -0.003,1.138 -0.004,1.707c-0.003,1.378 -0.008,2.756 -0.014,4.135c-2.801,0 -5.6029,0 -8.4894,0c-0.0106,-1.003 -0.0212,-2.005 -0.0321,-3.038c-0.0131,-0.974 -0.0276,-1.948 -0.0422,-2.922c-0.0094,-0.676 -0.0174,-1.351 -0.0238,-2.027c-0.0095,-0.972 -0.0243,-1.945 -0.0401,-2.917c-0.0018,-0.301 -0.0036,-0.601 -0.0055,-0.911c-0.033,-1.676 -0.2041,-2.892 -0.9883,-4.38c-0.2802,0.094 -0.5603,0.188 -0.849,0.284c-0.9717,2.168 -0.8927,4.723 -0.9385,7.06c-0.0059,0.255 -0.0118,0.51 -0.0178,0.772c-0.0183,0.805 -0.0351,1.61 -0.0518,2.414c-0.0123,0.55 -0.0246,1.099 -0.0371,1.649c-0.0303,1.338 -0.0585,2.677 -0.0867,4.016c-2.7083,0 -5.4165,0 -8.2068,0c0,-22.596 0,-45.192 0,-68.4723z" fill="#F44335"/>
<path d="M85.929,74.174c0.239,0.135 0.479,0.269 0.725,0.408c0.994,0.231 1.54,-0.18 2.398,-0.68c1.932,-1.03 4.708,-0.858 6.791,-0.386c1.567,0.571 2.469,1.25 3.387,2.647c0.33,0.996 0.317,1.775 0.315,2.827c0,0.199 0,0.399 0,0.605c0,0.659 -0.003,1.319 -0.005,1.978c0,0.458 -0.001,0.915 -0.001,1.372c-0.001,1.204 -0.004,2.408 -0.007,3.611c-0.003,1.229 -0.004,2.457 -0.006,3.685c-0.003,2.41 -0.008,4.82 -0.013,7.23c-2.709,0 -5.417,0 -8.207,0c-0.094,-6.563 -0.187,-13.126 -0.283,-19.888c-1.269,-0.202 -1.269,-0.202 -2.547,-0.284c-0.093,6.657 -0.187,13.314 -0.283,20.172c-2.708,0 -5.416,0 -8.207,0c-0.093,-6.656 -0.187,-13.313 -0.283,-20.172c-0.84,0 -1.681,0 -2.547,0c-0.093,6.657 -0.186,13.314 -0.283,20.172c-2.708,0 -5.416,0 -8.206,0c0,-7.875 0,-15.751 0,-23.865c2.708,0 5.416,0 8.206,0c0,0.281 0,0.562 0,0.852c0.162,-0.082 0.324,-0.164 0.49,-0.249c2.842,-1.306 5.706,-1.304 8.566,-0.035z" fill="#F44335"/>
<path d="M12.6342,30.7047c2.4281,0 4.8561,0 7.3577,0c0,12.0949 0,24.1893 0,36.6513c-2.428,0 -4.8561,0 -7.3577,0c0,-0.188 0,-0.375 0,-0.568c-0.2977,0.134 -0.5953,0.269 -0.902,0.408c-2.3701,1.005 -4.8962,1.067 -7.3136,0.153c-0.8513,-0.424 -1.3755,-0.962 -1.9721,-1.698c-0.1984,-0.24 -0.3969,-0.48 -0.6013,-0.728c-2.5202,-4.639 -2.0911,-11.616 -0.8855,-16.629c0.6716,-1.992 1.9702,-3.326 3.827,-4.282c0.9928,-0.306 1.9373,-0.342 2.9659,-0.344c0.1882,-0.007 0.3765,-0.014 0.5704,-0.022c1.8089,-0.01 2.4698,0.443 4.3112,1.265c0,-4.6884 0,-9.3763 0,-14.2063zM8.3893,47.183c-0.172,0.778 -0.172,0.778 -0.1464,1.675c-0.0036,0.344 -0.0072,0.688 -0.0108,1.043c0.0023,0.372 0.0045,0.744 0.0069,1.127c-0.0008,0.385 -0.0019,0.771 -0.0033,1.156c-0.0016,0.807 0.0008,1.614 0.0061,2.422c0.0064,1.034 0.0027,2.069 -0.0041,3.104c-0.0041,0.795 -0.0028,1.591 0.0002,2.386c0.0011,0.567 -0.0023,1.134 -0.0058,1.701c0.0035,0.345 0.0071,0.689 0.0108,1.043c0.0009,0.304 0.0018,0.607 0.0027,0.92c0.0772,0.784 0.0772,0.784 0.657,1.279c0.9067,0.481 1.5909,0.436 2.5996,0.328c0.6449,-0.302 0.6449,-0.302 1.132,-0.852c0.172,-0.778 0.172,-0.778 0.1465,-1.675c0.0035,-0.344 0.0071,-0.688 0.0108,-1.043c-0.0023,-0.372 -0.0046,-0.744 -0.007,-1.127c0.0008,-0.385 0.0019,-0.77 0.0033,-1.156c0.0017,-0.807 -0.0007,-1.614 -0.006,-2.422c-0.0065,-1.034 -0.0028,-2.069 0.004,-3.104c0.0041,-0.795 0.0028,-1.591 -0.0001,-2.386c-0.0012,-0.567 0.0023,-1.134 0.0058,-1.701c-0.0036,-0.345 -0.0072,-0.689 -0.0108,-1.043c-0.0009,-0.304 -0.0018,-0.607 -0.0028,-0.92c-0.0772,-0.784 -0.0772,-0.784 -0.6569,-1.279c-1.3522,-0.717 -2.6704,-0.559 -3.7317,0.524z" fill="black"/>
<path d="M56.782,30.7047c2.521,0 5.043,0 7.641,0c0.093,7.3132 0.186,14.6263 0.283,22.1613c1.769,-1.971 1.769,-1.971 3.519,-3.96c0.16,-0.178 0.319,-0.357 0.483,-0.541c0.401,-0.468 0.78,-0.955 1.148,-1.449c1.734,-2.195 1.734,-2.195 3.207,-2.488c0.914,0.003 1.777,0.058 2.679,0.198c-1.182,1.401 -2.396,2.764 -3.637,4.112c-0.678,0.801 -1.252,1.488 -1.74,2.423c0.184,0.96 0.184,0.96 0.709,1.916c0.087,0.181 0.175,0.362 0.265,0.549c0.288,0.591 0.585,1.176 0.884,1.761c0.199,0.406 0.397,0.812 0.595,1.219c0.4,0.822 0.804,1.642 1.21,2.462c0.836,1.693 1.622,3.408 2.404,5.127c0.132,0.285 0.263,0.57 0.399,0.863c0.178,0.389 0.178,0.389 0.36,0.786c0.156,0.337 0.156,0.337 0.314,0.681c0.218,0.547 0.218,0.547 0.218,1.115c-2.335,0 -4.669,0 -7.075,0c-2.521,-5.766 -2.521,-5.766 -5.093,-11.649c-0.421,0.281 -0.421,0.281 -0.849,0.568c-0.096,0.845 -0.139,1.633 -0.145,2.48c-0.005,0.245 -0.01,0.49 -0.016,0.743c-0.015,0.784 -0.025,1.568 -0.034,2.353c-0.009,0.531 -0.019,1.063 -0.029,1.594c-0.025,1.304 -0.042,2.607 -0.059,3.911c-2.522,0 -5.043,0 -7.641,0c0,-12.189 0,-24.377 0,-36.9353z" fill="black"/>
<path d="M63.29,75.311c2.76,2.708 3.112,6.687 3.183,10.388c-0.072,3.705 -0.594,7.05 -3.164,9.843c-2.787,2.428 -6.047,2.395 -9.532,2.263c-2.199,-0.161 -3.988,-1.072 -5.565,-2.594c-2.265,-2.702 -2.576,-6.058 -2.556,-9.459c0.001,-0.286 0.003,-0.571 0.004,-0.865c0.054,-3.471 0.426,-6.638 2.853,-9.272c1.305,-1.256 2.556,-1.88 4.306,-2.293c0.403,-0.097 0.403,-0.097 0.814,-0.196c3.417,-0.343 6.9,-0.074 9.657,2.185zM54.906,76.287c-2.153,4.028 -1.882,11.696 -0.955,16.071c0.275,0.843 0.572,1.581 1.132,2.273c0.74,0.32 0.74,0.32 1.415,0.284c1.781,-1.967 1.807,-4.084 1.892,-6.624c0.011,-0.3 0.022,-0.6 0.033,-0.909c0.398,-5.84 0.398,-5.84 -1.459,-11.149c-0.738,-0.56 -1.364,-0.562 -2.058,0.054z" fill="#F44335"/>
<path d="M112.989,73.234c0.268,-0.009 0.536,-0.017 0.813,-0.025c2.364,-0.022 4.188,0.574 6.174,1.854c3.014,3.237 2.741,7.07 2.741,11.329c-3.922,0 -7.844,0 -11.886,0c0.082,1.043 0.164,2.086 0.248,3.16c0.024,0.326 0.049,0.652 0.074,0.987c0.119,1.441 0.256,2.74 0.81,4.092c0.814,0.095 0.814,0.095 1.698,0c1.507,-1.512 1.237,-3.248 1.415,-5.398c2.615,0 5.23,0 7.924,0c0,2.71 -0.224,4.216 -2.034,6.197c-2.28,2.126 -4.939,2.387 -7.906,2.415c-0.422,0.012 -0.422,0.012 -0.853,0.025c-2.759,0.024 -5.08,-0.706 -7.105,-2.644c-2.7,-3.237 -2.709,-7.924 -2.389,-11.927c0.3,-3.076 0.817,-6.19 3.308,-8.272c2.353,-1.439 4.258,-1.766 6.968,-1.793zM112.246,76.306c-1.587,1.992 -1.57,4.219 -1.698,6.676c1.681,0 3.362,0 5.094,0c0.112,-2.385 0.011,-4.393 -1.132,-6.534c-0.947,-0.635 -1.324,-0.85 -2.264,-0.142z" fill="#F44335"/>
<path d="M49.653,45.674c1.945,1.416 3.062,2.785 3.449,5.203c0.075,1.276 0.066,2.548 0.055,3.826c0,0.363 -0.001,0.726 -0.002,1.099c-0.003,0.957 -0.008,1.913 -0.014,2.87c-0.006,0.979 -0.008,1.958 -0.011,2.937c-0.006,1.915 -0.017,3.831 -0.028,5.746c-2.521,0 -5.043,0 -7.641,0c-0.093,-0.187 -0.186,-0.375 -0.283,-0.568c-0.25,0.135 -0.501,0.27 -0.76,0.409c-2.108,0.998 -4.802,1.131 -7.0217,0.39c-1.0648,-0.553 -1.5258,-0.898 -2.1225,-1.935c-0.5052,-1.681 -0.6614,-3.204 -0.6544,-4.954c-0.0045,-0.226 -0.0091,-0.452 -0.0138,-0.685c-0.0016,-1.983 0.4048,-3.719 1.4641,-5.406c1.174,-1.145 2.3288,-1.563 3.9653,-1.573c0.191,0.003 0.383,0.007 0.58,0.01c0.19,-0.003 0.379,-0.006 0.574,-0.01c1.488,0.009 2.621,0.388 3.989,0.969c0.017,-0.917 0.027,-1.835 0.036,-2.752c0.005,-0.259 0.009,-0.519 0.014,-0.786c0.036,-1.856 0.036,-1.856 -0.615,-3.565c-0.8,-0.659 -0.8,-0.659 -1.716,-0.515c-0.916,0.156 -0.916,0.156 -1.397,1.083c-0.127,0.63 -0.231,1.264 -0.319,1.9c-0.081,0.592 -0.163,1.184 -0.247,1.794c-1.868,0 -3.7358,0 -5.6602,0c0,-3.255 0,-3.255 1.132,-4.546c3.4742,-3.086 9.2872,-2.943 13.2472,-0.941zM41.217,56.275c-0.458,1.377 -0.371,2.784 -0.389,4.226c-0.011,0.31 -0.022,0.619 -0.033,0.938c-0.035,1.833 -0.035,1.833 0.79,3.424c0.996,0.657 1.573,0.675 2.745,0.504c0.645,-0.297 0.645,-0.297 1.131,-0.853c0.171,-0.836 0.171,-0.836 0.141,-1.793c0,-0.352 0,-0.705 0,-1.068c-0.008,-0.552 -0.008,-0.552 -0.017,-1.116c0.002,-0.369 0.004,-0.737 0.006,-1.117c0.101,-1.789 0.101,-1.789 -0.512,-3.384c-1.367,-0.965 -2.547,-0.621 -3.862,0.239z" fill="black"/>
<path d="M95.551,46.012c1.526,1.125 2.312,2.176 2.83,4.013c0.068,0.863 0.068,0.863 0.064,1.784c0,0.347 0,0.694 0,1.051c-0.003,0.371 -0.006,0.741 -0.009,1.122c-0.001,0.386 -0.002,0.773 -0.002,1.159c-0.002,1.011 -0.008,2.023 -0.014,3.035c-0.006,1.034 -0.008,2.068 -0.011,3.102c-0.006,2.026 -0.016,4.052 -0.028,6.078c-2.428,0 -4.856,0 -7.358,0c-0.093,-0.188 -0.186,-0.375 -0.283,-0.568c-0.251,0.134 -0.502,0.269 -0.76,0.408c-2.184,1.034 -4.851,1.062 -7.163,0.408c-1.21,-0.476 -1.717,-1.028 -2.264,-2.237c-0.954,-3.005 -1.09,-6.775 0.283,-9.66c0.84,-1.302 1.611,-2.099 3.113,-2.557c0.967,-0.095 0.967,-0.095 2.034,-0.107c0.348,-0.008 0.696,-0.016 1.055,-0.024c1.434,0.074 2.692,0.682 3.985,1.267c-0.078,-1.065 -0.162,-2.131 -0.247,-3.196c-0.023,-0.302 -0.045,-0.604 -0.068,-0.915c-0.023,-0.292 -0.047,-0.583 -0.072,-0.883c-0.02,-0.268 -0.041,-0.535 -0.062,-0.811c-0.119,-0.743 -0.269,-1.24 -0.683,-1.866c-0.893,-0.273 -1.458,-0.362 -2.352,-0.071c-0.566,0.35 -0.566,0.35 -0.761,1.208c-0.063,0.585 -0.115,1.171 -0.159,1.758c-0.041,0.545 -0.081,1.09 -0.124,1.651c-1.961,0 -3.922,0 -5.942,0c0,-2.107 0.123,-3.214 1.574,-4.741c3.734,-2.84 9.529,-2.892 13.424,-0.408zM87.061,55.991c-1.089,1.094 -0.67,3.054 -0.672,4.528c-0.007,0.37 -0.014,0.74 -0.021,1.121c-0.001,0.353 -0.002,0.707 -0.003,1.071c-0.002,0.325 -0.005,0.651 -0.007,0.986c0.062,0.84 0.062,0.84 0.651,1.348c0.93,0.484 1.568,0.467 2.599,0.322c0.83,-0.484 0.831,-0.484 1.415,-1.421c0.19,-1.146 0.159,-2.268 0.124,-3.427c-0.002,-0.309 -0.003,-0.618 -0.005,-0.937c0.026,-1.89 0.026,-1.89 -0.685,-3.591c-1.322,-0.551 -2.132,-0.725 -3.396,0z" fill="black"/>
<path d="M52.82,7.1227c0.826,0.3736 1.401,0.7718 2.03,1.4239c0.164,0.1687 0.329,0.3374 0.499,0.5111c0.254,0.264 0.254,0.264 0.513,0.5333c1.026,1.0605 2.054,2.0948 3.17,3.0598c1.401,1.212 2.682,2.5343 3.976,3.8589c0.916,0.9313 1.841,1.8332 2.83,2.688c1.396,1.2076 2.672,2.5265 3.961,3.8466c0.917,0.9314 1.842,1.8332 2.83,2.688c1.397,1.2076 2.672,2.5266 3.962,3.8467c1.105,1.1226 2.239,2.1852 3.43,3.2156c0.773,0.6787 1.501,1.3917 2.23,2.1183c0.138,0.1353 0.276,0.2706 0.419,0.41c0.343,0.3434 0.671,0.7025 0.996,1.0638c0,0.1875 0,0.375 0,0.5682c-0.406,0.4007 -0.406,0.4007 -0.973,0.8701c-1.354,1.153 -2.596,2.403 -3.838,3.6758c-0.661,-0.5671 -1.321,-1.1355 -1.981,-1.7047c-0.173,-0.1487 -0.347,-0.2973 -0.526,-0.4505c-1.604,-1.3875 -3.086,-2.874 -4.568,-4.3906c-0.917,-0.9313 -1.841,-1.8332 -2.83,-2.688c-1.396,-1.2076 -2.672,-2.5265 -3.961,-3.8466c-0.917,-0.9314 -1.842,-1.8332 -2.83,-2.6881c-1.397,-1.2075 -2.673,-2.5265 -3.962,-3.8466c-0.916,-0.9306 -1.84,-1.8318 -2.828,-2.6858c-1.206,-1.0428 -2.319,-2.1649 -3.433,-3.3051c-1.262,-1.2905 -2.52,-2.5272 -3.927,-3.658c0.431,-1.0668 1.068,-1.6501 1.928,-2.3972c0.997,-0.8777 1.961,-1.7606 2.883,-2.7169z" fill="#F44335"/>
<path d="M60.708,0c0.907,0.4586 1.54,1.1703 2.228,1.9022c0.924,0.9695 1.856,1.901 2.87,2.7768c1.406,1.2183 2.693,2.5452 3.993,3.8756c0.917,0.9313 1.841,1.8332 2.83,2.688c1.396,1.2076 2.672,2.5265 3.962,3.8466c0.916,0.9313 1.841,1.8332 2.829,2.688c1.397,1.2076 2.673,2.5266 3.962,3.8467c1.1,1.1168 2.227,2.1749 3.412,3.2003c0.876,0.7672 1.716,1.5676 2.549,2.3821c0.251,0.2365 0.251,0.2365 0.508,0.4778c0.474,0.4667 0.474,0.4667 1.172,1.3157c-0.123,1.1861 -0.745,1.6415 -1.627,2.3973c-1.006,0.8765 -1.975,1.7564 -2.901,2.7168c-0.83,-0.3786 -1.442,-0.7987 -2.103,-1.4261c-0.182,-0.1716 -0.364,-0.3432 -0.552,-0.52c-0.192,-0.184 -0.384,-0.368 -0.582,-0.5577c-0.199,-0.1895 -0.399,-0.379 -0.605,-0.5743c-1.432,-1.3654 -2.84,-2.7542 -4.219,-4.1733c-0.764,-0.7805 -1.548,-1.5166 -2.374,-2.231c-1.407,-1.2215 -2.696,-2.55 -3.997,-3.8821c-0.917,-0.9314 -1.842,-1.8332 -2.83,-2.688c-1.397,-1.2076 -2.672,-2.5266 -3.962,-3.8467c-0.916,-0.9299 -1.838,-1.8304 -2.826,-2.6836c-1.219,-1.0543 -2.344,-2.1902 -3.471,-3.3428c-0.39,-0.3987 -0.78,-0.7968 -1.171,-1.1942c-0.17,-0.1733 -0.339,-0.3466 -0.514,-0.5252c-0.504,-0.504 -0.504,-0.504 -1.138,-0.9184c-0.165,-0.1374 -0.331,-0.2748 -0.502,-0.4164c0,-0.8524 0,-0.8524 0.416,-1.2908c0.19,-0.1542 0.379,-0.3083 0.575,-0.4672c1.097,-0.9119 2.057,-1.896 3.011,-2.9566c0.526,-0.3995 0.526,-0.3995 1.057,-0.4195z" fill="#F44335"/>
<path d="M52.253,22.4648c1.738,1.4727 3.417,3.0051 5.094,4.5459c-0.437,1.0483 -1.072,1.7115 -1.875,2.5037c-0.231,0.2304 -0.462,0.4608 -0.7,0.6981c-0.625,0.5911 -1.256,1.158 -1.906,1.7202c-1.205,1.051 -2.325,2.1736 -3.442,3.3173c-1.456,1.49 -2.945,2.9087 -4.528,4.2618c-0.998,-0.4694 -1.623,-1.0095 -2.388,-1.8113c-0.861,-0.8858 -1.713,-1.711 -2.706,-2.4505c0.163,-1.0328 0.549,-1.5073 1.283,-2.2341c0.206,-0.2052 0.412,-0.4105 0.624,-0.622c0.217,-0.2119 0.434,-0.4238 0.657,-0.6421c0.21,-0.2085 0.419,-0.4171 0.634,-0.632c0.988,-0.9772 1.987,-1.9278 3.038,-2.8362c1.226,-1.0623 2.358,-2.2083 3.492,-3.3683c0.396,-0.4054 0.793,-0.8101 1.191,-1.2142c0.173,-0.1763 0.345,-0.3526 0.522,-0.5342c0.444,-0.418 0.444,-0.418 1.01,-0.7021z" fill="black"/>
<path d="M44.917,15.4192c0.773,0.3238 1.209,0.8259 1.782,1.4353c0.96,0.9984 1.926,1.9074 3.007,2.7701c-0.157,1.1051 -0.646,1.5986 -1.433,2.3617c-0.207,0.204 -0.415,0.408 -0.629,0.6182c-0.606,0.5633 -1.22,1.1078 -1.846,1.6492c-1.207,1.0546 -2.33,2.1797 -3.45,3.3262c-3.4753,3.5572 -3.4753,3.5572 -5.3768,4.8299c-0.1576,-0.1615 -0.3152,-0.323 -0.4776,-0.4894c-1.3945,-1.4166 -2.8198,-2.7688 -4.3333,-4.0564c0.4108,-0.9478 0.928,-1.5698 1.656,-2.2963c0.2177,-0.2181 0.4355,-0.4362 0.6599,-0.6609c0.342,-0.3381 0.342,-0.3381 0.6909,-0.6831c0.2214,-0.2221 0.4429,-0.4442 0.671,-0.6731c1.0214,-1.0178 2.0509,-2.0112 3.1427,-2.9527c1.3762,-1.1887 2.6122,-2.5104 3.8502,-3.8422c0.178,-0.1842 0.355,-0.3684 0.538,-0.5583c0.158,-0.1673 0.315,-0.3347 0.478,-0.5071c0.482,-0.3274 0.482,-0.3274 1.07,-0.2711z" fill="black"/>
<path d="M87.557,101.397c0.278,0.007 0.557,0.015 0.844,0.023c0.212,0.01 0.423,0.02 0.641,0.03c0.023,0.775 0.04,1.55 0.053,2.326c0.008,0.218 0.015,0.437 0.022,0.662c0.017,1.306 -0.02,2.237 -0.924,3.262c-0.62,0.211 -0.62,0.211 -1.291,0.249c-0.222,0.017 -0.444,0.034 -0.673,0.051c-0.583,-0.016 -0.583,-0.016 -1.149,-0.3c0.094,-0.375 0.187,-0.75 0.283,-1.136c0.216,0.064 0.432,0.129 0.655,0.195c0.251,0.03 0.502,0.059 0.76,0.089c0.52,-0.379 0.52,-0.379 0.849,-0.852c-0.303,0.029 -0.607,0.058 -0.919,0.088c-1.062,-0.088 -1.062,-0.088 -1.769,-0.657c-0.493,-0.99 -0.487,-1.523 -0.354,-2.594c0.554,-1.384 1.624,-1.485 2.972,-1.436zM86,102.622c-0.448,0.552 -0.448,0.552 -0.265,1.438c0.064,0.264 0.128,0.527 0.194,0.799c0.679,0.193 0.679,0.193 1.415,0.284c0.656,-0.535 0.656,-0.535 0.637,-1.42c0.019,-0.885 0.019,-0.885 -0.637,-1.421c-0.828,-0.077 -0.828,-0.077 -1.344,0.32z" fill="black"/>
<path d="M51.97,101.449c3.113,0 3.113,0 4.245,0.853c0.232,0.964 0.182,1.869 0,2.841c-0.601,0.763 -0.601,0.763 -1.415,1.136c-0.937,-0.071 -0.937,-0.071 -1.698,-0.284c-0.093,0.563 -0.187,1.125 -0.283,1.705c-0.28,0 -0.56,0 -0.849,0c0,-2.063 0,-4.125 0,-6.251zM53.155,102.763c-0.437,0.695 -0.437,0.695 -0.106,1.599c0.111,0.257 0.222,0.515 0.336,0.781c0.467,0 0.934,0 1.415,0c0.369,-0.63 0.369,-0.63 0.566,-1.421c-0.296,-0.811 -0.296,-0.811 -0.849,-1.42c-0.859,-0.095 -0.858,-0.095 -1.362,0.461z" fill="black"/>
<path d="M59.044,99.461c0.374,0 0.747,0 1.132,0c0.093,0.656 0.187,1.313 0.283,1.989c0.263,-0.018 0.525,-0.035 0.796,-0.053c0.902,0.053 0.902,0.053 1.379,0.364c0.554,0.807 0.454,1.474 0.425,2.441c-0.008,0.335 -0.015,0.67 -0.023,1.016c-0.01,0.256 -0.02,0.513 -0.03,0.778c-0.374,0 -0.747,0 -1.132,0c-0.093,-1.032 -0.187,-2.063 -0.283,-3.126c-0.374,0 -0.747,0 -1.132,0c-0.093,1.032 -0.187,2.063 -0.283,3.126c-0.374,0 -0.747,0 -1.132,0c0,-2.157 0,-4.313 0,-6.535z" fill="black"/>
<path d="M115.926,101.45c0.69,0.408 0.69,0.408 1.132,1.136c0.138,0.872 0.177,1.69 0,2.557c-0.579,0.762 -0.843,0.851 -1.804,1.101c-1.139,0.04 -1.56,-0.115 -2.441,-0.817c-0.444,-0.891 -0.382,-1.573 -0.283,-2.557c0.965,-1.38 1.742,-1.692 3.396,-1.42zM114.034,102.639c-0.495,0.687 -0.478,1.106 -0.372,1.936c0.521,0.65 0.521,0.65 1.309,0.604c0.222,-0.012 0.444,-0.024 0.672,-0.036c0.391,-0.785 0.337,-1.405 0.283,-2.273c-0.187,-0.187 -0.373,-0.375 -0.566,-0.568c-0.83,-0.082 -0.83,-0.082 -1.326,0.337z" fill="black"/>
<path d="M26.7841,101.449c0.6898,0.426 0.6898,0.426 1.132,1.136c0.1933,1.077 0.1349,1.963 -0.3007,2.966c-0.8264,0.669 -1.4806,0.71 -2.5292,0.728c-0.8341,-0.382 -1.2856,-0.593 -1.6979,-1.421c-0.1389,-1.231 -0.1352,-1.795 0.5836,-2.823c1.0409,-0.734 1.5649,-0.791 2.8122,-0.586zM24.8916,102.639c-0.4952,0.686 -0.4774,1.105 -0.3714,1.935c0.1868,0.188 0.3736,0.375 0.566,0.568c0.9358,-0.082 0.9358,-0.082 1.6979,-0.568c0.0708,-0.84 0.0708,-0.84 0,-1.704c-0.1867,-0.188 -0.3735,-0.376 -0.5659,-0.569c-0.8306,-0.081 -0.8306,-0.081 -1.3266,0.338z" fill="black"/>
<path d="M98.663,101.449c0.69,0.426 0.69,0.426 1.132,1.136c0.194,1.077 0.135,1.963 -0.3,2.966c-0.827,0.669 -1.481,0.71 -2.53,0.728c-0.834,-0.382 -1.285,-0.593 -1.697,-1.421c-0.139,-1.231 -0.136,-1.795 0.583,-2.823c1.041,-0.734 1.565,-0.791 2.812,-0.586zM96.965,102.301c-0.608,0.916 -0.674,1.213 -0.565,2.273c0.186,0.188 0.373,0.375 0.565,0.568c0.936,-0.082 0.936,-0.082 1.698,-0.568c-0.081,-0.664 -0.175,-1.328 -0.283,-1.989c-0.466,-0.093 -0.933,-0.187 -1.415,-0.284z" fill="black"/>
<path d="M49.707,101.449c0.813,0.426 0.813,0.426 1.415,1.136c0.187,0.796 0.174,1.476 0,2.273c-0.578,0.871 -0.974,1.086 -1.963,1.403c-1.037,0.021 -1.47,-0.205 -2.282,-0.834c-0.455,-0.914 -0.454,-1.853 -0.283,-2.842c0.926,-1.093 1.707,-1.371 3.113,-1.136zM48.292,102.301c-0.655,0.536 -0.655,0.536 -0.637,1.421c-0.018,0.885 -0.018,0.885 0.637,1.42c0.936,-0.082 0.936,-0.082 1.698,-0.568c-0.081,-0.664 -0.175,-1.328 -0.283,-1.989c-0.679,-0.193 -0.679,-0.193 -1.415,-0.284z" fill="black"/>
<path d="M66.968,101.449c0.831,0.604 0.831,0.604 1.415,1.421c0.155,1.091 0.103,1.946 -0.566,2.841c-0.837,0.49 -1.329,0.573 -2.299,0.515c-0.863,-0.245 -1.124,-0.389 -1.663,-1.083c-0.244,-1.197 -0.193,-2.239 0.442,-3.285c0.973,-0.576 1.56,-0.585 2.671,-0.409zM65.553,102.302c-0.553,0.609 -0.553,0.609 -0.849,1.42c0.135,0.789 0.135,0.789 0.566,1.421c0.28,0.094 0.56,0.187 0.849,0.284c0.613,-0.473 0.613,-0.473 1.132,-1.137c-0.046,-0.963 -0.165,-1.302 -0.849,-1.988c-0.28,0 -0.56,0 -0.849,0z" fill="black"/>
<path d="M36.689,101.45c0.5483,0.319 0.5483,0.319 0.849,0.852c0.053,0.906 0.053,0.906 0,1.705c-0.9339,0.094 -1.8678,0.187 -2.8299,0.284c0.0934,0.188 0.1868,0.375 0.283,0.568c0.5363,0.132 0.5363,0.132 1.1496,0.178c0.3677,0.035 0.7354,0.07 1.1143,0.106c0,0.282 0,0.563 0,0.853c-1.773,0.384 -1.773,0.384 -2.7945,-0.107c-0.6014,-0.462 -0.6014,-0.462 -0.8844,-0.746c-0.1495,-1.213 -0.2008,-2.226 0.4422,-3.285c0.9488,-0.562 1.5882,-0.546 2.6707,-0.408zM34.7081,102.586c0,0.188 0,0.375 0,0.569c0.5603,0 1.1206,0 1.6979,0c-0.0934,-0.282 -0.1868,-0.563 -0.283,-0.853c-0.8278,-0.063 -0.8278,-0.063 -1.4149,0.284z" fill="black"/>
<path d="M102.626,101.449c0.374,0 0.747,0 1.132,0c0.093,1.219 0.187,2.438 0.283,3.694c0.374,-0.094 0.747,-0.188 1.132,-0.284c0.093,-1.125 0.187,-2.25 0.283,-3.41c0.373,0 0.747,0 1.132,0c0,1.501 0,3.001 0,4.546c-0.665,0.106 -0.665,0.106 -1.344,0.213c-0.25,0.04 -0.499,0.079 -0.756,0.12c-0.73,-0.049 -0.73,-0.049 -1.384,-0.493c-0.633,-0.917 -0.593,-1.505 -0.549,-2.61c0.01,-0.332 0.021,-0.665 0.031,-1.008c0.013,-0.253 0.027,-0.507 0.04,-0.768z" fill="black"/>
<path d="M28.7656,101.45c2.9381,-0.104 2.9381,-0.104 3.6346,0.311c0.4919,0.814 0.4081,1.5 0.3803,2.441c-0.0077,0.335 -0.0153,0.671 -0.0232,1.016c-0.0099,0.257 -0.0197,0.513 -0.0299,0.778c-0.3735,0 -0.7471,0 -1.1319,0c-0.0934,-1.032 -0.1868,-2.063 -0.283,-3.125c-0.3736,0 -0.7471,0 -1.132,0c-0.0934,1.031 -0.1868,2.062 -0.283,3.125c-0.3735,0 -0.7471,0 -1.1319,0c0,-1.5 0,-3 0,-4.546z" fill="black"/>
<path d="M117.907,101.45c0.374,0.094 0.747,0.187 1.132,0.284c0.094,-0.094 0.187,-0.188 0.283,-0.284c1.498,-0.131 1.498,-0.131 2.175,0.312c0.556,0.806 0.454,1.473 0.425,2.44c-0.007,0.335 -0.015,0.67 -0.023,1.016c-0.01,0.256 -0.02,0.513 -0.03,0.778c-0.373,0 -0.747,0 -1.132,0c0,-1.125 0,-2.251 0,-3.41c-0.467,0.094 -0.934,0.188 -1.415,0.284c-0.093,1.032 -0.187,2.063 -0.283,3.126c-0.373,0 -0.747,0 -1.132,0c0,-1.501 0,-3.001 0,-4.546z" fill="black"/>
<path d="M68.95,101.449c0.374,0 0.747,0 1.132,0c0.093,1.219 0.187,2.438 0.283,3.694c0.374,-0.094 0.747,-0.188 1.132,-0.284c0.344,-0.692 0.373,-1.256 0.442,-2.025c0.024,-0.258 0.048,-0.517 0.072,-0.783c0.017,-0.199 0.034,-0.397 0.052,-0.602c0.28,0 0.56,0 0.849,0c0.093,1.501 0.187,3.001 0.283,4.546c-2.993,0.396 -2.993,0.396 -3.962,-0.284c-0.31,-0.933 -0.311,-1.63 -0.301,-2.61c0.003,-0.309 0.006,-0.618 0.008,-0.936c0.003,-0.236 0.007,-0.472 0.01,-0.716z" fill="black"/>
<path d="M79.704,101.45c0.543,-0.024 1.086,-0.047 1.645,-0.071c0.458,-0.02 0.458,-0.02 0.925,-0.04c0.826,0.111 0.826,0.111 1.356,0.573c0.408,0.863 0.403,1.499 0.372,2.45c-0.008,0.306 -0.015,0.612 -0.023,0.928c-0.01,0.233 -0.02,0.466 -0.03,0.706c-0.374,0 -0.747,0 -1.132,0c-0.094,-1.032 -0.187,-2.063 -0.283,-3.126c-0.467,-0.093 -0.934,-0.187 -1.415,-0.284c-0.094,1.125 -0.187,2.251 -0.283,3.41c-0.28,0 -0.56,0 -0.849,0c-0.093,-1.5 -0.187,-3.001 -0.283,-4.546z" fill="black"/>
<path d="M75.635,101.414c0.473,0.018 0.473,0.018 0.955,0.036c0,0.375 0,0.75 0,1.136c-0.467,0 -0.934,0 -1.415,0c0.342,0.273 0.342,0.273 0.69,0.551c0.725,0.586 0.725,0.586 1.008,0.87c0.012,0.568 0.012,1.137 0,1.705c-0.825,0.563 -1.167,0.564 -2.193,0.461c-0.455,-0.088 -0.455,-0.088 -0.92,-0.177c0,-0.281 0,-0.563 0,-0.853c0.654,0 1.308,0 1.981,0c0,-0.281 0,-0.562 0,-0.852c-0.228,-0.041 -0.455,-0.082 -0.69,-0.124c-0.725,-0.16 -0.725,-0.16 -1.008,-0.444c-0.053,-0.835 -0.053,-0.835 0,-1.705c0.566,-0.568 0.566,-0.568 1.592,-0.604z" fill="black"/>
<path d="M93.464,101.414c0.472,0.018 0.472,0.018 0.955,0.036c0,0.375 0,0.75 0,1.136c-0.467,0 -0.934,0 -1.415,0c0.341,0.273 0.341,0.273 0.689,0.551c0.726,0.586 0.726,0.586 1.009,0.87c0.011,0.568 0.012,1.137 0,1.705c-0.826,0.563 -1.167,0.564 -2.194,0.461c-0.455,-0.088 -0.455,-0.088 -0.919,-0.177c0.093,-0.281 0.186,-0.563 0.283,-0.853c0.467,0 0.934,0 1.415,0c0.093,-0.281 0.186,-0.562 0.283,-0.852c-0.228,-0.041 -0.456,-0.082 -0.69,-0.124c-0.725,-0.16 -0.725,-0.16 -1.008,-0.444c-0.053,-0.835 -0.053,-0.835 0,-1.705c0.566,-0.568 0.566,-0.568 1.592,-0.604z" fill="black"/>
<path d="M42.631,101.45c0.094,0.375 0.187,0.75 0.283,1.136c-0.466,0 -0.933,0 -1.414,0c-0.094,0.188 -0.187,0.375 -0.283,0.568c0.274,0.088 0.548,0.176 0.831,0.267c0.866,0.301 0.866,0.301 1.149,0.586c0.107,0.674 0.107,0.674 0,1.42c-0.601,0.533 -0.601,0.533 -1.415,0.853c-0.937,-0.089 -0.937,-0.089 -1.697,-0.285c0,-0.281 0,-0.562 0,-0.852c0.653,0 1.307,0 1.98,0c-0.613,-0.646 -1.261,-1.181 -1.98,-1.705c0.106,-0.834 0.106,-0.834 0.283,-1.704c0.766,-0.385 1.417,-0.303 2.263,-0.284z" fill="black"/>
<path d="M44.047,100.597c0.374,0 0.747,0 1.132,0c0,0.282 0,0.563 0,0.853c0.374,0 0.747,0 1.132,0c0,0.281 0,0.562 0,0.852c-0.374,0 -0.747,0 -1.132,0c0,0.938 0,1.875 0,2.841c0.374,0 0.747,0 1.132,0c-0.093,0.375 -0.187,0.75 -0.283,1.137c-0.831,-0.107 -0.831,-0.107 -1.698,-0.284c-0.374,-0.752 -0.31,-1.329 -0.301,-2.167c0.003,-0.285 0.005,-0.57 0.008,-0.863c0.005,-0.329 0.005,-0.329 0.01,-0.664c-0.187,0 -0.374,0 -0.566,0c0,-0.281 0,-0.562 0,-0.852c0.187,0 0.374,0 0.566,0c0,-0.281 0,-0.563 0,-0.853z" fill="black"/>
<path d="M108.003,100.597c0.28,0 0.56,0 0.849,0c0,0.282 0,0.563 0,0.853c0.467,0 0.934,0 1.415,0c0,0.281 0,0.562 0,0.852c-0.467,0 -0.934,0 -1.415,0c0.093,0.938 0.186,1.875 0.283,2.841c0.28,0 0.56,0 0.849,0c-0.094,0.375 -0.187,0.75 -0.283,1.137c-1.38,-0.249 -1.38,-0.249 -1.698,-0.568c-0.021,-0.574 -0.024,-1.149 -0.018,-1.723c0.003,-0.314 0.005,-0.628 0.008,-0.951c0.003,-0.243 0.006,-0.486 0.01,-0.736c-0.28,0 -0.561,0 -0.849,0c0,-0.281 0,-0.562 0,-0.852c0.28,0 0.56,0 0.849,0c0,-0.281 0,-0.563 0,-0.853z" fill="black"/>
<path d="M100.645,99.461c0.373,0 0.747,0 1.132,0c0,2.156 0,4.313 0,6.535c-0.374,0 -0.747,0 -1.132,0c0,-2.157 0,-4.313 0,-6.535z" fill="black"/>
<path d="M110.833,101.449c0.373,0 0.747,0 1.132,0c0,1.501 0,3.001 0,4.546c-0.374,0 -0.748,0 -1.132,0c0,-1.5 0,-3 0,-4.546z" fill="black"/>
<path d="M77.723,101.449c0.373,0 0.747,0 1.132,0c0,1.501 0,3.001 0,4.546c-0.374,0 -0.747,0 -1.132,0c0,-1.5 0,-3 0,-4.546z" fill="black"/>
<path d="M110.831,99.745c0.561,0.141 0.561,0.141 1.132,0.284c-0.093,0.375 -0.186,0.75 -0.283,1.136c-0.373,-0.093 -0.747,-0.187 -1.132,-0.284c0.094,-0.375 0.187,-0.75 0.283,-1.136z" fill="black"/>
<path d="M77.723,99.745c0.373,0 0.747,0 1.132,0c-0.094,0.469 -0.187,0.937 -0.283,1.42c-0.28,-0.093 -0.561,-0.187 -0.849,-0.284c0,-0.375 0,-0.75 0,-1.136z" fill="black"/>
</g></svg>