<svg width="41" height="41" viewBox="0 0 41 41" fill="none" xmlns="http://www.w3.org/2000/svg">
<path d="M30.3233 2.49978C30.406 2.54448 30.406 2.54448 30.4904 2.59007C32.7876 3.84791 34.9115 5.62188 36.5156 7.6936C36.5784 7.77054 36.6413 7.84748 36.7062 7.92676C37.3537 8.73372 37.8881 9.60747 38.4145 10.4966C38.4471 10.5512 38.4797 10.6058 38.5132 10.6621C39.5625 12.4422 40.2105 14.4747 40.6231 16.4891C40.6395 16.5693 40.6559 16.6495 40.6728 16.7321C40.9177 17.9949 41.0054 19.2346 40.9998 20.5184C40.9995 20.6264 40.9995 20.6264 40.9993 20.7367C40.9952 21.8999 40.9391 23.0357 40.7263 24.1819C40.7121 24.2594 40.6979 24.3369 40.6833 24.4167C40.0428 27.8143 38.6706 31.0061 36.433 33.6627C36.3989 33.704 36.3648 33.7454 36.3297 33.788C35.396 34.9207 34.3797 35.9826 33.213 36.8779C33.0919 36.9748 33.0919 36.9748 32.9682 37.0737C30.7864 38.8091 27.3516 41 24.4614 41C24.4614 36.1302 24.4614 31.2604 24.4614 26.243C25.7692 26.243 27.077 26.243 28.4244 26.243C28.5138 25.6308 28.5138 25.6308 28.605 25.0063C28.7457 24.0487 28.8886 23.0914 29.0373 22.1349C29.0552 22.0193 29.0731 21.9038 29.0909 21.7882C29.1157 21.6269 29.1409 21.4657 29.1662 21.3045C29.1804 21.2131 29.1946 21.1217 29.2093 21.0276C29.25 20.8018 29.25 20.8018 29.3326 20.5545C27.3436 20.5545 25.3547 20.5545 23.3055 20.5545C23.297 19.7859 23.2885 19.0174 23.2797 18.2255C23.274 17.8646 23.274 17.8646 23.2683 17.4963C23.2671 17.3027 23.266 17.1091 23.2652 16.9155C23.2631 16.8173 23.2609 16.7191 23.2588 16.6179C23.2583 15.722 23.4986 14.9219 24.1298 14.2628C24.9198 13.604 25.8353 13.5219 26.8221 13.5309C26.9091 13.531 26.9961 13.5312 27.0857 13.5314C27.4081 13.5322 27.7305 13.5345 28.0528 13.5366C28.7749 13.54 29.4969 13.5435 30.2408 13.547C30.2408 11.8874 30.2408 10.2279 30.2408 8.51802C29.6686 8.47721 29.6686 8.47721 29.0849 8.43558C28.724 8.39146 28.724 8.39146 28.5598 8.36962C27.7147 8.26301 26.8677 8.25051 26.0171 8.24608C25.8765 8.24533 25.7359 8.24417 25.5953 8.24259C23.3075 8.21985 21.2596 8.81694 19.5747 10.4213C18.0775 11.9922 17.6579 14.1563 17.649 16.2472C17.6476 16.3728 17.6461 16.4983 17.6445 16.6238C17.6406 16.949 17.6381 17.2741 17.6359 17.5992C17.633 17.9921 17.6283 18.3851 17.6239 18.778C17.6175 19.3701 17.6133 19.9623 17.6086 20.5545C16.0829 20.5545 14.5571 20.5545 12.9851 20.5545C12.9851 22.4317 12.9851 24.3089 12.9851 26.243C14.5109 26.243 16.0366 26.243 17.6086 26.243C17.6086 31.1128 17.6086 35.9826 17.6086 41C16.8473 40.8914 16.1439 40.7757 15.4104 40.5723C15.3178 40.5469 15.2253 40.5215 15.1299 40.4953C12.0811 39.6432 9.32695 38.2482 6.95802 36.1359C6.91378 36.0969 6.86955 36.0578 6.82397 36.0175C2.78346 32.4342 0.447985 27.4098 0.0376646 22.0481C-0.271118 16.7354 1.3171 11.3215 4.86137 7.28365C5.0011 7.13019 5.14169 6.97751 5.28321 6.82571C5.44126 6.65495 5.59126 6.48096 5.74021 6.3024C7.26844 4.55994 9.29482 3.23771 11.3339 2.17002C11.3889 2.14091 11.4439 2.11181 11.5006 2.08182C17.282 -0.93383 24.6659 -0.568199 30.3233 2.49978Z" fill="white"/>
</svg>
