<svg width="32" height="28" viewBox="0 0 32 28" fill="none" xmlns="http://www.w3.org/2000/svg">
<path d="M1.55557 6.22228H23.3336V7.77786C23.3336 8.19042 23.4975 8.58608 23.7892 8.87781C24.0809 9.16954 24.4766 9.33343 24.8891 9.33343C25.3017 9.33343 25.6974 9.16954 25.9891 8.87781C26.2808 8.58608 26.4447 8.19042 26.4447 7.77786V6.22228H29.5559C29.9684 6.22228 30.3641 6.05839 30.6558 5.76667C30.9475 5.47494 31.1114 5.07928 31.1114 4.66671C31.1114 4.25415 30.9475 3.85848 30.6558 3.56676C30.3641 3.27503 29.9684 3.11114 29.5559 3.11114H26.4447V1.55557C26.4447 1.14301 26.2808 0.747342 25.9891 0.455616C25.6974 0.16389 25.3017 0 24.8891 0C24.4766 0 24.0809 0.16389 23.7892 0.455616C23.4975 0.747342 23.3336 1.14301 23.3336 1.55557V3.11114H1.55557C1.14301 3.11114 0.747342 3.27503 0.455616 3.56676C0.16389 3.85848 0 4.25415 0 4.66671C0 5.07928 0.16389 5.47494 0.455616 5.76667C0.747342 6.05839 1.14301 6.22228 1.55557 6.22228Z" fill="#3B3B3B"/>
<path d="M29.5559 12.4441H17.1113V10.8886C17.1113 10.476 16.9474 10.0804 16.6557 9.78862C16.3639 9.4969 15.9683 9.33301 15.5557 9.33301C15.1431 9.33301 14.7475 9.4969 14.4558 9.78862C14.164 10.0804 14.0001 10.476 14.0001 10.8886V12.4441H1.55557C1.14301 12.4441 0.747342 12.608 0.455616 12.8998C0.16389 13.1915 0 13.5872 0 13.9997C0 14.4123 0.16389 14.8079 0.455616 15.0997C0.747342 15.3914 1.14301 15.5553 1.55557 15.5553H14.0001V17.1109C14.0001 17.5234 14.164 17.9191 14.4558 18.2108C14.7475 18.5025 15.1431 18.6664 15.5557 18.6664C15.9683 18.6664 16.3639 18.5025 16.6557 18.2108C16.9474 17.9191 17.1113 17.5234 17.1113 17.1109V15.5553H29.5559C29.9684 15.5553 30.3641 15.3914 30.6558 15.0997C30.9475 14.8079 31.1114 14.4123 31.1114 13.9997C31.1114 13.5872 30.9475 13.1915 30.6558 12.8998C30.3641 12.608 29.9684 12.4441 29.5559 12.4441Z" fill="#3B3B3B"/>
<path d="M29.5559 21.7776H26.4447V20.2221C26.4447 19.8095 26.2808 19.4138 25.9891 19.1221C25.6974 18.8304 25.3017 18.6665 24.8891 18.6665C24.4766 18.6665 24.0809 18.8304 23.7892 19.1221C23.4975 19.4138 23.3336 19.8095 23.3336 20.2221V21.7776H1.55557C1.14301 21.7776 0.747342 21.9415 0.455616 22.2333C0.16389 22.525 0 22.9207 0 23.3332C0 23.7458 0.16389 24.1414 0.455616 24.4332C0.747342 24.7249 1.14301 24.8888 1.55557 24.8888H23.3336V26.4444C23.3336 26.8569 23.4975 27.2526 23.7892 27.5443C24.0809 27.836 24.4766 27.9999 24.8891 27.9999C25.3017 27.9999 25.6974 27.836 25.9891 27.5443C26.2808 27.2526 26.4447 26.8569 26.4447 26.4444V24.8888H29.5559C29.9684 24.8888 30.3641 24.7249 30.6558 24.4332C30.9475 24.1414 31.1114 23.7458 31.1114 23.3332C31.1114 22.9207 30.9475 22.525 30.6558 22.2333C30.3641 21.9415 29.9684 21.7776 29.5559 21.7776Z" fill="#3B3B3B"/>
</svg>
