<svg width="41" height="41" viewBox="0 0 41 41" fill="none" xmlns="http://www.w3.org/2000/svg">
<path d="M24.5447 0.418617C24.6174 0.433113 24.69 0.447609 24.7648 0.462545C27.7518 1.0669 30.629 2.33883 33.012 4.24352C32.9652 4.56647 32.7977 4.75849 32.5976 5.01049C32.5626 5.05499 32.5276 5.0995 32.4915 5.14535C32.4141 5.24361 32.3366 5.3417 32.2588 5.43965C32.034 5.72364 31.8118 6.00969 31.5891 6.29542C31.5419 6.35595 31.4946 6.41648 31.4459 6.47885C30.9919 7.06076 30.5432 7.6466 30.0948 8.23281C29.8546 8.54641 29.6132 8.85908 29.3715 9.17156C29.2325 9.35203 29.0942 9.53292 28.9565 9.71442C28.9018 9.78626 28.9018 9.78626 28.846 9.85955C28.7758 9.95165 28.7059 10.0439 28.6363 10.1364C28.3969 10.45 28.3969 10.45 28.2192 10.5387C28.1485 10.4895 28.0777 10.4403 28.0048 10.3896C24.9709 8.30811 21.5527 7.55937 17.9147 8.22779C17.4511 8.32981 17.0045 8.47 16.5567 8.62622C16.468 8.65652 16.3792 8.68682 16.2877 8.71804C14.6776 9.30124 13.0286 10.2055 11.8653 11.4806C11.7639 11.5746 11.7639 11.5746 11.6042 11.5746C11.5827 11.6224 11.5613 11.6703 11.5393 11.7196C11.4429 11.8961 11.3541 11.9899 11.2048 12.1224C9.09312 14.1765 8.06826 17.4291 7.98658 20.2967C7.97017 21.7226 8.17693 23.1381 8.6486 24.4836C8.67897 24.5722 8.70935 24.6607 8.74064 24.7519C9.32527 26.3582 10.2317 28.0031 11.5099 29.1636C11.6042 29.2647 11.6042 29.2647 11.6042 29.4241C11.6521 29.4455 11.7001 29.4668 11.7496 29.4889C11.9265 29.585 12.0205 29.6736 12.1533 29.8225C14.2322 31.9493 17.5167 32.9612 20.4169 33.0329C23.8765 33.0674 27.0144 31.6895 29.4723 29.2946C29.5638 29.2009 29.5638 29.2009 29.657 29.1054C29.7164 29.0516 29.7164 29.0516 29.7769 28.9967C31.0808 27.7833 31.8545 25.9825 32.5327 24.4039C28.5787 24.4039 24.6246 24.4039 20.5507 24.4039C20.5507 21.8269 20.5507 19.2499 20.5507 16.5948C27.299 16.5948 34.0472 16.5948 41 16.5948C41 23.1612 41 23.1612 40.5856 24.9966C40.5691 25.0707 40.5525 25.1448 40.5355 25.2211C39.8401 28.1973 38.4505 30.9588 36.5267 33.3287C36.4916 33.3721 36.4564 33.4155 36.4202 33.4602C35.5033 34.5815 34.4836 35.6345 33.3315 36.5161C33.2572 36.5766 33.1828 36.6371 33.1062 36.6995C30.53 38.76 27.3785 40.0723 24.1453 40.6598C24.0786 40.6728 24.0118 40.6858 23.943 40.6993C21.7296 41.1209 19.1647 41.0914 16.9561 40.6598C16.8832 40.6465 16.8103 40.6333 16.7351 40.6196C13.4096 40.0092 10.3133 38.5556 7.69004 36.4364C7.64654 36.4014 7.60305 36.3663 7.55824 36.3302C6.43418 35.4155 5.37856 34.3983 4.49483 33.249C4.43419 33.1748 4.37354 33.1007 4.31105 33.0243C2.24544 30.4543 0.929954 27.3104 0.341074 24.0852C0.327997 24.0186 0.31492 23.952 0.301446 23.8834C-0.121157 21.6754 -0.0916189 19.1167 0.341074 16.9135C0.354357 16.8407 0.36764 16.768 0.381326 16.693C0.993185 13.3756 2.45041 10.2868 4.57471 7.66999C4.60987 7.6266 4.64502 7.58322 4.68123 7.53852C5.59812 6.4172 6.61782 5.36415 7.76992 4.48257C7.84426 4.42207 7.9186 4.36157 7.9952 4.29923C10.5719 2.23829 13.7227 0.927356 16.9561 0.338931C17.0556 0.319363 17.0556 0.319363 17.1571 0.2994C19.5175 -0.153653 22.1994 -0.0754403 24.5447 0.418617Z" fill="white"/>
</svg>
