<svg width="105" height="117" viewBox="0 0 105 117" fill="none" xmlns="http://www.w3.org/2000/svg">
<path d="M9.86847 0.0633829C10.1266 0.0634403 10.1266 0.0634403 10.39 0.0634988C10.6862 0.0611008 10.6862 0.0611008 10.9884 0.0586544C11.2056 0.0603965 11.4227 0.0621386 11.6465 0.0639335C11.8748 0.0631014 12.1031 0.0622694 12.3383 0.0614122C13.0958 0.059559 13.8532 0.0626716 14.6107 0.0659922C15.1352 0.0661104 15.6598 0.0659926 16.1844 0.065648C17.2849 0.0656684 18.3854 0.0680508 19.4859 0.0721685C20.8992 0.0773393 22.3125 0.0774635 23.7258 0.0759251C24.8094 0.0751648 25.8929 0.0766731 26.9764 0.0789173C27.4977 0.0797969 28.0189 0.0800563 28.5402 0.0796955C29.2676 0.0796113 29.995 0.0824788 30.7224 0.0861904C31.0482 0.0853435 31.0482 0.0853435 31.3805 0.0844794C31.6767 0.0869015 31.6767 0.0869015 31.9789 0.0893724C32.2371 0.0900743 32.2371 0.0900743 32.5004 0.0907902C32.9219 0.148788 32.9219 0.148788 33.3777 0.60461C33.4386 1.04418 33.4386 1.04418 33.4439 1.58697C33.4468 1.79007 33.4497 1.99316 33.4527 2.2024C33.4532 2.42224 33.4537 2.64208 33.4543 2.86858C33.4565 3.20665 33.4565 3.20665 33.4589 3.55154C33.4612 4.02878 33.4622 4.50603 33.4622 4.98327C33.4632 5.71466 33.4714 6.44574 33.4801 7.17708C33.4814 7.64017 33.4823 8.10326 33.4827 8.56636C33.486 8.78574 33.4893 9.00511 33.4927 9.23114C33.4913 9.43495 33.4899 9.63876 33.4884 9.84875C33.4891 10.028 33.4897 10.2074 33.4904 10.3921C33.3777 10.8606 33.3777 10.8606 32.4661 11.5443C31.3379 11.5443 30.2097 11.5443 29.0474 11.5443C29.1226 15.0792 29.1978 18.6141 29.2753 22.2561C29.9354 21.5865 30.5956 20.9168 31.2758 20.2268C33.4557 18.0166 35.6406 15.8115 37.8282 13.6088C39.1546 12.273 40.4792 10.9356 41.7998 9.59407C42.951 8.42476 44.1053 7.25869 45.2635 6.0964C45.8766 5.4809 46.488 4.8639 47.0957 4.24298C47.6679 3.65834 48.2443 3.07815 48.8242 2.50104C49.1368 2.18766 49.4449 1.86976 49.7528 1.55175C49.9414 1.36574 50.1299 1.17972 50.3241 0.988069C50.4855 0.825042 50.6468 0.662014 50.813 0.494047C51.4504 0.107712 51.9602 -0.033922 52.7094 0.00670913C53.7952 0.317389 54.5167 1.21199 55.2855 1.99831C55.5879 2.29677 55.5879 2.29677 55.8965 2.60126C56.4545 3.15366 57.0081 3.70987 57.5602 4.26808C58.1569 4.86938 58.7589 5.4654 59.3601 6.06211C60.5368 7.23154 61.7085 8.40583 62.8785 9.58191C63.8294 10.5375 64.7821 11.4913 65.7361 12.4438C65.9397 12.6471 65.9397 12.6471 66.1474 12.8545C66.4232 13.1298 66.699 13.4051 66.9748 13.6805C69.5608 16.2625 72.1413 18.8499 74.7199 21.4394C76.933 23.6616 79.1506 25.8794 81.3715 28.0939C83.9502 30.665 86.5262 33.2387 89.0981 35.8167C89.3723 36.0915 89.6465 36.3663 89.9207 36.6411C90.0556 36.7764 90.1905 36.9116 90.3295 37.0509C91.2808 38.0041 92.2339 38.9555 93.1878 39.9062C94.3499 41.0646 95.509 42.2258 96.6646 43.3908C97.2544 43.9852 97.8454 44.5783 98.4399 45.168C99.0839 45.8069 99.7216 46.4518 100.359 47.0975C100.548 47.2835 100.738 47.4696 100.933 47.6612C102.176 48.9355 102.176 48.9355 102.338 50.0474C102.202 50.7723 102.1 51.0537 101.592 51.5721C101.446 51.7243 101.3 51.8765 101.15 52.0334C100.972 52.2099 100.794 52.3864 100.611 52.5683C100.392 52.7929 100.172 53.0179 99.9529 53.243C99.3338 53.8759 98.709 54.5028 98.0818 55.1277C97.6874 55.5208 97.2942 55.9152 96.9012 56.3097C96.6504 56.5604 96.3995 56.811 96.1485 57.0615C96.0312 57.1793 95.9139 57.297 95.7931 57.4183C95.1441 58.063 94.7597 58.4448 93.8453 58.5937C93.0904 58.494 93.0904 58.494 91.495 57.1265C91.4198 59.1572 91.3446 61.1879 91.2671 63.2801C92.7595 62.3304 94.1988 61.4118 95.5974 60.3458C95.7524 60.2285 95.9074 60.1112 96.0671 59.9903C97.7817 58.686 99.4514 57.3468 101.025 55.873C101.623 55.3374 101.966 55.0798 102.734 54.8047C103.493 54.8576 103.73 54.9863 104.258 55.5311C104.377 56.237 104.377 56.237 104.384 57.1249C104.387 57.2881 104.39 57.4514 104.392 57.6195C104.4 58.168 104.4 58.7163 104.401 59.2649C104.405 59.6576 104.409 60.0503 104.414 60.443C104.425 61.5116 104.43 62.5801 104.433 63.6488C104.435 64.3171 104.438 64.9854 104.442 65.6537C104.455 67.9875 104.462 70.3213 104.464 72.6552C104.467 74.8265 104.483 76.9975 104.504 79.1687C104.522 81.035 104.53 82.9012 104.531 84.7676C104.532 85.8813 104.536 86.9946 104.551 88.1082C104.564 89.1578 104.566 90.2068 104.558 91.2565C104.557 91.6397 104.561 92.0229 104.569 92.4061C104.616 94.728 104.346 96.1599 102.716 97.8822C102.397 98.2024 102.074 98.5184 101.751 98.8342C101.411 99.2255 101.073 99.6191 100.74 100.017C98.1454 102.849 95.0846 104.817 91.495 106.127C91.4905 106.428 91.486 106.728 91.4813 107.037C91.464 108.15 91.4438 109.262 91.4227 110.374C91.4139 110.856 91.406 111.338 91.3988 111.819C91.3884 112.511 91.3752 113.203 91.3614 113.895C91.3575 114.219 91.3575 114.219 91.3535 114.549C91.3489 114.75 91.3444 114.95 91.3397 115.157C91.3352 115.422 91.3352 115.422 91.3305 115.693C91.2671 116.155 91.2671 116.155 90.8113 116.839C90.2612 116.925 90.2612 116.925 89.5534 116.925C89.2844 116.927 89.0154 116.929 88.7383 116.931C88.4402 116.929 88.1421 116.928 87.835 116.926C87.5172 116.927 87.1994 116.928 86.8815 116.929C86.0051 116.932 85.1288 116.931 84.2523 116.929C83.3084 116.927 82.3644 116.929 81.4204 116.931C79.57 116.934 77.7196 116.934 75.8691 116.932C74.3658 116.93 72.8625 116.93 71.3592 116.931C71.1456 116.931 70.932 116.931 70.7119 116.931C70.278 116.931 69.8442 116.931 69.4103 116.932C65.3377 116.934 61.2651 116.931 57.1925 116.928C53.6947 116.925 50.1969 116.925 46.6991 116.928C42.6415 116.932 38.584 116.933 34.5264 116.931C34.094 116.931 33.6617 116.931 33.2294 116.931C33.0167 116.931 32.804 116.93 32.5848 116.93C31.0825 116.93 29.5802 116.931 28.078 116.932C26.2483 116.934 24.4187 116.934 22.589 116.93C21.6547 116.928 20.7204 116.928 19.7861 116.93C18.9319 116.932 18.0778 116.931 17.2236 116.927C16.7658 116.926 16.3081 116.928 15.8503 116.931C15.5813 116.929 15.3124 116.927 15.0352 116.925C14.8016 116.925 14.5681 116.925 14.3274 116.925C14.0551 116.882 14.0551 116.882 13.7774 116.839C13.1798 115.943 13.2642 115.183 13.277 114.144C13.2777 113.948 13.2783 113.752 13.279 113.549C13.2815 112.922 13.2872 112.295 13.293 111.668C13.2953 111.243 13.2974 110.818 13.2993 110.393C13.3043 109.351 13.3122 108.309 13.3215 107.267C13.0926 107.225 13.0926 107.225 12.859 107.181C12.6568 107.143 12.4545 107.104 12.2461 107.064C12.0464 107.026 11.8468 106.989 11.6411 106.95C10.6885 106.729 9.85791 106.344 8.99122 105.899C8.82406 105.822 8.65689 105.744 8.48466 105.664C7.10313 104.945 6.02282 103.945 4.91732 102.865C4.77525 102.729 4.63318 102.593 4.48681 102.453C4.05019 102.013 4.05019 102.013 3.61875 101.511C3.11837 100.923 3.11837 100.923 2.73428 100.581C0.873395 98.8651 0.195189 97.0145 0.0546115 94.5414C-0.0276284 92.4806 -0.000817956 90.4183 0.0307862 88.3567C0.0454666 87.2194 0.0449446 86.0822 0.0462999 84.9448C0.0506885 83.0394 0.065147 81.1342 0.0867275 79.2289C0.114403 76.7822 0.126192 74.3358 0.132749 71.889C0.138417 69.7819 0.150195 67.6748 0.163543 65.5677C0.166311 65.116 0.168868 64.6643 0.171216 64.2126C0.177898 62.9278 0.187789 61.6432 0.203241 60.3584C0.207431 59.9692 0.210472 59.5799 0.212296 59.1906C0.215013 58.6605 0.221925 58.1306 0.229982 57.6005C0.232904 57.3037 0.235826 57.0068 0.238836 56.701C0.330608 55.987 0.330608 55.987 0.632024 55.5455C1.01434 55.3032 1.01434 55.3032 1.76217 55.2836C2.86934 55.607 3.33869 56.1427 4.09114 56.9841C6.72328 59.758 9.78823 61.6231 13.0936 63.508C13.0936 61.4021 13.0936 59.2962 13.0936 57.1265C12.5671 57.5778 12.0407 58.029 11.4982 58.494C10.8288 58.6792 10.8288 58.6792 10.1308 58.494C8.80477 57.494 7.63869 56.2651 6.46996 55.0896C6.31763 54.9381 6.1653 54.7867 6.00835 54.6306C5.10672 53.7272 4.2475 52.7996 3.4177 51.8298C3.08281 51.4217 3.08281 51.4217 2.67821 51.1341C2.38181 50.745 2.38181 50.745 2.19312 50.0017C2.41392 49.0046 2.54134 48.9462 3.3615 48.412C3.57518 48.2834 3.78886 48.1549 4.00901 48.0224C7.735 45.7789 11.6216 42.6671 13.0936 38.4378C14.2 33.8893 13.9758 28.979 13.8771 24.3216C13.8739 24.1654 13.8707 24.0092 13.8674 23.8483C13.7818 19.742 13.5985 15.6423 13.3215 11.5443C13.0853 11.5549 12.8491 11.5655 12.6057 11.5764C12.2936 11.5849 11.9814 11.5932 11.6692 11.6013C11.4361 11.6128 11.4361 11.6128 11.1982 11.6245C10.4221 11.6395 9.98349 11.6016 9.34357 11.147C8.95494 10.5797 8.8779 10.3194 8.8805 9.64042C8.87909 9.44649 8.87769 9.25256 8.87625 9.05275C8.87952 8.84523 8.8828 8.63772 8.88617 8.42391C8.88648 8.10199 8.88648 8.10199 8.8868 7.77357C8.88818 7.3205 8.89177 6.86743 8.89741 6.41439C8.90574 5.7201 8.90676 5.02609 8.90665 4.33176C8.90889 3.89151 8.91154 3.45127 8.91466 3.01103C8.91517 2.80305 8.91567 2.59507 8.9162 2.38079C8.9191 2.18758 8.92201 1.99437 8.92501 1.7953C8.92762 1.54055 8.92762 1.54055 8.93027 1.28066C9.018 0.635627 9.19621 0.199622 9.86847 0.0633829ZM11.7262 2.88372C11.7262 4.8392 11.7262 6.79467 11.7262 8.8094C17.9686 8.8094 24.2111 8.8094 30.6428 8.8094C30.6428 6.85393 30.6428 4.89845 30.6428 2.88372C24.4003 2.88372 18.1578 2.88372 11.7262 2.88372ZM51.7131 3.86411C51.5727 4.00466 51.4324 4.1452 51.2878 4.29C51.1257 4.45117 50.9636 4.61233 50.7966 4.77838C50.6179 4.95839 50.4392 5.13841 50.2551 5.32389C50.0658 5.51281 49.8765 5.70174 49.6814 5.8964C49.1541 6.42308 48.6279 6.95078 48.102 7.47891C47.5355 8.04742 46.9676 8.61461 46.3999 9.18197C45.4158 10.1658 44.4326 11.1505 43.4499 12.1357C42.0291 13.5602 40.6071 14.9835 39.1847 16.4064C36.8773 18.7148 34.5709 21.0243 32.2651 23.3344C30.0247 25.5789 27.7839 27.823 25.5424 30.0664C25.4043 30.2046 25.2662 30.3428 25.124 30.4852C24.4313 31.1785 23.7386 31.8717 23.0459 32.565C17.296 38.3196 11.5477 44.076 5.80047 49.8334C6.17849 50.6364 6.61333 51.155 7.24806 51.7813C7.53891 52.0699 7.53891 52.0699 7.83564 52.3644C8.03836 52.5633 8.24108 52.7622 8.44993 52.9671C8.65441 53.1696 8.85889 53.372 9.06957 53.5805C9.57423 54.0798 10.0799 54.578 10.5866 55.0753C11.2485 54.7759 11.7184 54.4556 12.2295 53.9412C12.3694 53.8015 12.5093 53.6618 12.6534 53.5178C12.8808 53.2873 12.8808 53.2873 13.1128 53.0521C13.3569 52.8074 13.3569 52.8074 13.6058 52.5578C14.1521 52.0097 14.6967 51.4599 15.2413 50.9101C15.6321 50.5174 16.0229 50.1247 16.4139 49.7322C17.2563 48.886 18.098 48.0392 18.9393 47.1918C20.2689 45.8527 21.6007 44.5158 22.9328 43.1792C23.3886 42.7219 23.8444 42.2645 24.3002 41.8071C24.4141 41.6928 24.528 41.5785 24.6453 41.4607C25.9414 40.16 27.237 38.8587 28.5324 37.5572C28.6508 37.4382 28.7692 37.3193 28.8912 37.1967C30.8108 35.2679 32.7291 33.3378 34.6471 31.4074C36.6162 29.4256 38.5876 27.446 40.5609 25.4682C41.7779 24.2481 42.9932 23.0263 44.2061 21.802C45.1354 20.8644 46.0676 19.9298 47.0009 18.9963C47.3836 18.6126 47.7652 18.2279 48.1458 17.8422C48.6647 17.3167 49.1869 16.7948 49.7102 16.2736C49.8608 16.1194 50.0113 15.9652 50.1665 15.8063C50.7742 15.2071 51.2774 14.7834 52.057 14.4253C53.1904 14.5592 53.7927 15.3159 54.5734 16.1026C54.7122 16.2364 54.851 16.3703 54.9941 16.5082C55.425 16.9255 55.849 17.3489 56.2722 17.774C56.4329 17.9345 56.5936 18.095 56.7592 18.2604C57.2927 18.7934 57.8253 19.3273 58.358 19.8612C58.7422 20.2455 59.1264 20.6297 59.5107 21.0138C60.4426 21.9457 61.374 22.8781 62.3051 23.8107C63.3894 24.8966 64.4744 25.9819 65.5594 27.0672C67.494 29.0023 69.4281 30.9379 71.3619 32.8739C73.2395 34.7535 75.1173 36.6329 76.9954 38.512C77.1113 38.628 77.2272 38.744 77.3467 38.8635C77.9283 39.4454 78.51 40.0274 79.0916 40.6093C83.9106 45.4306 88.7286 50.2527 93.5462 55.0753C94.3492 54.6973 94.8678 54.2625 95.4941 53.6277C95.6865 53.4338 95.879 53.2399 96.0772 53.0401C96.2761 52.8374 96.475 52.6347 96.68 52.4259C96.8824 52.2214 97.0848 52.0169 97.2934 51.8062C97.7927 51.3016 98.2909 50.7959 98.7881 50.2892C98.4729 49.5805 98.1091 49.0973 97.5621 48.5499C97.3218 48.3079 97.3218 48.3079 97.0766 48.0609C96.9 47.8853 96.7234 47.7097 96.5414 47.5288C96.3543 47.3409 96.1672 47.1531 95.9744 46.9596C95.4548 46.4385 94.9342 45.9184 94.4132 45.3988C93.8515 44.8382 93.2911 44.2762 92.7306 43.7145C91.6325 42.6143 90.5331 41.5154 89.4333 40.4169C88.5399 39.5245 87.647 38.6317 86.7543 37.7386C86.5639 37.548 86.5639 37.548 86.3696 37.3537C86.1118 37.0957 85.8539 36.8377 85.5961 36.5796C83.1774 34.1597 80.7573 31.7411 78.3368 29.323C76.258 27.2463 74.1804 25.1684 72.1038 23.0896C69.6937 20.6771 67.2829 18.2654 64.871 15.8548C64.6141 15.598 64.3571 15.3412 64.1002 15.0844C63.9106 14.8949 63.9106 14.8949 63.7171 14.7015C62.8244 13.8093 61.9323 12.9164 61.0403 12.0234C59.9543 10.9361 58.8675 9.84967 57.7796 8.76424C57.2242 8.20998 56.6691 7.65536 56.115 7.09976C55.5154 6.49893 54.9144 5.89951 54.3131 5.30045C54.1365 5.12282 53.9599 4.9452 53.7779 4.7622C53.6177 4.60318 53.4575 4.44417 53.2925 4.28034C53.1537 4.14167 53.015 4.00301 52.872 3.86014C52.3854 3.45302 52.1984 3.45656 51.7131 3.86411ZM16.0565 11.5443C16.0565 19.4414 16.0565 27.3386 16.0565 35.475C16.5829 35.0237 17.1094 34.5725 17.6518 34.1075C17.9741 33.8601 18.299 33.6162 18.628 33.3779C23.9698 29.4478 23.9698 29.4478 26.7156 23.6783C27.2236 19.6713 26.7557 15.5286 26.3125 11.5443C22.928 11.5443 19.5435 11.5443 16.0565 11.5443ZM50.6445 19.2178C50.4971 19.3569 50.3496 19.4961 50.1977 19.6395C49.7003 20.1098 49.2046 20.582 48.709 21.0542C48.3542 21.3909 47.9994 21.7275 47.6445 22.0642C44.3858 25.161 41.1602 28.2921 37.9436 31.4326C35.783 33.5409 33.6133 35.6376 31.4165 37.7082C29.4981 39.5164 27.6011 41.3442 25.7258 43.1972C24.7343 44.1755 23.7359 45.1423 22.7114 46.0861C17.3918 50.9932 17.3918 50.9932 15.5378 57.7611C15.5002 60.2253 15.712 62.6656 16.0565 65.1034C16.5914 65.355 17.1265 65.6062 17.6618 65.8571C17.8109 65.9273 17.96 65.9975 18.1137 66.0698C19.6344 66.7818 21.1802 67.4228 22.7371 68.052C23.0114 68.1644 23.2856 68.2767 23.5682 68.3925C24.7889 68.963 24.7889 68.963 26.0845 69.2058C26.1598 70.1083 26.235 71.0109 26.3125 71.9407C26.4977 72.0074 26.6829 72.074 26.8737 72.1427C27.5593 72.3903 28.2443 72.6394 28.929 72.8894C29.2257 72.9975 29.5226 73.1049 29.8198 73.2117C30.2463 73.3652 30.672 73.521 31.0977 73.6768C31.3543 73.7699 31.6109 73.863 31.8753 73.9589C32.4661 74.2198 32.4661 74.2198 32.694 74.6757C33.8775 74.3338 34.8668 73.8024 35.9274 73.1942C36.2938 72.9883 36.6603 72.7826 37.0269 72.5773C37.2148 72.4719 37.4026 72.3666 37.5962 72.258C40.5176 70.6252 43.4258 69.155 46.5965 68.0662C46.8316 67.984 47.0666 67.9017 47.3087 67.817C48.7125 67.3958 50.0832 67.316 51.5393 67.2971C51.8075 67.2922 51.8075 67.2922 52.081 67.2873C53.2508 67.297 54.175 67.5081 55.2554 67.96C55.843 68.0964 56.0625 67.9625 56.5676 67.6532C57.8198 66.9078 59.0845 66.968 60.4991 67.1546C62.1378 67.6085 63.4711 68.3632 64.7546 69.4693C66.3571 70.7384 68.0496 71.4389 69.9716 72.1117C70.3469 72.2478 70.3469 72.2478 70.7297 72.3868C72.5234 73.0642 72.5234 73.0642 74.4017 73.3082C74.8623 72.9143 74.8623 72.9143 75.3133 72.3966C75.9196 72.0635 76.5544 71.805 77.1936 71.5419C77.3634 71.4699 77.5332 71.3979 77.7082 71.3238C78.1246 71.1476 78.5421 70.9741 78.9599 70.8012C78.9458 70.4839 78.9458 70.4839 78.9314 70.1602C78.9599 69.4337 78.9599 69.4337 79.4157 68.75C79.9608 68.5094 79.9608 68.5094 80.6443 68.2906C80.8958 68.2075 81.1473 68.1243 81.4064 68.0387C81.9298 67.8706 82.4533 67.7026 82.9768 67.5348C84.3928 67.0666 85.7108 66.5448 87.0363 65.8648C87.2538 65.7546 87.2538 65.7546 87.4757 65.6422C87.8282 65.4634 88.1802 65.2835 88.5321 65.1034C89.5546 58.0151 89.5546 58.0151 87.1374 51.5397C85.4016 49.3386 83.3324 47.4268 81.2757 45.532C80.2477 44.5732 79.2521 43.5818 78.2522 42.5938C76.3631 40.7368 74.4473 38.9102 72.5197 37.0933C70.3239 35.0206 68.162 32.9137 66.0015 30.8043C62.8213 27.7012 59.6289 24.611 56.4053 21.5531C56.0574 21.223 55.71 20.8926 55.3628 20.5618C54.891 20.1126 54.4178 19.6649 53.9441 19.2178C53.8053 19.0853 53.6665 18.9528 53.5235 18.8163C52.1637 17.5403 51.8633 18.0542 50.6445 19.2178ZM100.526 60.1179C95.5032 64.609 89.3599 68.307 82.9305 70.3596C82.3435 70.5157 82.3435 70.5157 82.1506 71.0291C82.3196 71.5115 82.3196 71.5115 82.5967 72.0538C82.6988 72.2674 82.801 72.481 82.9063 72.701C83.0752 73.0509 83.0752 73.0509 83.2475 73.4079C87.4218 82.2995 90.6995 92.1268 89.2159 102.025C89.167 102.4 89.1192 102.775 89.0734 103.15C89.0452 103.381 89.017 103.611 88.988 103.848C93.0239 103.227 96.6497 100.406 99.3011 97.4489C99.5791 97.1435 99.867 96.8468 100.162 96.5575C101.716 94.8896 101.776 93.4297 101.73 91.2303C101.73 90.8819 101.73 90.5335 101.731 90.1851C101.731 89.2457 101.721 88.3067 101.708 87.3673C101.696 86.3834 101.695 85.3994 101.693 84.4154C101.688 82.5548 101.673 80.6945 101.654 78.834C101.634 76.7148 101.624 74.5955 101.615 72.4762C101.596 68.1192 101.564 63.7624 101.523 59.4056C101.104 59.4056 100.815 59.8449 100.526 60.1179ZM3.06554 60.3173C3.01218 64.9314 2.97205 69.5455 2.94745 74.16C2.93573 76.3028 2.91975 78.4454 2.8936 80.5881C2.87081 82.4567 2.85617 84.3252 2.8511 86.194C2.84814 87.1826 2.84124 88.1708 2.82457 89.1593C2.80897 90.092 2.80435 91.0241 2.80775 91.9569C2.80713 92.2971 2.80268 92.6374 2.79386 92.9775C2.72627 95.7209 3.52545 97.089 5.34465 99.0621C5.54874 99.2995 5.75175 99.5378 5.95359 99.7771C7.12466 101.154 8.35735 102.229 9.90287 103.165C10.1228 103.301 10.1228 103.301 10.3471 103.44C11.8286 104.269 13.6775 104.76 15.3727 104.76C20.4132 95.1858 23.6987 84.2554 23.5918 73.3652C23.5907 73.1601 23.5897 72.955 23.5887 72.7438C23.586 72.2482 23.5819 71.7526 23.5775 71.257C23.4409 71.2012 23.3043 71.1454 23.1635 71.0878C16.2035 68.2167 9.59922 65.3237 3.67627 60.6022C3.34251 60.2946 3.34251 60.2946 3.06554 60.3173ZM56.3112 71.0148C53.2966 73.2852 50.417 74.7605 46.7482 75.7083C45.5044 76.0408 45.5044 76.0408 44.4492 76.7464C43.8385 77.8741 43.4127 79.0627 42.97 80.2639C42.6068 81.2167 42.249 82.0492 41.6359 82.8689C41.0514 83.511 41.0514 83.511 41.1694 84.2337C41.2305 84.3888 41.2916 84.5439 41.3546 84.7037C42.6456 85.0334 43.5682 84.7713 44.7732 84.2479C46.3368 83.2701 47.9707 81.8682 48.9825 80.3156C49.3315 79.9176 49.3315 79.9176 49.7748 79.8784C49.9388 79.9102 50.1027 79.9419 50.2716 79.9746C53.0868 80.4098 55.6501 80.0321 57.9921 78.3222C58.6758 77.8664 58.6758 77.8664 59.3311 77.8575C60.2972 78.1788 60.6576 78.782 61.1828 79.6042C61.3818 79.8971 61.5812 80.1897 61.7811 80.482C61.8751 80.622 61.9691 80.7619 62.066 80.906C63.4457 82.9457 65.1582 84.1085 67.5643 84.7037C68.3559 84.7655 68.3559 84.7655 69.1659 84.7483C69.459 84.7468 69.7521 84.7453 70.054 84.7438C70.3589 84.74 70.6638 84.7361 70.9688 84.7322C71.2799 84.7299 71.5911 84.7279 71.9022 84.726C72.6594 84.7206 73.4166 84.7132 74.1738 84.7037C74.2579 86.3868 74.2579 86.3868 73.8319 87.0968C73.7191 87.2096 73.6063 87.3224 73.49 87.4387C73.7045 87.5762 73.919 87.7137 74.1399 87.8553C74.4266 88.0393 74.7133 88.2233 74.9999 88.4073C75.1407 88.4975 75.2814 88.5877 75.4264 88.6806C75.8451 88.9495 76.263 89.2196 76.6808 89.4899C76.9299 89.6503 77.179 89.8107 77.4357 89.976C78.2036 90.5094 78.5527 90.9234 78.9599 91.769C79.0909 92.9184 79.0307 94.0673 78.732 95.1876C80.0222 95.0745 80.983 94.8355 82.1506 94.276C82.0547 89.0857 80.3336 83.9932 77.8427 79.4734C77.5924 79.006 77.5924 79.006 77.3341 78.4246C76.8806 77.505 76.5218 76.8831 75.5975 76.3967C74.8342 76.1403 74.0747 75.9415 73.2906 75.7582C72.7354 75.6114 72.1805 75.4636 71.6258 75.3149C71.3582 75.2455 71.0906 75.1761 70.815 75.1046C67.964 74.334 65.1748 73.208 62.8637 71.3425C61.6944 70.4008 60.5702 69.7705 59.0746 69.5548C57.8782 69.7043 57.2368 70.278 56.3112 71.0148ZM39.3456 74.2579C38.3908 74.7905 37.4601 75.2355 36.4313 75.6087C34.5901 76.3292 34.5901 76.3292 33.1498 77.6385C32.5832 79.4388 32.7984 81.3784 32.8982 83.2372C32.9311 84.3252 32.8158 85.356 32.637 86.4273C32.6074 86.6081 32.5778 86.7888 32.5473 86.975C31.9473 90.396 31.0507 93.9727 29.4623 97.0813C29.238 97.468 29.238 97.468 29.2895 97.9511C29.5953 98.5627 30.0193 98.6088 30.6428 98.8342C30.7835 98.6362 30.9242 98.4382 31.0692 98.2342C32.3389 96.4907 33.535 94.9833 35.6568 94.276C37.9985 94.0518 37.9985 94.0518 38.99 94.7176C39.5313 95.1876 39.5313 95.1876 39.7592 95.4156C40.1385 95.4718 40.5185 95.5231 40.8988 95.5723C42.2673 95.8078 43.269 96.3333 44.3174 97.2388C44.543 97.5773 44.543 97.5773 44.7732 97.9226C45.4136 98.0644 45.4136 98.0644 46.1549 98.122C47.8718 98.3518 49.1119 98.8426 50.3428 100.073C50.6989 100.658 50.6989 100.658 50.8556 101.341C51.2066 102.143 51.3934 102.203 52.1519 102.581C52.9916 103.011 53.5531 103.388 53.9912 104.266C54.2131 105.133 54.1203 106.001 54.0384 106.886C54.0518 107.539 54.0518 107.539 54.6286 107.904C55.7779 108.406 56.7446 108.619 57.9476 108.165C58.5082 107.885 59.0508 107.591 59.5874 107.267C58.5709 106.46 57.4476 105.815 56.3411 105.141C56.1828 105.043 56.0246 104.946 55.8616 104.845C55.7183 104.758 55.5749 104.67 55.4271 104.58C55.0082 104.289 54.673 104.012 54.3455 103.62C54.2743 102.922 54.2743 102.922 54.3455 102.253C54.8013 101.797 54.8013 101.797 55.4539 101.728C56.2542 101.805 56.5096 101.953 57.1232 102.452C58.2439 103.285 59.4134 103.96 60.6415 104.617C60.9148 104.768 60.9149 104.768 61.1937 104.922C62.3469 105.531 63.2886 105.875 64.6015 105.899C65.2712 105.401 65.2712 105.401 65.741 104.76C65.8915 104.609 66.0419 104.459 66.1969 104.304C66.1969 104.078 66.1969 103.853 66.1969 103.62C66.0515 103.576 65.9061 103.531 65.7562 103.486C58.2755 101.169 58.2755 101.169 56.3967 99.29C56.3397 98.6063 56.3397 98.6063 56.3967 97.9226C56.8525 97.4668 56.8525 97.4668 57.4223 97.3528C58.2362 97.4691 58.5533 97.634 59.2313 98.065C61.4845 99.4904 64.0462 100.267 66.5672 101.085C66.8915 101.191 66.8915 101.191 67.2222 101.299C67.4274 101.364 67.6325 101.429 67.8439 101.496C68.1174 101.583 68.1174 101.583 68.3964 101.672C68.9713 101.806 69.4831 101.819 70.0714 101.797C70.5218 100.955 70.8184 100.228 70.983 99.29C70.8385 99.2086 70.6941 99.1273 70.5452 99.0434C69.1535 98.2589 67.7628 97.4724 66.373 96.6845C65.8763 96.4037 65.3788 96.1247 64.8801 95.8473C62.905 94.7312 60.6539 93.4534 59.3595 91.5411C59.4293 90.3317 59.4293 90.3317 59.8154 89.9457C60.645 89.8513 61.0568 89.8618 61.7606 90.3303C61.9507 90.5042 62.1408 90.6781 62.3366 90.8573C63.6862 92.0201 65.1117 92.9345 66.6527 93.8202C66.8161 93.9147 66.9795 94.0092 67.1479 94.1065C70.2275 96.2061 70.2275 96.2061 73.604 96.8703C74.2938 96.4887 74.6494 96.0681 75.1281 95.444C75.2818 95.2472 75.4354 95.0504 75.5938 94.8476C76.2872 93.9014 76.2872 93.9014 76.4324 92.7741C76.2728 92.1969 76.2728 92.1969 75.7825 91.9105C75.5854 91.8215 75.3882 91.7325 75.1851 91.6408C73.9502 91.0209 72.8781 90.2787 71.7807 89.4471C71.5434 89.2682 71.5434 89.2682 71.3012 89.0856C70.148 88.2052 70.148 88.2052 69.7269 87.7504C69.1649 87.2341 68.52 87.2922 67.778 87.225C63.8593 86.7903 61.7042 84.7662 59.299 81.7845C59.1686 81.6197 59.0381 81.4549 58.9037 81.2851C58.6264 81.3838 58.349 81.4825 58.0633 81.5842C56.0444 82.2456 54.2326 82.6996 52.0949 82.5813C50.968 82.5297 50.968 82.5297 49.9885 82.9917C49.6082 83.4483 49.6082 83.4483 49.2691 83.9524C47.9736 85.6759 45.7617 86.7981 43.7192 87.3817C42.243 87.5371 41.081 87.436 39.7592 86.7549C39.0976 86.1951 38.6886 85.7712 38.5333 84.9067C38.4216 83.301 38.8293 82.3402 39.6806 80.9897C40.4655 79.7251 40.9779 78.4081 41.4632 77.0041C41.8642 75.8879 42.2908 75.0451 43.1779 74.2198C43.8414 73.9084 44.522 73.7235 45.2291 73.5361C45.6106 73.4206 45.9917 73.3033 46.3722 73.1844C46.5666 73.124 46.761 73.0635 46.9614 73.0012C49.1617 72.3032 51.1275 71.5251 52.978 70.1174C52.978 70.0422 52.978 69.967 52.978 69.8895C48.0291 69.5891 43.5676 71.9016 39.3456 74.2579ZM78.9314 73.764C78.7663 73.8486 78.6012 73.9332 78.4311 74.0204C78.2416 74.1191 78.2416 74.1191 78.0482 74.2198C78.5866 75.3221 79.14 76.4149 79.7229 77.4943C81.3289 80.4746 82.6217 83.4163 83.5751 86.6695C83.6313 86.8597 83.6875 87.0499 83.7453 87.2458C84.4924 89.9019 84.7288 92.492 84.7004 95.2446C84.7002 95.5184 84.7001 95.7923 84.6999 96.0744C84.6927 97.5442 84.6251 98.9727 84.4297 100.43C85.7534 100.141 85.7534 100.141 86.9368 99.518C87.1003 98.6901 87.0557 97.8387 87.0507 96.9967C87.0488 96.6144 87.0488 96.6144 87.0468 96.2244C86.9889 93.4416 86.4769 90.8137 85.7972 88.1224C85.7411 87.8984 85.6849 87.6744 85.6271 87.4436C84.3693 82.5552 82.4789 77.8667 80.3274 73.3082C79.7519 73.3082 79.441 73.501 78.9314 73.764ZM26.3125 74.9036C26.292 75.1094 26.2715 75.3152 26.2505 75.5273C25.2908 84.9861 23.4963 94.249 19.2543 102.846C18.9743 103.398 18.9743 103.398 19.0193 104.076C19.3023 104.236 19.5877 104.392 19.874 104.546C20.0326 104.633 20.1913 104.721 20.3547 104.811C20.8265 105.013 20.8265 105.013 21.2922 104.989C22.0135 104.632 22.382 104.013 22.8226 103.364C22.9217 103.221 23.0208 103.077 23.123 102.93C23.431 102.479 23.7332 102.025 24.0333 101.569C24.1232 101.433 24.213 101.297 24.3055 101.157C28.4562 94.78 30.4535 87.5217 30.4576 79.9461C30.4618 79.5327 30.4618 79.5327 30.466 79.111C30.4665 78.8466 30.4669 78.5822 30.4674 78.3098C30.4683 78.0713 30.4693 77.8327 30.4702 77.587C30.4137 76.9415 30.3249 76.5746 29.959 76.0431C29.4189 75.7916 28.9263 75.596 28.3637 75.4164C28.2173 75.3661 28.071 75.3159 27.9203 75.2641C27.1336 74.9922 27.1336 74.9922 26.3125 74.9036ZM35.6995 97.1106C34.3137 98.1281 33.1726 99.553 32.4661 101.113C32.4918 101.761 32.4918 101.761 32.694 102.253C33.5904 101.954 33.7113 101.581 34.2039 100.786C35.0966 99.4001 36.1121 98.2038 37.2522 97.0109C36.5317 96.778 36.4128 96.7461 35.6995 97.1106ZM81.3903 97.3884C80.1799 97.7245 79.1368 97.9592 77.8773 97.8798C76.7016 97.8375 76.1375 98.164 75.2795 98.9464C74.8575 99.29 74.8575 99.29 74.2717 99.4654C73.6461 99.7099 73.6461 99.7099 73.3974 100.448C73.274 100.869 73.274 100.869 73.1482 101.299C72.7873 102.522 72.4546 103.275 71.4388 104.076C70.9011 104.183 70.9011 104.183 70.3562 104.19C69.4504 104.321 69.2001 104.485 68.5882 105.193C68.2244 105.715 67.8941 106.252 67.5661 106.796C67.0538 107.578 66.6459 108.007 65.774 108.34C65.122 108.429 64.5029 108.375 63.8465 108.335C62.8267 108.325 62.2239 108.323 61.4677 109.033C61.291 109.22 61.291 109.22 61.1107 109.41C59.785 110.668 57.8463 110.979 56.0931 110.966C55.3043 110.898 54.6281 110.683 53.8915 110.402C53.4393 110.232 52.9924 110.11 52.5222 110.002C52.4256 110.123 52.3289 110.244 52.2293 110.369C51.1394 111.681 50.1685 112.625 48.4341 112.95C47.4028 113.038 46.6118 112.696 45.6849 112.281C44.8623 111.955 44.3553 111.824 43.4627 111.854C42.1058 111.882 40.7939 111.438 39.7823 110.522C39.2621 109.923 38.8319 109.295 38.3917 108.634C37.7358 108.493 37.7358 108.493 36.9815 108.435C35.6556 108.255 34.7612 108.024 33.8335 107.039C33.5447 106.643 33.2763 106.239 33.0091 105.828C32.6399 105.378 32.2746 105.158 31.7681 104.874C30.7719 104.302 30.4262 103.755 29.959 102.709C29.9238 102.406 29.9238 102.406 29.8878 102.096C29.6949 101.447 29.5179 101.378 28.9477 101.042C28.2168 100.625 28.2168 100.625 27.6799 100.658C27.3101 101.212 26.965 101.766 26.6258 102.338C25.7086 103.849 24.7206 105.233 23.5775 106.583C23.4265 106.789 23.2755 106.994 23.1199 107.205C22.6659 107.723 22.6659 107.723 21.8682 107.865C20.7252 107.801 19.7356 107.306 18.7086 106.832C18.1108 106.54 18.1108 106.54 17.4239 106.583C17.2735 106.809 17.1231 107.034 16.9681 107.267C16.5168 107.38 16.5168 107.38 16.0565 107.495C16.0565 109.676 16.0565 111.857 16.0565 114.104C39.9734 114.104 63.8904 114.104 88.5321 114.104C88.5321 111.773 88.5321 109.441 88.5321 107.039C87.5544 107.114 86.5767 107.189 85.5693 107.267C85.1135 106.583 85.1135 106.583 85.142 105.999C85.4127 104.936 85.8244 103.945 86.253 102.937C85.9027 102.941 85.9027 102.941 85.5453 102.945C85.2352 102.947 84.925 102.949 84.6149 102.951C84.3847 102.954 84.3847 102.954 84.1498 102.957C83.3006 102.961 82.5201 102.912 81.6948 102.709C81.6298 100.855 81.8808 99.0675 82.1506 97.2388C81.8671 97.2286 81.8671 97.2286 81.3903 97.3884ZM39.3034 98.8342C38.1402 99.8003 37.2117 100.95 36.3263 102.167C36.0614 102.531 36.0614 102.531 35.7912 102.903C35.366 103.745 35.3747 104.1 35.6568 104.988C36.1014 105.583 36.1014 105.583 36.7964 105.899C37.5025 105.898 37.9685 105.894 38.6196 105.672C39.0632 105.172 39.3251 104.806 39.631 104.233C39.8004 103.943 39.9707 103.654 40.142 103.365C40.2706 103.145 40.2706 103.145 40.4018 102.92C40.832 102.218 41.3238 101.567 41.8246 100.914C42.0824 100.576 42.0824 100.576 42.3455 100.232C42.4697 100.072 42.594 99.9111 42.722 99.7459C41.6275 98.3235 40.9301 97.7497 39.3034 98.8342ZM45.1014 100.914C44.7356 101.313 44.419 101.727 44.1037 102.167C43.9877 102.323 43.8716 102.478 43.752 102.637C43.4017 103.112 43.0614 103.593 42.722 104.076C42.6189 104.217 42.5158 104.359 42.4096 104.504C42.1306 104.888 41.862 105.278 41.5967 105.672C41.4443 105.897 41.2918 106.123 41.1347 106.355C40.8154 107.064 40.8154 107.064 41.1569 107.894C41.6639 108.776 41.9851 109.015 42.95 109.318C43.641 109.428 43.641 109.428 44.3174 109.09C46.149 107.369 47.7136 104.427 48.4198 102.025C48.2271 101.842 48.0344 101.658 47.8358 101.469C47.7274 101.366 47.619 101.263 47.5073 101.157C46.7442 100.702 45.8911 100.345 45.1014 100.914ZM50.2431 104.76C50.1056 105.007 49.9681 105.255 49.8265 105.51C49.6425 105.839 49.4585 106.168 49.2745 106.498C49.1843 106.66 49.0941 106.823 49.0012 106.99C48.5813 107.74 48.1565 108.473 47.6684 109.181C47.2386 109.719 47.2386 109.719 47.2803 110.23C48.0966 110.305 48.5145 110.323 49.1979 109.845C50.2473 108.748 51.0841 107.791 51.6106 106.355C51.5756 105.55 51.497 105.33 50.9268 104.76C50.7012 104.76 50.4756 104.76 50.2431 104.76Z" fill="#3B3B3B"/>
<path d="M40.1569 41.3138C40.4905 41.3109 40.4905 41.3109 40.8309 41.308C41.0745 41.3093 41.3182 41.3107 41.5693 41.3121C41.8261 41.3109 42.083 41.3097 42.3476 41.3085C43.199 41.3055 44.0502 41.3075 44.9016 41.3098C45.4917 41.3093 46.0818 41.3087 46.672 41.3078C47.9097 41.3068 49.1473 41.3082 50.385 41.3115C51.8162 41.3152 53.2474 41.314 54.6786 41.3102C56.0551 41.3068 57.4315 41.3071 58.8079 41.3091C59.3939 41.3096 59.9798 41.309 60.5657 41.3074C61.3837 41.3057 62.2016 41.3083 63.0196 41.3121C63.3851 41.3101 63.3851 41.3101 63.758 41.308C63.9804 41.3099 64.2028 41.3118 64.432 41.3138C64.6254 41.3141 64.8189 41.3143 65.0182 41.3146C65.6288 41.4207 65.831 41.591 66.197 42.0843C66.2838 42.733 66.2838 42.733 66.2855 43.5319C66.2876 43.8308 66.2898 44.1297 66.292 44.4377C66.2908 44.7643 66.2894 45.0909 66.2878 45.4175C66.2883 45.7522 66.2889 46.0868 66.2898 46.4214C66.2908 47.1227 66.2893 47.8238 66.2861 48.5251C66.2823 49.4241 66.2845 50.323 66.2886 51.222C66.2911 51.913 66.2903 52.6039 66.2885 53.2949C66.288 53.6264 66.2886 53.9579 66.2902 54.2893C66.2919 54.7525 66.2888 55.2157 66.2855 55.6789C66.2849 55.9425 66.2844 56.2062 66.2838 56.4778C66.197 57.1265 66.197 57.1265 65.9173 57.5035C65.3922 57.9021 65.0877 57.8962 64.432 57.897C64.2096 57.899 63.9872 57.9009 63.758 57.9029C63.3925 57.9008 63.3925 57.9008 63.0196 57.8987C62.6343 57.9005 62.6343 57.9005 62.2412 57.9023C61.3899 57.9053 60.5386 57.9033 59.6873 57.901C59.0972 57.9015 58.5071 57.9021 57.9169 57.903C56.6792 57.904 55.4416 57.9026 54.2039 57.8993C52.7726 57.8956 51.3415 57.8968 49.9103 57.9006C48.5338 57.9041 47.1574 57.9037 45.781 57.9017C45.195 57.9012 44.6091 57.9018 44.0232 57.9034C43.2051 57.9051 42.3873 57.9025 41.5693 57.8987C41.3256 57.9001 41.0819 57.9014 40.8309 57.9029C40.4973 57.9 40.4973 57.9 40.1569 57.897C39.9635 57.8968 39.77 57.8965 39.5707 57.8962C38.9601 57.7901 38.7579 57.6198 38.3919 57.1265C38.3051 56.4778 38.3051 56.4778 38.3034 55.6789C38.3013 55.38 38.2991 55.0811 38.2969 54.7731C38.2981 54.4465 38.2995 54.1199 38.3011 53.7933C38.3006 53.4586 38.2999 53.124 38.2991 52.7894C38.2981 52.0881 38.2995 51.387 38.3027 50.6858C38.3066 49.7867 38.3044 48.8878 38.3003 47.9888C38.2978 47.2979 38.2986 46.6069 38.3004 45.9159C38.3008 45.5845 38.3003 45.253 38.2987 44.9215C38.297 44.4583 38.3001 43.9951 38.3034 43.5319C38.3039 43.2683 38.3045 43.0047 38.3051 42.733C38.3919 42.0843 38.3919 42.0843 38.6716 41.7074C39.1967 41.3087 39.5012 41.3147 40.1569 41.3138ZM41.1268 44.1355C41.1268 47.7457 41.1268 51.3558 41.1268 55.0753C48.4974 55.0753 55.8681 55.0753 63.4621 55.0753C63.4621 51.4652 63.4621 47.8551 63.4621 44.1355C56.0914 44.1355 48.7208 44.1355 41.1268 44.1355Z" fill="#3B3B3B"/>
</svg>
