<svg width="119" height="119" viewBox="0 0 119 119" fill="none" xmlns="http://www.w3.org/2000/svg">
<path d="M54.0997 0.00886114C54.366 0.00593696 54.6322 0.00301279 54.9065 0C55.1931 0.00187783 55.4796 0.00375565 55.7748 0.00569038C56.0699 0.00480285 56.3649 0.00391532 56.6689 0.0030009C57.2929 0.00236948 57.9165 0.00361514 58.5404 0.00795521C59.339 0.0132408 60.1374 0.0101966 60.936 0.00464113C61.6991 0.000477894 62.4621 0.00339504 63.2252 0.00569038C63.5117 0.00381256 63.7983 0.00193473 64.0935 0C64.4928 0.00438626 64.4928 0.00438627 64.9003 0.00886114C65.1344 0.00959919 65.3685 0.0103372 65.6097 0.0110977C66.3977 0.161807 66.659 0.435599 67.1533 1.05657C67.3881 1.48197 67.3881 1.48197 67.5567 1.92094C67.6216 2.08653 67.6865 2.25212 67.7534 2.42272C67.8197 2.5991 67.8859 2.77549 67.9541 2.95721C68.0603 3.23157 68.0603 3.23157 68.1686 3.51147C68.317 3.89659 68.4643 4.28218 68.6105 4.66818C68.8349 5.26057 69.0628 5.85153 69.2913 6.44233C69.4352 6.81701 69.579 7.19176 69.7225 7.56659C69.7906 7.74391 69.8587 7.92123 69.9289 8.10393C70.4002 9.35118 70.4002 9.35118 70.4002 9.86947C70.6256 9.91491 70.851 9.96035 71.0832 10.0072C76.1876 11.0916 81.6405 12.963 85.8635 16.1041C86.6026 16.4594 86.9995 16.3111 87.794 16.1313C88.2884 15.9413 88.7767 15.735 89.2589 15.5161C89.5317 15.3934 89.8045 15.2707 90.0856 15.1443C90.3702 15.0143 90.6548 14.8843 90.9394 14.7542C91.5 14.5004 92.0609 14.2474 92.6217 13.9942C92.8691 13.8815 93.1166 13.7688 93.3715 13.6527C93.5973 13.5522 93.8232 13.4518 94.0558 13.3482C94.2385 13.2584 94.4211 13.1685 94.6093 13.076C95.4738 12.8027 96.1914 12.6522 97.0708 12.8844C97.8867 13.4261 98.5467 14.1002 99.2305 14.7977C99.4286 14.9941 99.6268 15.1905 99.8309 15.3928C100.248 15.8085 100.663 16.2266 101.075 16.6469C101.707 17.2887 102.348 17.9201 102.991 18.551C103.395 18.9566 103.799 19.3627 104.202 19.7695C104.394 19.9578 104.586 20.146 104.784 20.34C106.231 21.8353 106.231 21.8353 106.283 22.8753C106.095 23.8957 105.795 24.7204 105.346 25.6499C105.269 25.8195 105.191 25.9892 105.111 26.164C104.864 26.7011 104.614 27.2361 104.362 27.7707C104.029 28.4778 103.701 29.1867 103.375 29.8969C103.259 30.1379 103.259 30.1379 103.141 30.3838C102.723 31.294 102.52 31.8729 102.869 32.8294C103.076 33.2902 103.076 33.2902 103.342 33.7254C103.437 33.8907 103.533 34.0561 103.631 34.2264C103.734 34.4016 103.836 34.5767 103.941 34.7572C105.557 37.6079 106.763 40.4799 107.811 43.5846C107.89 43.8162 107.968 44.0478 108.049 44.2864C108.517 45.7105 108.875 47.1227 109.131 48.5998C109.404 48.6886 109.678 48.7774 109.959 48.8689C111.383 49.3443 112.792 49.861 114.198 50.3871C114.503 50.5007 114.809 50.6134 115.115 50.725C115.562 50.8884 116.009 51.0551 116.455 51.2225C116.719 51.3201 116.982 51.4177 117.254 51.5182C117.986 51.8669 118.361 52.1482 118.871 52.7744C118.989 53.3903 118.989 53.3903 118.991 54.0997C118.996 54.4991 118.996 54.4991 119 54.9065C118.997 55.3363 118.997 55.3363 118.994 55.7748C118.995 56.0699 118.996 56.3649 118.997 56.6689C118.998 57.2929 118.996 57.9165 118.992 58.5404C118.987 59.339 118.99 60.1374 118.995 60.936C119 61.6991 118.997 62.4621 118.994 63.2252C118.996 63.5117 118.998 63.7983 119 64.0935C118.997 64.3597 118.994 64.6259 118.991 64.9003C118.99 65.1344 118.99 65.3685 118.989 65.6097C118.838 66.3977 118.564 66.659 117.943 67.1533C117.518 67.3881 117.518 67.3881 117.079 67.5567C116.913 67.6216 116.748 67.6865 116.577 67.7534C116.401 67.8197 116.225 67.8859 116.043 67.9541C115.86 68.0249 115.677 68.0957 115.489 68.1686C115.103 68.317 114.718 68.4643 114.332 68.6105C113.739 68.8349 113.148 69.0628 112.558 69.2913C112.183 69.4352 111.808 69.579 111.433 69.7225C111.256 69.7906 111.079 69.8587 110.896 69.9289C109.649 70.4002 109.649 70.4002 109.131 70.4002C109.062 70.7383 109.062 70.7383 108.993 71.0832C107.896 76.243 105.971 81.3946 102.955 85.7457C102.551 86.5797 102.655 86.8996 102.869 87.794C103.1 88.3706 103.339 88.9267 103.602 89.4881C103.749 89.8133 103.896 90.1385 104.043 90.4638C104.275 90.9702 104.507 91.4761 104.741 91.9811C104.968 92.4727 105.191 92.966 105.413 93.4597C105.484 93.6081 105.554 93.7565 105.627 93.9094C106.088 94.9438 106.441 95.9585 106.116 97.0708C105.571 97.8851 104.9 98.5465 104.202 99.2305C104.006 99.4286 103.81 99.6268 103.607 99.8309C103.191 100.248 102.773 100.663 102.353 101.075C101.711 101.707 101.08 102.348 100.449 102.991C100.043 103.395 99.6373 103.799 99.2305 104.202C99.0422 104.394 98.854 104.586 98.66 104.784C97.1647 106.231 97.1647 106.231 96.1247 106.283C95.1043 106.095 94.2796 105.795 93.3501 105.346C93.1805 105.269 93.0108 105.191 92.836 105.111C92.2989 104.864 91.7639 104.614 91.2293 104.362C90.5222 104.029 89.8133 103.701 89.1031 103.375C88.8621 103.259 88.8621 103.259 88.6162 103.141C87.7065 102.723 87.1268 102.52 86.1706 102.869C85.7288 103.068 85.7288 103.068 85.3154 103.325C85.0763 103.465 85.0763 103.465 84.8324 103.608C84.6617 103.708 84.4911 103.809 84.3153 103.912C80.1018 106.311 75.2446 108.484 70.4002 109.131C70.3114 109.404 70.2226 109.678 70.1311 109.959C69.6557 111.383 69.139 112.792 68.6129 114.198C68.4992 114.503 68.3866 114.809 68.275 115.115C68.1116 115.562 67.9449 116.009 67.7775 116.455C67.6799 116.719 67.5823 116.982 67.4818 117.254C67.1331 117.986 66.8518 118.361 66.2256 118.871C65.6097 118.989 65.6097 118.989 64.9003 118.991C64.5009 118.996 64.5009 118.996 64.0935 119C63.8069 118.998 63.5204 118.996 63.2252 118.994C62.9301 118.995 62.6351 118.996 62.3311 118.997C61.7071 118.998 61.0835 118.996 60.4596 118.992C59.661 118.987 58.8626 118.99 58.064 118.995C57.3009 119 56.5379 118.997 55.7748 118.994C55.4883 118.996 55.2017 118.998 54.9065 119C54.6403 118.997 54.3741 118.994 54.0997 118.991C53.7486 118.99 53.7486 118.99 53.3903 118.989C52.6023 118.838 52.3409 118.564 51.8467 117.943C51.6119 117.518 51.6119 117.518 51.4433 117.079C51.3784 116.913 51.3135 116.748 51.2466 116.577C51.1803 116.401 51.1141 116.225 51.0458 116.043C50.9751 115.86 50.9043 115.677 50.8314 115.489C50.683 115.103 50.5357 114.718 50.3895 114.332C50.1651 113.739 49.9372 113.148 49.7087 112.558C49.5648 112.183 49.421 111.808 49.2775 111.433C49.2094 111.256 49.1413 111.079 49.0711 110.896C48.5998 109.649 48.5998 109.649 48.5998 109.131C48.2617 109.062 48.2617 109.062 47.9168 108.993C42.757 107.896 37.6054 105.971 33.2543 102.955C32.4203 102.551 32.1004 102.655 31.206 102.869C30.6294 103.1 30.0733 103.339 29.5119 103.602C29.1867 103.749 28.8615 103.896 28.5362 104.043C28.0298 104.275 27.5239 104.507 27.0189 104.741C26.5273 104.968 26.034 105.191 25.5403 105.413C25.3919 105.484 25.2435 105.554 25.0906 105.627C24.0562 106.088 23.0415 106.441 21.9292 106.116C21.1149 105.571 20.4535 104.9 19.7695 104.202C19.5714 104.006 19.3732 103.81 19.1691 103.607C18.7521 103.191 18.3374 102.773 17.9249 102.353C17.293 101.711 16.6518 101.08 16.009 100.449C15.6046 100.043 15.2009 99.6373 14.7977 99.2305C14.6057 99.0422 14.4137 98.854 14.2158 98.66C12.7689 97.1647 12.7689 97.1647 12.7168 96.1247C12.9049 95.1043 13.2052 94.2796 13.6535 93.3501C13.7313 93.1805 13.8091 93.0108 13.8892 92.836C14.1356 92.2989 14.3864 91.7639 14.6383 91.2293C14.9708 90.5222 15.299 89.8133 15.6248 89.1031C15.7021 88.9424 15.7794 88.7818 15.8591 88.6162C16.2768 87.706 16.4804 87.1271 16.1313 86.1706C15.9243 85.7098 15.9243 85.7098 15.6584 85.2746C15.515 85.0266 15.515 85.0266 15.3688 84.7736C15.2665 84.5984 15.1641 84.4232 15.0586 84.2428C13.4427 81.3921 12.237 78.5201 11.1885 75.4154C11.1101 75.1838 11.0318 74.9522 10.951 74.7136C10.4831 73.2895 10.1251 71.8773 9.86947 70.4002C9.59592 70.3114 9.32238 70.2226 9.04054 70.1311C7.61657 69.6557 6.20809 69.139 4.8022 68.6129C4.49699 68.4992 4.19138 68.3866 3.8854 68.275C3.43766 68.1116 2.99126 67.9449 2.54502 67.7775C2.28139 67.6799 2.01777 67.5823 1.74615 67.4818C1.01405 67.1331 0.638558 66.8518 0.128897 66.2256C0.0110977 65.6097 0.0110977 65.6097 0.00886114 64.9003C0.00593696 64.634 0.00301279 64.3678 0 64.0935C0.00187782 63.8069 0.00375565 63.5204 0.00569038 63.2252C0.00480285 62.9301 0.00391532 62.6351 0.0030009 62.3311C0.00236948 61.7071 0.00361514 61.0835 0.00795521 60.4596C0.0132408 59.661 0.0101984 58.8626 0.0046429 58.064C0.000479663 57.3009 0.00339504 56.5379 0.00569038 55.7748C0.00381256 55.4883 0.00193473 55.2017 0 54.9065C0.00292418 54.6403 0.00584835 54.3741 0.00886114 54.0997C0.00959919 53.8656 0.0103372 53.6315 0.0110977 53.3903C0.161807 52.6023 0.435599 52.3409 1.05657 51.8467C1.48197 51.6119 1.48197 51.6119 1.92094 51.4433C2.08653 51.3784 2.25212 51.3135 2.42272 51.2466C2.5991 51.1803 2.77549 51.1141 2.95721 51.0458C3.14012 50.9751 3.32302 50.9043 3.51147 50.8314C3.89659 50.683 4.28218 50.5357 4.66818 50.3895C5.26057 50.1651 5.85153 49.9372 6.44233 49.7087C6.81701 49.5648 7.19176 49.421 7.56659 49.2775C7.74391 49.2094 7.92123 49.1413 8.10393 49.0711C9.35118 48.5998 9.35118 48.5998 9.86947 48.5998C9.91491 48.3744 9.96035 48.149 10.0072 47.9168C11.0916 42.8124 12.963 37.3595 16.1041 33.1365C16.4618 32.3924 16.317 32.0074 16.1313 31.206C15.9003 30.6294 15.6609 30.0733 15.3984 29.5119C15.251 29.1867 15.1038 28.8615 14.9567 28.5362C14.7255 28.0298 14.4932 27.5239 14.2589 27.0189C14.0317 26.5273 13.8089 26.034 13.5865 25.5403C13.5162 25.3919 13.4459 25.2435 13.3735 25.0906C12.9118 24.0562 12.5588 23.0415 12.8844 21.9292C13.4289 21.1149 14.1 20.4535 14.7977 19.7695C14.9941 19.5714 15.1905 19.3732 15.3928 19.1691C15.8085 18.7521 16.2266 18.3374 16.6469 17.9249C17.2887 17.293 17.9201 16.6518 18.551 16.009C18.9566 15.6046 19.3627 15.2009 19.7695 14.7977C19.9578 14.6057 20.146 14.4137 20.34 14.2158C21.8353 12.7689 21.8353 12.7689 22.8753 12.7168C23.8957 12.9049 24.7204 13.2052 25.6499 13.6535C25.9044 13.7702 25.9044 13.7702 26.164 13.8892C26.7011 14.1356 27.2361 14.3864 27.7707 14.6383C28.4778 14.9708 29.1867 15.299 29.8969 15.6248C30.0576 15.7021 30.2182 15.7794 30.3838 15.8591C31.2955 16.2775 31.8729 16.4839 32.8294 16.1313C33.3655 15.8828 33.3655 15.8828 33.8957 15.5651C34.1994 15.392 34.1994 15.392 34.5093 15.2155C34.7251 15.092 34.9408 14.9685 35.1631 14.8412C38.8784 12.7733 44.2554 9.86947 48.5998 9.86947C48.6886 9.59592 48.7774 9.32238 48.8689 9.04054C49.3443 7.61657 49.861 6.20809 50.3871 4.8022C50.5007 4.49699 50.6134 4.19138 50.725 3.8854C50.8884 3.43766 51.0551 2.99126 51.2225 2.54502C51.3201 2.28139 51.4177 2.01777 51.5182 1.74615C52.1238 0.474852 52.6834 0.0133263 54.0997 0.00886114ZM55.0935 3.83959C54.8532 4.4677 54.6128 5.09581 54.3652 5.74295C54.1302 6.35112 53.8943 6.9589 53.6582 7.56665C53.4948 7.98895 53.3324 8.41164 53.1711 8.83473C52.9388 9.44313 52.703 10.05 52.4664 10.6567C52.395 10.8459 52.3237 11.0351 52.2503 11.23C51.5946 12.8922 51.5946 12.8922 50.6871 13.3482C50.1019 13.5468 50.1019 13.5468 49.4405 13.7061C49.0727 13.7981 49.0727 13.7981 48.6974 13.892C48.4356 13.9565 48.1738 14.021 47.9041 14.0875C43.2131 15.304 38.6175 17.0956 34.5473 19.7738C34.3493 19.9033 34.1513 20.0328 33.9473 20.1663C33.7716 20.2869 33.5958 20.4075 33.4147 20.5317C32.3308 20.9723 31.4294 20.6265 30.3801 20.2097C30.091 20.074 29.8028 19.9362 29.5155 19.7967C29.1984 19.6483 28.8814 19.5001 28.5643 19.3518C28.0712 19.1182 27.5786 18.8835 27.0865 18.6478C26.6073 18.4193 26.1265 18.1946 25.6454 17.9703C25.4992 17.8988 25.353 17.8273 25.2024 17.7537C24.5909 17.4701 24.0963 17.291 23.4186 17.2899C22.6393 17.613 22.1061 18.1275 21.5179 18.7141C21.3955 18.834 21.273 18.9539 21.1469 19.0775C20.8896 19.3311 20.6335 19.5859 20.3786 19.8419C19.9877 20.2325 19.5904 20.6159 19.1924 20.9993C18.9429 21.2469 18.6937 21.495 18.445 21.7435C18.3257 21.8573 18.2064 21.9712 18.0835 22.0885C17.5258 22.661 17.2905 22.9597 17.2926 23.7718C17.5471 24.5551 17.8475 25.2841 18.1968 26.0304C18.3324 26.3249 18.468 26.6195 18.6035 26.9141C18.8167 27.3718 19.0305 27.8292 19.2448 28.2864C19.4529 28.7318 19.6584 29.1784 19.8637 29.6251C19.9873 29.8895 20.1109 30.1539 20.2383 30.4263C20.6643 31.5355 20.9402 32.4258 20.468 33.5433C20.237 33.9074 20.237 33.9074 20.0014 34.2789C19.8274 34.5654 19.6541 34.8523 19.4814 35.1395C19.3888 35.2913 19.2962 35.4431 19.2008 35.5995C16.6676 39.8148 14.7138 44.3821 13.7561 49.219C13.7184 49.3958 13.6806 49.5727 13.6418 49.7549C13.6125 49.9077 13.5833 50.0605 13.5532 50.218C13.1003 51.2547 12.302 51.8395 11.2906 52.2764C10.9446 52.4108 10.5974 52.542 10.2491 52.6702C10.0861 52.7328 9.92313 52.7955 9.75524 52.8601C9.152 53.091 8.5467 53.3165 7.94165 53.5426C5.91113 54.3103 5.91113 54.3103 3.83959 55.0935C3.83959 58.0018 3.83959 60.9101 3.83959 63.9064C4.4677 64.1468 5.09581 64.3872 5.74295 64.6348C6.35112 64.8698 6.9589 65.1057 7.56665 65.3418C7.98895 65.5052 8.41164 65.6676 8.83473 65.8289C9.44313 66.0612 10.05 66.297 10.6567 66.5336C10.9405 66.6406 10.9405 66.6406 11.23 66.7497C12.8922 67.4054 12.8922 67.4054 13.3482 68.3129C13.5468 68.8981 13.5468 68.8981 13.7061 69.5595C13.7674 69.8047 13.8288 70.0499 13.892 70.3026C13.9565 70.5644 14.021 70.8262 14.0875 71.0959C15.304 75.7869 17.0956 80.3825 19.7738 84.4527C19.9033 84.6507 20.0328 84.8487 20.1663 85.0527C20.2869 85.2284 20.4075 85.4042 20.5317 85.5853C20.9723 86.6692 20.6265 87.5706 20.2097 88.6199C20.074 88.909 19.9362 89.1972 19.7967 89.4845C19.6483 89.8016 19.5001 90.1186 19.3518 90.4357C19.1182 90.9288 18.8835 91.4214 18.6478 91.9135C18.4193 92.3927 18.1946 92.8735 17.9703 93.3546C17.8988 93.5008 17.8273 93.647 17.7537 93.7976C17.4701 94.4091 17.291 94.9037 17.2899 95.5814C17.613 96.3607 18.1275 96.8939 18.7141 97.4821C18.8939 97.6657 18.8939 97.6657 19.0775 97.8531C19.3311 98.1104 19.5859 98.3665 19.8419 98.6214C20.2325 99.0123 20.6159 99.4096 20.9993 99.8076C21.2469 100.057 21.495 100.306 21.7435 100.555C21.8573 100.674 21.9712 100.794 22.0885 100.917C22.661 101.474 22.9597 101.709 23.7718 101.707C24.5551 101.453 25.2841 101.152 26.0304 100.803C26.3249 100.668 26.6195 100.532 26.9141 100.396C27.3718 100.183 27.8292 99.9695 28.2864 99.7552C28.7318 99.5471 29.1784 99.3416 29.6251 99.1363C30.0217 98.9509 30.0217 98.9509 30.4263 98.7617C31.6255 98.3012 32.4636 98.0718 33.661 98.5909C33.9564 98.7663 34.2492 98.946 34.5398 99.1291C34.8699 99.3245 35.2003 99.5196 35.5309 99.7143C35.7828 99.8653 35.7828 99.8653 36.0398 100.019C40.1297 102.458 44.5342 104.317 49.2189 105.244C49.3958 105.282 49.5726 105.319 49.7549 105.358C49.9077 105.387 50.0605 105.417 50.218 105.447C51.2547 105.9 51.8395 106.698 52.2764 107.709C52.4108 108.055 52.542 108.403 52.6702 108.751C52.7328 108.914 52.7955 109.077 52.8601 109.245C53.091 109.848 53.3165 110.453 53.5426 111.058C54.0544 112.412 54.5662 113.766 55.0935 115.16C58.0018 115.16 60.9101 115.16 63.9064 115.16C64.1468 114.532 64.3872 113.904 64.6348 113.257C64.8698 112.649 65.1057 112.041 65.3418 111.433C65.5052 111.011 65.6676 110.588 65.8289 110.165C66.0612 109.557 66.297 108.95 66.5336 108.343C66.6406 108.06 66.6406 108.06 66.7497 107.77C67.4054 106.108 67.4054 106.108 68.3129 105.652C68.8981 105.453 68.8981 105.453 69.5595 105.294C69.9273 105.202 69.9273 105.202 70.3026 105.108C70.5644 105.043 70.8262 104.979 71.0959 104.913C75.7869 103.696 80.3825 101.904 84.4527 99.2262C84.6507 99.0967 84.8487 98.9672 85.0527 98.8337C85.2284 98.7131 85.4042 98.5925 85.5853 98.4683C86.6692 98.0277 87.5706 98.3735 88.6199 98.7903C88.909 98.926 89.1972 99.0638 89.4845 99.2033C89.8016 99.3517 90.1186 99.4999 90.4357 99.6481C90.9288 99.8818 91.4214 100.116 91.9135 100.352C92.3927 100.581 92.8735 100.805 93.3546 101.03C93.5008 101.101 93.647 101.173 93.7976 101.246C94.4091 101.53 94.9037 101.709 95.5814 101.71C96.3607 101.387 96.8939 100.873 97.4821 100.286C97.6045 100.166 97.727 100.046 97.8531 99.9225C98.1104 99.6689 98.3665 99.4141 98.6214 99.1581C99.0123 98.7674 99.4096 98.3841 99.8076 98.0007C100.057 97.7531 100.306 97.505 100.555 97.2565C100.674 97.1426 100.794 97.0288 100.917 96.9115C101.474 96.339 101.709 96.0403 101.707 95.2282C101.453 94.4449 101.152 93.7159 100.803 92.9696C100.668 92.675 100.532 92.3805 100.396 92.0859C100.183 91.6282 99.9695 91.1708 99.7552 90.7136C99.5471 90.2682 99.3416 89.8216 99.1363 89.3749C99.0127 89.1105 98.8891 88.8461 98.7617 88.5736C98.3012 87.3745 98.0718 86.5364 98.5909 85.339C98.7663 85.0436 98.9459 84.7508 99.1291 84.4602C99.3242 84.131 99.519 83.8015 99.7134 83.4718C99.814 83.304 99.9146 83.1362 100.018 82.9633C102.429 78.9087 104.137 74.6771 105.15 70.0639C105.199 69.852 105.248 69.6401 105.299 69.4218C105.36 69.1422 105.36 69.1422 105.422 68.8569C105.879 67.7754 106.657 67.1795 107.709 66.7236C108.055 66.5892 108.403 66.458 108.751 66.3298C108.914 66.2672 109.077 66.2045 109.245 66.1399C109.848 65.909 110.453 65.6835 111.058 65.4574C112.412 64.9456 113.766 64.4338 115.16 63.9064C115.16 60.9982 115.16 58.0899 115.16 55.0935C114.532 54.8532 113.904 54.6128 113.257 54.3652C112.649 54.1302 112.041 53.8943 111.433 53.6582C111.011 53.4948 110.588 53.3324 110.165 53.1711C109.557 52.9388 108.95 52.703 108.343 52.4664C108.154 52.395 107.965 52.3237 107.77 52.2503C106.108 51.5946 106.108 51.5946 105.652 50.6871C105.453 50.1019 105.453 50.1019 105.294 49.4405C105.202 49.0727 105.202 49.0727 105.108 48.6974C105.043 48.4356 104.979 48.1738 104.913 47.9041C103.696 43.2131 101.904 38.6175 99.2262 34.5473C99.0319 34.2503 99.0319 34.2503 98.8337 33.9473C98.7131 33.7716 98.5925 33.5958 98.4683 33.4147C98.0277 32.3308 98.3735 31.4294 98.7903 30.3801C98.926 30.091 99.0638 29.8028 99.2033 29.5155C99.3517 29.1984 99.4999 28.8814 99.6481 28.5643C99.8818 28.0712 100.116 27.5786 100.352 27.0865C100.581 26.6073 100.805 26.1265 101.03 25.6454C101.101 25.4992 101.173 25.353 101.246 25.2024C101.53 24.5909 101.709 24.0963 101.71 23.4186C101.387 22.6393 100.873 22.1061 100.286 21.5179C100.166 21.3955 100.046 21.273 99.9225 21.1469C99.6689 20.8896 99.4141 20.6335 99.1581 20.3786C98.7674 19.9877 98.3841 19.5904 98.0007 19.1924C97.7531 18.9429 97.505 18.6937 97.2565 18.445C97.1426 18.3257 97.0288 18.2064 96.9115 18.0835C96.339 17.5258 96.0403 17.2905 95.2282 17.2926C94.4449 17.5471 93.7159 17.8475 92.9696 18.1968C92.675 18.3324 92.3805 18.468 92.0859 18.6035C91.6282 18.8167 91.1708 19.0305 90.7136 19.2448C90.2682 19.4529 89.8216 19.6584 89.3749 19.8637C89.1105 19.9873 88.8461 20.1109 88.5736 20.2383C87.4645 20.6643 86.5742 20.9402 85.4567 20.468C85.214 20.314 84.9712 20.16 84.7211 20.0014C84.4356 19.8277 84.1496 19.6547 83.8632 19.4823C83.6357 19.3435 83.6357 19.3435 83.4036 19.2018C79.2199 16.6948 74.8301 14.8964 70.0638 13.8504C69.852 13.801 69.6401 13.7516 69.4218 13.7007C69.2354 13.6602 69.049 13.6198 68.8569 13.5782C67.7754 13.1211 67.1795 12.343 66.7236 11.2906C66.5892 10.9446 66.458 10.5974 66.3298 10.2491C66.2672 10.0861 66.2045 9.92313 66.1399 9.75524C65.909 9.152 65.6835 8.5467 65.4574 7.94165C64.9456 6.58797 64.4338 5.23429 63.9064 3.83959C60.9982 3.83959 58.0899 3.83959 55.0935 3.83959Z" fill="#3B3B3B"/>
<path d="M61.9817 36.5334C63.3954 37.3304 64.6717 38.3424 65.9579 39.3251C66.979 40.1046 68.0183 40.8567 69.0635 41.6036C69.2399 41.7299 69.4163 41.8562 69.5981 41.9863C70.1347 42.3704 70.6717 42.7541 71.2087 43.1378C73.5752 44.8308 75.9367 46.5299 78.2786 48.2564C79.1566 48.9033 80.0372 49.5448 80.9306 50.1705C81.0906 50.2836 81.2505 50.3968 81.4153 50.5133C81.7097 50.7211 82.0055 50.9268 82.3032 51.13C83.4898 51.9722 84.3735 52.9573 84.8434 54.3594C85.1304 58.0408 85.1304 58.0408 83.9031 59.5027C82.602 60.7075 81.3347 61.4441 79.5247 61.4168C79.3035 61.4153 79.0823 61.4138 78.8544 61.4122C78.2611 61.3729 78.2611 61.3729 77.5559 61.1392C77.555 61.3424 77.5542 61.5457 77.5533 61.7552C77.5444 63.6777 77.531 65.6002 77.5127 67.5227C77.5034 68.511 77.4958 69.4991 77.4922 70.4874C77.4886 71.4424 77.4805 72.3973 77.4693 73.3523C77.4658 73.7153 77.464 74.0783 77.4638 74.4413C77.4607 77.2233 77.1285 79.2232 75.1904 81.3085C74.0553 82.3144 72.6334 82.9072 71.1146 82.9155C70.7973 82.918 70.7973 82.918 70.4735 82.9205C70.242 82.9212 70.0105 82.9218 69.7719 82.9224C69.5276 82.924 69.2832 82.9255 69.0315 82.9271C68.2212 82.9317 67.411 82.9344 66.6007 82.9368C66.3239 82.9377 66.0471 82.9387 65.7619 82.9396C64.2961 82.9445 62.8304 82.9479 61.3647 82.9501C59.8525 82.9526 58.3404 82.9607 56.8283 82.97C55.6642 82.9761 54.5001 82.978 53.336 82.9789C52.7787 82.98 52.2215 82.9827 51.6642 82.9871C50.8826 82.9928 50.1013 82.9925 49.3197 82.9909C48.9767 82.9954 48.9767 82.9954 48.6267 83C46.4116 82.9833 44.7842 82.2365 43.1696 80.7459C41.8667 79.3447 41.5633 77.9697 41.5401 76.1079C41.5377 75.9459 41.5354 75.7839 41.533 75.6169C41.5256 75.0831 41.5198 74.5493 41.5139 74.0155C41.5091 73.6447 41.5042 73.2739 41.4991 72.9031C41.4862 71.9284 41.4746 70.9538 41.4632 69.9791C41.4514 68.984 41.4383 67.9889 41.4253 66.9938C41.4001 65.0423 41.3762 63.0907 41.3532 61.1392C41.0041 61.2549 41.0041 61.2549 40.648 61.3729C38.7648 61.5911 37.2576 61.3278 35.7113 60.204C34.2025 58.6365 33.9793 57.3202 34.0014 55.1822C34.0998 53.9222 34.438 53.0403 35.3533 52.1522C36.4017 51.2714 37.4876 50.4602 38.6057 49.6692C38.9822 49.4007 39.3587 49.1322 39.7352 48.8637C39.9261 48.728 40.1169 48.5923 40.3135 48.4525C41.2053 47.818 42.0949 47.1805 42.9841 46.5423C43.1579 46.4177 43.3316 46.293 43.5106 46.1646C44.7954 45.2413 46.0728 44.3083 47.3478 43.3716C49.4915 41.7974 51.6444 40.2366 53.8126 38.6959C53.965 38.5875 54.1174 38.4791 54.2744 38.3674C54.6924 38.0711 55.1117 37.7767 55.5316 37.4832C55.7635 37.3207 55.9953 37.1583 56.2341 36.991C57.9887 35.8874 60.0587 35.663 61.9817 36.5334ZM57.045 41.3114C56.7104 41.5711 56.3755 41.8305 56.0404 42.0894C55.8674 42.2243 55.6945 42.3592 55.5163 42.4981C54.6599 43.1561 53.7813 43.7823 52.9017 44.409C52.5444 44.6647 52.1872 44.9204 51.83 45.1761C51.4722 45.4318 51.1144 45.6875 50.7565 45.9432C50.0559 46.4445 49.3555 46.9461 48.6555 47.4482C48.3956 47.6346 48.3956 47.6346 48.1306 47.8247C46.6365 48.8983 45.1529 49.9859 43.6711 51.0762C42.3828 52.0226 41.0851 52.9546 39.7722 53.8669C38.8473 54.5037 38.8473 54.5037 38.0621 55.2946C37.9697 56.0298 37.9503 56.4945 38.3119 57.1502C39.052 57.5539 39.6077 57.3447 40.4129 57.1648C41.1476 56.7199 41.1476 56.7199 41.8381 56.1274C42.1064 55.912 42.3752 55.6971 42.6444 55.4827C42.781 55.3729 42.9175 55.2632 43.0583 55.1501C43.7023 54.6434 44.3701 54.1723 45.0411 53.7019C45.3178 53.5068 45.5945 53.3117 45.8712 53.1165C46.0146 53.0156 46.1579 52.9146 46.3056 52.8105C47.1406 52.2202 47.9716 51.6243 48.8024 51.028C48.979 50.9013 49.1557 50.7745 49.3377 50.644C50.4718 49.8284 51.6001 49.0051 52.7249 48.1768C53.4655 47.6321 54.2085 47.0905 54.9515 46.5489C55.4214 46.204 55.8873 45.8541 56.3526 45.5031C56.6175 45.3086 56.8826 45.1144 57.1478 44.9204C57.3693 44.7547 57.5909 44.5889 57.8191 44.4182C58.7034 43.979 59.4373 43.8691 60.3949 44.073C61.072 44.3925 61.64 44.8163 62.2315 45.2711C62.4876 45.4594 62.4876 45.4594 62.749 45.6515C63.1129 45.9196 63.4753 46.1896 63.8364 46.4614C64.5693 47.0121 65.3102 47.5517 66.0509 48.092C66.6147 48.5038 67.1771 48.9174 67.7394 49.3313C69.3341 50.503 70.9436 51.6542 72.5528 52.8062C73.6652 53.6031 74.7759 54.4023 75.887 55.201C76.2107 55.4336 76.5347 55.6659 76.859 55.8978C77.1692 56.1207 77.478 56.3457 77.7854 56.5726C78.6253 57.2009 78.6253 57.2009 79.6129 57.5155C80.1467 57.428 80.1467 57.428 80.5679 57.1356C81.0111 56.4397 81.0196 56.1058 80.847 55.2946C79.6465 53.773 77.6416 52.7069 76.0572 51.6088C74.9919 50.8701 73.9361 50.119 72.8836 49.3623C72.709 49.2368 72.5343 49.1112 72.3544 48.9818C70.8792 47.919 69.4131 46.8442 67.9481 45.7675C66.4675 44.6805 64.9779 43.6063 63.4831 42.5387C63.3213 42.423 63.1595 42.3073 62.9927 42.1881C62.835 42.0763 62.6774 41.9645 62.5149 41.8493C62.1869 41.6088 61.8657 41.359 61.5504 41.1023C60.8442 40.5336 60.3381 40.1393 59.4435 39.9352C58.452 40.1686 57.8272 40.6801 57.045 41.3114ZM57.2948 49.5815C56.9141 49.8671 56.5333 50.1527 56.1524 50.4381C55.9586 50.5855 55.7648 50.733 55.5652 50.8849C54.6848 51.549 53.7857 52.1861 52.887 52.8252C51.1568 54.0648 49.4388 55.3205 47.7249 56.5822C47.5474 56.7127 47.37 56.8432 47.1871 56.9776C46.9524 57.1506 46.9524 57.1506 46.7129 57.3271C46.3433 57.5939 45.9647 57.8481 45.5847 58.1C45.5136 58.7091 45.4884 59.263 45.4935 59.8728C45.4922 60.0557 45.491 60.2386 45.4897 60.427C45.4866 61.0337 45.4887 61.6402 45.4911 62.2469C45.4906 62.668 45.4899 63.0891 45.489 63.5102C45.488 64.394 45.4895 65.2778 45.4928 66.1616C45.4968 67.2936 45.4945 68.4256 45.4903 69.5576C45.4877 70.4279 45.4885 71.2981 45.4903 72.1683C45.4908 72.5856 45.4902 73.0029 45.4886 73.4202C45.4868 74.0045 45.4895 74.5886 45.4935 75.1729C45.492 75.345 45.4906 75.5171 45.4891 75.6945C45.502 76.7298 45.6598 77.377 46.29 78.2054C47.3821 79.193 48.7378 78.985 50.1247 78.9506C50.3661 78.9474 50.6075 78.9442 50.8562 78.941C51.45 78.9327 52.0435 78.9212 52.6372 78.9067C52.6386 78.72 52.6399 78.5332 52.6414 78.3408C52.655 76.5764 52.672 74.812 52.6926 73.0476C52.7031 72.1406 52.7123 71.2337 52.7186 70.3266C52.7248 69.4504 52.7343 68.5743 52.7461 67.6982C52.75 67.3648 52.7527 67.0314 52.7542 66.698C52.7696 63.5211 52.7696 63.5211 53.5775 62.0743C53.6551 61.8429 53.7327 61.6114 53.8126 61.3729C55.5599 60.2789 57.4521 60.3597 59.4399 60.3648C59.8806 60.3591 59.8806 60.3591 60.3302 60.3533C61.8723 60.3525 63.0323 60.3967 64.3913 61.1392C64.7404 61.2549 64.7404 61.2549 65.0965 61.3729C65.8558 62.5722 66.0954 63.8682 66.1118 65.265C66.1165 65.5691 66.1212 65.8732 66.126 66.1866C66.1288 66.515 66.1315 66.8434 66.1342 67.1719C66.1386 67.5106 66.1432 67.8493 66.148 68.188C66.16 69.0757 66.1694 69.9635 66.1781 70.8514C66.1876 71.7588 66.1996 72.6662 66.2113 73.5735C66.234 75.3512 66.2539 77.129 66.2719 78.9067C67.1094 78.9272 67.9468 78.9396 68.7844 78.9506C69.0212 78.9564 69.258 78.9623 69.502 78.9684C71.1936 79.0172 71.1936 79.0172 72.6192 78.2054C73.3424 77.2407 73.443 76.3827 73.4716 75.2137C73.4785 75.0337 73.4854 74.8537 73.4925 74.6683C73.5136 74.0745 73.5287 73.4808 73.542 72.8868C73.5467 72.6827 73.5513 72.4787 73.5561 72.2685C73.579 71.1872 73.5963 70.1061 73.6101 69.0247C73.6226 68.1343 73.6471 67.2454 73.6824 66.3556C74.1642 61.3306 74.1642 61.3306 72.4391 56.8808C71.5696 56.1716 70.6379 55.6941 69.5992 55.2749C68.9357 54.9943 68.4111 54.603 67.8514 54.1549C67.6851 54.0324 67.5187 53.91 67.3474 53.7839C67.1864 53.6652 67.0255 53.5466 66.8597 53.4243C66.3039 53.0166 65.7479 52.6092 65.1918 52.202C64.8068 51.9199 64.4219 51.6378 64.0371 51.3554C63.4607 50.9332 62.883 50.5128 62.3049 50.0929C62.1302 49.9645 61.9555 49.8361 61.7755 49.7039C61.3214 49.3752 60.8615 49.0594 60.3949 48.7486C60.2013 48.6169 60.0076 48.4852 59.8081 48.3496C58.7636 48.228 58.0852 48.9642 57.2948 49.5815ZM56.6336 64.4121C56.6115 64.8641 56.606 65.3168 56.6069 65.7692C56.6069 66.0594 56.6069 66.3496 56.6069 66.6486C56.6081 66.9676 56.6094 67.2866 56.6106 67.6057C56.6111 67.9303 56.6114 68.2549 56.6116 68.5796C56.6125 69.4355 56.6148 70.2914 56.6174 71.1473C56.6198 72.0201 56.6209 72.893 56.6221 73.7658C56.6246 75.4794 56.6288 77.1931 56.6336 78.9067C58.4954 78.9067 60.3573 78.9067 62.2756 78.9067C62.2809 77.0209 62.2852 75.1351 62.2877 73.2493C62.289 72.3737 62.2906 71.4981 62.2933 70.6225C62.2958 69.7782 62.2972 68.9339 62.2979 68.0896C62.2983 67.7668 62.2991 67.444 62.3004 67.1212C62.3021 66.6705 62.3022 66.2199 62.3022 65.7692C62.3028 65.5123 62.3033 65.2553 62.3038 64.9905C62.3415 64.4253 62.3415 64.4253 62.0405 64.1784C61.659 64.1552 61.2766 64.1478 60.8944 64.1473C60.6629 64.147 60.4314 64.1467 60.1929 64.1464C59.8274 64.1477 59.8274 64.1477 59.4546 64.1491C59.2109 64.1482 58.9673 64.1473 58.7163 64.1464C58.4847 64.1467 58.2532 64.147 58.0147 64.1473C57.8007 64.1476 57.5868 64.1478 57.3664 64.1481C56.8721 64.1233 56.8721 64.1233 56.6336 64.4121Z" fill="#3B3B3B"/>
<path d="M67.1754 24.8692C67.4592 24.9329 67.4592 24.9329 67.7487 24.9979C72.1878 26.0325 76.5453 27.9139 80.1884 30.6798C80.381 30.8242 80.5736 30.9686 80.7721 31.1174C87.559 36.3817 92.2382 43.3946 94.1309 51.8301C94.1716 52.0071 94.2123 52.184 94.2542 52.3663C95.3062 57.1537 95.2273 62.3988 94.1309 67.1699C94.0885 67.3591 94.046 67.5484 94.0023 67.7434C92.9678 72.1834 91.0868 76.5417 88.3215 80.1855C88.1772 80.3781 88.0328 80.5708 87.884 80.7693C82.6207 87.5575 75.6092 92.2377 67.1754 94.1308C66.9984 94.1714 66.8215 94.2121 66.6392 94.254C61.8528 95.3063 56.6087 95.2274 51.8386 94.1308C51.5548 94.0671 51.5548 94.0671 51.2652 94.0021C46.8261 92.9675 42.4686 91.0861 38.8255 88.3202C38.6329 88.1758 38.4403 88.0314 38.2419 87.8826C31.4549 82.6183 26.7757 75.6054 24.883 67.1699C24.8423 66.9929 24.8017 66.816 24.7598 66.6337C22.8126 57.7734 24.7026 48.4297 29.3462 40.7274C29.774 40.07 30.2184 39.4391 30.6924 38.8145C30.909 38.5255 30.909 38.5255 31.1299 38.2307C36.3932 31.4425 43.4047 26.7623 51.8386 24.8692C52.0155 24.8286 52.1924 24.7879 52.3747 24.746C57.1612 23.6937 62.4052 23.7726 67.1754 24.8692ZM35.7342 38.8369C29.8578 45.4315 27.7688 53.8748 28.1363 62.5215C28.8008 70.7592 33.2039 78.2463 39.2903 83.6718C46.0137 89.2914 54.5092 91.524 63.1564 90.8261C71.2827 89.899 78.804 85.5496 84.0202 79.3063C89.4186 72.4706 91.7482 63.9276 90.7624 55.2837C89.6079 47.1065 85.1186 39.3403 78.5089 34.3644C64.8626 24.5616 47.0813 26.6326 35.7342 38.8369Z" fill="#3B3B3B"/>
</svg>
