<svg width="129" height="177" viewBox="0 0 129 177" fill="none" xmlns="http://www.w3.org/2000/svg">
<path d="M13.1987 0.165201C13.6557 0.163202 14.1128 0.161203 14.5837 0.159143C16.1173 0.153551 17.6509 0.15428 19.1846 0.155008C20.2833 0.152368 21.382 0.149366 22.4807 0.146027C25.1568 0.139034 27.8328 0.136272 30.509 0.13578C32.6846 0.135361 34.8603 0.133547 37.036 0.13075C43.2067 0.12298 49.3773 0.118908 55.548 0.11957C56.0468 0.119623 56.0468 0.119623 56.5558 0.119677C57.0552 0.119731 57.0552 0.119731 57.5648 0.119786C62.9604 0.120145 68.3559 0.111702 73.7515 0.099259C79.2937 0.086579 84.8359 0.0804899 90.3782 0.081252C93.4889 0.0815448 96.5996 0.0791279 99.7103 0.0696234C102.636 0.0607411 105.562 0.0610075 108.487 0.067432C109.561 0.0683555 110.635 0.0662662 111.708 0.0609369C113.174 0.0541301 114.64 0.0582192 116.106 0.0650235C116.531 0.0604847 116.955 0.0559459 117.392 0.0512695C120.551 0.0836403 122.893 0.81504 125.29 2.91495C125.527 3.20217 125.765 3.48939 126.01 3.78531C126.255 4.0714 126.499 4.35748 126.751 4.65223C128.351 6.97369 128.402 9.057 128.399 11.7854C128.402 12.1846 128.405 12.5838 128.408 12.995C128.417 14.3126 128.418 15.63 128.419 16.9476C128.422 17.8658 128.425 18.7841 128.428 19.7023C128.434 21.6269 128.435 23.5514 128.435 25.4759C128.435 27.9372 128.447 30.3983 128.462 32.8596C128.472 34.7563 128.473 36.653 128.473 38.5498C128.474 39.4569 128.478 40.3641 128.485 41.2712C128.493 42.5426 128.491 43.8135 128.486 45.0849C128.49 45.4565 128.495 45.8282 128.501 46.2111C128.469 49.2118 127.627 51.5081 125.639 53.7767C125.352 54.0145 125.065 54.2522 124.769 54.4971C124.483 54.7417 124.197 54.9863 123.902 55.2382C121.455 56.9246 119.225 56.8804 116.348 56.8585C115.683 56.8587 115.683 56.8587 115.004 56.8589C113.541 56.8583 112.077 56.8515 110.614 56.8445C109.598 56.8429 108.583 56.8416 107.567 56.8408C104.895 56.8374 102.224 56.8287 99.5526 56.819C96.3462 56.8083 93.1399 56.8043 89.9336 56.7991C85.0642 56.7906 80.195 56.7737 75.3257 56.7584C75.3257 66.0768 75.3257 75.3952 75.3257 84.9959C79.0385 84.9652 79.0385 84.9652 82.8263 84.9339C84.3987 84.9249 85.9711 84.9164 87.5435 84.9098C90.0368 84.8992 92.53 84.8868 95.0232 84.8628C97.0343 84.8436 99.0454 84.8331 101.057 84.8285C101.822 84.8252 102.588 84.8189 103.353 84.8093C104.429 84.7964 105.505 84.7948 106.581 84.7956C106.894 84.7892 107.208 84.7829 107.53 84.7764C110.361 84.7994 112.595 85.783 114.7 87.6277C114.938 87.9149 115.176 88.2021 115.421 88.4981C115.665 88.7841 115.91 89.0702 116.162 89.365C117.579 91.421 117.794 93.1793 117.8 95.6526C117.802 95.9655 117.804 96.2784 117.806 96.6008C117.812 97.6466 117.811 98.6924 117.81 99.7383C117.813 100.489 117.816 101.24 117.819 101.991C117.827 104.03 117.829 106.068 117.83 108.106C117.83 109.38 117.832 110.655 117.835 111.929C117.843 116.375 117.846 120.822 117.846 125.269C117.845 129.411 117.854 133.553 117.868 137.695C117.88 141.254 117.885 144.813 117.884 148.371C117.884 150.496 117.886 152.62 117.896 154.744C117.904 156.743 117.904 158.741 117.898 160.74C117.897 161.472 117.899 162.204 117.904 162.936C117.956 170.471 117.956 170.471 115.05 173.786C114.763 174.024 114.476 174.262 114.18 174.507C113.894 174.751 113.608 174.996 113.313 175.248C111.121 176.759 109.093 176.896 106.489 176.886C106.119 176.888 105.748 176.89 105.367 176.892C104.126 176.898 102.885 176.897 101.644 176.896C100.754 176.899 99.8635 176.902 98.9735 176.905C96.5559 176.913 94.1383 176.915 91.7207 176.916C89.7022 176.917 87.6837 176.92 85.6651 176.923C80.9023 176.93 76.1395 176.932 71.3767 176.932C66.4646 176.931 61.5527 176.94 56.6407 176.954C52.4226 176.966 48.2046 176.971 43.9865 176.97C41.4676 176.97 38.9488 176.972 36.4299 176.982C34.0604 176.99 31.691 176.99 29.3214 176.984C28.4528 176.983 27.5841 176.985 26.7154 176.99C25.5274 176.997 24.3399 176.993 23.1519 176.986C22.81 176.991 22.4682 176.995 22.1159 177C19.2254 176.964 16.952 176.046 14.7728 174.136C14.535 173.849 14.2973 173.562 14.0523 173.266C13.8078 172.98 13.5632 172.694 13.3112 172.399C11.8946 170.343 11.6797 168.585 11.6731 166.111C11.6711 165.799 11.6691 165.486 11.6671 165.163C11.6615 164.117 11.6622 163.072 11.663 162.026C11.6603 161.275 11.6573 160.524 11.654 159.773C11.6462 157.734 11.6441 155.696 11.6435 153.658C11.6429 152.384 11.641 151.109 11.6387 149.835C11.6305 145.389 11.6269 140.942 11.6276 136.495C11.6281 132.353 11.6188 128.211 11.6049 124.069C11.5934 120.51 11.5886 116.951 11.5892 113.393C11.5894 111.269 11.5869 109.144 11.5776 107.02C11.569 105.021 11.569 103.023 11.5754 101.024C11.5763 100.292 11.5742 99.5598 11.5689 98.8278C11.5175 91.2931 11.5175 91.2931 14.4229 87.9776C14.7101 87.7398 14.9973 87.5021 15.2933 87.2572C15.5793 87.0126 15.8654 86.768 16.1602 86.5161C18.2827 85.0536 20.2184 84.8706 22.7418 84.8958C23.0821 84.8956 23.4224 84.8955 23.773 84.8954C24.8927 84.896 26.0122 84.9028 27.1319 84.9098C27.9102 84.9114 28.6885 84.9127 29.4668 84.9136C31.5116 84.9169 33.5563 84.9256 35.601 84.9353C38.0564 84.946 40.5118 84.95 42.9672 84.9552C46.694 84.9637 50.4207 84.9806 54.1475 84.9959C54.1475 75.6775 54.1475 66.3591 54.1475 56.7584C49.2881 56.7891 49.2881 56.7891 44.3305 56.8204C42.2756 56.8294 40.2206 56.8379 38.1656 56.8445C34.9054 56.8551 31.6452 56.8675 28.3851 56.8915C25.756 56.9107 23.127 56.9212 20.4979 56.9258C19.4959 56.9291 18.494 56.9354 17.492 56.945C16.0863 56.9578 14.6809 56.9595 13.2751 56.9587C12.8628 56.9651 12.4506 56.9714 12.0258 56.9779C8.88886 56.9583 6.56143 56.2102 4.18367 54.1266C3.94593 53.8394 3.7082 53.5522 3.46325 53.2562C3.21869 52.9702 2.97413 52.6841 2.72216 52.3893C1.12264 50.0679 1.07094 47.9846 1.07386 45.2561C1.07089 44.857 1.06793 44.4578 1.06488 44.0465C1.05651 42.729 1.05477 41.4115 1.05382 40.094C1.05099 39.1757 1.04802 38.2575 1.04492 37.3392C1.03964 35.4147 1.038 33.4902 1.03853 31.5656C1.03862 29.1043 1.02657 26.6432 1.01137 24.182C1.00154 22.2852 0.999771 20.3885 1.00024 18.4918C0.999198 17.5846 0.995309 16.6775 0.988472 15.7704C0.979787 14.499 0.982378 13.2281 0.987683 11.9567C0.982724 11.585 0.977765 11.2134 0.972656 10.8305C1.00433 7.82978 1.84578 5.53346 3.8338 3.26482C4.12102 3.02708 4.40824 2.78935 4.70416 2.54441C4.99024 2.29984 5.27633 2.05528 5.57108 1.80331C8.03497 0.10565 10.3022 0.155936 13.1987 0.165201ZM9.14386 8.66623C8.05599 10.428 8.13333 12.3062 8.14025 14.3209C8.138 14.6612 8.13574 15.0016 8.13342 15.3522C8.12731 16.4735 8.12771 17.5946 8.12873 18.7159C8.12701 19.4977 8.1251 20.2796 8.123 21.0615C8.11971 22.6989 8.11983 24.3363 8.12216 25.9738C8.12471 28.0692 8.11724 30.1643 8.10701 32.2597C8.1005 33.874 8.10012 35.4884 8.10149 37.1027C8.10127 37.8751 8.09896 38.6475 8.09452 39.4199C8.08906 40.5013 8.09206 41.5823 8.09717 42.6636C8.09379 42.9807 8.09042 43.2977 8.08695 43.6244C8.10825 45.6717 8.42762 47.1162 9.58507 48.8165C11.6301 49.9861 13.773 49.8234 16.0586 49.814C16.4911 49.8157 16.9235 49.8174 17.369 49.8191C18.8194 49.8237 20.2697 49.8219 21.72 49.8201C22.7593 49.8221 23.7986 49.8244 24.8379 49.827C27.6619 49.8329 30.486 49.8331 33.3101 49.832C35.0738 49.8315 36.8375 49.8326 38.6011 49.8342C38.894 49.8345 39.1868 49.8348 39.4885 49.835C40.0834 49.8356 40.6782 49.8361 41.2731 49.8366C46.8512 49.8414 52.4293 49.8405 58.0074 49.8378C63.1097 49.8355 68.2119 49.8405 73.3142 49.8489C78.5543 49.8574 83.7944 49.861 89.0346 49.8594C91.9761 49.8585 94.9175 49.8598 97.859 49.8659C100.625 49.8714 103.39 49.8706 106.156 49.8648C107.172 49.8638 108.187 49.865 109.203 49.8686C110.588 49.8732 111.973 49.8697 113.359 49.8641C113.963 49.869 113.963 49.869 114.579 49.8739C116.822 49.8548 118.394 49.6389 120.329 48.3753C121.417 46.6135 121.34 44.7353 121.333 42.7207C121.335 42.3803 121.337 42.04 121.34 41.6893C121.346 40.5681 121.345 39.447 121.344 38.3257C121.346 37.5438 121.348 36.7619 121.35 35.9801C121.354 34.3426 121.353 32.7052 121.351 31.0678C121.348 28.9724 121.356 26.8772 121.366 24.7819C121.373 23.1675 121.373 21.5532 121.372 19.9388C121.372 19.1664 121.374 18.394 121.379 17.6216C121.384 16.5403 121.381 15.4593 121.376 14.378C121.379 14.0609 121.383 13.7438 121.386 13.4171C121.365 11.3698 121.046 9.92533 119.888 8.22501C117.843 7.05546 115.7 7.21813 113.415 7.22757C112.982 7.22588 112.55 7.22419 112.104 7.22245C110.654 7.2179 109.204 7.21965 107.753 7.22141C106.714 7.21949 105.675 7.2172 104.635 7.21457C101.811 7.20866 98.9872 7.20841 96.1631 7.20953C94.3994 7.21009 92.6357 7.20894 90.8721 7.20733C90.5792 7.20706 90.2864 7.2068 89.9847 7.20653C89.3898 7.206 88.795 7.20546 88.2001 7.20492C82.622 7.20012 77.0439 7.20108 71.4658 7.20377C66.3635 7.20605 61.2613 7.20108 56.159 7.1927C50.9189 7.18415 45.6788 7.1805 40.4386 7.18216C37.4971 7.183 34.5557 7.18179 31.6142 7.17567C28.8485 7.17013 26.0829 7.17097 23.3172 7.17673C22.3016 7.17778 21.286 7.17656 20.2704 7.17293C18.885 7.16833 17.5 7.17187 16.1147 7.17748C15.5105 7.1726 15.5105 7.1726 14.8941 7.16762C12.6516 7.18675 11.0795 7.40262 9.14386 8.66623ZM61.2069 56.7584C61.2069 66.0768 61.2069 75.3952 61.2069 84.9959C63.5365 84.9959 65.8661 84.9959 68.2663 84.9959C68.2663 75.6775 68.2663 66.3591 68.2663 56.7584C65.9367 56.7584 63.6071 56.7584 61.2069 56.7584ZM19.733 93.379C18.7376 95.044 18.7389 96.6019 18.7355 98.5125C18.7338 98.8008 18.7321 99.0891 18.7304 99.3861C18.7259 100.349 18.7276 101.311 18.7293 102.274C18.7274 102.965 18.7251 103.657 18.7225 104.348C18.7166 106.224 18.7164 108.1 18.7175 109.977C18.7179 111.543 18.7158 113.11 18.7137 114.677C18.7088 118.374 18.7086 122.07 18.7113 125.767C18.7139 129.579 18.7085 133.392 18.6991 137.204C18.6913 140.478 18.6887 143.753 18.6901 147.028C18.6909 148.983 18.6897 150.938 18.6836 152.893C18.6781 154.731 18.6789 156.57 18.6847 158.409C18.6857 159.083 18.6845 159.757 18.6809 160.431C18.6763 161.353 18.6798 162.274 18.6854 163.195C18.6853 163.711 18.6853 164.226 18.6852 164.757C18.8771 166.408 19.2569 167.441 20.1742 168.826C21.9403 169.919 23.824 169.834 25.8437 169.824C26.1897 169.825 26.5356 169.827 26.892 169.829C28.0497 169.833 29.2073 169.832 30.365 169.83C31.1957 169.832 32.0263 169.834 32.8569 169.837C35.1122 169.843 37.3674 169.843 39.6227 169.842C41.5054 169.841 43.388 169.843 45.2706 169.846C49.7119 169.85 54.1532 169.851 58.5944 169.848C63.1766 169.845 67.7588 169.851 72.3409 169.86C76.275 169.868 80.209 169.871 84.1431 169.869C86.4928 169.868 88.8424 169.869 91.1921 169.876C93.4015 169.881 95.6109 169.88 97.8204 169.875C98.631 169.874 99.4417 169.875 100.252 169.878C101.36 169.883 102.466 169.879 103.573 169.874C103.894 169.877 104.214 169.88 104.544 169.884C106.593 169.862 108.039 169.544 109.74 168.385C110.736 166.72 110.734 165.162 110.738 163.251C110.739 162.963 110.741 162.675 110.743 162.378C110.747 161.415 110.746 160.453 110.744 159.49C110.746 158.799 110.748 158.107 110.751 157.416C110.757 155.54 110.757 153.664 110.756 151.788C110.755 150.221 110.757 148.654 110.76 147.087C110.764 143.39 110.765 139.694 110.762 135.997C110.759 132.185 110.765 128.372 110.774 124.56C110.782 121.286 110.785 118.011 110.783 114.736C110.782 112.781 110.783 110.826 110.79 108.871C110.795 107.033 110.794 105.194 110.789 103.355C110.787 102.681 110.789 102.007 110.792 101.333C110.797 100.411 110.793 99.4902 110.788 98.5686C110.788 98.0533 110.788 97.538 110.788 97.0071C110.596 95.3564 110.216 94.3233 109.299 92.9378C107.533 91.8455 105.649 91.9298 103.629 91.9403C103.284 91.9386 102.938 91.9369 102.581 91.9352C101.423 91.9306 100.266 91.9324 99.1082 91.9342C98.2775 91.9322 97.4469 91.9299 96.6163 91.9273C94.361 91.9214 92.1058 91.9212 89.8505 91.9223C87.9678 91.9227 86.0852 91.9206 84.2026 91.9185C79.7613 91.9136 75.32 91.9134 70.8788 91.9161C66.2966 91.9187 61.7145 91.9133 57.1323 91.9039C53.1982 91.8961 49.2642 91.8935 45.3301 91.8949C42.9804 91.8957 40.6308 91.8945 38.2812 91.8884C36.0717 91.8829 33.8623 91.8837 31.6529 91.8895C30.8422 91.8905 30.0315 91.8893 29.2208 91.8857C28.1137 91.8811 27.0069 91.8846 25.8998 91.8902C25.5794 91.887 25.259 91.8837 24.9289 91.8804C22.8806 91.9022 21.434 92.2202 19.733 93.379Z" fill="#505050"/>
<path d="M66.5018 99.1148C67.9041 99.793 69.1144 100.67 70.3624 101.597C70.7239 101.855 71.0854 102.113 71.4578 102.378C72.2208 102.923 72.9814 103.471 73.7398 104.022C75.2057 105.083 76.6894 106.116 78.1745 107.149C79.2809 107.919 80.3845 108.693 81.4875 109.468C83.3307 110.762 85.1753 112.055 87.0208 113.346C87.7506 113.857 88.4802 114.368 89.2096 114.879C91.1257 116.223 93.0458 117.56 94.9721 118.888C95.3716 119.165 95.7712 119.442 96.1828 119.727C96.9456 120.255 97.7096 120.781 98.4751 121.305C103.279 124.639 103.279 124.639 103.841 126.513C103.792 127.955 103.647 128.978 102.902 130.22C101.25 131.211 100.165 131.137 98.2691 130.882C97.2499 130.154 96.2307 129.426 95.1806 128.676C95.035 137.558 94.8894 146.439 94.7394 155.59C96.4866 155.59 98.2338 155.59 100.034 155.59C101.799 157.355 101.799 157.355 102.033 158.237C102.029 158.528 102.024 158.82 102.019 159.12C102.026 159.556 102.026 159.556 102.033 160.002C101.687 161.306 101.08 161.809 100.034 162.649C98.7192 162.871 98.7192 162.871 97.1536 162.873C96.865 162.876 96.5765 162.879 96.2792 162.882C95.3131 162.889 94.3474 162.883 93.3813 162.878C92.6884 162.88 91.9955 162.883 91.3026 162.887C89.4211 162.895 87.5397 162.892 85.6581 162.886C83.6898 162.882 81.7216 162.886 79.7533 162.889C76.4477 162.892 73.1423 162.888 69.8368 162.879C66.0142 162.87 62.1917 162.873 58.3692 162.883C55.0882 162.891 51.8073 162.892 48.5264 162.887C46.5663 162.884 44.6064 162.884 42.6464 162.89C40.8037 162.895 38.9613 162.891 37.1186 162.881C36.442 162.879 35.7654 162.88 35.0889 162.883C34.1658 162.888 33.2434 162.882 32.3204 162.873C31.8037 162.873 31.287 162.872 30.7547 162.871C29.1675 162.603 28.6498 162.14 27.6751 160.884C27.4407 160.002 27.4407 160.002 27.4545 159.12C27.45 158.828 27.4454 158.537 27.4407 158.237C27.6751 157.355 27.6751 157.355 29.44 155.59C31.1872 155.59 32.9344 155.59 34.7345 155.59C34.7345 146.708 34.7345 137.827 34.7345 128.676C33.5697 129.404 32.4049 130.132 31.2048 130.882C29.2987 131.134 28.2302 131.215 26.5721 130.22C25.8266 128.978 25.6815 127.955 25.6328 126.513C26.516 123.567 30.4026 121.72 32.7767 120.1C33.6948 119.468 34.6128 118.835 35.5308 118.202C35.9908 117.886 36.4507 117.57 36.9247 117.245C38.877 115.9 40.8185 114.54 42.7591 113.178C43.4801 112.673 44.201 112.168 44.9221 111.663C46.777 110.364 48.6314 109.063 50.4856 107.762C51.2284 107.242 51.972 106.723 52.7164 106.205C54.4632 104.989 56.1986 103.764 57.912 102.501C58.2269 102.274 58.5419 102.046 58.8663 101.811C59.4495 101.39 60.0282 100.962 60.601 100.526C62.4747 99.1859 64.183 98.5457 66.5018 99.1148ZM61.2624 109.538C60.7984 109.861 60.7984 109.861 60.3251 110.191C59.2941 110.909 58.2653 111.63 57.2364 112.351C56.4988 112.865 55.7612 113.38 55.0234 113.894C51.6048 116.278 48.1937 118.673 44.7997 121.093C44.5428 121.276 44.286 121.458 44.0213 121.647C42.8582 122.454 42.8582 122.454 41.7939 123.381C41.7523 124.383 41.7421 125.386 41.7438 126.388C41.7438 126.702 41.7437 127.017 41.7436 127.34C41.744 128.384 41.7474 129.427 41.7508 130.47C41.7517 131.192 41.7523 131.913 41.7527 132.635C41.7544 134.537 41.7588 136.44 41.7636 138.342C41.7681 140.282 41.7702 142.222 41.7724 144.162C41.7771 147.972 41.7849 151.781 41.7939 155.59C44.7059 155.59 47.6179 155.59 50.6182 155.59C50.6246 154.902 50.631 154.214 50.6377 153.505C50.6632 150.957 50.6973 148.408 50.734 145.86C50.7487 144.757 50.761 143.653 50.771 142.549C50.7858 140.964 50.8089 139.38 50.8336 137.795C50.8364 137.3 50.8393 136.805 50.8422 136.295C50.8509 135.836 50.8596 135.376 50.8686 134.903C50.8735 134.499 50.8784 134.094 50.8835 133.677C51.0594 132.647 51.0594 132.647 51.5833 131.855C52.685 131.123 53.4617 131.155 54.7804 131.152C55.2707 131.148 55.761 131.144 56.2661 131.139C56.7956 131.142 57.3251 131.145 57.8706 131.147C58.414 131.146 58.9574 131.145 59.5173 131.144C60.9617 131.142 62.406 131.148 63.8504 131.155C64.7361 131.158 65.6217 131.155 66.5074 131.151C68.2061 131.143 69.9046 131.143 71.6033 131.147C72.3975 131.143 72.3975 131.143 73.2078 131.139C73.9432 131.146 73.9432 131.146 74.6935 131.152C75.3415 131.154 75.3415 131.154 76.0026 131.155C77.0909 131.323 77.0909 131.323 77.8906 131.855C78.5915 132.914 78.59 133.636 78.6053 134.903C78.614 135.362 78.6228 135.822 78.6318 136.295C78.6346 136.79 78.6374 137.285 78.6403 137.795C78.6482 138.302 78.6562 138.81 78.6643 139.332C78.6883 140.955 78.7032 142.578 78.7179 144.201C78.7325 145.3 78.7477 146.4 78.7636 147.499C78.8011 150.196 78.8305 152.893 78.8558 155.59C81.7678 155.59 84.6798 155.59 87.68 155.59C87.7699 151.444 87.8426 147.298 87.8857 143.152C87.9064 141.226 87.9345 139.301 87.9796 137.375C88.0228 135.516 88.0465 133.657 88.0568 131.797C88.0641 131.089 88.0784 130.381 88.0998 129.673C88.326 125.766 88.326 125.766 86.8509 122.299C85.8409 121.501 84.847 120.89 83.7091 120.293C83.2968 119.993 82.8845 119.694 82.4598 119.385C82.1088 119.142 81.7578 118.899 81.3962 118.649C80.9936 118.369 80.591 118.09 80.1763 117.802C79.5499 117.37 79.5499 117.37 78.9109 116.929C78.2543 116.474 78.2543 116.474 77.5844 116.011C76.6854 115.39 75.7861 114.769 74.8864 114.148C73.6114 113.268 72.3391 112.384 71.0673 111.5C70.3085 110.974 69.5496 110.449 68.7906 109.924C68.4378 109.678 68.0849 109.432 67.7214 109.179C67.2363 108.845 67.2363 108.845 66.7414 108.504C66.4594 108.309 66.1774 108.114 65.8869 107.912C64.097 106.865 62.7183 108.514 61.2624 109.538ZM57.6776 137.941C57.6776 143.765 57.6776 149.589 57.6776 155.59C62.3368 155.59 66.996 155.59 71.7964 155.59C71.7964 149.766 71.7964 143.942 71.7964 137.941C67.1372 137.941 62.478 137.941 57.6776 137.941Z" fill="#505050"/>
<path d="M95.6281 14.1676C96.144 14.1653 96.6598 14.163 97.1913 14.1607C97.7288 14.1675 98.2662 14.1744 98.82 14.1814C99.3506 14.1746 99.8813 14.1677 100.428 14.1607C104.088 14.1768 106.626 14.5982 109.406 17.0338C109.643 17.321 109.881 17.6082 110.126 17.9041C110.493 18.3332 110.493 18.3332 110.867 18.771C112.754 21.5094 112.552 24.3135 112.551 27.5303C112.553 28.431 112.569 29.3308 112.585 30.2313C112.597 34.1077 112.376 36.6673 109.756 39.6579C109.468 39.8957 109.181 40.1334 108.885 40.3784C108.456 40.7452 108.456 40.7452 108.018 41.1195C105.184 43.0724 102.219 42.8015 98.9027 42.805C98.3593 42.8158 97.8158 42.8266 97.2559 42.8378C96.4732 42.8403 96.4732 42.8403 95.6746 42.8429C95.1988 42.8466 94.723 42.8502 94.2328 42.8539C92.6403 42.5828 92.2093 42.1238 91.2091 40.8747C90.985 39.7364 90.985 39.7364 90.9807 38.4343C90.9752 37.9454 90.9696 37.4566 90.9639 36.9529C90.9674 36.4271 90.971 35.9013 90.9747 35.3596C90.973 34.8178 90.9713 34.2761 90.9696 33.718C90.9684 32.5727 90.9716 31.4274 90.979 30.2822C90.9884 28.5274 90.9791 26.7734 90.9678 25.0187C90.969 23.9064 90.9712 22.7942 90.9747 21.682C90.9711 21.1562 90.9675 20.6304 90.9639 20.0886C90.9694 19.5998 90.975 19.111 90.9807 18.6073C90.9821 18.1776 90.9835 17.7479 90.985 17.3052C91.4981 14.6988 93.2082 14.1779 95.6281 14.1676ZM98.2685 21.4614C98.2685 26.1206 98.2685 30.7798 98.2685 35.5802C101.713 35.6919 101.713 35.6919 104.445 34.2565C105.443 32.4119 105.475 30.599 105.466 28.5484C105.473 28.2438 105.48 27.9392 105.487 27.6254C105.489 25.5372 105.111 24.1114 104.004 22.3438C102.052 21.117 100.756 21.4614 98.2685 21.4614Z" fill="#505050"/>
<path d="M57.4288 15.0638C60.0344 16.6384 62.0124 19.0253 62.9715 21.9026C63.142 23.7772 63.1355 25.6484 63.135 27.5303C63.1369 28.431 63.153 29.3308 63.1697 30.2313C63.1812 34.1077 62.9604 36.6673 60.3397 39.6579C60.0525 39.8957 59.7653 40.1334 59.4694 40.3784C59.0403 40.7452 59.0403 40.7452 58.6025 41.1195C55.7341 43.0958 52.6598 42.9372 49.2939 42.6396C46.3556 41.898 44.3588 39.7877 42.6757 37.345C41.4494 34.8128 41.6291 32.2735 41.6298 29.5112C41.6279 28.6105 41.6119 27.7108 41.5951 26.8102C41.5836 22.9339 41.8044 20.3742 44.4251 17.3836C44.7123 17.1459 44.9995 16.9081 45.2954 16.6632C45.5815 16.4186 45.8676 16.1741 46.1624 15.9221C49.2792 13.7745 53.9679 13.5302 57.4288 15.0638ZM50.0385 22.7023C48.6625 24.4859 48.7581 26.2809 48.7424 28.4381C48.7333 28.7466 48.7242 29.0551 48.7148 29.373C48.6991 31.4829 49.0504 32.9132 50.1764 34.6978C51.4298 35.3245 52.3183 35.2777 53.7061 35.139C54.9625 34.1541 55.4047 33.5727 55.9121 32.0505C55.9776 30.8951 56.014 29.7592 56.0224 28.6035C56.0315 28.295 56.0406 27.9864 56.05 27.6685C56.0658 25.5586 55.7144 24.1284 54.5885 22.3438C52.9139 21.5065 51.5118 21.5475 50.0385 22.7023Z" fill="#505050"/>
<path d="M28.7501 14.2641C29.5713 14.2449 29.5713 14.2449 30.409 14.2253C30.9348 14.2216 31.4606 14.2179 32.0023 14.2141C32.7245 14.2045 32.7245 14.2045 33.4612 14.1946C35.0263 14.4496 35.5332 14.9359 36.4989 16.1668C36.7333 17.0493 36.7333 17.0493 36.7195 17.9317C36.7241 18.2229 36.7286 18.5141 36.7333 18.8141C36.3918 20.0999 35.7494 20.6189 34.7341 21.4614C33.6022 21.7023 33.6022 21.7023 32.3419 21.7303C31.8897 21.7445 31.4376 21.7587 30.9717 21.7733C30.5025 21.7796 30.0333 21.7859 29.5498 21.7923C29.0738 21.8054 28.5977 21.8185 28.1073 21.8319C26.9335 21.8631 25.7602 21.8864 24.5862 21.9026C24.6912 22.7685 24.6912 22.7685 25.0274 23.6675C26.1786 24.2049 27.2472 24.6269 28.4468 25.0187C31.6585 26.1075 34.2918 27.0012 36.0784 30.0599C37.0142 32.5259 36.9826 35.3717 36.1904 37.881C35.0359 40.1072 33.1345 41.8491 30.7632 42.6396C28.7889 42.7664 26.8122 42.7621 24.8344 42.7775C24.0132 42.7967 24.0132 42.7967 23.1755 42.8162C22.3868 42.8218 22.3868 42.8218 21.5822 42.8274C21.1007 42.8339 20.6193 42.8403 20.1233 42.8469C18.5582 42.592 18.0513 42.1056 17.0856 40.8747C16.8512 39.9923 16.8512 39.9923 16.865 39.1099C16.8604 38.8187 16.8559 38.5275 16.8512 38.2275C17.1927 36.9417 17.8351 36.4226 18.8504 35.5802C19.9823 35.3393 19.9823 35.3393 21.2426 35.3113C21.6948 35.2971 22.1469 35.2829 22.6128 35.2682C23.082 35.262 23.5512 35.2557 24.0347 35.2493C24.5107 35.2362 24.9868 35.2231 25.4772 35.2096C26.651 35.1785 27.8243 35.1552 28.9983 35.139C28.8933 34.2731 28.8933 34.2731 28.5571 33.3741C27.4059 32.8366 26.3373 32.4147 25.1377 32.0229C21.926 30.9341 19.2927 30.0403 17.5061 26.9817C16.5703 24.5157 16.6019 21.6698 17.3941 19.1605C19.8994 14.3295 23.8869 14.3019 28.7501 14.2641Z" fill="#505050"/>
<path d="M71.7964 14.1813C72.0876 14.1768 72.3788 14.1722 72.6788 14.1675C74.0473 14.5311 74.4829 15.0158 75.3261 16.1668C75.5758 17.6401 75.5311 19.0953 75.4984 20.5858C75.496 21.0142 75.4935 21.4426 75.4909 21.884C75.481 23.2508 75.4589 24.6171 75.4364 25.9838C75.4276 26.911 75.4195 27.8382 75.4123 28.7655C75.3928 31.0372 75.3624 33.3086 75.3261 35.5801C75.5842 35.5709 75.8422 35.5616 76.1081 35.5521C77.2813 35.5154 78.4544 35.4925 79.6279 35.4698C80.034 35.455 80.4401 35.4402 80.8585 35.425C83.8761 35.3813 83.8761 35.3813 85.3008 36.4143C85.9612 37.4147 86.1544 37.9216 86.1358 39.1098C86.1404 39.401 86.1449 39.6922 86.1496 39.9922C85.8002 41.3078 85.2156 41.7995 84.1503 42.6395C82.6819 42.8679 82.6819 42.8679 80.9516 42.8739C80.4915 42.8764 80.4915 42.8764 80.0222 42.879C79.3754 42.8802 78.7287 42.877 78.082 42.8696C77.0939 42.8602 76.1073 42.8695 75.1193 42.8808C74.4896 42.8796 73.86 42.8774 73.2303 42.8739C72.6593 42.8719 72.0883 42.8699 71.5 42.8679C69.7525 42.5961 69.345 42.242 68.2667 40.8747C68.0426 39.7363 68.0426 39.7363 68.0383 38.4342C68.0328 37.9454 68.0272 37.4565 68.0215 36.9529C68.0251 36.4271 68.0286 35.9013 68.0323 35.3595C68.0306 34.8178 68.0289 34.276 68.0272 33.7179C68.026 32.5726 68.0292 31.4274 68.0366 30.2821C68.0461 28.5273 68.0367 26.7734 68.0254 25.0186C68.0266 23.9064 68.0288 22.7942 68.0323 21.6819C68.0287 21.1561 68.0252 20.6303 68.0215 20.0886C68.027 19.5997 68.0326 19.1109 68.0383 18.6072C68.0397 18.1775 68.0412 17.7479 68.0426 17.3051C68.4404 15.2843 69.7387 14.1492 71.7964 14.1813Z" fill="#505050"/>
</svg>
