<svg width="133" height="133" viewBox="0 0 133 133" fill="none" xmlns="http://www.w3.org/2000/svg">
<path d="M24.5525 0.102935C24.8024 0.101923 25.0523 0.10091 25.3098 0.0998672C26.1507 0.0968245 26.9916 0.095769 27.8325 0.0947208C28.434 0.092996 29.0355 0.0911657 29.637 0.0892375C31.2739 0.0844411 32.9108 0.0815373 34.5476 0.0792679C35.57 0.0778502 36.5924 0.0761772 37.6148 0.074446C40.8129 0.069199 44.0111 0.0652805 47.2092 0.0629876C47.5773 0.0627209 47.9454 0.0624526 48.3135 0.0621828C48.5874 0.061983 48.5874 0.061983 48.8668 0.0617791C51.8238 0.0594942 54.7808 0.0525185 57.7378 0.0435736C60.7748 0.0344617 63.8118 0.0295986 66.8488 0.0286275C68.5535 0.0279799 70.2582 0.0255077 71.9629 0.0185875C73.5669 0.0121813 75.1709 0.0110094 76.7749 0.0138406C77.3633 0.0139772 77.9516 0.0122327 78.5399 0.00845561C79.3441 0.00358201 80.1479 0.00553064 80.9521 0.0091531C81.1841 0.00613257 81.416 0.00311205 81.655 0C83.4751 0.0197477 84.8828 0.533019 86.2931 1.69668C86.4134 1.84292 86.5337 1.98917 86.6577 2.13984C86.8435 2.35495 86.8435 2.35495 87.0331 2.5744C88.3729 4.77182 88.3341 6.81106 88.3045 9.32509C88.303 9.70471 88.3018 10.0843 88.301 10.464C88.2978 11.4563 88.2897 12.4485 88.2806 13.4408C88.2721 14.4561 88.2683 15.4714 88.2642 16.4867C88.2554 18.4738 88.2413 20.4608 88.2238 22.4478C88.5071 22.4435 88.7904 22.4392 89.0823 22.4347C90.1385 22.4197 91.1946 22.4103 92.2508 22.4025C92.7069 22.3983 93.1631 22.3927 93.6192 22.3855C94.2768 22.3755 94.9343 22.3708 95.5919 22.3672C95.8954 22.3608 95.8954 22.3608 96.2049 22.3543C97.7534 22.3538 98.8711 22.6933 100.027 23.7375C100.158 23.8969 100.29 24.0563 100.426 24.2205C100.561 24.3792 100.696 24.5378 100.836 24.7013C101.554 25.7888 101.547 26.9586 101.441 28.2305C100.902 29.8521 100.073 30.8372 98.6876 31.8102C97.8615 32.0855 97.8615 32.0855 95.6586 32.0855C95.7495 45.5343 95.8404 58.983 95.934 72.8392C96.2975 72.5666 96.661 72.294 97.0355 72.0131C98.502 71.4685 100.214 71.6759 101.761 71.6716C102.349 71.669 102.936 71.6604 103.523 71.6517C103.901 71.6499 104.279 71.6485 104.656 71.6474C104.997 71.6449 105.337 71.6423 105.688 71.6396C106.992 71.7696 108.109 72.112 109.097 73.0199C109.586 73.9764 109.801 74.9604 110.029 76.0059C110.078 76.215 110.127 76.424 110.177 76.6395C110.4 77.6224 110.528 78.4274 110.528 79.4479C112.041 79.9947 112.041 79.9947 113.589 79.7904C114.16 79.4447 114.693 79.0743 115.227 78.6735C116.707 77.5945 117.744 76.964 119.615 76.9697C120.896 77.4946 121.759 78.1814 122.735 79.1532C122.865 79.2832 122.996 79.4133 123.131 79.5472C123.405 79.8207 123.678 80.0952 123.95 80.3707C124.365 80.7902 124.784 81.205 125.204 81.6196C125.471 81.8872 125.738 82.155 126.004 82.4231C126.245 82.6645 126.485 82.9058 126.733 83.1544C127.625 84.2071 127.88 84.9039 127.862 86.2815C127.617 87.8236 126.681 88.9413 125.764 90.1629C125.014 91.2474 125.014 91.2474 124.887 92.53C125.023 93.144 125.185 93.7261 125.398 94.3175C125.739 94.3459 126.079 94.3743 126.43 94.4036C131.072 94.9323 131.072 94.9323 132.557 96.5204C133.01 97.4255 132.889 98.4304 132.898 99.4257C132.9 99.66 132.903 99.8944 132.905 100.136C132.909 100.632 132.912 101.129 132.914 101.625C132.919 102.383 132.931 103.141 132.943 103.899C132.946 104.381 132.948 104.864 132.95 105.346C132.957 105.685 132.957 105.685 132.964 106.031C132.96 107.135 132.916 107.678 132.313 108.634C131.681 109.235 131.279 109.44 130.44 109.652C130.2 109.714 129.96 109.777 129.712 109.841C129.47 109.898 129.227 109.955 128.978 110.013C128.749 110.07 128.521 110.127 128.286 110.185C127.275 110.426 126.448 110.564 125.398 110.564C124.851 112.079 124.851 112.079 125.055 113.629C125.4 114.204 125.771 114.741 126.172 115.28C127.882 117.656 127.882 117.656 127.876 119.376C127.405 121.306 126.009 122.513 124.623 123.874C124.228 124.262 123.84 124.657 123.452 125.052C120.683 127.805 120.683 127.805 118.745 127.959C117.053 127.584 115.759 126.72 114.372 125.712C113.412 125.033 113.412 125.033 112.271 124.929C112.059 125.005 111.848 125.08 111.63 125.158C111.42 125.209 111.209 125.26 110.993 125.313C110.84 125.353 110.686 125.393 110.528 125.434C110.5 125.774 110.471 126.115 110.442 126.466C109.913 131.107 109.913 131.107 108.325 132.593C107.42 133.045 106.415 132.925 105.42 132.934C105.186 132.936 104.951 132.938 104.71 132.941C104.213 132.944 103.717 132.947 103.22 132.95C102.462 132.954 101.705 132.966 100.947 132.979C100.465 132.981 99.9822 132.984 99.4997 132.986C99.1606 132.993 99.1606 132.993 98.8147 133C97.7081 132.996 97.1685 132.953 96.2115 132.345C95.6524 131.76 95.4165 131.399 95.194 130.631C95.1315 130.416 95.069 130.201 95.0047 129.98C94.6256 128.457 94.2818 127.008 94.2818 125.434C92.7671 124.887 92.7671 124.887 91.2171 125.091C90.6413 125.436 90.1044 125.807 89.5662 126.208C88.2008 127.19 87.2153 127.851 85.4702 127.912C84.1558 127.536 83.5754 127.153 82.725 126.102C81.6416 125.006 80.7536 124.928 79.25 124.905C78.7865 124.912 78.7865 124.912 78.3136 124.92C77.9818 124.917 77.6499 124.915 77.308 124.912C76.3901 124.908 75.473 124.912 74.5552 124.919C73.5643 124.925 72.5734 124.92 71.5825 124.916C69.8667 124.912 68.1511 124.914 66.4353 124.92C63.954 124.93 61.4729 124.928 58.9916 124.924C54.9649 124.917 50.9382 124.918 46.9115 124.925C43.0019 124.932 39.0922 124.936 35.1825 124.936C34.9415 124.936 34.7005 124.936 34.4522 124.936C31.8228 124.936 29.1933 124.935 26.5638 124.933C26.2175 124.933 26.2175 124.933 25.8642 124.933C24.9414 124.932 24.0186 124.932 23.0958 124.931C20.3915 124.929 17.6872 124.929 14.9829 124.934C13.2882 124.938 11.5934 124.939 9.89867 124.939C8.73124 124.939 7.56384 124.942 6.39641 124.946C5.52599 124.948 4.65557 124.947 3.78515 124.947C3.47307 124.948 3.16099 124.95 2.83945 124.952C2.55754 124.951 2.27563 124.95 1.98517 124.949C1.61816 124.95 1.61817 124.95 1.24374 124.951C0.658464 124.883 0.658464 124.883 0.107738 124.332C-0.175384 122.377 0.0686929 120.72 1.20919 119.1C2.50812 117.639 3.47007 116.97 5.33963 116.347C6.88442 116.347 8.4292 116.347 10.0208 116.347C10.0208 88.5404 10.0208 60.7343 10.0208 32.0855C9.29384 32.0855 8.56688 32.0855 7.8179 32.0855C6.36628 31.661 5.33331 30.8861 4.51354 29.6073C3.95968 27.9457 3.94146 26.0923 4.70286 24.5131C5.57668 23.5684 6.31101 22.8584 7.54253 22.4478C8.27471 22.4245 8.99944 22.4159 9.73145 22.421C9.9442 22.4213 10.157 22.4217 10.3762 22.4221C11.0551 22.4237 11.7341 22.4271 12.413 22.4306C12.8736 22.432 13.3341 22.4333 13.7947 22.4344C14.9232 22.4374 16.0517 22.4422 17.1802 22.4478C17.179 22.2492 17.1778 22.0506 17.1765 21.8459C17.1655 19.9663 17.1571 18.0868 17.1517 16.2072C17.1488 15.2411 17.145 14.275 17.1387 13.3088C17.1315 12.196 17.1289 11.0833 17.1265 9.97047C17.1236 9.62647 17.1208 9.28247 17.1178 8.92804C17.1175 6.26791 17.3145 3.89377 19.1078 1.79564C20.8617 0.411654 22.3422 0.102458 24.5525 0.102935ZM21.6377 4.65253C17.8356 9.21498 20.7599 16.5089 20.7599 22.4478C41.8417 22.4478 62.9235 22.4478 84.6441 22.4478C85.7767 12.8512 85.7767 12.8512 83.5427 4.2739C82.1145 3.32178 80.6837 3.40772 79.0109 3.41099C78.777 3.41037 78.5431 3.40975 78.3021 3.4091C77.5188 3.40736 76.7354 3.40759 75.952 3.40781C75.3902 3.40699 74.8284 3.40605 74.2666 3.40501C72.7407 3.40258 71.2149 3.40193 69.689 3.40176C68.4155 3.4015 67.142 3.40048 65.8684 3.39951C62.8643 3.39726 59.8601 3.39659 56.8559 3.39679C53.7559 3.39695 50.6559 3.39405 47.5559 3.3897C44.8949 3.3861 42.2338 3.38462 39.5727 3.3848C37.9832 3.38487 36.3936 3.38408 34.8041 3.38117C33.3094 3.37851 31.8148 3.37848 30.3202 3.38049C29.7716 3.38077 29.223 3.38012 28.6744 3.37846C27.9256 3.37634 27.1769 3.37761 26.4281 3.37973C26.211 3.37832 25.9939 3.3769 25.7702 3.37544C24.114 3.38583 22.9169 3.5723 21.6377 4.65253ZM7.8179 26.5783C7.72611 27.2667 7.72611 27.2667 7.8179 27.9551C8.53363 28.6708 8.82214 28.575 9.81882 28.5759C10.283 28.5783 10.283 28.5783 10.7565 28.5808C11.0994 28.5797 11.4422 28.5787 11.7954 28.5776C12.1574 28.5787 12.5194 28.5797 12.8923 28.5808C13.9004 28.5837 14.9085 28.583 15.9166 28.5819C17.0025 28.5812 18.0884 28.5837 19.1743 28.5857C21.3029 28.5892 23.4316 28.5897 25.5603 28.5891C27.2898 28.5886 29.0194 28.5891 30.7489 28.5902C30.9947 28.5904 31.2404 28.5906 31.4936 28.5907C31.9929 28.5911 32.4921 28.5914 32.9913 28.5917C37.6773 28.5947 42.3633 28.5941 47.0493 28.5925C51.34 28.591 55.6308 28.5941 59.9215 28.5994C64.323 28.6047 68.7244 28.607 73.1258 28.606C75.5986 28.6054 78.0714 28.6061 80.5442 28.61C82.6493 28.6133 84.7544 28.6137 86.8595 28.6103C87.9342 28.6087 89.009 28.6084 90.0837 28.6117C91.2471 28.6152 92.4103 28.6124 93.5737 28.6089C93.9159 28.6109 94.2581 28.6129 94.6107 28.615C94.9209 28.613 95.231 28.6111 95.5506 28.609C95.9537 28.609 95.9537 28.609 96.3649 28.6091C97.0484 28.5568 97.0484 28.5568 97.5445 28.1315C97.9375 27.6726 97.9375 27.6726 97.8099 26.9569C97.656 26.2573 97.656 26.2573 97.0355 26.0276C96.5524 26.0011 96.0683 25.9925 95.5845 25.9921C95.2749 25.9913 94.9652 25.9904 94.6462 25.9895C94.3032 25.9899 93.9602 25.9903 93.6068 25.9907C93.2446 25.9901 92.8825 25.9895 92.5093 25.9889C91.5007 25.9872 90.4921 25.9872 89.4834 25.9875C88.397 25.9876 87.3106 25.9861 86.2241 25.9848C84.0944 25.9825 81.9647 25.9817 79.835 25.9816C78.1048 25.9814 76.3747 25.9809 74.6445 25.98C69.7439 25.9776 64.8433 25.9763 59.9428 25.9765C59.6784 25.9765 59.414 25.9765 59.1416 25.9765C58.8769 25.9765 58.6122 25.9766 58.3394 25.9766C54.0467 25.9767 49.754 25.974 45.4613 25.9702C41.0583 25.9662 36.6553 25.9643 32.2523 25.9645C29.7785 25.9646 27.3046 25.9639 24.8308 25.9609C22.7249 25.9584 20.6192 25.9578 18.5133 25.9597C17.4381 25.9606 16.3628 25.9606 15.2875 25.9582C14.1241 25.9557 12.9607 25.9573 11.7973 25.9595C11.4543 25.9581 11.1112 25.9566 10.7578 25.9552C10.2934 25.9571 10.2934 25.9571 9.81959 25.959C9.55075 25.959 9.28191 25.9589 9.00492 25.9588C8.31499 25.9661 8.31499 25.9661 7.8179 26.5783ZM13.6005 32.0855C13.6005 59.8917 13.6005 87.6978 13.6005 116.347C21.9605 116.347 30.3205 116.347 38.9339 116.347C38.9339 110.077 38.9339 103.807 38.9339 97.3465C38.0252 97.0739 37.1165 96.8013 36.1803 96.5204C35.2927 95.7959 34.8888 95.3997 34.5281 94.3175C34.4265 92.7689 34.4819 91.8021 35.3542 90.4624C36.3507 89.5593 37.2281 89.3273 38.5512 89.3205C38.9421 89.3175 38.9421 89.3175 39.3408 89.3145C39.6262 89.3138 39.9116 89.313 40.2056 89.3123C40.5066 89.3105 40.8075 89.3086 41.1176 89.3068C42.1154 89.3013 43.1132 89.2981 44.1109 89.2954C44.4514 89.2943 44.7919 89.2931 45.1427 89.292C46.7585 89.2868 48.3743 89.2828 49.9901 89.2805C51.8535 89.2778 53.7168 89.2706 55.5801 89.2595C57.1955 89.2501 58.8108 89.2469 60.4262 89.2458C61.1127 89.2444 61.7992 89.2412 62.4857 89.2361C63.4462 89.2294 64.4064 89.2297 65.3669 89.2316C65.7925 89.2263 65.7925 89.2263 66.2267 89.2209C67.8691 89.2328 68.7926 89.3799 70.0499 90.4624C70.857 91.2985 70.9948 91.8915 70.9965 93.044C70.9447 94.4318 70.8158 95.2522 69.7745 96.2451C68.2752 96.7903 68.2752 96.7903 66.7455 97.3465C66.7455 103.617 66.7455 109.887 66.7455 116.347C69.4801 116.432 69.4802 116.432 72.27 116.519C72.8419 116.544 73.4137 116.569 74.0029 116.595C76.5578 116.734 76.5578 116.734 78.8162 115.76C79.5402 114.752 80.0375 113.722 80.2383 112.491C80.0086 111.419 80.0086 111.419 79.4122 110.564C78.492 110.155 77.5449 110.004 76.5553 109.841C73.3235 109.278 73.3235 109.278 72.2528 107.81C71.7321 106.324 71.9156 104.642 71.9113 103.085C71.9086 102.497 71.9001 101.91 71.8914 101.323C71.8896 100.945 71.8881 100.567 71.8871 100.189C71.8845 99.8489 71.8819 99.5084 71.8793 99.1576C71.9952 97.9939 72.2652 97.2795 72.8035 96.2451C73.9062 95.4704 75.0207 95.2877 76.3227 95.0815C78.2918 94.7721 78.2918 94.7721 80.0157 93.8507C80.4219 93.0623 80.4273 92.7143 80.2383 91.8393C79.7595 90.8575 79.1714 89.9522 78.5316 89.0682C77.5947 87.7592 77.2556 86.8515 77.2093 85.2306C77.74 83.7009 78.5768 82.9468 79.6876 81.6508C76.0528 81.56 72.418 81.4691 68.6731 81.3755C68.6558 79.1968 68.6392 77.0184 68.6303 74.8398C68.626 73.8253 68.6201 72.8109 68.6108 71.7964C68.6018 70.8198 68.5968 69.8432 68.5947 68.8665C68.5932 68.4935 68.5902 68.1204 68.5857 67.7473C68.5798 67.2259 68.5794 66.7043 68.5793 66.1828C68.5765 65.737 68.5765 65.737 68.5737 65.2823C68.6065 65.05 68.6393 64.8177 68.6731 64.5784C69.6035 63.9581 69.9299 63.956 71.0207 63.9476C71.3322 63.9441 71.6437 63.9406 71.9646 63.937C72.3011 63.9364 72.6376 63.9358 72.9842 63.9351C73.3295 63.9333 73.6747 63.9315 74.0305 63.9296C74.761 63.9268 75.4915 63.9252 76.222 63.9256C77.1583 63.9256 78.0942 63.9181 79.0304 63.9086C79.9235 63.901 80.8167 63.9014 81.7098 63.9007C82.0463 63.8967 82.3827 63.8928 82.7294 63.8887C83.0409 63.8904 83.3524 63.8921 83.6734 63.8938C84.0851 63.8927 84.0851 63.8927 84.5052 63.8915C85.1949 64.0276 85.1948 64.0276 85.6988 64.5129C86.0525 65.1895 86.1134 65.5541 86.0876 66.3105C86.0823 66.5412 86.0771 66.772 86.0718 67.0097C86.0631 67.257 86.0546 67.5042 86.0457 67.759C86.0397 68.2862 86.0346 68.8135 86.0301 69.3407C86.0193 70.1697 86.0037 70.9974 85.9748 71.8259C85.731 75.0122 85.731 75.0122 87.0062 77.7441C87.8595 78.2407 88.6699 78.5746 89.6007 78.8972C90.0383 79.1546 90.4699 79.4229 90.8914 79.7061C91.6634 80.2983 91.6634 80.2983 92.0789 80.274C92.0789 64.3718 92.0789 48.4696 92.0789 32.0855C66.181 32.0855 40.2832 32.0855 13.6005 32.0855ZM71.9774 67.332C71.9774 70.8759 71.9774 74.4198 71.9774 78.0711C75.5214 78.0711 79.0653 78.0711 82.7166 78.0711C82.7166 74.5272 82.7166 70.9833 82.7166 67.332C79.1727 67.332 75.6287 67.332 71.9774 67.332ZM98.6876 75.3175C98.2909 77.1574 98.2909 77.1574 97.9054 78.9996C97.4919 80.8233 96.9652 81.8092 95.3542 82.8523C93.803 83.5595 92.3877 84.0415 90.7021 83.5784C89.6949 83.043 88.7478 82.4182 87.8199 81.7561C87.6387 81.6298 87.4575 81.5035 87.2708 81.3733C87.1095 81.2551 86.9483 81.1368 86.7821 81.015C86.2901 80.763 86.2901 80.763 85.7516 81.0022C85.1345 81.4159 84.6448 81.8634 84.1235 82.393C83.9283 82.59 83.7331 82.787 83.5319 82.99C83.2306 83.2983 83.2306 83.2983 82.9231 83.6128C82.7179 83.8204 82.5128 84.0281 82.3014 84.2421C81.796 84.7539 81.292 85.267 80.789 85.7813C81.3393 87.2301 82.1556 88.3686 83.0533 89.6267C83.6702 90.6803 83.926 91.5276 83.7029 92.7406C83.4752 93.3625 83.2417 93.9795 82.992 94.5929C82.9149 94.7973 82.8379 95.0018 82.7585 95.2125C82.6765 95.4056 82.5945 95.5987 82.5101 95.7976C82.4377 95.9701 82.3652 96.1426 82.2906 96.3204C81.196 97.621 79.0895 97.8744 77.5019 98.2242C76.7693 98.3889 76.0366 98.5536 75.2818 98.7233C75.2818 101.177 75.2818 103.63 75.2818 106.158C77.1217 106.555 77.1217 106.555 78.9639 106.94C80.494 107.287 81.4714 107.599 82.4412 108.912C82.8962 109.752 82.8962 109.752 83.2501 110.65C83.3718 110.944 83.4936 111.239 83.619 111.542C83.9551 113.146 83.5342 114.359 82.652 115.714C82.3064 116.211 81.9519 116.701 81.5947 117.19C81.2106 117.725 81.2106 117.725 80.789 118.549C81.1006 119.469 81.6743 120.05 82.3573 120.722C82.5543 120.917 82.7513 121.113 82.9543 121.314C83.2626 121.615 83.2626 121.615 83.5771 121.923C83.7847 122.128 83.9924 122.333 84.2063 122.544C84.7182 123.05 85.2313 123.554 85.7456 124.057C87.1897 123.509 88.3153 122.694 89.5641 121.792C90.8537 121.061 91.8344 120.9 93.2772 121.254C93.7234 121.431 93.7234 121.431 94.1786 121.613C94.4774 121.727 94.7763 121.841 95.0843 121.959C96.2685 122.58 97.0777 123.136 97.5466 124.434C97.7532 125.206 97.9247 125.976 98.0853 126.759C98.3834 128.147 98.3834 128.147 98.6876 129.564C101.141 129.564 103.595 129.564 106.122 129.564C106.519 127.724 106.519 127.724 106.905 125.882C107.251 124.353 107.562 123.372 108.876 122.405C109.726 121.959 109.726 121.959 110.631 121.613C110.929 121.494 111.226 121.376 111.533 121.254C112.794 120.945 113.754 120.972 114.922 121.586C115.486 121.939 116.028 122.311 116.569 122.697C116.757 122.827 116.946 122.957 117.14 123.091C117.6 123.41 118.057 123.733 118.514 124.057C119.411 123.664 120.001 123.185 120.687 122.488C120.882 122.291 121.077 122.094 121.278 121.891C121.479 121.686 121.68 121.48 121.887 121.269C122.092 121.061 122.297 120.853 122.509 120.639C123.014 120.128 123.518 119.614 124.021 119.1C123.473 117.656 122.658 116.53 121.757 115.282C121.025 113.992 120.865 113.011 121.218 111.569C121.396 111.122 121.396 111.122 121.577 110.667C121.691 110.368 121.806 110.069 121.924 109.762C122.544 108.577 123.1 107.768 124.398 107.299C125.17 107.093 125.94 106.921 126.723 106.76C128.112 106.462 128.112 106.462 129.528 106.158C129.528 103.705 129.528 101.251 129.528 98.7233C127.688 98.3266 127.688 98.3266 125.846 97.9412C124.317 97.5944 123.336 97.2841 122.369 95.9697C121.924 95.1199 121.924 95.1199 121.577 94.2143C121.459 93.9168 121.34 93.6194 121.218 93.3129C120.909 92.0518 120.937 91.0921 121.551 89.9233C121.903 89.36 122.275 88.8178 122.661 88.2768C122.791 88.0884 122.922 87.9002 123.056 87.7061C123.374 87.2459 123.697 86.7886 124.021 86.332C123.628 85.4347 123.149 84.8444 122.453 84.1592C122.256 83.964 122.059 83.7688 121.856 83.5676C121.65 83.3667 121.445 83.1658 121.233 82.9588C121.025 82.7536 120.818 82.5485 120.604 82.3371C120.092 81.8317 119.579 81.3277 119.064 80.8248C117.916 81.2607 117.001 81.8199 115.984 82.5114C114.692 83.3313 113.619 83.9039 112.058 83.758C110.609 83.3879 109.234 82.8472 108.05 81.9262C107.296 80.535 106.96 79.0752 106.622 77.5376C106.457 76.805 106.292 76.0723 106.122 75.3175C103.669 75.3175 101.215 75.3175 98.6876 75.3175ZM38.1078 92.6654C38.0169 92.938 37.9261 93.2106 37.8324 93.4914C38.4716 93.811 38.8357 93.8008 39.547 93.7999C39.7911 93.8003 40.0351 93.8007 40.2866 93.8011C40.6891 93.7996 40.6891 93.7996 41.0998 93.7981C41.3819 93.7981 41.664 93.7981 41.9546 93.7982C42.8903 93.798 43.826 93.7958 44.7617 93.7937C45.4091 93.7932 46.0566 93.7928 46.704 93.7925C48.4107 93.7915 50.1173 93.7888 51.824 93.7857C53.5645 93.7829 55.305 93.7816 57.0455 93.7803C60.4624 93.7773 63.8793 93.7726 67.2963 93.7668C67.3871 93.4033 67.478 93.0398 67.5716 92.6654C57.8486 92.6654 48.1255 92.6654 38.1078 92.6654ZM42.5136 97.3465C42.5136 103.617 42.5136 109.887 42.5136 116.347C45.3306 116.347 48.1475 116.347 51.0499 116.347C51.0499 110.077 51.0499 103.807 51.0499 97.3465C48.2329 97.3465 45.4159 97.3465 42.5136 97.3465ZM54.6296 97.3465C54.6296 103.617 54.6296 109.887 54.6296 116.347C57.4465 116.347 60.2635 116.347 63.1658 116.347C63.1658 110.077 63.1658 103.807 63.1658 97.3465C60.3489 97.3465 57.5319 97.3465 54.6296 97.3465ZM4.23818 121.028C4.23818 121.209 4.23818 121.391 4.23818 121.578C28.5913 121.578 52.9444 121.578 78.0354 121.578C77.6265 120.761 77.6265 120.761 77.2093 119.926C68.1518 119.901 59.0944 119.882 50.0368 119.87C48.9677 119.869 47.8985 119.867 46.8293 119.866C46.51 119.865 46.5101 119.865 46.1843 119.865C42.7372 119.86 39.2901 119.851 35.843 119.841C32.3063 119.831 28.7697 119.825 25.233 119.823C23.0504 119.821 20.8679 119.816 18.6853 119.807C17.0121 119.801 15.3389 119.8 13.6657 119.802C12.979 119.801 12.2923 119.799 11.6056 119.795C10.6692 119.79 9.73302 119.791 8.79658 119.794C8.38755 119.789 8.38755 119.789 7.97026 119.784C6.37914 119.798 5.44204 119.95 4.23818 121.028Z" fill="#3B3B3B"/>
<path d="M113.47 89.5781C116.975 92.7081 118.898 96.7894 119.297 101.463C119.554 106.082 117.883 110.364 114.998 113.918C112.525 116.594 108.625 118.871 104.922 119.149C98.5485 119.299 98.5485 119.299 95.659 117.999C95.4045 117.888 95.15 117.778 94.8877 117.664C90.7365 115.639 87.9581 112.101 86.2977 107.854C84.8275 103.227 85.416 98.4736 87.553 94.1627C89.8705 90.1739 93.4795 87.4489 97.8619 86.0567C103.393 84.7714 109.107 85.8634 113.47 89.5781ZM92.8602 93.2441C90.3139 95.9429 89.0942 99.1496 89.0503 102.854C89.3761 106.857 90.9015 109.773 93.7659 112.543C96.5291 114.886 99.8553 115.869 103.447 115.771C107.071 115.38 110.321 113.548 112.731 110.839C113.388 109.962 113.904 109.07 114.384 108.086C114.497 107.867 114.611 107.648 114.728 107.422C115.95 104.676 116 100.998 115.038 98.1554C114.834 97.6956 114.616 97.2418 114.384 96.7958C114.264 96.5594 114.144 96.323 114.02 96.0795C112.163 92.7196 109.501 90.6996 105.868 89.5783C100.964 88.3197 96.4335 89.7739 92.8602 93.2441Z" fill="#3B3B3B"/>
<path d="M46.5399 63.6366C46.8506 63.6322 47.1612 63.6279 47.4812 63.6233C47.8153 63.6233 48.1495 63.6232 48.4938 63.6232C48.8381 63.6211 49.1823 63.619 49.5369 63.6168C50.2647 63.6138 50.9923 63.6127 51.7201 63.6143C52.6517 63.6159 53.5829 63.6075 54.5145 63.5964C55.4046 63.5875 56.2948 63.5887 57.185 63.5888C57.5192 63.5842 57.8533 63.5797 58.1977 63.5751C60.4368 63.5935 60.4368 63.5935 61.4477 64.2341C61.9953 65.6713 61.9454 67.073 61.935 68.598C61.9366 69.1046 61.9366 69.1046 61.9382 69.6214C61.9389 70.3345 61.9369 71.0476 61.9323 71.7607C61.9264 72.8534 61.9322 73.9457 61.9393 75.0384C61.9386 75.7312 61.9372 76.4241 61.935 77.117C61.9372 77.4443 61.9394 77.7716 61.9417 78.1088C61.9383 78.413 61.9348 78.7172 61.9312 79.0307C61.9303 79.298 61.9295 79.5653 61.9286 79.8408C61.7442 80.7749 61.454 81.0948 60.6873 81.6508C59.954 81.7888 59.954 81.7888 59.1092 81.789C58.7922 81.7916 58.4752 81.7941 58.1486 81.7968C57.637 81.7922 57.637 81.7922 57.1151 81.7874C56.5886 81.788 56.5886 81.788 56.0515 81.7887C55.3095 81.7882 54.5679 81.7856 53.826 81.7793C52.8753 81.7715 51.9248 81.7722 50.9741 81.7757C50.0666 81.7781 49.1593 81.774 48.2518 81.7702C47.7394 81.7714 47.7394 81.7714 47.2166 81.7727C46.9005 81.7692 46.5843 81.7657 46.2586 81.7621C45.98 81.7606 45.7015 81.7591 45.4145 81.7576C44.7162 81.6508 44.7162 81.6508 44.2137 81.3291C43.7585 80.6197 43.7833 80.0929 43.7789 79.2527C43.7754 78.9302 43.7719 78.6076 43.7683 78.2753C43.7691 77.9268 43.7699 77.5783 43.7707 77.2192C43.7693 76.8617 43.7678 76.5043 43.7664 76.1359C43.7639 75.3795 43.7646 74.6231 43.7673 73.8666C43.7705 72.897 43.7649 71.9277 43.7569 70.9582C43.7506 70.0334 43.7525 69.1087 43.7535 68.1839C43.7489 67.6611 43.7489 67.6611 43.7441 67.1278C43.7467 66.8052 43.7493 66.4827 43.752 66.1504C43.752 65.8661 43.7521 65.5818 43.7521 65.2889C43.8901 64.5783 43.8901 64.5783 44.3527 64.0743C45.1312 63.6819 45.669 63.644 46.5399 63.6366ZM47.4698 67.332C47.4698 70.8759 47.4698 74.4198 47.4698 78.0711C51.0138 78.0711 54.5577 78.0711 58.209 78.0711C58.209 74.5272 58.209 70.9833 58.209 67.332C54.6651 67.332 51.1211 67.332 47.4698 67.332Z" fill="#3B3B3B"/>
<path d="M70.7664 39.4091C71.0826 39.4056 71.3987 39.4021 71.7244 39.3985C72.2368 39.3997 72.2368 39.3997 72.7596 39.401C73.1103 39.3995 73.4611 39.3981 73.8224 39.3966C74.5648 39.3948 75.307 39.3948 76.0494 39.3975C76.9998 39.4007 77.9499 39.3951 78.9003 39.3871C79.8078 39.3808 80.7153 39.3827 81.6229 39.3838C81.9639 39.3807 82.305 39.3776 82.6564 39.3744C82.9734 39.377 83.2904 39.3796 83.617 39.3822C84.0352 39.3823 84.0352 39.3823 84.4618 39.3824C85.4127 39.5613 85.7325 39.8424 86.2965 40.6218C86.4364 41.3304 86.4364 41.3304 86.439 42.1406C86.4425 42.4448 86.446 42.749 86.4496 43.0624C86.4473 43.3897 86.4451 43.717 86.4428 44.0542C86.4444 44.5603 86.4444 44.5603 86.446 45.0767C86.4467 45.7903 86.4447 46.504 86.4401 47.2176C86.4342 48.3097 86.4401 49.4013 86.4471 50.4935C86.4464 51.1867 86.445 51.88 86.4428 52.5732C86.445 52.9 86.4473 53.2267 86.4496 53.5633C86.4356 54.7855 86.3925 55.7903 85.9555 56.9371C84.6403 57.7705 83.2135 57.603 81.6928 57.5824C81.1765 57.5825 81.1765 57.5825 80.6497 57.5825C79.9218 57.581 79.1944 57.5769 78.4666 57.5682C77.535 57.5573 76.6038 57.5561 75.6722 57.5581C74.782 57.5592 73.8918 57.5535 73.0017 57.548C72.6675 57.548 72.3333 57.5479 71.989 57.5479C71.6784 57.5435 71.3678 57.5391 71.0478 57.5346C70.6382 57.5311 70.6382 57.5311 70.2203 57.5276C69.3605 57.398 68.9866 57.2343 68.3979 56.5929C68.2599 55.8823 68.2599 55.8823 68.2598 55.0208C68.2572 54.6983 68.2546 54.3757 68.252 54.0434C68.255 53.6949 68.2581 53.3464 68.2613 52.9873C68.2609 52.6299 68.2605 52.2724 68.2601 51.9041C68.2597 51.1476 68.2632 50.3912 68.2695 49.6347C68.2773 48.6652 68.2765 47.6959 68.273 46.7263C68.2706 45.8015 68.2748 44.8768 68.2785 43.952C68.2777 43.6035 68.2769 43.255 68.2761 42.8959C68.2796 42.5733 68.2831 42.2508 68.2867 41.9185C68.2882 41.6342 68.2896 41.3499 68.2912 41.057C68.3979 40.3465 68.3979 40.3465 68.7215 39.8421C69.4226 39.3932 69.9363 39.4135 70.7664 39.4091ZM71.9776 43.1001C71.9776 46.644 71.9776 50.1879 71.9776 53.8392C75.5216 53.8392 79.0655 53.8392 82.7168 53.8392C82.7168 50.2953 82.7168 46.7514 82.7168 43.1001C79.1729 43.1001 75.629 43.1001 71.9776 43.1001Z" fill="#3B3B3B"/>
<path d="M46.2586 39.4091C46.5747 39.4056 46.8909 39.4021 47.2166 39.3985C47.729 39.3997 47.729 39.3997 48.2518 39.401C48.6025 39.3995 48.9532 39.3981 49.3146 39.3966C50.057 39.3948 50.7992 39.3948 51.5416 39.3975C52.492 39.4007 53.4421 39.3951 54.3925 39.3871C55.3 39.3808 56.2075 39.3827 57.1151 39.3838C57.4561 39.3807 57.7972 39.3776 58.1486 39.3744C58.4656 39.377 58.7826 39.3796 59.1092 39.3822C59.5274 39.3823 59.5274 39.3823 59.954 39.3824C60.9049 39.5613 61.2247 39.8424 61.7887 40.6218C61.9286 41.3304 61.9286 41.3304 61.9312 42.1406C61.9347 42.4448 61.9382 42.749 61.9417 43.0624C61.9395 43.3897 61.9373 43.717 61.935 44.0542C61.9366 44.5603 61.9366 44.5603 61.9382 45.0767C61.9389 45.7903 61.9369 46.504 61.9323 47.2176C61.9264 48.3097 61.9322 49.4013 61.9393 50.4935C61.9386 51.1867 61.9372 51.88 61.935 52.5732C61.9372 52.9 61.9394 53.2267 61.9417 53.5633C61.9278 54.7855 61.8847 55.7903 61.4477 56.9371C60.1325 57.7705 58.7057 57.603 57.185 57.5824C56.6687 57.5825 56.6687 57.5825 56.1419 57.5825C55.414 57.581 54.6866 57.5769 53.9587 57.5682C53.0272 57.5573 52.096 57.5561 51.1644 57.5581C50.2742 57.5592 49.384 57.5535 48.4938 57.548C48.1597 57.548 47.8255 57.5479 47.4812 57.5479C47.1706 57.5435 46.86 57.5391 46.5399 57.5346C46.1304 57.5311 46.1304 57.5311 45.7125 57.5276C44.8527 57.398 44.4788 57.2343 43.8901 56.5929C43.7521 55.8823 43.7521 55.8823 43.752 55.0208C43.7494 54.6983 43.7468 54.3757 43.7441 54.0434C43.7472 53.6949 43.7503 53.3464 43.7535 52.9873C43.7531 52.6299 43.7527 52.2724 43.7523 51.9041C43.7519 51.1476 43.7554 50.3912 43.7616 49.6347C43.7695 48.6652 43.7687 47.6959 43.7652 46.7263C43.7628 45.8015 43.767 44.8768 43.7707 43.952C43.7699 43.6035 43.7691 43.255 43.7683 42.8959C43.7718 42.5733 43.7753 42.2508 43.7789 41.9185C43.7803 41.6342 43.7818 41.3499 43.7834 41.057C43.8901 40.3465 43.8901 40.3465 44.2137 39.8421C44.9148 39.3932 45.4285 39.4135 46.2586 39.4091ZM47.4698 43.1001C47.4698 46.644 47.4698 50.1879 47.4698 53.8392C51.0138 53.8392 54.5577 53.8392 58.209 53.8392C58.209 50.2953 58.209 46.7514 58.209 43.1001C54.6651 43.1001 51.1211 43.1001 47.4698 43.1001Z" fill="#3B3B3B"/>
<path d="M22.0331 63.6366C22.3437 63.6322 22.6543 63.6279 22.9743 63.6233C23.3085 63.6233 23.6427 63.6232 23.987 63.6232C24.3312 63.6211 24.6754 63.619 25.0301 63.6168C25.7579 63.6138 26.4855 63.6127 27.2132 63.6143C28.1449 63.6159 29.0761 63.6075 30.0076 63.5964C30.8978 63.5875 31.7879 63.5887 32.6781 63.5888C33.0123 63.5842 33.3465 63.5797 33.6908 63.5751C35.9299 63.5935 35.9299 63.5935 36.9409 64.2341C37.4884 65.6713 37.4386 67.073 37.4282 68.598C37.4297 69.1046 37.4297 69.1046 37.4313 69.6214C37.4321 70.3345 37.4301 71.0476 37.4255 71.7607C37.4196 72.8534 37.4254 73.9457 37.4325 75.0384C37.4317 75.7312 37.4303 76.4241 37.4282 77.117C37.4304 77.4443 37.4326 77.7716 37.4349 78.1088C37.4314 78.413 37.428 78.7172 37.4244 79.0307C37.4235 79.298 37.4226 79.5653 37.4217 79.8408C37.2373 80.7749 36.9472 81.0948 36.1804 81.6508C35.4472 81.7888 35.4472 81.7888 34.6024 81.789C34.2854 81.7916 33.9684 81.7941 33.6418 81.7968C33.1302 81.7922 33.1302 81.7922 32.6082 81.7874C32.0818 81.788 32.0818 81.788 31.5447 81.7887C30.8027 81.7882 30.0611 81.7856 29.3191 81.7793C28.3684 81.7715 27.418 81.7722 26.4672 81.7757C25.5598 81.7781 24.6524 81.774 23.745 81.7702C23.2325 81.7714 23.2325 81.7714 22.7098 81.7727C22.3936 81.7692 22.0775 81.7657 21.7518 81.7621C21.4732 81.7606 21.1946 81.7591 20.9076 81.7576C20.2094 81.6508 20.2094 81.6508 19.7069 81.3291C19.2517 80.6197 19.2764 80.0929 19.272 79.2527C19.2685 78.9302 19.265 78.6076 19.2614 78.2753C19.2622 77.9268 19.2631 77.5783 19.2639 77.2192C19.2624 76.8617 19.261 76.5043 19.2595 76.1359C19.2571 75.3795 19.2577 74.6231 19.2605 73.8666C19.2636 72.897 19.2581 71.9277 19.25 70.9582C19.2438 70.0334 19.2456 69.1087 19.2467 68.1839C19.242 67.6611 19.242 67.6611 19.2373 67.1278C19.2399 66.8052 19.2425 66.4827 19.2451 66.1504C19.2452 65.8661 19.2452 65.5818 19.2453 65.2889C19.3833 64.5783 19.3833 64.5783 19.8459 64.0743C20.6243 63.6819 21.1621 63.644 22.0331 63.6366ZM22.963 67.332C22.963 70.8759 22.963 74.4198 22.963 78.0711C26.5069 78.0711 30.0508 78.0711 33.7022 78.0711C33.7022 74.5272 33.7022 70.9833 33.7022 67.332C30.1582 67.332 26.6143 67.332 22.963 67.332Z" fill="#3B3B3B"/>
<path d="M21.7518 39.4091C22.0679 39.4056 22.384 39.4021 22.7098 39.3985C23.2222 39.3997 23.2222 39.3997 23.745 39.401C24.0957 39.3995 24.4464 39.3981 24.8078 39.3966C25.5502 39.3948 26.2924 39.3948 27.0348 39.3975C27.9852 39.4007 28.9353 39.3951 29.8857 39.3871C30.7932 39.3808 31.7007 39.3827 32.6082 39.3838C32.9493 39.3807 33.2904 39.3776 33.6418 39.3744C33.9588 39.377 34.2758 39.3796 34.6024 39.3822C35.0206 39.3823 35.0206 39.3823 35.4472 39.3824C36.398 39.5613 36.7178 39.8424 37.2819 40.6218C37.4217 41.3304 37.4217 41.3304 37.4244 42.1406C37.4279 42.4448 37.4313 42.749 37.4349 43.0624C37.4327 43.3897 37.4305 43.717 37.4282 44.0542C37.4297 44.5603 37.4297 44.5603 37.4313 45.0767C37.4321 45.7903 37.4301 46.504 37.4255 47.2176C37.4196 48.3097 37.4254 49.4013 37.4325 50.4935C37.4317 51.1867 37.4303 51.88 37.4282 52.5732C37.4304 52.9 37.4326 53.2267 37.4349 53.5633C37.421 54.7855 37.3778 55.7903 36.9409 56.9371C35.6256 57.7705 34.1988 57.603 32.6781 57.5824C32.1618 57.5825 32.1618 57.5825 31.6351 57.5825C30.9071 57.581 30.1798 57.5769 29.4519 57.5682C28.5204 57.5573 27.5891 57.5561 26.6575 57.5581C25.7673 57.5592 24.8772 57.5535 23.987 57.548C23.6528 57.548 23.3186 57.5479 22.9743 57.5479C22.6637 57.5435 22.3531 57.5391 22.0331 57.5346C21.6235 57.5311 21.6235 57.5311 21.2056 57.5276C20.3458 57.398 19.9719 57.2343 19.3833 56.5929C19.2453 55.8823 19.2453 55.8823 19.2451 55.0208C19.2425 54.6983 19.24 54.3757 19.2373 54.0434C19.2404 53.6949 19.2435 53.3464 19.2467 52.9873C19.2463 52.6299 19.2459 52.2724 19.2455 51.9041C19.2451 51.1476 19.2485 50.3912 19.2548 49.6347C19.2626 48.6652 19.2619 47.6959 19.2584 46.7263C19.256 45.8015 19.2602 44.8768 19.2639 43.952C19.2631 43.6035 19.2623 43.255 19.2614 42.8959C19.2649 42.5733 19.2684 42.2508 19.272 41.9185C19.2735 41.6342 19.275 41.3499 19.2765 41.057C19.3833 40.3465 19.3833 40.3465 19.7069 39.8421C20.408 39.3932 20.9216 39.4135 21.7518 39.4091ZM22.963 43.1001C22.963 46.644 22.963 50.1879 22.963 53.8392C26.5069 53.8392 30.0508 53.8392 33.7022 53.8392C33.7022 50.2953 33.7022 46.7514 33.7022 43.1001C30.1582 43.1001 26.6143 43.1001 22.963 43.1001Z" fill="#3B3B3B"/>
<path d="M46.9065 7.46419C48.0422 8.2488 48.7867 9.38526 49.3977 10.6072C49.7585 15.4008 49.7585 15.4008 48.4134 17.0944C47.2382 18.2825 46.1605 19.0509 44.468 19.2263C42.4167 19.2342 41.1982 19.057 39.5879 17.715C38.1114 15.9665 37.6517 14.5357 37.7474 12.2303C37.9383 10.4404 38.3879 9.39244 39.7255 8.16335C41.9257 6.41362 44.3581 6.20807 46.9065 7.46419ZM41.6875 11.4333C41.2656 12.2771 41.349 12.9799 41.4121 13.9115C41.8933 14.9381 41.8933 14.9381 42.7889 15.5637C44.1571 15.6914 44.1571 15.6914 45.3705 15.1335C45.9686 14.2363 46.0747 13.6111 46.0933 12.5347C45.6761 11.4291 45.4309 10.9917 44.4411 10.3318C43.1638 10.1301 42.6029 10.5687 41.6875 11.4333Z" fill="#3B3B3B"/>
<path d="M28.4362 6.68334C29.2967 6.75218 29.2967 6.75218 29.7603 7.05444C30.3013 7.83628 30.2022 8.48268 30.1744 9.41976C30.1669 9.74455 30.1595 10.0693 30.1518 10.404C30.1422 10.6528 30.1326 10.9016 30.1228 11.158C31.1223 11.158 32.1219 11.158 33.1517 11.158C33.129 10.6866 33.1063 10.2152 33.0829 9.72954C33.0856 8.68789 33.1184 8.19438 33.5992 7.25128C34.2532 6.75218 34.2532 6.75218 35.0965 6.6145C35.9911 6.76678 36.187 6.88346 36.7315 7.57827C36.8136 8.39813 36.8472 9.15918 36.8412 9.97909C36.842 10.2143 36.8428 10.4496 36.8436 10.6919C36.8441 11.1891 36.8426 11.6863 36.8392 12.1835C36.8347 12.945 36.8391 13.7062 36.8444 14.4677C36.8439 14.9507 36.8428 15.4336 36.8412 15.9166C36.8437 16.2587 36.8437 16.2587 36.8462 16.6077C36.8268 18.1946 36.8268 18.1946 36.3634 18.7917C35.6639 19.329 35.1079 19.2325 34.2532 19.1435C33.4271 18.5928 33.4271 18.5928 33.1517 17.7667C33.1152 16.7558 33.1398 15.7496 33.1517 14.7377C32.1522 14.7377 31.1526 14.7377 30.1228 14.7377C30.1323 14.9865 30.1419 15.2354 30.1518 15.4917C30.1593 15.8165 30.1667 16.1413 30.1744 16.4759C30.184 16.7986 30.1936 17.1213 30.2034 17.4537C30.1228 18.3174 30.1228 18.3174 29.7581 18.8402C29.0456 19.3086 28.4747 19.23 27.6445 19.1435C26.8184 18.5928 26.8184 18.5928 26.543 17.7667C26.5099 17.0707 26.4913 16.3826 26.4871 15.6864C26.4855 15.483 26.484 15.2797 26.4823 15.0701C26.4798 14.6401 26.4779 14.21 26.4769 13.78C26.4742 13.1242 26.4657 12.4687 26.457 11.8131C26.4552 11.3946 26.4537 10.9762 26.4527 10.5578C26.4493 10.3627 26.4459 10.1676 26.4424 9.9666C26.4491 8.46872 26.7524 6.82976 28.4362 6.68334Z" fill="#3B3B3B"/>
<path d="M62.6929 6.57901C63.1087 6.57821 63.1087 6.57821 63.533 6.57739C63.9648 6.58724 63.9648 6.58724 64.4053 6.59729C64.8371 6.59277 64.8371 6.59277 65.2777 6.58815C67.3865 6.6084 67.3865 6.6084 68.2147 7.25027C68.6734 7.85363 68.6734 7.85363 68.6562 8.85182C68.3981 9.78117 68.3981 9.78117 67.572 10.3319C66.648 10.3857 66.648 10.3857 65.5928 10.3663C65.2425 10.3614 64.8921 10.3564 64.5312 10.3513C64.1281 10.3417 64.1281 10.3417 63.7169 10.3319C63.7169 10.6045 63.7169 10.8771 63.7169 11.158C63.9029 11.1484 64.0889 11.1388 64.2805 11.1289C64.649 11.1178 64.649 11.1178 65.0249 11.1064C65.2677 11.0968 65.5105 11.0872 65.7606 11.0773C66.6115 11.174 66.971 11.3803 67.572 11.9841C67.7758 13.6147 67.7758 13.6147 67.2493 14.3817C66.5434 14.8809 66.0342 14.8195 65.1798 14.7893C64.7693 14.7782 64.7693 14.7782 64.3505 14.7667C64.1414 14.7572 63.9323 14.7476 63.7169 14.7377C63.7169 15.0103 63.7169 15.2829 63.7169 15.5638C63.9593 15.5478 64.2018 15.5318 64.4516 15.5154C67.0589 15.4141 67.0589 15.4141 68.226 16.1489C68.6734 16.9406 68.6734 16.9406 68.6562 17.8183C68.3981 18.5928 68.3981 18.5928 67.8473 19.1435C66.7113 19.2842 65.5663 19.2583 64.4225 19.264C64.1036 19.273 63.7847 19.2821 63.4561 19.2914C63.1506 19.2934 62.8452 19.2953 62.5305 19.2973C62.2499 19.301 61.9693 19.3047 61.6803 19.3086C60.9633 19.1435 60.9633 19.1435 60.4597 18.5826C60.0584 17.5675 60.0134 16.6479 60.0178 15.5724C60.0156 15.2593 60.0156 15.2593 60.0134 14.94C60.0117 14.5002 60.012 14.0605 60.0144 13.6208C60.0167 12.9499 60.0088 12.2796 60 11.6087C59.9996 11.1802 59.9998 10.7518 60.0006 10.3233C59.9975 10.1239 59.9944 9.92452 59.9912 9.71909C60.0045 8.75346 60.1214 8.15652 60.6056 7.31427C61.363 6.64179 61.6925 6.57822 62.6929 6.57901Z" fill="#3B3B3B"/>
<path d="M51.8067 6.65218C51.987 6.65205 52.1672 6.65191 52.3529 6.65177C52.7334 6.65241 53.1139 6.65508 53.4944 6.65964C54.0764 6.66614 54.6581 6.66531 55.2402 6.66348C58.0936 6.67532 58.0936 6.67532 59.035 7.30294C59.2816 8.1756 59.39 8.7285 59.0866 9.5919C58.7596 10.0566 58.7596 10.0566 58.2089 10.3319C57.473 10.3689 56.7433 10.3438 56.006 10.3319C56.0103 10.5597 56.0147 10.7875 56.0191 11.0222C56.0363 12.0542 56.047 13.0861 56.0576 14.1182C56.0646 14.4767 56.0715 14.8352 56.0786 15.2046C56.0813 15.5489 56.0839 15.8932 56.0867 16.2479C56.091 16.5652 56.0953 16.8824 56.0998 17.2093C55.9963 18.1284 55.8459 18.509 55.1799 19.1435C53.5616 19.3458 53.5616 19.3458 52.7841 18.8372C52.2487 18.0596 52.3334 17.4252 52.3456 16.4899C52.3483 16.1323 52.3509 15.7747 52.3537 15.4062C52.3606 15.0285 52.3676 14.6508 52.3747 14.2731C52.3788 13.8921 52.3826 13.5112 52.386 13.1302C52.3957 12.1973 52.4093 11.2647 52.4263 10.3319C51.875 10.3415 51.3238 10.351 50.7725 10.3605C50.2234 10.3319 50.2234 10.3319 49.535 10.0394C48.8979 9.21651 48.9961 8.58475 49.1219 7.5783C49.8044 6.5312 50.6336 6.64932 51.8067 6.65218Z" fill="#3B3B3B"/>
<path d="M72.8033 6.75211C73.264 7.05524 73.264 7.05524 73.6294 7.5782C73.7231 8.40503 73.7231 8.40503 73.71 9.40571C73.7074 9.76333 73.7047 10.121 73.702 10.4894C73.6951 10.8671 73.6881 11.2449 73.681 11.6226C73.6769 12.0035 73.6731 12.3845 73.6697 12.7655C73.66 13.6983 73.6464 14.631 73.6294 15.5637C73.8917 15.5509 74.154 15.5382 74.4243 15.525C74.7696 15.5151 75.115 15.5051 75.4709 15.4949C75.8127 15.4821 76.1545 15.4693 76.5067 15.4562C77.6444 15.5813 78.0906 15.8295 78.8613 16.6652C78.8423 17.7651 78.8251 18.3535 78.0352 19.1434C76.8532 19.2846 75.6621 19.2582 74.4727 19.2639C74.1406 19.273 73.8085 19.282 73.4664 19.2913C72.9896 19.2943 72.9896 19.2943 72.5032 19.2973C72.2111 19.301 71.919 19.3047 71.618 19.3085C70.8757 19.1434 70.8757 19.1434 70.3672 18.5832C69.9703 17.5627 69.936 16.6411 69.9496 15.5626C69.9495 15.3533 69.9493 15.1439 69.9492 14.9282C69.9498 14.4873 69.9525 14.0465 69.9571 13.6056C69.9636 12.9318 69.9627 12.2583 69.9609 11.5844C69.9624 11.155 69.9644 10.7257 69.9668 10.2963C69.9666 10.0955 69.9663 9.89472 69.9661 9.68782C69.9802 8.67531 70.0062 7.87107 70.6004 7.02748C71.371 6.64215 71.951 6.68254 72.8033 6.75211Z" fill="#3B3B3B"/>
</svg>
