<svg width="139" height="112" viewBox="0 0 139 112" fill="none" xmlns="http://www.w3.org/2000/svg">
<path d="M65.0173 5.04791C68.0299 7.58202 70.4676 10.9474 71.6383 14.7248C71.6383 14.9923 71.6383 15.2598 71.6383 15.5354C71.903 15.5461 72.1678 15.5568 72.4405 15.5678C76.5577 15.7514 80.6616 16.1014 84.7664 16.4593C85.5912 16.531 86.416 16.6003 87.2411 16.6675C88.254 16.75 89.2665 16.8366 90.2788 16.926C90.6588 16.9589 91.039 16.9905 91.4193 17.0206C97.2771 17.4877 100.161 20.1198 104.137 24.1027C104.513 24.4776 104.889 24.8524 105.266 25.227C106.282 26.239 107.296 27.2526 108.31 28.2665C109.372 29.3285 110.436 30.389 111.5 31.4497C113.284 33.2289 115.066 35.0091 116.848 36.79C118.91 38.8506 120.974 40.9098 123.038 42.9682C125.024 44.9491 127.01 46.9308 128.995 48.913C129.84 49.7567 130.685 50.6002 131.531 51.4434C132.524 52.4344 133.517 53.4261 134.509 54.4183C134.874 54.783 135.239 55.1475 135.604 55.5117C136.101 56.0072 136.597 56.5034 137.093 57C137.239 57.1453 137.386 57.2907 137.536 57.4405C138.407 58.3147 138.78 58.758 139 59.9848C138.982 61.123 138.566 61.6128 137.796 62.4287C137.573 62.666 137.351 62.9034 137.121 63.1479C136.881 63.397 136.64 63.6461 136.392 63.9028C136.155 64.1487 135.917 64.3947 135.673 64.648C134.876 65.4653 134.073 66.2767 133.269 67.0869C132.963 67.396 132.657 67.7052 132.351 68.0145C129.582 70.8109 126.804 73.599 124.025 76.3851C121.974 78.4412 119.927 80.5012 117.885 82.5664C116.444 84.0233 114.998 85.4755 113.549 86.9243C112.685 87.7881 111.824 88.6539 110.967 89.5248C110.163 90.3424 109.353 91.154 108.539 91.9614C108.241 92.2582 107.946 92.5571 107.653 92.8581C107.252 93.2697 106.844 93.6731 106.434 94.0753C106.207 94.3029 105.981 94.5305 105.748 94.7651C104.657 95.4356 103.774 95.5207 102.525 95.247C101.809 94.8569 101.291 94.3405 100.729 93.7555C100.565 93.595 100.401 93.4345 100.233 93.2691C99.6871 92.7315 99.1506 92.1857 98.6137 91.6394C98.2237 91.2515 97.8331 90.8641 97.4421 90.4772C96.3825 89.4258 95.3306 88.3669 94.2801 87.3064C93.1787 86.1967 92.0707 85.0935 90.9636 83.9895C89.1047 82.1338 87.2505 80.2735 85.3993 78.4101C83.2615 76.2582 81.1176 74.1125 78.97 71.9702C76.6815 69.6872 74.3971 67.4001 72.1141 65.1116C71.4573 64.4537 70.7997 63.7966 70.142 63.1396C69.1067 62.1048 68.0741 61.0674 67.0437 60.0277C66.666 59.6474 66.2874 59.268 65.9077 58.8896C61.3828 54.3762 61.3828 54.3762 61.021 51.6758C60.9843 51.4045 60.9476 51.1332 60.9098 50.8536C60.8739 50.5231 60.8379 50.1925 60.8008 49.8519C60.7768 49.6368 60.7527 49.4217 60.7279 49.2C60.4352 46.5397 60.1457 43.8853 60.259 41.2052C59.9142 41.3421 59.9142 41.3421 59.5626 41.4818C57.2581 42.3556 55.1379 42.8464 52.6727 43.0967C52.6444 43.2862 52.6161 43.4757 52.587 43.6709C51.3769 48.7467 46.2831 53.7083 42.0469 56.326C40.4417 57.2612 38.6711 58.2631 36.8403 58.6314C35.4655 58.9018 35.4655 58.9018 34.4365 59.7752C34.1781 60.4136 34.0052 61.0387 33.8447 61.7084C33.7729 61.9652 33.7011 62.2221 33.6272 62.4867C33.3836 63.3671 33.1564 64.2511 32.9282 65.1356C32.7551 65.771 32.5807 66.406 32.4051 67.0407C32.1073 68.1198 31.8104 69.199 31.5186 70.2798C30.5569 73.839 29.5458 77.3835 28.5276 80.927C28.443 81.2215 28.3584 81.516 28.2712 81.8195C27.9266 83.0183 27.5819 84.2172 27.2369 85.416C26.6366 87.5027 26.0389 89.5901 25.4426 91.6779C25.2794 92.2492 25.1162 92.8204 24.9529 93.3916C24.7209 94.2038 24.4889 95.0161 24.2572 95.8284C23.9158 97.0253 23.5729 98.2216 23.2249 99.4166C23.0012 100.186 22.7877 100.956 22.5861 101.732C22.0961 103.525 21.7748 104.531 20.1603 105.515C19.8852 105.687 19.6101 105.858 19.3267 106.035C19.0363 106.197 18.746 106.359 18.4468 106.526C18.2878 106.616 18.1288 106.705 17.965 106.798C17.4615 107.081 16.9568 107.362 16.4519 107.643C15.7898 108.013 15.1284 108.384 14.4675 108.755C14.3065 108.846 14.1456 108.936 13.9798 109.029C12.6961 109.754 11.4629 110.542 10.2417 111.367C9.52644 111.768 9.06031 111.961 8.23908 112C6.90176 111.526 6.35995 110.989 5.72021 109.744C5.56798 109.455 5.41575 109.165 5.2589 108.867C5.10239 108.558 4.94588 108.248 4.78463 107.93C4.5359 107.451 4.28717 106.972 4.03768 106.493C3.78914 106.016 3.54194 105.538 3.29474 105.06C2.87202 104.262 2.43164 103.481 1.97154 102.703C1.84503 102.488 1.71851 102.273 1.58816 102.051C1.35656 101.661 1.12134 101.272 0.881712 100.887C0.121589 99.5875 -0.18411 98.3727 0.11097 96.8683C0.680688 96.2273 1.02285 95.9345 1.73659 95.5173C1.9451 95.3915 2.1536 95.2658 2.36842 95.1362C4.04545 94.1662 4.04545 94.1662 4.7169 94.1662C4.55729 93.8566 4.39768 93.5469 4.23323 93.2279C4.02731 92.8146 3.82165 92.4012 3.61622 91.9876C3.51057 91.7844 3.40492 91.5812 3.29607 91.3718C2.64508 90.0445 2.35898 89.1554 2.82034 87.6812C3.53313 86.7658 4.45096 86.2017 5.42811 85.5871C5.81892 85.3384 5.81892 85.3384 6.21763 85.0846C6.88439 84.7089 6.88439 84.7089 7.42627 84.7089C7.35919 84.5729 7.29211 84.4369 7.223 84.2967C6.9183 83.671 6.62196 83.0418 6.32558 82.4121C6.21994 82.1982 6.11429 81.9844 6.00543 81.764C5.30812 80.2624 5.08434 79.2988 5.52971 77.6835C6.01337 77.1061 6.01337 77.1061 6.63039 76.6871C6.84832 76.5352 7.06626 76.3833 7.2908 76.2269C7.51432 76.0834 7.73784 75.9398 7.96814 75.792C8.18049 75.6541 8.39283 75.5161 8.61162 75.374C9.11527 75.0547 9.62324 74.746 10.1356 74.4409C9.99873 74.1602 9.86182 73.8795 9.72076 73.5902C9.54269 73.2097 9.3649 72.829 9.18736 72.4482C9.0969 72.2646 9.00644 72.081 8.91324 71.8919C7.68816 69.2239 8.30439 66.791 9.07835 64.0664C9.16318 63.7556 9.24802 63.4447 9.33542 63.1245C9.60457 62.1389 9.87808 61.1546 10.1526 60.1705C10.4279 59.1816 10.7021 58.1924 10.9726 57.2022C11.1404 56.5879 11.311 55.9744 11.4846 55.3617C11.5985 54.9448 11.5985 54.9448 11.7148 54.5196C11.7827 54.2763 11.8507 54.033 11.9208 53.7824C12.0456 53.0114 11.9831 52.4895 11.7613 51.7434C11.2772 51.1215 11.2772 51.1215 10.6606 50.5275C8.11256 47.7927 6.63911 44.7228 5.52971 41.2052C5.43716 40.9155 5.3446 40.6257 5.24925 40.3271C3.48757 33.6589 4.82827 26.5114 8.19674 20.6039C11.7956 14.9407 17.1967 11.0614 23.6825 9.32059C23.9011 9.25999 24.1197 9.19938 24.345 9.13694C27.1625 8.49391 30.8898 8.31561 33.7071 9.05038C33.7805 8.8926 33.8538 8.73481 33.9294 8.57224C35.9708 4.72286 40.8047 2.12798 44.842 0.839621C51.9774 -1.18662 59.2243 0.546349 65.0173 5.04791ZM39.1259 9.5908C38.9471 9.85831 38.7682 10.1258 38.584 10.4014C38.7243 10.4705 38.8647 10.5397 39.0093 10.6109C41.8294 12.012 44.3966 13.3769 46.7121 15.5354C46.8986 15.697 47.0851 15.8586 47.2773 16.0252C51.4497 19.8409 54.0834 25.745 54.3425 31.3532C54.3881 33.5572 54.3597 35.7593 54.2983 37.9627C55.6887 37.6897 56.9593 37.4029 58.2269 36.7468C58.4532 36.6326 58.6796 36.5183 58.9127 36.4006C59.4852 36.1115 59.4852 36.1115 59.7171 35.5309C59.6838 34.9393 59.6296 34.3488 59.5657 33.7597C59.5473 33.5823 59.5289 33.4048 59.5099 33.2219C59.4312 32.4637 59.3487 31.7059 59.2664 30.9481C58.3525 22.4547 58.3525 22.4547 60.9702 18.9299C62.5869 17.0833 64.4099 16.1554 66.7614 15.5354C64.751 10.9094 61.9466 7.91487 57.2448 5.85854C50.7833 3.35021 44.1824 4.96234 39.1259 9.5908ZM14.3373 20.4382C10.4799 24.8185 9.01701 30.3386 9.32282 36.0713C9.85007 40.1309 11.3347 43.7117 13.9288 46.8796C14.1179 47.1247 14.1179 47.1247 14.3108 47.3747C15.0785 48.3471 15.9549 49.0734 16.9091 49.8519C17.8182 51.6652 16.7755 54.0343 16.2815 55.8398C16.1427 56.3613 16.0039 56.8829 15.8653 57.4044C15.5243 58.6845 15.1781 59.9631 14.8319 61.2417C14.6371 61.9614 14.4442 62.6816 14.253 63.4023C14.0732 64.0794 13.8906 64.7558 13.7049 65.4313C13.6235 65.7388 13.5421 66.0464 13.4583 66.3632C13.3855 66.6324 13.3127 66.9015 13.2376 67.1787C13.0335 68.4821 13.321 69.5703 13.8875 70.7425C13.9844 70.9494 14.0813 71.1563 14.1812 71.3694C14.3856 71.7963 14.5909 72.2227 14.7971 72.6487C15.7879 74.7714 15.7879 74.7714 15.5544 76.0622C14.8308 77.2536 13.8265 77.8943 12.6418 78.5785C12.3971 78.724 12.3971 78.724 12.1476 78.8725C11.7492 79.1089 11.349 79.3423 10.9484 79.5749C11.1738 81.099 11.8712 82.389 12.5254 83.7705C12.8775 84.8042 12.9215 85.3009 12.5741 86.3301C12.0809 86.8642 12.0809 86.8642 11.4565 87.3097C11.2382 87.4667 11.0199 87.6238 10.795 87.7857C9.9617 88.3366 9.12172 88.8342 8.23908 89.3024C8.45613 90.7739 9.12689 91.9699 9.78956 93.287C10.158 94.2229 10.2876 94.7947 10.1356 95.7875C9.37874 96.7964 8.29607 97.3817 7.22306 98.0167C7.05996 98.1149 6.89686 98.2131 6.72882 98.3143C6.32995 98.5543 5.92994 98.7923 5.52971 99.03C6.70573 101.429 7.88592 103.797 9.32282 106.055C9.61015 105.94 9.61015 105.94 9.90329 105.821C10.4069 105.622 10.9132 105.43 11.4223 105.245C14.2991 104.147 17.2106 102.803 18.6026 99.9181C19.6932 97.3448 20.359 94.6151 21.0354 91.911C21.3583 90.6465 21.7132 89.391 22.0647 88.1342C22.7235 85.7609 23.3547 83.3811 23.9754 80.9976C24.7528 78.0177 25.564 75.0471 26.3765 72.0766C26.6611 71.0359 26.9455 69.9951 27.2297 68.9543C27.2984 68.7024 27.3672 68.4505 27.4381 68.1909C27.9111 66.4547 28.3738 64.7159 28.8326 62.9758C29.0149 62.2886 29.1974 61.6015 29.38 60.9144C29.4939 60.4836 29.6067 60.0526 29.7185 59.6213C29.8708 59.0336 30.0264 58.4469 30.1828 57.8603C30.2688 57.5316 30.3548 57.2028 30.4434 56.8641C30.7185 56.0903 30.881 55.731 31.5396 55.2561C32.2034 55.0712 32.8475 54.9197 33.5209 54.7832C36.9272 54.0067 39.7788 52.4693 42.3771 50.1221C42.5689 49.9497 42.7606 49.7773 42.9582 49.5997C44.8493 47.8074 46.3223 45.6698 47.5249 43.3669C47.5249 43.1886 47.5249 43.0102 47.5249 42.8265C47.1215 42.7131 47.1215 42.7131 46.71 42.5975C43.4053 41.6373 40.2025 40.4265 37.5003 38.233C37.1671 37.5684 37.2253 37.2109 37.2971 36.4766C37.3243 36.1547 37.3243 36.1547 37.3521 35.8264C37.5003 35.2607 37.5003 35.2607 38.3131 34.7202C40.2215 34.4143 41.1473 35.0623 42.7063 36.1209C44.787 37.4742 46.9867 37.9159 49.4215 38.233C50.6067 32.9016 49.5052 27.4609 46.7121 22.831C44.1677 19.2039 40.6657 16.1763 36.4165 14.7248C36.1483 14.7248 35.8801 14.7248 35.6037 14.7248C35.2461 15.884 34.8884 17.0432 34.52 18.2375C34.9335 18.4604 35.347 18.6833 35.773 18.913C37.7702 20.116 38.8967 21.6173 39.5408 23.8538C40.0205 26.1146 39.4634 28.1891 38.3808 30.1942C37.1078 31.746 35.7242 32.9779 33.7071 33.3692C30.7272 33.6537 28.6528 33.2728 26.3072 31.4271C24.6303 29.858 24.0589 27.9965 23.9259 25.7421C24.0031 23.6407 24.7808 21.752 26.2648 20.2493C27.1133 19.4762 27.7876 19.0259 28.8811 18.6766C29.5279 18.3935 29.8351 18.1515 30.1147 17.4989C30.5144 16.2359 30.7669 14.9466 30.9978 13.6439C24.3468 13.3464 18.9335 15.7042 14.3373 20.4382ZM65.1464 21.4642C63.3 23.5048 63.4128 25.329 63.5102 27.965C63.6109 29.7301 63.7804 31.4899 63.9462 33.2499C63.9923 33.7478 64.0383 34.2457 64.0842 34.7437C64.1804 35.7791 64.2781 36.8143 64.3767 37.8495C64.5024 39.1716 64.6223 40.4941 64.7409 41.8168C64.8337 42.842 64.9304 43.8667 65.0283 44.8914C65.0742 45.3789 65.1187 45.8666 65.1617 46.3544C65.2222 47.036 65.2883 47.7169 65.3557 48.3979C65.3721 48.596 65.3884 48.7941 65.4053 48.9982C65.6435 51.2698 66.6776 52.9068 68.2906 54.4793C68.442 54.6312 68.5934 54.7831 68.7494 54.9396C69.2527 55.4434 69.7598 55.9432 70.267 56.443C70.6304 56.8052 70.9935 57.1675 71.3565 57.5301C72.3392 58.5105 73.3252 59.4875 74.3119 60.464C75.3437 61.4862 76.3724 62.5115 77.4014 63.5365C79.349 65.4755 81.2993 67.4118 83.2507 69.347C85.4727 71.551 87.6917 73.7581 89.9104 75.9654C94.4731 80.5046 99.0397 85.0399 103.609 89.5727C105.252 88.216 106.753 86.7437 108.258 85.2373C108.53 84.9655 108.803 84.6937 109.075 84.422C109.81 83.6891 110.544 82.9554 111.278 82.2216C112.047 81.453 112.817 80.6851 113.587 79.9172C115.042 78.4651 116.496 77.0123 117.95 75.5593C119.607 73.9042 121.264 72.2498 122.922 70.5956C126.329 67.1946 129.735 63.7927 133.141 60.3901C132.712 59.3407 131.996 58.6311 131.203 57.8464C131.059 57.702 130.916 57.5577 130.768 57.409C130.286 56.9257 129.802 56.4443 129.318 55.9629C128.972 55.6167 128.626 55.2705 128.281 54.9241C127.341 53.9832 126.399 53.044 125.457 52.1053C124.671 51.3209 123.885 50.5356 123.099 49.7504C121.243 47.8968 119.386 46.0447 117.528 44.1934C115.614 42.286 113.702 40.3762 111.792 38.4652C110.15 36.8232 108.507 35.1827 106.862 33.5435C105.881 32.5652 104.9 31.5862 103.921 30.6057C102.999 29.6826 102.074 28.7615 101.149 27.8418C100.81 27.5051 100.473 27.1677 100.136 26.8295C96.9187 23.4278 96.9187 23.4278 92.6327 21.9434C92.3455 21.9163 92.3455 21.9163 92.0525 21.8887C91.4176 21.8304 90.7824 21.7819 90.1467 21.7333C89.6931 21.6936 89.2396 21.6532 88.7862 21.6122C87.7856 21.5226 86.7849 21.4371 85.7838 21.3537C83.9273 21.1974 82.0729 21.0208 80.2183 20.8435C76.352 20.476 76.352 20.476 72.485 20.1163C72.0699 20.0771 72.0699 20.0771 71.6464 20.0371C68.0885 19.672 68.0885 19.672 65.1464 21.4642ZM29.3722 23.6417C28.7256 24.5776 28.5562 25.0859 28.5763 26.2255C28.8991 27.4062 29.3568 28.1676 30.4189 28.8115C31.451 29.2293 32.3892 29.1111 33.4362 28.7756C34.3418 28.1392 34.9411 27.4149 35.1888 26.3258C35.2433 25.1337 35.0229 24.2719 34.249 23.3715C32.4122 22.1909 31.0482 22.2301 29.3722 23.6417Z" fill="#3B3B3B"/>
</svg>
