<svg width="13" height="18" viewBox="0 0 13 18" fill="none" xmlns="http://www.w3.org/2000/svg">
<path d="M7.96675 0.178293C8.01243 0.189281 8.01243 0.189281 8.05904 0.200491C9.28388 0.50074 10.3275 1.1414 11.2118 2.03609C11.229 2.05347 11.2462 2.07086 11.2639 2.08877C12.4307 3.28391 13.0007 4.99035 13 6.64032C12.9593 9.30439 11.3315 11.8883 9.88585 14.0241C9.85739 14.0664 9.85739 14.0664 9.82835 14.1095C9.44606 14.6771 9.04397 15.2282 8.62232 15.7669C8.537 15.8762 8.45242 15.9861 8.36778 16.096C8.09181 16.4538 7.80866 16.8046 7.51635 17.1491C7.41181 17.2726 7.31049 17.3982 7.21001 17.525C7.06932 17.6989 6.91333 17.8832 6.71061 17.9851C6.64391 17.9912 6.57693 17.9944 6.50998 17.996C6.47417 17.9973 6.43837 17.9986 6.40148 18C6.17103 17.9686 6.0276 17.7982 5.87973 17.6324C5.86146 17.6121 5.84319 17.5919 5.82437 17.5711C5.69013 17.4215 5.56133 17.2679 5.4358 17.1108C5.37004 17.0288 5.30366 16.9476 5.23653 16.8668C5.01571 16.6006 4.8011 16.3316 4.59608 16.0529C4.47891 15.894 4.35745 15.7395 4.23322 15.5862C4.02736 15.331 3.83991 15.0645 3.65357 14.7947C3.60993 14.732 3.56568 14.6699 3.52092 14.608C2.02198 12.5331 0.486309 10.0783 0.0809831 7.50431C0.0769463 7.47892 0.0729094 7.45352 0.0687502 7.42736C-0.176452 5.81929 0.242463 4.07975 1.19401 2.76412C1.21821 2.73208 1.24241 2.70004 1.26734 2.66704C1.28938 2.63753 1.31142 2.60802 1.33412 2.57762C2.27393 1.3596 3.54741 0.540972 5.03576 0.178293C5.06519 0.170871 5.09462 0.163449 5.12495 0.155803C6.02666 -0.0631547 7.06866 -0.0473881 7.96675 0.178293ZM4.26812 4.1743C4.24594 4.19364 4.22377 4.21298 4.20092 4.23291C3.59396 4.7992 3.30181 5.63875 3.24968 6.44931C3.22825 7.36576 3.60156 8.19127 4.21496 8.8548C4.63885 9.27206 5.16102 9.55761 5.73361 9.71263C5.76136 9.72049 5.78912 9.72836 5.81771 9.73646C6.61523 9.92183 7.49999 9.75192 8.19233 9.32472C8.94637 8.82123 9.46858 8.113 9.6765 7.22389C9.84657 6.36875 9.70367 5.47753 9.21723 4.74411C8.67514 3.97269 7.94251 3.51152 7.03201 3.31168C5.98846 3.18414 5.0569 3.47386 4.26812 4.1743Z" fill="#3B3B3B"/>
</svg>
