<svg width="39" height="54" viewBox="0 0 39 54" fill="none" xmlns="http://www.w3.org/2000/svg">
<path d="M23.9003 0.534878C24.0373 0.567843 24.0373 0.567843 24.1771 0.601474C27.8517 1.50222 30.9826 3.4242 33.6353 6.10826C33.687 6.16042 33.7386 6.21257 33.7918 6.26631C37.2922 9.85172 39.002 14.9711 39 19.9209C38.8778 27.9132 33.9945 35.665 29.6576 42.0723C29.5722 42.1992 29.5722 42.1992 29.4851 42.3285C28.3382 44.0313 27.1319 45.6847 25.867 47.3007C25.611 47.6287 25.3573 47.9584 25.1033 48.2879C24.2754 49.3615 23.426 50.4139 22.549 51.4474C22.2354 51.8178 21.9315 52.1945 21.63 52.575C21.208 53.0967 20.74 53.6497 20.1318 53.9552C19.9317 53.9736 19.7308 53.9833 19.5299 53.9881C19.4225 53.992 19.3151 53.996 19.2044 54C18.5131 53.9058 18.0828 53.3947 17.6392 52.8971C17.5844 52.8364 17.5296 52.7758 17.4731 52.7134C17.0704 52.2644 16.684 51.8038 16.3074 51.3324C16.1101 51.0865 15.911 50.8429 15.7096 50.6004C15.0471 49.8017 14.4033 48.9948 13.7882 48.1587C13.4367 47.6821 13.0724 47.2185 12.6997 46.7585C12.0821 45.993 11.5197 45.1934 10.9607 44.3842C10.8298 44.1961 10.697 44.0096 10.5628 43.8239C6.06593 37.5992 1.45893 30.235 0.242949 22.5129C0.230839 22.4368 0.218728 22.3606 0.206251 22.2821C-0.529357 17.4579 0.72739 12.2393 3.58202 8.29235C3.65462 8.19624 3.72722 8.10013 3.80201 8.00111C3.86813 7.91259 3.93425 7.82407 4.00237 7.73287C6.82178 4.07881 10.6422 1.62292 15.1073 0.534878C15.1956 0.512613 15.2839 0.490348 15.3748 0.467408C18.08 -0.189464 21.206 -0.142164 23.9003 0.534878ZM12.8043 12.5229C12.7378 12.5809 12.6713 12.6389 12.6028 12.6987C10.7819 14.3976 9.90543 16.9162 9.74905 19.3479C9.68475 22.0973 10.8047 24.5738 12.6449 26.5644C13.9165 27.8162 15.4831 28.6728 17.2008 29.1379C17.2841 29.1615 17.3674 29.1851 17.4531 29.2094C19.8457 29.7655 22.5 29.2558 24.577 27.9742C26.8391 26.4637 28.4057 24.339 29.0295 21.6717C29.5397 19.1062 29.111 16.4326 27.6517 14.2323C26.0254 11.9181 23.8275 10.5346 21.096 9.93503C17.9654 9.55243 15.1707 10.4216 12.8043 12.5229Z" fill="#DBDBDB"/>
</svg>
