<svg viewBox="0 0 149 130" x="0" y="0" fill="none" xmlns="http://www.w3.org/2000/svg"><g id="Vector_62" xmlns="http://www.w3.org/2000/svg">
<path d="M28.332,36.2757c3.28,0 6.561,0 9.941,0c0.113,17.9443 0.226,35.8883 0.343,54.3763c0.679,-0.79 1.358,-1.58 2.057,-2.394c1.462,-0.906 3.125,-0.867 4.799,-0.684c2.246,0.747 3.537,2.31 4.6,4.357c2.741,6.181 2.307,13.112 2.278,19.732c-0.002,0.686 -0.003,1.371 -0.005,2.056c-0.003,1.659 -0.01,3.318 -0.017,4.977c-3.393,0 -6.787,0 -10.284,0c-0.013,-1.207 -0.026,-2.414 -0.039,-3.657c-0.016,-1.172 -0.033,-2.345 -0.051,-3.518c-0.011,-0.813 -0.021,-1.626 -0.029,-2.439c-0.011,-1.17 -0.029,-2.341 -0.048,-3.512c-0.002,-0.361 -0.005,-0.723 -0.007,-1.096c-0.04,-2.017 -0.247,-3.481 -1.197,-5.272c-0.34,0.113 -0.679,0.226 -1.029,0.342c-1.177,2.61 -1.081,5.685 -1.136,8.498c-0.008,0.307 -0.015,0.614 -0.022,0.93c-0.022,0.968 -0.043,1.937 -0.063,2.905c-0.015,0.662 -0.03,1.323 -0.045,1.985c-0.036,1.611 -0.071,3.222 -0.105,4.834c-3.28,0 -6.561,0 -9.941,0c0,-27.199 0,-54.398 0,-82.4203z" fill="#F44335"/>
<path d="M104.093,89.283c0.29,0.163 0.58,0.325 0.878,0.492c1.204,0.277 1.865,-0.217 2.905,-0.819c2.341,-1.24 5.703,-1.032 8.226,-0.465c1.899,0.688 2.992,1.506 4.103,3.186c0.401,1.2 0.384,2.137 0.382,3.403c0,0.24 0,0.481 0,0.728c0,0.794 -0.003,1.588 -0.006,2.382c0,0.55 -0.001,1.101 -0.001,1.652c-0.002,1.449 -0.005,2.897 -0.009,4.346c-0.003,1.479 -0.005,2.957 -0.007,4.436c-0.003,2.901 -0.009,5.802 -0.016,8.703c-3.281,0 -6.562,0 -9.942,0c-0.113,-7.9 -0.226,-15.8 -0.343,-23.94c-1.537,-0.244 -1.537,-0.244 -3.085,-0.342c-0.113,8.013 -0.226,16.026 -0.343,24.282c-3.28,0 -6.561,0 -9.941,0c-0.113,-8.013 -0.226,-16.026 -0.343,-24.282c-1.018,0 -2.036,0 -3.085,0c-0.113,8.013 -0.226,16.026 -0.343,24.282c-3.281,0 -6.561,0 -9.941,0c0,-9.48 0,-18.96 0,-28.728c3.28,0 6.561,0 9.941,0c0,0.339 0,0.678 0,1.026c0.196,-0.098 0.392,-0.197 0.593,-0.299c3.443,-1.573 6.913,-1.57 10.377,-0.043z" fill="#F44335"/>
<path d="M15.305,36.9594c2.941,0 5.882,0 8.913,0c0,14.5586 0,29.1176 0,44.1166c-2.941,0 -5.883,0 -8.913,0c0,-0.225 0,-0.451 0,-0.684c-0.361,0.163 -0.721,0.325 -1.093,0.492c-2.871,1.21 -5.931,1.285 -8.8593,0.184c-1.0314,-0.51 -1.6663,-1.158 -2.389,-2.044c-0.2404,-0.289 -0.4808,-0.578 -0.7285,-0.876c-3.0529,-5.584 -2.533,-13.982 -1.0726,-20.0158c0.8136,-2.3988 2.3867,-4.0044 4.636,-5.1553c1.2026,-0.3673 2.3464,-0.4118 3.5924,-0.4141c0.228,-0.0084 0.456,-0.0168 0.691,-0.0254c2.192,-0.0126 2.992,0.5326 5.223,1.5216c0,-5.6429 0,-11.2857 0,-17.0996zM10.163,56.7949c-0.209,0.9355 -0.209,0.9355 -0.178,2.0153c-0.004,0.4138 -0.008,0.8288 -0.013,1.2558c0.003,0.447 0.006,0.895 0.009,1.357c-0.001,0.463 -0.003,0.927 -0.004,1.391c-0.002,0.972 0.001,1.943 0.007,2.915c0.008,1.246 0.003,2.491 -0.005,3.736c-0.005,0.958 -0.003,1.916 0,2.873c0.002,0.683 -0.003,1.365 -0.007,2.048c0.004,0.414 0.009,0.828 0.013,1.255c0.001,0.365 0.002,0.731 0.004,1.107c0.093,0.943 0.093,0.943 0.795,1.539c1.099,0.579 1.928,0.526 3.15,0.395c0.781,-0.363 0.781,-0.363 1.371,-1.026c0.208,-0.935 0.208,-0.935 0.177,-2.015c0.005,-0.414 0.009,-0.828 0.013,-1.255c-0.002,-0.448 -0.005,-0.896 -0.008,-1.357c0.001,-0.464 0.002,-0.928 0.004,-1.392c0.002,-0.971 -0.001,-1.943 -0.007,-2.915c-0.008,-1.245 -0.004,-2.49 0.005,-3.736c0.004,-0.958 0.003,-1.915 -0.001,-2.873c-0.001,-0.682 0.003,-1.365 0.007,-2.047c-0.004,-0.415 -0.008,-0.829 -0.013,-1.2558c-0.001,-0.3653 -0.002,-0.7305 -0.003,-1.1068c-0.094,-0.9434 -0.094,-0.9434 -0.796,-1.5394c-1.638,-0.8634 -3.235,-0.6736 -4.52,0.6309z" fill="black"/>
<path d="M68.785,36.9594c3.054,0 6.108,0 9.255,0c0.114,8.8029 0.227,17.6058 0.343,26.6756c2.144,-2.373 2.144,-2.373 4.264,-4.7667c0.193,-0.2147 0.386,-0.4294 0.585,-0.6506c0.485,-0.5636 0.944,-1.1497 1.39,-1.7447c2.101,-2.6428 2.101,-2.6428 3.885,-2.9951c1.107,0.0036 2.153,0.0699 3.246,0.2391c-1.432,1.6853 -2.903,3.3266 -4.406,4.9495c-0.821,0.9635 -1.517,1.7905 -2.108,2.9165c0.222,1.155 0.222,1.155 0.859,2.306c0.106,0.218 0.212,0.436 0.321,0.66c0.348,0.712 0.709,1.416 1.07,2.121c0.241,0.488 0.482,0.977 0.721,1.467c0.485,0.99 0.974,1.977 1.466,2.963c1.013,2.038 1.965,4.103 2.912,6.172c0.16,0.343 0.319,0.686 0.484,1.039c0.216,0.468 0.216,0.468 0.436,0.946c0.188,0.406 0.188,0.406 0.38,0.82c0.264,0.657 0.264,0.657 0.264,1.341c-2.828,0 -5.656,0 -8.57,0c-3.054,-6.94 -3.054,-6.94 -6.17,-14.021c-0.509,0.338 -0.509,0.338 -1.029,0.684c-0.116,1.016 -0.167,1.965 -0.175,2.984c-0.006,0.295 -0.013,0.59 -0.019,0.894c-0.018,0.945 -0.03,1.889 -0.041,2.833c-0.012,0.64 -0.024,1.279 -0.036,1.919c-0.03,1.569 -0.051,3.138 -0.072,4.707c-3.054,0 -6.108,0 -9.255,0c0,-14.671 0,-29.3425 0,-44.4586z" fill="black"/>
<path d="M76.668,90.652c3.344,3.259 3.77,8.05 3.857,12.504c-0.087,4.46 -0.72,8.486 -3.834,11.848c-3.376,2.922 -7.325,2.883 -11.547,2.725c-2.663,-0.195 -4.83,-1.291 -6.741,-3.123c-2.743,-3.253 -3.12,-7.292 -3.096,-11.386c0.001,-0.344 0.003,-0.687 0.005,-1.042c0.066,-4.177 0.516,-7.99 3.456,-11.16c1.581,-1.512 3.096,-2.263 5.216,-2.76c0.488,-0.117 0.488,-0.117 0.986,-0.235c4.14,-0.413 8.358,-0.089 11.698,2.629zM66.512,91.827c-2.608,4.849 -2.28,14.079 -1.157,19.344c0.333,1.015 0.693,1.903 1.372,2.736c0.896,0.386 0.896,0.386 1.714,0.342c2.157,-2.367 2.188,-4.915 2.292,-7.973c0.013,-0.361 0.026,-0.722 0.04,-1.095c0.481,-7.028 0.481,-7.028 -1.767,-13.419c-0.894,-0.675 -1.653,-0.677 -2.494,0.065z" fill="#F44335"/>
<path d="M136.873,88.151c0.325,-0.009 0.65,-0.019 0.984,-0.03c2.864,-0.025 5.073,0.692 7.479,2.232c3.651,3.897 3.321,8.511 3.321,13.637c-4.751,0 -9.502,0 -14.398,0c0.099,1.255 0.198,2.511 0.3,3.805c0.03,0.392 0.059,0.784 0.09,1.187c0.144,1.735 0.31,3.298 0.981,4.926c0.986,0.114 0.986,0.114 2.057,0c1.825,-1.821 1.498,-3.91 1.714,-6.498c3.168,0 6.335,0 9.599,0c0,3.262 -0.272,5.074 -2.464,7.46c-2.762,2.559 -5.982,2.872 -9.577,2.906c-0.512,0.015 -0.512,0.015 -1.034,0.031c-3.342,0.028 -6.154,-0.85 -8.606,-3.183c-3.272,-3.896 -3.283,-9.539 -2.894,-14.357c0.363,-3.703 0.989,-7.45 4.006,-9.957c2.851,-1.732 5.159,-2.126 8.442,-2.159zM135.973,91.849c-1.923,2.399 -1.902,5.08 -2.057,8.037c2.037,0 4.073,0 6.171,0c0.135,-2.871 0.013,-5.288 -1.371,-7.866c-1.148,-0.763 -1.605,-1.022 -2.743,-0.171z" fill="#F44335"/>
<path d="M60.149,54.9778c2.356,1.7051 3.709,3.3519 4.178,6.2632c0.09,1.536 0.08,3.067 0.067,4.606c-0.001,0.436 -0.002,0.873 -0.003,1.322c-0.003,1.152 -0.009,2.303 -0.017,3.454c-0.007,1.179 -0.01,2.357 -0.013,3.536c-0.007,2.306 -0.021,4.611 -0.034,6.917c-3.054,0 -6.109,0 -9.256,0c-0.113,-0.226 -0.226,-0.451 -0.343,-0.684c-0.304,0.162 -0.608,0.325 -0.921,0.492c-2.553,1.201 -5.816,1.361 -8.506,0.47c-1.29,-0.666 -1.848,-1.082 -2.571,-2.33c-0.612,-2.023 -0.801,-3.856 -0.793,-5.963c-0.005,-0.272 -0.011,-0.544 -0.016,-0.824c-0.002,-2.387 0.49,-4.477 1.773,-6.508c1.422,-1.378 2.821,-1.881 4.804,-1.893c0.232,0.004 0.464,0.008 0.703,0.012c0.229,-0.004 0.458,-0.008 0.695,-0.012c1.802,0.011 3.175,0.467 4.832,1.166c0.02,-1.104 0.033,-2.208 0.043,-3.313c0.006,-0.312 0.012,-0.623 0.018,-0.945c0.043,-2.2344 0.043,-2.2344 -0.746,-4.2914c-0.969,-0.7935 -0.969,-0.7935 -2.078,-0.6198c-1.109,0.1881 -1.109,0.1881 -1.693,1.3038c-0.153,0.7578 -0.279,1.5213 -0.386,2.2874c-0.099,0.712 -0.198,1.425 -0.3,2.159c-2.262,0 -4.525,0 -6.856,0c0,-3.9178 0,-3.9178 1.371,-5.4724c4.209,-3.7143 11.25,-3.5421 16.048,-1.1328zM49.929,67.738c-0.554,1.658 -0.449,3.351 -0.471,5.087c-0.013,0.373 -0.026,0.746 -0.039,1.129c-0.043,2.207 -0.043,2.207 0.956,4.122c1.207,0.791 1.906,0.812 3.325,0.606c0.782,-0.357 0.782,-0.357 1.371,-1.026c0.207,-1.007 0.207,-1.007 0.17,-2.159c0.001,-0.424 0.001,-0.848 0.001,-1.285c-0.01,-0.665 -0.01,-0.665 -0.021,-1.344c0.003,-0.443 0.005,-0.887 0.008,-1.344c0.121,-2.153 0.121,-2.153 -0.621,-4.073c-1.656,-1.162 -3.085,-0.748 -4.679,0.287z" fill="black"/>
<path d="M115.749,55.3843c1.849,1.3542 2.8,2.62 3.428,4.8307c0.082,1.039 0.082,1.039 0.078,2.148c0,0.417 0,0.835 0,1.265c-0.004,0.446 -0.007,0.892 -0.011,1.351c-0.001,0.465 -0.002,0.929 -0.003,1.394c-0.003,1.218 -0.009,2.436 -0.017,3.653c-0.007,1.245 -0.01,2.49 -0.013,3.735c-0.008,2.438 -0.02,4.877 -0.034,7.315c-2.941,0 -5.883,0 -8.913,0c-0.113,-0.225 -0.226,-0.451 -0.343,-0.684c-0.304,0.163 -0.608,0.325 -0.921,0.492c-2.646,1.245 -5.876,1.278 -8.677,0.492c-1.465,-0.574 -2.08,-1.239 -2.743,-2.694c-1.155,-3.616 -1.32,-8.154 0.343,-11.627c1.018,-1.567 1.951,-2.527 3.771,-3.078c1.171,-0.115 1.171,-0.115 2.464,-0.128c0.422,-0.01 0.844,-0.02 1.279,-0.03c1.736,0.089 3.26,0.822 4.827,1.526c-0.095,-1.283 -0.197,-2.565 -0.3,-3.848c-0.027,-0.363 -0.054,-0.727 -0.082,-1.102c-0.028,-0.35 -0.057,-0.701 -0.087,-1.062c-0.025,-0.322 -0.05,-0.6445 -0.076,-0.9767c-0.143,-0.8935 -0.325,-1.4926 -0.826,-2.2453c-1.083,-0.3287 -1.767,-0.4359 -2.85,-0.0855c-0.686,0.4212 -0.686,0.4212 -0.921,1.4535c-0.077,0.7041 -0.14,1.4098 -0.193,2.116c-0.049,0.656 -0.099,1.312 -0.15,1.988c-2.376,0 -4.751,0 -7.199,0c0,-2.536 0.15,-3.8689 1.907,-5.7071c4.523,-3.4182 11.543,-3.4811 16.262,-0.4916zM105.465,67.397c-1.32,1.316 -0.813,3.675 -0.815,5.45c-0.008,0.445 -0.016,0.89 -0.025,1.349c-0.001,0.425 -0.003,0.851 -0.004,1.29c-0.003,0.391 -0.006,0.783 -0.009,1.186c0.075,1.011 0.075,1.011 0.789,1.622c1.126,0.584 1.9,0.563 3.149,0.388c1.006,-0.582 1.006,-0.582 1.714,-1.709c0.23,-1.38 0.192,-2.731 0.15,-4.126c-0.002,-0.372 -0.004,-0.744 -0.006,-1.128c0.031,-2.275 0.031,-2.275 -0.83,-4.322c-1.601,-0.664 -2.582,-0.873 -4.113,0z" fill="black"/>
<path d="M63.985,8.5737c1.001,0.4496 1.697,0.9289 2.459,1.7139c0.199,0.203 0.399,0.4061 0.605,0.6152c0.308,0.3178 0.308,0.3178 0.621,0.6419c1.243,1.2766 2.489,2.5216 3.841,3.6831c1.697,1.459 3.248,3.0506 4.815,4.645c1.111,1.121 2.231,2.2066 3.428,3.2355c1.692,1.4536 3.237,3.0412 4.8,4.6303c1.11,1.121 2.23,2.2066 3.428,3.2355c1.691,1.4536 3.237,3.0412 4.799,4.6303c1.339,1.3513 2.713,2.6303 4.155,3.8706c0.937,0.8169 1.819,1.6752 2.701,2.5497c0.168,0.1629 0.335,0.3258 0.508,0.4937c0.416,0.4133 0.813,0.8455 1.206,1.2804c0,0.2257 0,0.4514 0,0.684c-0.491,0.4823 -0.491,0.4823 -1.178,1.0474c-1.641,1.3878 -3.145,2.8923 -4.649,4.4245c-0.801,-0.6827 -1.601,-1.3669 -2.4,-2.052c-0.21,-0.1789 -0.421,-0.3579 -0.637,-0.5423c-1.943,-1.6701 -3.739,-3.4594 -5.534,-5.2849c-1.11,-1.121 -2.23,-2.2066 -3.428,-3.2356c-1.691,-1.4535 -3.237,-3.0412 -4.799,-4.6302c-1.111,-1.121 -2.231,-2.2066 -3.428,-3.2356c-1.692,-1.4536 -3.237,-3.0412 -4.799,-4.6302c-1.11,-1.1202 -2.229,-2.205 -3.426,-3.2329c-1.461,-1.2553 -2.809,-2.6059 -4.159,-3.9783c-1.528,-1.5535 -3.052,-3.0421 -4.757,-4.4032c0.523,-1.2841 1.294,-1.9862 2.336,-2.8855c1.207,-1.0565 2.376,-2.1193 3.492,-3.2703z" fill="#F44335"/>
<path d="M73.54,0c1.099,0.552 1.866,1.4086 2.7,2.2897c1.119,1.1669 2.248,2.2882 3.476,3.3425c1.704,1.4664 3.262,3.0635 4.837,4.665c1.111,1.121 2.231,2.2066 3.428,3.2355c1.692,1.4536 3.237,3.0412 4.799,4.6303c1.111,1.121 2.231,2.2066 3.428,3.2355c1.692,1.4536 3.237,3.0412 4.8,4.6303c1.332,1.3442 2.698,2.6179 4.132,3.8522c1.062,0.9235 2.08,1.8869 3.088,2.8674c0.305,0.2847 0.305,0.2847 0.616,0.5751c0.575,0.5617 0.575,0.5617 1.42,1.5837c-0.15,1.4277 -0.903,1.9759 -1.971,2.8856c-1.219,1.0551 -2.393,2.1142 -3.514,3.2702c-1.006,-0.4557 -1.747,-0.9613 -2.549,-1.7166c-0.22,-0.2065 -0.44,-0.4131 -0.667,-0.6259c-0.233,-0.2215 -0.465,-0.443 -0.705,-0.6713c-0.242,-0.2281 -0.484,-0.4562 -0.733,-0.6913c-1.735,-1.6435 -3.44,-3.3152 -5.112,-5.0234c-0.925,-0.9394 -1.875,-1.8256 -2.875,-2.6854c-1.704,-1.4704 -3.266,-3.0695 -4.843,-4.673c-1.11,-1.121 -2.23,-2.2066 -3.428,-3.2356c-1.691,-1.4536 -3.237,-3.0412 -4.799,-4.6302c-1.109,-1.1193 -2.227,-2.2033 -3.423,-3.2302c-1.477,-1.2691 -2.84,-2.6364 -4.205,-4.0238c-0.472,-0.4799 -0.945,-0.9591 -1.419,-1.4374c-0.205,-0.2087 -0.41,-0.4173 -0.622,-0.6322c-0.611,-0.6067 -0.611,-0.6067 -1.378,-1.1055c-0.201,-0.1654 -0.402,-0.3309 -0.609,-0.5013c0,-1.026 0,-1.026 0.504,-1.5537c0.23,-0.1856 0.46,-0.3712 0.696,-0.5624c1.329,-1.0977 2.492,-2.2822 3.648,-3.5588c0.637,-0.481 0.637,-0.481 1.28,-0.505z" fill="#F44335"/>
<path d="M63.299,27.041c2.104,1.7727 4.139,3.6172 6.17,5.4718c-0.529,1.262 -1.298,2.0602 -2.271,3.0138c-0.28,0.2773 -0.56,0.5546 -0.849,0.8403c-0.757,0.7115 -1.521,1.3939 -2.308,2.0707c-1.46,1.2651 -2.817,2.6163 -4.17,3.993c-1.764,1.7935 -3.567,3.5012 -5.485,5.1299c-1.208,-0.565 -1.965,-1.2151 -2.893,-2.1802c-1.043,-1.0663 -2.075,-2.0596 -3.278,-2.9497c0.198,-1.2432 0.665,-1.8144 1.555,-2.6892c0.249,-0.2471 0.499,-0.4942 0.756,-0.7488c0.263,-0.255 0.525,-0.51 0.796,-0.7728c0.253,-0.251 0.507,-0.5021 0.768,-0.7608c1.196,-1.1762 2.407,-2.3205 3.679,-3.4139c1.486,-1.2787 2.856,-2.6582 4.23,-4.0545c0.481,-0.4879 0.962,-0.9751 1.444,-1.4614c0.209,-0.2123 0.417,-0.4245 0.632,-0.6431c0.538,-0.5031 0.538,-0.5031 1.224,-0.8451z" fill="black"/>
<path d="M54.411,18.5601c0.937,0.3898 1.465,0.9941 2.159,1.7277c1.163,1.2018 2.333,2.296 3.643,3.3344c-0.19,1.3302 -0.782,1.9243 -1.736,2.8428c-0.251,0.2456 -0.503,0.4911 -0.762,0.7441c-0.734,0.6781 -1.478,1.3335 -2.236,1.9852c-1.462,1.2694 -2.823,2.6237 -4.179,4.0037c-4.21,4.2818 -4.21,4.2818 -6.514,5.8138c-0.191,-0.1944 -0.382,-0.3888 -0.578,-0.5891c-1.69,-1.7051 -3.416,-3.3328 -5.25,-4.8827c0.498,-1.1408 1.125,-1.8895 2.006,-2.764c0.264,-0.2625 0.528,-0.5251 0.8,-0.7956c0.414,-0.407 0.414,-0.407 0.837,-0.8222c0.268,-0.2674 0.536,-0.5348 0.813,-0.8102c1.237,-1.2251 2.484,-2.4209 3.807,-3.5542c1.667,-1.4308 3.165,-3.0218 4.664,-4.6249c0.215,-0.2218 0.43,-0.4435 0.652,-0.672c0.191,-0.2014 0.381,-0.4029 0.578,-0.6105c0.584,-0.3941 0.584,-0.3941 1.296,-0.3263z" fill="black"/>
<path d="M106.065,122.051c0.337,0.01 0.675,0.019 1.023,0.028c0.256,0.012 0.512,0.024 0.776,0.036c0.028,0.934 0.049,1.867 0.065,2.801c0.008,0.263 0.017,0.525 0.026,0.796c0.02,1.572 -0.024,2.693 -1.119,3.927c-0.751,0.254 -0.751,0.254 -1.564,0.3c-0.269,0.02 -0.538,0.04 -0.816,0.061c-0.705,-0.019 -0.705,-0.019 -1.391,-0.361c0.113,-0.451 0.226,-0.903 0.343,-1.368c0.261,0.078 0.523,0.156 0.793,0.235c0.304,0.036 0.608,0.071 0.921,0.107c0.629,-0.456 0.629,-0.456 1.028,-1.026c-0.367,0.036 -0.735,0.071 -1.114,0.107c-1.285,-0.107 -1.285,-0.107 -2.142,-0.791c-0.598,-1.192 -0.59,-1.834 -0.429,-3.123c0.67,-1.665 1.966,-1.787 3.6,-1.729zM104.179,123.526c-0.542,0.666 -0.542,0.665 -0.321,1.732c0.077,0.317 0.155,0.634 0.235,0.961c0.822,0.233 0.822,0.233 1.714,0.342c0.794,-0.644 0.794,-0.644 0.772,-1.71c0.022,-1.065 0.022,-1.065 -0.772,-1.71c-1.003,-0.092 -1.003,-0.092 -1.628,0.385z" fill="black"/>
<path d="M62.956,122.115c3.77,0 3.77,0 5.142,1.026c0.281,1.16 0.22,2.25 0,3.42c-0.729,0.919 -0.729,0.919 -1.714,1.368c-1.136,-0.086 -1.136,-0.086 -2.057,-0.342c-0.113,0.677 -0.226,1.354 -0.343,2.052c-0.339,0 -0.679,0 -1.028,0c0,-2.483 0,-4.966 0,-7.524zM64.391,123.697c-0.529,0.836 -0.529,0.836 -0.128,1.923c0.134,0.311 0.268,0.621 0.407,0.941c0.565,0 1.131,0 1.714,0c0.447,-0.759 0.447,-0.759 0.685,-1.71c-0.359,-0.977 -0.359,-0.977 -1.028,-1.71c-1.04,-0.114 -1.04,-0.114 -1.65,0.556z" fill="black"/>
<path d="M71.525,119.722c0.452,0 0.905,0 1.371,0c0.113,0.79 0.226,1.58 0.343,2.394c0.318,-0.022 0.636,-0.043 0.964,-0.065c1.093,0.065 1.093,0.065 1.671,0.439c0.671,0.972 0.549,1.775 0.514,2.939c-0.009,0.403 -0.018,0.806 -0.028,1.222c-0.012,0.309 -0.024,0.618 -0.036,0.936c-0.452,0 -0.905,0 -1.371,0c-0.113,-1.241 -0.226,-2.482 -0.343,-3.761c-0.452,0 -0.905,0 -1.371,0c-0.113,1.241 -0.226,2.482 -0.343,3.761c-0.452,0 -0.905,0 -1.371,0c0,-2.595 0,-5.191 0,-7.865z" fill="black"/>
<path d="M140.431,122.115c0.836,0.492 0.836,0.492 1.371,1.368c0.167,1.05 0.214,2.035 0,3.078c-0.702,0.917 -1.021,1.024 -2.185,1.326c-1.38,0.047 -1.89,-0.139 -2.957,-0.984c-0.538,-1.073 -0.463,-1.894 -0.343,-3.078c1.169,-1.661 2.11,-2.037 4.114,-1.71zM138.138,123.547c-0.599,0.827 -0.578,1.331 -0.449,2.33c0.63,0.783 0.63,0.783 1.585,0.727c0.269,-0.014 0.537,-0.028 0.814,-0.043c0.474,-0.944 0.408,-1.692 0.343,-2.736c-0.226,-0.225 -0.452,-0.451 -0.686,-0.684c-1.006,-0.098 -1.006,-0.098 -1.607,0.406z" fill="black"/>
<path d="M32.446,122.114c0.835,0.513 0.835,0.513 1.371,1.368c0.234,1.296 0.164,2.362 -0.364,3.57c-1.001,0.805 -1.794,0.854 -3.064,0.876c-1.01,-0.46 -1.557,-0.713 -2.057,-1.71c-0.168,-1.482 -0.164,-2.161 0.707,-3.398c1.261,-0.883 1.896,-0.952 3.407,-0.706zM30.153,123.547c-0.6,0.826 -0.578,1.33 -0.45,2.329c0.227,0.226 0.453,0.452 0.686,0.684c1.134,-0.099 1.134,-0.099 2.057,-0.684c0.086,-1.011 0.086,-1.011 0,-2.052c-0.226,-0.225 -0.453,-0.451 -0.686,-0.684c-1.006,-0.098 -1.006,-0.098 -1.607,0.407z" fill="black"/>
<path d="M119.519,122.114c0.836,0.513 0.836,0.513 1.371,1.368c0.235,1.296 0.164,2.362 -0.364,3.57c-1.001,0.805 -1.793,0.854 -3.064,0.876c-1.01,-0.46 -1.557,-0.713 -2.057,-1.71c-0.168,-1.482 -0.163,-2.161 0.707,-3.398c1.261,-0.883 1.896,-0.952 3.407,-0.706zM117.462,123.14c-0.736,1.103 -0.817,1.46 -0.685,2.736c0.226,0.226 0.452,0.452 0.685,0.684c1.134,-0.099 1.134,-0.099 2.057,-0.684c-0.098,-0.8 -0.212,-1.598 -0.343,-2.394c-0.565,-0.112 -1.131,-0.225 -1.714,-0.342z" fill="black"/>
<path d="M60.214,122.114c0.986,0.513 0.986,0.513 1.714,1.368c0.226,0.958 0.211,1.777 0,2.736c-0.7,1.048 -1.18,1.307 -2.378,1.689c-1.255,0.026 -1.78,-0.248 -2.764,-1.005c-0.551,-1.099 -0.55,-2.23 -0.343,-3.42c1.122,-1.316 2.068,-1.651 3.771,-1.368zM58.5,123.14c-0.794,0.645 -0.794,0.645 -0.771,1.71c-0.023,1.066 -0.023,1.066 0.771,1.71c1.134,-0.099 1.134,-0.099 2.057,-0.684c-0.099,-0.8 -0.213,-1.598 -0.343,-2.394c-0.822,-0.232 -0.822,-0.232 -1.714,-0.342z" fill="black"/>
<path d="M81.124,122.115c1.007,0.727 1.007,0.727 1.714,1.71c0.188,1.314 0.124,2.342 -0.686,3.42c-1.014,0.59 -1.609,0.69 -2.785,0.62c-1.045,-0.295 -1.361,-0.469 -2.014,-1.304c-0.295,-1.441 -0.234,-2.696 0.535,-3.954c1.178,-0.694 1.89,-0.704 3.236,-0.492zM79.41,123.141c-0.67,0.733 -0.67,0.733 -1.029,1.71c0.164,0.95 0.164,0.95 0.686,1.71c0.339,0.113 0.679,0.226 1.028,0.342c0.743,-0.57 0.743,-0.57 1.371,-1.368c-0.055,-1.16 -0.199,-1.568 -1.028,-2.394c-0.339,0 -0.679,0 -1.028,0z" fill="black"/>
<path d="M44.444,122.116c0.665,0.384 0.665,0.384 1.029,1.026c0.064,1.09 0.064,1.09 0,2.051c-1.131,0.113 -2.263,0.226 -3.428,0.342c0.113,0.226 0.226,0.452 0.343,0.684c0.649,0.16 0.649,0.16 1.392,0.214c0.446,0.043 0.891,0.085 1.35,0.128c0,0.339 0,0.678 0,1.026c-2.148,0.463 -2.148,0.463 -3.385,-0.128c-0.729,-0.556 -0.729,-0.556 -1.071,-0.898c-0.182,-1.46 -0.244,-2.679 0.535,-3.954c1.149,-0.676 1.924,-0.658 3.235,-0.491zM42.045,123.484c0,0.225 0,0.451 0,0.683c0.679,0 1.357,0 2.057,0c-0.114,-0.338 -0.227,-0.677 -0.343,-1.025c-1.003,-0.077 -1.003,-0.077 -1.714,0.342z" fill="black"/>
<path d="M124.319,122.115c0.453,0 0.905,0 1.372,0c0.113,1.467 0.226,2.934 0.342,4.446c0.453,-0.113 0.905,-0.226 1.372,-0.342c0.113,-1.354 0.226,-2.709 0.342,-4.104c0.453,0 0.905,0 1.372,0c0,1.806 0,3.611 0,5.472c-0.806,0.127 -0.806,0.127 -1.629,0.256c-0.302,0.048 -0.604,0.096 -0.916,0.145c-0.883,-0.059 -0.883,-0.059 -1.676,-0.594c-0.767,-1.104 -0.718,-1.811 -0.664,-3.142c0.012,-0.4 0.024,-0.8 0.037,-1.213c0.016,-0.305 0.032,-0.61 0.048,-0.924z" fill="black"/>
<path d="M34.846,122.116c3.559,-0.126 3.559,-0.126 4.403,0.374c0.596,0.98 0.494,1.806 0.461,2.939c-0.01,0.403 -0.019,0.806 -0.028,1.222c-0.012,0.309 -0.024,0.618 -0.037,0.937c-0.452,0 -0.905,0 -1.371,0c-0.113,-1.242 -0.226,-2.483 -0.343,-3.762c-0.452,0 -0.905,0 -1.371,0c-0.113,1.241 -0.226,2.482 -0.343,3.762c-0.452,0 -0.905,0 -1.371,0c0,-1.806 0,-3.612 0,-5.472z" fill="black"/>
<path d="M142.831,122.115c0.452,0.113 0.905,0.226 1.371,0.342c0.113,-0.112 0.226,-0.225 0.343,-0.342c1.815,-0.157 1.815,-0.157 2.634,0.376c0.673,0.971 0.55,1.774 0.515,2.937c-0.009,0.404 -0.018,0.807 -0.028,1.223c-0.012,0.309 -0.024,0.618 -0.036,0.936c-0.452,0 -0.905,0 -1.371,0c0,-1.354 0,-2.708 0,-4.104c-0.566,0.113 -1.131,0.226 -1.714,0.342c-0.113,1.242 -0.226,2.483 -0.343,3.762c-0.453,0 -0.905,0 -1.371,0c0,-1.805 0,-3.611 0,-5.472z" fill="black"/>
<path d="M83.525,122.115c0.452,0 0.905,0 1.371,0c0.113,1.467 0.226,2.934 0.343,4.446c0.453,-0.113 0.905,-0.226 1.371,-0.342c0.417,-0.832 0.453,-1.511 0.536,-2.437c0.029,-0.311 0.057,-0.622 0.087,-0.943c0.021,-0.239 0.041,-0.478 0.063,-0.724c0.339,0 0.679,0 1.028,0c0.113,1.806 0.227,3.611 0.343,5.472c-3.625,0.476 -3.625,0.476 -4.799,-0.342c-0.376,-1.124 -0.377,-1.962 -0.364,-3.142c0.003,-0.372 0.006,-0.743 0.009,-1.126c0.004,-0.285 0.008,-0.569 0.012,-0.862z" fill="black"/>
<path d="M96.552,122.116c0.657,-0.029 1.315,-0.057 1.993,-0.086c0.554,-0.024 0.554,-0.024 1.12,-0.048c1.001,0.134 1.001,0.134 1.643,0.689c0.494,1.039 0.488,1.805 0.45,2.95c-0.009,0.369 -0.018,0.737 -0.028,1.117c-0.012,0.28 -0.024,0.561 -0.036,0.849c-0.452,0 -0.905,0 -1.371,0c-0.113,-1.241 -0.226,-2.482 -0.343,-3.761c-0.566,-0.113 -1.131,-0.226 -1.714,-0.342c-0.113,1.354 -0.226,2.708 -0.343,4.103c-0.339,0 -0.679,0 -1.028,0c-0.113,-1.805 -0.227,-3.611 -0.343,-5.471z" fill="black"/>
<path d="M91.623,122.073c0.573,0.021 0.573,0.021 1.157,0.043c0,0.451 0,0.903 0,1.368c-0.566,0 -1.131,0 -1.714,0c0.413,0.328 0.413,0.328 0.835,0.662c0.879,0.706 0.879,0.706 1.222,1.048c0.014,0.683 0.014,1.368 0,2.052c-1,0.678 -1.414,0.679 -2.657,0.555c-0.552,-0.106 -0.552,-0.106 -1.114,-0.213c0,-0.339 0,-0.678 0,-1.026c0.792,0 1.584,0 2.399,0c0,-0.339 0,-0.678 0,-1.026c-0.275,-0.05 -0.551,-0.099 -0.835,-0.15c-0.879,-0.192 -0.879,-0.192 -1.221,-0.534c-0.065,-1.005 -0.065,-1.005 0,-2.052c0.685,-0.684 0.685,-0.684 1.928,-0.727z" fill="black"/>
<path d="M113.22,122.073c0.573,0.021 0.573,0.021 1.157,0.043c0,0.451 0,0.903 0,1.368c-0.566,0 -1.131,0 -1.714,0c0.414,0.328 0.414,0.328 0.836,0.662c0.878,0.706 0.878,0.706 1.221,1.048c0.014,0.683 0.014,1.368 0,2.052c-1,0.678 -1.414,0.679 -2.657,0.555c-0.551,-0.106 -0.551,-0.106 -1.114,-0.213c0.113,-0.339 0.226,-0.678 0.343,-1.026c0.565,0 1.131,0 1.714,0c0.113,-0.339 0.226,-0.678 0.343,-1.026c-0.276,-0.05 -0.552,-0.099 -0.836,-0.15c-0.878,-0.192 -0.878,-0.192 -1.221,-0.534c-0.065,-1.005 -0.065,-1.005 0,-2.052c0.685,-0.684 0.685,-0.684 1.928,-0.727z" fill="black"/>
<path d="M51.643,122.115c0.113,0.452 0.226,0.903 0.343,1.368c-0.566,0 -1.131,0 -1.714,0c-0.113,0.226 -0.226,0.452 -0.343,0.684c0.332,0.106 0.665,0.212 1.007,0.321c1.05,0.363 1.05,0.363 1.393,0.705c0.128,0.812 0.128,0.812 0,1.71c-0.729,0.641 -0.729,0.641 -1.714,1.026c-1.136,-0.107 -1.136,-0.107 -2.057,-0.342c0,-0.339 0,-0.677 0,-1.026c0.792,0 1.583,0 2.399,0c-0.742,-0.778 -1.527,-1.422 -2.399,-2.052c0.128,-1.004 0.128,-1.004 0.343,-2.052c0.928,-0.463 1.717,-0.364 2.742,-0.342z" fill="black"/>
<path d="M53.358,121.09c0.452,0 0.905,0 1.371,0c0,0.338 0,0.677 0,1.026c0.453,0 0.905,0 1.371,0c0,0.338 0,0.677 0,1.026c-0.452,0 -0.905,0 -1.371,0c0,1.128 0,2.257 0,3.419c0.453,0 0.905,0 1.371,0c-0.113,0.452 -0.226,0.903 -0.343,1.368c-1.007,-0.128 -1.007,-0.128 -2.056,-0.342c-0.454,-0.904 -0.376,-1.599 -0.365,-2.607c0.003,-0.343 0.007,-0.686 0.01,-1.04c0.006,-0.395 0.006,-0.395 0.012,-0.798c-0.226,0 -0.453,0 -0.686,0c0,-0.339 0,-0.678 0,-1.026c0.226,0 0.453,0 0.686,0c0,-0.339 0,-0.678 0,-1.026z" fill="black"/>
<path d="M130.833,121.09c0.339,0 0.678,0 1.028,0c0,0.338 0,0.677 0,1.026c0.566,0 1.131,0 1.714,0c0,0.338 0,0.677 0,1.026c-0.566,0 -1.131,0 -1.714,0c0.113,1.128 0.226,2.257 0.343,3.419c0.339,0 0.679,0 1.028,0c-0.113,0.452 -0.226,0.903 -0.343,1.368c-1.671,-0.299 -1.671,-0.299 -2.056,-0.684c-0.025,-0.69 -0.029,-1.382 -0.022,-2.073c0.003,-0.378 0.006,-0.756 0.009,-1.145c0.004,-0.292 0.008,-0.584 0.013,-0.885c-0.34,0 -0.679,0 -1.029,0c0,-0.339 0,-0.678 0,-1.026c0.34,0 0.679,0 1.029,0c0,-0.339 0,-0.678 0,-1.026z" fill="black"/>
<path d="M121.919,119.722c0.453,0 0.905,0 1.372,0c0,2.595 0,5.191 0,7.865c-0.453,0 -0.905,0 -1.372,0c0,-2.595 0,-5.191 0,-7.865z" fill="black"/>
<path d="M134.261,122.115c0.452,0 0.905,0 1.371,0c0,1.806 0,3.611 0,5.472c-0.453,0 -0.905,0 -1.371,0c0,-1.806 0,-3.612 0,-5.472z" fill="black"/>
<path d="M94.152,122.115c0.453,0 0.905,0 1.371,0c0,1.806 0,3.611 0,5.472c-0.452,0 -0.905,0 -1.371,0c0,-1.806 0,-3.612 0,-5.472z" fill="black"/>
<path d="M134.259,120.063c0.679,0.17 0.679,0.17 1.372,0.342c-0.114,0.452 -0.227,0.903 -0.343,1.368c-0.453,-0.113 -0.905,-0.225 -1.372,-0.342c0.114,-0.451 0.227,-0.903 0.343,-1.368z" fill="black"/>
<path d="M94.152,120.063c0.453,0 0.905,0 1.371,0c-0.113,0.565 -0.226,1.129 -0.343,1.71c-0.339,-0.113 -0.678,-0.225 -1.028,-0.342c0,-0.451 0,-0.903 0,-1.368z" fill="black"/>
</g></svg>