<svg width="175" height="152" viewBox="0 0 175 152" fill="none" xmlns="http://www.w3.org/2000/svg">
<path d="M33.2755 42.4146C37.1287 42.4146 40.9818 42.4146 44.9517 42.4146C45.0846 63.3957 45.2175 84.3767 45.3544 105.994C46.1516 105.07 46.9488 104.146 47.7701 103.194C49.4876 102.134 51.4406 102.18 53.4069 102.395C56.0449 103.268 57.5613 105.095 58.8094 107.488C62.0282 114.716 61.519 122.82 61.4847 130.56C61.4827 131.361 61.4808 132.162 61.4792 132.963C61.4751 134.903 61.4672 136.843 61.4595 138.783C57.4735 138.783 53.4875 138.783 49.3807 138.783C49.3656 137.372 49.3506 135.961 49.335 134.507C49.3164 133.136 49.2958 131.765 49.275 130.394C49.2616 129.444 49.2503 128.493 49.2412 127.543C49.2276 126.174 49.2066 124.805 49.1841 123.436C49.1815 123.013 49.1789 122.59 49.1763 122.155C49.1293 119.796 48.8859 118.084 47.7701 115.99C47.3715 116.122 46.9729 116.254 46.5623 116.39C45.1798 119.441 45.2921 123.037 45.227 126.326C45.2186 126.685 45.2102 127.043 45.2016 127.413C45.1756 128.545 45.1517 129.678 45.1279 130.81C45.1105 131.584 45.0929 132.357 45.0752 133.131C45.0321 135.015 44.992 136.899 44.9517 138.783C41.0986 138.783 37.2454 138.783 33.2755 138.783C33.2755 106.981 33.2755 75.1797 33.2755 42.4146Z" fill="#F44335"/>
<path d="M122.257 104.393C122.597 104.583 122.938 104.772 123.289 104.968C124.702 105.292 125.479 104.714 126.7 104.01C129.449 102.561 133.399 102.803 136.361 103.467C138.592 104.271 139.875 105.227 141.18 107.192C141.651 108.594 141.631 109.691 141.629 111.171C141.629 111.452 141.629 111.733 141.629 112.022C141.629 112.95 141.625 113.878 141.622 114.807C141.622 115.45 141.621 116.094 141.621 116.738C141.619 118.432 141.615 120.126 141.611 121.82C141.606 123.549 141.605 125.278 141.603 127.006C141.598 130.398 141.591 133.79 141.583 137.182C137.73 137.182 133.877 137.182 129.907 137.182C129.774 127.945 129.641 118.708 129.504 109.191C127.698 108.906 127.698 108.906 125.88 108.791C125.748 118.16 125.615 127.529 125.478 137.182C121.625 137.182 117.771 137.182 113.802 137.182C113.669 127.813 113.536 118.444 113.399 108.791C112.203 108.791 111.007 108.791 109.775 108.791C109.642 118.16 109.51 127.529 109.373 137.182C105.52 137.182 101.666 137.182 97.6964 137.182C97.6964 126.098 97.6964 115.013 97.6964 103.593C101.55 103.593 105.403 103.593 109.373 103.593C109.373 103.989 109.373 104.385 109.373 104.793C109.603 104.677 109.832 104.562 110.069 104.443C114.113 102.604 118.188 102.607 122.257 104.393Z" fill="#F44335"/>
<path d="M17.9755 43.2141C21.43 43.2141 24.8846 43.2141 28.4438 43.2141C28.4438 60.2364 28.4438 77.2588 28.4438 94.797C24.9893 94.797 21.5347 94.797 17.9755 94.797C17.9755 94.5331 17.9755 94.2691 17.9755 93.9972C17.552 94.1869 17.1285 94.3766 16.6921 94.572C13.3201 95.9863 9.72595 96.0745 6.28667 94.7876C5.07539 94.1909 4.32961 93.4334 3.48085 92.3978C3.19851 92.0596 2.91617 91.7215 2.62527 91.3731C-0.960334 84.8446 -0.349793 75.0248 1.36548 67.9699C2.32101 65.1652 4.16861 63.2879 6.8104 61.9422C8.22284 61.5128 9.56667 61.4608 11.0301 61.458C11.298 61.4482 11.5658 61.4384 11.8417 61.4284C14.4153 61.4136 15.3556 62.0511 17.9755 63.2075C17.9755 56.6096 17.9755 50.0118 17.9755 43.2141ZM11.9361 66.4064C11.6913 67.5002 11.6913 67.5002 11.7277 68.7626C11.7226 69.247 11.7175 69.7314 11.7123 70.2305C11.7155 70.7541 11.7188 71.2776 11.7222 71.8171C11.7211 72.3594 11.7195 72.9017 11.7175 73.4439C11.7151 74.5802 11.7186 75.7162 11.7261 76.8523C11.7353 78.3087 11.73 79.7646 11.7203 81.221C11.7145 82.3407 11.7164 83.4603 11.7205 84.58C11.7221 85.3781 11.7172 86.1762 11.7123 86.9742C11.7174 87.4586 11.7224 87.943 11.7277 88.442C11.7289 88.8691 11.7302 89.2961 11.7315 89.7361C11.8414 90.8391 11.8414 90.8391 12.6663 91.536C13.9564 92.2129 14.9298 92.1506 16.365 91.9979C17.2824 91.573 17.2824 91.573 17.9755 90.7983C18.2202 89.7045 18.2202 89.7045 18.1839 88.442C18.1889 87.9577 18.194 87.4733 18.1993 86.9742C18.196 86.4506 18.1927 85.927 18.1894 85.3876C18.1905 84.8453 18.192 84.303 18.194 83.7607C18.1964 82.6245 18.193 81.4885 18.1854 80.3523C18.1763 78.896 18.1816 77.4401 18.1912 75.9837C18.197 74.864 18.1952 73.7444 18.191 72.6247C18.1894 71.8266 18.1943 71.0285 18.1993 70.2305C18.1942 69.7461 18.1891 69.2617 18.1839 68.7626C18.1826 68.3356 18.1813 67.9086 18.18 67.4686C18.0701 66.3656 18.0701 66.3656 17.2453 65.6687C15.3214 64.6592 13.4459 64.881 11.9361 66.4064Z" fill="black"/>
<path d="M80.7872 43.2141C84.3746 43.2141 87.9621 43.2141 91.6582 43.2141C91.791 53.5067 91.9239 63.7993 92.0608 74.4037C94.5788 71.6296 94.5788 71.6296 97.0685 68.8306C97.2953 68.5796 97.5221 68.3285 97.7558 68.0699C98.3257 67.411 98.8646 66.7256 99.3883 66.03C101.856 62.94 101.856 62.94 103.951 62.528C105.251 62.5322 106.479 62.6097 107.763 62.8076C106.081 64.778 104.354 66.6971 102.589 68.5947C101.624 69.7217 100.807 70.6886 100.113 72.0045C100.374 73.3557 100.374 73.3557 101.122 74.7005C101.246 74.9554 101.371 75.2104 101.499 75.473C101.908 76.3049 102.332 77.1283 102.756 77.9526C103.039 78.5237 103.322 79.0955 103.603 79.6678C104.172 80.8248 104.746 81.9793 105.324 83.1321C106.514 85.5149 107.632 87.9293 108.745 90.3484C108.932 90.7494 109.12 91.1504 109.313 91.5635C109.566 92.111 109.566 92.111 109.825 92.6695C110.046 93.1442 110.046 93.1442 110.271 93.6284C110.582 94.3971 110.582 94.3971 110.582 95.1968C107.26 95.1968 103.938 95.1968 100.516 95.1968C96.9286 87.0815 96.9286 87.0815 93.2687 78.8023C92.6708 79.1981 92.6708 79.1981 92.0608 79.602C91.9249 80.7908 91.8639 81.9002 91.8548 83.0915C91.8475 83.4365 91.8403 83.7815 91.8329 84.137C91.811 85.2411 91.7974 86.3451 91.784 87.4494C91.7706 88.1971 91.7568 88.9448 91.7423 89.6924C91.707 91.5272 91.6829 93.3617 91.6582 95.1968C88.0708 95.1968 84.4833 95.1968 80.7872 95.1968C80.7872 78.0425 80.7872 60.8882 80.7872 43.2141Z" fill="black"/>
<path d="M90.0464 105.993C93.9734 109.804 94.4746 115.405 94.576 120.613C94.4736 125.828 93.7305 130.536 90.0731 134.466C86.1079 137.883 81.4699 137.837 76.5117 137.652C73.3834 137.424 70.8381 136.143 68.5938 134.001C65.3724 130.198 64.9296 125.475 64.9576 120.688C64.9596 120.286 64.9616 119.884 64.9636 119.47C65.0407 114.585 65.5699 110.128 69.0232 106.421C70.8799 104.654 72.6591 103.775 75.1491 103.194C75.7221 103.058 75.7221 103.058 76.3067 102.919C81.169 102.436 86.124 102.815 90.0464 105.993ZM78.1185 107.367C75.0556 113.036 75.4407 123.828 76.7597 129.985C77.1503 131.172 77.5731 132.21 78.3702 133.184C79.4229 133.635 79.4229 133.635 80.3833 133.584C82.9172 130.815 82.9536 127.836 83.0759 124.262C83.0913 123.839 83.1068 123.417 83.1227 122.981C83.6881 114.763 83.6881 114.763 81.047 107.291C79.9968 106.502 79.1059 106.5 78.1185 107.367Z" fill="#F44335"/>
<path d="M160.757 103.069C161.138 103.058 161.52 103.046 161.913 103.034C165.277 103.005 167.871 103.843 170.697 105.644C174.985 110.2 174.597 115.595 174.597 121.588C169.017 121.588 163.437 121.588 157.687 121.588C157.803 123.056 157.919 124.524 158.039 126.037C158.074 126.495 158.109 126.953 158.144 127.426C158.314 129.454 158.509 131.282 159.297 133.184C160.455 133.318 160.455 133.318 161.713 133.184C163.857 131.056 163.473 128.613 163.726 125.587C167.447 125.587 171.167 125.587 175 125.587C175 129.402 174.681 131.52 172.106 134.309C168.862 137.302 165.08 137.668 160.858 137.708C160.257 137.725 160.257 137.725 159.643 137.743C155.718 137.776 152.416 136.75 149.535 134.022C145.693 129.467 145.68 122.869 146.137 117.235C146.564 112.906 147.298 108.524 150.842 105.594C154.19 103.568 156.901 103.108 160.757 103.069ZM159.7 107.393C157.441 110.197 157.466 113.332 157.284 116.79C159.676 116.79 162.068 116.79 164.532 116.79C164.691 113.433 164.547 110.607 162.921 107.593C161.573 106.7 161.036 106.398 159.7 107.393Z" fill="#F44335"/>
<path d="M70.6449 64.2817C73.412 66.2754 75.0011 68.2009 75.5519 71.6043C75.6577 73.4004 75.6458 75.1914 75.6306 76.99C75.6294 77.5003 75.6283 78.0105 75.6271 78.5362C75.6234 79.8825 75.6162 81.2287 75.6072 82.575C75.5989 83.9529 75.5953 85.3308 75.5913 86.7087C75.5831 89.4047 75.5673 92.1005 75.5519 94.7966C71.9645 94.7966 68.3771 94.7966 64.681 94.7966C64.5481 94.5327 64.4152 94.2688 64.2783 93.9969C63.9213 94.1866 63.5642 94.3762 63.1963 94.5717C60.1973 95.9766 56.3648 96.1633 53.2061 95.1215C51.6911 94.3423 51.0353 93.8567 50.1863 92.3974C49.4676 90.0316 49.2453 87.8882 49.2553 85.4247C49.2488 85.1069 49.2423 84.7892 49.2356 84.4618C49.2333 81.6709 49.8115 79.2269 51.3187 76.8526C52.989 75.2411 54.632 74.6526 56.9603 74.6392C57.2327 74.6439 57.5052 74.6485 57.786 74.6533C58.0553 74.6487 58.3247 74.644 58.6022 74.6392C60.7191 74.6514 62.332 75.1855 64.2783 76.0028C64.3018 74.7116 64.3161 73.4205 64.3287 72.1291C64.3354 71.7644 64.3422 71.3998 64.3491 71.024C64.3995 68.4112 64.3995 68.4112 63.4731 66.0062C62.3354 65.0783 62.3354 65.0783 61.0321 65.2814C59.7297 65.5014 59.7297 65.5013 59.0442 66.8059C58.8642 67.6919 58.7162 68.5847 58.5912 69.48C58.475 70.313 58.3587 71.146 58.2389 72.0042C55.5816 72.0042 52.9242 72.0042 50.1863 72.0042C50.1863 67.4239 50.1863 67.4239 51.7969 65.6063C56.7401 61.2634 65.0098 61.4647 70.6449 64.2817ZM58.6415 79.2018C57.991 81.1399 58.1143 83.1198 58.0879 85.1498C58.0729 85.5854 58.0578 86.0209 58.0423 86.4697C57.9923 89.0492 57.9923 89.0492 59.1653 91.2884C60.583 92.2135 61.4042 92.2382 63.0705 91.9975C63.9893 91.5804 63.9893 91.5804 64.681 90.7979C64.9232 89.6203 64.9232 89.6203 64.8807 88.2738C64.881 87.7779 64.8812 87.282 64.8815 86.7711C64.8694 85.9933 64.8694 85.9933 64.8571 85.1998C64.86 84.6812 64.8628 84.1627 64.8658 83.6284C65.0084 81.1105 65.0084 81.1105 64.1369 78.866C62.1924 77.507 60.5133 77.9913 58.6415 79.2018Z" fill="black"/>
<path d="M135.947 64.757C138.118 66.3404 139.236 67.8204 139.973 70.4051C140.07 71.6197 140.07 71.6197 140.064 72.9166C140.064 73.4048 140.064 73.8929 140.064 74.3959C140.06 74.917 140.056 75.4382 140.052 75.9752C140.05 76.5186 140.049 77.062 140.048 77.6055C140.045 79.0294 140.037 80.4532 140.028 81.877C140.02 83.3325 140.016 84.7881 140.012 86.2436C140.004 89.0948 139.99 91.9459 139.973 94.797C136.518 94.797 133.064 94.797 129.505 94.797C129.372 94.5331 129.239 94.2692 129.102 93.9973C128.745 94.187 128.388 94.3767 128.02 94.5721C124.912 96.0279 121.119 96.0666 117.828 95.1469C116.108 94.4764 115.386 93.6989 114.607 91.998C113.251 87.7694 113.057 82.463 115.01 78.4025C116.205 76.5705 117.302 75.4478 119.439 74.8037C120.815 74.6693 120.815 74.6693 122.333 74.6537C122.829 74.6424 123.324 74.631 123.835 74.6194C125.875 74.7228 127.665 75.5798 129.505 76.4031C129.393 74.9032 129.273 73.4039 129.152 71.9046C129.121 71.4794 129.089 71.0541 129.056 70.616C129.023 70.2062 128.989 69.7964 128.954 69.3742C128.925 68.9973 128.895 68.6204 128.865 68.232C128.696 67.1872 128.483 66.4868 127.894 65.6067C126.623 65.2224 125.819 65.097 124.547 65.5068C123.742 65.9993 123.742 65.9993 123.465 67.2062C123.375 68.0295 123.301 68.8546 123.239 69.6804C123.181 70.4474 123.123 71.2144 123.063 72.0046C120.272 72.0046 117.482 72.0046 114.607 72.0046C114.607 69.0391 114.784 67.4811 116.847 65.3318C122.16 61.3352 130.404 61.2616 135.947 64.757ZM123.868 78.8023C122.318 80.3419 122.914 83.0997 122.912 85.1752C122.902 85.6956 122.892 86.2159 122.882 86.752C122.88 87.2497 122.879 87.7474 122.877 88.2601C122.874 88.7178 122.87 89.1755 122.867 89.6471C122.955 90.8298 122.955 90.8298 123.793 91.5443C125.116 92.2262 126.025 92.2024 127.492 91.998C128.673 91.3169 128.673 91.3169 129.505 89.9986C129.774 88.3852 129.731 86.8062 129.681 85.1752C129.678 84.7399 129.676 84.3046 129.674 83.8561C129.711 81.1955 129.711 81.1955 128.699 78.8023C126.818 78.0268 125.666 77.7817 123.868 78.8023Z" fill="black"/>
<path d="M75.1504 10.0246C76.3254 10.5504 77.143 11.1108 78.0379 12.0286C78.2725 12.266 78.5071 12.5033 78.7488 12.7479C79.1101 13.1194 79.1101 13.1194 79.4786 13.4984C80.9379 14.991 82.4009 16.4467 83.9893 17.8048C85.9822 19.5107 87.8039 21.3717 89.645 23.2358C90.9495 24.5466 92.2649 25.8159 93.6713 27.019C95.6581 28.7185 97.4731 30.5748 99.3081 32.4328C100.613 33.7435 101.928 35.0128 103.334 36.2159C105.321 37.9155 107.136 39.7718 108.971 41.6297C110.544 43.2097 112.157 44.7052 113.851 46.1554C114.951 47.1105 115.987 48.1141 117.024 49.1366C117.22 49.3271 117.417 49.5175 117.62 49.7138C118.108 50.1971 118.575 50.7024 119.037 51.2109C119.037 51.4748 119.037 51.7387 119.037 52.0107C118.46 52.5745 118.46 52.5745 117.653 53.2353C115.726 54.858 113.959 56.6171 112.192 58.4085C111.251 57.6104 110.312 56.8104 109.374 56.0093C109.127 55.8001 108.88 55.5908 108.625 55.3753C106.343 53.4226 104.234 51.3304 102.126 49.196C100.822 47.8852 99.5066 46.6159 98.1002 45.4128C96.1134 43.7133 94.2983 41.857 92.4634 39.999C91.1589 38.6883 89.8435 37.419 88.4371 36.2159C86.4503 34.5163 84.6353 32.66 82.8003 30.8021C81.4968 29.4924 80.1826 28.224 78.7772 27.0221C77.0612 25.5544 75.4773 23.9752 73.8921 22.3705C72.0975 20.5542 70.3072 18.8137 68.3057 17.2222C68.9193 15.7207 69.8247 14.8998 71.0486 13.8483C72.4668 12.6131 73.8389 11.3704 75.1504 10.0246Z" fill="#F44335"/>
<path d="M86.3727 0C87.663 0.645402 88.5639 1.64702 89.5434 2.67724C90.8581 4.0416 92.1842 5.35261 93.6263 6.58531C95.627 8.29986 97.4579 10.1673 99.3072 12.0398C100.612 13.3505 101.927 14.6198 103.333 15.8229C105.32 17.5224 107.135 19.3787 108.97 21.2367C110.275 22.5474 111.59 23.8168 112.997 25.0198C114.983 26.7194 116.798 28.5757 118.633 30.4336C120.198 32.0054 121.802 33.4946 123.487 34.9378C124.733 36.0176 125.929 37.144 127.114 38.2904C127.471 38.6233 127.471 38.6233 127.836 38.9628C128.512 39.6197 128.512 39.6197 129.504 40.8146C129.329 42.4839 128.444 43.1248 127.189 44.1885C125.758 45.4221 124.379 46.6605 123.062 48.0122C121.881 47.4793 121.011 46.8881 120.069 46.005C119.811 45.7635 119.552 45.5221 119.285 45.2733C119.012 45.0142 118.739 44.7552 118.457 44.4884C118.173 44.2216 117.889 43.9549 117.596 43.68C115.558 41.7583 113.556 39.8037 111.593 37.8065C110.506 36.7081 109.39 35.672 108.215 34.6666C106.214 32.9474 104.38 31.0777 102.528 29.2028C101.224 27.8921 99.9083 26.6227 98.5019 25.4197C96.5151 23.7201 94.7001 21.8638 92.8651 20.0059C91.5627 18.6972 90.2496 17.4298 88.8451 16.229C87.1102 14.7451 85.5096 13.1465 83.9066 11.5243C83.3519 10.9631 82.7962 10.4029 82.2395 9.84361C81.9985 9.59967 81.7576 9.35573 81.5093 9.1044C80.791 8.39504 80.791 8.39504 79.8902 7.81186C79.6544 7.61843 79.4186 7.42501 79.1757 7.22573C79.1757 6.02612 79.1757 6.02612 79.7671 5.40914C80.037 5.19214 80.3069 4.97513 80.5849 4.75155C82.1457 3.46811 83.512 2.0831 84.8692 0.590429C85.6178 0.0281156 85.6178 0.0281157 86.3727 0Z" fill="#F44335"/>
<path d="M74.3443 31.6171C76.8158 33.6899 79.2054 35.8466 81.5916 38.015C80.97 39.4905 80.0664 40.4238 78.9242 41.5388C78.5951 41.863 78.2661 42.1873 77.927 42.5213C77.0379 43.3532 76.1401 44.151 75.2156 44.9424C73.5009 46.4216 71.9077 48.0015 70.318 49.6111C68.2469 51.7082 66.1289 53.7049 63.8759 55.6092C62.4569 54.9485 61.5678 54.1885 60.4788 53.06C59.2538 51.8133 58.041 50.6518 56.6286 49.6111C56.8609 48.1575 57.4098 47.4898 58.4546 46.4669C58.7476 46.178 59.0406 45.8891 59.3424 45.5914C59.651 45.2932 59.9595 44.995 60.2774 44.6878C60.5751 44.3942 60.8727 44.1007 61.1794 43.7982C62.5839 42.423 64.0061 41.085 65.5006 39.8066C67.2454 38.3115 68.8554 36.6985 70.469 35.066C71.0332 34.4955 71.5983 33.9258 72.1644 33.3572C72.4096 33.109 72.6548 32.8609 72.9074 32.6053C73.539 32.017 73.539 32.017 74.3443 31.6171Z" fill="black"/>
<path d="M63.9061 21.7011C65.0063 22.1568 65.6266 22.8634 66.4416 23.7211C67.8069 25.1263 69.1815 26.4057 70.7195 27.6198C70.4968 29.1751 69.801 29.8697 68.6812 30.9437C68.3859 31.2308 68.0906 31.5179 67.7863 31.8137C66.9235 32.6065 66.0497 33.3729 65.1598 34.1348C63.4424 35.6191 61.8447 37.2026 60.2512 38.8161C55.3067 43.8226 55.3067 43.8226 52.6012 45.6138C52.377 45.3865 52.1528 45.1592 51.9218 44.925C49.9378 42.9313 47.9099 41.0282 45.7566 39.216C46.341 37.8821 47.0769 37.0067 48.1126 35.9842C48.4224 35.6773 48.7323 35.3703 49.0515 35.0541C49.5381 34.5782 49.5381 34.5782 50.0345 34.0927C50.3495 33.78 50.6646 33.4674 50.9892 33.1453C52.4423 31.7129 53.9072 30.3147 55.4605 28.9897C57.4189 27.3167 59.1776 25.4565 60.9385 23.5821C61.1912 23.3228 61.444 23.0635 61.7044 22.7964C61.9285 22.5609 62.1526 22.3253 62.3835 22.0826C63.0696 21.6218 63.0696 21.6218 63.9061 21.7011Z" fill="black"/>
<path d="M124.572 142.706C124.969 142.717 125.366 142.728 125.774 142.739C126.075 142.753 126.376 142.767 126.686 142.781C126.719 143.873 126.743 144.963 126.762 146.055C126.772 146.363 126.782 146.67 126.792 146.987C126.816 148.825 126.764 150.135 125.478 151.578C124.596 151.875 124.596 151.875 123.641 151.928C123.325 151.952 123.009 151.976 122.684 152C121.855 151.978 121.855 151.978 121.049 151.578C121.182 151.05 121.315 150.523 121.452 149.979C121.759 150.07 122.067 150.16 122.383 150.254C122.74 150.295 123.097 150.336 123.465 150.379C124.204 149.845 124.204 149.845 124.673 149.179C124.241 149.22 123.809 149.262 123.365 149.304C121.855 149.179 121.855 149.179 120.848 148.379C120.146 146.985 120.156 146.235 120.345 144.727C121.132 142.781 122.654 142.638 124.572 142.706ZM122.358 144.431C121.721 145.209 121.721 145.209 121.981 146.455C122.072 146.826 122.163 147.197 122.257 147.58C123.223 147.851 123.223 147.851 124.27 147.979C125.203 147.226 125.203 147.226 125.176 145.98C125.203 144.735 125.203 144.735 124.27 143.981C123.092 143.873 123.092 143.873 122.358 144.431Z" fill="black"/>
<path d="M73.9411 142.781C78.37 142.781 78.37 142.781 79.9805 143.98C80.3112 145.337 80.2393 146.611 79.9805 147.979C79.1249 149.054 79.1249 149.054 77.9674 149.578C76.6337 149.478 76.6337 149.478 75.5516 149.178C75.4187 149.97 75.2859 150.762 75.149 151.578C74.7504 151.578 74.3518 151.578 73.9411 151.578C73.9411 148.675 73.9411 145.772 73.9411 142.781ZM75.6271 144.63C75.0052 145.608 75.0052 145.608 75.4761 146.879C75.6339 147.242 75.7917 147.605 75.9542 147.979C76.6186 147.979 77.2829 147.979 77.9674 147.979C78.4929 147.092 78.4929 147.092 78.7726 145.98C78.3511 144.837 78.3511 144.837 77.5647 143.98C76.3434 143.847 76.3434 143.847 75.6271 144.63Z" fill="black"/>
<path d="M84.0057 139.982C84.5371 139.982 85.0686 139.982 85.6162 139.982C85.7491 140.906 85.8819 141.83 86.0188 142.781C86.3925 142.757 86.7662 142.732 87.1512 142.706C88.4346 142.781 88.4346 142.781 89.114 143.219C89.9022 144.355 89.7587 145.294 89.718 146.655C89.7071 147.127 89.6962 147.598 89.6849 148.084C89.6709 148.446 89.6569 148.807 89.6425 149.179C89.111 149.179 88.5795 149.179 88.032 149.179C87.8991 147.728 87.7662 146.276 87.6293 144.781C87.0979 144.781 86.5664 144.781 86.0188 144.781C85.8859 146.232 85.7531 147.684 85.6162 149.179C85.0847 149.179 84.5532 149.179 84.0057 149.179C84.0057 146.144 84.0057 143.109 84.0057 139.982Z" fill="black"/>
<path d="M164.936 142.781C165.917 143.356 165.917 143.356 166.546 144.381C166.742 145.607 166.797 146.759 166.546 147.979C165.721 149.051 165.347 149.177 163.98 149.529C162.358 149.584 161.76 149.367 160.507 148.379C159.875 147.124 159.962 146.165 160.104 144.78C161.477 142.838 162.582 142.399 164.936 142.781ZM162.243 144.456C161.539 145.422 161.564 146.012 161.715 147.18C162.455 148.094 162.455 148.094 163.577 148.029C163.892 148.013 164.208 147.996 164.533 147.979C165.089 146.875 165.013 146.001 164.936 144.78C164.67 144.516 164.404 144.253 164.13 143.981C162.949 143.866 162.949 143.866 162.243 144.456Z" fill="black"/>
<path d="M38.1075 142.78C39.0889 143.38 39.0889 143.38 39.718 144.379C39.993 145.894 39.91 147.141 39.2902 148.553C38.1144 149.495 37.1836 149.552 35.6918 149.578C34.505 149.04 33.8627 148.744 33.276 147.578C33.0785 145.846 33.0837 145.051 34.1064 143.605C35.5873 142.572 36.3329 142.492 38.1075 142.78ZM35.4149 144.454C34.7104 145.421 34.7357 146.011 34.8865 147.178C35.1522 147.442 35.418 147.706 35.6918 147.978C37.0232 147.862 37.0232 147.862 38.1075 147.178C38.2082 145.996 38.2082 145.996 38.1075 144.779C37.8418 144.515 37.5761 144.251 37.3023 143.98C36.1206 143.865 36.1206 143.865 35.4149 144.454Z" fill="black"/>
<path d="M140.375 142.78C141.356 143.38 141.356 143.38 141.985 144.379C142.26 145.894 142.177 147.141 141.558 148.553C140.382 149.495 139.451 149.552 137.959 149.578C136.772 149.04 136.13 148.744 135.543 147.578C135.346 145.846 135.351 145.051 136.374 143.605C137.855 142.572 138.6 142.492 140.375 142.78ZM137.959 143.98C137.094 145.269 137 145.686 137.154 147.178C137.42 147.442 137.685 147.706 137.959 147.978C139.29 147.862 139.29 147.862 140.375 147.178C140.259 146.243 140.125 145.31 139.972 144.379C139.308 144.247 138.643 144.116 137.959 143.98Z" fill="black"/>
<path d="M70.7211 142.78C71.8787 143.38 71.8787 143.38 72.7343 144.379C72.9999 145.499 72.9824 146.457 72.7343 147.578C71.9117 148.804 71.3489 149.107 69.941 149.553C68.4669 149.583 67.8502 149.263 66.6948 148.378C66.0475 147.092 66.0487 145.77 66.2922 144.379C67.6096 142.84 68.7213 142.449 70.7211 142.78ZM68.708 143.98C67.7756 144.733 67.7756 144.733 67.8021 145.979C67.7756 147.225 67.7756 147.225 68.708 147.978C70.0394 147.862 70.0394 147.862 71.1237 147.179C71.0081 146.243 70.8744 145.31 70.7211 144.379C69.7559 144.108 69.7559 144.108 68.708 143.98Z" fill="black"/>
<path d="M95.2794 142.781C96.4622 143.63 96.4622 143.63 97.2926 144.78C97.5136 146.316 97.4391 147.518 96.4873 148.779C95.2965 149.468 94.5972 149.586 93.216 149.503C91.9888 149.159 91.6178 148.955 90.8505 147.979C90.5038 146.294 90.576 144.827 91.4796 143.355C92.8633 142.545 93.6988 142.533 95.2794 142.781ZM93.2663 143.98C92.48 144.837 92.48 144.837 92.0584 145.979C92.2506 147.09 92.2506 147.09 92.8637 147.979C93.2623 148.111 93.6609 148.243 94.0715 148.379C94.9438 147.713 94.9438 147.713 95.6821 146.779C95.617 145.423 95.4473 144.947 94.4742 143.98C94.0756 143.98 93.677 143.98 93.2663 143.98Z" fill="black"/>
<path d="M52.1998 142.781C52.9799 143.231 52.9799 143.231 53.4077 143.981C53.4832 145.255 53.4832 145.255 53.4077 146.38C52.079 146.512 50.7504 146.644 49.3814 146.78C49.5143 147.044 49.6471 147.308 49.784 147.58C50.5472 147.766 50.5472 147.766 51.4197 147.83C51.9429 147.879 52.466 147.929 53.0051 147.98C53.0051 148.375 53.0051 148.771 53.0051 149.179C50.4825 149.719 50.4825 149.719 49.0291 149.029C48.1735 148.379 48.1735 148.379 47.7709 147.98C47.5582 146.272 47.4851 144.846 48.4 143.356C49.7499 142.565 50.6596 142.587 52.1998 142.781ZM49.3814 144.381C49.3814 144.645 49.3814 144.909 49.3814 145.18C50.1786 145.18 50.9758 145.18 51.7972 145.18C51.6643 144.785 51.5314 144.389 51.3946 143.981C50.2167 143.891 50.2167 143.891 49.3814 144.381Z" fill="black"/>
<path d="M146.013 142.781C146.544 142.781 147.076 142.781 147.623 142.781C147.756 144.496 147.889 146.211 148.026 147.979C148.557 147.847 149.089 147.715 149.636 147.579C149.769 145.996 149.902 144.412 150.039 142.781C150.57 142.781 151.102 142.781 151.649 142.781C151.649 144.892 151.649 147.003 151.649 149.178C150.703 149.327 150.703 149.327 149.737 149.478C149.382 149.534 149.027 149.59 148.661 149.647C147.623 149.578 147.623 149.578 146.692 148.954C145.792 147.662 145.849 146.835 145.912 145.28C145.927 144.812 145.941 144.344 145.956 143.861C145.975 143.505 145.993 143.148 146.013 142.781Z" fill="black"/>
<path d="M40.9266 142.781C45.1068 142.635 45.1068 142.635 46.0979 143.219C46.7977 144.365 46.6785 145.331 46.6389 146.655C46.628 147.127 46.6171 147.598 46.6059 148.084C46.5919 148.446 46.5779 148.807 46.5634 149.179C46.032 149.179 45.5005 149.179 44.9529 149.179C44.82 147.728 44.6872 146.276 44.5503 144.781C44.0188 144.781 43.4873 144.781 42.9398 144.781C42.8069 146.232 42.674 147.684 42.5371 149.179C42.0057 149.179 41.4742 149.179 40.9266 149.179C40.9266 147.068 40.9266 144.957 40.9266 142.781Z" fill="black"/>
<path d="M167.754 142.781C168.286 142.913 168.817 143.045 169.365 143.181C169.498 143.049 169.63 142.917 169.767 142.781C171.899 142.597 171.899 142.597 172.861 143.22C173.652 144.355 173.507 145.294 173.467 146.655C173.456 147.126 173.445 147.598 173.434 148.084C173.419 148.445 173.405 148.807 173.391 149.179C172.86 149.179 172.328 149.179 171.781 149.179C171.781 147.596 171.781 146.012 171.781 144.381C171.116 144.513 170.452 144.645 169.767 144.78C169.635 146.232 169.502 147.684 169.365 149.179C168.833 149.179 168.302 149.179 167.754 149.179C167.754 147.068 167.754 144.956 167.754 142.781Z" fill="black"/>
<path d="M98.0998 142.781C98.6312 142.781 99.1627 142.781 99.7103 142.781C99.8432 144.496 99.976 146.211 100.113 147.979C100.644 147.847 101.176 147.715 101.723 147.579C102.213 146.606 102.255 145.812 102.353 144.73C102.386 144.366 102.42 144.002 102.455 143.627C102.479 143.348 102.504 143.068 102.529 142.781C102.927 142.781 103.326 142.781 103.737 142.781C103.869 144.892 104.002 147.003 104.139 149.178C99.8815 149.735 99.8815 149.735 98.5024 148.779C98.0615 147.465 98.0597 146.485 98.0746 145.105C98.0782 144.67 98.0819 144.236 98.0856 143.788C98.0903 143.456 98.095 143.123 98.0998 142.781Z" fill="black"/>
<path d="M113.4 142.781C114.172 142.748 114.944 142.715 115.74 142.681C116.392 142.654 116.392 142.654 117.057 142.625C118.231 142.781 118.231 142.781 118.986 143.431C119.566 144.646 119.559 145.541 119.515 146.88C119.504 147.311 119.493 147.742 119.482 148.186C119.468 148.514 119.454 148.841 119.439 149.179C118.908 149.179 118.376 149.179 117.829 149.179C117.696 147.728 117.563 146.276 117.426 144.781C116.762 144.649 116.098 144.517 115.413 144.381C115.28 145.964 115.147 147.548 115.01 149.179C114.612 149.179 114.213 149.179 113.803 149.179C113.67 147.068 113.537 144.957 113.4 142.781Z" fill="black"/>
<path d="M107.611 142.731C108.283 142.756 108.283 142.756 108.97 142.781C108.97 143.309 108.97 143.837 108.97 144.381C108.305 144.381 107.641 144.381 106.956 144.381C107.442 144.764 107.442 144.764 107.938 145.156C108.97 145.98 108.97 145.98 109.372 146.38C109.389 147.18 109.389 147.98 109.372 148.779C108.198 149.573 107.712 149.574 106.252 149.429C105.604 149.305 105.604 149.305 104.943 149.179C104.943 148.783 104.943 148.388 104.943 147.98C105.873 147.98 106.803 147.98 107.762 147.98C107.762 147.584 107.762 147.188 107.762 146.78C107.438 146.722 107.114 146.665 106.78 146.605C105.749 146.38 105.749 146.38 105.346 145.98C105.27 144.806 105.27 144.806 105.346 143.581C106.151 142.781 106.151 142.781 107.611 142.731Z" fill="black"/>
<path d="M132.977 142.731C133.649 142.756 133.649 142.756 134.335 142.781C134.335 143.309 134.335 143.837 134.335 144.381C133.671 144.381 133.007 144.381 132.322 144.381C132.808 144.764 132.808 144.764 133.304 145.156C134.335 145.98 134.335 145.98 134.738 146.38C134.754 147.18 134.755 147.98 134.738 148.779C133.564 149.573 133.078 149.574 131.618 149.429C130.97 149.305 130.97 149.305 130.309 149.179C130.442 148.783 130.575 148.388 130.712 147.98C131.376 147.98 132.04 147.98 132.725 147.98C132.858 147.584 132.991 147.188 133.128 146.78C132.804 146.722 132.48 146.665 132.146 146.605C131.114 146.38 131.114 146.38 130.712 145.98C130.636 144.806 130.636 144.806 130.712 143.581C131.517 142.781 131.517 142.781 132.977 142.731Z" fill="black"/>
<path d="M60.6545 142.781C60.7874 143.309 60.9203 143.836 61.0572 144.38C60.3928 144.38 59.7285 144.38 59.044 144.38C58.9111 144.644 58.7783 144.908 58.6414 145.18C59.0317 145.304 59.422 145.427 59.8241 145.555C61.0571 145.98 61.0572 145.98 61.4598 146.38C61.6108 147.329 61.6108 147.329 61.4598 148.379C60.6042 149.129 60.6042 149.129 59.4466 149.579C58.1129 149.454 58.1129 149.454 57.0309 149.179C57.0309 148.783 57.0309 148.387 57.0309 147.979C57.9609 147.979 58.891 147.979 59.8493 147.979C58.9768 147.069 58.0551 146.316 57.0309 145.58C57.1819 144.405 57.1819 144.405 57.4335 143.181C58.5241 142.639 59.4504 142.755 60.6545 142.781Z" fill="black"/>
<path d="M62.6685 141.582C63.2 141.582 63.7315 141.582 64.279 141.582C64.279 141.978 64.279 142.373 64.279 142.781C64.8105 142.781 65.342 142.781 65.8896 142.781C65.8896 143.177 65.8896 143.573 65.8896 143.981C65.3581 143.981 64.8266 143.981 64.279 143.981C64.279 145.3 64.279 146.62 64.279 147.98C64.8105 147.98 65.342 147.98 65.8896 147.98C65.7567 148.507 65.6238 149.035 65.4869 149.579C64.3042 149.429 64.3042 149.429 63.0712 149.179C62.5388 148.122 62.6296 147.309 62.6434 146.13C62.647 145.729 62.6506 145.328 62.6544 144.915C62.6614 144.453 62.6614 144.453 62.6685 143.981C62.4028 143.981 62.1371 143.981 61.8633 143.981C61.8633 143.585 61.8633 143.189 61.8633 142.781C62.129 142.781 62.3947 142.781 62.6685 142.781C62.6685 142.385 62.6685 141.99 62.6685 141.582Z" fill="black"/>
<path d="M153.662 141.582C154.061 141.582 154.46 141.582 154.87 141.582C154.87 141.978 154.87 142.373 154.87 142.781C155.535 142.781 156.199 142.781 156.883 142.781C156.883 143.177 156.883 143.573 156.883 143.981C156.219 143.981 155.555 143.981 154.87 143.981C155.003 145.3 155.136 146.62 155.273 147.98C155.672 147.98 156.07 147.98 156.481 147.98C156.348 148.507 156.215 149.035 156.078 149.579C154.115 149.229 154.115 149.229 153.662 148.779C153.633 147.972 153.629 147.163 153.637 146.355C153.641 145.913 153.644 145.472 153.648 145.016C153.653 144.675 153.658 144.333 153.662 143.981C153.264 143.981 152.865 143.981 152.454 143.981C152.454 143.585 152.454 143.189 152.454 142.781C152.853 142.781 153.252 142.781 153.662 142.781C153.662 142.385 153.662 141.99 153.662 141.582Z" fill="black"/>
<path d="M143.194 139.982C143.725 139.982 144.257 139.982 144.804 139.982C144.804 143.017 144.804 146.052 144.804 149.179C144.273 149.179 143.741 149.179 143.194 149.179C143.194 146.144 143.194 143.109 143.194 139.982Z" fill="black"/>
<path d="M157.689 142.781C158.22 142.781 158.752 142.781 159.299 142.781C159.299 144.892 159.299 147.003 159.299 149.178C158.768 149.178 158.236 149.178 157.689 149.178C157.689 147.067 157.689 144.956 157.689 142.781Z" fill="black"/>
<path d="M110.581 142.781C111.113 142.781 111.644 142.781 112.192 142.781C112.192 144.892 112.192 147.003 112.192 149.178C111.66 149.178 111.129 149.178 110.581 149.178C110.581 147.067 110.581 144.956 110.581 142.781Z" fill="black"/>
<path d="M157.687 140.382C158.484 140.58 158.484 140.58 159.298 140.782C159.165 141.309 159.032 141.837 158.895 142.381C158.363 142.249 157.832 142.117 157.284 141.981C157.417 141.453 157.55 140.926 157.687 140.382Z" fill="black"/>
<path d="M110.581 140.382C111.113 140.382 111.644 140.382 112.192 140.382C112.059 141.041 111.926 141.701 111.789 142.381C111.39 142.249 110.992 142.117 110.581 141.981C110.581 141.453 110.581 140.926 110.581 140.382Z" fill="black"/>
</svg>
