<svg viewBox="0 0 143.6665 125.6499" x="0" y="0" fill="none" xmlns="http://www.w3.org/2000/svg"><g id="Group 192" xmlns="http://www.w3.org/2000/svg">
<path id="Vector_100" d="M27.305,35.06c3.163,0 6.326,0 9.586,0c0.109,17.35 0.218,34.69 0.33,52.56c0.655,-0.76 1.309,-1.53 1.983,-2.31c1.41,-0.88 3.014,-0.84 4.628,-0.67c2.166,0.73 3.411,2.24 4.435,4.21c2.643,5.98 2.225,12.68 2.197,19.08c-0.002,0.66 -0.003,1.32 -0.005,1.98c-0.003,1.61 -0.01,3.21 -0.016,4.81c-3.272,0 -6.545,0 -9.916,0c-0.013,-1.16 -0.025,-2.33 -0.038,-3.53c-0.015,-1.13 -0.032,-2.27 -0.049,-3.4c-0.011,-0.79 -0.02,-1.57 -0.028,-2.36c-0.011,-1.13 -0.028,-2.26 -0.047,-3.39c-0.002,-0.35 -0.004,-0.7 -0.006,-1.06c-0.039,-1.95 -0.239,-3.37 -1.155,-5.1c-0.327,0.11 -0.654,0.22 -0.991,0.33c-1.135,2.53 -1.043,5.5 -1.096,8.22c-0.007,0.29 -0.014,0.59 -0.021,0.9c-0.022,0.93 -0.041,1.87 -0.061,2.8c-0.014,0.64 -0.029,1.28 -0.043,1.92c-0.035,1.56 -0.068,3.12 -0.101,4.67c-3.164,0 -6.327,0 -9.586,0c0,-26.28 0,-52.57 0,-79.66z" fill="currentColor"/>
<path id="Vector_101" d="M100.359,86.3c0.279,0.15 0.559,0.31 0.847,0.47c1.161,0.27 1.798,-0.21 2.8,-0.79c2.258,-1.2 5.5,-1 7.932,-0.45c1.832,0.66 2.885,1.46 3.957,3.08c0.386,1.16 0.37,2.07 0.368,3.29c0,0.23 0,0.46 0,0.7c-0.001,0.77 -0.003,1.54 -0.006,2.3c0,0.54 -0.001,1.07 -0.001,1.6c-0.001,1.4 -0.005,2.8 -0.008,4.2c-0.004,1.43 -0.005,2.86 -0.007,4.29c-0.003,2.8 -0.009,5.61 -0.016,8.41c-3.163,0 -6.327,0 -9.586,0c-0.109,-7.63 -0.218,-15.27 -0.33,-23.14c-1.483,-0.23 -1.483,-0.23 -2.975,-0.33c-0.109,7.75 -0.218,15.49 -0.331,23.47c-3.163,0 -6.327,0 -9.586,0c-0.109,-7.74 -0.218,-15.49 -0.33,-23.47c-0.982,0 -1.964,0 -2.975,0c-0.109,7.75 -0.218,15.49 -0.331,23.47c-3.163,0 -6.326,0 -9.586,0c0,-9.16 0,-18.32 0,-27.77c3.164,0 6.327,0 9.586,0c0,0.33 0,0.66 0,1c0.189,-0.1 0.378,-0.19 0.572,-0.29c3.32,-1.52 6.665,-1.52 10.006,-0.04z" fill="currentColor"/>
<path id="Vector_102" d="M14.757,35.72c2.837,0 5.673,0 8.595,0c0,14.07 0,28.15 0,42.64c-2.836,0 -5.673,0 -8.595,0c0,-0.21 0,-0.43 0,-0.66c-0.347,0.16 -0.695,0.32 -1.053,0.48c-2.769,1.17 -5.719,1.24 -8.543,0.18c-0.994,-0.5 -1.607,-1.12 -2.303,-1.98c-0.232,-0.28 -0.464,-0.56 -0.703,-0.85c-2.943,-5.39 -2.442,-13.51 -1.034,-19.34c0.784,-2.32 2.301,-3.87 4.47,-4.99c1.16,-0.35 2.263,-0.39 3.464,-0.4c0.22,0 0.44,-0.01 0.667,-0.02c2.113,-0.01 2.885,0.51 5.035,1.47c0,-5.45 0,-10.91 0,-16.53zM9.799,54.89c-0.201,0.91 -0.201,0.91 -0.171,1.95c-0.004,0.4 -0.008,0.8 -0.013,1.22c0.003,0.43 0.006,0.86 0.009,1.31c-0.001,0.45 -0.003,0.89 -0.004,1.34c-0.002,0.94 0.001,1.88 0.007,2.82c0.007,1.2 0.003,2.41 -0.005,3.61c-0.005,0.93 -0.003,1.85 0,2.78c0.002,0.66 -0.002,1.32 -0.007,1.98c0.005,0.4 0.009,0.8 0.013,1.21c0.001,0.35 0.002,0.71 0.003,1.07c0.091,0.91 0.091,0.91 0.768,1.49c1.059,0.56 1.858,0.51 3.036,0.38c0.753,-0.35 0.753,-0.35 1.322,-0.99c0.201,-0.91 0.201,-0.91 0.172,-1.95c0.004,-0.4 0.008,-0.8 0.012,-1.21c-0.003,-0.44 -0.005,-0.87 -0.008,-1.31c0.001,-0.45 0.002,-0.9 0.004,-1.35c0.002,-0.94 -0.001,-1.88 -0.007,-2.82c-0.008,-1.2 -0.003,-2.4 0.005,-3.61c0.004,-0.92 0.003,-1.85 -0.001,-2.78c-0.001,-0.66 0.003,-1.31 0.007,-1.97c-0.004,-0.4 -0.008,-0.81 -0.012,-1.22c-0.002,-0.35 -0.003,-0.7 -0.004,-1.07c-0.09,-0.91 -0.09,-0.91 -0.767,-1.49c-1.58,-0.83 -3.119,-0.65 -4.359,0.61z" fill="currentColor"/>
<path id="Vector_103" d="M66.32,35.72c2.945,0 5.891,0 8.925,0c0.109,8.51 0.218,17.02 0.331,25.79c2.067,-2.3 2.067,-2.3 4.111,-4.61c0.186,-0.21 0.372,-0.42 0.564,-0.63c0.468,-0.55 0.91,-1.11 1.34,-1.69c2.026,-2.55 2.026,-2.55 3.746,-2.89c1.068,0 2.076,0.07 3.13,0.23c-1.381,1.63 -2.799,3.21 -4.248,4.78c-0.792,0.93 -1.463,1.73 -2.032,2.82c0.214,1.12 0.214,1.12 0.827,2.23c0.102,0.21 0.205,0.42 0.31,0.64c0.336,0.69 0.684,1.37 1.032,2.05c0.233,0.47 0.464,0.94 0.695,1.42c0.468,0.95 0.939,1.91 1.414,2.86c0.977,1.97 1.894,3.97 2.808,5.97c0.154,0.33 0.307,0.66 0.466,1c0.208,0.45 0.208,0.45 0.421,0.91c0.181,0.4 0.181,0.4 0.366,0.8c0.255,0.63 0.255,0.63 0.255,1.29c-2.727,0 -5.454,0 -8.264,0c-2.945,-6.7 -2.945,-6.7 -5.95,-13.55c-0.491,0.33 -0.491,0.33 -0.991,0.66c-0.112,0.99 -0.162,1.9 -0.169,2.89c-0.006,0.28 -0.012,0.57 -0.018,0.86c-0.018,0.91 -0.03,1.83 -0.041,2.74c-0.011,0.62 -0.022,1.24 -0.034,1.85c-0.029,1.52 -0.049,3.04 -0.069,4.55c-2.945,0 -5.89,0 -8.925,0c0,-14.18 0,-28.36 0,-42.97z" fill="currentColor"/>
<path id="Vector_104" d="M73.926,87.62c3.224,3.15 3.636,7.78 3.719,12.08c-0.084,4.31 -0.694,8.21 -3.697,11.46c-3.255,2.82 -7.063,2.78 -11.133,2.63c-2.569,-0.19 -4.658,-1.25 -6.501,-3.02c-2.644,-3.14 -3.008,-7.05 -2.985,-11c0.002,-0.34 0.003,-0.67 0.005,-1.01c0.063,-4.04 0.498,-7.72 3.333,-10.79c1.524,-1.46 2.985,-2.19 5.029,-2.67c0.471,-0.11 0.471,-0.11 0.95,-0.22c3.992,-0.4 8.06,-0.09 11.28,2.54zM64.134,88.75c-2.515,4.69 -2.199,13.61 -1.116,18.7c0.321,0.98 0.668,1.84 1.322,2.65c0.865,0.37 0.865,0.37 1.653,0.33c2.08,-2.29 2.11,-4.75 2.211,-7.71c0.012,-0.35 0.025,-0.7 0.038,-1.06c0.464,-6.79 0.464,-6.79 -1.704,-12.97c-0.862,-0.65 -1.594,-0.65 -2.404,0.06z" fill="currentColor"/>
<path id="Vector_105" d="M131.973,85.2c0.314,-0.01 0.627,-0.02 0.949,-0.03c2.762,-0.02 4.892,0.67 7.212,2.16c3.52,3.77 3.202,8.23 3.202,13.18c-4.581,0 -9.163,0 -13.883,0c0.095,1.21 0.191,2.43 0.289,3.68c0.029,0.38 0.057,0.76 0.086,1.15c0.14,1.67 0.299,3.18 0.947,4.76c0.95,0.11 0.95,0.11 1.983,0c1.76,-1.76 1.445,-3.78 1.653,-6.28c3.054,0 6.109,0 9.255,0c0,3.15 -0.262,4.9 -2.375,7.21c-2.664,2.47 -5.769,2.77 -9.235,2.81c-0.493,0.01 -0.493,0.01 -0.997,0.02c-3.223,0.03 -5.933,-0.82 -8.298,-3.07c-3.155,-3.77 -3.165,-9.22 -2.791,-13.88c0.351,-3.58 0.954,-7.2 3.864,-9.62c2.748,-1.68 4.974,-2.06 8.139,-2.09zM131.106,88.78c-1.855,2.31 -1.835,4.91 -1.984,7.76c1.964,0 3.927,0 5.95,0c0.131,-2.77 0.013,-5.11 -1.322,-7.6c-1.107,-0.74 -1.547,-0.99 -2.644,-0.16z" fill="currentColor"/>
<path id="Vector_106" d="M57.991,53.14c2.271,1.65 3.576,3.24 4.028,6.05c0.087,1.49 0.077,2.97 0.065,4.45c-0.001,0.43 -0.002,0.85 -0.003,1.28c-0.003,1.11 -0.009,2.23 -0.016,3.34c-0.007,1.14 -0.01,2.28 -0.014,3.42c-0.006,2.23 -0.019,4.45 -0.032,6.68c-2.945,0 -5.89,0 -8.925,0c-0.109,-0.22 -0.218,-0.43 -0.33,-0.66c-0.293,0.16 -0.587,0.32 -0.889,0.48c-2.462,1.16 -5.608,1.31 -8.201,0.45c-1.244,-0.64 -1.782,-1.04 -2.479,-2.25c-0.591,-1.96 -0.773,-3.73 -0.765,-5.76c-0.005,-0.27 -0.01,-0.53 -0.016,-0.8c-0.002,-2.31 0.473,-4.33 1.71,-6.29c1.372,-1.33 2.72,-1.82 4.632,-1.83c0.224,0 0.447,0.01 0.678,0.01c0.221,0 0.442,-0.01 0.67,-0.01c1.738,0.01 3.062,0.45 4.66,1.13c0.019,-1.07 0.031,-2.14 0.041,-3.2c0.006,-0.31 0.011,-0.61 0.017,-0.92c0.041,-2.16 0.041,-2.16 -0.719,-4.15c-0.934,-0.76 -0.934,-0.76 -2.004,-0.6c-1.07,0.19 -1.07,0.19 -1.632,1.26c-0.148,0.74 -0.27,1.48 -0.372,2.22c-0.096,0.68 -0.191,1.37 -0.289,2.08c-2.182,0 -4.364,0 -6.611,0c0,-3.78 0,-3.78 1.322,-5.29c4.058,-3.59 10.847,-3.42 15.474,-1.09zM48.136,65.47c-0.534,1.6 -0.433,3.24 -0.454,4.92c-0.013,0.36 -0.025,0.72 -0.038,1.09c-0.041,2.13 -0.041,2.13 0.922,3.98c1.164,0.77 1.838,0.79 3.206,0.59c0.754,-0.35 0.754,-0.35 1.322,-0.99c0.199,-0.98 0.199,-0.98 0.164,-2.09c0.001,-0.41 0.001,-0.82 0.001,-1.24c-0.01,-0.64 -0.01,-0.64 -0.02,-1.3c0.002,-0.43 0.005,-0.86 0.007,-1.3c0.117,-2.08 0.117,-2.08 -0.598,-3.94c-1.597,-1.12 -2.975,-0.72 -4.512,0.28z" fill="currentColor"/>
<path id="Vector_107" d="M111.6,53.53c1.783,1.31 2.701,2.53 3.306,4.67c0.079,1 0.079,1 0.075,2.08c0,0.4 0,0.8 0,1.22c-0.004,0.43 -0.007,0.86 -0.011,1.3c-0.001,0.45 -0.002,0.9 -0.002,1.35c-0.003,1.18 -0.009,2.36 -0.017,3.53c-0.007,1.21 -0.01,2.41 -0.013,3.61c-0.007,2.36 -0.019,4.72 -0.032,7.07c-2.836,0 -5.672,0 -8.594,0c-0.11,-0.21 -0.219,-0.43 -0.331,-0.66c-0.293,0.16 -0.586,0.32 -0.888,0.48c-2.552,1.2 -5.666,1.23 -8.367,0.47c-1.413,-0.55 -2.006,-1.19 -2.645,-2.6c-1.113,-3.5 -1.273,-7.88 0.331,-11.24c0.981,-1.51 1.882,-2.44 3.636,-2.97c1.13,-0.12 1.13,-0.12 2.376,-0.13c0.407,-0.01 0.813,-0.02 1.233,-0.03c1.675,0.09 3.144,0.8 4.655,1.48c-0.092,-1.24 -0.19,-2.48 -0.29,-3.72c-0.026,-0.35 -0.052,-0.7 -0.078,-1.07c-0.028,-0.33 -0.056,-0.67 -0.084,-1.02c-0.025,-0.31 -0.049,-0.63 -0.074,-0.95c-0.138,-0.86 -0.313,-1.44 -0.797,-2.17c-1.044,-0.31 -1.703,-0.42 -2.747,-0.08c-0.662,0.41 -0.662,0.41 -0.889,1.41c-0.073,0.68 -0.134,1.36 -0.186,2.04c-0.047,0.63 -0.095,1.27 -0.144,1.92c-2.291,0 -4.582,0 -6.942,0c0,-2.45 0.145,-3.74 1.839,-5.51c4.361,-3.31 11.13,-3.37 15.68,-0.48zM101.684,65.14c-1.273,1.27 -0.784,3.55 -0.785,5.27c-0.008,0.43 -0.016,0.86 -0.025,1.3c-0.001,0.41 -0.002,0.83 -0.004,1.25c-0.002,0.38 -0.005,0.76 -0.008,1.15c0.072,0.97 0.072,0.97 0.76,1.56c1.087,0.57 1.833,0.55 3.037,0.38c0.969,-0.56 0.969,-0.56 1.653,-1.65c0.221,-1.34 0.185,-2.64 0.144,-3.99c-0.002,-0.36 -0.004,-0.72 -0.006,-1.09c0.031,-2.2 0.031,-2.2 -0.8,-4.18c-1.544,-0.64 -2.49,-0.84 -3.966,0z" fill="currentColor"/>
<path id="Vector_108" d="M61.69,8.29c0.964,0.43 1.636,0.89 2.37,1.65c0.193,0.2 0.385,0.4 0.584,0.6c0.296,0.3 0.296,0.3 0.599,0.62c1.198,1.23 2.399,2.44 3.703,3.56c1.636,1.41 3.132,2.95 4.643,4.49c1.071,1.08 2.151,2.13 3.306,3.12c1.631,1.41 3.121,2.94 4.628,4.48c1.07,1.08 2.15,2.13 3.305,3.13c1.631,1.4 3.121,2.94 4.628,4.47c1.291,1.31 2.615,2.55 4.006,3.74c0.903,0.79 1.753,1.62 2.605,2.47c0.161,0.16 0.323,0.31 0.489,0.48c0.401,0.39 0.784,0.81 1.163,1.23c0,0.22 0,0.44 0,0.66c-0.474,0.47 -0.474,0.47 -1.136,1.02c-1.582,1.34 -3.032,2.79 -4.483,4.27c-0.772,-0.66 -1.543,-1.32 -2.314,-1.98c-0.203,-0.17 -0.405,-0.35 -0.614,-0.52c-1.874,-1.62 -3.605,-3.35 -5.336,-5.11c-1.071,-1.09 -2.151,-2.14 -3.305,-3.13c-1.631,-1.4 -3.121,-2.94 -4.628,-4.48c-1.071,-1.08 -2.151,-2.13 -3.305,-3.12c-1.631,-1.41 -3.121,-2.94 -4.628,-4.48c-1.07,-1.08 -2.149,-2.13 -3.303,-3.12c-1.409,-1.22 -2.709,-2.52 -4.01,-3.85c-1.474,-1.5 -2.944,-2.94 -4.587,-4.25c0.504,-1.24 1.247,-1.92 2.252,-2.79c1.165,-1.02 2.291,-2.05 3.368,-3.16z" fill="currentColor"/>
<path id="Vector_109" d="M70.901,0c1.059,0.53 1.799,1.36 2.603,2.21c1.079,1.13 2.168,2.21 3.352,3.23c1.642,1.42 3.145,2.96 4.664,4.51c1.071,1.09 2.15,2.14 3.305,3.13c1.631,1.4 3.121,2.94 4.628,4.48c1.071,1.08 2.151,2.13 3.305,3.12c1.631,1.41 3.121,2.94 4.628,4.48c1.284,1.3 2.601,2.53 3.984,3.72c1.024,0.89 2.006,1.82 2.978,2.77c0.294,0.28 0.294,0.28 0.593,0.56c0.555,0.54 0.555,0.54 1.37,1.53c-0.144,1.38 -0.871,1.91 -1.901,2.79c-1.175,1.02 -2.307,2.04 -3.388,3.16c-0.969,-0.44 -1.684,-0.93 -2.457,-1.66c-0.213,-0.2 -0.425,-0.4 -0.644,-0.61c-0.224,-0.21 -0.449,-0.42 -0.68,-0.64c-0.233,-0.22 -0.466,-0.44 -0.707,-0.67c-1.673,-1.59 -3.317,-3.21 -4.928,-4.86c-0.892,-0.91 -1.808,-1.76 -2.773,-2.59c-1.643,-1.42 -3.149,-2.97 -4.669,-4.52c-1.071,-1.08 -2.151,-2.13 -3.306,-3.13c-1.631,-1.4 -3.121,-2.94 -4.627,-4.47c-1.069,-1.08 -2.147,-2.13 -3.3,-3.12c-1.425,-1.23 -2.739,-2.55 -4.055,-3.89c-0.455,-0.47 -0.912,-0.93 -1.369,-1.39c-0.197,-0.2 -0.395,-0.41 -0.599,-0.61c-0.59,-0.59 -0.59,-0.59 -1.329,-1.07c-0.194,-0.16 -0.387,-0.32 -0.587,-0.49c0,-0.99 0,-0.99 0.486,-1.5c0.221,-0.18 0.443,-0.36 0.671,-0.54c1.281,-1.06 2.403,-2.21 3.517,-3.44c0.615,-0.47 0.615,-0.47 1.235,-0.49z" fill="currentColor"/>
<path id="Vector_110" d="M61.021,26.14c2.029,1.71 3.991,3.49 5.95,5.28c-0.511,1.22 -1.253,2 -2.19,2.92c-0.27,0.27 -0.541,0.53 -0.819,0.81c-0.73,0.69 -1.467,1.35 -2.226,2c-1.408,1.22 -2.716,2.53 -4.021,3.86c-1.7,1.73 -3.439,3.38 -5.289,4.96c-1.165,-0.55 -1.894,-1.18 -2.789,-2.11c-1.005,-1.03 -2.001,-1.99 -3.16,-2.85c0.19,-1.2 0.641,-1.75 1.499,-2.6c0.24,-0.24 0.481,-0.48 0.729,-0.72c0.253,-0.25 0.506,-0.5 0.767,-0.75c0.245,-0.24 0.489,-0.48 0.741,-0.73c1.153,-1.14 2.32,-2.25 3.547,-3.3c1.433,-1.24 2.754,-2.57 4.079,-3.92c0.463,-0.47 0.927,-0.95 1.392,-1.42c0.201,-0.2 0.403,-0.41 0.61,-0.62c0.519,-0.48 0.519,-0.48 1.18,-0.81z" fill="currentColor"/>
<path id="Vector_111" d="M52.455,17.94c0.903,0.38 1.412,0.96 2.082,1.67c1.12,1.16 2.249,2.22 3.512,3.22c-0.183,1.29 -0.754,1.86 -1.674,2.75c-0.242,0.24 -0.485,0.47 -0.734,0.72c-0.709,0.65 -1.426,1.29 -2.157,1.92c-1.41,1.22 -2.721,2.53 -4.03,3.87c-4.059,4.14 -4.059,4.14 -6.28,5.62c-0.184,-0.19 -0.368,-0.38 -0.558,-0.57c-1.629,-1.65 -3.294,-3.22 -5.061,-4.72c0.479,-1.11 1.084,-1.83 1.934,-2.67c0.254,-0.26 0.509,-0.51 0.771,-0.77c0.399,-0.4 0.399,-0.4 0.807,-0.8c0.258,-0.26 0.517,-0.51 0.784,-0.78c1.193,-1.18 2.395,-2.34 3.67,-3.44c1.608,-1.38 3.052,-2.92 4.498,-4.47c0.207,-0.21 0.415,-0.42 0.628,-0.65c0.184,-0.19 0.368,-0.39 0.558,-0.59c0.563,-0.38 0.563,-0.38 1.25,-0.31z" fill="currentColor"/>
<path id="Vector_112" d="M102.264,117.97c0.326,0.01 0.651,0.02 0.986,0.02c0.248,0.02 0.495,0.03 0.749,0.04c0.027,0.9 0.047,1.8 0.062,2.71c0.009,0.25 0.017,0.5 0.025,0.77c0.02,1.52 -0.023,2.6 -1.078,3.79c-0.725,0.25 -0.725,0.25 -1.508,0.29c-0.26,0.02 -0.519,0.04 -0.787,0.06c-0.68,-0.02 -0.68,-0.02 -1.341,-0.35c0.109,-0.44 0.218,-0.87 0.33,-1.32c0.252,0.07 0.505,0.15 0.765,0.23c0.293,0.03 0.586,0.06 0.888,0.1c0.607,-0.44 0.607,-0.44 0.992,-0.99c-0.355,0.03 -0.709,0.07 -1.075,0.1c-1.239,-0.1 -1.239,-0.1 -2.066,-0.76c-0.576,-1.16 -0.568,-1.78 -0.413,-3.02c0.647,-1.61 1.896,-1.73 3.471,-1.67zM100.446,119.39c-0.523,0.65 -0.523,0.65 -0.31,1.68c0.075,0.3 0.15,0.61 0.227,0.93c0.793,0.22 0.793,0.22 1.653,0.33c0.765,-0.63 0.765,-0.63 0.744,-1.66c0.021,-1.03 0.021,-1.03 -0.744,-1.65c-0.967,-0.09 -0.967,-0.09 -1.57,0.37z" fill="currentColor"/>
<path id="Vector_113" d="M60.695,118.03c3.636,0 3.636,0 4.959,0.99c0.271,1.12 0.212,2.18 0,3.31c-0.703,0.88 -0.703,0.88 -1.653,1.32c-1.095,-0.08 -1.095,-0.08 -1.983,-0.33c-0.11,0.65 -0.219,1.31 -0.331,1.98c-0.327,0 -0.655,0 -0.992,0c0,-2.4 0,-4.8 0,-7.27zM62.079,119.56c-0.51,0.81 -0.51,0.81 -0.123,1.86c0.129,0.3 0.259,0.6 0.392,0.91c0.545,0 1.091,0 1.653,0c0.431,-0.74 0.431,-0.74 0.661,-1.66c-0.346,-0.94 -0.346,-0.94 -0.992,-1.65c-1.002,-0.11 -1.002,-0.11 -1.591,0.54z" fill="currentColor"/>
<path id="Vector_114" d="M68.961,115.72c0.436,0 0.873,0 1.322,0c0.109,0.76 0.218,1.52 0.331,2.31c0.306,-0.02 0.613,-0.04 0.929,-0.06c1.054,0.06 1.054,0.06 1.612,0.42c0.647,0.94 0.529,1.72 0.496,2.84c-0.009,0.39 -0.018,0.78 -0.028,1.18c-0.011,0.3 -0.023,0.6 -0.034,0.91c-0.437,0 -0.873,0 -1.323,0c-0.109,-1.2 -0.218,-2.4 -0.33,-3.64c-0.436,0 -0.873,0 -1.322,0c-0.109,1.2 -0.218,2.4 -0.331,3.64c-0.436,0 -0.873,0 -1.322,0c0,-2.51 0,-5.02 0,-7.6z" fill="currentColor"/>
<path id="Vector_115" d="M135.409,118.03c0.806,0.47 0.806,0.47 1.323,1.32c0.161,1.02 0.206,1.97 0,2.98c-0.678,0.88 -0.985,0.99 -2.108,1.28c-1.331,0.04 -1.822,-0.14 -2.851,-0.95c-0.518,-1.04 -0.447,-1.83 -0.33,-2.98c1.127,-1.6 2.034,-1.97 3.966,-1.65zM133.199,119.41c-0.579,0.8 -0.558,1.29 -0.434,2.26c0.608,0.75 0.608,0.75 1.529,0.7c0.259,-0.02 0.518,-0.03 0.785,-0.04c0.456,-0.92 0.393,-1.64 0.33,-2.65c-0.218,-0.22 -0.436,-0.43 -0.661,-0.66c-0.97,-0.09 -0.97,-0.09 -1.549,0.39z" fill="currentColor"/>
<path id="Vector_116" d="M31.276,118.03c0.806,0.49 0.806,0.49 1.322,1.32c0.226,1.25 0.158,2.28 -0.351,3.45c-0.965,0.78 -1.729,0.83 -2.954,0.85c-0.975,-0.45 -1.502,-0.69 -1.983,-1.66c-0.163,-1.43 -0.158,-2.08 0.681,-3.28c1.216,-0.85 1.828,-0.92 3.285,-0.68zM29.066,119.41c-0.579,0.8 -0.558,1.29 -0.434,2.25c0.218,0.22 0.436,0.44 0.661,0.67c1.093,-0.1 1.093,-0.1 1.983,-0.67c0.083,-0.97 0.083,-0.97 0,-1.98c-0.218,-0.22 -0.436,-0.44 -0.661,-0.66c-0.97,-0.1 -0.97,-0.1 -1.549,0.39z" fill="currentColor"/>
<path id="Vector_117" d="M115.237,118.03c0.806,0.49 0.806,0.49 1.322,1.32c0.226,1.25 0.158,2.28 -0.351,3.45c-0.965,0.78 -1.729,0.83 -2.954,0.85c-0.975,-0.45 -1.502,-0.69 -1.984,-1.66c-0.162,-1.43 -0.157,-2.08 0.682,-3.28c1.216,-0.85 1.828,-0.92 3.285,-0.68zM113.254,119.02c-0.711,1.07 -0.788,1.41 -0.661,2.64c0.218,0.22 0.436,0.44 0.661,0.67c1.093,-0.1 1.093,-0.1 1.983,-0.67c-0.095,-0.77 -0.205,-1.54 -0.331,-2.31c-0.545,-0.11 -1.09,-0.22 -1.652,-0.33z" fill="currentColor"/>
<path id="Vector_118" d="M58.064,118.03c0.95,0.49 0.95,0.49 1.653,1.32c0.218,0.93 0.204,1.72 0,2.64c-0.675,1.02 -1.137,1.27 -2.293,1.64c-1.21,0.02 -1.717,-0.24 -2.665,-0.97c-0.532,-1.07 -0.531,-2.16 -0.331,-3.31c1.082,-1.27 1.994,-1.6 3.636,-1.32zM56.411,119.02c-0.765,0.62 -0.765,0.62 -0.743,1.65c-0.022,1.03 -0.022,1.03 0.743,1.66c1.093,-0.1 1.093,-0.1 1.984,-0.67c-0.095,-0.77 -0.205,-1.54 -0.331,-2.31c-0.792,-0.22 -0.792,-0.22 -1.653,-0.33z" fill="currentColor"/>
<path id="Vector_119" d="M78.208,118.03c0.971,0.7 0.971,0.7 1.653,1.65c0.181,1.27 0.12,2.27 -0.661,3.31c-0.978,0.57 -1.552,0.66 -2.686,0.6c-1.008,-0.29 -1.312,-0.46 -1.942,-1.26c-0.285,-1.4 -0.225,-2.61 0.517,-3.83c1.136,-0.67 1.821,-0.68 3.119,-0.47zM76.555,119.02c-0.645,0.71 -0.645,0.71 -0.991,1.65c0.157,0.92 0.157,0.92 0.661,1.66c0.327,0.1 0.654,0.21 0.991,0.33c0.717,-0.55 0.717,-0.55 1.323,-1.33c-0.054,-1.12 -0.193,-1.51 -0.992,-2.31c-0.327,0 -0.655,0 -0.992,0z" fill="currentColor"/>
<path id="Vector_120" d="M42.849,118.03c0.641,0.37 0.641,0.37 0.992,0.99c0.062,1.05 0.062,1.05 0,1.98c-1.091,0.11 -2.182,0.22 -3.306,0.33c0.109,0.22 0.218,0.44 0.331,0.67c0.626,0.15 0.626,0.15 1.343,0.2c0.429,0.04 0.859,0.08 1.301,0.13c0,0.32 0,0.65 0,0.99c-2.071,0.44 -2.071,0.44 -3.264,-0.13c-0.702,-0.53 -0.702,-0.53 -1.033,-0.86c-0.175,-1.42 -0.235,-2.59 0.517,-3.83c1.108,-0.65 1.855,-0.63 3.119,-0.47zM40.535,119.35c0,0.22 0,0.44 0,0.66c0.655,0 1.309,0 1.984,0c-0.109,-0.32 -0.219,-0.65 -0.331,-0.99c-0.967,-0.07 -0.967,-0.07 -1.653,0.33z" fill="currentColor"/>
<path id="Vector_121" d="M119.866,118.03c0.436,0 0.873,0 1.322,0c0.109,1.42 0.218,2.83 0.331,4.3c0.436,-0.11 0.872,-0.22 1.322,-0.33c0.109,-1.31 0.218,-2.62 0.331,-3.97c0.436,0 0.872,0 1.322,0c0,1.74 0,3.49 0,5.29c-0.777,0.12 -0.777,0.12 -1.57,0.25c-0.292,0.04 -0.583,0.09 -0.884,0.13c-0.852,-0.05 -0.852,-0.05 -1.616,-0.57c-0.739,-1.07 -0.692,-1.75 -0.641,-3.04c0.012,-0.38 0.024,-0.77 0.037,-1.17c0.015,-0.29 0.03,-0.59 0.046,-0.89z" fill="currentColor"/>
<path id="Vector_122" d="M33.594,118.03c3.432,-0.12 3.432,-0.12 4.245,0.36c0.575,0.95 0.477,1.75 0.444,2.84c-0.009,0.39 -0.017,0.78 -0.027,1.18c-0.011,0.3 -0.023,0.6 -0.035,0.91c-0.436,0 -0.872,0 -1.322,0c-0.109,-1.2 -0.218,-2.4 -0.33,-3.64c-0.437,0 -0.873,0 -1.323,0c-0.109,1.2 -0.218,2.4 -0.33,3.64c-0.436,0 -0.873,0 -1.322,0c0,-1.75 0,-3.49 0,-5.29z" fill="currentColor"/>
<path id="Vector_123" d="M137.719,118.03c0.436,0.11 0.872,0.22 1.322,0.33c0.109,-0.11 0.218,-0.22 0.33,-0.33c1.75,-0.15 1.75,-0.15 2.54,0.36c0.65,0.94 0.531,1.72 0.497,2.84c-0.009,0.39 -0.017,0.78 -0.027,1.18c-0.011,0.3 -0.023,0.6 -0.035,0.91c-0.436,0 -0.872,0 -1.322,0c0,-1.31 0,-2.62 0,-3.97c-0.545,0.11 -1.091,0.22 -1.653,0.33c-0.109,1.2 -0.218,2.4 -0.33,3.64c-0.436,0 -0.873,0 -1.322,0c0,-1.75 0,-3.49 0,-5.29z" fill="currentColor"/>
<path id="Vector_124" d="M80.532,118.03c0.436,0 0.873,0 1.322,0c0.109,1.42 0.218,2.83 0.331,4.3c0.436,-0.11 0.872,-0.22 1.322,-0.33c0.402,-0.81 0.436,-1.47 0.516,-2.36c0.028,-0.3 0.056,-0.6 0.084,-0.91c0.02,-0.23 0.04,-0.46 0.061,-0.7c0.327,0 0.654,0 0.992,0c0.109,1.74 0.218,3.49 0.33,5.29c-3.495,0.46 -3.495,0.46 -4.628,-0.33c-0.362,-1.09 -0.363,-1.9 -0.351,-3.04c0.003,-0.36 0.006,-0.72 0.009,-1.09c0.004,-0.27 0.008,-0.55 0.012,-0.83z" fill="currentColor"/>
<path id="Vector_125" d="M93.094,118.03c0.634,-0.03 1.268,-0.06 1.921,-0.08c0.535,-0.03 0.535,-0.03 1.081,-0.05c0.964,0.13 0.964,0.13 1.584,0.67c0.476,1 0.47,1.74 0.434,2.85c-0.009,0.35 -0.018,0.71 -0.027,1.08c-0.012,0.27 -0.023,0.54 -0.035,0.82c-0.436,0 -0.873,0 -1.322,0c-0.109,-1.2 -0.218,-2.4 -0.331,-3.64c-0.545,-0.11 -1.091,-0.22 -1.653,-0.33c-0.109,1.31 -0.218,2.62 -0.33,3.97c-0.327,0 -0.655,0 -0.992,0c-0.109,-1.75 -0.218,-3.49 -0.33,-5.29z" fill="currentColor"/>
<path id="Vector_126" d="M88.346,117.99c0.552,0.02 0.552,0.02 1.116,0.04c0,0.44 0,0.87 0,1.32c-0.546,0 -1.091,0 -1.653,0c0.399,0.32 0.399,0.32 0.806,0.64c0.847,0.68 0.847,0.68 1.177,1.01c0.014,0.67 0.014,1.33 0,1.99c-0.964,0.65 -1.363,0.65 -2.561,0.53c-0.532,-0.1 -0.532,-0.1 -1.075,-0.2c0,-0.33 0,-0.66 0,-0.99c0.764,0 1.527,0 2.314,0c0,-0.33 0,-0.66 0,-1c-0.266,-0.04 -0.532,-0.09 -0.806,-0.14c-0.847,-0.19 -0.847,-0.19 -1.177,-0.52c-0.062,-0.97 -0.062,-0.97 0,-1.98c0.661,-0.66 0.661,-0.66 1.859,-0.7z" fill="currentColor"/>
<path id="Vector_127" d="M109.166,117.99c0.553,0.02 0.553,0.02 1.116,0.04c0,0.44 0,0.87 0,1.32c-0.545,0 -1.091,0 -1.653,0c0.399,0.32 0.399,0.32 0.806,0.64c0.847,0.68 0.847,0.68 1.178,1.01c0.013,0.67 0.014,1.33 0,1.99c-0.965,0.65 -1.364,0.65 -2.562,0.53c-0.532,-0.1 -0.532,-0.1 -1.074,-0.2c0.109,-0.33 0.218,-0.66 0.33,-0.99c0.546,0 1.091,0 1.653,0c0.109,-0.33 0.218,-0.66 0.33,-1c-0.265,-0.04 -0.531,-0.09 -0.805,-0.14c-0.847,-0.19 -0.847,-0.19 -1.178,-0.52c-0.062,-0.97 -0.062,-0.97 0,-1.98c0.661,-0.66 0.661,-0.66 1.859,-0.7z" fill="currentColor"/>
<path id="Vector_128" d="M49.787,118.03c0.11,0.44 0.219,0.87 0.331,1.32c-0.545,0 -1.091,0 -1.653,0c-0.109,0.22 -0.218,0.44 -0.33,0.66c0.32,0.1 0.641,0.21 0.971,0.31c1.012,0.35 1.012,0.35 1.343,0.68c0.123,0.79 0.123,0.79 0,1.66c-0.703,0.62 -0.703,0.62 -1.653,0.99c-1.095,-0.11 -1.095,-0.11 -1.984,-0.33c0,-0.33 0,-0.66 0,-0.99c0.764,0 1.528,0 2.314,0c-0.716,-0.76 -1.473,-1.38 -2.314,-1.99c0.124,-0.97 0.124,-0.97 0.331,-1.98c0.895,-0.45 1.656,-0.35 2.644,-0.33z" fill="currentColor"/>
<path id="Vector_129" d="M51.45,117.04c0.436,0 0.873,0 1.322,0c0,0.32 0,0.65 0,0.99c0.437,0 0.873,0 1.323,0c0,0.33 0,0.65 0,0.99c-0.437,0 -0.873,0 -1.323,0c0,1.09 0,2.18 0,3.31c0.437,0 0.873,0 1.323,0c-0.11,0.43 -0.219,0.87 -0.331,1.32c-0.971,-0.13 -0.971,-0.13 -1.983,-0.33c-0.437,-0.88 -0.363,-1.55 -0.352,-2.52c0.003,-0.33 0.006,-0.67 0.01,-1.01c0.005,-0.38 0.005,-0.38 0.011,-0.77c-0.218,0 -0.436,0 -0.661,0c0,-0.33 0,-0.65 0,-0.99c0.218,0 0.436,0 0.661,0c0,-0.33 0,-0.66 0,-0.99z" fill="currentColor"/>
<path id="Vector_130" d="M126.14,117.04c0.327,0 0.655,0 0.992,0c0,0.32 0,0.65 0,0.99c0.545,0 1.091,0 1.652,0c0,0.33 0,0.65 0,0.99c-0.545,0 -1.09,0 -1.652,0c0.109,1.09 0.218,2.18 0.33,3.31c0.328,0 0.655,0 0.992,0c-0.109,0.43 -0.218,0.87 -0.331,1.32c-1.611,-0.29 -1.611,-0.29 -1.983,-0.66c-0.024,-0.67 -0.028,-1.34 -0.021,-2.01c0.003,-0.36 0.006,-0.73 0.009,-1.1c0.004,-0.29 0.008,-0.57 0.012,-0.86c-0.327,0 -0.654,0 -0.992,0c0,-0.33 0,-0.65 0,-0.99c0.328,0 0.655,0 0.992,0c0,-0.33 0,-0.66 0,-0.99z" fill="currentColor"/>
<path id="Vector_131" d="M117.555,115.72c0.436,0 0.872,0 1.322,0c0,2.5 0,5.01 0,7.6c-0.436,0 -0.873,0 -1.322,0c0,-2.51 0,-5.02 0,-7.6z" fill="currentColor"/>
<path id="Vector_132" d="M129.453,118.03c0.436,0 0.873,0 1.322,0c0,1.74 0,3.49 0,5.29c-0.436,0 -0.872,0 -1.322,0c0,-1.75 0,-3.49 0,-5.29z" fill="currentColor"/>
<path id="Vector_133" d="M90.773,118.03c0.437,0 0.873,0 1.323,0c0,1.74 0,3.49 0,5.29c-0.437,0 -0.873,0 -1.323,0c0,-1.75 0,-3.49 0,-5.29z" fill="currentColor"/>
<path id="Vector_134" d="M129.456,116.05c0.654,0.16 0.654,0.16 1.322,0.33c-0.109,0.43 -0.218,0.87 -0.331,1.32c-0.436,-0.11 -0.872,-0.22 -1.322,-0.33c0.109,-0.44 0.218,-0.87 0.331,-1.32z" fill="currentColor"/>
<path id="Vector_135" d="M90.773,116.05c0.437,0 0.873,0 1.323,0c-0.109,0.54 -0.219,1.09 -0.331,1.65c-0.327,-0.11 -0.654,-0.22 -0.992,-0.33c0,-0.44 0,-0.87 0,-1.32z" fill="currentColor"/>
</g></svg>