<svg width="285" height="250" viewBox="0 0 285 250" fill="none" xmlns="http://www.w3.org/2000/svg">
<path d="M54.168 70.379C60.4403 70.379 66.7127 70.379 73.1752 70.379C73.3915 104.769 73.6077 139.159 73.8306 174.591C75.1283 173.077 76.4261 171.563 77.7631 170.003C80.5588 168.265 83.7381 168.34 86.939 168.692C91.2331 170.124 93.7017 173.118 95.7334 177.041C100.973 188.888 100.144 202.17 100.088 214.858C100.085 216.171 100.082 217.484 100.079 218.797C100.073 221.977 100.06 225.156 100.047 228.335C93.5588 228.335 87.0701 228.335 80.3848 228.335C80.3603 226.023 80.3358 223.711 80.3105 221.328C80.2802 219.081 80.2467 216.833 80.2128 214.586C80.191 213.028 80.1726 211.47 80.1577 209.912C80.1357 207.668 80.1014 205.425 80.0648 203.181C80.0606 202.488 80.0564 201.795 80.0521 201.081C79.9756 197.215 79.5794 194.408 77.7631 190.976C77.1142 191.193 76.4654 191.409 75.7969 191.632C73.5464 196.633 73.7292 202.526 73.6232 207.918C73.6096 208.506 73.596 209.094 73.5819 209.7C73.5395 211.556 73.5006 213.412 73.4619 215.268C73.4336 216.536 73.405 217.803 73.3761 219.071C73.306 222.159 73.2407 225.247 73.1752 228.335C66.9028 228.335 60.6304 228.335 54.168 228.335C54.168 176.21 54.168 124.084 54.168 70.379Z" fill="white"/>
<path d="M199.017 171.967C199.571 172.278 200.125 172.589 200.696 172.909C202.998 173.441 204.262 172.493 206.249 171.34C210.725 168.964 217.154 169.361 221.977 170.449C225.608 171.767 227.697 173.334 229.822 176.555C230.588 178.853 230.556 180.651 230.551 183.077C230.551 183.537 230.552 183.998 230.552 184.472C230.551 185.994 230.546 187.515 230.541 189.036C230.54 190.092 230.539 191.147 230.538 192.202C230.536 194.979 230.529 197.755 230.522 200.532C230.515 203.366 230.512 206.199 230.509 209.033C230.502 214.593 230.49 220.152 230.477 225.712C224.205 225.712 217.932 225.712 211.47 225.712C211.253 210.572 211.037 195.431 210.814 179.832C207.875 179.365 207.875 179.365 204.916 179.177C204.699 194.533 204.483 209.89 204.26 225.712C197.988 225.712 191.715 225.712 185.253 225.712C185.037 210.355 184.82 194.999 184.598 179.177C182.651 179.177 180.704 179.177 178.699 179.177C178.482 194.533 178.266 209.89 178.043 225.712C171.771 225.712 165.499 225.712 159.036 225.712C159.036 207.544 159.036 189.375 159.036 170.656C165.309 170.656 171.581 170.656 178.043 170.656C178.043 171.305 178.043 171.954 178.043 172.623C178.418 172.433 178.792 172.244 179.178 172.049C185.76 169.035 192.394 169.041 199.017 171.967Z" fill="white"/>
<path d="M29.2615 71.6892C34.885 71.6892 40.5085 71.6892 46.3024 71.6892C46.3024 99.5905 46.3024 127.492 46.3024 156.238C40.6789 156.238 35.0554 156.238 29.2615 156.238C29.2615 155.806 29.2615 155.373 29.2615 154.928C28.572 155.239 27.8826 155.549 27.1723 155.87C21.6831 158.188 15.8324 158.332 10.2338 156.223C8.262 155.245 7.04797 154.003 5.66632 152.306C5.20671 151.752 4.7471 151.197 4.27355 150.626C-1.56328 139.926 -0.569413 123.83 2.2228 112.266C3.77826 107.669 6.7859 104.592 11.0863 102.386C13.3856 101.683 15.5732 101.597 17.9555 101.593C18.3914 101.577 18.8274 101.561 19.2765 101.544C23.4661 101.52 24.9967 102.565 29.2615 104.46C29.2615 93.6458 29.2615 82.8314 29.2615 71.6892ZM19.4302 109.704C19.0317 111.496 19.0317 111.496 19.0909 113.566C19.0827 114.36 19.0744 115.154 19.0659 115.972C19.0712 116.83 19.0765 117.688 19.082 118.572C19.0802 119.461 19.0777 120.35 19.0744 121.239C19.0705 123.101 19.0761 124.963 19.0884 126.826C19.1033 129.213 19.0947 131.599 19.079 133.986C19.0695 135.821 19.0725 137.657 19.0793 139.492C19.0819 140.8 19.074 142.108 19.0659 143.416C19.0741 144.21 19.0824 145.004 19.0909 145.822C19.093 146.522 19.0951 147.222 19.0972 147.943C19.2761 149.751 19.2761 149.751 20.6188 150.893C22.719 152.003 24.3036 151.901 26.6398 151.651C28.1333 150.954 28.1333 150.954 29.2615 149.684C29.6599 147.891 29.6599 147.891 29.6007 145.822C29.609 145.028 29.6172 144.234 29.6257 143.416C29.6204 142.558 29.6151 141.7 29.6097 140.816C29.6114 139.927 29.614 139.038 29.6173 138.149C29.6211 136.287 29.6155 134.425 29.6033 132.562C29.5883 130.175 29.5969 127.789 29.6126 125.402C29.6221 123.566 29.6191 121.731 29.6123 119.896C29.6097 118.588 29.6177 117.28 29.6257 115.972C29.6175 115.178 29.6092 114.384 29.6007 113.566C29.5986 112.866 29.5965 112.166 29.5944 111.445C29.4155 109.637 29.4155 109.637 28.0728 108.494C24.941 106.84 21.888 107.203 19.4302 109.704Z" fill="white"/>
<path d="M131.51 71.6892C137.35 71.6892 143.189 71.6892 149.206 71.6892C149.422 88.5597 149.639 105.43 149.862 122.812C153.961 118.265 153.961 118.265 158.013 113.677C158.383 113.266 158.752 112.854 159.132 112.43C160.06 111.35 160.937 110.227 161.79 109.087C165.807 104.022 165.807 104.022 169.217 103.347C171.333 103.353 173.333 103.481 175.423 103.805C172.685 107.035 169.873 110.18 167 113.29C165.429 115.138 164.1 116.723 162.97 118.879C163.394 121.094 163.394 121.094 164.611 123.298C164.814 123.716 165.016 124.134 165.225 124.565C165.891 125.928 166.581 127.278 167.271 128.629C167.733 129.565 168.192 130.502 168.65 131.44C169.577 133.337 170.512 135.229 171.453 137.119C173.389 141.024 175.209 144.982 177.021 148.947C177.326 149.604 177.631 150.261 177.945 150.938C178.358 151.836 178.358 151.836 178.779 152.751C179.139 153.529 179.139 153.529 179.505 154.323C180.011 155.583 180.011 155.583 180.011 156.894C174.604 156.894 169.196 156.894 163.625 156.894C157.786 143.592 157.786 143.592 151.828 130.022C150.855 130.671 150.855 130.671 149.862 131.332C149.64 133.281 149.541 135.099 149.526 137.052C149.514 137.618 149.503 138.183 149.49 138.766C149.455 140.575 149.433 142.385 149.411 144.195C149.389 145.421 149.367 146.646 149.343 147.872C149.286 150.879 149.246 153.886 149.206 156.894C143.366 156.894 137.527 156.894 131.51 156.894C131.51 128.776 131.51 100.659 131.51 71.6892Z" fill="white"/>
<path d="M146.582 174.589C152.975 180.836 153.791 190.017 153.956 198.553C153.789 207.101 152.579 214.817 146.626 221.26C140.171 226.86 132.621 226.785 124.55 226.482C119.457 226.109 115.314 224.008 111.66 220.497C106.416 214.264 105.696 206.522 105.741 198.676C105.744 198.017 105.748 197.359 105.751 196.68C105.876 188.673 106.738 181.367 112.359 175.291C115.382 172.394 118.278 170.954 122.332 170.001C123.264 169.778 123.264 169.778 124.216 169.551C132.131 168.759 140.197 169.38 146.582 174.589ZM127.165 176.842C122.179 186.134 122.806 203.823 124.953 213.914C125.589 215.86 126.277 217.561 127.575 219.158C129.289 219.897 129.289 219.897 130.852 219.813C134.977 215.276 135.036 210.393 135.235 204.534C135.26 203.841 135.285 203.149 135.311 202.435C136.232 188.965 136.232 188.965 131.932 176.717C130.223 175.424 128.773 175.42 127.165 176.842Z" fill="white"/>
<path d="M261.689 169.798C262.31 169.779 262.931 169.76 263.571 169.74C269.047 169.692 273.27 171.066 277.87 174.017C284.85 181.485 284.219 190.328 284.219 200.152C275.135 200.152 266.051 200.152 256.691 200.152C256.881 202.558 257.07 204.964 257.265 207.444C257.321 208.195 257.378 208.946 257.436 209.72C257.712 213.045 258.029 216.041 259.313 219.159C261.197 219.378 261.197 219.378 263.246 219.159C266.734 215.67 266.109 211.666 266.523 206.706C272.579 206.706 278.635 206.706 284.874 206.706C284.874 212.959 284.355 216.431 280.164 221.003C274.883 225.908 268.726 226.508 261.853 226.574C260.874 226.602 260.874 226.602 259.876 226.631C253.486 226.686 248.111 225.003 243.422 220.532C237.167 213.065 237.146 202.251 237.889 193.017C238.584 185.921 239.78 178.739 245.549 173.935C250.999 170.615 255.412 169.86 261.689 169.798ZM259.968 176.885C256.291 181.481 256.331 186.619 256.036 192.287C259.929 192.287 263.822 192.287 267.833 192.287C268.092 186.785 267.859 182.152 265.212 177.212C263.017 175.749 262.144 175.253 259.968 176.885Z" fill="white"/>
<path d="M115 106.221C119.504 109.489 122.091 112.645 122.988 118.224C123.16 121.168 123.14 124.103 123.116 127.051C123.114 127.888 123.112 128.724 123.11 129.586C123.104 131.793 123.092 133.999 123.078 136.206C123.064 138.464 123.058 140.723 123.052 142.981C123.038 147.4 123.013 151.819 122.988 156.238C117.148 156.238 111.308 156.238 105.291 156.238C105.075 155.806 104.859 155.373 104.636 154.927C104.055 155.238 103.473 155.549 102.874 155.869C97.9924 158.172 91.7538 158.478 86.6118 156.771C84.1456 155.494 83.0781 154.697 81.6961 152.306C80.526 148.428 80.1642 144.915 80.1805 140.877C80.1699 140.356 80.1593 139.835 80.1484 139.298C80.1447 134.724 81.086 130.718 83.5395 126.826C86.2585 124.185 88.933 123.22 92.7231 123.198C93.1666 123.206 93.6102 123.213 94.0672 123.221C94.5057 123.214 94.9442 123.206 95.3959 123.198C98.8419 123.218 101.467 124.094 104.636 125.433C104.674 123.317 104.697 121.201 104.718 119.084C104.729 118.486 104.74 117.888 104.751 117.273C104.833 112.99 104.833 112.99 103.325 109.048C101.473 107.527 101.473 107.527 99.3515 107.86C97.2313 108.22 97.2313 108.22 96.1154 110.359C95.8224 111.811 95.5814 113.274 95.378 114.742C95.1888 116.107 94.9995 117.472 94.8045 118.879C90.4787 118.879 86.153 118.879 81.6961 118.879C81.6961 111.372 81.6961 111.372 84.3178 108.392C92.3647 101.274 105.826 101.604 115 106.221ZM95.4599 130.677C94.401 133.854 94.6018 137.099 94.5587 140.426C94.5342 141.14 94.5097 141.854 94.4845 142.589C94.4031 146.818 94.4031 146.818 96.3125 150.488C98.6204 152.004 99.9572 152.045 102.67 151.65C104.165 150.966 104.165 150.966 105.291 149.684C105.686 147.754 105.686 147.754 105.616 145.547C105.617 144.734 105.617 143.921 105.618 143.084C105.598 141.809 105.598 141.809 105.578 140.508C105.583 139.658 105.587 138.808 105.592 137.932C105.824 133.805 105.824 133.805 104.406 130.126C101.24 127.899 98.507 128.693 95.4599 130.677Z" fill="white"/>
<path d="M221.301 107C224.836 109.596 226.656 112.021 227.855 116.258C228.013 118.249 228.013 118.249 228.004 120.375C228.004 121.175 228.004 121.975 228.004 122.799C227.997 123.653 227.99 124.508 227.983 125.388C227.981 126.279 227.979 127.169 227.978 128.06C227.973 130.394 227.96 132.728 227.945 135.062C227.932 137.447 227.926 139.833 227.919 142.219C227.905 146.892 227.882 151.565 227.855 156.239C222.232 156.239 216.608 156.239 210.814 156.239C210.598 155.806 210.382 155.373 210.159 154.928C209.578 155.239 208.996 155.55 208.398 155.87C203.339 158.256 197.163 158.32 191.807 156.812C189.006 155.713 187.831 154.439 186.564 151.651C184.356 144.72 184.04 136.022 187.219 129.366C189.165 126.364 190.951 124.523 194.429 123.468C196.669 123.247 196.669 123.247 199.14 123.222C199.947 123.203 200.753 123.185 201.585 123.166C204.906 123.335 207.819 124.74 210.814 126.089C210.632 123.631 210.438 121.173 210.241 118.716C210.189 118.019 210.138 117.322 210.085 116.604C210.03 115.932 209.975 115.26 209.918 114.568C209.87 113.95 209.822 113.333 209.773 112.696C209.499 110.984 209.151 109.836 208.193 108.393C206.123 107.763 204.815 107.557 202.745 108.229C201.433 109.036 201.433 109.036 200.983 111.015C200.837 112.364 200.716 113.716 200.614 115.07C200.52 116.327 200.425 117.584 200.328 118.88C195.786 118.88 191.244 118.88 186.564 118.88C186.564 114.019 186.851 111.465 190.21 107.942C198.858 101.391 212.279 101.271 221.301 107ZM201.639 130.022C199.115 132.545 200.085 137.066 200.082 140.468C200.066 141.32 200.05 142.173 200.033 143.052C200.031 143.868 200.028 144.684 200.026 145.524C200.02 146.274 200.015 147.024 200.009 147.797C200.153 149.736 200.153 149.736 201.517 150.907C203.67 152.025 205.15 151.986 207.537 151.651C209.46 150.534 209.46 150.534 210.814 148.374C211.253 145.729 211.182 143.141 211.101 140.468C211.097 139.754 211.094 139.041 211.09 138.305C211.15 133.944 211.15 133.944 209.504 130.022C206.441 128.751 204.566 128.349 201.639 130.022Z" fill="white"/>
<path d="M122.334 17.2885C124.246 18.1502 125.577 19.0688 127.034 20.5732C127.416 20.9623 127.798 21.3514 128.191 21.7522C128.779 22.3612 128.779 22.3612 129.379 22.9824C131.755 25.4289 134.136 27.8149 136.722 30.041C139.966 32.837 142.932 35.8874 145.929 38.9429C148.052 41.0914 150.194 43.1719 152.483 45.1438C155.717 47.9296 158.672 50.9722 161.659 54.0176C163.782 56.166 165.924 58.2466 168.213 60.2185C171.447 63.0043 174.402 66.0469 177.389 69.0923C179.949 71.682 182.575 74.1333 185.333 76.5102C187.124 78.0758 188.81 79.7208 190.497 81.3968C190.818 81.709 191.138 82.0211 191.468 82.3428C192.263 83.135 193.022 83.9632 193.774 84.7968C193.774 85.2294 193.774 85.6619 193.774 86.1076C192.835 87.0319 192.835 87.0319 191.521 88.1148C188.385 90.7747 185.509 93.6581 182.632 96.5943C181.101 95.2861 179.572 93.9749 178.044 92.6618C177.642 92.3189 177.24 91.9759 176.826 91.6225C173.111 88.4218 169.678 84.9925 166.247 81.4941C164.123 79.3456 161.982 77.2651 159.693 75.2932C156.458 72.5074 153.504 69.4648 150.517 66.4194C148.393 64.271 146.252 62.1904 143.962 60.2185C140.728 57.4328 137.774 54.3901 134.787 51.3447C132.665 49.198 130.525 47.119 128.237 45.1489C125.444 42.7432 122.866 40.1548 120.285 37.5246C117.364 34.5474 114.45 31.6946 111.191 29.086C112.19 26.625 113.664 25.2794 115.656 23.5559C117.965 21.5312 120.199 19.4944 122.334 17.2885Z" fill="white"/>
<path d="M140.602 0.857422C142.703 1.9153 144.169 3.55705 145.764 5.24567C147.904 7.482 150.063 9.63086 152.41 11.6514C155.667 14.4617 158.647 17.5226 161.658 20.5917C163.781 22.7402 165.923 24.8207 168.212 26.7926C171.446 29.5784 174.401 32.621 177.388 35.6664C179.511 37.8148 181.653 39.8954 183.942 41.8673C187.176 44.653 190.131 47.6957 193.118 50.7411C195.664 53.3173 198.276 55.7582 201.019 58.1238C203.048 59.8937 204.995 61.7399 206.923 63.6191C207.505 64.1646 207.505 64.1646 208.099 64.7212C209.199 65.7978 209.199 65.7978 210.814 67.7564C210.529 70.4926 209.088 71.5431 207.046 73.2865C204.717 75.3086 202.472 77.3384 200.328 79.554C198.405 78.6806 196.988 77.7115 195.455 76.2641C195.034 75.8682 194.613 75.4724 194.179 75.0646C193.734 74.64 193.29 74.2155 192.831 73.7781C192.369 73.3409 191.906 72.9036 191.429 72.4532C188.112 69.3033 184.852 66.0996 181.657 62.8259C179.888 61.0254 178.072 59.3272 176.159 57.6793C172.901 54.8614 169.915 51.7967 166.901 48.7236C164.778 46.5752 162.636 44.4946 160.347 42.5227C157.113 39.737 154.158 36.6943 151.171 33.6489C149.051 31.5039 146.913 29.4265 144.627 27.4583C141.803 25.0261 139.197 22.4058 136.588 19.7468C135.685 18.827 134.78 17.9087 133.874 16.992C133.482 16.5922 133.09 16.1924 132.685 15.7804C131.516 14.6177 131.516 14.6177 130.05 13.6618C129.666 13.3448 129.282 13.0277 128.887 12.7011C128.887 10.7348 128.887 10.7348 129.849 9.72352C130.289 9.36783 130.728 9.01213 131.181 8.64566C133.721 6.54198 135.946 4.27182 138.155 1.82519C139.373 0.903506 139.373 0.903506 140.602 0.857422Z" fill="white"/>
<path d="M121.021 52.6805C125.044 56.078 128.934 59.613 132.819 63.1673C131.807 65.5857 130.336 67.1155 128.477 68.9432C127.941 69.4746 127.405 70.006 126.853 70.5536C125.406 71.9171 123.944 73.2248 122.439 74.5219C119.648 76.9464 117.055 79.5361 114.467 82.1745C111.096 85.6117 107.648 88.8845 103.98 92.0058C101.67 90.9229 100.223 89.6772 98.4501 87.8275C96.456 85.784 94.4817 83.8803 92.1826 82.1745C92.5607 79.7919 93.4542 78.6973 95.1551 77.0207C95.632 76.5472 96.1089 76.0736 96.6003 75.5857C97.1026 75.0969 97.6049 74.6082 98.1224 74.1046C98.6069 73.6234 99.0914 73.1423 99.5907 72.6465C101.877 70.3923 104.192 68.1994 106.625 66.1039C109.465 63.6533 112.086 61.0094 114.713 58.3335C115.631 57.3984 116.551 56.4647 117.473 55.5326C117.872 55.1259 118.271 54.7192 118.682 54.3002C119.71 53.336 119.71 53.336 121.021 52.6805Z" fill="white"/>
<path d="M104.029 36.4273C105.82 37.1743 106.83 38.3325 108.157 39.7383C110.379 42.0416 112.617 44.1386 115.12 46.1287C114.758 48.678 113.625 49.8166 111.802 51.5769C111.322 52.0475 110.841 52.5181 110.346 53.0029C108.941 54.3024 107.519 55.5586 106.07 56.8074C103.274 59.2402 100.674 61.8358 98.0795 64.4805C90.0307 72.6865 90.0307 72.6865 85.6265 75.6226C85.2615 75.25 84.8966 74.8774 84.5205 74.4936C81.2908 71.2257 77.9896 68.1063 74.4844 65.1359C75.4358 62.9496 76.6337 61.5147 78.3196 59.8388C78.824 59.3356 79.3284 58.8325 79.8481 58.3141C80.6401 57.5341 80.6401 57.5341 81.4482 56.7383C81.9611 56.2259 82.4739 55.7135 83.0023 55.1855C85.3678 52.8377 87.7524 50.546 90.281 48.374C93.469 45.6319 96.3319 42.5829 99.1983 39.5105C99.6098 39.0855 100.021 38.6605 100.445 38.2227C100.81 37.8366 101.175 37.4505 101.551 37.0527C102.667 36.2974 102.667 36.2974 104.029 36.4273Z" fill="white"/>
<path d="M202.786 234.767C203.432 234.784 204.077 234.802 204.742 234.82C205.232 234.843 205.722 234.866 206.227 234.889C206.28 236.679 206.319 238.466 206.35 240.256C206.366 240.76 206.383 241.264 206.4 241.783C206.439 244.795 206.354 246.944 204.261 249.309C202.825 249.795 202.825 249.795 201.27 249.882C200.756 249.921 200.241 249.96 199.711 250C198.362 249.964 198.362 249.964 197.051 249.309C197.267 248.444 197.484 247.578 197.707 246.687C198.207 246.836 198.707 246.984 199.222 247.138C199.804 247.205 200.385 247.273 200.984 247.342C202.187 246.468 202.187 246.468 202.95 245.376C202.247 245.444 201.544 245.511 200.82 245.581C198.362 245.376 198.362 245.376 196.723 244.065C195.581 241.78 195.597 240.55 195.904 238.079C197.186 234.889 199.664 234.655 202.786 234.767ZM199.181 237.593C198.144 238.868 198.144 238.868 198.567 240.911C198.716 241.519 198.864 242.128 199.017 242.754C200.589 243.2 200.589 243.2 202.295 243.41C203.812 242.174 203.812 242.174 203.769 240.133C203.812 238.091 203.812 238.091 202.295 236.856C200.377 236.678 200.377 236.678 199.181 237.593Z" fill="white"/>
<path d="M120.365 234.888C127.575 234.888 127.575 234.888 130.197 236.855C130.735 239.079 130.618 241.167 130.197 243.409C128.804 245.17 128.804 245.17 126.919 246.031C124.748 245.867 124.748 245.867 122.987 245.375C122.771 246.673 122.554 247.971 122.331 249.308C121.683 249.308 121.034 249.308 120.365 249.308C120.365 244.549 120.365 239.791 120.365 234.888ZM123.11 237.92C122.097 239.522 122.097 239.522 122.864 241.606C123.121 242.201 123.378 242.796 123.642 243.409C124.724 243.409 125.805 243.409 126.919 243.409C127.775 241.955 127.775 241.955 128.23 240.132C127.544 238.259 127.544 238.259 126.264 236.855C124.276 236.636 124.276 236.636 123.11 237.92Z" fill="white"/>
<path d="M136.749 230.301C137.614 230.301 138.479 230.301 139.371 230.301C139.587 231.815 139.803 233.329 140.026 234.889C140.634 234.849 141.243 234.808 141.869 234.766C143.959 234.889 143.959 234.889 145.065 235.606C146.348 237.469 146.114 239.008 146.048 241.239C146.03 242.012 146.012 242.785 145.994 243.581C145.971 244.173 145.948 244.766 145.925 245.376C145.06 245.376 144.195 245.376 143.303 245.376C143.087 242.997 142.871 240.618 142.648 238.166C141.783 238.166 140.917 238.166 140.026 238.166C139.81 240.545 139.594 242.925 139.371 245.376C138.506 245.376 137.64 245.376 136.749 245.376C136.749 240.401 136.749 235.427 136.749 230.301Z" fill="white"/>
<path d="M268.491 234.889C270.089 235.831 270.089 235.831 271.113 237.511C271.433 239.522 271.522 241.41 271.113 243.41C269.771 245.167 269.161 245.372 266.935 245.949C264.296 246.04 263.321 245.685 261.282 244.065C260.253 242.008 260.396 240.435 260.626 238.166C262.861 234.983 264.66 234.262 268.491 234.889ZM264.108 237.634C262.961 239.218 263.003 240.184 263.248 242.099C264.453 243.598 264.453 243.598 266.279 243.492C266.793 243.465 267.307 243.437 267.836 243.41C268.741 241.599 268.616 240.167 268.491 238.166C268.059 237.734 267.626 237.301 267.181 236.855C265.257 236.667 265.257 236.667 264.108 237.634Z" fill="white"/>
<path d="M62.0334 234.887C63.631 235.871 63.631 235.871 64.6551 237.509C65.1028 239.992 64.9676 242.035 63.9587 244.35C62.0447 245.894 60.5295 245.988 58.1009 246.03C56.169 245.148 55.1235 244.663 54.1684 242.752C53.8468 239.912 53.8554 238.61 55.5202 236.239C57.9309 234.547 59.1445 234.415 62.0334 234.887ZM57.6503 237.632C56.5033 239.216 56.5446 240.183 56.79 242.097C57.2226 242.53 57.6552 242.962 58.1009 243.408C60.2683 243.218 60.2683 243.218 62.0334 242.097C62.1973 240.158 62.1973 240.158 62.0334 238.164C61.6008 237.732 61.1683 237.299 60.7226 236.854C58.7989 236.665 58.7989 236.665 57.6503 237.632Z" fill="white"/>
<path d="M228.51 234.887C230.108 235.871 230.108 235.871 231.132 237.509C231.579 239.992 231.444 242.035 230.435 244.35C228.521 245.894 227.006 245.988 224.577 246.03C222.646 245.148 221.6 244.663 220.645 242.752C220.323 239.912 220.332 238.61 221.997 236.239C224.407 234.547 225.621 234.415 228.51 234.887ZM224.577 236.854C223.169 238.967 223.016 239.65 223.267 242.097C223.699 242.53 224.132 242.962 224.577 243.408C226.745 243.218 226.745 243.218 228.51 242.097C228.322 240.564 228.104 239.034 227.855 237.509C226.773 237.293 225.692 237.076 224.577 236.854Z" fill="white"/>
<path d="M115.124 234.887C117.009 235.87 117.009 235.87 118.401 237.509C118.834 239.344 118.805 240.914 118.401 242.752C117.062 244.761 116.146 245.257 113.854 245.989C111.455 246.038 110.451 245.514 108.57 244.063C107.516 241.956 107.518 239.789 107.915 237.509C110.059 234.986 111.869 234.345 115.124 234.887ZM111.847 236.854C110.329 238.089 110.329 238.089 110.373 240.131C110.329 242.172 110.329 242.172 111.847 243.408C114.015 243.218 114.015 243.218 115.78 242.097C115.591 240.564 115.374 239.034 115.124 237.509C113.553 237.064 113.553 237.064 111.847 236.854Z" fill="white"/>
<path d="M155.101 234.888C157.026 236.281 157.026 236.281 158.378 238.165C158.738 240.684 158.617 242.654 157.067 244.72C155.129 245.85 153.99 246.042 151.742 245.907C149.744 245.343 149.14 245.009 147.891 243.409C147.327 240.648 147.444 238.243 148.915 235.83C151.168 234.502 152.528 234.482 155.101 234.888ZM151.824 236.854C150.544 238.259 150.544 238.259 149.858 240.132C150.17 241.952 150.17 241.952 151.168 243.409C151.817 243.625 152.466 243.841 153.135 244.064C154.555 242.973 154.555 242.973 155.756 241.442C155.651 239.22 155.374 238.439 153.79 236.854C153.141 236.854 152.492 236.854 151.824 236.854Z" fill="white"/>
<path d="M84.9738 234.889C86.2436 235.626 86.2436 235.626 86.94 236.855C87.0629 238.945 87.0629 238.945 86.94 240.788C84.7771 241.004 82.6142 241.22 80.3858 241.443C80.6021 241.876 80.8184 242.308 81.0412 242.754C82.2835 243.059 82.2835 243.059 83.7039 243.164C84.5555 243.245 85.4072 243.326 86.2846 243.41C86.2846 244.058 86.2846 244.707 86.2846 245.376C82.1782 246.262 82.1782 246.262 79.8123 245.13C78.4196 244.065 78.4196 244.065 77.7641 243.41C77.4179 240.611 77.2989 238.274 78.7882 235.831C80.9857 234.535 82.4665 234.57 84.9738 234.889ZM80.3858 237.511C80.3858 237.943 80.3858 238.376 80.3858 238.822C81.6836 238.822 82.9813 238.822 84.3183 238.822C84.1021 238.173 83.8858 237.524 83.6629 236.855C81.7455 236.709 81.7455 236.709 80.3858 237.511Z" fill="white"/>
<path d="M237.687 234.888C238.552 234.888 239.418 234.888 240.309 234.888C240.525 237.7 240.741 240.512 240.964 243.409C241.829 243.193 242.695 242.976 243.586 242.753C243.802 240.158 244.019 237.563 244.241 234.888C245.107 234.888 245.972 234.888 246.863 234.888C246.863 238.349 246.863 241.81 246.863 245.375C245.322 245.618 245.322 245.618 243.75 245.867C243.172 245.958 242.594 246.049 241.999 246.143C240.309 246.031 240.309 246.031 238.793 245.006C237.328 242.889 237.421 241.535 237.523 238.985C237.547 238.218 237.571 237.451 237.595 236.66C237.625 236.075 237.656 235.491 237.687 234.888Z" fill="white"/>
<path d="M66.6221 234.889C73.4268 234.649 73.4268 234.649 75.0401 235.606C76.1793 237.484 75.9853 239.068 75.9209 241.239C75.9031 242.012 75.8854 242.785 75.8671 243.581C75.8443 244.174 75.8215 244.766 75.798 245.376C74.9328 245.376 74.0676 245.376 73.1763 245.376C72.96 242.997 72.7437 240.618 72.5209 238.167C71.6557 238.167 70.7905 238.167 69.8992 238.167C69.6829 240.546 69.4666 242.925 69.2438 245.376C68.3786 245.376 67.5134 245.376 66.6221 245.376C66.6221 241.916 66.6221 238.455 66.6221 234.889Z" fill="white"/>
<path d="M273.08 234.889C273.945 235.105 274.81 235.322 275.702 235.545C275.918 235.328 276.134 235.112 276.357 234.889C279.827 234.587 279.827 234.587 281.393 235.609C282.681 237.47 282.445 239.008 282.379 241.239C282.361 242.012 282.343 242.785 282.325 243.581C282.302 244.173 282.279 244.766 282.256 245.376C281.391 245.376 280.526 245.376 279.634 245.376C279.634 242.78 279.634 240.185 279.634 237.511C278.553 237.727 277.471 237.943 276.357 238.166C276.141 240.545 275.925 242.925 275.702 245.376C274.837 245.376 273.971 245.376 273.08 245.376C273.08 241.915 273.08 238.455 273.08 234.889Z" fill="white"/>
<path d="M159.692 234.888C160.557 234.888 161.423 234.888 162.314 234.888C162.53 237.7 162.747 240.512 162.969 243.409C163.835 243.193 164.7 242.976 165.591 242.753C166.389 241.158 166.456 239.858 166.615 238.084C166.67 237.487 166.725 236.891 166.782 236.276C166.821 235.818 166.861 235.36 166.902 234.888C167.551 234.888 168.2 234.888 168.868 234.888C169.084 238.349 169.301 241.81 169.524 245.375C162.593 246.287 162.593 246.287 160.348 244.72C159.63 242.567 159.627 240.96 159.651 238.698C159.657 237.986 159.663 237.274 159.669 236.54C159.677 235.995 159.684 235.45 159.692 234.888Z" fill="white"/>
<path d="M184.599 234.889C185.856 234.835 187.113 234.781 188.408 234.725C189.469 234.68 189.469 234.68 190.551 234.633C192.464 234.889 192.464 234.889 193.693 235.954C194.636 237.945 194.624 239.413 194.553 241.607C194.535 242.314 194.517 243.02 194.499 243.748C194.476 244.285 194.453 244.822 194.43 245.376C193.565 245.376 192.7 245.376 191.808 245.376C191.592 242.997 191.376 240.618 191.153 238.166C190.071 237.95 188.99 237.734 187.876 237.511C187.659 240.106 187.443 242.702 187.22 245.376C186.571 245.376 185.923 245.376 185.254 245.376C185.038 241.915 184.821 238.455 184.599 234.889Z" fill="white"/>
<path d="M175.174 234.808C176.269 234.848 176.269 234.848 177.386 234.89C177.386 235.755 177.386 236.62 177.386 237.511C176.305 237.511 175.223 237.511 174.109 237.511C174.9 238.14 174.9 238.14 175.707 238.781C177.386 240.133 177.386 240.133 178.042 240.788C178.068 242.099 178.07 243.41 178.042 244.721C176.13 246.021 175.339 246.024 172.962 245.786C171.908 245.583 171.908 245.583 170.832 245.376C170.832 244.727 170.832 244.079 170.832 243.41C172.346 243.41 173.86 243.41 175.42 243.41C175.42 242.761 175.42 242.112 175.42 241.444C174.893 241.349 174.366 241.254 173.822 241.157C172.143 240.788 172.143 240.788 171.487 240.133C171.365 238.208 171.365 238.208 171.487 236.2C172.798 234.89 172.798 234.89 175.174 234.808Z" fill="white"/>
<path d="M216.466 234.808C217.561 234.848 217.561 234.848 218.678 234.89C218.678 235.755 218.678 236.62 218.678 237.511C217.597 237.511 216.515 237.511 215.401 237.511C216.192 238.14 216.192 238.14 216.999 238.781C218.678 240.133 218.678 240.133 219.334 240.788C219.36 242.099 219.362 243.41 219.334 244.721C217.422 246.021 216.631 246.024 214.254 245.786C213.2 245.583 213.2 245.583 212.124 245.376C212.34 244.727 212.557 244.079 212.779 243.41C213.861 243.41 214.942 243.41 216.057 243.41C216.273 242.761 216.489 242.112 216.712 241.444C216.185 241.349 215.658 241.254 215.114 241.157C213.435 240.788 213.435 240.788 212.779 240.133C212.657 238.208 212.657 238.208 212.779 236.2C214.09 234.89 214.09 234.89 216.466 234.808Z" fill="white"/>
<path d="M98.7367 234.889C98.953 235.754 99.1693 236.619 99.3921 237.51C98.3107 237.51 97.2292 237.51 96.115 237.51C95.8987 237.943 95.6824 238.375 95.4596 238.821C96.0949 239.024 96.7303 239.227 97.3849 239.435C99.3921 240.132 99.3921 240.132 100.048 240.787C100.293 242.344 100.293 242.344 100.048 244.064C98.6547 245.293 98.6547 245.293 96.7704 246.031C94.5993 245.826 94.5993 245.826 92.8379 245.375C92.8379 244.726 92.8379 244.078 92.8379 243.409C94.3519 243.409 95.8659 243.409 97.4258 243.409C96.0056 241.918 94.5051 240.684 92.8379 239.476C93.0837 237.551 93.0837 237.551 93.4933 235.544C95.2687 234.656 96.7765 234.846 98.7367 234.889Z" fill="white"/>
<path d="M102.015 232.923C102.88 232.923 103.745 232.923 104.637 232.923C104.637 233.572 104.637 234.221 104.637 234.889C105.502 234.889 106.367 234.889 107.258 234.889C107.258 235.538 107.258 236.187 107.258 236.855C106.393 236.855 105.528 236.855 104.637 236.855C104.637 239.018 104.637 241.181 104.637 243.41C105.502 243.41 106.367 243.41 107.258 243.41C107.042 244.275 106.826 245.14 106.603 246.031C104.678 245.785 104.678 245.785 102.67 245.376C101.804 243.643 101.952 242.31 101.974 240.378C101.98 239.721 101.986 239.064 101.992 238.386C102.003 237.629 102.003 237.629 102.015 236.855C101.582 236.855 101.15 236.855 100.704 236.855C100.704 236.207 100.704 235.558 100.704 234.889C101.137 234.889 101.569 234.889 102.015 234.889C102.015 234.24 102.015 233.591 102.015 232.923Z" fill="white"/>
<path d="M250.14 232.923C250.789 232.923 251.438 232.923 252.106 232.923C252.106 233.572 252.106 234.221 252.106 234.889C253.188 234.889 254.269 234.889 255.383 234.889C255.383 235.538 255.383 236.187 255.383 236.855C254.302 236.855 253.221 236.855 252.106 236.855C252.323 239.018 252.539 241.181 252.762 243.41C253.411 243.41 254.06 243.41 254.728 243.41C254.512 244.275 254.295 245.14 254.073 246.031C250.877 245.458 250.877 245.458 250.14 244.72C250.093 243.397 250.085 242.071 250.099 240.747C250.105 240.023 250.111 239.299 250.117 238.553C250.125 237.993 250.132 237.433 250.14 236.855C249.491 236.855 248.842 236.855 248.174 236.855C248.174 236.207 248.174 235.558 248.174 234.889C248.823 234.889 249.472 234.889 250.14 234.889C250.14 234.24 250.14 233.591 250.14 232.923Z" fill="white"/>
<path d="M233.099 230.301C233.964 230.301 234.829 230.301 235.72 230.301C235.72 235.276 235.72 240.251 235.72 245.376C234.855 245.376 233.99 245.376 233.099 245.376C233.099 240.401 233.099 235.427 233.099 230.301Z" fill="white"/>
<path d="M256.694 234.888C257.559 234.888 258.425 234.888 259.316 234.888C259.316 238.349 259.316 241.81 259.316 245.375C258.451 245.375 257.586 245.375 256.694 245.375C256.694 241.915 256.694 238.454 256.694 234.888Z" fill="white"/>
<path d="M180.01 234.888C180.875 234.888 181.74 234.888 182.631 234.888C182.631 238.349 182.631 241.81 182.631 245.375C181.766 245.375 180.901 245.375 180.01 245.375C180.01 241.915 180.01 238.454 180.01 234.888Z" fill="white"/>
<path d="M256.692 230.956C257.989 231.281 257.989 231.281 259.313 231.612C259.097 232.477 258.881 233.342 258.658 234.233C257.793 234.017 256.928 233.801 256.036 233.578C256.252 232.713 256.469 231.848 256.692 230.956Z" fill="white"/>
<path d="M180.01 230.956C180.875 230.956 181.74 230.956 182.631 230.956C182.415 232.038 182.199 233.119 181.976 234.233C181.327 234.017 180.678 233.801 180.01 233.578C180.01 232.713 180.01 231.848 180.01 230.956Z" fill="white"/>
</svg>
