<svg viewBox="0 0 25 24.7121" x="0" y="0" fill="none" xmlns="http://www.w3.org/2000/svg"><g id="Group 369_2" xmlns="http://www.w3.org/2000/svg">
<path id="Vector_78" d="M8.55,7.486c0.04,0 0.07,0 0.11,0c0.12,0 0.23,0 0.35,0c0.08,0 0.16,0 0.25,0c0.27,0 0.54,0 0.82,0c0.09,0 0.19,0 0.28,0c0.44,0 0.89,-0.01 1.33,-0.01c0.51,0 1.02,0 1.53,0c0.4,0 0.79,0 1.19,0c0.24,0 0.47,0 0.71,0c0.22,0 0.44,0 0.66,0c0.09,0 0.17,0 0.25,-0.01c1.01,0 1.91,0.25 2.68,0.95c0.03,0.03 0.07,0.07 0.11,0.1c0.84,0.79 1.11,2.01 1.47,3.07c0.08,0.23 0.16,0.46 0.24,0.69c0.05,0.12 0.09,0.24 0.13,0.36c0.12,0.35 0.24,0.69 0.36,1.03c0.6,0.05 1.12,-0.06 1.7,-0.22c0.73,-0.2 0.73,-0.2 1.11,0.01c0.14,0.1 0.21,0.19 0.28,0.35c0.03,0.26 0.03,0.46 -0.08,0.7c-0.24,0.26 -0.48,0.36 -0.81,0.43c-0.03,0.01 -0.07,0.02 -0.11,0.03c-0.08,0.02 -0.17,0.04 -0.26,0.05c0,0.18 0.05,0.31 0.11,0.47c0.03,0.11 0.06,0.22 0.1,0.33c0.02,0.08 0.05,0.16 0.07,0.24c0.29,0.92 0.3,1.8 0.28,2.75c0,0.16 0,0.32 0,0.49c0,0.15 0,0.31 0,0.47c0,0.07 0,0.15 0,0.22c0,0.58 -0.07,0.98 -0.47,1.41c-0.3,0.29 -0.59,0.38 -1,0.37c0,0.06 0,0.11 0,0.16c0,0.2 0.01,0.39 0.01,0.58c0,0.09 0,0.17 0,0.26c0.01,0.53 0,0.95 -0.29,1.42c-0.33,0.33 -0.68,0.51 -1.14,0.51c-0.04,0 -0.07,0 -0.11,0c-0.12,0 -0.23,0 -0.35,0.01c-0.08,0 -0.17,0 -0.25,0c-0.17,0 -0.34,0 -0.51,0c-0.22,0 -0.44,0 -0.66,0c-0.16,0 -0.33,0 -0.5,0c-0.08,0 -0.16,0 -0.24,0.01c-0.56,0 -0.98,-0.05 -1.4,-0.44c-0.65,-0.7 -0.4,-1.56 -0.4,-2.51c-2.38,0 -4.77,0 -7.23,0c0,0.6 0,1.19 0,1.8c-0.21,0.49 -0.42,0.83 -0.91,1.07c-0.18,0.06 -0.36,0.05 -0.55,0.06c-0.03,0 -0.07,0 -0.1,0c-0.12,0 -0.23,0 -0.35,0c-0.04,0 -0.08,0 -0.12,0c-0.21,0 -0.42,0 -0.63,0c-0.17,0 -0.34,0.01 -0.52,0.01c-0.21,0 -0.42,0 -0.63,0c-0.08,0 -0.16,0 -0.24,0c-0.52,0.01 -0.93,-0.03 -1.34,-0.39c-0.03,-0.04 -0.07,-0.08 -0.1,-0.12c-0.05,-0.05 -0.05,-0.05 -0.1,-0.11c-0.21,-0.31 -0.26,-0.59 -0.25,-0.95c0,-0.04 0,-0.08 0,-0.12c0,-0.12 0,-0.25 0,-0.37c0,-0.09 0,-0.17 0,-0.26c0.01,-0.2 0.01,-0.41 0.01,-0.62c-0.05,0 -0.11,0 -0.16,0.01c-0.37,-0.01 -0.65,-0.2 -0.91,-0.45c-0.28,-0.3 -0.39,-0.6 -0.39,-1c0,-0.04 0,-0.07 -0.01,-0.1c0,-0.11 0,-0.21 0,-0.32c0,-0.03 0,-0.07 0,-0.11c0,-0.19 -0.01,-0.39 -0.01,-0.59c0,-0.15 0,-0.31 0,-0.47c-0.03,-1.27 0.09,-2.49 0.61,-3.67c-0.06,-0.02 -0.12,-0.04 -0.18,-0.06c-0.04,-0.01 -0.08,-0.03 -0.12,-0.04c-0.09,-0.03 -0.17,-0.05 -0.26,-0.08c-0.29,-0.08 -0.53,-0.16 -0.7,-0.44c-0.08,-0.21 -0.06,-0.42 -0.04,-0.64c0.11,-0.22 0.24,-0.38 0.47,-0.47c0.45,-0.06 0.84,0.08 1.26,0.2c0.46,0.13 0.88,0.14 1.36,0.13c0.01,-0.04 0.02,-0.07 0.03,-0.11c0.11,-0.32 0.23,-0.65 0.34,-0.97c0.06,-0.17 0.12,-0.34 0.17,-0.51c0.23,-0.66 0.46,-1.33 0.71,-1.99c0.02,-0.04 0.03,-0.09 0.05,-0.14c0.35,-0.94 1.01,-1.72 1.93,-2.16c0.44,-0.18 0.88,-0.3 1.36,-0.3zM7.07,9.736c-0.42,0.57 -0.6,1.28 -0.82,1.94c-0.06,0.16 -0.11,0.32 -0.16,0.48c-0.04,0.09 -0.07,0.19 -0.1,0.29c-0.15,0.42 -0.29,0.84 -0.44,1.26c4.58,0 9.16,0 13.88,0c-0.43,-1.27 -0.43,-1.27 -0.87,-2.54c-0.02,-0.07 -0.05,-0.14 -0.07,-0.21c-0.26,-0.74 -0.57,-1.38 -1.28,-1.76c-0.31,-0.14 -0.59,-0.21 -0.93,-0.21c-0.03,0 -0.06,0 -0.1,0c-0.11,0 -0.22,0 -0.34,0c-0.08,0 -0.16,0 -0.24,0c-0.22,0 -0.44,0 -0.65,0c-0.14,0 -0.28,0 -0.42,0c-0.47,0 -0.95,0 -1.43,0c-0.45,0 -0.89,-0.01 -1.34,-0.01c-0.38,0 -0.76,0 -1.15,0c-0.22,0 -0.45,0 -0.68,0c-0.22,0 -0.43,0 -0.65,0c-0.07,0 -0.15,0 -0.23,0c-0.79,-0.01 -1.42,0.17 -1.98,0.76zM3.6,15.626c-0.82,1.26 -0.54,3.27 -0.51,4.64c1.51,0 3.02,0 4.58,0c0.3,-0.69 0.3,-0.69 0.6,-1.37c0.1,-0.23 0.2,-0.46 0.31,-0.69c0.05,-0.12 0.1,-0.23 0.15,-0.35c0.03,-0.07 0.06,-0.13 0.09,-0.2c0.02,-0.05 0.05,-0.11 0.07,-0.16c0.11,-0.2 0.23,-0.34 0.44,-0.44c0.25,-0.06 0.49,-0.06 0.75,-0.06c0.05,0 0.11,0 0.17,0c0.16,0 0.32,0 0.47,0c0.14,0 0.27,0 0.4,0c0.31,0 0.62,0 0.93,0c0.33,0 0.65,0 0.97,0c0.27,0 0.55,0 0.83,0c0.16,0 0.32,0 0.49,0c0.18,0 0.37,0 0.55,0c0.08,0 0.08,0 0.16,0c0.35,0 0.66,0.01 0.92,0.26c0.11,0.19 0.2,0.38 0.28,0.57c0.02,0.04 0.04,0.09 0.06,0.13c0.05,0.13 0.11,0.27 0.17,0.4c0.05,0.13 0.11,0.26 0.17,0.39c0.03,0.09 0.07,0.17 0.1,0.25c0.19,0.42 0.37,0.85 0.56,1.27c1.51,0 3.02,0 4.58,0c0.19,-2.43 0.19,-2.43 -0.59,-4.72c-0.35,-0.35 -0.78,-0.37 -1.25,-0.36c-0.07,0 -0.13,0 -0.2,0c-0.19,0 -0.37,0 -0.56,0c-0.2,0 -0.4,0 -0.6,0c-0.4,0 -0.79,0 -1.18,0c-0.32,0 -0.64,0 -0.96,0c-0.07,0 -0.07,0 -0.14,0c-0.09,0 -0.19,0 -0.28,0c-0.87,0 -1.73,0 -2.6,0c-0.74,0 -1.49,0 -2.23,0c-0.86,0 -1.73,0 -2.59,0c-0.1,0 -0.19,0 -0.28,0c-0.07,0 -0.07,0 -0.14,0c-0.32,0 -0.64,0 -0.95,0c-0.39,0 -0.78,0 -1.17,0c-0.2,0 -0.4,0 -0.6,0c-0.18,0 -0.36,0 -0.54,0c-0.1,0 -0.2,0 -0.29,0c-0.46,0 -0.83,0.09 -1.14,0.44zM10.08,18.466c-0.52,0.87 -0.52,0.87 -0.77,1.8c2.1,0 4.2,0 6.36,0c-0.07,-0.22 -0.15,-0.42 -0.24,-0.63c-0.01,-0.03 -0.03,-0.06 -0.04,-0.09c-0.05,-0.1 -0.09,-0.19 -0.13,-0.29c-0.03,-0.06 -0.06,-0.13 -0.09,-0.2c-0.13,-0.29 -0.13,-0.29 -0.27,-0.59c-1.59,0 -3.18,0 -4.82,0zM4.54,21.766c0,0.47 0,0.93 0,1.41c0.93,0 1.87,0 2.84,0c0,-0.46 0,-0.93 0,-1.41c-0.94,0 -1.88,0 -2.84,0zM17.6,21.766c0,0.47 0,0.93 0,1.41c0.94,0 1.88,0 2.84,0c0,-0.46 0,-0.93 0,-1.41c-0.94,0 -1.87,0 -2.84,0z" fill="currentColor"/>
<path id="Vector_79" d="M13.75,0.366c0.1,0.05 0.19,0.09 0.28,0.13c0.2,0.09 0.39,0.18 0.58,0.26c0.37,0.17 0.74,0.33 1.12,0.5c0.19,0.08 0.39,0.17 0.58,0.25c0.06,0.03 0.06,0.03 0.12,0.05c0.45,0.2 0.9,0.4 1.36,0.6c0.65,0.28 1.3,0.57 1.95,0.85c0.48,0.21 0.96,0.42 1.44,0.63c0.04,0.02 0.09,0.04 0.13,0.06c0.21,0.09 0.42,0.18 0.62,0.27c0.43,0.19 0.86,0.38 1.29,0.56c0.13,0.06 0.27,0.12 0.4,0.17c0.08,0.04 0.16,0.08 0.25,0.11c0.11,0.05 0.23,0.1 0.34,0.15c0.04,0.01 0.07,0.03 0.1,0.04c0.25,0.11 0.48,0.24 0.63,0.47c0.09,0.27 0.08,0.56 -0.05,0.81c-0.19,0.21 -0.33,0.3 -0.62,0.33c-0.28,0 -0.52,-0.12 -0.77,-0.24c-0.06,-0.02 -0.11,-0.04 -0.17,-0.07c-0.15,-0.06 -0.3,-0.13 -0.45,-0.2c-0.16,-0.07 -0.32,-0.14 -0.48,-0.21c-0.27,-0.12 -0.55,-0.24 -0.83,-0.36c-0.47,-0.21 -0.95,-0.42 -1.43,-0.63c-0.04,-0.02 -0.08,-0.04 -0.13,-0.06c-0.65,-0.29 -1.3,-0.57 -1.95,-0.86c-0.61,-0.26 -1.22,-0.53 -1.83,-0.8c-0.76,-0.33 -1.51,-0.66 -2.26,-0.99c-0.06,-0.02 -0.06,-0.02 -0.11,-0.04c-0.08,-0.04 -0.15,-0.07 -0.22,-0.1c-0.18,-0.08 -0.35,-0.15 -0.53,-0.24c-0.38,-0.21 -0.38,-0.21 -0.79,-0.2c-0.08,0.03 -0.15,0.07 -0.21,0.11c-0.1,0.04 -0.19,0.08 -0.29,0.12c-0.11,0.05 -0.22,0.1 -0.33,0.15c-0.13,0.06 -0.25,0.12 -0.38,0.17c-0.03,0.02 -0.07,0.04 -0.1,0.05c-0.41,0.18 -0.82,0.36 -1.23,0.54c-0.16,0.07 -0.33,0.14 -0.49,0.21c-0.04,0.02 -0.08,0.04 -0.12,0.06c-0.46,0.2 -0.92,0.4 -1.38,0.6c-0.69,0.3 -1.38,0.61 -2.07,0.91c-0.57,0.24 -1.14,0.49 -1.71,0.75c-0.71,0.31 -1.42,0.62 -2.14,0.93c-0.05,0.02 -0.05,0.02 -0.11,0.05c-0.11,0.05 -0.22,0.1 -0.33,0.14c-0.05,0.02 -0.05,0.02 -0.1,0.05c-0.33,0.14 -0.6,0.21 -0.94,0.09c-0.17,-0.12 -0.28,-0.25 -0.37,-0.43c-0.03,-0.26 -0.04,-0.47 0.07,-0.71c0.23,-0.23 0.49,-0.36 0.79,-0.49c0.03,-0.01 0.07,-0.03 0.11,-0.04c0.12,-0.05 0.24,-0.11 0.36,-0.16c0.13,-0.05 0.25,-0.11 0.38,-0.16c0.09,-0.04 0.18,-0.08 0.27,-0.12c0.43,-0.18 0.85,-0.37 1.28,-0.56c0.73,-0.32 1.46,-0.64 2.19,-0.96c0.61,-0.27 1.22,-0.53 1.83,-0.8c0.5,-0.22 0.99,-0.43 1.48,-0.65c0.06,-0.02 0.06,-0.02 0.12,-0.05c0.2,-0.09 0.39,-0.17 0.59,-0.26c0.37,-0.16 0.75,-0.32 1.12,-0.49c0.18,-0.09 0.36,-0.17 0.54,-0.25c0.09,-0.04 0.18,-0.08 0.26,-0.12c0.94,-0.44 1.42,-0.35 2.34,0.08z" fill="currentColor"/>
<path id="Vector_80" d="M20.48,16.546c0.26,0.2 0.45,0.39 0.5,0.7c0.01,0.32 -0.06,0.57 -0.3,0.82c-0.26,0.23 -0.47,0.32 -0.83,0.32c-0.35,0 -0.58,-0.05 -0.84,-0.26c-0.29,-0.28 -0.34,-0.53 -0.33,-0.91c0.04,-0.28 0.18,-0.42 0.4,-0.62c0.44,-0.25 0.94,-0.31 1.4,-0.05z" fill="currentColor"/>
<path id="Vector_81" d="M5.88,16.576c0.23,0.17 0.42,0.37 0.45,0.64c0,0.35 -0.01,0.62 -0.3,0.88c-0.32,0.26 -0.61,0.3 -1.04,0.29c-0.32,-0.03 -0.48,-0.16 -0.71,-0.35c-0.21,-0.28 -0.29,-0.53 -0.23,-0.86c0.07,-0.3 0.27,-0.46 0.52,-0.65c0.41,-0.22 0.92,-0.19 1.31,0.05z" fill="currentColor"/>
</g></svg>