<svg width="48" height="48" viewBox="0 0 48 48" fill="none" xmlns="http://www.w3.org/2000/svg">
<path d="M12.2435 0.865149C13.1999 1.53985 14.0118 2.44927 14.8386 3.27182C14.9051 3.33789 14.9716 3.40395 15.0401 3.47202C15.3914 3.82105 15.7424 4.17033 16.0932 4.51984C16.4533 4.87853 16.8142 5.23635 17.1754 5.59397C17.4553 5.87145 17.7345 6.14956 18.0136 6.42784C18.1464 6.55999 18.2794 6.6919 18.4126 6.82357C20.1024 8.49468 20.1024 8.49468 20.5221 9.56164C20.5586 9.65181 20.595 9.74199 20.6326 9.83489C21.0385 11.0181 20.838 12.2507 20.3349 13.3674C19.7916 14.3851 18.9894 15.0417 17.9307 15.4691C16.7041 15.9649 15.7779 16.6013 15.1974 17.8445C15.0873 18.1211 14.9944 18.3977 14.9165 18.685C14.9004 18.7424 14.8842 18.7998 14.8676 18.8589C14.4696 20.6381 15.6723 22.7763 16.563 24.2266C16.7819 24.5678 17.0158 24.8967 17.2571 25.2225C17.2951 25.2747 17.333 25.3268 17.3722 25.3806C17.8679 26.058 18.4047 26.6861 18.9799 27.2973C19.1972 27.5296 19.4069 27.7665 19.6152 28.0068C19.9573 28.3915 20.3263 28.7219 20.7211 29.0517C20.8107 29.1296 20.9004 29.2075 20.9928 29.2877C23.0611 31.0786 25.8296 33.1146 28.6825 33.0045C29.1539 32.966 29.5554 32.8783 29.9896 32.694C30.0522 32.6691 30.1148 32.6442 30.1794 32.6185C31.1962 32.1666 31.9444 31.4489 32.3413 30.4214C32.3646 30.3604 32.388 30.2994 32.412 30.2366C32.8938 28.9801 33.6719 28.0544 34.8996 27.4647C36.0195 27.024 37.4283 26.9885 38.5534 27.4403C39.9037 28.1086 40.9391 29.3126 41.9921 30.3625C42.128 30.4977 42.2638 30.6329 42.3997 30.7681C42.6828 31.0499 42.9657 31.332 43.2485 31.6142C43.6096 31.9744 43.9714 32.334 44.3333 32.6934C44.6134 32.9718 44.8931 33.2507 45.1727 33.5296C45.3059 33.6624 45.4392 33.795 45.5727 33.9274C45.7595 34.1128 45.9457 34.2988 46.1317 34.4849C46.186 34.5386 46.2403 34.5922 46.2962 34.6474C47.3253 35.6819 47.9318 36.8383 48 38.3093C47.9504 40.4879 46.6411 41.7768 45.184 43.2453C45.1378 43.2919 45.0915 43.3385 45.0439 43.3866C44.7994 43.633 44.5545 43.8791 44.3094 44.1249C44.1094 44.3257 43.9101 44.5271 43.7114 44.7292C43.4681 44.9766 43.2235 45.2227 42.9782 45.4681C42.8863 45.5604 42.7948 45.6531 42.7037 45.7463C41.8743 46.5932 40.9451 47.3214 39.7789 47.6311C39.7176 47.6492 39.6564 47.6673 39.5933 47.686C37.6047 48.2599 35.325 47.9666 33.36 47.4502C33.2696 47.4267 33.1793 47.4031 33.0863 47.3789C31.1949 46.8734 29.3802 46.1206 27.6482 45.2125C27.4477 45.108 27.246 45.006 27.0442 44.9041C23.9634 43.3357 21.1011 41.3014 18.4538 39.0895C18.2356 38.9089 18.0129 38.7345 17.7895 38.5603C17.344 38.2075 16.9291 37.8259 16.5132 37.4392C16.2991 37.2409 16.0808 37.0483 15.8604 36.8569C14.8505 35.9788 13.893 35.0441 12.9446 34.1007C12.8622 34.019 12.7799 33.9372 12.695 33.853C12.2836 33.4417 11.8859 33.0246 11.5064 32.5839C11.281 32.324 11.0445 32.0749 10.8089 31.8243C10.3895 31.3746 9.99133 30.9134 9.60571 30.4343C9.41237 30.1964 9.21504 29.9629 9.01534 29.7303C6.48117 26.7763 4.21684 23.4215 2.55851 19.8991C2.49791 19.7736 2.43721 19.6481 2.37638 19.5226C1.46204 17.6226 0.721272 15.6192 0.311593 13.5484C0.290594 13.4449 0.290594 13.4449 0.269171 13.3392C-0.207869 10.924 -0.143758 8.47918 1.22804 6.36045C1.62187 5.821 2.09811 5.36199 2.57204 4.89307C2.68226 4.78286 2.79243 4.6726 2.90254 4.56229C3.1321 4.33274 3.36231 4.10387 3.59303 3.87548C3.88671 3.58464 4.17868 3.29215 4.47018 2.99913C4.69689 2.77161 4.9245 2.545 5.15238 2.31864C5.26032 2.2112 5.368 2.10349 5.47538 1.9955C6.0755 1.39301 6.65933 0.860912 7.42682 0.473302C7.54347 0.414163 7.54347 0.414163 7.66248 0.353828C9.08701 -0.324559 10.9722 0.0420398 12.2435 0.865149Z" fill="#DBDBDB"/>
</svg>
