<svg viewBox="0 0 27.718 27.6651" x="0" y="0" fill="none" xmlns="http://www.w3.org/2000/svg"><g id="Group 594" xmlns="http://www.w3.org/2000/svg">
<path id="Vector_60" d="M13.94,0.005c0.06,0 0.11,0 0.17,0c3.45,0.01 6.67,1.3 9.2,3.64c0.12,0.1 0.12,0.1 0.24,0.18c0.12,0.1 0.18,0.21 0.26,0.35c0.08,0.08 0.16,0.16 0.24,0.24c0.34,0.33 0.62,0.69 0.9,1.06c0.02,0.03 0.04,0.06 0.07,0.09c0.57,0.76 1.03,1.59 1.44,2.45c0.02,0.05 0.05,0.11 0.08,0.17c0.44,0.98 0.74,2.02 0.94,3.07c0.02,0.06 0.02,0.06 0.03,0.13c0.32,1.62 0.26,3.49 -0.08,5.1c-0.02,0.09 -0.02,0.09 -0.04,0.17c-0.42,1.97 -1.28,3.89 -2.55,5.45c-0.04,0.05 -0.08,0.1 -0.12,0.14c-2.24,2.83 -5.62,4.72 -9.21,5.14c-0.04,0 -0.08,0.01 -0.12,0.01c-0.04,0.01 -0.09,0.01 -0.13,0.02c-0.46,0.04 -0.93,0.05 -1.39,0.05c-0.04,0 -0.09,0 -0.13,0c-0.76,0 -1.49,-0.05 -2.24,-0.18c-0.05,-0.01 -0.1,-0.02 -0.15,-0.02c-1.19,-0.22 -2.33,-0.6 -3.41,-1.11c-0.04,-0.02 -0.08,-0.04 -0.12,-0.06c-0.1,-0.05 -0.1,-0.05 -0.26,-0.15c-0.39,-0.15 -0.87,0.02 -1.26,0.13c-0.06,0.01 -0.11,0.03 -0.16,0.04c-0.18,0.05 -0.35,0.09 -0.53,0.14c-0.12,0.03 -0.24,0.06 -0.37,0.09c-0.32,0.09 -0.64,0.17 -0.96,0.26c-0.33,0.08 -0.65,0.17 -0.98,0.25c-0.42,0.11 -0.85,0.22 -1.27,0.33c-0.11,0.03 -0.22,0.06 -0.33,0.09c-0.25,0.07 -0.51,0.13 -0.76,0.2c-0.05,0.01 -0.09,0.03 -0.14,0.04c-0.09,0.02 -0.18,0.05 -0.27,0.07c-0.18,0.05 -0.34,0.08 -0.53,0.08c0.03,-0.31 0.09,-0.59 0.17,-0.88c0.01,-0.05 0.03,-0.09 0.04,-0.13c0.04,-0.15 0.08,-0.29 0.12,-0.43c0.02,-0.1 0.05,-0.2 0.08,-0.3c0.07,-0.27 0.15,-0.53 0.22,-0.8c0.07,-0.26 0.15,-0.52 0.22,-0.78c0.01,-0.06 0.03,-0.11 0.04,-0.16c0.07,-0.26 0.14,-0.51 0.22,-0.77c0.02,-0.1 0.05,-0.2 0.08,-0.3c0.01,-0.05 0.03,-0.1 0.04,-0.15c0.08,-0.28 0.16,-0.56 0.24,-0.84c0.04,-0.16 0.09,-0.33 0.14,-0.49c0.02,-0.08 0.04,-0.15 0.06,-0.23c0.03,-0.1 0.06,-0.21 0.09,-0.31c0.02,-0.09 0.02,-0.09 0.05,-0.17c0.06,-0.36 -0.05,-0.63 -0.22,-0.93c-0.58,-1.14 -1,-2.3 -1.26,-3.55c-0.01,-0.05 -0.02,-0.1 -0.03,-0.16c-0.16,-0.86 -0.21,-1.71 -0.21,-2.58c0,-0.05 0,-0.1 0,-0.15c0.01,-2.08 0.46,-4.05 1.37,-5.92c0.02,-0.04 0.04,-0.08 0.06,-0.12c0.58,-1.18 1.35,-2.23 2.26,-3.18c0.03,-0.03 0.07,-0.07 0.1,-0.1c0.47,-0.49 0.94,-0.94 1.48,-1.34c0.09,-0.07 0.18,-0.13 0.27,-0.2c0.76,-0.57 1.61,-1.03 2.47,-1.43c0.04,-0.02 0.07,-0.04 0.11,-0.06c1.17,-0.53 2.4,-0.88 3.67,-1.08c0.06,-0.01 0.12,-0.02 0.19,-0.03c0.62,-0.09 1.24,-0.1 1.87,-0.09zM6.53,4.985c-0.04,0.04 -0.08,0.08 -0.13,0.12c-2.24,1.97 -3.66,4.73 -3.92,7.71c-0.01,0.29 -0.01,0.58 -0.01,0.87c0,0.04 0,0.08 0,0.12c0.01,2.1 0.59,4.39 1.88,6.08c0.21,0.44 -0.08,1.07 -0.21,1.52c-0.02,0.08 -0.04,0.16 -0.06,0.24c-0.06,0.22 -0.13,0.44 -0.19,0.65c-0.06,0.22 -0.12,0.45 -0.18,0.67c-0.12,0.43 -0.24,0.86 -0.36,1.3c0.17,0.08 0.29,0.01 0.47,-0.04c0.04,-0.01 0.08,-0.02 0.12,-0.03c0.08,-0.02 0.16,-0.04 0.25,-0.06c0.13,-0.04 0.26,-0.07 0.39,-0.11c0.32,-0.08 0.65,-0.17 0.97,-0.25c0.27,-0.08 0.55,-0.15 0.82,-0.22c0.13,-0.04 0.26,-0.07 0.39,-0.11c0.08,-0.02 0.15,-0.04 0.23,-0.06c0.07,-0.02 0.14,-0.04 0.21,-0.05c0.27,-0.06 0.54,-0.1 0.77,0.06c0.04,0.02 0.07,0.04 0.11,0.06c0.04,0.03 0.07,0.05 0.11,0.08c2.51,1.54 5.59,1.86 8.43,1.2c2.96,-0.74 5.55,-2.66 7.13,-5.26c1.55,-2.63 1.95,-5.7 1.22,-8.66c-0.52,-2 -1.58,-3.69 -2.99,-5.18c-0.05,-0.05 -0.05,-0.05 -0.1,-0.11c-2.05,-2.11 -5.03,-3.16 -7.92,-3.24c-2.7,-0.03 -5.38,0.93 -7.43,2.7z" fill="currentColor"/>
<path id="Vector_61" d="M9.38,7.295c0.07,0 0.07,0 0.14,0c0.3,0 0.52,0.01 0.74,0.24c0.13,0.19 0.23,0.39 0.32,0.61c0.02,0.05 0.04,0.09 0.06,0.14c0.3,0.68 0.58,1.36 0.86,2.05c0.02,0.05 0.04,0.09 0.06,0.14c0.09,0.25 0.09,0.45 0,0.69c-0.23,0.46 -0.57,0.82 -0.91,1.2c-0.1,0.11 -0.12,0.18 -0.14,0.33c0.02,0.24 0.12,0.38 0.25,0.58c0.03,0.04 0.05,0.08 0.08,0.11c1.03,1.58 2.43,2.76 4.15,3.54c0.04,0.01 0.07,0.03 0.11,0.05c0.21,0.09 0.38,0.13 0.61,0.11c0.4,-0.26 0.68,-0.7 0.97,-1.07c0.03,-0.03 0.05,-0.07 0.08,-0.1c0.05,-0.07 0.1,-0.14 0.16,-0.2c0.11,-0.15 0.2,-0.26 0.36,-0.36c0.38,-0.02 0.7,0.1 1.04,0.26c0.04,0.02 0.09,0.04 0.14,0.07c0.25,0.12 0.51,0.24 0.76,0.37c0.08,0.04 0.08,0.04 0.16,0.08c0.1,0.06 0.21,0.11 0.31,0.16c0.24,0.13 0.44,0.21 0.72,0.25c0.12,0.06 0.12,0.06 0.23,0.13c0.04,0.02 0.08,0.05 0.11,0.07c0.09,0.07 0.09,0.07 0.15,0.18c0.07,0.72 -0.07,1.58 -0.54,2.16c-0.62,0.66 -1.53,1.14 -2.44,1.19c-2.46,0.08 -4.99,-1.27 -6.8,-2.87c-0.03,-0.02 -0.05,-0.05 -0.08,-0.08c-0.64,-0.56 -1.22,-1.17 -1.75,-1.83c-0.12,-0.15 -0.25,-0.3 -0.37,-0.45c-1.17,-1.4 -2.21,-3.03 -2.06,-4.93c0.12,-0.96 0.63,-1.97 1.41,-2.58c0.34,-0.22 0.72,-0.25 1.11,-0.24z" fill="currentColor"/>
</g></svg>