<svg width="127" height="127" viewBox="0 0 127 127" fill="none" xmlns="http://www.w3.org/2000/svg">
<path d="M59.3983 25.3341C59.7202 25.3331 60.042 25.3322 60.3737 25.3312C61.0522 25.3297 61.7306 25.3318 62.409 25.3365C63.2739 25.3421 64.1384 25.3389 65.0032 25.3329C65.8348 25.3285 66.6662 25.3316 67.4978 25.3341C67.806 25.3321 68.1141 25.3301 68.4316 25.328C70.1062 25.346 71.4973 25.3926 72.8459 26.4547C74.1749 27.9388 74.2417 29.3564 74.1598 31.2773C74.1514 31.6532 74.1514 31.6532 74.1429 32.0366C74.1284 32.6495 74.1082 33.2616 74.0825 33.8741C74.4065 33.8719 74.7306 33.8697 75.0644 33.8674C78.1209 33.8473 81.1775 33.8325 84.2341 33.8228C85.8054 33.8177 87.3767 33.8107 88.9481 33.7994C90.465 33.7887 91.9819 33.7828 93.4989 33.7802C94.0771 33.7784 94.6553 33.7748 95.2335 33.7695C96.0446 33.7623 96.8554 33.7613 97.6665 33.7618C97.9046 33.7582 98.1426 33.7547 98.3878 33.751C100.2 33.762 101.563 34.1497 102.863 35.4507C103.627 36.6847 103.822 37.8059 103.824 39.2434C103.825 39.404 103.826 39.5646 103.827 39.7301C103.83 40.2649 103.829 40.7996 103.828 41.3344C103.829 41.7193 103.83 42.1041 103.832 42.4889C103.835 43.5318 103.835 44.5747 103.835 45.6176C103.834 46.4891 103.836 47.3606 103.837 48.2321C103.839 50.2884 103.84 52.3447 103.838 54.4011C103.837 56.5207 103.84 58.6403 103.845 60.7599C103.849 62.5815 103.851 64.4032 103.85 66.2248C103.849 67.312 103.85 68.3992 103.854 69.4864C103.857 70.5089 103.856 71.5313 103.853 72.5538C103.852 72.9283 103.853 73.3029 103.855 73.6774C103.858 74.1902 103.856 74.7027 103.853 75.2154C103.853 75.6451 103.853 75.6451 103.853 76.0835C103.673 77.6778 103.036 78.8476 101.781 79.8742C100.322 80.6568 99.108 80.7188 97.47 80.7004C97.0897 80.7005 97.0897 80.7005 96.7017 80.7007C95.868 80.7002 95.0345 80.6944 94.2008 80.6886C93.6211 80.6872 93.0413 80.6862 92.4616 80.6854C90.9389 80.6826 89.4164 80.6753 87.8937 80.6671C86.3387 80.6595 84.7837 80.6561 83.2287 80.6524C80.1799 80.6444 77.1312 80.6314 74.0825 80.6161C74.0825 82.5749 74.0825 84.5336 74.0825 86.5516C74.7138 86.5491 75.3452 86.5465 75.9957 86.5438C78.0883 86.5356 80.181 86.5301 82.2737 86.526C83.5417 86.5234 84.8097 86.52 86.0778 86.5143C87.3029 86.5089 88.528 86.506 89.7531 86.5047C90.2191 86.5038 90.685 86.502 91.151 86.4993C96.1527 86.4717 98.9063 87.2407 102.82 90.3997C103.497 90.9411 104.184 91.4669 104.873 91.9925C106.138 92.9619 107.395 93.9417 108.644 94.932C109.367 95.5044 110.096 96.066 110.841 96.6103C110.986 96.7176 111.131 96.8249 111.281 96.9354C111.679 97.2286 112.079 97.5186 112.48 97.8082C113.504 98.7365 114.069 99.5165 114.238 100.891C114.274 101.804 114.278 102.712 114.27 103.625C114.27 103.963 114.27 104.3 114.271 104.638C114.271 105.344 114.268 106.049 114.263 106.754C114.255 107.655 114.256 108.556 114.259 109.457C114.261 110.154 114.259 110.85 114.256 111.547C114.254 112.04 114.255 112.533 114.257 113.026C114.253 113.327 114.25 113.628 114.247 113.939C114.246 114.203 114.244 114.466 114.243 114.738C114.091 115.928 113.617 116.924 112.663 117.667C111.598 118.443 110.889 118.486 109.601 118.487C109.44 118.488 109.278 118.488 109.112 118.489C108.566 118.49 108.021 118.49 107.476 118.49C107.083 118.49 106.689 118.491 106.296 118.492C105.212 118.494 104.128 118.494 103.044 118.495C101.877 118.495 100.709 118.497 99.5409 118.499C96.986 118.502 94.4312 118.503 91.8763 118.504C90.2818 118.505 88.6873 118.506 87.0928 118.507C82.6802 118.51 78.2676 118.513 73.855 118.514C73.5724 118.514 73.2899 118.514 72.9988 118.514C72.7156 118.514 72.4324 118.514 72.1406 118.514C71.5667 118.514 70.9928 118.514 70.4189 118.514C69.9918 118.514 69.9918 118.514 69.5562 118.515C64.9418 118.516 60.3274 118.52 55.713 118.526C50.9783 118.531 46.2435 118.535 41.5088 118.535C38.8493 118.535 36.1897 118.536 33.5302 118.541C31.2659 118.545 29.0016 118.546 26.7372 118.544C25.5815 118.543 24.4258 118.543 23.2701 118.547C22.2124 118.55 21.1548 118.55 20.0972 118.547C19.7142 118.546 19.3313 118.547 18.9483 118.549C18.4282 118.552 17.9083 118.55 17.3881 118.547C16.9546 118.547 16.9546 118.547 16.5123 118.547C15.4511 118.424 14.6185 118.065 13.8261 117.342C12.9326 116.194 12.7185 115.46 12.7013 114.027C12.6953 113.576 12.6953 113.576 12.6892 113.116C12.6782 111.74 12.668 110.365 12.6624 108.989C12.6591 108.264 12.6522 107.539 12.6421 106.813C12.6299 105.935 12.6238 105.058 12.622 104.179C12.6196 103.685 12.6111 103.191 12.6025 102.697C12.6068 100.871 12.7371 99.5658 13.9855 98.1753C14.6531 97.5629 14.6531 97.5629 15.3921 97.0315C15.6783 96.8212 15.9642 96.6106 16.25 96.3997C16.403 96.2882 16.556 96.1767 16.7137 96.0618C17.6057 95.403 18.4757 94.7159 19.3491 94.0328C19.7288 93.7378 20.1084 93.4429 20.4881 93.1479C21.2747 92.5357 22.0581 91.9196 22.8395 91.3008C26.3488 88.5299 29.0808 86.5023 33.6937 86.5236C33.9014 86.5235 34.1091 86.5235 34.3231 86.5235C35.0042 86.5236 35.6853 86.5255 36.3664 86.5275C36.8407 86.528 37.3151 86.5283 37.7895 86.5286C39.034 86.5295 40.2785 86.5319 41.5231 86.5347C42.7946 86.5372 44.0662 86.5383 45.3377 86.5396C47.8297 86.5422 50.3217 86.5466 52.8136 86.5516C52.8136 84.5929 52.8136 82.6342 52.8136 80.6161C51.6492 80.622 51.6492 80.622 50.4612 80.6279C47.8938 80.6402 45.3263 80.6484 42.7588 80.6546C41.2024 80.6585 39.6461 80.6637 38.0897 80.6721C36.5872 80.6802 35.0847 80.6846 33.5821 80.6865C33.0095 80.6879 32.4368 80.6906 31.8641 80.6946C31.0608 80.7 30.2575 80.7007 29.4542 80.7004C29.2185 80.703 28.9828 80.7057 28.7399 80.7085C27.1244 80.701 25.5986 80.55 24.3582 79.4037C24.1894 79.1546 24.1894 79.1546 24.0172 78.9004C23.9002 78.735 23.7832 78.5695 23.6626 78.399C23.1034 77.3909 23.1043 76.4478 23.1014 75.308C23.1006 75.1479 23.0999 74.9879 23.0991 74.823C23.097 74.2873 23.0966 73.7516 23.0963 73.2158C23.0951 72.8315 23.0939 72.4472 23.0925 72.0628C23.0893 71.0188 23.0877 69.9749 23.0866 68.9309C23.0859 68.2783 23.0849 67.6257 23.0838 66.9732C23.0804 64.9304 23.078 62.8876 23.077 60.8448C23.0759 58.4886 23.0716 56.1324 23.0644 53.7762C23.0591 51.9537 23.0566 50.1313 23.0562 48.3088C23.056 47.2209 23.0545 46.133 23.0501 45.0451C23.046 44.0212 23.0455 42.9974 23.0477 41.9734C23.0479 41.5986 23.0468 41.2237 23.0443 40.8489C23.018 36.5674 23.018 36.5674 24.2109 35.2329C25.7583 33.8472 27.1707 33.8033 29.1453 33.8179C29.4012 33.8178 29.6571 33.8178 29.9207 33.8177C30.7651 33.818 31.6094 33.8219 32.4538 33.8258C33.0398 33.8267 33.6258 33.8274 34.2117 33.8279C35.7531 33.8298 37.2944 33.8346 38.8357 33.8401C40.4089 33.8452 41.9821 33.8474 43.5553 33.8499C46.6414 33.8552 49.7275 33.8637 52.8136 33.8741C52.8039 33.6424 52.8039 33.6424 52.794 33.406C52.7681 32.6965 52.7521 31.9871 52.7363 31.2773C52.7208 30.9129 52.7208 30.9129 52.7049 30.5411C52.6772 28.8745 52.9182 27.7188 54.0502 26.4547C55.6398 25.2027 57.4543 25.3214 59.3983 25.3341ZM57.2652 29.9171C57.2652 31.2229 57.2652 32.5287 57.2652 33.8741C61.3459 33.8741 65.4266 33.8741 69.6309 33.8741C69.6309 32.5683 69.6309 31.2625 69.6309 29.9171C65.5502 29.9171 61.4696 29.9171 57.2652 29.9171ZM27.5877 38.3257C27.5877 50.8125 27.5877 63.2993 27.5877 76.1645C51.2555 76.1645 74.9234 76.1645 99.3084 76.1645C99.3084 63.6777 99.3084 51.1909 99.3084 38.3257C75.6406 38.3257 51.9728 38.3257 27.5877 38.3257ZM57.2652 80.6161C57.2652 84.6968 57.2652 88.7775 57.2652 92.9818C61.3459 92.9818 65.4266 92.9818 69.6309 92.9818C69.6309 88.9011 69.6309 84.8205 69.6309 80.6161C65.5502 80.6161 61.4696 80.6161 57.2652 80.6161ZM27.9278 93.09C27.6749 93.2853 27.6749 93.2853 27.4169 93.4845C26.8938 93.8903 26.3746 94.3007 25.8565 94.713C25.6949 94.8412 25.5332 94.9695 25.3666 95.1017C24.5893 95.7196 23.815 96.341 23.0424 96.9649C21.9218 97.8663 20.7748 98.7322 19.6254 99.5964C18.8095 100.232 18.8095 100.232 17.6952 101.39C47.8921 101.39 78.089 101.39 109.201 101.39C108.202 100.382 108.202 100.382 107.145 99.4708C106.998 99.3537 106.852 99.2365 106.7 99.1158C106.546 98.9942 106.392 98.8726 106.233 98.7472C106.07 98.6177 105.907 98.4881 105.738 98.3545C104.327 97.2372 102.907 96.1334 101.473 95.0452C100.991 94.676 100.515 94.3009 100.038 93.9256C99.6917 93.6573 99.3455 93.389 98.9992 93.1209C98.8416 92.9951 98.684 92.8693 98.5216 92.7398C96.7321 91.367 94.9323 90.887 92.6971 90.919C92.4941 90.9189 92.2911 90.9188 92.082 90.9187C91.4196 90.9192 90.7574 90.925 90.095 90.9308C89.6324 90.9322 89.1699 90.9333 88.7073 90.934C87.4961 90.9368 86.2849 90.9441 85.0738 90.9523C83.8353 90.9599 82.5969 90.9633 81.3584 90.967C78.9331 90.975 76.5078 90.9876 74.0825 91.0033C74.0691 91.2414 74.0558 91.4795 74.042 91.7248C74.0225 92.0369 74.003 92.3491 73.983 92.6707C73.9645 92.9802 73.946 93.2897 73.927 93.6086C73.8013 94.7822 73.6096 95.2961 72.8459 96.1968C71.0978 97.3336 69.5457 97.3308 67.4978 97.3175C67.1759 97.3184 66.8541 97.3194 66.5224 97.3203C65.8439 97.3218 65.1655 97.3197 64.4871 97.315C63.6222 97.3094 62.7577 97.3127 61.8929 97.3186C61.0613 97.323 60.2299 97.3199 59.3983 97.3175C59.0901 97.3195 58.782 97.3215 58.4645 97.3235C56.7141 97.3047 55.5297 97.1589 54.0502 96.1968C53.0783 95.0505 53.0021 94.1616 52.9131 92.6707C52.8937 92.3586 52.8742 92.0464 52.8541 91.7248C52.8408 91.4867 52.8274 91.2486 52.8136 91.0033C50.1434 90.986 47.4733 90.9729 44.8031 90.9648C43.563 90.961 42.323 90.9557 41.083 90.9473C39.8851 90.9392 38.6873 90.9348 37.4894 90.9329C37.0336 90.9315 36.5778 90.9288 36.122 90.9248C35.481 90.9194 34.8401 90.9187 34.1991 90.919C34.0128 90.9164 33.8266 90.9137 33.6347 90.911C31.3769 90.9239 29.6708 91.7037 27.9278 93.09ZM17.2006 105.842C17.2006 108.535 17.2006 111.228 17.2006 114.003C47.7239 114.003 78.2472 114.003 109.695 114.003C109.695 111.31 109.695 108.617 109.695 105.842C79.1722 105.842 48.6489 105.842 17.2006 105.842Z" fill="#505050"/>
<path d="M11.1662 0.113943C11.6358 0.112802 12.1055 0.11123 12.5751 0.109266C13.8618 0.105144 15.1485 0.107174 16.4353 0.110242C17.8244 0.112482 19.2136 0.109024 20.6027 0.106305C23.3226 0.101907 26.0424 0.102855 28.7623 0.105724C30.9729 0.107958 33.1835 0.108261 35.3941 0.107184C35.7087 0.107032 36.0234 0.106881 36.3477 0.106725C36.9869 0.106408 37.6262 0.106088 38.2655 0.105762C44.0886 0.103022 49.9116 0.105863 55.7346 0.111048C61.0479 0.115742 66.3612 0.115322 71.6745 0.110592C77.647 0.105292 83.6195 0.103214 89.592 0.106251C90.2289 0.106566 90.8659 0.106877 91.5028 0.107184C91.9729 0.107413 91.9729 0.107413 92.4524 0.107646C94.6602 0.1085 96.868 0.107059 99.0758 0.104731C101.767 0.101956 104.457 0.102709 107.148 0.107977C108.521 0.110575 109.894 0.111596 111.266 0.108324C112.523 0.105372 113.78 0.107002 115.037 0.112258C115.492 0.113362 115.946 0.112805 116.4 0.110403C119.531 0.0951213 122.006 0.289952 124.367 2.53686C126.879 5.09616 126.904 7.8701 126.886 11.2694C126.887 11.739 126.889 12.2086 126.891 12.6782C126.895 13.965 126.893 15.2517 126.89 16.5384C126.888 17.9276 126.891 19.3167 126.894 20.7059C126.898 23.4257 126.897 26.1456 126.894 28.8654C126.892 31.076 126.892 33.2866 126.893 35.4972C126.893 35.8119 126.893 36.1266 126.893 36.4508C126.894 37.0901 126.894 37.7294 126.894 38.3687C126.897 44.1917 126.894 50.0147 126.889 55.8378C126.884 61.1511 126.885 66.4643 126.889 71.7776C126.895 77.7501 126.897 83.7226 126.894 89.6952C126.893 90.3321 126.893 90.969 126.893 91.6059C126.893 91.9193 126.893 92.2327 126.892 92.5556C126.892 94.7634 126.893 96.9712 126.895 99.179C126.898 101.87 126.897 104.56 126.892 107.251C126.889 108.624 126.888 109.997 126.892 111.369C126.895 112.626 126.893 113.883 126.888 115.14C126.887 115.595 126.887 116.049 126.89 116.503C126.905 119.634 126.71 122.109 124.463 124.47C121.904 126.982 119.13 127.007 115.731 126.989C115.261 126.99 114.791 126.992 114.322 126.994C113.035 126.998 111.748 126.996 110.462 126.993C109.072 126.991 107.683 126.994 106.294 126.997C103.574 127.001 100.854 127 98.1346 126.997C95.924 126.995 93.7134 126.995 91.5028 126.996C91.1881 126.996 90.8734 126.996 90.5492 126.996C89.9099 126.997 89.2706 126.997 88.6313 126.997C82.8083 127 76.9853 126.997 71.1622 126.992C65.849 126.987 60.5357 126.988 55.2224 126.993C49.2499 126.998 43.2774 127 37.3049 126.997C36.6679 126.997 36.031 126.996 35.3941 126.996C35.0807 126.996 34.7673 126.996 34.4444 126.996C32.2366 126.995 30.0288 126.996 27.821 126.998C25.1302 127.001 22.4395 127 19.7487 126.995C18.376 126.993 17.0033 126.992 15.6306 126.995C14.3736 126.998 13.1166 126.996 11.8596 126.991C11.4053 126.99 10.951 126.99 10.4966 126.993C7.36556 127.008 4.891 126.813 2.53032 124.566C0.0177684 122.007 -0.00717792 119.233 0.0107933 115.834C0.00965254 115.364 0.00808069 114.895 0.00611672 114.425C0.00199433 113.138 0.00402482 111.851 0.00709221 110.565C0.00933242 109.176 0.00587491 107.786 0.00315531 106.397C-0.00124229 103.677 -0.000294012 100.958 0.00257416 98.2377C0.00480874 96.0271 0.00511116 93.8165 0.00403458 91.6059C0.0038072 91.1339 0.00380711 91.1339 0.00357513 90.6523C0.00325884 90.0131 0.00293796 89.3738 0.00261284 88.7345C-0.000127295 82.9114 0.00271368 77.0884 0.0078979 71.2654C0.0125923 65.9521 0.0121726 60.6388 0.00744222 55.3255C0.00214267 49.353 6.41449e-05 43.3805 0.00310154 37.408C0.00341666 36.7711 0.00372777 36.1341 0.00403458 35.4972C0.0041872 35.1838 0.00433962 34.8705 0.00449686 34.5476C0.00535081 32.3398 0.00390988 30.132 0.00158168 27.9242C-0.00119345 25.2334 -0.00044078 22.5427 0.00482706 19.8519C0.00742599 18.4792 0.00844661 17.1065 0.00517424 15.7337C0.00222302 14.4767 0.00385237 13.2198 0.00910925 11.9627C0.0102128 11.5084 0.00965538 11.0541 0.00725354 10.5998C-0.00802796 7.4687 0.186802 4.99415 2.43371 2.63347C4.99301 0.120918 7.76695 0.0959715 11.1662 0.113943ZM5.25269 6.32963C3.17763 9.25009 4.58804 13.4742 4.58804 17.0568C43.4359 17.0568 82.2838 17.0568 122.309 17.0568C123.201 8.45194 123.201 8.45194 121.32 5.92775C120.093 4.84687 119.377 4.65471 117.778 4.65799C117.588 4.65741 117.399 4.65683 117.203 4.65623C116.561 4.65457 115.919 4.65469 115.276 4.65479C114.814 4.65397 114.351 4.65305 113.889 4.65203C112.613 4.64955 111.336 4.64864 110.06 4.64798C108.686 4.64702 107.312 4.64465 105.937 4.64249C102.616 4.63759 99.2942 4.63511 95.9726 4.63291C94.4098 4.63183 92.8471 4.6305 91.2843 4.6292C86.0916 4.625 80.8989 4.6214 75.7062 4.61962C75.3703 4.6195 75.0343 4.61938 74.6984 4.61927C74.4485 4.61918 74.4485 4.61918 74.1936 4.61909C73.3495 4.61879 72.5055 4.61849 71.6614 4.61819C71.4102 4.6181 71.4102 4.6181 71.1538 4.61801C65.7217 4.61606 60.2896 4.61026 54.8575 4.60222C49.1167 4.59374 43.3758 4.58887 37.635 4.58805C34.5047 4.58752 31.3743 4.58534 28.244 4.57903C25.5787 4.57368 22.9134 4.57167 20.2481 4.57408C18.8875 4.57521 17.527 4.57472 16.1664 4.56993C14.9216 4.5656 13.6768 4.5658 12.432 4.56966C11.9809 4.57025 11.5299 4.56916 11.0789 4.56624C10.4669 4.56253 9.85519 4.56488 9.2432 4.56877C8.97906 4.56498 8.97905 4.56498 8.70957 4.56111C7.15414 4.58278 6.25964 5.18661 5.25269 6.32963ZM4.58804 21.5084C4.56763 37.678 4.54723 53.8476 4.52621 70.5072C4.5172 75.6196 4.5082 80.7319 4.49892 85.9992C4.49561 90.5676 4.49561 90.5676 4.49362 95.136C4.4927 97.1764 4.48906 99.2169 4.4836 101.257C4.47731 103.609 4.47443 105.961 4.47581 108.313C4.47641 109.516 4.47545 110.72 4.4701 111.924C4.46531 113.011 4.46504 114.099 4.46844 115.187C4.46886 115.581 4.46759 115.975 4.4645 116.368C4.46053 116.904 4.46266 117.44 4.46631 117.976C4.46594 118.273 4.46556 118.571 4.46517 118.878C4.65735 120.151 5.27701 120.911 6.22648 121.747C7.21459 122.449 7.93949 122.448 9.11871 122.445C9.30841 122.446 9.4981 122.446 9.69355 122.447C10.3359 122.449 10.9782 122.448 11.6206 122.448C12.0831 122.449 12.5456 122.45 13.0081 122.451C14.2842 122.454 15.5604 122.455 16.8366 122.455C18.2109 122.456 19.5853 122.459 20.9596 122.461C24.2811 122.466 27.6027 122.468 30.9242 122.47C32.487 122.471 34.0498 122.473 35.6126 122.474C40.8053 122.478 45.998 122.482 51.1907 122.484C51.5266 122.484 51.8625 122.484 52.1984 122.484C52.365 122.484 52.5316 122.484 52.7033 122.484C53.5473 122.484 54.3914 122.485 55.2354 122.485C55.4867 122.485 55.4867 122.485 55.743 122.485C61.1751 122.487 66.6072 122.493 72.0393 122.501C77.7802 122.509 83.521 122.514 89.2619 122.515C92.3922 122.516 95.5225 122.518 98.6528 122.524C101.318 122.529 103.983 122.531 106.649 122.529C108.009 122.528 109.37 122.528 110.73 122.533C111.975 122.538 113.22 122.537 114.465 122.533C114.916 122.533 115.367 122.534 115.818 122.537C116.43 122.541 117.042 122.538 117.654 122.534C117.918 122.538 117.918 122.538 118.187 122.542C119.424 122.525 120.116 122.191 121.072 121.423C122.111 120.243 122.34 119.66 122.339 118.097C122.34 117.931 122.34 117.764 122.34 117.593C122.341 117.03 122.34 116.467 122.339 115.905C122.339 115.5 122.339 115.096 122.339 114.691C122.34 113.573 122.339 112.456 122.338 111.338C122.336 110.116 122.337 108.895 122.337 107.673C122.337 105.299 122.336 102.925 122.334 100.552C122.333 97.8072 122.332 95.0628 122.332 92.3184C122.331 85.0686 122.327 77.8188 122.324 70.5691C122.319 54.3791 122.314 38.1891 122.309 21.5084C83.461 21.5084 44.6131 21.5084 4.58804 21.5084Z" fill="#505050"/>
<path d="M86.7265 46.4252C87.1005 46.4175 87.1005 46.4175 87.482 46.4097C89.7069 46.3982 91.648 46.7833 93.3901 48.2384C94.7854 49.6244 95.2445 51.3467 95.2697 53.263C95.2664 53.5091 95.2631 53.7552 95.2598 54.0088C95.2604 54.2696 95.261 54.5304 95.2616 54.7991C95.2613 55.3465 95.2581 55.8939 95.2519 56.4413C95.2434 57.2756 95.2468 58.1092 95.2516 58.9435C95.2499 59.478 95.2475 60.0126 95.2443 60.5471C95.2455 60.7942 95.2468 61.0413 95.248 61.2959C95.2152 63.2586 94.7247 64.824 93.2958 66.2257C91.4594 67.9483 89.2415 68.05 86.8347 68.065C86.6318 68.0701 86.4289 68.0752 86.2198 68.0805C84.8725 68.0891 83.9167 67.9362 82.7386 67.2613C82.131 66.3963 82.1783 65.5588 82.1721 64.526C82.1705 64.3521 82.1688 64.1783 82.1671 63.9992C82.1624 63.4255 82.1614 62.852 82.1609 62.2783C82.1593 61.8785 82.1576 61.4787 82.1559 61.0789C82.1529 60.2411 82.152 59.4033 82.1523 58.5655C82.1524 57.4938 82.1456 56.4223 82.1371 55.3506C82.1316 54.5248 82.1306 53.6991 82.1309 52.8733C82.1303 52.4783 82.1281 52.0833 82.1243 51.6884C82.1194 51.1349 82.1209 50.5817 82.1238 50.0283C82.1231 49.7138 82.1224 49.3994 82.1217 49.0754C82.2669 48.0578 82.5815 47.5214 83.2332 46.7343C84.3793 46.3523 85.526 46.4312 86.7265 46.4252ZM86.6956 50.9386C86.6956 55.1009 86.6956 59.2632 86.6956 63.5516C88.7007 63.622 88.7007 63.622 90.3092 62.7301C90.7314 62.2197 90.7475 61.9711 90.7525 61.3157C90.7572 61.0161 90.7572 61.0161 90.762 60.7104C90.7613 60.4955 90.7606 60.2806 90.7598 60.0593C90.7618 59.7268 90.7618 59.7268 90.7638 59.3875C90.7654 58.9188 90.765 58.45 90.7629 57.9812C90.7608 57.2641 90.7679 56.5474 90.7758 55.8303C90.7762 55.3748 90.776 54.9193 90.7753 54.4638C90.7781 54.2495 90.7809 54.0351 90.7837 53.8142C90.7764 52.5937 90.7764 52.5937 90.1812 51.553C88.8745 50.6268 88.8223 50.9386 86.6956 50.9386Z" fill="#505050"/>
<path d="M58.2548 47.229C60.0254 48.416 60.8502 49.6602 61.4699 51.6806C61.5975 52.5502 61.6091 53.4005 61.6013 54.2783C61.6022 54.5166 61.6032 54.7548 61.6041 55.0003C61.6048 55.5001 61.603 55.9999 61.5988 56.4997C61.5935 57.2596 61.5988 58.0189 61.6051 58.7787C61.6045 59.2674 61.6032 59.7561 61.6013 60.2447C61.6033 60.4689 61.6053 60.6931 61.6073 60.9241C61.5765 63.044 60.8776 64.8257 59.4324 66.3947C57.9625 67.6495 56.0812 68.1001 54.1886 67.9578C52.2748 67.6744 51.0791 66.8029 49.7689 65.4219C48.6633 63.743 48.4964 62.3977 48.5024 60.4235C48.5011 60.1732 48.4998 59.9229 48.4985 59.6651C48.4969 59.1375 48.4972 58.61 48.4993 58.0825C48.5014 57.2802 48.4943 56.4784 48.4865 55.6762C48.4861 55.1616 48.4862 54.647 48.4869 54.1325C48.4842 53.8951 48.4814 53.6578 48.4785 53.4133C48.4993 51.3842 49.0261 49.813 50.3563 48.2646C52.5389 46.2506 55.6393 45.9123 58.2548 47.229ZM53.3765 51.7627C52.7675 52.5595 52.8602 53.4505 52.8816 54.4165C52.8813 54.6314 52.8811 54.8463 52.8808 55.0677C52.882 55.5208 52.8868 55.974 52.895 56.4271C52.9066 57.1193 52.9051 57.8106 52.9019 58.5029C52.9046 58.9441 52.9081 59.3853 52.9125 59.8264C52.912 60.0326 52.9116 60.2387 52.9111 60.4511C52.935 61.4328 52.9951 61.9579 53.512 62.8164C54.0381 63.3793 54.0381 63.3793 54.9006 63.4588C56.0265 63.2613 56.3253 62.9691 57.0183 62.0677C57.1932 61.3367 57.186 60.6295 57.1738 59.8805C57.1744 59.6711 57.175 59.4617 57.1756 59.246C57.1754 58.8045 57.1721 58.363 57.1659 57.9215C57.1574 57.2472 57.1608 56.5737 57.1656 55.8994C57.1639 55.4695 57.1615 55.0396 57.1583 54.6097C57.1602 54.3086 57.1602 54.3086 57.162 54.0015C57.1419 53.0276 57.0856 52.5307 56.5593 51.6849C56.0493 51.143 56.0493 51.143 55.318 50.9077C54.4388 50.9429 54.0311 51.1848 53.3765 51.7627Z" fill="#505050"/>
<path d="M42.2012 47.7941C43.2318 48.5746 43.7558 49.3995 44.1005 50.6459C44.1926 51.5037 43.9147 51.989 43.4165 52.6698C42.489 53.2882 42.0418 53.297 40.9434 53.1644C40.2942 52.5925 40.2942 52.5925 39.7069 51.9279C39.0156 51.4094 38.6891 51.1755 37.8211 51.2168C37.1581 51.4611 36.8711 51.5762 36.4918 52.1752C36.3498 53.2996 36.3498 53.2996 36.7662 54.3112C37.434 54.7927 38.0629 54.8433 38.8722 54.9729C40.9378 55.3865 42.4524 56.0643 43.6484 57.8479C44.5537 59.4899 44.9803 61.1444 44.4657 62.9854C43.8078 64.9178 43.0575 66.1957 41.2728 67.2419C39.3828 68.1157 37.4624 68.1734 35.5025 67.5086C34.1755 66.832 33.102 65.7871 32.2875 64.5408C32.0832 63.445 32.1436 63.0303 32.7512 62.0986C33.3431 61.5067 33.6052 61.3574 34.4206 61.2021C35.3741 61.3434 35.5546 61.5418 36.229 62.1913C36.954 62.8774 37.1521 63.0436 38.1766 63.2115C38.9447 63.1133 38.9447 63.1133 39.4286 62.7478C39.7529 62.2433 39.9012 61.9261 39.9542 61.3257C39.8291 60.6628 39.8291 60.6628 39.4595 60.0892C38.6138 59.6758 37.8375 59.5219 36.9091 59.4091C34.7596 59.0335 33.5648 57.8111 32.3194 56.0906C31.4365 54.658 31.6527 52.8021 31.7929 51.1859C32.2427 49.5714 33.078 48.4458 34.4708 47.5217C37.1772 46.0467 39.5934 46.1874 42.2012 47.7941Z" fill="#505050"/>
<path d="M70.8679 46.7343C71.5775 47.2946 71.8173 47.6042 72.1044 48.4655C72.1264 48.9548 72.1335 49.4448 72.1325 49.9346C72.1325 50.2366 72.1325 50.5386 72.1325 50.8497C72.1312 51.1758 72.1299 51.502 72.1286 51.838C72.1281 52.1752 72.1278 52.5124 72.1275 52.8496C72.1266 53.7363 72.1242 54.623 72.1214 55.5098C72.1189 56.4149 72.1178 57.3201 72.1165 58.2252C72.1139 60.0007 72.1096 61.7761 72.1044 63.5516C72.2566 63.5451 72.4087 63.5386 72.5655 63.532C73.2567 63.5062 73.9479 63.4902 74.6394 63.4743C74.8788 63.4639 75.1182 63.4536 75.3649 63.4429C77.1382 63.4123 77.1382 63.4123 77.9511 64.1206C78.3935 64.9991 78.4261 65.5471 78.2872 66.5193C77.5995 67.6492 77.5995 67.6492 76.8632 67.9098C75.5882 68.1246 74.2748 68.0489 72.9855 68.0496C72.6818 68.0526 72.3782 68.0556 72.0653 68.0588C71.7725 68.0592 71.4797 68.0597 71.178 68.0602C70.911 68.0612 70.644 68.0622 70.369 68.0633C69.4364 67.9873 68.7646 67.7632 67.9945 67.233C67.475 66.524 67.5475 65.796 67.5529 64.95C67.5512 64.7658 67.5495 64.5815 67.5477 64.3917C67.5432 63.7822 67.5442 63.1728 67.5456 62.5633C67.5444 62.1398 67.5431 61.7163 67.5416 61.2927C67.5394 60.4048 67.54 59.5169 67.5425 58.6289C67.5453 57.4909 67.5403 56.3531 67.5331 55.2151C67.5286 54.3403 67.5286 53.4656 67.5301 52.5909C67.5301 52.1713 67.5286 51.7517 67.5255 51.3322C67.5219 50.7454 67.5245 50.159 67.5287 49.5722C67.5263 49.3989 67.5239 49.2255 67.5215 49.0469C67.5342 48.2106 67.5978 47.793 68.1243 47.1289C69.111 46.377 69.6568 46.4629 70.8679 46.7343Z" fill="#505050"/>
<path d="M103.956 8.51627C104.244 8.51235 104.532 8.50844 104.829 8.5044C105.139 8.50563 105.449 8.50686 105.769 8.50812C106.248 8.50582 106.248 8.50582 106.737 8.50347C107.413 8.5009 108.089 8.50203 108.765 8.50564C109.629 8.50989 110.493 8.50409 111.358 8.49538C112.184 8.48863 113.011 8.49112 113.838 8.49266C114.302 8.48774 114.302 8.48774 114.776 8.48273C117.163 8.50834 117.163 8.50834 117.929 9.24378C118.588 10.2419 118.52 10.6849 118.352 11.8633C117.806 12.5974 117.49 12.8101 116.621 13.0998C116.184 13.1252 115.745 13.1365 115.307 13.1397C115.039 13.1421 114.771 13.1444 114.495 13.1469C114.205 13.1479 113.915 13.149 113.616 13.1501C113.318 13.1515 113.02 13.1529 112.713 13.1543C112.083 13.1567 111.452 13.1583 110.821 13.1592C109.856 13.1616 108.891 13.1693 107.926 13.1771C107.314 13.1787 106.701 13.18 106.089 13.181C105.655 13.1856 105.655 13.1856 105.213 13.1902C104.944 13.1895 104.674 13.1887 104.396 13.188C104.159 13.1889 103.922 13.1898 103.679 13.1907C102.727 13.0597 102.037 12.6823 101.442 11.9251C101.209 11.0864 101.325 10.4759 101.535 9.63745C102.272 8.68543 102.769 8.52345 103.956 8.51627Z" fill="#505050"/>
<path d="M32.9208 8.50905C33.1075 8.50634 33.2941 8.50363 33.4864 8.50084C34.3708 8.51253 34.903 8.5696 35.6181 9.10705C36.1174 9.80635 36.2269 10.2618 36.2441 11.1213C35.9642 11.8872 35.7668 12.4269 35.079 12.8902C34.3398 13.1639 33.708 13.1743 32.9208 13.1771C32.5081 13.1833 32.5081 13.1833 32.0871 13.1896C31.2117 13.09 30.7607 12.8846 30.0612 12.3579C29.4429 11.4303 29.4341 10.9832 29.5666 9.88473C30.5545 8.55015 31.3708 8.45982 32.9208 8.50905Z" fill="#505050"/>
<path d="M22.2707 8.52453C22.5524 8.51879 22.5524 8.51879 22.8397 8.51294C23.7577 8.51937 24.229 8.54254 24.9844 9.09741C25.5192 9.86208 25.5932 10.4414 25.6094 11.3686C25.3134 12.0697 25.083 12.4645 24.4444 12.8815C23.7045 13.1668 23.0779 13.1744 22.2862 13.1771C21.8735 13.1833 21.8735 13.1833 21.4524 13.1897C20.584 13.0908 20.1268 12.8695 19.4266 12.3579C18.907 11.6966 18.9324 11.358 18.9629 10.503C19.4393 8.59744 20.5292 8.48905 22.2707 8.52453Z" fill="#505050"/>
<path d="M11.7605 8.49362C11.9332 8.48883 12.106 8.48405 12.2841 8.47913C13.2478 8.48822 13.704 8.62124 14.4722 9.21334C15.2263 10.2193 15.1512 10.6333 14.9755 11.8633C14.4296 12.5974 14.1134 12.8101 13.2443 13.0998C12.7609 13.1356 12.2761 13.1544 11.7914 13.1616C11.4098 13.1712 11.4098 13.1712 11.0205 13.181C9.93985 13.0631 9.30287 12.6207 8.5454 11.8633C8.34867 10.1489 8.34867 10.1489 9.04678 9.2114C9.95802 8.5133 10.6564 8.46306 11.7605 8.49362Z" fill="#505050"/>
</svg>
