<svg width="157" height="115" viewBox="0 0 157 115" fill="none" xmlns="http://www.w3.org/2000/svg">
<g opacity="0.05" clip-path="url(#clip0_7_2596)">
<path d="M90.2745 99.3613L153.075 99.3613C155.243 99.3613 157 97.6041 157 95.4361L157 32.6358C157 30.469 155.243 28.7118 153.075 28.7118L102.127 28.7118C102.05 5.16157 119.425 -10.5382 137.375 -10.5382C139.543 -10.5382 141.3 -12.2954 141.3 -14.4634L141.3 -22.3139C141.3 -24.482 139.543 -26.2391 137.375 -26.2391C113.837 -26.2391 86.3505 -10.5382 86.3505 28.7118L86.3505 95.4361C86.3505 97.6041 88.1077 99.3613 90.2745 99.3613Z" fill="black"/>
<path d="M3.92514 99.3613L66.7254 99.3613C68.8922 99.3613 70.6494 97.6041 70.6494 95.4361L70.6494 32.6358C70.6494 30.469 68.8922 28.7118 66.7254 28.7118L15.7763 28.7118C15.6996 5.16157 33.0752 -10.5382 51.0244 -10.5382C53.1925 -10.5382 54.9496 -12.2954 54.9496 -14.4634L54.9496 -22.3139C54.9496 -24.482 53.1924 -26.2391 51.0244 -26.2391C27.4861 -26.2391 -0.00010879 -10.5382 -0.000105359 28.7118L-9.95253e-05 95.4361C-9.93357e-05 97.6041 1.7571 99.3613 3.92514 99.3613Z" fill="black"/>
</g>
<defs>
<clipPath id="clip0_7_2596">
<rect width="157" height="157" fill="white" transform="translate(157 115) rotate(180)"/>
</clipPath>
</defs>
</svg>
