<svg width="157" height="104" viewBox="0 0 157 104" fill="none" xmlns="http://www.w3.org/2000/svg">
<g opacity="0.05" clip-path="url(#clip0_7_2599)">
<path d="M66.7255 15.6387L3.92524 15.6387C1.75719 15.6387 -3.07238e-07 17.3959 -6.86311e-07 19.5639L-1.16667e-05 82.3642C-1.20455e-05 84.531 1.75718 86.2882 3.92523 86.2882L54.8731 86.2882C54.9497 109.838 37.5754 125.538 19.625 125.538C17.4569 125.538 15.6997 127.295 15.6997 129.463L15.6997 137.314C15.6997 139.482 17.4569 141.239 19.625 141.239C43.1632 141.239 70.6495 125.538 70.6495 86.2882L70.6495 19.5639C70.6495 17.3959 68.8923 15.6387 66.7255 15.6387Z" fill="black"/>
<path d="M153.075 15.6387L90.2746 15.6387C88.1078 15.6387 86.3506 17.3959 86.3506 19.5639L86.3506 82.3642C86.3506 84.531 88.1078 86.2882 90.2746 86.2882L141.224 86.2882C141.3 109.838 123.925 125.538 105.976 125.538C103.808 125.538 102.05 127.295 102.05 129.463L102.05 137.314C102.05 139.482 103.808 141.239 105.976 141.239C129.514 141.239 157 125.538 157 86.2882L157 19.5639C157 17.3959 155.243 15.6387 153.075 15.6387Z" fill="black"/>
</g>
<defs>
<clipPath id="clip0_7_2599">
<rect width="157" height="157" fill="white"/>
</clipPath>
</defs>
</svg>
