<svg viewBox="0 0 122 22" x="0" y="0" fill="none" xmlns="http://www.w3.org/2000/svg"><g id="Group 603" xmlns="http://www.w3.org/2000/svg">
<path id="Vector_140" d="M15.162,1.75c0.041,0.02 0.041,0.02 0.083,0.05c1.149,0.62 2.211,1.51 3.013,2.55c0.031,0.04 0.063,0.07 0.095,0.11c0.324,0.41 0.591,0.84 0.854,1.29c0.017,0.03 0.033,0.05 0.05,0.08c0.524,0.89 0.848,1.91 1.055,2.91c0.008,0.04 0.016,0.08 0.024,0.13c0.123,0.63 0.167,1.25 0.164,1.89c0,0.05 0,0.05 0,0.11c-0.002,0.58 -0.03,1.15 -0.137,1.72c-0.007,0.04 -0.014,0.08 -0.021,0.12c-0.321,1.7 -1.007,3.29 -2.126,4.62c-0.017,0.02 -0.034,0.04 -0.051,0.06c-0.467,0.57 -0.975,1.1 -1.558,1.55c-0.061,0.05 -0.061,0.05 -0.123,0.1c-1.091,0.86 -2.808,1.96 -4.253,1.96c0,-2.43 0,-4.87 0,-7.38c0.654,0 1.307,0 1.981,0c0.045,-0.3 0.045,-0.3 0.09,-0.62c0.071,-0.48 0.142,-0.95 0.217,-1.43c0.009,-0.06 0.018,-0.12 0.026,-0.18c0.013,-0.08 0.025,-0.16 0.038,-0.24c0.007,-0.04 0.014,-0.09 0.022,-0.14c0.02,-0.11 0.02,-0.11 0.061,-0.23c-0.994,0 -1.989,0 -3.013,0c-0.005,-0.39 -0.009,-0.77 -0.013,-1.17c-0.003,-0.18 -0.003,-0.18 -0.006,-0.36c0,-0.1 -0.001,-0.2 -0.001,-0.29c-0.001,-0.05 -0.003,-0.1 -0.004,-0.15c0,-0.45 0.12,-0.85 0.436,-1.18c0.395,-0.33 0.853,-0.37 1.346,-0.36c0.044,0 0.087,0 0.132,0c0.161,0 0.322,0 0.483,0c0.361,0 0.722,0 1.094,0c0,-0.83 0,-1.66 0,-2.51c-0.286,-0.02 -0.286,-0.02 -0.578,-0.04c-0.18,-0.02 -0.18,-0.02 -0.262,-0.04c-0.423,-0.05 -0.846,-0.05 -1.271,-0.06c-0.071,0 -0.141,0 -0.211,0c-1.144,-0.01 -2.168,0.29 -3.011,1.09c-0.748,0.79 -0.958,1.87 -0.963,2.91c0,0.07 -0.001,0.13 -0.002,0.19c-0.002,0.16 -0.003,0.33 -0.004,0.49c-0.002,0.2 -0.004,0.39 -0.006,0.59c-0.003,0.3 -0.005,0.59 -0.008,0.89c-0.763,0 -1.525,0 -2.311,0c0,0.94 0,1.87 0,2.84c0.762,0 1.525,0 2.311,0c0,2.44 0,4.87 0,7.38c-0.38,-0.05 -0.732,-0.11 -1.099,-0.21c-0.046,-0.02 -0.092,-0.03 -0.14,-0.04c-1.524,-0.43 -2.902,-1.13 -4.086,-2.18c-0.022,-0.02 -0.044,-0.04 -0.067,-0.06c-2.02,-1.79 -3.188,-4.31 -3.393,-6.99c-0.155,-2.65 0.64,-5.36 2.412,-7.38c0.07,-0.07 0.14,-0.15 0.211,-0.23c0.079,-0.08 0.154,-0.17 0.228,-0.26c0.764,-0.87 1.777,-1.53 2.797,-2.06c0.027,-0.02 0.055,-0.03 0.083,-0.05c2.891,-1.51 6.583,-1.32 9.412,0.21z" fill="currentColor"/>
<path id="Vector_141" d="M57.772,0.71c0.037,0.01 0.073,0.01 0.11,0.02c1.494,0.3 2.933,0.94 4.124,1.89c-0.023,0.16 -0.107,0.26 -0.207,0.39c-0.018,0.02 -0.035,0.04 -0.053,0.06c-0.039,0.05 -0.078,0.1 -0.117,0.15c-0.112,0.14 -0.223,0.28 -0.334,0.43c-0.024,0.03 -0.048,0.06 -0.072,0.09c-0.227,0.29 -0.451,0.58 -0.676,0.88c-0.12,0.15 -0.24,0.31 -0.361,0.47c-0.07,0.09 -0.139,0.18 -0.208,0.27c-0.027,0.03 -0.027,0.03 -0.055,0.07c-0.035,0.05 -0.07,0.09 -0.105,0.14c-0.12,0.16 -0.12,0.16 -0.208,0.2c-0.036,-0.03 -0.071,-0.05 -0.108,-0.08c-1.517,-1.04 -3.226,-1.41 -5.045,-1.08c-0.231,0.05 -0.455,0.12 -0.679,0.2c-0.044,0.02 -0.088,0.03 -0.134,0.05c-0.805,0.29 -1.63,0.74 -2.211,1.38c-0.051,0.05 -0.051,0.05 -0.131,0.05c-0.011,0.02 -0.021,0.05 -0.032,0.07c-0.049,0.09 -0.093,0.13 -0.168,0.2c-1.055,1.03 -1.568,2.65 -1.609,4.09c-0.008,0.71 0.095,1.42 0.331,2.09c0.015,0.05 0.031,0.09 0.046,0.14c0.293,0.8 0.746,1.62 1.385,2.2c0.047,0.05 0.047,0.05 0.047,0.13c0.024,0.01 0.048,0.02 0.073,0.03c0.088,0.05 0.135,0.1 0.202,0.17c1.039,1.06 2.681,1.57 4.131,1.61c1.73,0.01 3.299,-0.68 4.528,-1.87c0.046,-0.05 0.046,-0.05 0.093,-0.1c0.029,-0.02 0.029,-0.02 0.059,-0.05c0.652,-0.61 1.039,-1.51 1.378,-2.3c-1.977,0 -3.954,0 -5.991,0c0,-1.29 0,-2.58 0,-3.9c3.374,0 6.749,0 10.225,0c0,3.28 0,3.28 -0.207,4.2c-0.008,0.04 -0.017,0.07 -0.025,0.11c-0.348,1.49 -1.043,2.87 -2.005,4.05c-0.017,0.03 -0.035,0.05 -0.053,0.07c-0.458,0.56 -0.968,1.09 -1.544,1.53c-0.037,0.03 -0.075,0.06 -0.113,0.09c-1.288,1.03 -2.864,1.69 -4.48,1.98c-0.034,0.01 -0.067,0.01 -0.101,0.02c-1.107,0.21 -2.39,0.2 -3.494,-0.02c-0.036,-0.01 -0.073,-0.01 -0.11,-0.02c-1.663,-0.31 -3.211,-1.03 -4.523,-2.09c-0.022,-0.02 -0.043,-0.04 -0.066,-0.05c-0.562,-0.46 -1.09,-0.97 -1.532,-1.55c-0.03,-0.03 -0.06,-0.07 -0.091,-0.11c-1.033,-1.28 -1.691,-2.85 -1.985,-4.47c-0.007,-0.03 -0.014,-0.06 -0.02,-0.1c-0.212,-1.1 -0.197,-2.38 0.02,-3.48c0.006,-0.04 0.013,-0.08 0.02,-0.11c0.306,-1.66 1.034,-3.21 2.096,-4.52c0.018,-0.02 0.036,-0.04 0.054,-0.06c0.458,-0.56 0.968,-1.09 1.544,-1.53c0.037,-0.03 0.074,-0.06 0.113,-0.09c1.288,-1.03 2.863,-1.69 4.48,-1.98c0.05,-0.01 0.05,-0.01 0.101,-0.02c1.18,-0.23 2.521,-0.19 3.693,0.06z" fill="currentColor"/>
<path id="Vector_142" d="M100.386,0c0.149,0 0.298,0 0.447,0c0.357,0 0.717,0 1.077,0c0.29,0 0.58,0 0.87,0c0.07,0 0.07,0 0.13,0c0.09,0 0.17,0 0.26,0c0.79,0 1.59,0 2.38,0c0.68,0 1.36,0 2.04,0c0.79,0 1.58,0 2.37,0c0.09,0 0.17,0 0.26,0c0.06,0 0.06,0 0.12,0c0.3,0 0.59,0 0.88,0c0.39,0 0.78,0 1.18,0c0.14,0 0.28,0 0.42,0c1.26,0 2.53,0 3.78,0.15c0.1,0.01 0.1,0.01 0.2,0.02c1.51,0.19 3.07,0.59 4.09,1.8c0.42,0.57 0.66,1.19 0.83,1.87c0.01,0.05 0.02,0.09 0.04,0.14c0.28,1.23 0.24,2.51 0.23,3.77c0,0.21 0.01,0.42 0.01,0.63c0,0.5 0,1 0,1.49c0,0.51 0,1.02 0,1.53c0,0.44 0,0.88 0,1.32c0,0.26 0,0.52 0,0.78c0.01,2.22 -0.03,4.57 -1.41,6.43c-0.03,0.03 -0.05,0.07 -0.08,0.1c-1,1.3 -2.76,1.65 -4.28,1.84c-0.43,0.05 -0.86,0.08 -1.3,0.09c-0.06,0.01 -0.13,0.01 -0.2,0.01c-0.71,0.03 -1.43,0.03 -2.15,0.03c-0.15,0 -0.29,0 -0.44,0c-0.35,0 -0.71,0 -1.06,0c-0.29,0 -0.58,0 -0.86,0c-0.04,0 -0.09,0 -0.13,0c-0.08,0 -0.17,0 -0.25,0c-0.78,0 -1.57,0 -2.35,0c-0.67,0 -1.34,0 -2.01,0c-0.78,0 -1.56,0 -2.34,0c-0.08,0 -0.17,0 -0.25,0c-0.04,0 -0.08,0 -0.13,0c-0.28,0 -0.57,0 -0.86,0c-0.38,0 -0.77,0 -1.158,0c-0.141,0 -0.282,0 -0.423,0c-5.705,0 -5.705,0 -7.568,-1.85c-0.051,-0.06 -0.102,-0.11 -0.154,-0.16c-0.062,-0.06 -0.062,-0.06 -0.124,-0.13c-1.571,-1.68 -1.468,-4.38 -1.466,-6.52c0,-0.22 -0.001,-0.44 -0.001,-0.65c-0.001,-0.52 -0.001,-1.03 0,-1.55c0,-0.53 -0.001,-1.05 -0.002,-1.58c-0.001,-0.45 -0.001,-0.91 -0.001,-1.37c0,-0.27 0,-0.54 -0.001,-0.81c-0.012,-4.25 -0.012,-4.25 1.331,-5.65c1.482,-1.44 3.69,-1.62 5.652,-1.69c0.068,-0.01 0.136,-0.01 0.206,-0.01c0.732,-0.03 1.463,-0.03 2.195,-0.03zM103.05,7.05c-0.07,0.15 -0.06,0.25 -0.06,0.41c0,0.07 -0.01,0.13 -0.01,0.19c0,0.07 0,0.14 0,0.21c0,0.07 0,0.14 0,0.21c0,0.24 0,0.47 0,0.71c0,0.08 0,0.16 0,0.24c0,0.38 0,0.77 0,1.15c0,0.44 -0.01,0.88 -0.01,1.32c0,0.34 0,0.68 0,1.02c0,0.2 0,0.41 0,0.61c0,0.23 0,0.45 0,0.68c0,0.07 -0.01,0.14 -0.01,0.2c0.01,0.39 0.04,0.63 0.28,0.95c0.25,0.21 0.45,0.3 0.78,0.3c0.38,-0.09 0.72,-0.26 1.06,-0.45c0.1,-0.05 0.2,-0.11 0.3,-0.16c0.06,-0.03 0.11,-0.06 0.16,-0.09c0.31,-0.16 0.62,-0.32 0.93,-0.48c0.49,-0.26 0.97,-0.51 1.46,-0.77c0.35,-0.19 0.7,-0.37 1.06,-0.55c0.34,-0.18 0.68,-0.36 1.02,-0.54c0.08,-0.04 0.08,-0.04 0.16,-0.08c0.73,-0.37 0.73,-0.37 1.23,-1.01c0.02,-0.34 0.01,-0.56 -0.18,-0.85c-0.3,-0.28 -0.62,-0.45 -0.98,-0.63c-0.13,-0.07 -0.25,-0.13 -0.38,-0.2c-0.06,-0.03 -0.13,-0.06 -0.2,-0.1c-0.33,-0.17 -0.66,-0.34 -1,-0.52c-0.14,-0.07 -0.27,-0.14 -0.41,-0.21c-0.11,-0.06 -0.11,-0.06 -0.21,-0.11c-0.07,-0.04 -0.14,-0.07 -0.21,-0.11c-0.28,-0.15 -0.55,-0.29 -0.83,-0.43c-0.07,-0.04 -0.13,-0.07 -0.2,-0.11c-0.51,-0.26 -1.02,-0.53 -1.53,-0.8c-0.1,-0.05 -0.21,-0.11 -0.31,-0.16c-0.1,-0.06 -0.21,-0.11 -0.32,-0.17c-0.05,-0.02 -0.1,-0.05 -0.16,-0.08c-0.04,-0.03 -0.09,-0.05 -0.14,-0.08c-0.55,-0.23 -0.96,0.03 -1.29,0.49z" fill="currentColor"/>
</g></svg>