<svg width="62" height="44" viewBox="0 0 62 44" fill="none" xmlns="http://www.w3.org/2000/svg">
<path d="M18.7726 0.00100921C19.0705 0.000844041 19.3685 0.000627462 19.6664 0.000364283C20.3829 -0.000126342 21.0994 -6.24551e-05 21.8159 0.000292946C22.3995 0.000570175 22.9832 0.000603185 23.5669 0.000472235C23.6927 0.000444319 23.6927 0.000444319 23.8211 0.000415838C23.9917 0.000376996 24.1623 0.000337619 24.3329 0.000297713C25.9226 -4.6473e-05 27.5124 0.00034619 29.1021 0.00100219C30.4585 0.00154462 31.8149 0.0014503 33.1713 0.000890602C34.7564 0.000236815 36.3415 -1.31341e-05 37.9266 0.000357695C38.0964 0.000396374 38.2663 0.000434556 38.4361 0.000472235C38.5614 0.00050034 38.5614 0.00050034 38.6892 0.000529014C39.2704 0.000632739 39.8516 0.000459376 40.4328 0.000171083C41.2188 -0.000210321 42.0048 7.11644e-05 42.7908 0.000765509C43.0765 0.000923887 43.3622 0.000883871 43.6478 0.000612153C46.1605 -0.00155442 48.6945 -0.00242273 51.1926 0.297586C51.3951 0.321349 51.3951 0.321349 51.6016 0.345592C54.6112 0.717974 57.7383 1.51091 59.7727 3.94452C60.6131 5.08439 61.1028 6.31088 61.4394 7.67589C61.4634 7.77097 61.4874 7.86606 61.5121 7.96402C62.077 10.429 61.9912 12.9872 61.9897 15.4997C61.9895 15.9203 61.9901 16.3409 61.9907 16.7615C61.992 17.7562 61.9921 18.7509 61.9914 19.7456C61.9906 20.7623 61.9921 21.7789 61.9947 22.7955C61.9968 23.6769 61.9976 24.5583 61.9972 25.4396C61.9969 25.9622 61.9972 26.4849 61.9989 27.0075C62.0122 31.4487 61.9442 36.1487 59.1724 39.8535C59.1213 39.9247 59.0701 39.996 59.0175 40.0694C57.012 42.652 53.5091 43.3543 50.4672 43.74C49.6003 43.8404 48.7352 43.8952 47.8634 43.9288C47.7321 43.9339 47.6008 43.939 47.4655 43.9443C46.0309 43.9961 44.5972 44 43.1618 43.9986C42.8681 43.9988 42.5744 43.999 42.2807 43.9993C41.5741 43.9998 40.8675 43.9997 40.1608 43.9994C39.5854 43.9991 39.01 43.9991 38.4345 43.9992C38.3518 43.9992 38.2692 43.9992 38.184 43.9992C38.0159 43.9993 37.8478 43.9993 37.6797 43.9994C36.1131 43.9997 34.5464 43.9993 32.9797 43.9987C31.6422 43.9981 30.3046 43.9982 28.9671 43.9988C27.4047 43.9994 25.8423 43.9997 24.2799 43.9993C24.1126 43.9993 23.9452 43.9992 23.7779 43.9992C23.6957 43.9992 23.6134 43.9991 23.5287 43.9991C22.9553 43.999 22.382 43.9992 21.8087 43.9995C21.034 43.9998 20.2593 43.9996 19.4846 43.9989C19.2027 43.9987 18.9208 43.9988 18.6389 43.999C7.22846 44.009 7.22845 44.009 3.50128 40.2928C3.39967 40.1879 3.29805 40.083 3.19335 39.975C3.07085 39.8514 3.07085 39.8514 2.94588 39.7254C-0.196357 36.3594 0.0107973 30.9689 0.0133587 26.6773C0.0134896 26.2419 0.0128954 25.8065 0.0123201 25.3711C0.0109864 24.3418 0.0109204 23.3126 0.0116559 22.2834C0.0123853 21.2298 0.0108978 20.1763 0.00832226 19.1227C0.00617644 18.2106 0.00547014 17.2986 0.00586121 16.3865C0.00607791 15.845 0.00578577 15.3036 0.00408091 14.7622C-0.0204002 6.25334 -0.0203996 6.25334 2.66581 3.45064C5.63077 0.585457 10.0468 0.217637 13.9701 0.0708428C14.1059 0.0657263 14.2417 0.0606098 14.3816 0.0553382C15.8453 0.00415923 17.3082 -0.000383715 18.7726 0.00100921ZM24.1099 14.1053C23.9619 14.4028 23.9728 14.597 23.9712 14.9297C23.9704 15.0524 23.9695 15.1752 23.9686 15.3016C23.9683 15.4369 23.968 15.5721 23.9676 15.7114C23.9668 15.8534 23.966 15.9954 23.9652 16.1417C23.9628 16.6134 23.9614 17.0851 23.9602 17.5568C23.9597 17.7193 23.9592 17.8818 23.9587 18.0442C23.9564 18.8078 23.9547 19.5714 23.9537 20.335C23.9525 21.2157 23.9493 22.0964 23.9444 22.9771C23.9408 23.6582 23.939 24.3393 23.9386 25.0203C23.9383 25.4269 23.937 25.8335 23.9342 26.2401C23.9312 26.6942 23.9314 27.1483 23.9322 27.6024C23.9306 27.7364 23.9291 27.8704 23.9275 28.0084C23.9328 28.7865 24.0085 29.2629 24.4726 29.8943C24.977 30.3221 25.3836 30.4903 26.0444 30.5016C26.8018 30.3156 27.4801 29.9796 28.1602 29.6059C28.3617 29.4973 28.5632 29.3888 28.7648 29.2804C28.8717 29.2227 28.9786 29.1649 29.0888 29.1055C29.7034 28.776 30.3225 28.4552 30.9411 28.1332C31.9145 27.6256 32.8864 27.1154 33.8561 26.6006C34.5601 26.2277 35.267 25.8607 35.9744 25.4945C36.6555 25.1416 37.3349 24.7857 38.014 24.4289C38.1737 24.3454 38.1737 24.3454 38.3367 24.2601C39.7982 23.5158 39.7982 23.5158 40.7948 22.2427C40.84 21.562 40.82 21.1269 40.4321 20.5424C39.8431 19.9852 39.1937 19.6397 38.475 19.2747C38.2245 19.1455 37.974 19.0163 37.7235 18.8871C37.5928 18.8201 37.4621 18.753 37.3274 18.684C36.6579 18.34 35.9911 17.9909 35.3239 17.6427C35.0481 17.499 34.7723 17.3555 34.4964 17.2119C34.29 17.1045 34.29 17.1045 34.0794 16.9949C33.9415 16.9231 33.8035 16.8513 33.6614 16.7773C33.1073 16.4889 32.5531 16.2005 31.999 15.912C31.8646 15.842 31.7302 15.7721 31.5918 15.7C30.575 15.1704 29.5594 14.6386 28.545 14.1046C28.3375 13.9955 28.1298 13.8869 27.9218 13.7786C27.7105 13.6686 27.4997 13.5577 27.2893 13.446C27.1835 13.3908 27.0777 13.3357 26.9687 13.2789C26.8745 13.2293 26.7803 13.1797 26.6833 13.1286C25.5817 12.6647 24.7609 13.1851 24.1099 14.1053Z" fill="white"/>
</svg>
